<svg id="Calque_1" data-name="Calque 1" xmlns="http://www.w3.org/2000/svg" viewBox="0 0 80 80"><defs><style>.cls-1{fill:#ff4e5e;fill-rule:evenodd;}.cls-2{fill:#fff;}</style></defs><title>Plan de travail 1 copie</title><path class="cls-1" d="M68.62,68.54a5.09,5.09,0,1,0,0-10.17H67.8a5.08,5.08,0,1,1,0-10.16h4.61a5.09,5.09,0,1,0,0-10.17H63.74a5.09,5.09,0,1,1,0-10.17H67A5.09,5.09,0,1,0,67,17.7H21.42a5.09,5.09,0,1,0,0,10.17h3.07a5.09,5.09,0,1,1,0,10.17H7.59a5.09,5.09,0,1,0,0,10.17h3.85a5.1,5.1,0,0,1,5.09,5.08c0,2.79-1.7,5.08-3.79,5.08S9,60.66,9,63.46a5.1,5.1,0,0,0,5.09,5.08Z"/><path class="cls-2" d="M40.17,45.84a3.58,3.58,0,0,1-3.51-3.19L36,38.22a3.21,3.21,0,0,1,3-3.91c5.67-.72,8.28-2.48,8.28-5.67v-.13c0-2.93-2.22-4.63-6-4.63a12.07,12.07,0,0,0-7.55,2.61,5,5,0,0,1-2.94,1,4.54,4.54,0,0,1-2.86-8.08,20.44,20.44,0,0,1,13.55-4.69c9.38,0,15.76,4.83,15.76,13.49v.13c0,8.27-5.73,11.66-12.83,13.09l-.19,1.18a3.64,3.64,0,0,1-3.52,3.19Zm0,4.3a5.48,5.48,0,0,1,5.67,5.54v.13a5.67,5.67,0,0,1-11.33,0v-.13A5.48,5.48,0,0,1,40.17,50.14Z"/></svg>