<svg id="Calque_1" data-name="Calque 1" xmlns="http://www.w3.org/2000/svg" xmlns:xlink="http://www.w3.org/1999/xlink" viewBox="0 0 80 80"><defs><style>.cls-1{fill:none;clip-rule:evenodd;}.cls-2{fill:#ff4e5e;}.cls-10,.cls-11,.cls-12,.cls-14,.cls-16,.cls-17,.cls-2,.cls-3,.cls-4,.cls-6,.cls-7,.cls-8{fill-rule:evenodd;}.cls-3{fill:#bec7e4;}.cls-4{fill:#d7a354;}.cls-5{clip-path:url(#clip-path);}.cls-6{fill:#c99444;}.cls-7{fill:#eed37c;}.cls-8{fill:#dbc066;}.cls-9{clip-path:url(#clip-path-2);}.cls-10{fill:#b6853c;}.cls-11{fill:#f3c93c;}.cls-12{fill:#fcd961;}.cls-13{clip-path:url(#clip-path-3);}.cls-14{fill:#ffe9a1;}.cls-15{opacity:0.5;}.cls-16{fill:#e9ab35;}.cls-17{fill:#fff;fill-opacity:0.5;}.cls-18{clip-path:url(#clip-path-4);}.cls-19{clip-path:url(#clip-path-5);}.cls-20{clip-path:url(#clip-path-6);}.cls-21{clip-path:url(#clip-path-7);}.cls-22{clip-path:url(#clip-path-8);}</style><clipPath id="clip-path"><path class="cls-1" d="M19.38,47.3a26.34,26.34,0,0,1,12-11.15l.14-.07.12,0s.05.07.05.16,0,.07,0,.11a.64.64,0,0,0,0,.07h.1l5.09,3.87L52.57,52.22l.07,0h0a4.19,4.19,0,0,1,1.12,1.41,9.09,9.09,0,0,0,3.22,3,8,8,0,0,1,3.17,3.13,8.71,8.71,0,0,1,.53,4q-.13,2.46-5.1,5.28T41.27,72.16H39.05l-5.15.09q-10.75-.3-15.18-4.69a10.55,10.55,0,0,1-3-7.87A24.87,24.87,0,0,1,19.38,47.3Z"/></clipPath><clipPath id="clip-path-2"><path class="cls-1" d="M28.2,26.1q0-3.06,3.42-1.63a21.34,21.34,0,0,1,5.8,3.93q2.69,2,10.26,6.86a35.59,35.59,0,0,1,8.28,7q3.2,3.86,3.2,7.1A4.3,4.3,0,0,1,58.33,52q-1.45,2-5,2-4.53,0-9.66-4.73c-.68-.65-1.5-1.51-2.44-2.58q-2.16-.39-6.67-4.64a44.53,44.53,0,0,1-3.49-3.66c-.21-.26-.41-.49-.57-.71l-.63-.92c-.1-.16-.23-.36-.38-.62-.16-2.66-.29-4.24-.38-4.75A38.84,38.84,0,0,1,28.2,26.1Z"/></clipPath><clipPath id="clip-path-3"><path class="cls-1" d="M57,74.23A9.17,9.17,0,0,1,51.89,73c-1.53-.91-2.29-1.85-2.29-2.83s.62-1.48,1.86-1.86A10.08,10.08,0,0,1,55.55,68a10.91,10.91,0,0,1,4.07,1.23A4.3,4.3,0,0,1,61.8,71.4a1.65,1.65,0,0,1-.86,1.9A7.44,7.44,0,0,1,57,74.23Z"/></clipPath><clipPath id="clip-path-4"><path class="cls-1" d="M36,31.22a21.65,21.65,0,0,0,4.24,3.25q2.88,1.8,5.82,3.57t5.17,3a9.35,9.35,0,0,1,3.47,3.27A8.42,8.42,0,0,1,56,48.9s-.06.38-.17,1.06a1.48,1.48,0,0,1-.63.88l1.43.07c-.38.32-.67.54-.86.67a4.6,4.6,0,0,1-2.05.3,7,7,0,0,1-4.42-1.36,29.61,29.61,0,0,1-2.85-2.45,27.91,27.91,0,0,1-2.47-3q-1.4-1.86-3.61-5.22c-.14-.2-1.42-2.25-3.86-6.17a65,65,0,0,0-4.29-6.18l.05,0A23.86,23.86,0,0,1,36,31.22Z"/></clipPath><clipPath id="clip-path-5"><path class="cls-1" d="M46.45,43.6a3.13,3.13,0,0,1-2.37,1.16,2.49,2.49,0,0,1-2.36-.93,3.7,3.7,0,0,1-.78-2.11,2.39,2.39,0,0,1,.9-1.87A3.5,3.5,0,0,1,44,39a3,3,0,0,1,2.1.62,2.67,2.67,0,0,1,1,1.83A2.86,2.86,0,0,1,46.45,43.6Z"/></clipPath><clipPath id="clip-path-6"><path class="cls-1" d="M49.5,46.12a3.12,3.12,0,0,1-.72,2.38,3.5,3.5,0,0,1-2.61,1.28,2.64,2.64,0,0,1-2.56-1,3.89,3.89,0,0,1-.86-2.33,2.52,2.52,0,0,1,1-2,3.86,3.86,0,0,1,2.34-1,3.23,3.23,0,0,1,2.3.68A3,3,0,0,1,49.5,46.12Z"/></clipPath><clipPath id="clip-path-7"><path class="cls-1" d="M54.24,47.45A4.06,4.06,0,0,1,55,50.33a3.79,3.79,0,0,1-1.78,2.79,2.84,2.84,0,0,1-3.11.4,4.9,4.9,0,0,1-2.24-1.93,3.11,3.11,0,0,1-.25-2.66,4.14,4.14,0,0,1,1.71-2.33A3.44,3.44,0,0,1,51.91,46,3.6,3.6,0,0,1,54.24,47.45Z"/></clipPath><clipPath id="clip-path-8"><path class="cls-1" d="M36.83,39.72a2.64,2.64,0,0,1-.6-1.6,1.73,1.73,0,0,1,.66-1.38,2.7,2.7,0,0,1,1.62-.66,2.26,2.26,0,0,1,1.56.46,2,2,0,0,1,.76,1.37,2.13,2.13,0,0,1-.48,1.63,2.45,2.45,0,0,1-1.78.88A1.77,1.77,0,0,1,36.83,39.72Z"/></clipPath></defs><title>Plan de travail 1</title><path class="cls-2" d="M68.62,68.6a5.09,5.09,0,1,0,0-10.17H67.8a5.08,5.08,0,1,1,0-10.16h4.61a5.09,5.09,0,1,0,0-10.17H63.74a5.09,5.09,0,1,1,0-10.17H67a5.09,5.09,0,1,0,0-10.17H21.42a5.09,5.09,0,1,0,0,10.17h3.07a5.09,5.09,0,1,1,0,10.17H7.59a5.09,5.09,0,1,0,0,10.17h3.85a5.1,5.1,0,0,1,5.09,5.08c0,2.8-1.7,5.08-3.79,5.08S9,60.72,9,63.52a5.1,5.1,0,0,0,5.09,5.08Z"/><path class="cls-3" d="M56.66,72A29.74,29.74,0,0,1,51,73a86.67,86.67,0,0,1-22.25,0q-10.55-1.45-10.81-2.83.38-1.37,11.92-2.41a157.43,157.43,0,0,1,22.48-.48q10.95.57,8.93,2.41A14,14,0,0,1,56.66,72Z"/><path class="cls-3" d="M48.6,72.18c.16-.69,1.8-1.08,4.9-1.18a12.63,12.63,0,0,1,7.75,2,2.56,2.56,0,0,1,.87.81,1.33,1.33,0,0,1,.16,1,1,1,0,0,1-.68.69,11.23,11.23,0,0,1-4.54.85,15.48,15.48,0,0,1-5.6-1.28,6.05,6.05,0,0,1-2.33-1.53A1.58,1.58,0,0,1,48.6,72.18Z"/><path class="cls-4" d="M19.38,47.3a26.34,26.34,0,0,1,12-11.15l.14-.07.12,0s.05.07.05.16,0,.07,0,.11a.64.64,0,0,0,0,.07h.1l5.09,3.87L52.57,52.22l.07,0h0a4.19,4.19,0,0,1,1.12,1.41,9.09,9.09,0,0,0,3.22,3,8,8,0,0,1,3.17,3.13,8.71,8.71,0,0,1,.53,4q-.13,2.46-5.1,5.28T41.27,72.16H39.05l-5.15.09q-10.75-.3-15.18-4.69a10.55,10.55,0,0,1-3-7.87A24.87,24.87,0,0,1,19.38,47.3Z"/><g class="cls-5"><path class="cls-6" d="M58.78,53.65a3.69,3.69,0,0,1-.77,2,4,4,0,0,1-3.13,1.77c.66,1.4,1.18,2.42,1.55,3a9.21,9.21,0,0,1,.89,2,5.73,5.73,0,0,1,.17,2.32c-.66-.29-1.24-.53-1.75-.73A14.44,14.44,0,0,0,54,61.29a18.81,18.81,0,0,1-1.75-2.6,10.51,10.51,0,0,1-.72-1.59A18.23,18.23,0,0,1,46,54.55q-.08.51-.27,1.62a25.1,25.1,0,0,0-.34,3.72c0,.22,0,.43,0,.63a3.91,3.91,0,0,0,0,.58V63l0,.05,0,.18v.14a.29.29,0,0,1,0,.09h0l0,0q0,.38,0,.63v0a15.63,15.63,0,0,1-.33,1.72c-.07.26-.14.55-.24.85l-1.29-.46c-.86-.3-1.6-.56-2.25-.77,0,0,0,0,0-.07A20.89,20.89,0,0,1,40.7,63a13.17,13.17,0,0,1-.15-2.21,21.45,21.45,0,0,1,.58-5,9.21,9.21,0,0,1,1.62-3.73c-.63-.18-1.26-.38-1.9-.61a36.1,36.1,0,0,1-7.48-3.69A26.12,26.12,0,0,1,27.71,43q-2.24-2.59-2.24-4.64a5.36,5.36,0,0,1,.1-1.12c.08-.4.21-.62.39-.65a.65.65,0,0,1,.14-.23.68.68,0,0,1,.62-.21h2a57.68,57.68,0,0,1,8,2.74q5.09,2.09,9.85,4.57,9.74,5.09,11.5,8.19a3.82,3.82,0,0,0-.11-.51l0,0a3.38,3.38,0,0,1,.57,1.18A5.07,5.07,0,0,1,58.78,53.65ZM44,69.05q-.12.26-.27.54L42.85,69c-.1-.17-.21-.37-.32-.59Zm-.93.4.54.35a.64.64,0,0,1-.08.14A1.57,1.57,0,0,1,43.1,69.45Zm1.58-2.16c0,.18-.11.37-.18.56l-.42-.23-2.46-1.28a.69.69,0,0,0,0-.13Zm-.44,1.28a1.12,1.12,0,0,1-.05.13L42.3,68c-.23-.49-.43-1-.6-1.43l2.24,1.24.49.27C44.37,68.21,44.31,68.39,44.24,68.57Zm12.27-1.78-.18-.13v-.13l.26.22-.07,0Zm.34-.27-.55-.43,0-.18.72.44Zm.3-.42-.94-.56a7.09,7.09,0,0,0-.3-1l1.52.69A3.19,3.19,0,0,1,57.15,66.1Z"/></g><path class="cls-7" d="M44,48h0l.17,0,.18.16.39.36c-.18,0-.47.08-.85.14a17,17,0,0,1-4.81-.83,21.13,21.13,0,0,1-6.88-3.14,21.8,21.8,0,0,1-4.61-4.08,5.57,5.57,0,0,1-1.51-3.08c0-2.49,1.22-3.18,3.67-2.05l.54.54h-.06l-.09,0,.72.55c.43.41.92.86,1.45,1.34,2.24,2,4.12,3.66,5.62,4.89q1.31,1.06,5.71,4.78C43.8,47.72,43.93,47.85,44,48Z"/><path class="cls-8" d="M37,47.27s0,.07-.12.07c-.33,0-.61-.45-.82-1.33s-.21-1.34-.21-1.35A8,8,0,0,1,36,43.23h.08c.09.43.2,1.1.32,2A7,7,0,0,0,37,47.27Zm2.16-1.5c.34.77.73,1.57,1.18,2.4a.19.19,0,0,1-.15.16,2.23,2.23,0,0,1-.82-1.09,3.56,3.56,0,0,1-.4-1.3.15.15,0,0,1,.1-.15Zm3,2.58a.09.09,0,0,0,.07,0,.38.38,0,0,1,0,.14c0,.14,0,.18,0,.11a.33.33,0,0,1-.17.09l-.07,0a.42.42,0,0,1,0-.15V48.4s0,0,0,0Zm-12.44-9a6.9,6.9,0,0,0-.21,1.68,7.88,7.88,0,0,0,.18,1.74V43s-.08,0-.17,0-.4-.32-.46-1,0-1,0-1c0-1.72.5-2.82,1.5-3.29A3.39,3.39,0,0,0,29.74,39.39Zm-.33-3.54s0,0-.13,0a2.94,2.94,0,0,1-.92-.5V35.2a1.35,1.35,0,0,1,.57.18,1.13,1.13,0,0,1,.48.37Zm-2.48,1.38a1.94,1.94,0,0,0-.43,1.64.32.32,0,0,1-.17.12,1.91,1.91,0,0,1-.21-1q0-.65.93-1.38a2.37,2.37,0,0,1,2-.57l0,.07A3.39,3.39,0,0,0,26.93,37.23ZM32.24,43a4.38,4.38,0,0,0,.3,1.35L33,45.61a.19.19,0,0,1-.12.11,2.74,2.74,0,0,1-.91-1.31A4,4,0,0,1,31.7,43a4.17,4.17,0,0,1,.39-1.68c.32-.73.72-1.11,1.21-1.15a5.3,5.3,0,0,0-.88,1.47A4.1,4.1,0,0,0,32.24,43Z"/><path class="cls-7" d="M45.49,51.13c-.17,2.61-.25,4.47-.25,5.55a31.81,31.81,0,0,0,.3,3.91c.11.9.29,2.18.53,3.86v.68l-.07.05a7.55,7.55,0,0,1-1.09-2.83,19.14,19.14,0,0,1,.16,2.16,1.9,1.9,0,0,1,0,.37c0,.05,0,.08-.17.08-.31,0-.56-.53-.76-1.59Q44,62.46,44,62.05l-.2.12c0,.22,0,.36,0,.43.06.36.1.76.14,1.22,0,.26,0,.69.1,1.28l-.17.09a3.41,3.41,0,0,1-.52-1.42,11.42,11.42,0,0,1-.16-1.24l-.24.14L43,64c0,.38.09.94.2,1.69a1.26,1.26,0,0,1-.08.4.7.7,0,0,1-.2.39,3.83,3.83,0,0,1-.51-1.67,12.19,12.19,0,0,1-.17-1.64.24.24,0,0,0-.1.05v0c0,.3,0,.79,0,1.48,0,.06,0,.19,0,.42a2.29,2.29,0,0,0,0,.49H42s-.09-.43-.23-1.14a8.71,8.71,0,0,1-.15-1l-.12.07c0,.42-.08.9-.13,1.43a2.18,2.18,0,0,1-.48-1.23,7.8,7.8,0,0,1-.13-1.38,24.93,24.93,0,0,1,1-6.92,11.6,11.6,0,0,1,3.88-5.79Q45.54,50.25,45.49,51.13Z"/><path class="cls-8" d="M44.81,50.89a7.75,7.75,0,0,1-.63.59c-.15,0-.22-.06-.22-.17s.21-.49.63-.73a1.06,1.06,0,0,1,1.21-.08c0,.08-.14.15-.33.2A3.46,3.46,0,0,0,44.81,50.89Zm-.88,3a4.54,4.54,0,0,0-1,.65,3.62,3.62,0,0,0-1,1.3h-.13s0,0,0-.1a2.3,2.3,0,0,1,.9-1.54,3.11,3.11,0,0,1,2.8-.82,2,2,0,0,1-.67.27C44.27,53.81,44,53.89,43.93,53.92Zm-3.2,6.87a3.23,3.23,0,0,1,1.18-2.28,4.75,4.75,0,0,1,3.65-1.3v0A5.94,5.94,0,0,0,42,59a6.57,6.57,0,0,0-1.14,2.22A.78.78,0,0,1,40.73,60.79Z"/><path class="cls-7" d="M51.87,53.49c0-.22,0-.44,0-.67a.49.49,0,0,1,.2-.45,6.7,6.7,0,0,1,.31.72,2.21,2.21,0,0,1,.54,0,1.66,1.66,0,0,1,.54.11.45.45,0,0,1,.1-.13,42.68,42.68,0,0,0,9.35,8.53.33.33,0,0,1,0,.12.2.2,0,0,1-.16.05,6.4,6.4,0,0,1-2.5-1.15l-.11.18.24.14c1.57.93,2.35,1.53,2.35,1.81a.24.24,0,0,1,0,.13l0,0a.36.36,0,0,1-.23,0,6.57,6.57,0,0,1-2.33-1.13c-.19-.11-.36-.22-.52-.33,0,.08-.11.15-.16.22A13.39,13.39,0,0,1,62,63.86c-1.47-.68-2.38-1.12-2.73-1.31l-.41-.23a.2.2,0,0,0-.08.08,8.29,8.29,0,0,1,.74.55,10.28,10.28,0,0,1,1.65,1.73l-.05.17-.13,0a23.85,23.85,0,0,1-2.05-1.3c-.35-.24-.66-.46-.91-.66a9.29,9.29,0,0,1,1.38,2.13c-2.92-2-4.85-3.92-5.81-5.74A15.1,15.1,0,0,1,51.92,54l0,0,0,0s0-.06,0-.15A.85.85,0,0,1,51.87,53.49Z"/><path class="cls-8" d="M54.34,53.67a5.13,5.13,0,0,0-1.58,3.79l-.1,0a3.23,3.23,0,0,1-.14-.58c-.05-.32-.08-.51-.08-.58a3.24,3.24,0,0,1,.47-1.61A1.68,1.68,0,0,1,54.34,53.67Zm1,1.63s0,0,0,.07-.17.29-.28.46a5.69,5.69,0,0,0-.47,1c0,.12-.06.34-.1.67s-.05.52-.05.68A10,10,0,0,0,54.77,60a5.17,5.17,0,0,0,.51,1.6s0,.05-.13.05-.23-.22-.5-.67a5.21,5.21,0,0,1-.5-1.08c-.11-.49-.18-.82-.21-1a6.14,6.14,0,0,1,.13-2.26,2.87,2.87,0,0,1,1.23-1.43Zm2.82,1.76a.13.13,0,0,1,0,.1l-.39.67a4.71,4.71,0,0,0-.54,1.28,9.18,9.18,0,0,0-.19,1c0,.1,0,.39,0,.86a8,8,0,0,0,.26,1.87c.09.36.18.7.27,1v.07l-.05,0a4.14,4.14,0,0,1-.85-1.48A5.26,5.26,0,0,1,56.58,61a7,7,0,0,1,.28-2.06A3.37,3.37,0,0,1,58.13,57Z"/><path class="cls-4" d="M28.2,26.1q0-3.06,3.42-1.63a21.34,21.34,0,0,1,5.8,3.93q2.69,2,10.26,6.86a35.59,35.59,0,0,1,8.28,7q3.2,3.86,3.2,7.1A4.3,4.3,0,0,1,58.33,52q-1.45,2-5,2-4.53,0-9.66-4.73c-.68-.65-1.5-1.51-2.44-2.58q-2.16-.39-6.67-4.64a44.53,44.53,0,0,1-3.49-3.66c-.21-.26-.41-.49-.57-.71l-.63-.92c-.1-.16-.23-.36-.38-.62-.16-2.66-.29-4.24-.38-4.75A38.84,38.84,0,0,1,28.2,26.1Z"/><g class="cls-9"><path class="cls-6" d="M31,31.21q1.17,2.43,2.6,6.17a8.89,8.89,0,0,0,3,4.42l-.42-1.35h0c1-.19,2.25.79,3.74,2.95a45.67,45.67,0,0,0,4,5.09A12.33,12.33,0,0,1,45.4,50.1c-.21-.18-.31-.06-.31.36,0,.15,0,.2-.05.17s0,.08-.13.08q-1.84,0-4.73-4.07l-.34-.5h0a8.37,8.37,0,0,1-3.11-1.56c0,.12,0,.23,0,.33s0,.13,0,.12-.08,0-.09,0a10.21,10.21,0,0,1-.75-1,13.71,13.71,0,0,1-2-1.54l0,0-.48-.41-1.48-1.5a6.71,6.71,0,0,1-1-1.29,3.58,3.58,0,0,1-.18-.32c0,.16-.06.32-.09.46l-1.13-1.82c.17-2,.25-3,.25-3.08a44.29,44.29,0,0,0-.2-4.73C29.73,29.11,30.25,29.59,31,31.21Z"/><path class="cls-10" d="M62.63,52.72A8.75,8.75,0,0,1,59.87,54a12.5,12.5,0,0,1-3.81.75,17.66,17.66,0,0,1-8-2.13,14.64,14.64,0,0,1-4.74-3.41L41.25,47a12.07,12.07,0,0,1-6.32-3.54c-1.74-1.82-2.89-3.06-3.47-3.72L29,36.89c-1.57-1.83-2.42-3.08-2.55-3.72q2.32,2.3,6.54,6.4a57.15,57.15,0,0,0,5.35,4.57l1,.77c-.88-1.21-1.64-2.22-2.25-3v0q1.23.1,4,3.45a25.62,25.62,0,0,0,5.2,4.9,19.47,19.47,0,0,0,2.51,1.39,16.9,16.9,0,0,0,7.23,1.81,13.15,13.15,0,0,0,2.86-.45A13.25,13.25,0,0,1,62,52.46a.61.61,0,0,1,.32.08Z"/></g><path class="cls-6" d="M55.23,43.74a8.86,8.86,0,0,1,1.7,5,3.23,3.23,0,0,1-.07.66A6.4,6.4,0,0,0,59,49.06a6.64,6.64,0,0,1-1.15,1.24,3.77,3.77,0,0,1-2.56.88c-1.08,0-2-.67-2.66-2.07a12.17,12.17,0,0,0-2.69-3.62c-.81-.75-2-1.8-3.62-3.13S43.42,40,42.63,39.24a58.53,58.53,0,0,1-5.57-6.3c-1.35-1.71-2.83-3.46-4.46-5.26q3.67,2.76,8.65,5.87c.82.52,2.3,1.4,4.46,2.63q2.86,1.66,4,2.43A20.38,20.38,0,0,1,55.23,43.74Z"/><path class="cls-10" d="M36,31.22a21.65,21.65,0,0,0,4.24,3.25q2.88,1.8,5.82,3.57t5.17,3a9.35,9.35,0,0,1,3.47,3.27A8.42,8.42,0,0,1,56,48.9s-.06.38-.17,1.06a1.48,1.48,0,0,1-.63.88l1.43.07c-.38.32-.67.54-.86.67a4.6,4.6,0,0,1-2.05.3,7,7,0,0,1-4.42-1.36,29.61,29.61,0,0,1-2.85-2.45,27.91,27.91,0,0,1-2.47-3q-1.4-1.86-3.61-5.22c-.14-.2-1.42-2.25-3.86-6.17a65,65,0,0,0-4.29-6.18l.05,0A23.86,23.86,0,0,1,36,31.22Z"/><path class="cls-11" d="M49.61,70V69.8a2.68,2.68,0,0,0,1.63,0,10.08,10.08,0,0,1,4.09-.24,10.77,10.77,0,0,1,4.09,1.24l2.43,1.36,0,.08a8.37,8.37,0,0,0-.38,1.88,2.77,2.77,0,0,1-.7.72,7.7,7.7,0,0,1-4,.93,9.27,9.27,0,0,1-5.09-1.28c-1.44-.86-2.21-1.79-2.32-2.8A5.26,5.26,0,0,0,49.61,70Z"/><path class="cls-12" d="M57,74.23A9.17,9.17,0,0,1,51.89,73c-1.53-.91-2.29-1.85-2.29-2.83s.62-1.48,1.86-1.86A10.08,10.08,0,0,1,55.55,68a10.91,10.91,0,0,1,4.07,1.23A4.3,4.3,0,0,1,61.8,71.4a1.65,1.65,0,0,1-.86,1.9A7.44,7.44,0,0,1,57,74.23Z"/><g class="cls-13"><path class="cls-14" d="M49.3,70.53a4,4,0,0,1,.86-.2,6,6,0,0,1,1,.25,4.62,4.62,0,0,0,1.23.24,1.29,1.29,0,0,0,1.08-.69c.13-.21.24-.38.32-.53a1.44,1.44,0,0,1,.3-.38,2.49,2.49,0,0,1,1.49-.47,6.37,6.37,0,0,1,1.18.2,5.91,5.91,0,0,0,1.35.2,3.89,3.89,0,0,0,2.21-.73l.13-.08c.08.09.12.15.12.2v.08l.1-.07a2.15,2.15,0,0,1-.17.82,2,2,0,0,1-1.84,1H57.48A1.12,1.12,0,0,0,56,71.53l.07.62a1.09,1.09,0,0,1-.33.69,1.15,1.15,0,0,1-.85.45H54a8.07,8.07,0,0,0-.85-.21,6.83,6.83,0,0,0-1.69-.19,2,2,0,0,0-1.65.72L49.56,73c-.5-.91-.86-1.6-1.08-2.08A3.35,3.35,0,0,1,49.3,70.53Z"/></g><g class="cls-15"><path class="cls-16" d="M56.08,68.64a7.49,7.49,0,0,0-2.17,0,7.62,7.62,0,0,0-2.19.54c-.6.25-.87.57-.81.94a3.44,3.44,0,0,0,.42,1.13,1.32,1.32,0,0,1-.7-.54,1.08,1.08,0,0,1-.13-1c.14-.41.79-.77,1.94-1.07a7.88,7.88,0,0,1,3.69-.06h0S56.16,68.64,56.08,68.64Z"/></g><path class="cls-17" d="M60.85,70.75a.15.15,0,0,1,.17.17c0,.11-.06.16-.18.16a.19.19,0,0,1-.17-.08l0-.08C60.65,70.8,60.72,70.75,60.85,70.75Zm.39.5c0,.08-.05.11-.14.11s-.1,0-.11,0v0c0-.07,0-.11.13-.11S61.24,71.18,61.24,71.25Zm-.7-.1s.1,0,.16.08-.08.08-.1.08h-.08l0-.07A.12.12,0,0,1,60.54,71.15ZM55,68.62c0,.09,0,.13-.12.13a.12.12,0,0,1-.12-.08v-.08c0-.08,0-.12.13-.12S55,68.52,55,68.62Zm.4,0a.28.28,0,0,1-.24-.11.27.27,0,0,1-.06-.14c0-.11.06-.16.2-.16s.21.08.25.23S55.52,68.65,55.42,68.65Zm-5.14,1.08a.62.62,0,0,1-.4.12c-.38,0-.57-.1-.57-.32s.19-.37.55-.36.55.12.55.33A.27.27,0,0,1,50.28,69.73Zm0,.2q.2,0,.21.24a.28.28,0,0,1-.1.18.28.28,0,0,1-.21.08c-.15,0-.22-.06-.22-.2S50.12,69.93,50.33,69.93Zm3.57,3c0-.11.05-.17.15-.17s.15.06.15.13,0,0-.05.09A.19.19,0,0,1,54,73C53.94,73,53.9,73,53.9,72.93Z"/><g class="cls-15"><path class="cls-16" d="M57.44,73.54a5.65,5.65,0,0,1-1.81-.18c2.34,0,3.92-.24,4.74-.8a1.52,1.52,0,0,0,.48-.5.85.85,0,0,1-.33.72,3.47,3.47,0,0,1-1.15.51A7.81,7.81,0,0,1,57.44,73.54Z"/></g><g class="cls-18"><path class="cls-11" d="M52.77,47.27a3,3,0,0,1-2.24,1.1,2.25,2.25,0,0,1-2.2-.88,3.32,3.32,0,0,1-.75-2,2.19,2.19,0,0,1,.85-1.73,3.32,3.32,0,0,1,2-.85,2.79,2.79,0,0,1,2,.59,2.61,2.61,0,0,1,1,1.72A2.73,2.73,0,0,1,52.77,47.27Z"/><g class="cls-15"><path class="cls-16" d="M52.51,46.79a1.86,1.86,0,0,0,.18-.75,2.27,2.27,0,0,0-1.58-2.26l-.25-.09a1.37,1.37,0,0,1,1.46.62,2.41,2.41,0,0,1,.6,1.46,1.81,1.81,0,0,1-.18.67,1.13,1.13,0,0,1-.25.38Z"/></g><path class="cls-11" d="M46.45,43.6a3.13,3.13,0,0,1-2.37,1.16,2.49,2.49,0,0,1-2.36-.93,3.7,3.7,0,0,1-.78-2.11,2.39,2.39,0,0,1,.9-1.87A3.5,3.5,0,0,1,44,39a3,3,0,0,1,2.1.62,2.67,2.67,0,0,1,1,1.83A2.86,2.86,0,0,1,46.45,43.6Z"/><g class="cls-19"><g class="cls-15"><path class="cls-14" d="M45.51,39.7a3,3,0,0,1,2.32.95l.14.16c-.07.4-.12.71-.14.94s0,.27-.07.44L47.58,42A2.16,2.16,0,0,0,46,41.2a3.1,3.1,0,0,0-1.53.42A3.21,3.21,0,0,1,43,42a1.92,1.92,0,0,1-1.57-.74c-.39-.48-.67-.73-.84-.73h-.1l.52-.69A13.86,13.86,0,0,1,42.8,38h0s0,0,0,.08,0,.27-.05.47a1.38,1.38,0,0,0,.27.75,1.43,1.43,0,0,0,1.28.64,1.79,1.79,0,0,0,.55-.1A2.21,2.21,0,0,1,45.51,39.7Z"/></g></g><g class="cls-15"><path class="cls-16" d="M45.49,40.14l0-.38a2.4,2.4,0,0,1,.38.23,1.77,1.77,0,0,1,.67,1,2.12,2.12,0,0,1,.08.57v0s0,.09-.07.18-.06.17-.08.18a1.9,1.9,0,0,0-.07-.46,2.63,2.63,0,0,0-.21-.51l-.07-.15a2.11,2.11,0,0,0-.56-.65S45.5,40.15,45.49,40.14Zm-.33-.24-.06-.28.27.1c0,.11,0,.23,0,.35Zm-1-.38.14.13a1.94,1.94,0,0,0-2,1.2,4,4,0,0,0-.17,1.24c0,.17,0,.35,0,.55l-.27,0a1.57,1.57,0,0,1,0-.23c0-.41,0-.62,0-.63a2.08,2.08,0,0,1,.75-1.68A2.62,2.62,0,0,1,44.13,39.52Zm.5.17-.15-.17.31,0a1.42,1.42,0,0,1,0,.2A.66.66,0,0,0,44.63,39.69Z"/></g><path class="cls-12" d="M49.5,46.12a3.12,3.12,0,0,1-.72,2.38,3.5,3.5,0,0,1-2.61,1.28,2.64,2.64,0,0,1-2.56-1,3.89,3.89,0,0,1-.86-2.33,2.52,2.52,0,0,1,1-2,3.86,3.86,0,0,1,2.34-1,3.23,3.23,0,0,1,2.3.68A3,3,0,0,1,49.5,46.12Z"/><g class="cls-20"><path class="cls-14" d="M50.05,45c0,.34.07.61.09.83a2.33,2.33,0,0,0-.76-.12,3.21,3.21,0,0,0-1.28.4,3.63,3.63,0,0,1-1.6.4,8.92,8.92,0,0,1-2.52-1,3,3,0,0,0-1.83-.37A15.91,15.91,0,0,1,43,43.64a2.53,2.53,0,0,1,1.77.85,2.29,2.29,0,0,0,1.71.85,2.38,2.38,0,0,0,1.06-.27,5.15,5.15,0,0,1,1.95-.26A1.43,1.43,0,0,1,50.05,45Z"/></g><g class="cls-15"><path class="cls-16" d="M49,46.13a1.09,1.09,0,0,1-.11.89c0-.17-.07-.43-.14-.78a3.13,3.13,0,0,0-.3-1A1.28,1.28,0,0,1,49,46.13Zm-2.78-2-.39.12a3.38,3.38,0,0,0-1.73,1.2,2.79,2.79,0,0,0-.4,1.2l0,.18c0-.13,0-.25,0-.36a2.63,2.63,0,0,1,.55-1.6A1.87,1.87,0,0,1,46.23,44.12Z"/></g><path class="cls-12" d="M54.24,47.45A4.06,4.06,0,0,1,55,50.33a3.79,3.79,0,0,1-1.78,2.79,2.84,2.84,0,0,1-3.11.4,4.9,4.9,0,0,1-2.24-1.93,3.11,3.11,0,0,1-.25-2.66,4.14,4.14,0,0,1,1.71-2.33A3.44,3.44,0,0,1,51.91,46,3.6,3.6,0,0,1,54.24,47.45Z"/><g class="cls-21"><path class="cls-14" d="M50.28,47.25a3.74,3.74,0,0,1,1.49-.51c1,0,1.53.59,1.72,1.76a6.7,6.7,0,0,0,.25,1.2.87.87,0,0,0,.84.55,1.75,1.75,0,0,0,1.2-.59v1l-.08.1a3.36,3.36,0,0,1-.58.56,1.75,1.75,0,0,1-.93.34A1.22,1.22,0,0,1,53,51.14,3.21,3.21,0,0,1,52.77,50a2.69,2.69,0,0,0-.3-1.19,1.41,1.41,0,0,0-1.28-.54,2.48,2.48,0,0,0-1.51.45,6.88,6.88,0,0,0-1,1A3.94,3.94,0,0,1,46.24,51q.09-.47.15-.75a9.13,9.13,0,0,1,1-2.88l.19,0a2.41,2.41,0,0,0,1.24.32A3.71,3.71,0,0,0,50.28,47.25Zm-2.71,2.61v0a.33.33,0,0,0-.14.1C47.58,49.91,47.62,49.86,47.57,49.86Z"/></g><g class="cls-15"><path class="cls-16" d="M52.62,47.49a2.09,2.09,0,0,1,1.57,2.21A2.58,2.58,0,0,1,54,50.85a.4.4,0,0,1,0-.2,3.18,3.18,0,0,0,.11-.82,2.52,2.52,0,0,0-1-1.94A4.55,4.55,0,0,0,52.62,47.49Zm-4.4,3.45A2.36,2.36,0,0,1,48,49.81a2.5,2.5,0,0,1,.31-1.23,2.89,2.89,0,0,1,1.27-1,3.77,3.77,0,0,0-.93,1,1.74,1.74,0,0,0-.25.58,4.06,4.06,0,0,0-.1,1,3.17,3.17,0,0,0,.06.68,3,3,0,0,0,.24.62,1.89,1.89,0,0,1,.06.18A2.38,2.38,0,0,1,48.22,50.94Z"/></g><path class="cls-11" d="M36.83,39.72a2.64,2.64,0,0,1-.6-1.6,1.73,1.73,0,0,1,.66-1.38,2.7,2.7,0,0,1,1.62-.66,2.26,2.26,0,0,1,1.56.46,2,2,0,0,1,.76,1.37,2.13,2.13,0,0,1-.48,1.63,2.45,2.45,0,0,1-1.78.88A1.77,1.77,0,0,1,36.83,39.72Z"/><g class="cls-22"><g class="cls-15"><path class="cls-14" d="M36.56,35.63a2.57,2.57,0,0,1,.87,0,5.12,5.12,0,0,1,1,.67,3.62,3.62,0,0,0,2.26.7,3,3,0,0,0,1.08-.28l.06.26a4.18,4.18,0,0,1-2.17,1l-.35,0a2.5,2.5,0,0,1-.4,0,3.86,3.86,0,0,1-.92-.4,3,3,0,0,0-1.49-.47,2.56,2.56,0,0,0-.49,0l-.11,0c.1-.52.17-1,.22-1.31h0a1,1,0,0,1,.3-.19Z"/></g></g><g class="cls-15"><path class="cls-16" d="M37.21,37.31a1.77,1.77,0,0,1,1.53-.68,1.07,1.07,0,0,1,.6.13,1.5,1.5,0,0,0-.9.07A2,2,0,0,0,37,38.72L37,38.59a1,1,0,0,1-.1-.28A1.69,1.69,0,0,1,37.21,37.31Z"/></g><path class="cls-17" d="M50.93,43.58a.23.23,0,0,1-.19.11.21.21,0,0,1-.23-.16l0-.17c0-.22.09-.33.25-.33s.25.11.25.33A.43.43,0,0,1,50.93,43.58Zm.41.1a.3.3,0,0,1,.22-.32c.13,0,.2,0,.2.24s-.09.19-.25.24l-.12,0A.16.16,0,0,1,51.34,43.68Zm-.43,3.17a.41.41,0,0,1-.35.17.39.39,0,0,1-.37-.22l-.06-.21a.4.4,0,0,1,.45-.45c.29,0,.43.15.43.45A.39.39,0,0,1,50.91,46.85Zm-1.11.55c0-.19.11-.27.33-.26a.31.31,0,0,1,.33.36c0,.21-.1.32-.3.32a.33.33,0,0,1-.3-.2A.49.49,0,0,1,49.8,47.4Zm3.55,2.06a.93.93,0,0,1,0-.13q0-.3.36-.33c.24,0,.35.06.35.25a.33.33,0,0,1-.13.25.54.54,0,0,1-.3.1A.27.27,0,0,1,53.35,49.46Zm-.86.34-.07,0s0,0,0-.15.08-.26.25-.25.25.08.25.2a.23.23,0,0,1-.12.18.33.33,0,0,1-.18.08Zm-9.4-10.1v-.21c0-.28.09-.41.25-.38s.25.18.25.46-.08.35-.25.35S43.13,39.85,43.09,39.7Zm3.16-.15c.17,0,.25.1.25.3s-.07.32-.21.32-.24-.05-.27-.15,0-.16,0-.17C46,39.64,46.09,39.54,46.25,39.55Zm-6.9-3c0-.05.14-.06.29,0v.39s0,.08-.15.08-.16-.09-.16-.28A.63.63,0,0,1,39.35,36.56Zm1.15.68c0,.17-.09.25-.28.25a.25.25,0,0,1-.27-.25.31.31,0,0,1,.28-.31C40.41,36.89,40.5,37,40.5,37.24Zm6,3.53a.28.28,0,0,1-.13,0,.14.14,0,0,1-.05-.13.28.28,0,0,1,.05-.16c.07-.09.17-.11.32,0l0,0a.22.22,0,0,1,0,.12C46.79,40.6,46.71,40.68,46.55,40.77Zm1.18,3.39-.2,0-.13,0s0-.06,0-.13a.19.19,0,0,1,.08-.17c.07,0,.16,0,.28.07l0,.08Zm.9,0a.38.38,0,0,1-.13.27.52.52,0,0,1-.38.15.24.24,0,0,1-.25-.17,1.23,1.23,0,0,1,0-.18c0-.22.14-.36.4-.42S48.63,43.89,48.63,44.19Zm-4,.54,0-.24c0-.33.13-.5.38-.5s.39.16.39.49a.68.68,0,0,1-.07.28A.34.34,0,0,1,45,45,.35.35,0,0,1,44.62,44.73Zm2.68.88-.2,0s0,0,0-.15a.18.18,0,0,1,.11-.15.32.32,0,0,1,.27,0l0,.15,0,.16Zm1.17,2.29c-.16,0-.27-.1-.32-.31l0-.34c0-.35.15-.53.47-.53a.4.4,0,0,1,.46.45.91.91,0,0,1-.13.4A.52.52,0,0,1,48.47,47.9Z"/></g><path class="cls-10" d="M30.64,23.62a.49.49,0,0,1,.23.45v.3l-.07,0a1.17,1.17,0,0,1-.18-.64v-.13Zm.65.59a1.44,1.44,0,0,1,0,.35h-.1a.83.83,0,0,1-.05-.38c0-.19,0-.32.11-.38A.72.72,0,0,1,31.29,24.21ZM30,26.57a.21.21,0,0,1,.1-.12.3.3,0,0,1,.22,0l0,.21c0,.05,0,.07-.12.07Zm.75,1c0,.05-.06.08-.17.08a.75.75,0,0,0-.23,0s-.05-.09-.05-.2,0-.11.12-.15.17,0,.3,0Zm0,.93c-.05,0-.07,0-.07-.15s.07-.23.22-.2a.19.19,0,0,1,.15.2l0,.12ZM22.14,43v0h.05a1.36,1.36,0,0,0,.19.33c-.17-.11-.25-.2-.25-.27S22.13,43,22.14,43Zm-.6,1.13a1.46,1.46,0,0,1,.3.6.41.41,0,0,1,0,.1s-.07.05-.13.05-.27-.15-.44-.45a1.85,1.85,0,0,1-.23-.58l0-.17h0A1.59,1.59,0,0,1,21.54,44.09Zm-.93.95a2.84,2.84,0,0,1-.25-.73c0-.35.11-.35.34,0a7.79,7.79,0,0,1,.56,1.25.3.3,0,0,0,0,.1s0,0-.11,0S20.8,45.47,20.61,45Zm1.52,8.86A.19.19,0,0,1,22,54a.41.41,0,0,1-.06-.27h.2s0,0,0,.1S22.14,54,22.13,53.9Zm-1.23-1a.83.83,0,0,1,.13.22c0,.11,0,.16,0,.16s0,.06-.1.09a.7.7,0,0,1-.2-.2.58.58,0,0,1-.11-.24.42.42,0,0,1,.1-.25A1.18,1.18,0,0,1,20.9,52.89Zm-.55.47c-.1,0-.2-.1-.29-.29a1,1,0,0,1-.1-.3.52.52,0,0,1,.35.22l.19.27a.08.08,0,0,1,0,.06A.2.2,0,0,1,20.35,53.36Zm-4.84,8.06a1,1,0,0,1,.6-.15v.17a1,1,0,0,0-.42.18,1,1,0,0,1-.51.17c0,.05,0,0,0-.09S15.26,61.53,15.51,61.42Zm-.9,1.13c0-.11.26-.31.77-.61a2.58,2.58,0,0,1,1-.45h0a.22.22,0,0,1,0,.12,4.49,4.49,0,0,1-1.75,1.05S14.61,62.66,14.61,62.55Zm6.22,6.37a2.85,2.85,0,0,0-.38.18l-.12,0a.24.24,0,0,1,0-.15c0-.1.1-.19.31-.26a1.29,1.29,0,0,1,.39-.09h0s0,0,0,.11S21,68.84,20.83,68.92Zm.56,0s0,0,0,.1-.17.25-.5.4H20.8v0c-.05,0-.07,0-.07-.12s.08-.19.23-.28a.52.52,0,0,1,.38-.08Zm33.81-28a1.4,1.4,0,0,1-.25.27.85.85,0,0,1-.28.2s-.05,0-.05-.12.08-.17.23-.26A.52.52,0,0,1,55.2,40.93Zm.25.3s0,0,0,.1-.07.12-.2.22a.68.68,0,0,1-.35.17c-.06.06-.09,0-.09-.07a.24.24,0,0,1,.2-.23,1.67,1.67,0,0,0,.4-.17Zm2.78,7a.67.67,0,0,1,0-.17,2.61,2.61,0,0,1,.58,0s0,0,0,0,0,0,0,.1-.11.2-.33.2l-.28,0-.05,0Zm-.52,3.69-.12-.11a.27.27,0,0,1,.27-.14.43.43,0,0,1,.28.22.19.19,0,0,1-.2.15A.39.39,0,0,1,57.71,51.94Zm-.73.25a.51.51,0,0,1,.32,0s0,.14,0,.31,0,.07-.15.07-.12,0-.17-.17A.57.57,0,0,1,57,52.19Zm-6.2,11.87-.05,0a.22.22,0,0,1,0-.12.34.34,0,0,1,.27-.33s0,0,.06,0v.12C51,63.8,51,63.92,50.78,64.06Zm.51.27a.24.24,0,0,1,0-.15c0-.08.06-.13.18-.17a1.13,1.13,0,0,1,.32,0l0,.1-.41.26Zm.37.5c-.15-.1-.22-.16-.22-.18a.48.48,0,0,1,.22-.37.35.35,0,0,1,.53,0l.05.1a.85.85,0,0,1-.27.27A1.06,1.06,0,0,1,51.66,64.83Zm-17-6.24a1.08,1.08,0,0,1,0,.25.45.45,0,0,1-.15.24l-.17,0s0-.06,0-.13a.72.72,0,0,1,.08-.24.6.6,0,0,1,.17-.26l.12,0A.21.21,0,0,1,34.68,58.59Zm-.93.55,0,0a.69.69,0,0,1-.1-.27l-.05-.28c.12,0,.19.07.22.13a.54.54,0,0,1,0,.17A.45.45,0,0,1,33.75,59.14ZM24,65.76l0,.22a1.28,1.28,0,0,1-.32.1.34.34,0,0,1-.1-.22,1.45,1.45,0,0,1,.14-.18.9.9,0,0,1,.16-.17A.24.24,0,0,1,24,65.76Zm-1-.71c-.07,0-.12-.07-.13-.1a1.42,1.42,0,0,1,.38-.29.4.4,0,0,1,.14.2l0,.17a.28.28,0,0,1-.2,0Z"/><path class="cls-8" d="M56.75,56.33q0,.14-.24.24h0a.15.15,0,0,1,0-.07c0-.08.07-.16.21-.23h.07S56.75,56.3,56.75,56.33Zm.4.27c0,.07-.13.17-.39.31a.12.12,0,0,1-.08-.11s.06-.1.18-.17a.64.64,0,0,1,.22-.11S57.15,56.57,57.15,56.6ZM56.38,56l-.17.15s0,0,0-.05l.15-.14Zm-3,2.17q0,.09-.3.39v-.1a.46.46,0,0,1,.1-.17q.09-.16.15-.18h0S53.4,58.16,53.4,58.19ZM53.25,58c-.14.19-.23.28-.28.28a.07.07,0,0,1-.06,0s0,0,0-.05,0-.07.11-.15l.15-.14Zm6.81,1.94-.17-.05v0l.6,0,0,.05-.1.08Zm-1.8,1.5c.07,0,.14,0,.23.13l.15.27v0a.65.65,0,0,1-.25-.18C58.27,61.56,58.23,61.48,58.26,61.42ZM58,62.6a.38.38,0,0,1-.24-.17,1.62,1.62,0,0,0-.1-.18l0,0c.1,0,.22.14.37.35Zm-.49-.25.29.47h0a.59.59,0,0,1-.35-.48ZM26.78,35.06a.88.88,0,0,0,.15.17.39.39,0,0,1,.12.23l0,0c-.18-.18-.27-.32-.27-.44Zm0,.34a2.08,2.08,0,0,1,.18.21l0,0a2.41,2.41,0,0,1-.35-.4A.64.64,0,0,1,26.77,35.4Zm-.24.38v0l-.12-.12h0Zm.78,3.66s0,.08-.11.11a.13.13,0,0,1-.1,0c.08-.08.14-.12.2-.12h0Zm0,.31a.32.32,0,0,1,.19-.1l.06.07-.06.08a.24.24,0,0,1-.17,0Zm.34.52a.19.19,0,0,1,.1-.18.11.11,0,0,1,.06.11c0,.06,0,.1-.1.14h-.05S27.6,40.3,27.6,40.27Zm3.64,1,0,0h-.1a.13.13,0,0,1,0-.1h.13Zm-.38-.25,0,0c0-.08.11-.11.22-.06l0,.06a.14.14,0,0,1-.1,0Zm2.77,4.45a.33.33,0,0,1,.07-.15s.08-.07.12-.06h0s0,0,0,0l-.18.21S33.63,45.58,33.63,45.52Zm.49,0c0,.08-.07.21-.22.39h0v0a.38.38,0,0,1,.1-.19A.35.35,0,0,1,34.12,45.52Zm.19.64V46c0-.13,0-.19.13-.16A.38.38,0,0,1,34.31,46.16Zm9.4,6.21,0,.1,0,.05a.22.22,0,0,1-.15-.08v-.07ZM43,52.29s.11.05.18.15a2.21,2.21,0,0,1,.17.27l-.07,0s-.1-.06-.17-.18a1.24,1.24,0,0,0-.13-.22Zm.13.73a1.19,1.19,0,0,1-.28-.3,1.52,1.52,0,0,1-.15-.21.19.19,0,0,0,0-.07h0a2.94,2.94,0,0,0,.41.53Zm2.13,2-.2.13-.05,0a.21.21,0,0,1,.1-.12l.08,0Zm-.3.46q0-.12.15-.18l.27-.1.05,0c-.1.2-.23.3-.37.3Zm0,.25a.45.45,0,0,1,.29-.17.51.51,0,0,1,.3,0l-.52.19Zm-1.16,4.72v0s0,.06-.05.09l-.15.06c-.06,0-.08,0-.08-.1s0-.08.11-.08h.15Zm.18.27a.25.25,0,0,0,0,.07c0,.07-.06.11-.17.11h-.11l0-.09c0-.06,0-.1.15-.1Z"/></svg>