<svg id="Calque_1" data-name="Calque 1" xmlns="http://www.w3.org/2000/svg" xmlns:xlink="http://www.w3.org/1999/xlink" viewBox="0 0 150 150"><defs><style>.cls-1,.cls-2{fill:none;}.cls-1{clip-rule:evenodd;}.cls-10,.cls-11,.cls-12,.cls-13,.cls-15,.cls-16,.cls-17,.cls-19,.cls-2,.cls-20,.cls-21,.cls-22,.cls-27,.cls-28,.cls-29,.cls-32,.cls-33,.cls-35,.cls-36,.cls-4,.cls-5,.cls-6,.cls-8,.cls-9{fill-rule:evenodd;}.cls-3{fill:#ff4e5e;}.cls-4{fill:#bec7e4;}.cls-17,.cls-25,.cls-5{fill:#e09e28;}.cls-6{fill:#c18442;}.cls-7{clip-path:url(#clip-path);}.cls-8,.cls-9{fill:#935c25;}.cls-17,.cls-18,.cls-20,.cls-25,.cls-30,.cls-9{opacity:0.5;}.cls-10{fill:#f7d239;}.cls-11{fill:#f66;}.cls-12{fill:#966318;}.cls-13{fill:#a5692d;}.cls-14{clip-path:url(#clip-path-2);}.cls-15,.cls-30{fill:#c4831c;}.cls-16{fill:#ffe164;}.cls-19,.cls-20{fill:#fff;}.cls-21{fill:#89622e;}.cls-22{fill:#b6853c;}.cls-23{clip-path:url(#clip-path-3);}.cls-24{clip-path:url(#clip-path-4);}.cls-26{clip-path:url(#clip-path-5);}.cls-27{fill:#d7a354;}.cls-28{fill:#eed37c;}.cls-29{fill:#c99444;}.cls-31{clip-path:url(#clip-path-6);}.cls-32{fill:#f3c93c;}.cls-33{fill:#fcd961;}.cls-34{clip-path:url(#clip-path-9);}.cls-35{fill:#ffe9a1;}.cls-36{fill:#e9ab35;}.cls-37{clip-path:url(#clip-path-10);}.cls-38{clip-path:url(#clip-path-11);}.cls-39{clip-path:url(#clip-path-12);}</style><clipPath id="clip-path"><path class="cls-1" d="M78.21,30.73,114.9,33h0l-1.22,1a6.57,6.57,0,0,0-1.5,2.26,14.3,14.3,0,0,1-6.51,7.37l-41.1-3.24a19.57,19.57,0,0,0,5.47-5.75,12.78,12.78,0,0,1,2.48-3.5,5.67,5.67,0,0,1,2.89-.59Z"/></clipPath><clipPath id="clip-path-2"><path class="cls-1" d="M132.5,53.22l-8-3.3a3.94,3.94,0,0,0,.36-.45,12.64,12.64,0,0,0,1.93-4.56,20.07,20.07,0,0,1,1.22-4,3.22,3.22,0,0,1,2.22-1.64,5.17,5.17,0,0,1,2.39,1.68,5.33,5.33,0,0,1,1.62,3.54,14.36,14.36,0,0,1-.9,4.88A14.07,14.07,0,0,0,132.5,53.22Z"/></clipPath><clipPath id="clip-path-3"><polygon class="cls-1" points="112.94 108.48 113.47 78.65 130.17 75.31 128.94 104.27 112.94 108.48"/></clipPath><clipPath id="clip-path-4"><path class="cls-1" d="M70.28,82.74a7.42,7.42,0,0,0,3.63-1.44q1-1,1.26-5.37l20.34,2.16-.39,29.26L42.69,98.76,41.18,72.31l17.06,1.82c0,.53-.05,1.09-.09,1.7q0,4.32,1.86,5.84a8.1,8.1,0,0,0,5,1.51,21.06,21.06,0,0,0,5.45-.43h-.22Z"/></clipPath><clipPath id="clip-path-5"><path class="cls-1" d="M32.75,59.76q36.06,3.91,70.9,9.42l32.52-6.25L102.18,35,36.94,45.89Z"/></clipPath><clipPath id="clip-path-6"><path class="cls-1" d="M32.75,59.76q36.06,3.91,70.9,9.42l4.22-.81.66,6.55,27.64-12L102.18,35,36.94,45.89Z"/></clipPath><clipPath id="clip-path-9"><path class="cls-1" d="M89.14,125.83a5.58,5.58,0,0,1-3.17-.36c-1-.43-1.53-.94-1.6-1.53s.25-.94,1-1.27a6.19,6.19,0,0,1,2.45-.46,6.84,6.84,0,0,1,2.56.42,2.71,2.71,0,0,1,1.48,1.12,1,1,0,0,1-.37,1.21A4.52,4.52,0,0,1,89.14,125.83Z"/></clipPath><clipPath id="clip-path-10"><path class="cls-1" d="M77.36,125.2a5.58,5.58,0,0,1-3.17-.37c-1-.42-1.53-.93-1.61-1.52s.26-1,1-1.27a6,6,0,0,1,2.45-.46,6.56,6.56,0,0,1,2.55.42,2.65,2.65,0,0,1,1.49,1.11,1,1,0,0,1-.37,1.22A4.56,4.56,0,0,1,77.36,125.2Z"/></clipPath><clipPath id="clip-path-11"><path class="cls-1" d="M92.92,126.42a5.57,5.57,0,0,1-2.79-1.56c-.75-.78-1-1.45-.89-2s.6-.78,1.39-.8a6.06,6.06,0,0,1,2.43.51,6.79,6.79,0,0,1,2.2,1.37,2.66,2.66,0,0,1,.94,1.6c0,.45-.26.78-.81,1A4.56,4.56,0,0,1,92.92,126.42Z"/></clipPath><clipPath id="clip-path-12"><path class="cls-1" d="M124.6,126.65a5.58,5.58,0,0,1-3.17-.36c-1-.43-1.53-.94-1.61-1.53s.26-.94,1-1.27a6.19,6.19,0,0,1,2.45-.46,6.75,6.75,0,0,1,2.55.42,2.7,2.7,0,0,1,1.49,1.12,1,1,0,0,1-.37,1.21A4.52,4.52,0,0,1,124.6,126.65Z"/></clipPath></defs><title>Plan de travail 2</title><path class="cls-3" d="M120.64,123.46a8.68,8.68,0,1,0,.08-17.35h-1.4a8.68,8.68,0,0,1,.08-17.36l7.87,0a8.68,8.68,0,1,0,.09-17.35l-14.81-.07A8.68,8.68,0,1,1,112.63,54l5.63,0a8.68,8.68,0,1,0,.08-17.35L40.5,36.32a8.68,8.68,0,1,0-.09,17.35l5.24,0a8.68,8.68,0,1,1-.08,17.35l-28.84-.13a8.68,8.68,0,1,0-.09,17.35l6.58,0A8.7,8.7,0,0,1,31.86,97c0,4.77-2.94,8.66-6.5,8.64s-6.48,3.88-6.51,8.65A8.72,8.72,0,0,0,27.5,123l93.14.43Z"/><path class="cls-4" d="M36.83,107.43c-1.06,0-8.84,3.12-6.93,4.16s67.37,16.45,76.72,17,47.62-12,33.42-14.72S66.44,107.43,36.83,107.43Z"/><path class="cls-4" d="M83.92,125.25c0-.43,1-.79,2.87-1.09a7.67,7.67,0,0,1,4.83.58,1.5,1.5,0,0,1,.58.43.79.79,0,0,1,.18.6.61.61,0,0,1-.35.47,6.88,6.88,0,0,1-2.67.87,9.64,9.64,0,0,1-3.49-.34,3.66,3.66,0,0,1-1.52-.74C84,125.75,83.89,125.49,83.92,125.25Z"/><path class="cls-4" d="M72.14,124.62c0-.43,1-.79,2.87-1.1a7.74,7.74,0,0,1,4.83.59,1.49,1.49,0,0,1,.58.42.81.81,0,0,1,.18.6.62.62,0,0,1-.35.48,7,7,0,0,1-2.68.86,9.37,9.37,0,0,1-3.48-.33,3.66,3.66,0,0,1-1.52-.74C72.26,125.12,72.11,124.86,72.14,124.62Z"/><path class="cls-4" d="M87.93,126.41c0-.42,1-.79,2.87-1.09a7.65,7.65,0,0,1,4.82.59,1.44,1.44,0,0,1,.59.42.8.8,0,0,1,.18.6.59.59,0,0,1-.36.47,6.88,6.88,0,0,1-2.67.87,9.37,9.37,0,0,1-3.48-.33,3.79,3.79,0,0,1-1.52-.74A1,1,0,0,1,87.93,126.41Z"/><path class="cls-4" d="M119.38,126.07c.05-.43,1-.79,2.87-1.09a7.67,7.67,0,0,1,4.83.58,1.5,1.5,0,0,1,.58.43.79.79,0,0,1,.18.6.61.61,0,0,1-.35.47,6.87,6.87,0,0,1-2.68.87,9.61,9.61,0,0,1-3.48-.34,3.66,3.66,0,0,1-1.52-.74C119.5,126.57,119.35,126.31,119.38,126.07Z"/><path class="cls-5" d="M64.59,40.39l-2-.15a25.51,25.51,0,0,0,4.21-5.17q2.84-4.35,3.44-5.09a.28.28,0,0,1,0-.08q1.94-2.31,4-2.31l.47,0a4.13,4.13,0,0,1,2.52,1.62,5.8,5.8,0,0,1,.92,1.48l-2.78-.18a5.67,5.67,0,0,0-2.89.59,12.78,12.78,0,0,0-2.48,3.5A19.57,19.57,0,0,1,64.59,40.39Z"/><path class="cls-6" d="M78.21,30.73,114.9,33h0l-1.22,1a6.57,6.57,0,0,0-1.5,2.26,14.3,14.3,0,0,1-6.51,7.37l-41.1-3.24a19.57,19.57,0,0,0,5.47-5.75,12.78,12.78,0,0,1,2.48-3.5,5.67,5.67,0,0,1,2.89-.59Z"/><g class="cls-7"><path class="cls-8" d="M114.93,37.76c.45-.08-34.25-1.88-38.59-1.88C76.34,35.88,109.15,38.77,114.93,37.76Z"/><path class="cls-9" d="M80.86,30.34s-4.55-1-7.47,1.94-3,6.66-8.35,9.18l-4-.34S69.7,26.73,80.86,30.34Z"/><path class="cls-8" d="M82.12,42.1a5.26,5.26,0,0,0-3.32-1.45S81.54,39.78,82.12,42.1Z"/></g><path class="cls-10" d="M113,50.05l-72.62-5.7v0a38.66,38.66,0,0,0,9.54-4.08,23.15,23.15,0,0,0,6.31-5.9A40.7,40.7,0,0,1,60.68,29q1.89-1.82,5.82-2l7.8.6q-2,0-4,2.31a.28.28,0,0,0,0,.08q-.6.73-3.44,5.09a25.51,25.51,0,0,1-4.21,5.17l2,.15,41.1,3.24a14.3,14.3,0,0,0,6.51-7.37A6.57,6.57,0,0,1,113.7,34l1.22-1h0a11.71,11.71,0,0,1,3.49-1.57l12.5.48a8.28,8.28,0,0,0-6.4,2.74l-.27.33a23.81,23.81,0,0,0-3,6,21.13,21.13,0,0,1-3.33,6.15A10.46,10.46,0,0,1,113.2,50Z"/><path class="cls-5" d="M139.88,63.3,112.53,52.74l.64-2.68,0-.1a10.46,10.46,0,0,0,4.69-2.89,21.13,21.13,0,0,0,3.33-6.15,23.81,23.81,0,0,1,3-6l.27-.33a8.28,8.28,0,0,1,6.4-2.74l.8.06c2.54.39,4.32,1.14,5.34,2.28a13.54,13.54,0,0,1,2.33,3.41,13.4,13.4,0,0,1,.8,5.38,22.69,22.69,0,0,1-1.11,5.59,23.84,23.84,0,0,0-1.14,6.73.78.78,0,0,0,0,.14,7.51,7.51,0,0,0,1.29,3.34,13.52,13.52,0,0,0,1.48,2Z"/><path class="cls-11" d="M130.26,39.25A3.22,3.22,0,0,0,128,40.89a20.07,20.07,0,0,0-1.22,4,12.64,12.64,0,0,1-1.93,4.56,3.94,3.94,0,0,1-.36.45l8,3.3,1.77.75c0-.12,0-.22,0-.3a13.24,13.24,0,0,1,.89-4.32,14.58,14.58,0,0,0,.89-4.88,5.32,5.32,0,0,0-1.61-3.54,4.37,4.37,0,0,0-3.13-1.78A5.54,5.54,0,0,0,130.26,39.25Z"/><path class="cls-12" d="M68.92,49.1c-.14,1.25-.22,2-.22,2.15a15.93,15.93,0,0,0,.53,4.39h0L40,46.7Z"/><path class="cls-13" d="M132.5,53.22l-8-3.3a3.94,3.94,0,0,0,.36-.45,12.64,12.64,0,0,0,1.93-4.56,20.07,20.07,0,0,1,1.22-4,3.22,3.22,0,0,1,2.22-1.64,5.17,5.17,0,0,1,2.39,1.68,5.33,5.33,0,0,1,1.62,3.54,14.36,14.36,0,0,1-.9,4.88A14.07,14.07,0,0,0,132.5,53.22Z"/><g class="cls-14"><path class="cls-8" d="M124.47,43.69l11.28,4.91-.87-1.3s-5.93-1.88-9-4Z"/></g><path class="cls-15" d="M132.5,53.22a14.07,14.07,0,0,1,.87-3.87,14.36,14.36,0,0,0,.9-4.88,5.33,5.33,0,0,0-1.62-3.54,5.17,5.17,0,0,0-2.39-1.68,5.54,5.54,0,0,1,1-.1,4.37,4.37,0,0,1,3.13,1.78A5.32,5.32,0,0,1,136,44.47a14.58,14.58,0,0,1-.89,4.88,13.24,13.24,0,0,0-.89,4.32c0,.08,0,.18,0,.3Z"/><polygon class="cls-16" points="112.53 52.74 68.92 49.1 39.99 46.7 40.33 44.34 112.95 50.05 113.17 50.06 112.53 52.74"/><path class="cls-8" d="M139.88,63.3v0l-70.64-7.7a15.93,15.93,0,0,1-.53-4.39c0-.18.08-.9.22-2.15l43.61,3.64Z"/><path class="cls-17" d="M103.12,45.91A20,20,0,0,0,97,48.8l16,1.25.25-.09a10.46,10.46,0,0,0,4.69-2.89,16.87,16.87,0,0,0,2.52-4.22C114.92,47.46,109.4,44.15,103.12,45.91Z"/><g class="cls-18"><path class="cls-19" d="M80.86,45.3c7,.74,10.88-.83,14-2.52L64.59,40.39l-2-.15a25.51,25.51,0,0,0,4.21-5.17c.11-.16.21-.33.31-.48-1.64-.77-3.07-1.52-4.27-2.16a8.47,8.47,0,0,0-4.71-.65c-.63.76-1.29,1.62-2,2.57a23.15,23.15,0,0,1-6.31,5.9,38.66,38.66,0,0,1-9.54,4.08v0l8.6.67C61.33,40.3,67.54,43.88,80.86,45.3Z"/><path class="cls-19" d="M112.12,36.45a15.37,15.37,0,0,1-2.61,4.17c6.43.81,10.59-1.92,14-4.63a8.53,8.53,0,0,1,.7-1l.27-.33a8.28,8.28,0,0,1,6.4-2.74l-5.57-.21a24.77,24.77,0,0,0-6.27,3A9.3,9.3,0,0,1,112.12,36.45Z"/></g><path class="cls-20" d="M40.33,44.35,113,50.05S47.68,46.44,40.33,44.35Z"/><polygon class="cls-13" points="139.42 64.71 69.15 56.37 69.15 56.37 69.12 55.6 139.82 63.34 139.42 64.71"/><polygon class="cls-5" points="69.15 56.37 29.38 61.5 28.78 60.23 69.12 55.6 69.15 56.37"/><path class="cls-21" d="M69.15,56.37h0v0Zm0,0,70.27,8.34-5.29,17.94-63.9,6.48Z"/><polygon class="cls-21" points="29.38 61.5 69.15 56.37 69.15 56.49 69.15 56.37 70.23 89.13 39.12 81.99 29.38 61.5"/><path class="cls-22" d="M73.83,58.16a14.3,14.3,0,0,0,1.3,1.63,7.42,7.42,0,0,1,.5.74,5.79,5.79,0,0,1,1.9-1.5c.47-.22,1.59-.9,3.37-2,.52-.33,1-.59,1.35-.79a4.47,4.47,0,0,0-.78-.45c-1.12-.48-1.75-.76-1.87-.84a.9.9,0,0,1-.4-.77,8.1,8.1,0,0,1,.62-.64l1,.1q2.09.21,5,.21a12.43,12.43,0,0,0,1.29-.06c.57.18.86.42.86.72s-.58.8-1.74,1.62c-.45.32-.85.57-1.19.77a8.48,8.48,0,0,1,.87,1.64,12.68,12.68,0,0,1,.84,2.79l.38-.34A5.3,5.3,0,0,1,90,59.85c.85-.14,2.2-.32,4.06-.54a6.56,6.56,0,0,1-1.5-1.4,2.59,2.59,0,0,1-.61-1.5c0-.61.38-.88,1.16-.83a20,20,0,0,1,3,.66c.41.07,2,.13,4.61.17,1.53,0,2.3.33,2.3.91q0,.3-1.32,1.5c-.24.22-.52.46-.83.72-.75.65-1.36,1.14-1.81,1.48a5,5,0,0,1-.78.52c.06.19.15.6.29,1.2.07.29.12.54.16.75.94-.36,1.63-.65,2.05-.86a6.5,6.5,0,0,1-.93-.58.78.78,0,0,1-.22-.6q0-.54,1.29-1.14a13.53,13.53,0,0,1,2.83-.88,10.16,10.16,0,0,1,2.83-.27q1.29.09,1.29.72a.81.81,0,0,1,0,.15,1.78,1.78,0,0,1,.42-.39,3,3,0,0,1,1.23-.47,34,34,0,0,0,6.66,1c.79-.07,1.19.15,1.19.65a3.22,3.22,0,0,1-.65,1.23,12.18,12.18,0,0,1-1,1.21,10,10,0,0,1,2.37,1.55l.5.44a14.4,14.4,0,0,1,.9-1.18,8,8,0,0,1,1.91-1.84,5,5,0,0,0,1.29-1,5.63,5.63,0,0,1-2.12-.34c-1.14-.32-1.72-.56-1.72-.75v-.28c.07-.14.25-.22.54-.23h.36a6.54,6.54,0,0,0,2.75-1.25,3.65,3.65,0,0,1,1.57-1,7.27,7.27,0,0,1,2.28-.48c.86,0,1.29.22,1.29.73a10.72,10.72,0,0,1-.92,2.12c.54.15.81.43.81.85a5,5,0,0,1-.32,1.37,5,5,0,0,0-.32,1.16.51.51,0,0,0,.13.26,8.34,8.34,0,0,1,1.49,2.13q-2.12.51-5,1.3c-5.14,1.41-7.93,2.13-8.35,2.17q-3,.3-5.78.83a55.15,55.15,0,0,1-5.73.71h-3.15a20.55,20.55,0,0,1-2.44-.38,1.85,1.85,0,0,1-1.35-1.67l-.16,0Q81.1,66.09,73.64,65a.57.57,0,0,1,0-.13,13.19,13.19,0,0,1,0-1.4,3.35,3.35,0,0,1,.09-.54c-.24-.31-.51-.72-.82-1.22q-1.17-1.95-1.41-2a1.12,1.12,0,0,0-.4.13.9.9,0,0,1-.41.13,2.52,2.52,0,0,1-1.27-.64c-.57-.43-.85-.75-.85-1a2.85,2.85,0,0,1,.88-1.82,6.21,6.21,0,0,1,2-1.45,2.66,2.66,0,0,1,2-.28c.58.22.88.77.88,1.67A15,15,0,0,1,73.83,58.16Zm-15-5.28a20.94,20.94,0,0,1-.21,2.21c3.43.58,5.74,1.74,6.91,3.49a3.92,3.92,0,0,1,.1.43,5.7,5.7,0,0,1,0,1.65c0,.94,0,1.54-.05,1.77Q65.36,64,64.46,64.2H60.19q-4.44-.87-5.1-1.09A2.16,2.16,0,0,1,53.64,62c.47-.91,1.18-2.31,2.11-4.2.06-.1.13-.19.19-.28h0a9.31,9.31,0,0,1-3.66.91,2.56,2.56,0,0,1-1.52-.28c-.08-.08-.11-.27-.11-.59A5.32,5.32,0,0,1,51.91,55a17.26,17.26,0,0,1,2.83-3,4.81,4.81,0,0,1,2.82-1.42C58.42,50.64,58.85,51.39,58.85,52.88Zm49,8.4a1,1,0,0,1-.15-.5c-.07.2-.15.41-.25.63a3.63,3.63,0,0,1-1,1.39A7.36,7.36,0,0,1,108.13,64l.07.06a6.52,6.52,0,0,1,1.16-.49l.5-.16a5.65,5.65,0,0,1-1.14-1.09C108.23,61.77,107.94,61.42,107.85,61.28Z"/><path class="cls-10" d="M28.78,60.23q7.47.84,15.07,1.76,13.09,1.56,25.59,3.26Q85,67.36,99.65,69.66l4.64.74v56l-.25-.07q-22.32-5.06-46.5-10-15.28-3.14-25.18-5.25c0-1.12-.1-2.26-.15-3.43q-.71-17.13-.81-19Q30.64,74,28.78,60.23Z"/><path class="cls-5" d="M139.83,63.34q-8.09,1.56-15.89,3.1-9.14,1.8-16.25,3.26l-3.4.7-4.64-.74Q85,67.36,69.44,65.25,57,63.56,43.85,62q-7.6-.93-15.07-1.76l4-.47q36.06,3.91,70.9,9.42l32.52-6.25Z"/><path class="cls-5" d="M104.29,70.4l3.4-.7q7.11-1.45,16.25-3.26,7.8-1.55,15.89-3.1-.45,8.59-.79,23.22-.36,14.88-.47,27.84c-2.6.86-21.48,6.63-34.26,12h0Z"/><polygon class="cls-15" points="112.94 108.48 128.94 104.27 130.17 75.31 131.64 75.02 130.58 105.58 112.9 110.68 112.94 108.48"/><polygon class="cls-13" points="112.94 108.48 113.47 78.65 130.17 75.31 128.94 104.27 112.94 108.48"/><g class="cls-23"><path class="cls-8" d="M109.44,89.65s11.71-3.47,14.89-4.48l-3,1.74S131,85.46,133.15,85l-.58.87S116,88.06,110.31,89.8Z"/><path class="cls-8" d="M108.43,101.51s19.51-4.34,23.71-5.79l-.87-.43s-20,5.35-22.55,5.35Z"/></g><path class="cls-6" d="M70.28,82.74a7.42,7.42,0,0,0,3.63-1.44q1-1,1.26-5.37l20.34,2.16-.39,29.26L42.69,98.76,41.18,72.31l17.06,1.82c0,.53-.05,1.09-.09,1.7q0,4.32,1.86,5.84a8.1,8.1,0,0,0,5,1.51,21.06,21.06,0,0,0,5.45-.43h-.22Z"/><path class="cls-9" d="M75.17,75.93l20.34,2.16,0,2L77.11,77.49l-.38,3.45a7.08,7.08,0,0,1-6.53,3.33c-4.73-.13-5.15-1.09-5.15-1.09a21.06,21.06,0,0,0,5.45-.43h-.22a7.42,7.42,0,0,0,3.63-1.44Q74.9,80.34,75.17,75.93Zm-32-1.51,14.94,1.45v0c0-.61.07-1.17.09-1.7L41.18,72.31l1.51,26.45,2.05.33Z"/><g class="cls-24"><path class="cls-8" d="M88,88.14c-13.24-1.8-34.62-4.82-40.27-6.32,0,0,17.57,2.22,25.07,3.24s19.1,2.73,19.1,2.73a84.18,84.18,0,0,1-9.33-2.51s10.35,2,13.76,3.22,2.47,1.08,2.47,1.08S94.29,89,88,88.14"/><path class="cls-8" d="M96.81,97.7,41.93,89.77l-.26.77S49,91.43,54,92.2s34.67,4.74,38.51,5.25S96.81,97.7,96.81,97.7Z"/><path class="cls-8" d="M45.9,101.67s13.17-1.41,16.11-1.28C62,100.39,53.32,102.56,45.9,101.67Z"/><path class="cls-8" d="M91.57,108.32a10.38,10.38,0,0,0-9.6-3.2Z"/></g><path class="cls-5" d="M75.17,75.93q-.27,4.41-1.26,5.37a7.42,7.42,0,0,1-3.63,1.44,3.21,3.21,0,0,0,.79-.46c1.16-1,1.77-3.15,1.84-6.59Zm-34-3.62,1.51,26.45,52.43,8.59,0,1.85L41,99.9,39.24,72.11Z"/><g class="cls-18"><path class="cls-19" d="M36.77,90.45c1.24.06,2.46.12,3.66.2l-.81-12.56a16.16,16.16,0,0,0-8.9.28q.41,5.07.68,10.26c0,.41.07,1.36.13,2.86A10.66,10.66,0,0,1,36.77,90.45Z"/><path class="cls-19" d="M60,81.67a8.1,8.1,0,0,0,5,1.51h.36a15,15,0,0,1,7.3-4.88,22,22,0,0,0,.2-2.62l2.26.24,5.64.6c3.32-1,6.16-2.84,7.93-8.54l-2.89-.42c-.72,2.77-2.75,7-8.48,7-8.14,0-13.17.32-18.5,5.53A4.1,4.1,0,0,0,60,81.67Z"/></g><path class="cls-5" d="M66.06,71.67c-1.68-.74-3.3,1.72-2.72,2.82a2.13,2.13,0,0,0,3.31.61A2,2,0,0,0,66.06,71.67Z"/><polygon class="cls-5" points="64.78 74.62 64.01 78.52 66.17 79 66.76 78.7 65.49 74.55 64.78 74.62"/><path class="cls-12" d="M66.45,71.69C64.68,71,63.31,73.36,64,74.44a2.26,2.26,0,0,0,3.39.6A2,2,0,0,0,66.45,71.69Z"/><polygon class="cls-12" points="65.37 74.81 64.56 78.26 66.79 78.71 66.08 74.74 65.37 74.81"/><g class="cls-18"><path class="cls-5" d="M76.85,108.87a27,27,0,0,0,10.07-1.08l-23.07-4c-5.13,2.78-9.39,8.12-11.67,11.37l5.36,1.1,6.18,1.28C65,112.64,68.43,108.34,76.85,108.87Z"/><path class="cls-5" d="M104.29,85.05c-1.38.52-3.24,1.85-5.43,5.06a13.67,13.67,0,0,1-3.56,3.4l-.12,9.29c4-3.94,5.51-8.54,6.41-9.79a2.09,2.09,0,0,1,2.7-.65Z"/></g><path class="cls-20" d="M113.18,49.22c-2.17-.1-3.07,2.69-.76,2.69S116,49.35,113.18,49.22Z"/><path class="cls-20" d="M111.44,49.15c-1.46-.07-2.06,1.8-.52,1.8S113.32,49.24,111.44,49.15Z"/><path class="cls-20" d="M64,26.8c-2.13.47-2.28,3.39-.06,2.8S66.71,26.21,64,26.8Z"/><path class="cls-20" d="M62.25,27.19c-1.43.3-1.53,2.26,0,1.87S64.09,26.79,62.25,27.19Z"/><path class="cls-20" d="M31,61.63c-2.59,1.2-1.95,5,.73,3.59S34.35,60.07,31,61.63Z"/><path class="cls-20" d="M28.92,62.61c-1.73.8-1.3,3.34.5,2.41S31.17,61.57,28.92,62.61Z"/><path class="cls-20" d="M59.66,77.11c-2.6,1.2-1.95,5,.73,3.59S63,75.55,59.66,77.11Z"/><path class="cls-20" d="M57.58,78.09c-1.74.8-1.31,3.34.49,2.4S59.83,77,57.58,78.09Z"/><path class="cls-25" d="M44.08,62s-.24,5,1.3,5.15,2.24-4.89,2.24-4.89Z"/><g class="cls-26"><path class="cls-27" d="M55.48,62.89l-3,0-.36-.08H45.68a19,19,0,0,1,2.21-2.63,14.54,14.54,0,0,1,2.6-2.47q1.86-.13,3.55,2.25A7,7,0,0,1,55.48,62.89Z"/></g><path class="cls-28" d="M51.63,58.47A2,2,0,0,1,51,59.63a2.31,2.31,0,0,1-1.71.87c-.57,0-.85-.14-.85-.42s.34-.54,1-1,1.06-.79,1.09-1c.12-.77.34-1,.67-.66A1.51,1.51,0,0,1,51.63,58.47Z"/><path class="cls-27" d="M45.82,54.91a16.11,16.11,0,0,1,3.54,1.47C50.44,57,51,57.44,51,57.71a1.36,1.36,0,0,1-.19.9A4.66,4.66,0,0,1,49,59.89a13.41,13.41,0,0,1-1.77,2q-4,3.6-5.6,3.6a1.79,1.79,0,0,1-1.21-.33.61.61,0,0,1-.22-.45A7.49,7.49,0,0,1,41,62.61a7.35,7.35,0,0,0,.71-2.34,10.06,10.06,0,0,0-.5-2.72,11.81,11.81,0,0,1-.5-2.15q0-1,1.62-1A11.29,11.29,0,0,1,45.82,54.91Z"/><path class="cls-29" d="M42.4,56c0-.06.06-.09.16-.09q1,.87,1,5.08a5.12,5.12,0,0,1-.36,1.54c-.32.92-.71,1.38-1.16,1.38a.48.48,0,0,1-.44-.22l0-.22c.19-.54.38-1.1.57-1.67a10.7,10.7,0,0,0,.57-3.38,8.41,8.41,0,0,0-.05-1.05C42.57,56.94,42.49,56.48,42.4,56Z"/><path class="cls-30" d="M106.79,68s0,.94,1.28,1.28a7,7,0,0,0,1.19,3.24c.94,1,.94,9.39,1.71,7.94s1.19-8.36,1.19-8.36S110.29,66.4,106.79,68Z"/><g class="cls-31"><path class="cls-27" d="M113.13,72.69l-.12.07a2.39,2.39,0,0,0-.34.21,2.09,2.09,0,0,1-.83-.39,13.37,13.37,0,0,1-2.54-3.32.84.84,0,0,1-.27,0,2.53,2.53,0,0,1-1.12-.27,2.39,2.39,0,0,1-1.12,1,5.92,5.92,0,0,1-2.94.7,5.63,5.63,0,0,1-2.54-.49c-.51-.27-.76-.53-.76-.8a7,7,0,0,1,.88-1.92c.3-.53.6-1,.91-1.54a5.23,5.23,0,0,1,2-1.72,7.49,7.49,0,0,1,2.81-1.06,5,5,0,0,1,4.92,2.34,7.59,7.59,0,0,1,1.17,5C113.21,71.48,113.16,72.19,113.13,72.69Z"/></g><path class="cls-29" d="M106.79,66.64c.46.51,1,1.16,1.6,1.94a.69.69,0,0,1,0-.13c-.29-1-.43-1.51-.43-1.53a1.54,1.54,0,0,1,.09-.48,9.08,9.08,0,0,1,1.72,3.17c0,.17,0,.23,0,.19l-.08.07a.37.37,0,0,1-.23.06c-.24,0-.5-.27-.76-.81h-.11c-.41,0-.84-.38-1.3-1.13s-.59-1.15-.59-1.17,0-.16,0-.16,0,0,0,0S106.79,66.66,106.79,66.64Z"/><path class="cls-28" d="M113.61,71.91a.74.74,0,0,1-.09.4c-.12.2-.35.23-.68.08a1.8,1.8,0,0,0-.06.78.57.57,0,0,1-.62.53c-.28,0-.45-.18-.52-.55s0-.55,0-.57a1.21,1.21,0,0,1,1-1.18C113.27,71.19,113.61,71.36,113.61,71.91Z"/><path class="cls-27" d="M114.43,71.69a2.59,2.59,0,0,1,1.29.79,2.07,2.07,0,0,1,.45,1.4,4.11,4.11,0,0,1-.53,1.93,23.46,23.46,0,0,0-1.11,2.24,17.64,17.64,0,0,0-.35,2.19c.16,1.56-.23,2-1.14,1.16s-1.4-2.45-1.44-5,.28-4,1-4.39A2.32,2.32,0,0,1,114.43,71.69Z"/><path class="cls-29" d="M112.56,74.31a6.87,6.87,0,0,1,.19-.75.78.78,0,0,1,.63-.44l.1.14a2.4,2.4,0,0,0-.45,1,6.33,6.33,0,0,0-.08,1.11c0,.06,0,.3.07.73s.06.72.06.92a.71.71,0,0,0,.49.71c.32.14.48.34.48.59a2.84,2.84,0,0,1-.24.64c-.09.22-.17.38-.23.5-.57-.15-.88-1-.94-2.64-.07-.9-.11-1.42-.11-1.54Q112.53,74.67,112.56,74.31Z"/><g class="cls-26"><path class="cls-27" d="M64.71,59.9q2.61-3.55,5.12-1.83A21.19,21.19,0,0,1,74,61.6c1.33,1.46,2,2.68,2,3.67a.64.64,0,0,1,0,.2q-1,0-8-.46l-5.64-.34a17.8,17.8,0,0,1,.73-1.87A14.46,14.46,0,0,1,64.71,59.9Z"/></g><path class="cls-28" d="M69.91,57.48a1,1,0,0,1,.34.9c0,.43-.33.9-1,1.43a3.65,3.65,0,0,1-2.3.87,1.45,1.45,0,0,1-1-.31.56.56,0,0,1-.21-.43c0-.34.42-.58,1.26-.73a2.56,2.56,0,0,0,1.83-.88C69.23,57.58,69.61,57.3,69.91,57.48Z"/><path class="cls-27" d="M69.8,54.57a5.48,5.48,0,0,1,.36,1.65,5,5,0,0,1-.2,1.72,4,4,0,0,1-1.82,1.78c-.34.2-1.28.6-2.81,1.22A13.69,13.69,0,0,1,62.1,62a.73.73,0,0,1-.67-.45,1.07,1.07,0,0,1-.16-.48A23.46,23.46,0,0,1,62,58.35,35.47,35.47,0,0,1,63.15,55a3.61,3.61,0,0,1,3.09-1.91,6.48,6.48,0,0,1,2.7.08C69.24,53.28,69.53,53.76,69.8,54.57Z"/><path class="cls-29" d="M63,59.08c.14-.28.26-.53.35-.73A3.57,3.57,0,0,1,64,58.3a4,4,0,0,0,2.74-1.47c.81-.82,1.22-1.35,1.22-1.6a.69.69,0,0,0-.16-.38c-.16-.19-.29-.36-.39-.5a1.3,1.3,0,0,1,1.06.41,1.17,1.17,0,0,1,.17.71c0,.56-.65,1.45-1.94,2.68a6.59,6.59,0,0,1-3.14,2c-.81.1-1.1,0-.89-.4a2.21,2.21,0,0,0,.31-.68Z"/><g class="cls-26"><path class="cls-27" d="M91.58,69.14c0-.47-.09-1-.19-1.76a13.45,13.45,0,0,0-.72-2.85q-1.41-3.63-4-2.73a18.69,18.69,0,0,0-4.39,2.06c-1.47.94-2.32,1.83-2.54,2.68a.33.33,0,0,0,0,.17q.86.2,6.91,1.43Z"/></g><path class="cls-28" d="M86.62,63.05c0,.38.3.8.89,1.27a3.27,3.27,0,0,0,2,.77,1.27,1.27,0,0,0,.92-.28.52.52,0,0,0,.19-.38c0-.3-.37-.52-1.12-.65A2.27,2.27,0,0,1,87.92,63c-.4-.66-.73-.91-1-.74A.85.85,0,0,0,86.62,63.05Z"/><path class="cls-27" d="M86.7,61.14a4.53,4.53,0,0,0,.18,1.52,3.54,3.54,0,0,0,1.61,1.58c.3.17,1.13.53,2.49,1.07a12,12,0,0,0,2.85.93.67.67,0,0,0,.6-.4.94.94,0,0,0,.13-.41,18.1,18.1,0,0,0-.64-2.4,28.17,28.17,0,0,0-1-3,3.19,3.19,0,0,0-2.73-1.69,5.89,5.89,0,0,0-2.39.07c-.27.12-.52.54-.76,1.26A4.66,4.66,0,0,0,86.7,61.14Z"/><path class="cls-29" d="M93,63.61c-.13-.24-.23-.46-.31-.64a3,3,0,0,0-.6,0,3.59,3.59,0,0,1-2.42-1.3c-.72-.73-1.07-1.2-1.07-1.42a.66.66,0,0,1,.13-.34,5.13,5.13,0,0,0,.35-.44,1.16,1.16,0,0,0-.94.36,1.14,1.14,0,0,0-.14.64q0,.74,1.71,2.37a5.79,5.79,0,0,0,2.78,1.77c.71.09,1,0,.78-.35a2.21,2.21,0,0,1-.27-.6Z"/><path class="cls-32" d="M84.37,123.88l0-.14a1.74,1.74,0,0,0,1-.15,6.15,6.15,0,0,1,2.45-.46,6.57,6.57,0,0,1,2.56.42l1.57.64v0a4.63,4.63,0,0,0-.08,1.16,1.91,1.91,0,0,1-.37.49,4.75,4.75,0,0,1-2.33.87,5.67,5.67,0,0,1-3.17-.37c-.94-.41-1.48-.91-1.63-1.51A3,3,0,0,0,84.37,123.88Z"/><path class="cls-33" d="M89.14,125.83a5.58,5.58,0,0,1-3.17-.36c-1-.43-1.53-.94-1.6-1.53s.25-.94,1-1.27a6.19,6.19,0,0,1,2.45-.46,6.84,6.84,0,0,1,2.56.42,2.71,2.71,0,0,1,1.48,1.12,1,1,0,0,1-.37,1.21A4.52,4.52,0,0,1,89.14,125.83Z"/><g class="cls-34"><path class="cls-35" d="M84.22,124.2a2.13,2.13,0,0,1,.5-.18,2.89,2.89,0,0,1,.62.07,2.66,2.66,0,0,0,.76,0,.77.77,0,0,0,.6-.49,2.79,2.79,0,0,0,.15-.35A.87.87,0,0,1,87,123a1.53,1.53,0,0,1,.87-.4,3.33,3.33,0,0,1,.73,0,3.79,3.79,0,0,0,.82,0,2.38,2.38,0,0,0,1.28-.61.19.19,0,0,1,.07-.06c.06,0,.09.08.09.11v0l0,0a1.28,1.28,0,0,1,0,.51,1.24,1.24,0,0,1-1,.76l-.71.09a.72.72,0,0,0-.71.32.69.69,0,0,0-.08.48l.08.37a.66.66,0,0,1-.14.44.7.7,0,0,1-.48.34l-.53.07-.53-.06a4.07,4.07,0,0,0-1,0,1.2,1.2,0,0,0-.93.56l-.21-.33q-.55-.76-.81-1.17A2.1,2.1,0,0,1,84.22,124.2Z"/></g><g class="cls-18"><path class="cls-36" d="M88.16,122.53a4.89,4.89,0,0,0-1.31.17,5,5,0,0,0-1.28.5c-.34.2-.48.41-.41.63a2.15,2.15,0,0,0,.34.65.81.81,0,0,1-.47-.27.63.63,0,0,1-.15-.59c.05-.26.41-.52,1.08-.8a4.86,4.86,0,0,1,2.23-.32h0S88.21,122.52,88.16,122.53Z"/></g><g class="cls-18"><path class="cls-36" d="M89.37,125.38a3,3,0,0,1-1.11,0,5.5,5.5,0,0,0,2.79-.85.94.94,0,0,0,.26-.34.5.5,0,0,1-.15.46,2.15,2.15,0,0,1-.65.4A4.67,4.67,0,0,1,89.37,125.38Z"/></g><path class="cls-32" d="M72.59,123.25l0-.14a1.75,1.75,0,0,0,1-.15A6,6,0,0,1,76,122.5a6.57,6.57,0,0,1,2.56.42l1.57.63v0a4.72,4.72,0,0,0-.08,1.17,1.72,1.72,0,0,1-.37.48,4.65,4.65,0,0,1-2.33.88,5.59,5.59,0,0,1-3.17-.38c-.94-.4-1.48-.9-1.63-1.5A3,3,0,0,0,72.59,123.25Z"/><path class="cls-33" d="M77.36,125.2a5.58,5.58,0,0,1-3.17-.37c-1-.42-1.53-.93-1.61-1.52s.26-1,1-1.27a6,6,0,0,1,2.45-.46,6.56,6.56,0,0,1,2.55.42,2.65,2.65,0,0,1,1.49,1.11,1,1,0,0,1-.37,1.22A4.56,4.56,0,0,1,77.36,125.2Z"/><g class="cls-37"><path class="cls-35" d="M72.44,123.57a2.47,2.47,0,0,1,.5-.19,3.33,3.33,0,0,1,.62.08,3.09,3.09,0,0,0,.76,0,.76.76,0,0,0,.6-.5l.15-.34a.93.93,0,0,1,.15-.26,1.52,1.52,0,0,1,.87-.39,3.74,3.74,0,0,1,.72,0,3.41,3.41,0,0,0,.83,0,2.38,2.38,0,0,0,1.28-.61.46.46,0,0,1,.07-.07q.09.07.09.12v.05l0-.05a1.21,1.21,0,0,1,0,.5,1.23,1.23,0,0,1-1,.77l-.71.09a.71.71,0,0,0-.71.32.69.69,0,0,0-.08.48l.08.36a.67.67,0,0,1-.14.45.73.73,0,0,1-.48.34l-.53.07L75,124.8a4.62,4.62,0,0,0-1,0,1.2,1.2,0,0,0-.93.56l-.21-.33q-.56-.77-.81-1.17A1.81,1.81,0,0,1,72.44,123.57Z"/></g><g class="cls-18"><path class="cls-36" d="M76.38,121.9a4.52,4.52,0,0,0-1.31.17,4.81,4.81,0,0,0-1.28.5c-.34.2-.48.41-.41.63a2.15,2.15,0,0,0,.34.65.78.78,0,0,1-.47-.27.64.64,0,0,1-.15-.59c.05-.26.41-.53,1.08-.8a5,5,0,0,1,2.23-.33h0S76.43,121.89,76.38,121.9Z"/></g><g class="cls-18"><path class="cls-36" d="M77.59,124.75a3.54,3.54,0,0,1-1.11,0,5.5,5.5,0,0,0,2.79-.85,1,1,0,0,0,.26-.34.53.53,0,0,1-.15.46,2.37,2.37,0,0,1-.65.4A4.67,4.67,0,0,1,77.59,124.75Z"/></g><path class="cls-32" d="M89.26,122.78l0-.14a1.64,1.64,0,0,0,1,.24,6.16,6.16,0,0,1,2.44.52,6.52,6.52,0,0,1,2.2,1.37L96.11,126l0,0a4.87,4.87,0,0,0-.53,1,1.7,1.7,0,0,1-.52.3,4.73,4.73,0,0,1-2.49-.08,5.63,5.63,0,0,1-2.78-1.57,2.5,2.5,0,0,1-.93-2A2.87,2.87,0,0,0,89.26,122.78Z"/><path class="cls-33" d="M92.92,126.42a5.57,5.57,0,0,1-2.79-1.56c-.75-.78-1-1.45-.89-2s.6-.78,1.39-.8a6.06,6.06,0,0,1,2.43.51,6.79,6.79,0,0,1,2.2,1.37,2.66,2.66,0,0,1,.94,1.6c0,.45-.26.78-.81,1A4.56,4.56,0,0,1,92.92,126.42Z"/><g class="cls-38"><path class="cls-35" d="M89,123a2.37,2.37,0,0,1,.53,0,2.67,2.67,0,0,1,.55.31,3.38,3.38,0,0,0,.69.33.78.78,0,0,0,.74-.23l.27-.26A.94.94,0,0,1,92,123a1.54,1.54,0,0,1,1,0,3.14,3.14,0,0,1,.66.3,4.1,4.1,0,0,0,.76.34,2.37,2.37,0,0,0,1.41-.08l.1,0a.21.21,0,0,1,0,.14v0l.07,0a1.32,1.32,0,0,1-.23.45,1.24,1.24,0,0,1-1.25.31l-.69-.18a.7.7,0,0,0-.78,0,.71.71,0,0,0-.26.41l-.06.37a.67.67,0,0,1-.31.36.65.65,0,0,1-.56.12l-.52-.14c-.16-.1-.32-.18-.47-.26a4.69,4.69,0,0,0-1-.38,1.26,1.26,0,0,0-1.08.16l-.07-.38c-.14-.62-.24-1.08-.3-1.39A1.75,1.75,0,0,1,89,123Z"/></g><g class="cls-18"><path class="cls-36" d="M93.28,123a4.78,4.78,0,0,0-1.28-.34,4.57,4.57,0,0,0-1.37,0c-.39,0-.6.19-.62.42a2.13,2.13,0,0,0,.06.73.78.78,0,0,1-.32-.43.62.62,0,0,1,.08-.6c.15-.22.59-.33,1.31-.32a4.89,4.89,0,0,1,2.18.55h0S93.33,123,93.28,123Z"/></g><g class="cls-18"><path class="cls-36" d="M93.3,126.09a3.52,3.52,0,0,1-1-.4,5.55,5.55,0,0,0,2.91.29,1,1,0,0,0,.37-.22.55.55,0,0,1-.31.37,2.36,2.36,0,0,1-.76.12A5,5,0,0,1,93.3,126.09Z"/></g><path class="cls-32" d="M119.83,124.7l0-.14a1.74,1.74,0,0,0,1-.15,6.15,6.15,0,0,1,2.45-.46,6.57,6.57,0,0,1,2.56.42c.75.31,1.27.52,1.57.63v.06a4.58,4.58,0,0,0-.08,1.16,1.91,1.91,0,0,1-.37.49,4.75,4.75,0,0,1-2.33.87,5.67,5.67,0,0,1-3.17-.37c-.94-.41-1.48-.91-1.63-1.51A3,3,0,0,0,119.83,124.7Z"/><path class="cls-33" d="M124.6,126.65a5.58,5.58,0,0,1-3.17-.36c-1-.43-1.53-.94-1.61-1.53s.26-.94,1-1.27a6.19,6.19,0,0,1,2.45-.46,6.75,6.75,0,0,1,2.55.42,2.7,2.7,0,0,1,1.49,1.12,1,1,0,0,1-.37,1.21A4.52,4.52,0,0,1,124.6,126.65Z"/><g class="cls-39"><path class="cls-35" d="M119.68,125a2,2,0,0,1,.5-.18,3,3,0,0,1,.62.07,2.66,2.66,0,0,0,.76,0,.77.77,0,0,0,.6-.49,2.79,2.79,0,0,0,.15-.35.87.87,0,0,1,.15-.25,1.53,1.53,0,0,1,.87-.4,3.24,3.24,0,0,1,.72,0,3.88,3.88,0,0,0,.83,0,2.38,2.38,0,0,0,1.28-.61.19.19,0,0,1,.07-.06c.06,0,.09.08.09.11v0l0,0a1.21,1.21,0,0,1,0,.5,1.23,1.23,0,0,1-1,.77l-.71.09a.72.72,0,0,0-.71.32.69.69,0,0,0-.08.48l.08.37a.66.66,0,0,1-.14.44.7.7,0,0,1-.48.34l-.53.07-.53-.06a4.07,4.07,0,0,0-1,0,1.2,1.2,0,0,0-.93.56l-.21-.33q-.56-.77-.81-1.17A2.1,2.1,0,0,1,119.68,125Z"/></g><g class="cls-18"><path class="cls-36" d="M123.62,123.35a4.89,4.89,0,0,0-1.31.17,4.81,4.81,0,0,0-1.28.5c-.34.2-.48.41-.41.63a2.15,2.15,0,0,0,.34.65.78.78,0,0,1-.47-.27.64.64,0,0,1-.15-.59c0-.26.41-.52,1.08-.8a4.84,4.84,0,0,1,2.23-.32h0S123.67,123.34,123.62,123.35Z"/></g><g class="cls-18"><path class="cls-36" d="M124.83,126.2a3,3,0,0,1-1.11,0,5.5,5.5,0,0,0,2.79-.85.94.94,0,0,0,.26-.34.52.52,0,0,1-.15.46,2.15,2.15,0,0,1-.65.4A4.67,4.67,0,0,1,124.83,126.2Z"/></g></svg>