<svg id="decor" xmlns="http://www.w3.org/2000/svg" xmlns:xlink="http://www.w3.org/1999/xlink" viewBox="0 0 300 300"><defs><style>.cls-1,.cls-2{fill:none;}.cls-2{clip-rule:evenodd;}.cls-3{opacity:0.75;}.cls-4{clip-path:url(#clip-path);}.cls-5{fill:#bfd072;}.cls-11,.cls-12,.cls-14,.cls-5,.cls-6,.cls-7,.cls-8,.cls-9{fill-rule:evenodd;}.cls-6{fill:#a2af56;}.cls-7{fill:#d8c6ba;}.cls-8{fill:#917f73;}.cls-9{fill:#ad8151;}.cls-10,.cls-11{fill:#936c3a;}.cls-12{fill:#f2e9e2;}.cls-13{clip-path:url(#clip-path-2);}.cls-14{fill:#dd653c;}</style><clipPath id="clip-path"><rect class="cls-1" x="6.08" y="107.13" width="287.83" height="192.88"/></clipPath><clipPath id="clip-path-2"><polygon class="cls-2" points="250.4 115.45 249.45 107.43 257.27 107.13 261.95 136.5 248.9 143.25 251.78 239.75 26.6 239.75 28.35 151.15 19.38 144.53 18.43 129.65 27.2 125.93 28.5 132.4 34.3 131.4 34.02 125.55 43.8 124.6 43.8 132.7 48.83 132.7 49.25 124.9 57.65 126.13 57.65 143.03 51.2 148.45 51.17 170.45 58.6 169.3 59.65 176.05 68.8 176.05 68.8 170.43 78.38 169.5 78.38 172.35 87.7 173.1 87.7 168.6 97.08 168.6 98.25 177.25 107.92 176.6 107.47 170.85 116.55 170.85 116.55 176.9 125.05 177.5 125.05 173.25 134.1 172 134.1 178.05 145.25 177.05 144.9 170.53 155.55 171.38 155.55 176.88 163.05 176.03 163.05 172.38 172.2 173.2 172.2 177.55 183.15 177.55 184.38 170.85 191.75 169.78 191.75 179.35 198.25 179.35 198.25 174.65 207.25 174.65 207.25 178.4 213.4 178.4 213.4 172.3 221.4 172.3 222.65 142.55 206.9 130.9 211.72 108.85 219.6 108.55 219.6 116.6 230.32 116.2 231 108.13 238 107.85 238 115.93 250.4 115.45"/></clipPath></defs><title>Plan de travail 8</title><g class="cls-3"><g class="cls-4"><path class="cls-5" d="M293.92,272.15c0-7.76-4.51-12.5-10.51-12.5h-32c-4.68,0-5.5-1.58-5.5-3.5s.82-3.5,5.5-3.5h3.83a8.53,8.53,0,0,0,8.5-8.5v-1.5a8.52,8.52,0,0,0-8.5-8.5H14.59a8.53,8.53,0,0,0-8.51,8.5v1.5a8.53,8.53,0,0,0,8.51,8.5H44.75c4.68,0,5.5,1.57,5.5,3.5s-.82,3.5-5.5,3.5h-5.5c-6.83,0-11.51,5-11.51,12.5s4.28,12.5,11.51,12.5H283.41c6.34,0,10.51-4.74,10.51-12.5"/><path class="cls-5" d="M275.5,298.4a8.89,8.89,0,0,1-5.7,1.6q-5.06,0-6.85-2.4a4.1,4.1,0,0,1-.85-2.6,4.86,4.86,0,0,1,2.35-4.6,7.91,7.91,0,0,1,5.2-.65,11.87,11.87,0,0,1,5.15,2.05c1.57,1.1,2.35,2.28,2.35,3.55a3.81,3.81,0,0,1-1.65,3M22.4,279.1a5.53,5.53,0,0,1-4.15,1.65c-2.57,0-4.23-.72-5-2.15-.27-1.47-.4-2.23-.4-2.3a5.39,5.39,0,0,1,1.7-4.1,5.54,5.54,0,0,1,3.7-1.6,4.62,4.62,0,0,1,3.7,1.3,6,6,0,0,1,1.7,4.55,4,4,0,0,1-1.25,2.65"/><path class="cls-6" d="M262.85,257.55c.77-.27,1.45.12,2,1.15a4.2,4.2,0,0,1,.7,2c0,.27,0,.43-.1.5a.54.54,0,0,0-.2.2l-.3.15a3.67,3.67,0,0,1-1.35-1.8,18.85,18.85,0,0,0-.8-2.2m5.2,3.15a1,1,0,0,1-.8,1,13.46,13.46,0,0,1-1.9-3.6q-.94-2.7-1.5-4.05,1.45-.75,2.95,2.45a10.78,10.78,0,0,1,1.25,4.2M38.65,243.15c0,.17-.2,1.23-.6,3.2s-.62,3.33-.65,3.8l-.6.1a1.61,1.61,0,0,1-.7-1.15,16,16,0,0,1,.75-3.15,8.82,8.82,0,0,1,1.5-3.3.33.33,0,0,0,.25.1.88.88,0,0,1,0,.4m1.25,3.75a4.87,4.87,0,0,1-.4,1.6,4,4,0,0,1-.75,1.3l-.7-1.1a3.9,3.9,0,0,1,.5-1.55,2.8,2.8,0,0,1,.8-1.1.81.81,0,0,1,.55.85m-4.8.5a1.62,1.62,0,0,1-.25.4,3.27,3.27,0,0,1-.6.5l-.7-.65a2.25,2.25,0,0,1,.3-.7,1.88,1.88,0,0,1,.65-.8,1.56,1.56,0,0,1,.6,1.25m46.15,25a3,3,0,0,1-.25,1l-.35.15a2.4,2.4,0,0,1-.5-.75,1.1,1.1,0,0,1-.1-.4l0-.95c.77-.27,1.15.05,1.15.95m1.35-1.9a1.71,1.71,0,0,1,.4-.1,2.85,2.85,0,0,1,1.25,2.05v.5s-.08.05-.15.15-.18.15-.45.15-.4-.37-.7-1.1A4.62,4.62,0,0,1,82.5,271c0-.27,0-.43.1-.5m5.15-8.05q4.65,6.49,4.65,8.85a2.14,2.14,0,0,1-.22.95q-2.09-2.69-3.45-4.37c-.27,1.19-.69,3-1.28,5.4-.7,0-2.26-1.8-4.7-5.38a1.87,1.87,0,0,1,1.1-.65h0a6.21,6.21,0,0,1,2.39,2.13l0,0,.38.48A37.83,37.83,0,0,0,85.15,260a9.29,9.29,0,0,1,2.6,2.5m11,7.15a2.09,2.09,0,0,1-.25,1c-.17.23-.33.35-.5.35-.57,0-.85-.45-.85-1.35,0-1.2.27-1.78.8-1.75s.8.63.8,1.7m.35.55c0-.7.22-1,.65-1s.65.37.65,1.1c0,.43,0,.63-.05.6,0,.17-.17.25-.6.25a.58.58,0,0,1-.65-.45Zm-5-.35c0-.6,0-.92,0-.95,0-1.77.42-2.88,1.25-3.35s1.25.43,1.25,2.7v1.7c-.17.53-.72.8-1.65.8-.43,0-.7-.3-.8-.9M218,241.5a.77.77,0,0,1,.15.55,27,27,0,0,1-.9,3.6,29.64,29.64,0,0,0-.9,3.6,2.56,2.56,0,0,1-.65.3,1.69,1.69,0,0,1-.65-1.2,12.83,12.83,0,0,1,.9-3.75,9.13,9.13,0,0,1,1.65-3.3,2.1,2.1,0,0,0,.4.2m-6.7,4.65a1.25,1.25,0,0,1,.55-1.15,1.35,1.35,0,0,1,.55,1.25,1.73,1.73,0,0,1,0,.65l-.5.25a1.42,1.42,0,0,1-.45-.35,1.49,1.49,0,0,1-.1-.65m2.95-.65c.3-.77.58-1.22.85-1.35a1.48,1.48,0,0,1,.3.9,12.08,12.08,0,0,1-.8,2.65l-.3.2c-.17-.07-.27-.13-.3-.2s-.15-.23-.15-.5a5.32,5.32,0,0,1,.4-1.7m9.4,24.9a37.94,37.94,0,0,1,1.15-8.2H225a2.7,2.7,0,0,0,.15.55,1.76,1.76,0,0,1,.15.7q0,1.2-.65,8.2l-.4.3c-.43-.23-.65-.75-.65-1.55m6.9-1.25a1.25,1.25,0,0,1-.15.65,4,4,0,0,1-.35.4l-.5.05c-.07,0-.1-.17-.1-.6a2,2,0,0,1,.7-1.35.85.85,0,0,1,.4.85m-4-1.75c.27-1,.52-1.6.75-1.7a2.65,2.65,0,0,1,.55,1.5,15.69,15.69,0,0,1-.65,3.25l-.35.2a1.78,1.78,0,0,1-.65-1.1,9.79,9.79,0,0,1,.35-2.15"/><polygon class="cls-7" points="250.4 115.45 249.45 107.43 257.27 107.13 261.95 136.5 248.9 143.25 251.78 239.75 26.6 239.75 28.35 151.15 19.38 144.53 18.42 129.65 27.2 125.93 28.5 132.4 34.3 131.4 34.02 125.55 43.8 124.6 43.8 132.7 48.83 132.7 49.25 124.9 57.65 126.13 57.65 143.03 51.2 148.45 51.17 170.45 58.6 169.3 59.65 176.05 68.8 176.05 68.8 170.43 78.38 169.5 78.38 172.35 87.7 173.1 87.7 168.6 97.08 168.6 98.25 177.25 107.92 176.6 107.47 170.85 116.55 170.85 116.55 176.9 125.05 177.5 125.05 173.25 134.1 172 134.1 178.05 145.25 177.05 144.9 170.53 155.55 171.38 155.55 176.88 163.05 176.03 163.05 172.38 172.2 173.2 172.2 177.55 183.15 177.55 184.38 170.85 191.75 169.78 191.75 179.35 198.25 179.35 198.25 174.65 207.25 174.65 207.25 178.4 213.4 178.4 213.4 172.3 221.4 172.3 222.65 142.55 206.9 130.9 211.72 108.85 219.6 108.55 219.6 116.6 230.32 116.2 231 108.13 238 107.85 238 115.93 250.4 115.45"/><path class="cls-8" d="M34.45,154.25s0,0-.05,0a2,2,0,0,1,1.8-1.18q1.8-.25,1.95,4.7c.07,2.33.05,4.67,0,7a32,32,0,0,0-4.05-.5,7.16,7.16,0,0,0-.8-.05l0-.05c.13-.33.7-.5,1.7-.5q.26-3.15.75-8.25v0a0,0,0,0,0,0,0v-.35c0-.93-.38-1.22-1.15-.85m-.35,1.55c-.13,1.13-.32,3.42-.55,6.85l-.1.1a1.72,1.72,0,0,1-.2-.85,26.77,26.77,0,0,1,.4-3.45c.2-1.37.35-2.25.45-2.65M63,200.45v-.35c0-.93-.38-1.22-1.15-.85a2.08,2.08,0,0,1,1.75-1.15q1.8-.25,2,4.7c.07,2.33,0,4.67,0,7a32,32,0,0,0-4.05-.5,7.16,7.16,0,0,0-.8-.05l-.05-.05c.13-.33.7-.5,1.7-.5q.26-3.15.75-8.25v0a0,0,0,0,0,0,0m-1.5.35c-.13,1.13-.32,3.42-.55,6.85l-.1.1a1.72,1.72,0,0,1-.2-.85,26.77,26.77,0,0,1,.4-3.45c.2-1.37.35-2.25.45-2.65m-27.35-19c-.13,1.13-.32,3.42-.55,6.85l-.1.1a1.72,1.72,0,0,1-.2-.85,26.77,26.77,0,0,1,.4-3.45c.2-1.37.35-2.25.45-2.65m206.45-23.3c.1.4.25,1.28.45,2.65a26.77,26.77,0,0,1,.4,3.45,1.72,1.72,0,0,1-.2.85l-.1-.1c-.23-3.43-.42-5.72-.55-6.85M35.6,181.45v-.35c0-.93-.38-1.22-1.15-.85h0a2.1,2.1,0,0,1,1.78-1.15q1.8-.25,1.95,4.7c.07,2.33.05,4.67,0,7a32,32,0,0,0-4.05-.5,7.16,7.16,0,0,0-.8-.05l0-.05c.13-.33.7-.5,1.7-.5q.26-3.15.75-8.25v0a0,0,0,0,0,0,0M239,158.1v.05q.5,5.1.75,8.25c1,0,1.57.17,1.7.5l0,0a7.16,7.16,0,0,0-.8.05,32,32,0,0,0-4,.5c-.1-2.33-.12-4.67-.05-7q.15-5,1.95-4.7A2.08,2.08,0,0,1,240.2,157c-.77-.37-1.15-.08-1.15.85v.35a0,0,0,0,0-.05-.05m.05,30.85a0,0,0,0,0-.05,0v0q.5,5.1.75,8.25c1,0,1.57.17,1.7.5l0,.05a7.16,7.16,0,0,0-.8.05,32,32,0,0,0-4,.5c-.1-2.33-.12-4.67-.05-7q.15-5,1.95-4.7a2.08,2.08,0,0,1,1.75,1.15c-.77-.37-1.15-.08-1.15.85V189Zm1.5.35c.1.4.25,1.28.45,2.65a26.77,26.77,0,0,1,.4,3.45,1.72,1.72,0,0,1-.2.85l-.1-.1c-.23-3.43-.42-5.72-.55-6.85"/><path class="cls-8" d="M209.28,192.35c.07-2.23.08-4.32,0-6.25a2,2,0,0,1,1.7-.65l.1.85a23.86,23.86,0,0,0,0,3.85,5,5,0,0,1-.5,2.1c-.46.05-.9.08-1.32.1m-51.73.8a26,26,0,0,1-.1-2.85,21.42,21.42,0,0,1,.15-3.2,5.3,5.3,0,0,1,1-2.45c.35-.08.65-.13.91-.17,0,.06,0,.13.07.2-.15,2.18-.18,5-.07,8.52-.57,0-1.16,0-1.78.08a1.37,1.37,0,0,0-.2-.13"/><path class="cls-9" d="M163.3,239.75V207q1.6-7.86,6.73-12.25t13.47-4.13q8.34.28,12.5,5.45t3.75,17.75l-.8,25.9Z"/><path class="cls-10" d="M163.3,223.64a55,55,0,0,0,1.45-9.64h.15a23.94,23.94,0,0,1,.15,2.65,55.33,55.33,0,0,1-1.45,7.75c-.1.46-.2.88-.3,1.3Zm8,16.11q1.91-14.35,1.91-16.95a1.63,1.63,0,0,0-.1-.75H173q-.34,3-1.35,9.65c-.12.87-.23,1.72-.32,2.53q-.15-10.46-1.08-25.48c-.31-5.1-.58-9.56-.81-13.42-.29.27-.58.55-.86.84.12,2.92.28,6.14.47,9.68q.45,7.5,1.2,20.05v13.85Zm1.06-36.6.1-.1.15-2.05c-.19-3-.39-5.56-.61-7.67-.18.11-.38.22-.56.34q.38,4,.92,9.48m6.1,5.6c0-5.09-.13-11-.37-17.72l-.81.17L177.6,216q-.25,6.65-.55,16.65c-.09,2.62-.16,5-.23,7.15h1.06q.62-25.56.62-31m-13.4,1.9a1.27,1.27,0,0,0-.95.5l.25.15Zm-.75,2q0,.65.15.3a2.31,2.31,0,0,0,.85-.3,1.66,1.66,0,0,0-.1-.7,1,1,0,0,0-.6.2.68.68,0,0,0-.3.5M194.05,227v.45c.07.27.3.4.7.4q.15,0,.75-.9l.2-.32a21.61,21.61,0,0,1,.2,2.82l-.05,3.5h.25a16.82,16.82,0,0,1,.2-2.1c.13-.93.2-1.48.2-1.65a15.26,15.26,0,0,0-.3-2.75,5.65,5.65,0,0,0-.15-.65,1.17,1.17,0,0,0,0-.3c0-.86-.18-1.31-.52-1.35l-.08-.2-.25.25v0a.51.51,0,0,0-.15.07q-1,.6-1,2.7m-13.55-29.9a56.19,56.19,0,0,0,.25,6.35h.1a47.58,47.58,0,0,0,.3-6.35q0-3.56-.12-6.36l-.44,0c-.06,1.71-.09,3.81-.09,6.33m18.85,29.6c-.75-4.63-1.25-8.09-1.5-10.35h-.1v2.1a122.3,122.3,0,0,0,1.45,13.09ZM197.5,208q.18-6.25.26-8.88-.21-.48-.45-.93l-.21,5.46a29.78,29.78,0,0,0,.25,4.55Zm-4.15,23.6q1.31-13.61,1.3-23.4c0-5.26-.08-9.77-.12-13.59-.25-.22-.49-.44-.76-.64-.11,2.87-.19,6.14-.22,9.83q0,12-.45,17.25-.4,5.44-1.55,17.15c-.05.55-.09,1.07-.14,1.6h1.12c.33-3.24.61-6,.82-8.2m-8.29,8.2c.07-1.27.15-2.6.24-4q.7-12.1.7-19.2c0-1,0-1.87,0-2.77a79.89,79.89,0,0,0,.68-8.18c.17-5.67.32-9.18.45-10.55a83.42,83.42,0,0,0-1.25,9.93q-.14-8.59-.3-14.18l-.22,0q-.08,6.63-.08,18.92v13.35q-.42,7.5-.71,16.7Z"/><path class="cls-11" d="M164.55,205.45l21.7,1.25q5.44.41,12.65,1.2c-.1,1.77-.17,3-.2,3.75,0,.43-.08,1.25-.15,2.45v.2c-2.33-.2-4-.32-4.9-.35q-16.4-.6-28.75-.8c-.07-1-.1-1.52-.1-1.65q-.11-2.15-.25-6.05"/><path class="cls-7" d="M182.35,210.25q0,.15.15.15a.43.43,0,0,0,.3-.15.49.49,0,0,0,.1-.2l-.05-.2c-.37-.13-.55,0-.55.25Zm-.6.15c0-.77.25-1.1.75-1s.8.33.8.8a.53.53,0,0,1-.25.4,1.33,1.33,0,0,1-.6.15c-.47,0-.7-.12-.7-.35m-6.5.2c-.5,0-.75-.18-.75-.55,0-.57.3-.85.9-.85a.58.58,0,0,1,.5.35.75.75,0,0,1,.1.35c0,.47-.25.7-.75.7m.4-.75c0-.23-.13-.33-.4-.3s-.4.2-.4.4a.31.31,0,0,0,.35.35.4.4,0,0,0,.45-.45m-6.7-.4a.87.87,0,0,1-.15.4c-.13.2-.27.3-.4.3a.87.87,0,0,1-.7-.3l-.15-.3a1.75,1.75,0,0,1,.4-.4c.27-.27.47-.4.6-.4s.2.1.3.3a1.1,1.1,0,0,1,.1.4m26.85,1.7c0,.17.07.25.2.25s.35-.13.35-.4-.08-.32-.25-.25a.39.39,0,0,0-.3.4m-27.2-1.7c0-.13,0-.2-.15-.2s-.4.1-.4.3v.15c0,.07.07.1.2.1a.31.31,0,0,0,.35-.35m27.4,1.1c.37-.13.55,0,.55.55s-.15.6-.45.6c-.47,0-.7-.15-.7-.45a.64.64,0,0,1,.6-.7m-5.7.1v.15a.23.23,0,0,0,.25.15.31.31,0,0,0,.35-.35c0-.17-.1-.25-.3-.25a.27.27,0,0,0-.3.3m.85.15c0,.33-.18.5-.55.5s-.7-.15-.7-.45c0-.63.22-.93.65-.9s.6.32.6.85"/><path class="cls-7" d="M182.35,210.25l0-.15c0-.3.18-.38.55-.25l.05.2a.49.49,0,0,1-.1.2.43.43,0,0,1-.3.15q-.1,0-.15-.15m-6.7-.4a.4.4,0,0,1-.45.45.31.31,0,0,1-.35-.35c0-.2.13-.33.4-.4s.4.07.4.3m-7.05-.4a.31.31,0,0,1-.35.35c-.13,0-.2,0-.2-.1v-.15c0-.2.13-.3.4-.3s.18.07.15.2m27.2,1.7a.39.39,0,0,1,.3-.4c.17-.07.25,0,.25.25s-.12.4-.35.4-.2-.08-.2-.25m-5.5-.5a.27.27,0,0,1,.3-.3c.2,0,.3.08.3.25a.31.31,0,0,1-.35.35.23.23,0,0,1-.25-.15Z"/><path class="cls-9" d="M169.4,204.75q4.09.8,5.55,1.25a13,13,0,0,1,4.25,2.15q-5.5-1.8-9.85-3.4Zm7.65,7.65v.45l-.25.05-.35-.05,0-.2v-.05a3.6,3.6,0,0,0-2.15.5,3.06,3.06,0,0,1-.95,1h-.1a1.74,1.74,0,0,0,.7-1,4,4,0,0,1,2.65-.7h.5ZM175.8,212a4.25,4.25,0,0,1,4,2,17.32,17.32,0,0,1-1.55-1,5.18,5.18,0,0,0-2.5-1m-4.15-.6-2.1.05c-2.17-.2-3.78-.37-4.85-.5a29.43,29.43,0,0,1-4.75-.7c.67.07,2.35.2,5.05.4a63.73,63.73,0,0,1,6.45.65Zm29.9-1.15h-.85c-2.9-.33-5.62-.77-8.15-1.3,1.83.17,3.48.33,4.95.5a20.37,20.37,0,0,1,4.05.8m-14.35,3.05q-2.65-.6-5.25-1.45c2.7.47,4.52.83,5.45,1.1.17,0,1.53.53,4.1,1.5-1-.3-2.47-.68-4.3-1.15"/><path class="cls-11" d="M177,227.45l21.55.25c-.27,2.57-.48,4.57-.65,6,0,.13-.12.67-.25,1.6q-12.19-.65-28.45-1.15c-.9,0-2.52,0-4.85,0V231.5c0-.73.07-2,.1-3.7q7.2-.3,12.55-.35"/><path class="cls-7" d="M194.45,231.45v-.15c0-.2-.13-.32-.4-.35s-.18.07-.15.2a.31.31,0,0,0,.35.35c.13,0,.2,0,.2-.05m.5-.15-.15.3a.88.88,0,0,1-.75.25c-.13,0-.25-.1-.35-.3a1.15,1.15,0,0,1-.15-.45.87.87,0,0,1,.15-.4c.1-.17.2-.25.3-.25s.32.15.55.45a1.75,1.75,0,0,1,.4.4m-8-.25a.4.4,0,0,0,.4.5.31.31,0,0,0,.35-.35c0-.2-.08-.33-.35-.4s-.4,0-.4.25m-.4,0a1.93,1.93,0,0,1,.15-.35.58.58,0,0,1,.5-.35.82.82,0,0,1,.85.95c0,.37-.25.53-.75.5s-.75-.28-.75-.75m-6.2-.25c0-.3-.13-.4-.5-.3l-.1.2a.49.49,0,0,0,.1.2.75.75,0,0,0,.3.2q.1,0,.15-.15Zm-8.8.1c0-.53.25-.8.65-.8s.58.27.55.9c0,.3-.22.43-.65.4s-.55-.17-.55-.5m7.8,0c0-.47.32-.72.85-.75s.73.28.7,1q0,.35-.75.3a1.52,1.52,0,0,1-.55-.2.53.53,0,0,1-.25-.4m-6.95-.05a.27.27,0,0,0-.25-.35c-.2,0-.3.08-.3.25a.32.32,0,0,0,.3.4.23.23,0,0,0,.25-.15Zm-5.6-.5a.7.7,0,0,1,.55.75c0,.3-.28.43-.75.4-.3,0-.43-.25-.4-.65s.23-.67.6-.5m.15.6a.39.39,0,0,0-.3-.4c-.17-.07-.25,0-.25.25s.07.4.3.4.22-.08.25-.25"/><path class="cls-7" d="M194.45,231.45c0,.07-.07.08-.2.05a.31.31,0,0,1-.35-.35c0-.13,0-.2.15-.2s.4.15.4.35Zm-7.5-.4c0-.23.13-.32.4-.25s.38.2.35.4a.31.31,0,0,1-.35.35.4.4,0,0,1-.4-.5m-6.6-.2,0,.15q0,.15-.15.15a.75.75,0,0,1-.3-.2.49.49,0,0,1-.1-.2l.1-.2c.37-.1.53,0,.5.3m-7.95,0V231a.23.23,0,0,1-.25.15.32.32,0,0,1-.3-.4c0-.17.1-.25.3-.25a.27.27,0,0,1,.25.35M167,231c0,.17-.12.25-.25.25s-.33-.13-.3-.4.08-.32.25-.25a.39.39,0,0,1,.3.4"/><path class="cls-9" d="M175.1,233.3q1.46-.3,5.5-.75a49.91,49.91,0,0,1-5.3,1.1c-1.87.33-3.32.62-4.35.85,2.6-.77,4-1.17,4.15-1.2m11.55-.15a5.1,5.1,0,0,0-2.55.75,9.52,9.52,0,0,1-1.6.9,4.21,4.21,0,0,1,4.15-1.65m-1.1.9-.25-.1,0-.25v-.2a3.54,3.54,0,0,0,.45.05h0a4,4,0,0,1,2.6.9,1.74,1.74,0,0,0,.6,1H189a3,3,0,0,1-.85-1,3.47,3.47,0,0,0-2.1-.65v.05l-.1.2Zm16.85-1.55a28.9,28.9,0,0,1-4.75.35c-1,.07-2.63.13-4.8.2l-2.1-.2.25-.1a62.94,62.94,0,0,1,6.4-.2l5-.05m-14.5-5.2c1-.23,2.83-.52,5.6-.85h.05q-4.45,1.31-10,2.7a13.37,13.37,0,0,1,4.35-1.85m-25.75,2.4-.85-.1a21.89,21.89,0,0,1,4-.5q2.21-.1,5-.15a81.79,81.79,0,0,1-8.15.75"/><path class="cls-12" d="M162.1,225.7a1.78,1.78,0,0,1,1.78.08,2.45,2.45,0,0,0,0,.27,29.82,29.82,0,0,1,.2,3.4.4.4,0,0,1-.1.3v3.8c.13,1.52.25,2.92.35,4.2a2,2,0,0,1-1.7,1q-1.76,0-2.1-1.35v-1.5c.13-3.57.2-6.28.2-8.15-.27-.87.18-1.55,1.35-2.05m-.15-10a5.53,5.53,0,0,1,2,.25c-.13,2-.2,4-.2,6,0,.78,0,1.5.05,2.18a4.65,4.65,0,0,1-2,.42q-1.6,0-2.4-3.3c-.33-2.17-.5-3.27-.5-3.3,0-1.4,1-2.13,3.1-2.2M163.7,204a2.83,2.83,0,0,1,1.12.9c0,.1,0,.2-.07.3s0,.94-.12,2.3c-.06.32-.1.65-.13,1s-.18,1.92-.35,4.45q-.09.83-.15,1.68a4.76,4.76,0,0,1-1.6.27c-.57,0-1-.83-1.2-2.5L161,210c0-4.73.9-6.72,2.7-5.95m-3.35-3.55q0-5.14,4-3.75a8.78,8.78,0,0,1,2.75,1.65,5.05,5.05,0,0,1,1.07,1.13l-.47.42a8.36,8.36,0,0,0-2,2.65c-.13.26-.26.58-.4.95a7.51,7.51,0,0,1-4.15-1,2.5,2.5,0,0,1-.8-2.05m36.3-9.9a10.1,10.1,0,0,1-1.55,3.2,13.87,13.87,0,0,1-1.25,1.78,13.38,13.38,0,0,0-1.9-1.28q-3-1.69-4-2.1c-.17-.07-.34-.12-.5-.17q.24-5.88,4.65-4.93a8.12,8.12,0,0,1,3.15,1.6c1,.77,1.45,1.4,1.45,1.9m-9.6-1.25a4,4,0,0,1-1.48,1.95,14.44,14.44,0,0,0-3,.2c-.77.12-1.51.26-2.2.43a10,10,0,0,1-.85-1.73l-.85-2.85c0-1.37,1.53-2.38,4.6-3.05s4.55-.13,4.55,1.7a8.24,8.24,0,0,1-.75,3.35m7.52,6.88a3.55,3.55,0,0,1,2.38-1.33c1.9-.4,2.85.13,2.85,1.6a2.82,2.82,0,0,1-1.15,1.85,4.53,4.53,0,0,1-1.5,1,1,1,0,0,0-.2-.17,4.53,4.53,0,0,0-.45-.63c-1.07-1.33-1.65-2.05-1.75-2.15l-.18-.17m3.63,2.92a7.77,7.77,0,0,1,3.4-1.65q5-1,5,4.35c0,1-1.27,1.78-3.8,2.45q-2.69.57-4.23.93c-.08-1.17-.19-2.14-.32-2.93a7.88,7.88,0,0,0-.7-2.47,5.69,5.69,0,0,1,.7-.68m-18.8-7a17.45,17.45,0,0,0-4.25,1.65c-.73.41-1.38.77-1.93,1.1a4.82,4.82,0,0,1-1.72-1.45,4.34,4.34,0,0,1-1.1-2c0-.43.47-1,1.4-1.6a9.06,9.06,0,0,1,3.1-1.3c3-.66,4.46.53,4.5,3.55m-10,1.55c1.57-.33,2.35.27,2.35,1.8v.3a9.21,9.21,0,0,0-.85.6,9.67,9.67,0,0,0-1.3,1.4c-.21.24-.38.45-.53.65q-2.07-.28-2.07-2a2.69,2.69,0,0,1,2.4-2.8m32.75,13.55q0,7-2.1,7a1.74,1.74,0,0,1-1.1-.37c0-2.15-.11-4-.23-5.55l.18-.13a2.43,2.43,0,0,1-.2-.25c0-.18,0-.37,0-.55,0-.53-.05-1-.08-1.52a1.94,1.94,0,0,1,1.68-.78c1.27-.07,1.9.65,1.9,2.15M199,216v-1.25a12.06,12.06,0,0,1,3-.25c1.07,0,1.57.43,1.5,1.3s0,1.6-.1,2.6-.15,2-.15,3.15-.8,1.65-2.4,1.65a6,6,0,0,1-2.08-.3c.14-2.69.23-4.67.25-5.92Zm.55,8.13.05,0q2.59.85,2.6,4.3c0,.17-.1,1.93-.3,5.3q-.75,4.91-2.9,4.9a3.49,3.49,0,0,1-.9-.1c0-.3.06-.58.1-.85v-5.3c.2-3.38.36-6.27.48-8.65a1.64,1.64,0,0,1,.67.25l.2.13"/><g class="cls-13"><path class="cls-14" d="M246.2,149.8a5.32,5.32,0,0,1,.05-1.1c.23-.3,1.1-.45,2.6-.45a10.24,10.24,0,0,1,2.55.15c.2.1.3.58.3,1.45,0,.43-.4.8-1.2,1.1a8.12,8.12,0,0,1-2.85.45c-.8,0-1.28-.25-1.45-.75ZM27.1,141.4a2.61,2.61,0,0,1-1.35,2,5.58,5.58,0,0,1-3.35,1c-.73,0-1.2-.2-1.4-.6a1.32,1.32,0,0,1-.1-.65q0-1.15,2.25-1.65a35.28,35.28,0,0,1,3.75-.6s0,.07.1.1.1.12.1.35m-7.4-3c2.7-1.17,4.05-.63,4.05,1.6,0,.47-.92,1-2.75,1.75a12.81,12.81,0,0,1-4.45,1.1l-.8-.15c-.1,0-.15-.27-.15-.7q0-1.8,4.1-3.6m9.1,30.15q4.05-.3,4.05,2.45a2.15,2.15,0,0,1-.35,1.15,1.47,1.47,0,0,1-1.35.75,13.6,13.6,0,0,1-5-.7c-.9-.37-1.35-.83-1.35-1.4q0-2,4.05-2.25m.95,6.05c0-.67.85-1.13,2.55-1.4s2.5.08,2.5,1.15a1.2,1.2,0,0,1-.45.9,2.32,2.32,0,0,1-1.6.5,6.45,6.45,0,0,1-2.45-.3.87.87,0,0,1-.55-.85m23.85-21c0,.47-.33.92-1,1.35a6.08,6.08,0,0,1-3.25.75,3.54,3.54,0,0,1-2.8-.85l-.25-.85c0-1.23,1.22-1.83,3.65-1.8s3.65.47,3.65,1.4M72,173.4q0,2-4.2,2a1.76,1.76,0,0,1-1.4-.65,1.43,1.43,0,0,1-.4-.8q0-1.75,3-2.1c2-.23,3,.28,3,1.55m-2.85,31.4c0,.6-.47,1-1.4,1.15h-2.6a1.19,1.19,0,0,1-.9-.55,1.06,1.06,0,0,1-.25-.6c0-.8.87-1.2,2.6-1.2s2.55.4,2.55,1.2M51.9,222.4a2.14,2.14,0,0,1,2.5,1.45.89.89,0,0,1-.65,1,23.83,23.83,0,0,1-4.55.25q-1.16,0-1.35-.6v-.65c0-.4.08-.65.25-.75a12.81,12.81,0,0,1,3.8-.65m-7.6-.75,0-.6c0-1.1.92-1.68,2.75-1.75s2.7.38,2.7,1.35-1.48,1.6-4.45,1.6a.88.88,0,0,1-1-.6m173-107.3a2.21,2.21,0,0,1-.1-.85c0-1,.83-1.53,2.5-1.7,1.51-.12,2.34.1,2.48.68a1.38,1.38,0,0,1,.22.82,1.83,1.83,0,0,1,0,.35.66.66,0,0,1,.13.35c0,.6-.47,1-1.4,1.1h-2.7a1.34,1.34,0,0,1-1.1-.75m-3.7,9.7a1,1,0,0,1-.8,1,19.27,19.27,0,0,1-4.3.3c-2.67,0-4-.32-4-.95,0-.33.33-.52,1-.55a.9.9,0,0,1-.15-.55c0-.53.4-.85,1.2-1,.63-.1,2.28-.22,4.95-.35a1.25,1.25,0,0,1,1.8.7,3,3,0,0,1,.3,1.35M211,127.6c0-.1,0-.2,0-.3a.75.75,0,0,1-.22-.55c0-.5.47-.85,1.4-1h2.6a4.33,4.33,0,0,1,1.2.35H216a.85.85,0,0,1,.8.65,2.17,2.17,0,0,1,.15.75,1,1,0,0,1-.3.85,9.66,9.66,0,0,1-3.8.45,9.91,9.91,0,0,1-1.4-.05c-.33-.1-.5-.47-.5-1.1m21.05,50c.93,0,1.4.43,1.4,1.3a1.41,1.41,0,0,1-.2.85,2.32,2.32,0,0,1-1.3.65h-4.4a1.55,1.55,0,0,1-.65-1.5,2.76,2.76,0,0,1,.15-1.1c.27-.57.92-.73,1.95-.5a11.88,11.88,0,0,1,2.2.2,4.81,4.81,0,0,0,.85.1m-130.9-5c0,.7-.57,1.32-1.7,1.85a9.11,9.11,0,0,1-3.8.75,1.62,1.62,0,0,1-1.6-1c-.17-.63-.25-1-.25-1,0-1.2,1.23-1.95,3.7-2.25s3.65.23,3.65,1.6m1.05,19.15c0,1.13-.93,1.7-2.8,1.7s-2.8-.57-2.8-1.7.93-1.58,2.8-1.65,2.8.45,2.8,1.65m-7.75,4.85q-.15-.7-.15-.75c0-.87.83-1.43,2.5-1.7s2.5.25,2.5,1.45-1,1.7-3,1.7c-1,0-1.63-.23-1.9-.7M228.9,181.8a1,1,0,0,1-.45.9,4.78,4.78,0,0,1-2,.3,1.11,1.11,0,0,1-1-.45,4.15,4.15,0,0,1-.15-.5c0-.6.62-1,1.85-1.1s1.8.18,1.8.85m-4.55,43.75c0-.8.13-1.27.4-1.4.67-.4,2.58-.58,5.75-.55a2.56,2.56,0,0,1,2.45.55,3.21,3.21,0,0,1,.1,2.7c-.3.47-.93.7-1.9.7a12.14,12.14,0,0,1-2.85-.2h-3a1,1,0,0,1-.95-.8,6.11,6.11,0,0,1-.05-1m-2.35-3.3c0-1,1-1.55,3-1.75s3,.2,3,1.2c0,.6-.55,1.13-1.65,1.6h-3.5a1.19,1.19,0,0,1-.8-.55,1.56,1.56,0,0,1-.05-.5"/></g></g></g></svg>