<svg id="decor" xmlns="http://www.w3.org/2000/svg" xmlns:xlink="http://www.w3.org/1999/xlink" viewBox="0 0 300 300"><defs><style>.cls-1{fill:none;}.cls-2{opacity:0.75;}.cls-3{clip-path:url(#clip-path);}.cls-4{fill:#8bcdf7;}.cls-10,.cls-11,.cls-4,.cls-5,.cls-6,.cls-7,.cls-8,.cls-9{fill-rule:evenodd;}.cls-5{fill:#c5eaff;}.cls-6{fill:#ffdf99;}.cls-7{fill:#edc77a;}.cls-8{fill:#db4b19;}.cls-9{fill:#dbd5cc;}.cls-10{fill:#ff5a12;}.cls-11{fill:#fff;}</style><clipPath id="clip-path"><rect class="cls-1" x="6.08" y="44.77" width="287.83" height="255.23"/></clipPath></defs><title>Plan de travail 4</title><g class="cls-2"><g class="cls-3"><path class="cls-4" d="M253.7,215.65a6.49,6.49,0,0,1,6.35,6.35v.05a6.15,6.15,0,0,1-1.9,4.5,5.93,5.93,0,0,1-4.3,1.85h-6.1a3.54,3.54,0,0,0-2.4,6,3.39,3.39,0,0,0,2.4,1.05H30.53a6.54,6.54,0,0,0,5.52-6.3v0a6.41,6.41,0,0,0-6.2-6.35H17.75a3.55,3.55,0,0,1,.1-7.1h11.2q15.63-.42,21-3.8,13.26,7.15,32,0h.65q14.34,6.9,30.4,0a52.94,52.94,0,0,0,38.3,0q20.63,7.15,39.65,0,17.66,7.14,33.55,0,3.9,2.94,23.15,3.75Z"/><path class="cls-5" d="M54.9,224.9q8.39-1.31,12.4-3.37a7.43,7.43,0,0,0,1.45-.88q4.17,2.81,17.15,4.2-11.4,1.08-17.05-1.5-3.67,1.56-13.95,1.55m150-1.25q4.16,2.81,17.15,4.2-11.4,1.1-17-1.5-3.65,1.54-14,1.55a58.6,58.6,0,0,0,9.3-2.08,12,12,0,0,1-3.65-1c-1.47.63-4.28,1-8.45,1a25.16,25.16,0,0,0,7.5-2,5.31,5.31,0,0,0,.9-.55,15.75,15.75,0,0,0,5.58,1.87c.43-.18.84-.38,1.22-.57a5.91,5.91,0,0,0,1.45-.9m30.75-4.2a24.59,24.59,0,0,0,7-1.9,2.63,2.63,0,0,0,.8-.5q2.36,1.6,9.6,2.35c-4.23.43-7.42.17-9.55-.8q-2.06.85-7.8.85m-139.45-.3a2.63,2.63,0,0,0,.8-.5q2.36,1.6,9.6,2.35c-4.23.43-7.42.17-9.55-.8q-2.05.86-7.8.85a24.59,24.59,0,0,0,7-1.9m38.25,8.6a5.91,5.91,0,0,0,1.45-.9q4.16,2.81,17.15,4.2-11.4,1.09-17-1.5-3.65,1.55-14,1.55,8.4-1.31,12.4-3.35m-106.6-6.7a24.59,24.59,0,0,0,7-1.9,2.63,2.63,0,0,0,.8-.5q2.35,1.6,9.6,2.35c-4.23.43-7.42.17-9.55-.8q-2.06.86-7.8.85"/><path class="cls-6" d="M293.92,272.15c0-7.76-4.51-12.5-10.51-12.5h-32c-4.68,0-5.5-1.58-5.5-3.5s.82-3.5,5.5-3.5h3.83a8.53,8.53,0,0,0,8.5-8.5v-1.5a8.52,8.52,0,0,0-8.5-8.5H14.59a8.53,8.53,0,0,0-8.51,8.5v1.5a8.53,8.53,0,0,0,8.51,8.5H44.75c4.68,0,5.5,1.57,5.5,3.5s-.82,3.5-5.5,3.5h-5.5c-6.83,0-11.51,5-11.51,12.5s4.28,12.5,11.51,12.5H283.41c6.34,0,10.51-4.74,10.51-12.5"/><path class="cls-6" d="M275.5,298.4a8.89,8.89,0,0,1-5.7,1.6q-5.06,0-6.85-2.4a4.1,4.1,0,0,1-.85-2.6,4.86,4.86,0,0,1,2.35-4.6,7.91,7.91,0,0,1,5.2-.65,11.87,11.87,0,0,1,5.15,2.05c1.57,1.1,2.35,2.28,2.35,3.55a3.81,3.81,0,0,1-1.65,3M22.4,279.1a5.53,5.53,0,0,1-4.15,1.65c-2.57,0-4.23-.72-5-2.15-.27-1.47-.4-2.23-.4-2.3a5.39,5.39,0,0,1,1.7-4.1,5.54,5.54,0,0,1,3.7-1.6,4.62,4.62,0,0,1,3.7,1.3,6,6,0,0,1,1.7,4.55,4,4,0,0,1-1.25,2.65"/><path class="cls-7" d="M29.5,247.4a.84.84,0,0,1,.45-.7,1.36,1.36,0,0,1,1.35-.1,1.48,1.48,0,0,0,.1.45,1.12,1.12,0,0,1-.4.75,1,1,0,0,1-.65.35c-.57,0-.85-.25-.85-.75m4.55,1.15a.48.48,0,0,1-.15-.1,1.13,1.13,0,0,1,0-.4c0-.17.13-.33.4-.5a2,2,0,0,1,1-.3,2.45,2.45,0,0,0,.15.6c0,.47-.28.73-.85.8Zm14.05,1.5a5.34,5.34,0,0,1,1.65,0,.75.75,0,0,0,.1.35c0,.4-.37.6-1.1.6l-.65-.1c-.07,0-.1-.12-.1-.45a1.48,1.48,0,0,1,.1-.45m2.4,1.85a.94.94,0,0,1-.7-.25v-.45a2.09,2.09,0,0,1,1.35.15l.05.15a.65.65,0,0,1-.7.4m31.9,26q0-.64.9-.75c.6-.07.9.2.9.8s-.37.8-1.1.8a.63.63,0,0,1-.6-.4,1.19,1.19,0,0,1-.1-.45m-4.05,0q-.15-.11-.15-.6c0-.5.67-.72,2-.65,0,0,0,.07.1.1a1.13,1.13,0,0,1,0,.4c0,.47-.43.75-1.3.85Zm3-20.1c0-.6.48-1,1.45-1.1s1.45.12,1.45.85a1,1,0,0,1-.5.8,2,2,0,0,1-1.15.35c-.83,0-1.25-.3-1.25-.9m14.15,2.45c0,.53-.22.8-.65.8a.87.87,0,0,1-.8-.4.92.92,0,0,1-.15-.45c0-.4.27-.62.8-.65s.8.23.8.7m-9.4-.65c0-.57.35-.85,1.05-.85s1,.28,1,.85a.92.92,0,0,1-.25.6,1.25,1.25,0,0,1-1,.4.74.74,0,0,1-.75-.55Zm52-14.8a3.1,3.1,0,0,1-1,.65l-.6-.55a1.38,1.38,0,0,1,.55-1,1,1,0,0,1,1.3-.25s0,.07.1.1a.57.57,0,0,1,.1.4,1.3,1.3,0,0,1-.4.65m1.65,18.8.2.3-.1.45-.35.1h-.9c-.1,0-.15-.22-.15-.55l.05-.3a3.63,3.63,0,0,1,1.25,0m-.05,1.7A1.76,1.76,0,0,1,141,265l.1.35-.05.35a4.86,4.86,0,0,1-1.15.15Zm-8,3.3c0,.6-.47.9-1.4.9a1.17,1.17,0,0,1-1.05-.45l-.15-.45c0-.57.43-.85,1.3-.85s1.3.28,1.3.85M168.3,272c.7,0,1,.25,1,.75s-.37.75-1.1.75c-.47,0-.77-.12-.9-.35s-.05-.32-.05-.35c0-.53.35-.8,1.05-.8m13.15-1.1c.6,0,.9.28.9.85s-.35.85-.85.85a1,1,0,0,1-.9-.45l-.1-.45c0-.53.32-.8.95-.8m5.6-.2q0,1.2-1.5,1.2a1.24,1.24,0,0,1-1.2-.55q-.15-.56-.15-.6c0-.8.48-1.18,1.45-1.15s1.4.4,1.4,1.1m1.5-2.77a7,7,0,0,1,7.08-1.2c2.46.9,3.85,2.16,4.15,3.8l-9.73,0c-3.24,0-3.74-.85-1.5-2.57M210,244.4c-.07.17-.1.08-.1-.25l.05-.3a3.17,3.17,0,0,1,1.15,0l.15.3a.58.58,0,0,1-.6.4,2,2,0,0,1-.65-.15m-1.75-.4a2.5,2.5,0,0,0-.4-.1.67.67,0,0,1-.1-.45.83.83,0,0,1,.4-.65,1.17,1.17,0,0,1,1-.05s0,.07.1.1a.69.69,0,0,1,.05.35c0,.07-.1.2-.3.4a2.51,2.51,0,0,1-.75.4"/><path class="cls-8" d="M291.89,109.65l-.2.2q-13.35-8-20.25-1-13.69-8.1-23.7.55-12.69-10.84-27.39-2.25-9.51-10.61-25.8-4.35-6.81-9.85-24.9-4.7-6-9-24.9-3.95L144.6,94a28,28,0,0,1,12.7-6.6q8.19-1.91,13,1.9A28.58,28.58,0,0,1,186.1,85q9.39.1,15.05,5.65l3.25-1.6a36.37,36.37,0,0,1,8-2.25q12.79-2,22.19,6.25,10.71-4.69,20.5-2,8.7,2.4,12.3,9.1,8.91-2.75,15.75.6a18.42,18.42,0,0,1,8.75,8.9"/><path class="cls-9" d="M229.72,52q-2.21,27.51-7.3,81.65-3.45,36.21-6,63.55-2.8,29.4-4.55,48.55c-1.07.2-2.18.44-3.35.7-1-.46-2-.86-2.75-1.2q2.1-20.64,4.9-48,.71-7.05,1.5-14.5,9.45-92.75,13.35-131a1.41,1.41,0,0,1,0-.4l4.15.65"/><path class="cls-7" d="M202.7,245.35l-.1-.2c.4-.87,1.48-1,3.25-.45a6.8,6.8,0,0,1,2.5,1.2,10,10,0,0,1,1.8-.6,12.67,12.67,0,0,1,5.9-.1l.2.4a3.26,3.26,0,0,1-.3.25,35.39,35.39,0,0,0-3.95.25,46.11,46.11,0,0,0-4.85.8l-.1-.2a.55.55,0,0,1,.2-.15c-.4-.1-.89-.23-1.45-.4-1.64-.43-2.67-.7-3.1-.8"/><path class="cls-10" d="M234.59,93.05Q225.2,84.8,212.4,86.8a36.37,36.37,0,0,0-8,2.25l-3.25,1.6Q210.54,53.3,229,50.9q-34-.8-58.69,38.4-4.8-3.8-13-1.9A28,28,0,0,0,144.6,94l-.1-.15q16.84-22.3,35-33.3,18.6-11.2,44.15-10c1.83.07,3.61.18,5.34.35q22,2.25,36.85,14.35Q282.4,78.71,292,109.55l-.1.1a18.42,18.42,0,0,0-8.75-8.9q-6.86-3.34-15.75-.6Q253.5,54.36,229,50.9q7.71,2.85,6.85,26.7-.3,6.86-1.25,15.45"/><path class="cls-11" d="M267.39,100.15q-3.6-6.7-12.3-9.1-9.79-2.7-20.5,2,1-8.6,1.25-15.45.85-23.85-6.85-26.7,24.51,3.45,38.4,49.25M229,50.9q-18.44,2.4-27.84,39.75Q195.5,85.1,186.1,85a28.58,28.58,0,0,0-15.8,4.3Q195,50.11,229,50.9"/><path class="cls-9" d="M229.69,49.8a35,35,0,0,0-3.85,0c-.56,0-1.13.08-1.69.15,0-.17-.07-.33-.1-.5V47.9c.16-2.3,1.23-3.33,3.19-3.1s2.92,1.23,2.75,3a7.22,7.22,0,0,1-.3,2"/><path class="cls-9" d="M224.2,52.55c-.77,0-1.5,0-2.2,0l-.45-3,10,.25q-.3,1.9-.45,3.3c-1,0-1.86,0-2.6-.1Z"/></g></g></svg>