<svg id="decor" xmlns="http://www.w3.org/2000/svg" xmlns:xlink="http://www.w3.org/1999/xlink" viewBox="0 0 300 300"><defs><style>.cls-1,.cls-2,.cls-3{fill:none;}.cls-2{clip-rule:evenodd;}.cls-10,.cls-11,.cls-12,.cls-13,.cls-14,.cls-15,.cls-16,.cls-17,.cls-3{fill-rule:evenodd;}.cls-4{opacity:0.75;}.cls-5{clip-path:url(#clip-path);}.cls-6{clip-path:url(#clip-path-2);}.cls-7{fill:url(#Dégradé_sans_nom_2);}.cls-8{opacity:0.25;}.cls-9{clip-path:url(#clip-path-4);}.cls-10{fill:#aa7db5;}.cls-11{fill:#e5b483;}.cls-12{fill:#ffdcb3;}.cls-13{fill:#9cc961;}.cls-14{fill:#efc29a;}.cls-15{fill:#78b36d;}.cls-16{fill:#5f9b53;}.cls-17{fill:#f7c264;}</style><clipPath id="clip-path"><rect class="cls-1" x="5" y="119.9" width="288.91" height="180.1"/></clipPath><clipPath id="clip-path-2"><path class="cls-2" d="M263.44,124.05q2.28,2.6,3.22,3.75c.14,1.42.31,3,.5,4.88,0,.48-.09.9-.15,1.27v7.7c-.06.4-.13.81-.2,1.25-.21,1.26-.37,2.37-.5,3.33-.67.61-1.19,1.05-1.55,1.32s-.73.56-1.07.85c-1,0-2,.11-3.18.2q-8.17.69-10.12,2l-.65.19a1.63,1.63,0,0,1,.07.45c0-.43-.52.59-1.5,3.08-.81,2.05-1.29,3.33-1.45,3.83a2.94,2.94,0,0,1,0,.42,3.66,3.66,0,0,0,.15.4v.2c.67,1.52,1.25,2.75,1.73,3.7q.09.32.15.6a24.23,24.23,0,0,0-.48,2.45,31.28,31.28,0,0,0-.3,3.35c.46,1.08.91,2.11,1.33,3.08.11.33.23.68.37,1.07a19.12,19.12,0,0,1,1.18,4.43c-.08.47-.16,1-.23,1.57a42.19,42.19,0,0,0-.35,4.45q5,13.08,7.55,19.53c-.2.65-.52,1.51-.95,2.57a15.44,15.44,0,0,0-1.1,3.95,26.5,26.5,0,0,0-1.65,6.35v1a1.38,1.38,0,0,0,.2.52c0,.14-.06.29-.1.43a2.85,2.85,0,0,0,.28.88c.11,1.65.35,4,.72,6.92q.75,6.19,1.75,10.65l.5,2.2q-3.65-.26-16.1-.5H39.71l.35-.45a26.32,26.32,0,0,0,4.85-10.85,1.56,1.56,0,0,0,0-.5c-.07-.07-.1-.12-.1-.15l-.3.2a3.15,3.15,0,0,0-1.2-.35,27.81,27.81,0,0,0-3.1-.25H26.26q-8.15.09-12.7.25l-.45-.12a14.25,14.25,0,0,1-1.48.2c0-.16.08-.32.13-.48a44.55,44.55,0,0,0,1.1-4.85,58.8,58.8,0,0,1,3.85-12q3-7.45,3.05-7.5a20.34,20.34,0,0,0-.45-2.85q-.09-.39-.15-.72c0-.46,0-.92.05-1.41,4.53-2.21,7-3.56,7.3-4,.2,0,.32-.09.35-.2a3.73,3.73,0,0,0,.05-.4,4.43,4.43,0,0,0-1.2-.85l-.3-.17c0-.15.09-.3.15-.48a9.34,9.34,0,0,0,.45-2.1.49.49,0,0,0,0-.15c.45-.21,1-.43,1.53-.65a6.22,6.22,0,0,0,1.25-.67c.47-.12,1-.22,1.55-.31l-.45-.39.05-.28a8.87,8.87,0,0,1-2.05-2.7v0c-.39-2.12-.75-4-1.1-5.58v-.17a.93.93,0,0,0-.18-.5,1.17,1.17,0,0,0,0-.2,1.2,1.2,0,0,0,.18-.2l.1-.15.7-.55.22-.2c.18-.14.35-.29.53-.45a1.8,1.8,0,0,0-.63.23l0-.08-.85-.25a.16.16,0,0,1,0,.08,27.1,27.1,0,0,0-4.62-2.28c-1.06-.44-2-.82-2.9-1.15l-1.65-.8h0c1.12-6.34,1.87-10.21,2.28-11.6q2.89-9.56,3.55-11.85a74.82,74.82,0,0,0,2.15-10.22c.47-.66.92-1.27,1.35-1.85a69,69,0,0,0,8.7-.83,58.29,58.29,0,0,1,7.75-.9q18.24,0,30.6,3.4a60,60,0,0,1,7.5,2.5q.16,4.56,1,13.4.72,8.13.92,12.05a9.23,9.23,0,0,1-.55,1.38c-.75.44-1.57,1-2.47,1.57l-7.58,5.83-.07-.08a2.7,2.7,0,0,0-.18.25l-.32.25v.48a.86.86,0,0,0,0,.27,2.83,2.83,0,0,0,.12.65,5.82,5.82,0,0,0,.13.8c0,.16.09.33.15.5a3.07,3.07,0,0,0,.05.53,6.2,6.2,0,0,1-.3,1.27,4.91,4.91,0,0,0-.3,1.2c0,.43,1.22,1,3.65,1.6.51.13,1,.23,1.47.32l1,3.83a12.91,12.91,0,0,1-.9,1.85,10.72,10.72,0,0,0-.9,1.9s.48.83,1.45,2.4,2.05,2.4,2.85,2.4a2,2,0,0,0,.9-.2c.86.18,1.93.38,3.2.6.08-.12.16-.25.25-.37l.15,0q3.8-3.31,6.35-5.8a20.84,20.84,0,0,0,3.25-3c.11-.16.42-.65.92-1.47.27-.42.57-.92.93-1.5,0-.05,0-.09.07-.13v-.07a1.59,1.59,0,0,0,.08-.43c0-.84,0-1.78-.1-2.82,0-1.29,0-2.52,0-3.68a33.21,33.21,0,0,1,.45-5.7,11.81,11.81,0,0,1,.9-1.95c.15-.28.28-.56.4-.83,0-.32-.09-.63-.13-.92a1.62,1.62,0,0,0,.38-.8c0-.27-.13-1.39-.4-3.35.23-2.31.9-3.35,2-3.12.18,1.68.43,3.83.75,6.42q1.16,9.55,1.15,12.75s-.07.53-.2,1.5a2.27,2.27,0,0,0,.2.95c0,.61.84,1.08,2.4,1.4A9.42,9.42,0,0,1,108,182.9c.2.19.43.43.67.7-.09.3-.23.68-.42,1.15l-.05.05a2.48,2.48,0,0,0-.6,1.75v0c0,.5.63,1.7,1.9,3.6a48.11,48.11,0,0,0,2.9,4l.35,1.23a12.71,12.71,0,0,0,.45,2.67,8.32,8.32,0,0,0,.9,2.35h2a5.37,5.37,0,0,0,1.7.25,13.37,13.37,0,0,0,3.55-.6l2-.6a11.1,11.1,0,0,1,1.85,2.53,7,7,0,0,0,1.17,2c0,.12,0,.26,0,.4.25,1.43.81,2.18,1.67,2.25.06.07.11.1.13.1a1.52,1.52,0,0,0,.65-.1c.08,0,.9-.2,2.45-.6h.15a7.69,7.69,0,0,0,1.2-.35l1.1-.2c.1,0,1.18-.32,3.25-.85a5.5,5.5,0,0,1,.75-.15c.53,0,1-.06,1.42-.1h.38c.41,0,1,0,1.85-.05a7.47,7.47,0,0,1,1.2.6l.47.3c1,1.35,2.79,2.49,5.53,3.4A32.51,32.51,0,0,0,159,210.3a6.21,6.21,0,0,0,1.85-.3,5.81,5.81,0,0,0,.55.2h1.75a2.75,2.75,0,0,0,.75-1.8h.1l-.08,0,.28-.2q4.29-1.94,4.4-1.93,2.55,0,3.15,1.35a4.57,4.57,0,0,0,.65,1.3q.81,0,5.7-.77c.1-.31.19-.6.25-.88a2.22,2.22,0,0,0,.25-.35,4.18,4.18,0,0,0,.25-1.75.82.82,0,0,1,0-.27,3.16,3.16,0,0,1,1-.95,36,36,0,0,0,4.73-1.28,31.87,31.87,0,0,1,3.25-.15,4.68,4.68,0,0,1,1.62.28c.62,2,1.5,3.07,2.65,3.32a.93.93,0,0,0,.68.35h.2a1.81,1.81,0,0,0,.85.2l.2,0c.23.08.47.16.72.22a10.71,10.71,0,0,0,3.93.65,3.6,3.6,0,0,0,2.67-1.68,7.52,7.52,0,0,0,1-1.07,7.69,7.69,0,0,0,1.15-1.85,25,25,0,0,0,3.35-1l1.3-.5q.73,4.89,2.35,5.58c0,.15,0,.31.05.47q4.2,0,8.15.15a23.89,23.89,0,0,1,3.8.3q1.55-3.1,2.25-4.75a20.27,20.27,0,0,0,1.6-4.95v0c.11-.26.23-.52.35-.78.28-.6.53-1.16.75-1.65.63,0,1.4-.08,2.3-.1a14.6,14.6,0,0,0,1.6-.13l.9.08c1.91,0,3-1.1,3.25-3.3.29-.74.52-1.32.7-1.75a33.1,33.1,0,0,0,2.8-4.45,38.13,38.13,0,0,0,2.55-5.58,4.48,4.48,0,0,0,.35-1.32,5,5,0,0,0,.1-.95,50.07,50.07,0,0,0-.3-6.05c.26-.66.5-1.26.7-1.8a19.86,19.86,0,0,0,1.7-6.55,13.59,13.59,0,0,0-.1-2.15c-.13-.77-.32-1.7-.55-2.8a10.33,10.33,0,0,0-.32-1.22c0-.35,0-.67,0-1v-.15h0a2.77,2.77,0,0,1-.42,0,5.18,5.18,0,0,0-1.08-1.27c-.87-.47-1.3-.77-1.3-.9a10,10,0,0,1,.85-2.9c.57-1.3.85-2,.85-2.05,0-.27,0-.42-.1-.45l-.15.07a4,4,0,0,0,.15-.42,88.56,88.56,0,0,0-9-2.9q-3.58-.88-5.15-1.35c-.7-.57-1.5-1.2-2.4-1.9l-1-.73c.76-4.56,1.44-10.37,2-17.39q4.4-1.45,11.68-3.38l.33-.1h.47c1.48,0,2.91,0,4.28,0l14.42,2.2,5.83.9"/></clipPath><linearGradient id="Dégradé_sans_nom_2" x1="138.8" y1="1402.05" x2="139.8" y2="1402.05" gradientTransform="matrix(0, -58.5, -58.5, 0, 82163.92, 8361.53)" gradientUnits="userSpaceOnUse"><stop offset="0" stop-color="#abcecd"/><stop offset="1" stop-color="#d5dbdb"/></linearGradient><clipPath id="clip-path-4"><rect class="cls-1" x="13.16" y="119.9" width="257.15" height="98.5"/></clipPath></defs><title>Plan de travail 5</title><g class="cls-4"><g class="cls-5"><g class="cls-6"><rect class="cls-7" x="11.63" y="120.9" width="255.53" height="118"/></g><g class="cls-6"><g class="cls-8"><g class="cls-9"><path class="cls-10" d="M263.26,213.85c-.23,1.64-.45,3.15-.65,4.55q-4.47-1.12-9.5-2.65c-2.61-.8-5.16-1.61-7.65-2.45q-3.54-.72-7.2-1.5-21.4-4.61-26.7-7.9,8.53,2.1,25.85,6.47a171.23,171.23,0,0,1-17.93-8c.1-.15.19-.31.28-.47q.31-.61.57-1.17,7.77,2,28.78,8.67,7.83,2.49,14.15,4.45m.55-3.65c-.07.45-.13.89-.2,1.33q-20.72-5.78-30.7-9.28l.15-.35q5,.9,20.55,5.35,5.34,1.51,10.2,2.95m6.5-80c-.1,1.88-.2,4-.3,6.4q-7.93-1-20-2.85-24-3.62-32-5.85c.5-1.24,1-2.47,1.6-3.7a39.23,39.23,0,0,1,10.55.7l11.35,2.2a74.19,74.19,0,0,0,8.18,1.3q-6.45-2.37-22.63-8.5,13,3.85,24.95,7.9l2.43.82a150.09,150.09,0,0,1,15.87,1.58m-.52,12.8c0,.5,0,1-.06,1.43q-11.19-1.65-22.07-4.08Q228.21,136,216,133.4c.09-.28.17-.53.25-.75l.12-.4a276.63,276.63,0,0,1,28.68,4.6q8.43,1.86,24.73,6.15m-216,15.15,7.95,0L50.86,157q-22.41-2.48-35.5-4.1c.21-.52.42-1,.62-1.55q19.93,1.08,47.48,4,13.6,1.42,24.2,2.8c.08.92.16,1.8.25,2.65q-4-.34-8.9-.82l.3.12v.35h-3a41.31,41.31,0,0,1-6.2-.7l-8.55.1q-8.7.1-9.15.25H39.26q-15.69-.74-26.1-1.62c.17-.46.35-.91.52-1.35l25.08,1.37q14.34,0,15.05-.3m-35.6-12.32c.21-.48.42-1,.62-1.46Q35,146.5,62,149.85q13.73,1.88,25.55,3.8l.1,3.15q-9.75-1.45-22-3.35-30.47-4.69-47.4-7.62m73.55,40.22q2.19.64,16.65,4.2c1.55.38,3,.77,4.47,1.18.08.65.15,1.29.23,1.9q-2.77-.86-6.3-2-7.56-2.44-15.65-5.2Zm-.68-4.43c.08-.16.15-.32.23-.47q4.68,1.4,11.85,3.35,5.09,1.47,9.57,3.08c0,.47,0,1,0,1.47-4-1-7.13-1.88-9.32-2.55a85.68,85.68,0,0,1-12.38-4.88m167.18-2.32c-1.48-.39-3.06-.85-4.75-1.4q-2.89-.94-10.1-3.7a37.34,37.34,0,0,1,10.75,1.25c1.27.33,2.84.79,4.7,1.4-.19.73-.39,1.55-.6,2.45m-1.07,5c-.39,1.88-.64,3.25-.75,4.1q-6.94-.19-13.08-.55A115,115,0,0,1,231,186.58c.65-1,1.37-2.2,2.15-3.58a47.31,47.31,0,0,1,10.15-.25q6.28.38,13.88,1.55m.4-2c-.06.25-.11.49-.15.73q-2.85-.33-6.38-.68a80.7,80.7,0,0,1-15.8-3q2.85-1.24,12.7.85l9.63,2"/></g></g></g><path class="cls-11" d="M171,237.75q1.16-2.3,3.85-7,8.38-1.46,11.37,4.62,6.87-8.94,15.78-8.35,6.12,8.46,7.3,10.13a3.22,3.22,0,0,1-.2.62Z"/><path class="cls-12" d="M293.92,272.15c0-7.76-4.51-12.5-10.51-12.5h-32c-4.68,0-5.5-1.58-5.5-3.5s.82-3.5,5.5-3.5h3.83a8.53,8.53,0,0,0,8.5-8.5v-1.5a8.52,8.52,0,0,0-8.5-8.5H14.59a8.53,8.53,0,0,0-8.51,8.5v1.5a8.53,8.53,0,0,0,8.51,8.5H44.75c4.68,0,5.5,1.57,5.5,3.5s-.82,3.5-5.5,3.5h-5.5c-6.83,0-11.51,5-11.51,12.5s4.28,12.5,11.51,12.5H283.41c6.34,0,10.51-4.74,10.51-12.5"/><path class="cls-12" d="M275.5,298.4a8.89,8.89,0,0,1-5.7,1.6q-5.06,0-6.85-2.4a4.1,4.1,0,0,1-.85-2.6,4.86,4.86,0,0,1,2.35-4.6,7.91,7.91,0,0,1,5.2-.65,11.87,11.87,0,0,1,5.15,2.05c1.57,1.1,2.35,2.28,2.35,3.55a3.81,3.81,0,0,1-1.65,3M22.4,279.1a5.53,5.53,0,0,1-4.15,1.65c-2.57,0-4.23-.72-5-2.15-.27-1.47-.4-2.23-.4-2.3a5.39,5.39,0,0,1,1.7-4.1,5.54,5.54,0,0,1,3.7-1.6,4.62,4.62,0,0,1,3.7,1.3,6,6,0,0,1,1.7,4.55,4,4,0,0,1-1.25,2.65"/><path class="cls-11" d="M245,274.7a6.76,6.76,0,0,1-1.35-1c0-.3.22-.57.65-.8a1.52,1.52,0,0,1,1.8.25l.15.6-.15.75a4,4,0,0,0-1.1.2M65.3,253.1a1.07,1.07,0,0,1-.7.15c-.37,0-.58,0-.65-.1a1.48,1.48,0,0,0-.25-.35c.67-.63,1.15-.83,1.45-.6l.35.55a1.07,1.07,0,0,1-.2.35m4,1.25c-.3.37-.5.6-.6.7a.82.82,0,0,1-.6.2l-1-.05-.1-.15q-.15-.11-.15-.6c0-.4.27-.6.8-.6a3.49,3.49,0,0,1,1.65.5m52.5-1.85a1.2,1.2,0,0,1,.75-1.05,3.32,3.32,0,0,1,2.45-.1.58.58,0,0,0,.15.3,1.21,1.21,0,0,1,.15.7.87.87,0,0,1-.6.85,9,9,0,0,1-2,.35Zm-24,12.75.2.55A3.33,3.33,0,0,1,96.55,267a1.85,1.85,0,0,1-.75-.15c-.2-.07-.3-.3-.3-.7a1.17,1.17,0,0,1,.75-1.2,1.49,1.49,0,0,1,1.55.35m1.1,2.8a.78.78,0,0,0-.1-.25,1.21,1.21,0,0,1-.15-.7c0-.6.43-1,1.3-1.2s1.3.17,1.3,1.1a1.11,1.11,0,0,1-1.25,1.25,3.19,3.19,0,0,1-.9-.1ZM217,251.35a2.62,2.62,0,0,1-1.2.2l-1.45-.2c-.13,0-.2-.23-.2-.8a.92.92,0,0,1,.6-1,6.41,6.41,0,0,1,2.4,0l.15.2a1.46,1.46,0,0,1,.1.7.85.85,0,0,1-.4.85m2.3,20a7.93,7.93,0,0,1,1.85,0l.15.6q-.26.45-1.35.6a1.19,1.19,0,0,1-.65-1.2m4.7-.85a20.22,20.22,0,0,1,3.6-1.15,1.19,1.19,0,0,0,.45.1c.1.07.15.28.15.65q0,.8-1.8,2.1a4.76,4.76,0,0,1-2.8,1.15,1.56,1.56,0,0,1-.65-.15c-.13-.1-.2-.33-.2-.7a2.19,2.19,0,0,1,1.25-2m3.5,1.7c0-1.37.93-2.08,2.8-2.15s2.8.53,2.8,1.8-1.23,2-3.7,2c-.9,0-1.48-.25-1.75-.75-.1-.53-.15-.82-.15-.85"/><path class="cls-13" d="M199.45,246.45c-.07.23-.18.6-.35,1.1a4.18,4.18,0,0,0-.2,1.2,1.71,1.71,0,0,1-.25.85,1.8,1.8,0,0,0-.25.9q0,2.1-2,9.55-.84,3.21-1.55,5.4a7.62,7.62,0,0,1,2.65-.55s0,.1.15.2.1.27.1.6-.75,1-2.25,2.1a19.75,19.75,0,0,1-2.23,1.5,2.71,2.71,0,0,1-.17.25l-.13-.1a3.8,3.8,0,0,1-.67.25,2,2,0,0,1-.5-.1c-.13-.07-.2-.28-.2-.65a2.4,2.4,0,0,1,.48-1.37q.28-2.91,2.92-11,3-9,4.3-10.6Zm-17.8,21.2.1-.7a1.36,1.36,0,0,1,1.05.4c.13.13.45.52.95,1.15-.07.57-.43.87-1.1.9a10.32,10.32,0,0,1-.65-1,2.51,2.51,0,0,1-.35-.75m6.75-8.2q.75-3.15,2.5-3.65a2.39,2.39,0,0,0,.6.15c.17.07.25.28.25.65,0,.07-.15,3.48-.45,10.25,0,1.17-.48,1.75-1.45,1.75s-1.58-.73-1.85-2.2c-.07-1.47-.1-2.23-.1-2.3a19.9,19.9,0,0,1,.5-4.65m-1.4,5.3a14.39,14.39,0,0,1,.9,3.3q0,.85-.15.45a1.68,1.68,0,0,0-.2.3c-.07.1-.28.15-.65.15-.73,0-1.37-.68-1.9-2.05l-.6-2c0-2.13.42-3.22,1.25-3.25a20.19,20.19,0,0,1,1.35,3.15"/><path class="cls-14" d="M5,232.25Q5,229.9,7.1,222q2.16-7.75,2.25-8.2,6.56-21,19.75-16.15,13.8,5.21,25.7,17.6,10.65,11.1,10.65,19.05a2.85,2.85,0,0,1-1.45,2.8,8.58,8.58,0,0,1-3.2.63,8.76,8.76,0,0,1-1.15.35q-11.86.14-28.55.37l-14.25-.1Q11.06,238,8.6,237l-.5-.25a3,3,0,0,1-3-2.35Z"/><path class="cls-12" d="M59.05,225.2a11,11,0,0,1-4.8.8q-19.84,0-28.5-6.1a13.68,13.68,0,0,1-6.2-11.7,40.13,40.13,0,0,1,.55-4,25.3,25.3,0,0,1,1-4.4c.63-.42,1.34-.92,2.13-1.47s2.8-.79,6-.68Q43,202.87,54.8,215.2s1.17,1.7,3.4,5,2.51,5,.85,5"/><path class="cls-11" d="M19.9,239.6c-.16-.43-.25-.67-.25-.7,0-.87.59-1.43,1.75-1.7s1.7.08,1.7,1.05a1.93,1.93,0,0,1-.45,1.15,1.85,1.85,0,0,1-1.6.85,1.28,1.28,0,0,1-1.15-.65m38.6,0v-1.15c0-2.43.82-3.37,2.45-2.8a3.17,3.17,0,0,1,2.45,3.25,1.56,1.56,0,0,1-.85,1.3,4.6,4.6,0,0,1-2.5.6,1.41,1.41,0,0,1-1.55-1.2m-6.6.3c.8-.13,1.2.2,1.2,1a1.33,1.33,0,0,1-.3.8,1,1,0,0,1-.85.5,1.19,1.19,0,0,1-1.1-.5,5.11,5.11,0,0,1-.15-.55c0-.67.4-1.08,1.2-1.25"/><path class="cls-15" d="M257.94,195a12.82,12.82,0,0,1-.8,5.05q-1.45,3.34-5.65,3.35-13.61,0-18.4-2.3-2.66-1.24-2.65-3.6a10.43,10.43,0,0,1,.65-4.5q1-1.8,4.6-1.8,8.85,0,9.9-2.55a3.2,3.2,0,0,0-.1-2.2,15.72,15.72,0,0,1-.5-1.85q0-2.5,2.95-4.35,3.34-2.15,6.75.75a16,16,0,0,1,2.85,7.1,46.26,46.26,0,0,1,.4,6.9"/><path class="cls-16" d="M253.09,186.45a21.51,21.51,0,0,0-1.85-4.7,6.73,6.73,0,0,1,3.4,4.1,24.42,24.42,0,0,1,.3,5,16.91,16.91,0,0,1-.6,5.25,5.12,5.12,0,0,1-4.65,3.7q3.85-3,3.85-9.25a16.38,16.38,0,0,0-.45-4.05m-3.6-1.35a22.81,22.81,0,0,1,.15,4.8q-.7,6-8.45,5.95c-.63,0-1.83-.08-3.6-.25a24.57,24.57,0,0,1-4-.6,7.39,7.39,0,0,1,2.65-.2l5.7,0c3.87,0,5.78-1.77,5.75-5.3a36.25,36.25,0,0,1-.1-4.45,5.06,5.06,0,0,1,1.65-3.7,15.49,15.49,0,0,0,.25,3.7M247,201.3l-.9,0H246c-.1,0-.15-.22-.15-.55a1.7,1.7,0,0,1,.3-.8,2.38,2.38,0,0,1,.65-.8,3.49,3.49,0,0,1,.45,1.9Zm-1.75-1.75a2.66,2.66,0,0,1-.9,1.4l-.45.05a.52.52,0,0,1-.2-.1,1.73,1.73,0,0,1-.05-.6c0-.33.33-.63,1-.9s.87-.22.6.15"/><path class="cls-17" d="M255.79,178.9c-.93,1.13-1.45,1.73-1.55,1.8l-.35,0c-.07,0-.1-.23-.1-.6,0-.87.67-1.25,2-1.15m-6.95,1.1a5.12,5.12,0,0,1,0,.9,4.74,4.74,0,0,1-.1,1.25l-.65,0-.45-2.7.6-.1a2.8,2.8,0,0,1,.55.6m9.75,5.55a1.32,1.32,0,0,1-.65.35,4.34,4.34,0,0,1-1.25.2c-.37,0-.55,0-.55-.1l.1-.1a2.11,2.11,0,0,0,.1-.7l.5,0a9.2,9.2,0,0,1,1.6,0Zm-5.75,12.75a2.27,2.27,0,0,1-1-.45l-.1-.4a1.6,1.6,0,0,1,1.05-.8,1.63,1.63,0,0,1,.75.8l-.25.7Zm-3.05,1c.07,0,.1,0,.1,0a2.09,2.09,0,0,1,1.05.65,1.5,1.5,0,0,1,.55.95.64.64,0,0,1-.15.35,2.38,2.38,0,0,1-1.05-.65,1.23,1.23,0,0,1-.5-.8Zm-1.85,5.25a2.26,2.26,0,0,1-.25,1.05c-.1.17-.25.4-.45.7l-.45.1a.67.67,0,0,1-.25-.3,1.81,1.81,0,0,1-.1-.75,5.57,5.57,0,0,1,.2-.85,3.55,3.55,0,0,1,.8-1.45c.23.37.37.58.4.65a2.69,2.69,0,0,1,.1.85m10.3-6.25a1.75,1.75,0,0,1-1.3-.45c.23-.37.42-.57.55-.6a3.78,3.78,0,0,1,2,.5c-.17.37-.58.55-1.25.55M241,191.45l-.05.65-.3.3a3.41,3.41,0,0,1-.65-.8,2.32,2.32,0,0,1-.45-1.15c0-.8.23-1.25.7-1.35.1.27.23.68.4,1.25a3.94,3.94,0,0,0,.35,1.1m1.35-2,.1-.7A2.08,2.08,0,0,1,244,189.9a18.77,18.77,0,0,1,1,1.75.79.79,0,0,1-.55.45,2.78,2.78,0,0,1-1.4-1.25,3.91,3.91,0,0,1-.7-1.4m-4.45,12.9-.35-.15-.1-.45a5.59,5.59,0,0,1,.45-.85,1.78,1.78,0,0,1,1-.6.62.62,0,0,0,.25.1c.07,0,.1.18.1.55,0,.6-.43,1.07-1.3,1.4"/><path class="cls-15" d="M207.69,163a11.37,11.37,0,0,1,.7,4.6,17.63,17.63,0,0,0,.4,4.65q.11,1.65,4.75,2.05t5.42,5.83q.76,5.4-7.72,5.5t-11.1-2.73q-2.61-2.81-2.53-4.57c.06-1.18,0-2.82-.05-4.9a21.54,21.54,0,0,1,1.33-7.48q2.6-7.8,8.8-2.95"/><path class="cls-16" d="M204.34,166.3a25.22,25.22,0,0,1-.35,2.55,21.42,21.42,0,0,0-.4,2.5c0,2.1.45,3.62,1.35,4.55q2.44,2.59,10.2,3l.15.5c-.07.2-.4.37-1,.5a8.66,8.66,0,0,1-1.6.15q-7.4,0-9.45-3.65c-.5-.87-.75-2.58-.75-5.15a38.74,38.74,0,0,1,.85-6.45h.6a3.12,3.12,0,0,1,.4,1.5m-3.65,9.1a14.33,14.33,0,0,1,.7,2,9.59,9.59,0,0,0,1.1,2.65c0,.17-.22.32-.55.45a5.91,5.91,0,0,1-1.8-1.65,4.63,4.63,0,0,1-.15-1.55,5.74,5.74,0,0,1,.25-1.9Z"/><path class="cls-17" d="M205.49,161.85a2,2,0,0,1,.65-1.15,2.91,2.91,0,0,1,1.1-.9l.25.55a12.65,12.65,0,0,0-.5,1.2,2,2,0,0,1-1.05,1.15q-.25,0-.3-.15c-.1-.07-.15-.3-.15-.7m-1.15.85-.4.1a6,6,0,0,1-.35-2.3,2.53,2.53,0,0,1,.75-2.15,4.37,4.37,0,0,1,.35,2.05,6,6,0,0,1-.35,2.3m-6.6,8.9a2.46,2.46,0,0,1,2.15.35,4.55,4.55,0,0,1-1.9,1,2,2,0,0,1-1.3-.35,1.66,1.66,0,0,1,1.05-1m-1.2-2.8a8,8,0,0,1,3.35.3q-.25.6-1.2.6a4.87,4.87,0,0,1-2.15-.35Zm15.4,4.3a1.63,1.63,0,0,1,.1.75,2.93,2.93,0,0,1-.6,1,3.06,3.06,0,0,1-1.05,1c-.17.2-.25,0-.25-.6a2.94,2.94,0,0,1,.45-1.4,1.78,1.78,0,0,1,1-1Zm-2.25-.75a7.31,7.31,0,0,1-1.2,2.35c-.07.27-.1.12-.1-.45a2.14,2.14,0,0,1,.35-.95,2.59,2.59,0,0,1,.95-1m-1-3.9a3.65,3.65,0,0,1,1.45-.65c-.3,1-.85,1.6-1.65,1.7l-.9-.25a7.91,7.91,0,0,1,1.1-.8M210,184.6h.35a7.51,7.51,0,0,1,0,2.45h-.25Zm-9.7,1.9a5.35,5.35,0,0,1,.7-2.2c.57-1.07,1.15-1.67,1.75-1.8a10.14,10.14,0,0,1-1.9,4c-.27.1-.45.1-.55,0m2.55-.4c.17-1.57.65-2.45,1.45-2.65a1.91,1.91,0,0,1-.4,1.65c-.4.67-.75,1-1.05,1"/><path class="cls-15" d="M240.24,164.5q0,1.75-2.35,19.25-2.44,18.45-2.7,22.25v13.6l-.4,1.1v17.4H209.44v0q0-6.6,1.6-26.45,1.35-16.5,2-22.1V170.15q-.64-8.66,3.3-13.4a11.82,11.82,0,0,1,8.82-4.37,3.79,3.79,0,0,1,1.48-.63,9.6,9.6,0,0,1,5.55.9q8.06,3.45,8.05,11.85"/><path class="cls-16" d="M232.24,161.65a9.09,9.09,0,0,0-3.4-5.5q2.25-.35,3.85,2.5a9.17,9.17,0,0,1,1.25,4.35c0,.57-.12,1.83-.35,3.8l-.35.2q-.6-3.45-1-5.35m-3,47q.11,5.15-.2,15.65l.65,12.9c0,.2-.12.33-.35.4a20.62,20.62,0,0,1-1.45-6.65q-.1-1.65-.1-6.7,0-5.9.1-7.35a75.86,75.86,0,0,1,1.35-8.25m-9.1-30.35a134.59,134.59,0,0,0,.05,14.25q.19,4.8.5,9.15,0,18.8-1.15,28.05l-.35.1q-.41-4.8-.65-14-.19-6.9-.2-9.05-.4-17.7.2-26.7a119.71,119.71,0,0,1,.2-13.8q.79-8,6.2-11.35l.4.3a18.57,18.57,0,0,0-4.85,11.2q-.4,3.9-.35,11.9m3.35,24.75q0-8,.55-17.8.75-13,1.9-14.05-.35,6.3-.85,19.25t-.85,19.35l-.35.1q-.41-5.85-.4-6.85"/><path class="cls-17" d="M227.44,153.7a1.3,1.3,0,0,1-.25.35,3.46,3.46,0,0,1-1.1-2.5q0-1.16.75-1.35a7,7,0,0,1,.7,2.7,2,2,0,0,1-.1.8m7.9,0a7.9,7.9,0,0,0-.9.9,3.44,3.44,0,0,1-1.2.85q-.6.41-.6-.45t1.65-2.1l.8.2Zm4.6,4.15a2.88,2.88,0,0,1-1.6.3,2.67,2.67,0,0,1,2.45-1,1.85,1.85,0,0,1-.85.65m1.95,8.2a4.69,4.69,0,0,1-2.15-.35v-.55a15,15,0,0,1,2.6.2l.1.25c.2.3,0,.45-.55.45m-8.3,4.1c-.4.37-.6.25-.6-.35a.93.93,0,0,1,.6-.85q.65-.34.75.15a1.2,1.2,0,0,1-.25.8Zm-6-.7c-.07.2-.1,0-.1-.6,0-.37.07-.55.2-.55a3.19,3.19,0,0,1,.6.1,1.05,1.05,0,0,1,.35.75,1,1,0,0,1-.6.45Zm12.35,7c-.13.07-.35,0-.65-.15s-.5-.32-.5-.45a1.58,1.58,0,0,1,1.15.6m-10.45,21.9c-.07,0-.1-.22-.1-.55,0-.93.7-1.17,2.1-.7l.3.35a5,5,0,0,1-2.1,1.05Zm-1.9,18.7-.2.45c.17.17,0,.25-.6.25a1.62,1.62,0,0,1-.8-.15,3.63,3.63,0,0,0-.3-.35A9.37,9.37,0,0,1,227,215.7a1.33,1.33,0,0,1,.65,1.35m8.75,4.9a2.08,2.08,0,0,1-1.55.55,8.81,8.81,0,0,1-1.4-.2l-.15-.45.05-.6a5.61,5.61,0,0,1,2.85.1Zm-1.4-3.8c-.43.3-.65.17-.65-.4s.65-.83,1.95-.6l.15.3a3.54,3.54,0,0,1-1.45.7m-11.45-65.7v-1.9h.3a12.8,12.8,0,0,0,.45,2.45c-.07.2-.32,0-.75-.55m-9.9,9.5a6,6,0,0,1-.8-1.6,2.92,2.92,0,0,1,2.1,1,3.07,3.07,0,0,1,.9,1.25.79.79,0,0,1-.1.45c-.1.17-.33.25-.7.25s-.87-.43-1.4-1.3m2.65,16.75c-.1.13-.33.2-.7.2a1.12,1.12,0,0,1-.75-.4l-.65-.65a2,2,0,0,1,1.9-.45,3.46,3.46,0,0,0,.35.85,1.07,1.07,0,0,1-.15.45m-1.9,20a2.24,2.24,0,0,1-.9.4,4.66,4.66,0,0,1-1.4.25l-1.5-.1-.1,0c-.07,0-.1-.18-.1-.55a1.73,1.73,0,0,1,.05-.6h.05l1.8-.05a3.18,3.18,0,0,1,2.1.7m-.9,10.15a4.78,4.78,0,0,1-2.3,1l-.7-.1a.62.62,0,0,1-.25-.1c-.07,0-.1-.23-.1-.6s.48-.78,1.45-.85a4.69,4.69,0,0,1,1.7.15Zm-3.65,5.35c0-.47.3-.75.9-.85a3.47,3.47,0,0,1,1.95.3.5.5,0,0,1-.15.55,4.31,4.31,0,0,1-2.5.45c-.13.27-.2.12-.2-.45m8.45,7.9a1.28,1.28,0,0,1-.5,0c-.1,0-.15-.18-.15-.55a1.07,1.07,0,0,1,.85-1.2,1.65,1.65,0,0,1,1.7.65c-.3.4-.48.63-.55.7a1.78,1.78,0,0,1-1.35.4m6.25,2a1.08,1.08,0,0,1-.25-.8,1.3,1.3,0,0,1,1.1.45,1.35,1.35,0,0,1-.85.35m-12.15,9.1c-.1-.07-.15-.3-.15-.7a1.07,1.07,0,0,1,.55-.95,2.35,2.35,0,0,1,2-.1l.3.55a6.2,6.2,0,0,1-2.2,1.35.82.82,0,0,1-.45-.15"/></g></g></svg>