<svg xmlns="http://www.w3.org/2000/svg" xmlns:xlink="http://www.w3.org/1999/xlink" viewBox="0 0 300 300"><defs><style>.cls-1{fill:none;clip-rule:evenodd;}.cls-2{isolation:isolate;}.cls-3{opacity:0.75;}.cls-4{fill:#e58c33;}.cls-10,.cls-11,.cls-13,.cls-15,.cls-16,.cls-17,.cls-18,.cls-19,.cls-21,.cls-4,.cls-7,.cls-8{fill-rule:evenodd;}.cls-5{clip-path:url(#clip-path);}.cls-6{opacity:0.25;}.cls-10,.cls-11,.cls-12,.cls-6{mix-blend-mode:multiply;}.cls-7{fill:#999;}.cls-8{fill:#f4c647;}.cls-9{clip-path:url(#clip-path-2);}.cls-10,.cls-13{fill:#f8b334;}.cls-10,.cls-11,.cls-12{opacity:0.5;}.cls-11,.cls-21{fill:#f90;}.cls-14{clip-path:url(#clip-path-3);}.cls-15{fill:#eed37c;}.cls-16{fill:#dbc066;}.cls-17{fill:#c9c4bd;}.cls-18{fill:#9b8d7c;}.cls-19{fill:#fc7d35;}.cls-20{clip-path:url(#clip-path-4);}</style><clipPath id="clip-path"><path class="cls-1" d="M293.92,272.15c0-7.76-4.51-12.5-10.51-12.5h-32c-4.68,0-5.5-1.58-5.5-3.5s.82-3.5,5.5-3.5h3.83a8.53,8.53,0,0,0,8.5-8.5v-1.5a8.52,8.52,0,0,0-8.5-8.5H14.59a8.53,8.53,0,0,0-8.51,8.5v1.5a8.53,8.53,0,0,0,8.51,8.5H44.75c4.68,0,5.5,1.57,5.5,3.5s-.82,3.5-5.5,3.5h-5.5c-6.83,0-11.51,5-11.51,12.5s4.28,12.5,11.51,12.5H283.41C289.75,284.65,293.92,279.91,293.92,272.15Z"/></clipPath><clipPath id="clip-path-2"><path class="cls-1" d="M270.15,215.55h-2.7l-.35,21.15-4.6.2H202.38q-.37-5-.47-5.65-1.22-8.1-5.56-8.1-6.69,0-9.75,9c-.07.21-.42,1.8-1,4.75H20.48l-.13-10.25q-.24-4.85-.52-13.2c0-.43,0-1,0-1.78l2.45-.22-1.34-22H271.73Q271.4,194.65,270.15,215.55Z"/></clipPath><clipPath id="clip-path-3"><path class="cls-1" d="M196.75,223.17a9.75,9.75,0,0,1,3.55.38q2.69.58,4.3,4.5a25.65,25.65,0,0,1,1.86,8.85h-4.08q-.37-5-.47-5.65C201.14,226.1,199.43,223.41,196.75,223.17Z"/></clipPath><clipPath id="clip-path-4"><path class="cls-1" d="M279.73,193.6,242.2,194q-97.24,1-184.29,1.57-26.86.17-48.56.05.51-3.06,1.15-7c.44-2.6.66-4.18.68-4.75a22.45,22.45,0,0,0-.18-2.79,8.86,8.86,0,0,0-.27-1.91q28.3.12,62.48.43T126,180.8q18.56.85,37.52.6t60.57-2.52l7.83-.43a4.38,4.38,0,0,0,.57,1.7,3.2,3.2,0,0,0,3,1.55,5.31,5.31,0,0,0,3.7-2,6.42,6.42,0,0,0,1.2-1.73q28.1-1.54,38.5-2.22Z"/></clipPath></defs><title>Plan de travail 1</title><g class="cls-2"><g id="decor"><g class="cls-3"><g class="cls-3"><path class="cls-4" d="M293.92,272.15c0-7.76-4.51-12.5-10.51-12.5h-32c-4.68,0-5.5-1.58-5.5-3.5s.82-3.5,5.5-3.5h3.83a8.53,8.53,0,0,0,8.5-8.5v-1.5a8.52,8.52,0,0,0-8.5-8.5H14.59a8.53,8.53,0,0,0-8.51,8.5v1.5a8.53,8.53,0,0,0,8.51,8.5H44.75c4.68,0,5.5,1.57,5.5,3.5s-.82,3.5-5.5,3.5h-5.5c-6.83,0-11.51,5-11.51,12.5s4.28,12.5,11.51,12.5H283.41C289.75,284.65,293.92,279.91,293.92,272.15Z"/><path class="cls-4" d="M275.5,298.4a8.89,8.89,0,0,1-5.7,1.6q-5.06,0-6.85-2.4a4.1,4.1,0,0,1-.85-2.6,4.86,4.86,0,0,1,2.35-4.6,7.91,7.91,0,0,1,5.2-.65,11.87,11.87,0,0,1,5.15,2.05c1.57,1.1,2.35,2.28,2.35,3.55A3.81,3.81,0,0,1,275.5,298.4ZM22.4,279.1a5.53,5.53,0,0,1-4.15,1.65c-2.57,0-4.23-.72-5-2.15-.27-1.47-.4-2.23-.4-2.3a5.39,5.39,0,0,1,1.7-4.1,5.54,5.54,0,0,1,3.7-1.6,4.62,4.62,0,0,1,3.7,1.3,6,6,0,0,1,1.7,4.55A4,4,0,0,1,22.4,279.1Z"/></g><g class="cls-3"><g class="cls-5"><g class="cls-6"><path class="cls-7" d="M262.45,266.7a81.15,81.15,0,0,1,11.85,13.9q1.45,2.14,9,14.3c0,.13-.1.25-.3.35q-2.5-3.19-9.7-14a133,133,0,0,0-10.85-14.35ZM267,254.15q-4.39.19-23.9.7,2.9,4.8,6.75,11.35,9.5,14.35,21.55,36.9l-.15.15q-4.85-6.6-11.65-17.7-7.5-12.56-11.15-18.4-8.8-14.14-11.1-18.2-1.8-3.19-7-11.1-4.35-6.56-4.35-7c0-.3,0-.47.1-.5l0,0a104.22,104.22,0,0,1,12.4,16.9c1.1,1.77,2.42,3.93,3.95,6.5q7-.45,18-1.05l5.5.1q-15-18.45-26.8-30.85c11.43,9.73,21.44,21.79,36.08,40.09,12.73,16,23.39,29.66,28.17,37.51l0,.25q-5.1-6-30.5-38.35Q269.85,257.66,267,254.15Zm-275.15.55q10.1-6.3,21.85-12.6a197,197,0,0,1,21.85-10.5Q33,233,13.8,243.75A238.54,238.54,0,0,1-8,254.9Zm21.3,13.35-.15-.3q11.85-9.45,29.65-21.3,16.24-10.8,23.6-14.55Q49,244.1,40.15,250.15,25,260.65,13.15,268.05Zm62.7-10.95,4.7,0c.3-.71,1.61-2.11,4-4.18a43.75,43.75,0,0,1,4.3-3.55q-2.7,2.88-7.2,7.73l10.93.12q3.18-4,7.82-9.95a210.5,210.5,0,0,1,14.05-16.6l.15,0c.1,0,.15.2.15.5q0,.85-10.75,14.45-10.24,12.9-16.2,19.8-25.45,29.66-29.9,33.4,4-6.75,13.25-17.05l15.6-17.3q1.47-1.72,4.75-5.85l-14.85,0q-5.7-.54-12.35-1l-1.15,1.22q-15,15.9-28.6,28.1,34.8-37.24,54.4-56.55-14.1,16-23.8,26.32Q70.37,256.86,75.85,257.1Zm59.85,1.7-7.6.05c-1.67-.23-3.08-.42-4.25-.55q-1.5,2.2-3.1,4.5-15.15,21.4-22.7,32.25a1.71,1.71,0,0,1-.4-.1c-.1-.07-.13-.27-.1-.6q.2-1.65,17.55-26.6,16.65-24,24.9-33.85-5.81,9.34-15.3,23.15c.9,0,1.88.08,3,.15l8.85-.05q9.45-.5,17.9-.9,5.65-15.6,7.25-20.2a242.39,242.39,0,0,1-8.3,27.3q-3.56,9.86-11.45,30.5c-.2.27-.28.13-.25-.4q0-2.2,8.85-26.5,1.8-5.06,3.35-9.2-5.59.45-15.3.9-4.1,4.39-10.5,11.45,1.09-1.65,3.9-5.1a63.19,63.19,0,0,1,5.15-6.25C136.63,258.78,136.17,258.8,135.7,258.8Zm65.65-30.1a.62.62,0,0,1,.25,0q19.6,45.5,29.85,83.35v.25c0,.07-.2.1-.5.1q-1.35,0-6.5-15.85-6-19.15-8.25-25.75-.7-1.85-4.35-11.55-7.69.65-15.45.95,1.69,4.85.7,12-1.95-6.7-3.4-11.9-4.84.15-9.65.15H184c0,2.13.07,4.38.1,6.75q.4,27-.05,32.85s-.12,1-.35,2.8-.37,3.05-.4,3.95H183q-.45-12.6-.6-41.35-.19-26.74,0-29.45a.57.57,0,0,1,.35-.55.62.62,0,0,1,.25-.05q.56,3.85,1,23.7l22.1-1.3c1.83-.1,3.57-.18,5.2-.25L207,246.2q-6-15.94-5.95-16.95A.57.57,0,0,1,201.35,228.7Z"/></g></g></g><path class="cls-8" d="M270.15,215.55h-2.7l-.35,21.15-4.6.2H202.38q-.37-5-.47-5.65-1.22-8.1-5.56-8.1-6.69,0-9.75,9c-.07.21-.42,1.8-1,4.75H20.48l-.13-10.25q-.24-4.85-.52-13.2c0-.43,0-1,0-1.78l2.45-.22-1.34-22H271.73Q271.4,194.65,270.15,215.55Z"/><g class="cls-9"><path class="cls-10" d="M279.07,214h1.3q-2.25,1.5-12.85,2.4H253.87q-47.3-2.25-60.9-3.1l-26.55-2.1q1.71,0,3.6,0,3.25,0,13.2.1l9.3.05q8.25.45,30.65,1.6,20.91,1.09,34,1.65h12.2Q272.47,214.43,279.07,214Zm-229.9-1.55q-11.19-.5-14.05-.5-20.55.4-22.6.25a15.23,15.23,0,0,1-3.95-.7,4.18,4.18,0,0,0,1.38-.82q10.56-.09,37.37-.73,22.07.93,45.85,1.5v-.3q1.2-18.9,3.45-26.65a17.78,17.78,0,0,1,.43,2.53q-.67,5.2-2.43,24.45l7,.17c3.66.08,6.8.13,9.4.15A131.49,131.49,0,0,1,94.57,213q-16.39,0-23.9,0Q60.83,212.93,49.17,212.43ZM230,218.18h.3q.6,4.95,1.6,17.15c.64,7.54.95,11.73.95,12.6a2.66,2.66,0,0,1-.3,1.3l-.55.15q-.69-2-1.6-12.4-.84-10-.85-14.6A24.5,24.5,0,0,1,230,218.18Z"/><path class="cls-11" d="M283.09,188.48,1.42,190.82l2,8s95.67-1.34,112.67-1.34,167.16-1.83,167.16-1.83Z"/><g class="cls-12"><path class="cls-13" d="M31.55,244.15a1.6,1.6,0,0,1-.5-.05.3.3,0,0,0-.25-.1q12.36-7,21.7-9.35,10.36-2.55,32.75-3.7-7.74,1.55-18.7,3.1a85.82,85.82,0,0,0-11.14,2q-4,1.3-14.66,5Q31.81,244.16,31.55,244.15Z"/></g></g><g class="cls-12"><path class="cls-13" d="M196.75,223.17a9.75,9.75,0,0,1,3.55.38q2.69.58,4.3,4.5a25.65,25.65,0,0,1,1.86,8.85h-4.08q-.37-5-.47-5.65C201.14,226.1,199.43,223.41,196.75,223.17Z"/></g><g class="cls-14"><path class="cls-11" d="M196.75,223.17l4.71,5.7S205.89,222.52,196.75,223.17Z"/></g><path class="cls-15" d="M253.4,165.65l-.85.75c-.54.48-1.08,1-1.62,1.48l-1.9-4.06q-16.62-35.49-35.45-73.45-13.67-27.51-25.85-49.95c.3-.47.59-1,.87-1.42.76-1.24,1.47-2.44,2.13-3.58Q195.05,43.3,200.1,53,231.14,112.55,253.4,165.65ZM187.66,30.05c-.64.7-1.27,1.43-1.91,2.2l-1.54,1.85c-.17-.3-.32-.58-.46-.85a1.46,1.46,0,0,1,.16-.3q1-1.61,2.84-4.5C187,29,187.32,29.48,187.66,30.05Zm2.39,4.25q-1.4,2.4-3,5.05c-.23-.43-.46-.85-.69-1.25.23-.53.46-1.05.69-1.55q.56-1.15,1.86-4.15C189.32,33,189.69,33.63,190.05,34.3Zm-5.3.75c.71-.87,1.39-1.73,2.05-2.6-1,2.13-1.48,3.32-1.55,3.55A9.81,9.81,0,0,1,184.75,35.05Z"/><path class="cls-16" d="M194.55,42.35a8,8,0,0,1-.59,2.9A5.73,5.73,0,0,1,192,48a.24.24,0,0,1-.21-.25,10.08,10.08,0,0,0,1.25-2,9.58,9.58,0,0,0,1-5.4h.14A3,3,0,0,1,194.55,42.35Zm3.66,6.5a1.68,1.68,0,0,1,.29.95,7.62,7.62,0,0,1-1.15,3c-.86,1.6-1.6,2.23-2.19,1.9a10.71,10.71,0,0,0,2.89-5.75Zm2.95,6.25c.33.13.5.65.5,1.55q-.85,4.5-2.31,4.5a.49.49,0,0,1-.35-.1,8.36,8.36,0,0,0,2.1-5.85Zm-12-13.35-.25-.1s-.06,0-.06-.2a15.63,15.63,0,0,0,1.25-3.2,16,16,0,0,0,.25-3.3c.57,0,.84.7.81,2a8.4,8.4,0,0,1-.56,2.6C190.17,40.78,189.69,41.52,189.16,41.75ZM206,62.65q-1.91,4.6-3.91,4.6l-.45,0a11.05,11.05,0,0,0,1.31-1.1,9.66,9.66,0,0,0,1.3-1.35,9.37,9.37,0,0,1,1.59-2.3C205.91,62.52,206,62.58,206,62.65ZM210.3,72q-1.59,4.65-3.25,4.65l-.3-.05c1-1.37,1.67-2.28,2-2.75A8.53,8.53,0,0,0,210,71.4.64.64,0,0,1,210.3,72Zm3.41,7.5c-.71,2.9-1.52,4.35-2.46,4.35a1.26,1.26,0,0,1-.59-.15,7.69,7.69,0,0,0,1.8-2.8c.36-1.23.64-2.1.84-2.6C213.57,78.47,213.71,78.87,213.71,79.5Zm3.89,7.3a7,7,0,0,1-1.14,2.25,11.45,11.45,0,0,1-1.5,2c-.17-.07-.25-.17-.25-.3q1.8-2.85,2.64-4.3A.44.44,0,0,1,217.6,86.8Zm2.56,5.45c.33.13.5.68.5,1.65a9,9,0,0,1-.66,2.95c-.53,1.43-1.15,2.25-1.84,2.45l-.31-.1,0,0a9.23,9.23,0,0,0,2.25-6.65A.94.94,0,0,1,220.16,92.25Zm3.75,7.8a2.28,2.28,0,0,1,.19.7,3.47,3.47,0,0,1-.75,1.7c-.53.8-1,1.18-1.55,1.15q-.09.11-.09-.15c0-.1.21-.38.64-.85s.79-.85.86-.95C223.37,101.32,223.6,100.78,223.91,100.05ZM227,107.3q-1,4.4-2.7,4.4a2,2,0,0,0-.7-.15,6.34,6.34,0,0,0,3-6.1h.31Zm3.35,6.75a5.2,5.2,0,0,1-2.7,5c-.06.1-.1.07-.1-.1a3,3,0,0,1,.7-1,9,9,0,0,0,1.3-2,4.24,4.24,0,0,0,.35-1.4v-1.45a.3.3,0,0,1,.15-.25A1.64,1.64,0,0,1,230.35,114.05Zm.8,9.5a12.75,12.75,0,0,1,.9-1.55,10.92,10.92,0,0,0,1.25-2.75h.3c.17,1.57-.58,3.08-2.25,4.55A.24.24,0,0,1,231.15,123.55Zm4.15,2.6a1.2,1.2,0,0,0,.15.3q-.54,4-2.4,4l-.15-.05a6.28,6.28,0,0,0,1.45-2.3A6.86,6.86,0,0,1,235.3,126.15Zm7.95,15.75c-.76,2.1-1.5,3.15-2.2,3.15l-.25-.05a6.78,6.78,0,0,0,2.15-4h.15A2.83,2.83,0,0,1,243.25,141.9Zm-5.15-12.25a1.67,1.67,0,0,1,.15.75,3.87,3.87,0,0,1-2.25,3.7,22.23,22.23,0,0,0,1.4-2.2,3.77,3.77,0,0,0,.5-2.25Zm2.35,6.2a.23.23,0,0,1,.2.25c0,2.47-.91,4.13-2.75,5a7.1,7.1,0,0,0,1.6-2.7C239.9,137.2,240.22,136.35,240.45,135.85Zm6.45,14.4a9.38,9.38,0,0,1,.25,2q-.6,3.3-1.8,3.3l-.2-.05a9,9,0,0,0,1.6-5.25Zm-2.1-4.5a5.07,5.07,0,0,1,.2.8,5.63,5.63,0,0,1,.1.8,6,6,0,0,1-.65,2.3c-.53,1.17-1.06,1.7-1.6,1.6q2.21-3.15,1.8-5.5Zm3.8,9.85a2,2,0,0,1,.5-1.15l.2,1a8.34,8.34,0,0,1-.65,2.7c-.5,1.37-1,2.08-1.6,2.15a.24.24,0,0,1-.2-.25,3.82,3.82,0,0,1,.6-1,6.62,6.62,0,0,0,.9-1.9C248.49,156.45,248.57,155.93,248.6,155.6Zm2.4,3.15a3.52,3.52,0,0,1,.15.85q-.24,5-1.7,5a.34.34,0,0,1-.3-.15,6.59,6.59,0,0,0,1.25-3.3c.07-1.5.14-2.6.2-3.3h.1S250.8,158.18,251,158.75Z"/><path class="cls-17" d="M253.65,170q.22,6.6.38,9.88-4.75.09-7,.32a68.21,68.21,0,0,1,2.35-17.32q10.25,0,9.5,3.7a2.24,2.24,0,0,1-.65,2.15C257.41,169.57,255.88,170,253.65,170Z"/><path class="cls-18" d="M258.25,168.7c-.84.87-2.37,1.29-4.6,1.27,0,.45,0,.89,0,1.31q-2.1-.6-2.1-2.28v-.1a21.45,21.45,0,0,0,3.15.2,11.77,11.77,0,0,0,3.58-.47ZM254,179.85q-4.75.09-7,.32c0-1.65.12-3.26.23-4.82a15.12,15.12,0,0,1,6.6.57Q254,178.28,254,179.85Z"/><path class="cls-19" d="M279.73,193.6,242.2,194q-97.24,1-184.29,1.57-26.86.17-48.56.05.51-3.06,1.15-7c.44-2.6.66-4.18.68-4.75a22.45,22.45,0,0,0-.18-2.79,8.86,8.86,0,0,0-.27-1.91q28.3.12,62.48.43T126,180.8q18.56.85,37.52.6t60.57-2.52l7.83-.43a4.38,4.38,0,0,0,.57,1.7,3.2,3.2,0,0,0,3,1.55,5.31,5.31,0,0,0,3.7-2,6.42,6.42,0,0,0,1.2-1.73q28.1-1.54,38.5-2.22Z"/><g class="cls-20"><g class="cls-12"><path class="cls-21" d="M287.15,185.25a36.93,36.93,0,0,1,8.45-.55q-3.37,1.43-13.25,3.1t-35.15,2.37v0q4.58-.68,12.95-1.55,5.76-.6,13.35-1.35Q275.75,187,287.15,185.25ZM76,176.6a20.18,20.18,0,0,0-5.86,3.15q-3.3,2.4-11.8,4.15a115.52,115.52,0,0,1-20,2.07v0l10.91-2.1q10.5-2.1,12.34-2.75,2-.65,7.8-3.15Q74.51,176,76,176.6ZM6.85,192.65a3.36,3.36,0,0,1-1.39-.3l-.16-.25q12.9-1.32,19-2a41,41,0,0,1-5.8,1.58,48.91,48.91,0,0,1-9.84,1.15A14.91,14.91,0,0,1,6.85,192.65Zm220.8-8c0-.1-.21-.2-.65-.3a22,22,0,0,0,10.65-4.1,31.45,31.45,0,0,0,4.65-4.45q-.24,2.85-3.65,5.75a13,13,0,0,1-8.6,3.25Z"/></g></g><path class="cls-11" d="M255.23,177a9.76,9.76,0,0,1-.1,5.31c-.85,3-3,16-2.7,21.22l-2.28,2.37a57.52,57.52,0,0,1-.61-10.52C249.83,188.71,254.75,177.72,255.23,177Zm-2.8,27.57-1.8,1.8v1Zm-1.33,3.7,1.8-.48.1-1.89Z"/><path class="cls-15" d="M254.88,171.2c.12.72-.66,1-2.33.9a8.18,8.18,0,0,1-4.6-1.9c-1.4-1.13-2-2.06-1.87-2.78a2.08,2.08,0,0,1,1.07-1.52c.57-.28,1-.27,1.28,0s.82.92,1.6,1.86a5.63,5.63,0,0,0,2.92,1.87C254.12,170,254.76,170.48,254.88,171.2Z"/><path class="cls-16" d="M253.25,171.25a3.51,3.51,0,0,1-2.4,1.05,1.63,1.63,0,0,1-.6-.2,6.81,6.81,0,0,1,2.5-1.1c.37-.27.92-.68,1.65-1.25A3.81,3.81,0,0,1,253.25,171.25Zm-3.65-3.95-.75-.1a4.84,4.84,0,0,0-1.5.5q-1.29.6-1.35.6a3.16,3.16,0,0,1,1.75-1.4c1-.47,1.65-.35,1.85.35Zm1.75.95v.15c0,.23-.31.65-.95,1.25a3,3,0,0,1-1.9.95,1.24,1.24,0,0,1-.9-.4,3.27,3.27,0,0,0,2.4-.75,11.43,11.43,0,0,0,1.3-1.15Z"/><path class="cls-15" d="M255.15,172.3c.44.57-.06,1.2-1.5,1.9a7.35,7.35,0,0,1-4.7.65c-1.7-.27-2.65-.73-2.85-1.4a2,2,0,0,1,.15-1.9q.51-.75,1.05-.6c.34.1,1.07.37,2.2.8a5.31,5.31,0,0,0,3.3.15C253.94,171.6,254.72,171.73,255.15,172.3Z"/><path class="cls-16" d="M254.25,171.75c0,.37-.41,1-1.25,1.95s-1.63,1.42-2.2,1.25l-.05-.1a5.92,5.92,0,0,0,2.2-1.8c.3-.4.69-1,1.15-1.65A.49.49,0,0,1,254.25,171.75Zm-5.35-.3a4.33,4.33,0,0,1-1.1.8,5.57,5.57,0,0,1-1.85.65h-.65a5.19,5.19,0,0,1,1.7-1,9.52,9.52,0,0,1,1.8-.65Zm2.75.45c0,.33-.5.87-1.5,1.6a6.82,6.82,0,0,1-2.3,1.2l-.25-.1,4-2.8.05-.05Z"/><path class="cls-15" d="M253.78,174.6a.69.69,0,0,0,0-.13l.13.1a5.83,5.83,0,0,1,1.35,1.81,3.91,3.91,0,0,1,0,2.4c-.23,1-.8,2.95-1.7,5.79a32.49,32.49,0,0,0-1.4,9.31q-.07,5,0,6.9c.06,1.24-.08,1.71-.42,1.39a2,2,0,0,1-.33-.35.25.25,0,0,1-.12.13c.09.49.2,1,.32,1.6-.13.13-.23.2-.3.2-.37,0-.63-.51-.8-1.53a3.19,3.19,0,0,1-.45,0h0c.18.61.28.93.3.95a.5.5,0,0,0,0,.15.32.32,0,0,1-.25.1c-.28,0-.55-.45-.8-1.35,0,0-.13.19-.27.57s-.37.57-.7.55c0-.42-.13-1.64-.28-3.67V196.2a44.58,44.58,0,0,1,.2-4.8,47.83,47.83,0,0,1,1-5.05,31.44,31.44,0,0,1,3-7.35C253.44,176.71,254,175.24,253.78,174.6Z"/><path class="cls-16" d="M252.7,178.85c-.43,0-.68-.07-.75-.2a4.35,4.35,0,0,0,2.6-1,4.89,4.89,0,0,0,.95-1.05A2.56,2.56,0,0,1,252.7,178.85Zm-.35,21.2c0,.23-.31.65-.95,1.25a4.08,4.08,0,0,1-2,1.1l0-.05a13.64,13.64,0,0,0,2.9-2.45Zm.1-14.5a5.06,5.06,0,0,1-2.75,1.3l-.7-.15a8,8,0,0,0,3.05-1.45c1.34-1,2-1.52,2.15-1.55A5,5,0,0,1,252.45,185.55Zm1.8-4.5A4.47,4.47,0,0,1,251,182.5a1.27,1.27,0,0,1-.7-.2c-.2-.2-.33-.3-.4-.3a5,5,0,0,0,3.75-1.1,22.57,22.57,0,0,0,1.65-1.75l0-.05s.05.05.05.15C255.4,179.68,255,180.28,254.25,181.05Zm-6.15,10.1L248,191l5-2.75q-2.49,3-4.5,2.95Zm.1,8.65a10.66,10.66,0,0,0,2.5-2.05c.77-.8,1.35-1.2,1.75-1.2A10.22,10.22,0,0,1,251,198.3,6.41,6.41,0,0,1,248.2,199.8Zm.1-4.4a20.63,20.63,0,0,0,4-2.7,5.26,5.26,0,0,1-3.8,2.75Z"/></g></g></g></svg>