<svg xmlns="http://www.w3.org/2000/svg" xmlns:xlink="http://www.w3.org/1999/xlink" viewBox="0 0 300 300"><defs><style>.cls-1{fill:none;}.cls-2{isolation:isolate;}.cls-3{opacity:0.75;}.cls-4{clip-path:url(#clip-path);}.cls-5{fill:#7395ad;}.cls-11,.cls-12,.cls-15,.cls-16,.cls-17,.cls-5,.cls-6,.cls-7,.cls-8,.cls-9{fill-rule:evenodd;}.cls-6{fill:#4c758e;}.cls-7{fill:#eaedef;}.cls-8{fill:#cad6dd;}.cls-9{fill:#f96f2b;}.cls-10{clip-path:url(#clip-path-2);}.cls-11{fill:#fff;}.cls-12{fill:#dd581d;}.cls-13{opacity:0.5;mix-blend-mode:multiply;}.cls-14{clip-path:url(#clip-path-3);}.cls-15{fill:#bec7e4;}.cls-16{fill:#f4ec5b;}.cls-17{fill:#f4bf5b;}</style><clipPath id="clip-path"><rect class="cls-1" x="2.55" y="171.8" width="291.36" height="128.2"/></clipPath><clipPath id="clip-path-2"><rect class="cls-1" x="27.79" y="234.15" width="266.09" height="50.5"/></clipPath><clipPath id="clip-path-3"><rect class="cls-1" x="215.4" y="257.25" width="21.2" height="3.7"/></clipPath></defs><title>Plan de travail 6</title><g class="cls-2"><g id="decor"><g class="cls-3"><g class="cls-4"><path class="cls-5" d="M4.71,182q25.64,1.13,53.25,3,49.56,3.39,228.49-2.92a34.81,34.81,0,0,1,1.8,10.12q0,5.6-8.6,10.6a69,69,0,0,1-10.8,4.85,21.1,21.1,0,0,0-9.25,6.65,17.5,17.5,0,0,0-3.7,10.95,34.7,34.7,0,0,0,1.2,7.75c.47,1.94,1,3.91,1.73,5.9H20.18a30,30,0,0,0,3.73-7.05,28.75,28.75,0,0,0,2-10,13.85,13.85,0,0,0-3.65-10q-2.25-2.35-8-5.15-6-2.85-8-4.85a11.91,11.91,0,0,1-3.65-9.1q0-2.1,2.15-10.75"/><path class="cls-6" d="M287.52,195.39a7.63,7.63,0,0,0,.49-1.33c-1.92,0-3.59.11-5,.19l-1.87,0q-1.39-6.74-2.7-11.92H278q.9,6,1.9,11.93l-13,.2c-.4-4.24-.89-8.13-1.44-11.7l-.75,0s0,0,0,0q0,2.09.75,11.68l-12.25.17a51.68,51.68,0,0,0-.8-8.7q-1,2.5-.2,7.65v1.08l-13.07.17c.19-5.29.3-9,.35-11.26l-1.26,0c-.16,2.63-.34,6.38-.57,11.26l-16,.25q.81-7.91,1.07-11l-1.21,0q-.57,2.54-1,6c-.17,1.29-.36,3-.58,5l-14.22.2c.36-4.64.63-8.25.8-10.81l-.82,0q-.6,4.63-1.26,10.82l-12.95.17q.66-7.09.76-10.64h-.56c-.36,2.89-.76,6.44-1.22,10.66l-12.85.15q.45-5.13.75-8.73-.88,4-1.6,8.73l-12.88.05c-.06-.77-.15-1.75-.27-2.93h-.3c-.06.89-.12,1.87-.18,2.93l-14.17,0c.06-2.65.1-4.95.1-6.88v-.55a.77.77,0,0,1-.15-.2h-.4q-.24,2.35-.5,7.63l-8.25,0-4.8,0,.2-7.78a1.12,1.12,0,0,0-.1-.6,1.49,1.49,0,0,1-.4-.15,10.24,10.24,0,0,0-1.25,5.05q0,1.28,0,3.48-5.42,0-9.88,0a22.3,22.3,0,0,0-.52-4.35h-.45l-.05.45v3.93c-2.46,0-4.7.06-6.7.12,2,.3,4.19.52,6.7.68v8.5l-9.48.1q.33-7.23.33-11.08c0-1.73-.2-2.77-.6-3.1q-.6.71-1.3,15.7-.36,7.35-.5,13l-1.75.05h-.25c-.07,0-.1.1-.1.4,0,.5,0,.67.15.5l1.92,0q-.12,4.3-.12,7.57c0,.5.06,1.47.2,2.9h.25q.36-2.81.87-10.47l3.18,0,7-.1-.07,5.45q-.7,8.4-.7,11c0,.5,0,.62.1.35l.3-.05a30.53,30.53,0,0,0,.85-6.2,53.25,53.25,0,0,1,.5-6.1v-4.42l1.4,0,8.07.08c-.22,4.91-.32,8.14-.32,9.67q0,.75.6,6.3l.15-.15q.54-9.34.9-15.82l5.4,0q3.75.07,7.5.2-.3,8.67-.3,11.25c0,.5.1,1.58.3,3.25h.3q.36-5,.82-14.47l5.78.22,7.8.08q-.56,9.54-.55,10.32a24.67,24.67,0,0,0,.3,2.85h.25q.54-7.26,1-13.17l7.93.07c1.18,0,2.31,0,3.4,0-.19,1.84-.4,4-.65,6.37-.65,6.08-1,9.77-1.13,11.1h1c.77-5.21,1.49-11,2.16-17.45q4.25.06,7.48.25l4.92.08q-.52,5.34-.52,6.27v.5a.48.48,0,0,0,.15.1h.4q.33-2.16.9-6.85l13.22.2q-.9,10.22-1.44,16.9h1.42c.5-4.88,1-10.49,1.6-16.87l1.7,0c2.83.17,4.58.25,5.25.25H217q-.56,5.64-1.72,15.8c0,.26-.06.54-.08.8H217q.74-7.11,1.72-16.6h.83q7.71.28,16.94.58-.5,12.36-.5,15.62c0,.08,0,.22,0,.4h1.29q.34-6.36.74-16l13.95.42-.22,15.55h.62q.75-11.49.85-15.52l.85,0,1.89,0c0-.31.07-.61.11-.91l-2.82-.19q0-3.06,0-13.65v-.25h.1q6.36.35,7,.35c.37,0,2.18.09,5.39.25.64-.35,1.32-.68,2-1-.23-4.4-.51-8.55-.86-12.42l13.05-.15c.38,2.13.79,4.22,1.19,6.32.42-.27.83-.55,1.22-.83-.37-1.91-.73-3.76-1.08-5.51Zm-165.26,24q-3.14.1-6.15.25c-1.45.09-2.76.15-4,.2.1-1.71.22-3.6.35-5.65q.27-4.71.45-8.5l.7,0,2,.1,6.85.08Zm11-10.7q0,.34-.45,9.75c0,.29,0,.57-.05.85l-8.15.05-1.4,0V213.6q.2-2.59.3-7.4v-.3l9.75.13Zm0-3.57-9.73.12q0-2,0-3.9c0-2.16,0-3.67,0-4.52l.78,0c1.86.09,4.89.19,9.07.3q0,.36,0,.75c-.08,1.77-.13,4.17-.15,7.23m14,6.82q-.16,4.09-.28,7.43l-7.57-.13-5.33.05q.53-10.06.53-12.5l0-.7,12.85.18c-.07,1.76-.15,3.66-.22,5.67m.27-7-12.87.12.22-7.9,4.83.1,8.17,0q-.16,3.3-.35,7.65m29.9-7.55,12.8-.13c-.28,2.55-.58,5.32-.9,8.33l-.82-.08-11.75-.12c.24-2.91.47-5.57.67-8M162,215.3c-.09,1.44-.16,2.78-.23,4l-7.92,0c-1,0-2.89,0-5.7,0,.08-1.8.16-3.7.25-5.73q.15-3.91.27-7.35l13.28.15.55,0c-.16,2.7-.32,5.65-.5,8.87m.6-10.45-2-.1-11.88.15q.12-4.18.2-7.62l14.1.05q-.19,3.3-.42,7.52m12.15,8.3q-.12,1.53-.58,6.18l-3.62,0-7.78,0q.51-7.65.8-12.85,3.41.14,11.78.37-.33,3-.6,6.3m.55-7.8q-7.8-.28-11.63-.45.27-5.21.28-7.57l12.55,0q-.56,3.76-1,8Zm12.62,14.28-6.77-.13-5.6-.15c.15-1.53.3-3.1.45-4.7.23-2.74.46-5.32.67-7.75l12.55.1c-.05.57-.11,1.16-.17,1.75q-.69,6.54-1.13,10.88m14.13.25-13.15-.23q.54-4.6,1.25-11.15c0-.5.11-1,.17-1.5l12.93.1q-.59,5.91-1.2,12.78m1.32-14.08H193.11l-2.68-.15q.49-4.67.85-8.42l11-.23,1.92-.1q-.43,4.13-.9,8.9m14.08,12.35c0,.65-.12,1.41-.2,2.28q-6.6-.27-13.6-.53c.21-2.42.42-5,.65-7.6.15-1.8.29-3.53.42-5.17l13.85.2q-.83,7.28-1.12,10.82m1.27-12.25-4.42-.1h-9.45q.41-5,.72-9l2.13-.13,12.07,0c-.11.92-.21,1.91-.32,3q-.41,3.38-.73,6.25m18.37,3.25q-.28,6.87-.5,12.2-8.4-.47-17.62-.85c.19-1.74.38-3.54.58-5.4.29-2.75.57-5.32.82-7.72l9,.22c.87,0,1.84,0,2.9.1a9.75,9.75,0,0,1,1.9.2l3,0c0,.4,0,.81,0,1.22m.13-2.77q-7.38-.25-16.7-.45.56-5.2,1-9.25l2.4,0q2.74-.15,10.64-.35l3.1-.07c-.13,3-.27,6.37-.42,10.15M252,222.28l-5.28-.38c-2.79-.17-5.67-.32-8.62-.47q.23-5.51.47-12c0-.51,0-1,.05-1.52l3.95,0,9.6.45ZM252.2,207q-5.53-.31-13.5-.57c.16-3.87.28-7.28.38-10.25,2.35-.09,3.93-.16,4.72-.23l8.4-.1Zm3.1.2-2-.12q0-7.92-.05-10.33c0-.31,0-.62,0-.92l12.3-.15c0,.47.08,1,.12,1.47q.54,6.63,1,11.18-7.17-.86-11.38-1.13M69.71,222.3h8.65A8.55,8.55,0,0,1,80,222l3.3-.05V225c.1.4.31,1.6.65,3.6a.76.76,0,0,0,.55-.25,16.22,16.22,0,0,1-.15-3.65V222l4,0c.23,0,1.51-.13,3.85-.3a11.31,11.31,0,0,0,3-.6l0-.2a24.74,24.74,0,0,0-5.25-.3l-1.6.15h-4v-7.2c-.1-1-.19-2.77-.28-5.2,1.32,0,2.62.07,3.93.2a23.3,23.3,0,0,0,6.85-.85,12.24,12.24,0,0,0-2.65-.6,49.72,49.72,0,0,0-5.45-.15H84c-.06-1.65-.12-3.57-.17-5.75,0-1.82-.11-3.52-.2-5.07l9,.32q-3-.49-8-.95l-1-.07a57,57,0,0,0-.75-6.43,2.08,2.08,0,0,0-.45.2,1,1,0,0,0-.15.65c0,1.84,0,3.66,0,5.48q-3.77-.33-5.55-.53l-8.7-.15q-.36-5.34-.64-9l-1.11,0c.08,2.54.19,5.56.35,9.07l-13.18-.25c-.38-3.43-.8-6.64-1.25-9.66l-1.64-.11c.22,2.63.51,5.87.87,9.74l-10.63-.2c-.47-4.07-.87-7.47-1.22-10.22l-1.15-.07q.33,4,.9,10.27l-11-.23c-.48-3.94-.91-7.49-1.29-10.69L25.58,183c.24,3,.53,6.57.88,10.76l-6.9-.13A31.84,31.84,0,0,0,16,193.6l.25-8.5c-.14-1-.25-1.87-.34-2.57l-.46,0c-.2,3.36-.43,6.92-.7,10.7l0,.45h-.22q-4.61.15-5.7.15c2.42.15,4.38.29,5.9.4q-.26,4.2-.25,8.85c0,1.38,0,2.62,0,3.76.42.21.84.41,1.24.62V203L16,194.3l1.83.15,2.7.4,6,.13c.16,2.07.35,4.28.55,6.62.17,2.13.35,4.19.52,6.18q-1.08,0-2.07.12c-3.3.27-5.93.47-7.92.59l.86.51c2.21,0,5.28-.05,9.23-.15q.57,6.78,1.08,12.4H25.88c0,.2,0,.4,0,.6s0,.53,0,.8h3.05q.91,10,1.61,16.25H31c.14-3.46.22-5.42.22-5.85,0-3.18-.1-6.65-.28-10.4L42,222.6q.67,6.61,1.13,10.5l.4-.1a35.11,35.11,0,0,1,0-4.15c.1-1.7.15-2.68.15-2.95,0-.88,0-2-.1-3.3l10.52-.3q1.14,11.17,2,16.6h.36a.84.84,0,0,0,.4-.2v-3.65q-.55-7-1-12.75H68.06q.42,7.68,1,16.6H70.4q-.15-6.26-.69-16.6M29.26,201.45q-.41-3.36-.75-6.42l11,.22q.28,3.25.65,7.1c.15,1.7.3,3.34.45,4.93q-6,.14-10.68.37-.28-3-.62-6.2m1.65,19.8q-.33-5.81-.93-12.47,4.65-.14,10.68-.35.69,7.29,1.25,12.82Zm10.45-22.7c-.13-1.13-.26-2.22-.38-3.27l10.6.22q.35,3.83.78,8.4c.09,1.06.19,2.1.3,3.13l-6.4.12-3.95.08q-.42-4-1-8.68m2.22,22.7q-.31-4.83-1.15-12.85l10.35-.07q.66,7,1.25,12.6Zm11-15.85q-.44-5.18-.93-9.85l13.08.25q.21,4.94.52,11H57.51v.05l-2.83.08c0-.55-.08-1.08-.12-1.58m1.25,15.53q-.6-7.4-1-12.63l12.53-.1q.28,5.82.67,12.68ZM68.13,195.8l14.2.18q.12,5.52.45,10.87h-14q-.37-6.16-.7-11m.78,12.45,1.7.15H80c1-.08,1.91-.13,2.87-.15.12,1.82.26,3.62.43,5.4v7h-2.7l-1.65.2-9.33,0c-.2-3.82-.45-8-.72-12.63"/><path class="cls-7" d="M286.45,182.08Q107.53,188.4,58,185q-27.62-1.87-53.25-3a79.64,79.64,0,0,0,1.92-10.2q24.6,1.89,48.48,3.35,12.44.76,46.55,2.95,129.1-4.15,180.74-6.27c.72,1.48,1.41,3,2.05,4.62.8,2,1.47,3.85,2,5.63"/><path class="cls-8" d="M105.41,187l-1.35,0-3-.1q.46-5,.87-9.47l3.58.17.37,0q-.17,4.09-.42,9.42"/><path class="cls-7" d="M101,186.8l3,.1,1.34,0q-.51,11.06-1.67,30.48-.6,10.27-.62,21.52H95.83c.29-3.11.64-6.67,1-10.7q2.75-26.61,4.13-41.45"/><path class="cls-9" d="M293.92,272.15c0-7.76-4.51-12.5-10.51-12.5h-32c-4.68,0-5.5-1.58-5.5-3.5s.82-3.5,5.5-3.5h3.83a8.53,8.53,0,0,0,8.5-8.5v-1.5a8.52,8.52,0,0,0-8.5-8.5H14.59a8.53,8.53,0,0,0-8.51,8.5v1.5a8.53,8.53,0,0,0,8.51,8.5H44.75c4.68,0,5.5,1.57,5.5,3.5s-.82,3.5-5.5,3.5h-5.5c-6.83,0-11.51,5-11.51,12.5s4.28,12.5,11.51,12.5H283.41c6.34,0,10.51-4.74,10.51-12.5"/><path class="cls-9" d="M275.5,298.4a8.89,8.89,0,0,1-5.7,1.6q-5.06,0-6.85-2.4a4.1,4.1,0,0,1-.85-2.6,4.86,4.86,0,0,1,2.35-4.6,7.91,7.91,0,0,1,5.2-.65,11.87,11.87,0,0,1,5.15,2.05c1.57,1.1,2.35,2.28,2.35,3.55a3.81,3.81,0,0,1-1.65,3M22.4,279.1a5.53,5.53,0,0,1-4.15,1.65c-2.57,0-4.23-.72-5-2.15-.27-1.47-.4-2.23-.4-2.3a5.39,5.39,0,0,1,1.7-4.1,5.54,5.54,0,0,1,3.7-1.6,4.62,4.62,0,0,1,3.7,1.3,6,6,0,0,1,1.7,4.55,4,4,0,0,1-1.25,2.65"/><g class="cls-3"><g class="cls-10"><path class="cls-11" d="M290,262.05H86q7.78-19.5,11-27.9H90.82q-5.25,8.32-14.25,23.65-1.27,2.18-2.5,4.25H58.9q0,.15-12.3.15-9.84.09-15.41.63a12.48,12.48,0,0,0-3.4,8.17l1,.05H68.82c-3,5.17-5.65,9.69-7.91,13.6h16c.73-1.78,1.48-3.64,2.26-5.6q1.68-4.17,3.2-8H293.88c-.23-4-1.68-7-3.92-9"/></g></g><path class="cls-12" d="M58.2,245.65c.1.07.15.3.15.7,0,.63-.73,1.07-2.2,1.3a1.63,1.63,0,0,1-.75-.1l0-.1-.2-.1c-.07,0-.1-.25-.1-.65s.3-.78.9-1a2.84,2.84,0,0,1,2.1-.1Zm3.85,1.8a3.3,3.3,0,0,0,.2.9l-.2.9a2.74,2.74,0,0,1-1.3.2l-1.5-.2a.49.49,0,0,0-.1-.2c-.07-.07-.1-.3-.1-.7a1.73,1.73,0,0,1,.05-.6.61.61,0,0,0,.15-.3l.9,0a12.46,12.46,0,0,1,1.9,0m48.5,4.7-.1-.6a1.83,1.83,0,0,1,2-.3l.1.3c-.1.3-.43.57-1,.8Zm3.4,1.3h-.75c-.17,0-.25-.25-.25-.65a1.05,1.05,0,0,1,.35-.9,2.8,2.8,0,0,1,.65-.25,1.1,1.1,0,0,1,.7,1.1l-.2.5a1.23,1.23,0,0,1-.5.2m16,24.8a1.91,1.91,0,0,1-.9-.15,1.87,1.87,0,0,1-.4-.35c.17-.17.38-.42.65-.75a1.94,1.94,0,0,1,1.55.05l.2.6a.79.79,0,0,1-.25.4,1.28,1.28,0,0,1-.85.2m11.3.8a1.81,1.81,0,0,1-.9.8c-.4.43-.6.32-.6-.35,0-.43.13-.68.4-.75h.8Zm51.5-25.9a3.4,3.4,0,0,1-1.2.8c-.4.33-.6.17-.6-.5,0-.43.12-.68.35-.75a3.19,3.19,0,0,1,.65,0l.35.15a.89.89,0,0,1,.45.35m2.7,1,.1.75-.1.75a5.25,5.25,0,0,1-2,.3l-.15-.1c-.1-.07-.15-.3-.15-.7a1.13,1.13,0,0,1,.65-.9,1.81,1.81,0,0,1,1.65-.1"/><g class="cls-13"><g class="cls-14"><path class="cls-15" d="M236.59,259.1c0,1-4.74,1.86-10.59,1.86s-10.6-.83-10.6-1.86,4.74-1.85,10.6-1.85,10.59.83,10.59,1.85"/></g></g><path class="cls-16" d="M224.8,260.05q-5.75,0-8.25-3.3A7,7,0,0,1,215,252.4a11.65,11.65,0,0,1,3.1-8.55,9.61,9.61,0,0,1,6.75-2.9,9.45,9.45,0,0,1,6.75,2.25,8.6,8.6,0,0,1,3.1,7,10.43,10.43,0,0,1-1.95,5.6,9,9,0,0,1-7.95,4.3"/><path class="cls-17" d="M234.7,250.08c-.14.31-.27.59-.4.82q-2.06,3.6-5.5,3.6c-1.93,0-3.28-.42-4.05-1.25a2.37,2.37,0,0,1-.65-1.65,13.81,13.81,0,0,1,1.35-3.8,13.06,13.06,0,0,0,1.3-4.5,3.44,3.44,0,0,0-1-2.35h-.88l.2.2a3.49,3.49,0,0,1,.55,2.25,12,12,0,0,1-1.35,3.75,12.05,12.05,0,0,0-1.35,5,3.05,3.05,0,0,0,.85,2.1q1.5,1.69,5.05,1.7,3.24,0,5.51-3.48a7.78,7.78,0,0,0,.39-2.37v-.07"/><path class="cls-17" d="M232.4,242.2v.3c0,.53-.32.9-1,1.1l-.2,0-.05-.25a1.17,1.17,0,0,1,.45-.7,1.29,1.29,0,0,1,.6-.4Zm-2.3.5a2.53,2.53,0,0,1-.45.4c-.07.17-.1.08-.1-.25a2.47,2.47,0,0,1,.15-.75,1.11,1.11,0,0,1,.55-.65,1.87,1.87,0,0,1,.25.8,2.3,2.3,0,0,1-.4.45m2.45,3.85a1.35,1.35,0,0,1-.45,0q-.4,0-.45-.15a1.57,1.57,0,0,1,.5-.1Zm-17.1,1.6-.3-.4a3.13,3.13,0,0,1,1.4.2.5.5,0,0,0,0,.15c0,.07,0,.1-.25.1Zm2.15-2.7a2.54,2.54,0,0,1-.65-.55,2.09,2.09,0,0,0-.35-.55,1.88,1.88,0,0,1,.75.5c.23.23.35.4.35.5Zm-1.7,6v-.25a1.6,1.6,0,0,1,1.2.15q-.1.3-.6.3a.82.82,0,0,1-.6-.2m2.75,1.9a.58.58,0,0,1,.6-.25l.05.25a.47.47,0,0,1-.25.25c-.23-.07-.37-.15-.4-.25m13.3,3.75a.92.92,0,0,1-.6-.45v-.25A1.83,1.83,0,0,1,233,257l.05.15-.35.2a6.18,6.18,0,0,1-.75-.3"/></g></g></g></g></svg>