<svg id="decor" xmlns="http://www.w3.org/2000/svg" xmlns:xlink="http://www.w3.org/1999/xlink" viewBox="0 0 300 300"><defs><style>.cls-1{fill:none;}.cls-2{opacity:0.75;}.cls-3{clip-path:url(#clip-path);}.cls-4{clip-path:url(#clip-path-2);}.cls-5{fill:#52a86f;}.cls-11,.cls-12,.cls-14,.cls-15,.cls-16,.cls-17,.cls-18,.cls-19,.cls-20,.cls-21,.cls-22,.cls-5,.cls-6,.cls-7,.cls-8{fill-rule:evenodd;}.cls-6{fill:#3a8c53;}.cls-7{fill:#bfd072;}.cls-8{fill:#578400;}.cls-9{opacity:0.5;}.cls-10{clip-path:url(#clip-path-3);}.cls-11{fill:#aa8c65;}.cls-12{fill:#70990d;}.cls-13{clip-path:url(#clip-path-4);}.cls-14{fill:#dba548;}.cls-15{fill:#a2af56;}.cls-16{fill:#ffe36c;}.cls-17{fill:#ffba1f;}.cls-18{fill:#54af96;}.cls-19{fill:#54cc96;}.cls-20{fill:#ffd254;}.cls-21{fill:#5b5955;}.cls-22{fill:#d2e8f7;}</style><clipPath id="clip-path"><rect class="cls-1" x="2.1" y="97.41" width="291.81" height="202.59"/></clipPath><clipPath id="clip-path-2"><rect class="cls-1" x="8.08" y="97.41" width="226.93" height="144.35"/></clipPath><clipPath id="clip-path-3"><rect class="cls-1" x="2.49" y="126.04" width="76.79" height="87.67"/></clipPath><clipPath id="clip-path-4"><rect class="cls-1" x="179.34" y="160.37" width="113.15" height="82.94"/></clipPath></defs><title>Plan de travail 9</title><g class="cls-2"><g class="cls-3"><g class="cls-2"><g class="cls-4"><path class="cls-5" d="M63.2,134.17q1.67,1.47,4.73,8.3t16.42,39.22q3,7.35,5.23,12.73c1-2.19,2.21-4.73,3.6-7.6q6.9-14.31,9.75-19l1.8-3.4c-4,1.35-6,1.63-6.13.82q14-21,14.73-21.32c.5-.22,1.71.59,3.65,2.42s4.35,4.31,7.25,7.4A41.83,41.83,0,0,1,130.1,161c1,1.81.78,2.28-.7,1.43s-2.22-1.23-2.22-1.1q0,1.8,5.7,14,2,4.27,3.3,7.37Q139,176,140.5,172.62a16.21,16.21,0,0,1-2.1.5c-1.3.27-1.68-.44-1.12-2.13s4.7-12.09,12.42-31.22q4.68-11.58,6.78-16.43a23.31,23.31,0,0,0-2.68-1c-.43-.1-.5-.65-.2-1.65s3-5.27,8-12.8,8.29-11,9.7-10.47,4.84,3.89,10.27,10.07,8.42,10,8.93,11.43.22,2.19-.88,2.3-2,.18-2.82.2q21,43.11,25.22,51.25t4.78,9.67c.36,1,0,1.46-1.08,1.28a8.52,8.52,0,0,0-1.5-.2L235,241.77H23.85c.38-.93.83-2,1.33-3.15.82-1.92,1.53-3.49,2.12-4.73a87.62,87.62,0,0,1-12.37-1.35q-6.93-1.18-6.85-4.2t8.3-19q8.24-16,19.85-38T54.68,141q6.85-8.34,8.52-6.87"/><path class="cls-6" d="M71.13,145.87a3,3,0,0,1-.9,1.6q-1,1.2-1.8,1.2a.92.92,0,0,1-1-.6,3.45,3.45,0,0,1-.05-.75,2.58,2.58,0,0,1,1.9-2.5c1.23-.5,1.85-.15,1.85,1.05m-5.35-1.2a1.55,1.55,0,0,1,1.6,0,.48.48,0,0,0,.1.25,1.78,1.78,0,0,1,0,.55,1.05,1.05,0,0,1-.3.65,1.84,1.84,0,0,1-.9.5l-.9-.3v-1a.76.76,0,0,1,.35-.65M45.53,157.22q2.1,0,2.1,1.35c0,.43-.4,1-1.2,1.7a4.68,4.68,0,0,1-3.15,1.3,1.07,1.07,0,0,1-1.05-.6,1.44,1.44,0,0,1-.15-.65,3.15,3.15,0,0,1,.55-1.85,3.23,3.23,0,0,1,2.9-1.25m5.9,6.85a17.29,17.29,0,0,1-1.55.8l-.5-.15c-.17-.1-.25-.32-.25-.65a1.73,1.73,0,0,1,1.35-1.75c.87-.34,1.3,0,1.3.85a1.13,1.13,0,0,1-.35.9m-4,38a1.63,1.63,0,0,1-.1-.75c0-.87.6-1.45,1.8-1.75s1.75.15,1.75,1.25a1.71,1.71,0,0,1-.55,1.1,2,2,0,0,1-1.65.8c-.67,0-1.08-.22-1.25-.65m7.6-.6c.93-.44,1.4-.09,1.4,1.05,0,.83-.65,1.45-2,1.85l-.9-.8a2.22,2.22,0,0,1,1.45-2.1m-32.1,23.1c1.17-.14,1.75.21,1.75,1.05a1.75,1.75,0,0,1-2,1.95,1.39,1.39,0,0,1-1.35-.65l-.15-.7c0-.94.58-1.49,1.75-1.65m3.7,4.35c-.13-.1-.2-.4-.2-.9,0-.34.25-.67.75-1a2.31,2.31,0,0,1,2.1-.2s0,.06.1.1a1.78,1.78,0,0,1,.05.55c0,.4-.28.78-.85,1.15a2.32,2.32,0,0,1-1,.45,5.11,5.11,0,0,1-.75,0Zm147.25-88.65v1.2l-.6.3a1.24,1.24,0,0,1-.75-1.2V140a4.93,4.93,0,0,1,1.2.15Zm-5.65.3a1.17,1.17,0,0,1,.1.6,1.52,1.52,0,0,1-.4.9,2,2,0,0,1-1,.75,1.05,1.05,0,0,1-.75-1.1c0-.24.2-.5.6-.8a2.94,2.94,0,0,1,1.2-.5,1.3,1.3,0,0,0,.2.15m.6.15a3.46,3.46,0,0,1,.55-.75c.27.1.42.18.45.25a1.19,1.19,0,0,1,.15.7c0,.73-.45,1.16-1.35,1.3-.1-.07-.15-.35-.15-.85a1.77,1.77,0,0,1,.35-.65m31.25,29.35a2.4,2.4,0,0,1,.5,1.5,2.51,2.51,0,0,1-.2,1c-.2.36-.43.55-.7.55s-.63-.35-.9-1.05a3.91,3.91,0,0,1-.3-1.15l.05-1.35a1.23,1.23,0,0,1,1.55.5m-3.1,3.1a1.82,1.82,0,0,1-.5-.25.85.85,0,0,1-.25-.7,1.29,1.29,0,0,1,.75-1.35,1.62,1.62,0,0,1,.55.5,1.18,1.18,0,0,1,.2.75c0,.5,0,.73-.1.7Zm-2.95.15c0,.06-.15.11-.35.15a1.28,1.28,0,0,1-.4-.1q-.15-.1-.15-.6a.8.8,0,0,1,.2-.65,1.3,1.3,0,0,1,.5-.05,1.05,1.05,0,0,1,.35.75Zm-91.2,7.5a2,2,0,0,1,.85-1.4,1.8,1.8,0,0,1,2.1-.4.49.49,0,0,0,.1.2,1.17,1.17,0,0,1,.1.6,2.25,2.25,0,0,1-.75,1.25,2.07,2.07,0,0,1-1.4.8,1.29,1.29,0,0,1-.6-.1.75.75,0,0,0-.3-.25c-.07,0-.1-.2-.1-.7m4.45.15q-.8,2.4-1.65,2.85a.92.92,0,0,1-.7-.6,1.83,1.83,0,0,1-.05-.55,2.32,2.32,0,0,1,.65-1.5,1.38,1.38,0,0,1,1.45-.65Zm52.05,23.9a3.05,3.05,0,0,1,1.3-2.1c.83-.77,1.25-.54,1.25.7q-1,2.34-1.8,2.55a1,1,0,0,1-.7-.55,2.12,2.12,0,0,1,0-.6m-37.5-12.7a1.42,1.42,0,0,0,.45.1c.1,0,.15.2.15.5s-.4.65-1.2,1a1.07,1.07,0,0,1-.6-1,3.26,3.26,0,0,1,1.2-.6m2,1.1c.83,0,1.25.3,1.25,1a1.46,1.46,0,0,1-1.35,1.35,1.07,1.07,0,0,1-1-.5,1.16,1.16,0,0,1-.15-.6c0-.84.43-1.25,1.3-1.25m5,30.3c.73-.3,1.1.26,1.1,1.7a5.29,5.29,0,0,1,0,.9,1.37,1.37,0,0,1-1.3.7,7.93,7.93,0,0,1-.9-.8c0-1.34.38-2.17,1.15-2.5m-2.9.35a1.27,1.27,0,0,1,0,.5,2.33,2.33,0,0,1-1.5,2l-.55-.55a.84.84,0,0,1-.2-.5c0-.2.18-.47.55-.8a2.2,2.2,0,0,1,1.55-.6Zm38.1-20.1a3.19,3.19,0,0,1,0,.65,2.51,2.51,0,0,1-.25,1.05,1.35,1.35,0,0,1-.8.75,1.85,1.85,0,0,1-.6-1.05l.15-.75a1.48,1.48,0,0,1,1.35-.9.88.88,0,0,0,.1.25m1.4.75a1.11,1.11,0,0,1,.6-1.1,1.5,1.5,0,0,1,.75,1.3,1.72,1.72,0,0,1-.75.6c-.4-.44-.6-.7-.6-.8"/></g></g><path class="cls-7" d="M293.92,272.15c0-7.76-4.51-12.5-10.51-12.5h-32c-4.68,0-5.5-1.58-5.5-3.5s.82-3.5,5.5-3.5h3.83a8.53,8.53,0,0,0,8.5-8.5v-1.5a8.52,8.52,0,0,0-8.5-8.5H14.59a8.53,8.53,0,0,0-8.51,8.5v1.5a8.53,8.53,0,0,0,8.51,8.5H44.75c4.68,0,5.5,1.57,5.5,3.5s-.82,3.5-5.5,3.5h-5.5c-6.83,0-11.51,5-11.51,12.5s4.28,12.5,11.51,12.5H283.41c6.34,0,10.51-4.74,10.51-12.5"/><path class="cls-7" d="M275.5,298.4a8.89,8.89,0,0,1-5.7,1.6q-5.06,0-6.85-2.4a4.1,4.1,0,0,1-.85-2.6,4.86,4.86,0,0,1,2.35-4.6,7.91,7.91,0,0,1,5.2-.65,11.87,11.87,0,0,1,5.15,2.05c1.57,1.1,2.35,2.28,2.35,3.55a3.81,3.81,0,0,1-1.65,3M22.4,279.1a5.53,5.53,0,0,1-4.15,1.65c-2.57,0-4.23-.72-5-2.15-.27-1.47-.4-2.23-.4-2.3a5.39,5.39,0,0,1,1.7-4.1,5.54,5.54,0,0,1,3.7-1.6,4.62,4.62,0,0,1,3.7,1.3,6,6,0,0,1,1.7,4.55,4,4,0,0,1-1.25,2.65"/><path class="cls-8" d="M31.51,114.65q4.74-11.4,7.25-10.85,2.1.4,7.65,12.4,10.55,23.05,23,60,9.39,27.94,11.8,41.7,2,11.1-5,11.9-40.9,5-71.45-5.3-2.65-1.69-2.6-6.75,0-3.64,2.2-13.9,2.79-13.7,7.8-30.65,12-41,19.4-58.5"/><g class="cls-9"><g class="cls-10"><path class="cls-5" d="M51.79,128.57q-8.25,3.3-16.23,6.38c-4.74,1.83-9.13,3.49-13.21,5,.42-1.3.84-2.56,1.25-3.79,3.59-1.36,7.42-2.79,11.5-4.32q8.25-3.09,15.63-5.81l1.06,2.53M32.91,144.7q10.86-2.88,22.76-6.51l-1-2.52-1.38.41Q36,141.27,20.5,145.65c-.31,1-.62,2-.94,2.95,4.15-1.2,8.59-2.5,13.35-3.9m36.14,64.6c3.78-.13,7.18-.27,10.22-.41q-.85-3.49-2-7.53Q58.37,202,30.21,204,14.63,205,3.82,206.17q-.91,4.53-1.33,7.54,15.63-.74,66.56-4.41m-6.7-13.1q6.91-.64,13.07-1.24c-.36-1.21-.74-2.46-1.13-3.73l-9.44.92q-24,2.4-24.5,2.4-13.09.7-31.64,2.55l-3,.31c-.28,1.25-.56,2.48-.82,3.7q22.88-1.7,57.48-4.91"/></g></g><path class="cls-11" d="M40.85,179.05a.51.51,0,0,1,0-.3c-.06-.87-.11-1.73-.14-2.6q-3.32-48,2.34-.15a71.67,71.67,0,0,1,6.2-10.1q2-2.7-1.54,4.65,3.84,2.44,2.84,2.3a15.18,15.18,0,0,1-3.3-.9q-1.89,3.35-4.25,7.8,3.78,35.38,5.21,58.15H43.78q-.41-17.22-2-42.9L31,183.25q-.86-2.06,4.39,3.1t6.4,6c-.29-4.63-.58-8.93-.84-12.9a1.39,1.39,0,0,1-.06-.4"/><path class="cls-12" d="M50.26,139.5c.83,0,1.28.5,1.34,1.6a2.84,2.84,0,0,1-.25,1.1c-.19.6-.53.9-1,.9-.76,0-1.18-.55-1.25-1.65s.32-1.85,1.16-1.95m-23.45-5.25c-1.27,0-1.94-.85-2-2.55s.71-2.48,2.45-2.75,2.59.45,2.7,2.35a2.79,2.79,0,0,1-.8,2.15,3.43,3.43,0,0,1-2.35.8m1.5,10.85a1.68,1.68,0,0,1-1.4.65,1.85,1.85,0,0,1-1.81-1c-.16-.7-.25-1.07-.25-1.1-.06-1.53.54-2.3,1.81-2.3s1.93.72,2,2.25a2.46,2.46,0,0,1-.35,1.5m27.35-1a2,2,0,0,1-2-1,2.55,2.55,0,0,1-.2-1.15c-.14-2.1.58-3.25,2.14-3.45s2.39.57,2.46,2.3a3.56,3.56,0,0,1-.65,1.9c-.5.93-1.09,1.4-1.75,1.4m5.55,46.75.1,0a2.58,2.58,0,0,1,.1.65c0,.93-.81,1.4-2.5,1.4a.83.83,0,0,1-.85-.7,1.66,1.66,0,0,1-.1-.7,1.07,1.07,0,0,1,.95-1.25,3.53,3.53,0,0,1,2.3.65M57.85,199a3.79,3.79,0,0,1-.64-1.7c-.11-1.93.68-2.67,2.35-2.2a3.21,3.21,0,0,1,2.6,2.95,2.79,2.79,0,0,1-.5,1.8,1.82,1.82,0,0,1-1.45.65,2.62,2.62,0,0,1-2.36-1.5M34.76,191.8a2,2,0,0,1-.8,1.75,3.31,3.31,0,0,1-2,.6.75.75,0,0,1-.8-.65,1.23,1.23,0,0,1-.15-.75c0-1,.56-1.73,1.79-2.3s1.84-.12,1.91,1.35m5,6.35a3.07,3.07,0,0,1-.45,1.55c-.44.93-1,1.4-1.66,1.4h-.29a.53.53,0,0,0-.25.15,1.71,1.71,0,0,1-.35-.5,2.33,2.33,0,0,1-.5-1.5c-.07-1.6.5-2.52,1.7-2.75s1.73.35,1.8,1.65m-17.2,28.9c0,.77-.59,1.63-1.85,2.6a1,1,0,0,1-1-.65,2.83,2.83,0,0,1-.15-.8A3,3,0,0,1,21,225.6c1-.73,1.48-.25,1.55,1.45M16,223.45c1.86-1.37,2.85-1.07,2.95.9,0,.57-.45,1.68-1.45,3.35s-1.82,2.55-2.36,2.55c-1.19,0-1.83-.92-1.89-2.75q-.11-2.06,2.75-4.05"/><path class="cls-5" d="M269.65,162.3q9.8,3.75,13.9,8.6a37.81,37.81,0,0,1,7.4,14,63.35,63.35,0,0,1-3.4,38.55Q279,243.7,259.35,243.7q-42.15,0-62.5-6.7-18-6-18-16.65a63.69,63.69,0,0,1,2.3-15.45q3-10.25,4.3-15.85,3.41-15,4-16.45,3.45-9.65,10.95-14.25,15-9.15,46.8-2.55a140.23,140.23,0,0,1,22.5,6.5"/><g class="cls-9"><g class="cls-13"><path class="cls-14" d="M179.6,212.17q48.65,16.46,74,23.88,8.22,2.41,18.25,5.1a27.62,27.62,0,0,1-7.29,2.15q-9.81-2.88-21.31-6.55-39.08-12.41-63.91-22.9c.08-.55.17-1.11.26-1.68m75.6,12.38Q205,209.4,199.4,208.2q-9.41-3-17.61-5.5c-.21.71-.42,1.44-.64,2.2-.49,1.92-.9,3.74-1.23,5.49q9.08,3.17,18.38,6,2.85.85,26.2,7.5,16.55,4.69,29.05,8.8,1.26.42,21.6,6.69a28.7,28.7,0,0,0,7.34-6.92q-18.15-5-27.29-7.87m-16.5-50.5q-23.5-8.24-41.12-13.69a25.3,25.3,0,0,0-2.53,2.44q17.7,6,44.1,15,30.42,10.57,53.3,19.24c0-.94-.06-1.84-.12-2.71q-23.77-9.83-53.63-20.28m53.79,26.24q-2.55-.81-5.14-1.59-11.25-3.34-27.05-7.3-20.36-5.1-23.15-5.85-14.75-3.95-40.25-9.7c-2.81-.66-5.44-1.26-7.92-1.81q-.58,2.24-1.83,7.61,4.66,1.28,9.65,2.55,13.75,3.5,37.7,9.15,17.46,4.46,57.14,16.38a55.5,55.5,0,0,0,.85-9.44"/></g></g><path class="cls-6" d="M274.15,199a3.71,3.71,0,0,1-3,1.35,1.72,1.72,0,0,1-2-1.95q0-2.55,2.9-3.75t2.9,2.25a3.48,3.48,0,0,1-.8,2.1m6.65,2.1a2.17,2.17,0,0,1-.55,1.45,2.68,2.68,0,0,1-2.05.8,2.56,2.56,0,0,1-2.3-1,2.49,2.49,0,0,1-.35-1.25c0-1.2.88-1.85,2.65-2s2.6.57,2.6,2m-30.65,41.4a2.59,2.59,0,0,1-.55,1.65,1.87,1.87,0,0,1-1.55.8,2.31,2.31,0,0,1-2.2-1.5,6.31,6.31,0,0,0-.35-1.25c0-1.5.78-2.2,2.35-2.1a2.19,2.19,0,0,1,2.3,2.4m-53.5-68.7a2,2,0,0,1-.85,1.65,2,2,0,0,1-1.35.55,3,3,0,0,1-2.8-1.5,5.1,5.1,0,0,0-.5-1.25c0-1.73.92-2.4,2.75-2s2.75,1.22,2.75,2.55m-5.35,6.1a2.51,2.51,0,0,1-1.2,2.2,4.14,4.14,0,0,1-2.45.7,3.4,3.4,0,0,1-3.4-1.9,12.22,12.22,0,0,0-.45-1.65q0-3.34,3.75-2.7t3.75,3.35M235,166.7a2,2,0,0,1-.8,1.5,3,3,0,0,1-1.9.8,4.36,4.36,0,0,1-.9-.25c-.23-.13-.35-.48-.35-1.05,0-1.37,1.17-2.17,3.5-2.4,0,.07.08.18.25.35a1.89,1.89,0,0,1,.2,1m-1.3,3.65a2.16,2.16,0,0,1,2-2.4c1.33-.2,2,.38,2,1.75a1.25,1.25,0,0,1-.45.8,7.17,7.17,0,0,1-2.3,1.4,4.33,4.33,0,0,1-.95-.35,1.57,1.57,0,0,1-.35-1.2m-21.8,55.7a.8.8,0,0,0,.2.35,2.18,2.18,0,0,1,.2,1.1c0,.47-.37.95-1.1,1.45a2.88,2.88,0,0,1-1.4.7,1.89,1.89,0,0,1-1.05-.2,4.34,4.34,0,0,0-.6-.5l-.1-1q1.65-3,3.85-1.85m29.8,16a3.17,3.17,0,0,1-.25,1.25,1.55,1.55,0,0,1-1.5,1.1q-1.05,0-1.8-1.5l-.55-1.45c0-1.57.68-2.18,2-1.85a2.35,2.35,0,0,1,2.05,2.45"/><path class="cls-11" d="M244.83,168.13l1.7.62q-1,4-4.33,16.3c-.27,1-.54,2-.8,2.93q7.35-3.27,12.85-5.5c.21.86.44,1.76.68,2.7q-6,2.52-13.93,6.07l-.47-.07q-3.94,14.46-5,19.17-1.16,5.09-9.4,33.4l-4.65,0q4.94-15.9,12.3-39.8-17.34-18.72-26.32-28.18l1.2-2.17q4.6,4.2,10.07,9.37,12.42,11.75,16.48,16.38l9.65-31.25"/><path class="cls-15" d="M57.15,247.8a9.72,9.72,0,0,1,.6,2.45,2.34,2.34,0,0,1-.3,1.3H57.1l-.45-2.7q.15-1,.15-1Zm-2.5-.35c1.33,2.43,2,4,2,4.6v.85a.73.73,0,0,0-.25.15.87.87,0,0,1-.6.15q-.6,0-1.95-3.15a19.87,19.87,0,0,1-1.2-3.35q0-2.89,2,.75m6.8,3.65a2.8,2.8,0,0,1-.6.3,2.08,2.08,0,0,1-.45-.2,1.21,1.21,0,0,1-.15-.7.92.92,0,0,1,.6-1,2,2,0,0,1,.6,1.6m38.85,11.15a44.9,44.9,0,0,0,.75,4.65,24.52,24.52,0,0,1,.6,4.45c0,.5-.05.77-.15.8l0,.15c-.07.07-.25.1-.55.1s-.7-1-1-3.15-.35-3.22-.35-3.25a10.45,10.45,0,0,1,.25-2,7.75,7.75,0,0,1,.5-1.75m-4.2-1.4q2.15,1.39,3.05,9.95a2.61,2.61,0,0,1-.1.6c-.1.17-.32.25-.65.25-.53,0-1.1-1.38-1.7-4.15L96,263.35c.1-1,.15-1.87.15-2.5M106,269a2.14,2.14,0,0,1,.2-.85,1.33,1.33,0,0,1,.85-.8,1.82,1.82,0,0,0,.25.2,1.17,1.17,0,0,1,.1.6,2.63,2.63,0,0,1-.3.95,1.8,1.8,0,0,1-.5.8,2.08,2.08,0,0,1-.45-.2,1.21,1.21,0,0,1-.15-.7m-1.5-1.2s.07.1.2.2.1.2.1.5a3.38,3.38,0,0,1-.2,1,2.56,2.56,0,0,0-.25.9l-.3.15c-.2-.07-.32-.13-.35-.2a2.38,2.38,0,0,1,0-.65,8.55,8.55,0,0,1,0-1.1,1.08,1.08,0,0,1,.8-.8"/><path class="cls-5" d="M219.45,264.9a3.18,3.18,0,0,1-1.45,2.45,38.85,38.85,0,0,0-3.4,2.55c0,.41,0,.5-.1.25l-.35.45q-1.05-.94-1.75-5.6a37.84,37.84,0,0,1-.5-4.9,26.14,26.14,0,0,1-.15-3.05,2.05,2.05,0,0,1,1.35-1.9,10.77,10.77,0,0,0-.3,2.4,37.9,37.9,0,0,0,.9,6.35q.36,1.85.57,3.15a9.25,9.25,0,0,1,2.38-3.05q2.81-2.5,2.8.9m-8.95-.8a4.65,4.65,0,0,1,2.2,3.95c0,.5-.07.75-.2.75l-1.05.2c-.6,0-1.3-.57-2.1-1.6a4.47,4.47,0,0,1-1-2.2q0-2.7,2.2-1.1"/><path class="cls-16" d="M212.83,253.33a9.12,9.12,0,0,1,2.77-3.78,3.18,3.18,0,0,1,2.2-1c.67.07,1,.65,1,1.75,0,.7-.7,1.82-2.1,3.35l-.65.68c.5-.1,1.18-.25,2-.48,1.3-.2,2,.13,2,1a1.76,1.76,0,0,1-1,1.4,5,5,0,0,1-1.87.73,5.25,5.25,0,0,1,2.07,4.17q0,1.5-1.65,1.5-2.15,0-4-2.8c-.3-.56-.56-1-.77-1.4q-2.85,3.75-4.43,3.75a2,2,0,0,1-2-1.1q-.3-1.16-.3-1.2,0-2.17,3.42-4.22a9,9,0,0,1-1.57-1.38,16.6,16.6,0,0,0-1.55-1.9q0-3.15,3.45-1.5a6.7,6.7,0,0,1,3,2.43"/><path class="cls-17" d="M216.15,254.8a3.62,3.62,0,0,1-.7,2.3,3.36,3.36,0,0,1-2.7,1c-1.5,0-2.43-.45-2.8-1.35q-.15-1.4-.15-1.5,0-3.26,3.2-2.85c2.1.27,3.15,1.05,3.15,2.35"/><path class="cls-18" d="M246.75,113.5q-1.35,3.56-4,3.55-5.35,0-7.6-7.35a29.77,29.77,0,0,1-1.05-5.1c-.1-1.6-.15-2.43-.15-2.5a4.56,4.56,0,0,1,.4-1.8,2.32,2.32,0,0,1,2.2-1.65q2.35,0,2.95,3.95c.07.57.1,2.08.1,4.55a10.8,10.8,0,0,1,1.6-1.2,5.69,5.69,0,0,1,3.05-.9,2.92,2.92,0,0,1,3.05,2.25,8.19,8.19,0,0,1,.3,2.6,12,12,0,0,1-.85,3.6"/><path class="cls-19" d="M246.45,102a12.21,12.21,0,0,1-1.7,5.1c-.15.29-.3.57-.45.83a13.28,13.28,0,0,1,3.1-1q6.25-1.25,6.25,4.8a6.51,6.51,0,0,1-1.25,3.75q-2,2.74-6.1,2.75a8.16,8.16,0,0,1-4.7-1.4L239.45,115q-2-1.8-2.25-2.1a3.27,3.27,0,0,1-1-2,.81.81,0,0,1,.15-.52c0-.14,0-.28-.05-.43-.13-1.07-.2-1.8-.2-2.2q0-4.84,5.2-7.85a4.65,4.65,0,0,1,3.6-.75c1.07.33,1.6,1.32,1.6,3"/><path class="cls-20" d="M244.75,103.45a.6.6,0,0,1-.6-.3l-.05-.35a.77.77,0,0,1,.75-.85c.5-.07.75.17.75.7a.92.92,0,0,1-.15.45.82.82,0,0,1-.7.35m4.6,8.1a2.6,2.6,0,0,1-.6,1.55,3.75,3.75,0,0,1-3.1,1.25,2.76,2.76,0,0,1-2.45-1.1q-.45-1.16-.45-1.2,0-2.4,3.3-2.55c2.2-.1,3.3.58,3.3,2m0,3a.74.74,0,0,1,.8-.8c.5-.07.75.17.75.7a.83.83,0,0,1-.3.5,1,1,0,0,1-.55.3.64.64,0,0,1-.65-.35Zm1.8-1.5a.6.6,0,0,1-.6-.3.6.6,0,0,1-.1-.35c0-.37.23-.55.7-.55s.65.2.65.6-.22.6-.65.6m-8-8.55a4.26,4.26,0,0,1-.65,2,2.71,2.71,0,0,1-2.4,1.55,1.11,1.11,0,0,1-.95-.4.82.82,0,0,1-.2-.5,4.47,4.47,0,0,1,2.1-3.75c1.4-1,2.1-.67,2.1,1.1"/><path class="cls-21" d="M232.85,108.15a13.46,13.46,0,0,1,4,3q5.7,5.8,5.7,10a1.48,1.48,0,0,1-.3.9,1.43,1.43,0,0,1-1.25.55c-1,0-1.93-1-2.7-3-.63-2.17-1-3.45-1.15-3.85-.23-.63-1.32-1.88-3.25-3.75s-2.8-2.82-2.8-3.05c0-1.13.6-1.45,1.8-.95"/><path class="cls-22" d="M245.35,124l0-.3a7.47,7.47,0,0,1,7.35,3.55,10.87,10.87,0,0,1,1.65,6,7,7,0,0,1-1.4,3.65,6.18,6.18,0,0,1-5.4,3h-.05a14.11,14.11,0,0,1,.05,1.6,6.12,6.12,0,0,1-1.35,3.6,7.07,7.07,0,0,1-6.1,2.8q-10.55,0-13.6-10.7c-.77-3.57-1.33-6-1.7-7.35-.6-2.23-1.47-3.35-2.6-3.35-1.9,0-3.12.6-3.65,1.8a5.36,5.36,0,0,0-.4,2.45h-.3v-.35a4.7,4.7,0,0,1,1.55-4,3.77,3.77,0,0,1,3.45-.55,5.69,5.69,0,0,1,3.25,2.4,7.52,7.52,0,0,1,1.25,5q1.9,8.06,5.1,10.7,2.35,2,7.65,2,4.45,0,5.95-3.35a7,7,0,0,0,.62-2.67,9.55,9.55,0,0,1-4.87-1.28,3,3,0,0,1-1.6-2.55,9.92,9.92,0,0,1,0-1.35,1.22,1.22,0,0,1,1.25-1.1,5.92,5.92,0,0,1,1.15-.15q3.15,0,4.35,3.9c.08.25.14.51.2.78A6.2,6.2,0,0,0,252,134.9a7.8,7.8,0,0,0,.75-3.6,6.66,6.66,0,0,0-1.8-4.25,9.1,9.1,0,0,0-5.6-3.1m1.12,14.15a9.86,9.86,0,0,0-.67-1.85c-.7-1.57-1.57-2.35-2.6-2.35a3.15,3.15,0,0,0-1.3.3,4.92,4.92,0,0,0-.75,1.05q0,2.9,4.15,2.9c.41,0,.8,0,1.17-.05"/><path class="cls-22" d="M245.85,126.6l-.7-.25s-.05-.12-.05-.45a1.35,1.35,0,0,1,.9-1.3q.9-.45.9.75c0,.33-.35.75-1.05,1.25m-2-2.65c0-.6.38-.85,1.15-.75-.3.6-.65.93-1,1-.07.17-.1.08-.1-.25"/></g></g></svg>