<svg id="decor" xmlns="http://www.w3.org/2000/svg" xmlns:xlink="http://www.w3.org/1999/xlink" viewBox="0 0 300 300"><defs><style>.cls-1{fill:none;}.cls-2{opacity:0.75;}.cls-3{clip-path:url(#clip-path);}.cls-4{fill:#52a86f;}.cls-10,.cls-4,.cls-5,.cls-6,.cls-7,.cls-8,.cls-9{fill-rule:evenodd;}.cls-5{fill:#3a8c53;}.cls-6{fill:#578400;}.cls-7{fill:#aa8c65;}.cls-8{fill:#70990d;}.cls-9{fill:#bfd072;}.cls-10{fill:#a2af56;}</style><clipPath id="clip-path"><rect class="cls-1" x="6.08" y="94.25" width="287.83" height="205.75"/></clipPath></defs><title>Plan de travail 2</title><g class="cls-2"><g class="cls-3"><path class="cls-4" d="M66.88,131q1.65,1.47,4.72,8.3T88,178.53q3,7.35,5.23,12.72,1.52-3.28,3.6-7.6,6.9-14.29,9.75-19.05l1.8-3.4c-4,1.36-6,1.63-6.12.83q14-21,14.72-21.33c.5-.21,1.71.59,3.65,2.43s4.35,4.3,7.25,7.4a41.83,41.83,0,0,1,5.87,7.35c1,1.8.78,2.28-.7,1.42s-2.22-1.23-2.22-1.1q0,1.8,5.7,14,2,4.28,3.3,7.38,2.84-6.79,4.33-10.13a17.24,17.24,0,0,1-2.11.5c-1.3.27-1.68-.44-1.12-2.12s4.7-12.1,12.43-31.23Q158,125,160.15,120.18a19.84,19.84,0,0,0-2.68-1c-.43-.1-.5-.65-.2-1.65s3-5.28,8-12.8,8.29-11,9.7-10.48,4.84,3.89,10.27,10.08,8.42,10,8.93,11.42.22,2.19-.88,2.3-2,.18-2.82.2q21,43.11,25.23,51.25t4.77,9.68c.37,1,0,1.46-1.07,1.27a10,10,0,0,0-1.5-.2l20.75,58.3H27.53c.37-.93.82-2,1.32-3.15q1.23-2.88,2.12-4.72a90.68,90.68,0,0,1-12.37-1.35q-6.93-1.2-6.85-4.2t8.3-19q8.23-16,19.85-37.95t18.45-30.37q6.85-8.35,8.53-6.88"/><path class="cls-5" d="M74.8,142.7a3,3,0,0,1-.9,1.6q-1,1.2-1.8,1.2a.92.92,0,0,1-1-.6,3.45,3.45,0,0,1,0-.75,2.58,2.58,0,0,1,1.9-2.5c1.23-.5,1.85-.15,1.85,1m-5.35-1.2a1.55,1.55,0,0,1,1.6-.05.45.45,0,0,0,.1.25,1.83,1.83,0,0,1,0,.55,1,1,0,0,1-.3.65,1.77,1.77,0,0,1-.9.5l-.9-.3v-.95a.77.77,0,0,1,.35-.65M49.2,154.05q2.1,0,2.1,1.35c0,.43-.4,1-1.2,1.7A4.63,4.63,0,0,1,47,158.4a1.07,1.07,0,0,1-1.05-.6,1.44,1.44,0,0,1-.15-.65,3.15,3.15,0,0,1,.55-1.85,3.26,3.26,0,0,1,2.9-1.25m5.9,6.85a14.76,14.76,0,0,1-1.55.8l-.5-.15c-.17-.1-.25-.32-.25-.65a1.73,1.73,0,0,1,1.35-1.75c.87-.33,1.3-.05,1.3.85a1.13,1.13,0,0,1-.35.9m-4,38a1.63,1.63,0,0,1-.1-.75c0-.87.6-1.45,1.8-1.75s1.75.15,1.75,1.25a1.71,1.71,0,0,1-.55,1.1,2,2,0,0,1-1.65.8c-.67,0-1.08-.22-1.25-.65m7.6-.6c.93-.43,1.4-.08,1.4,1,0,.83-.65,1.45-2,1.85l-.9-.8a2.24,2.24,0,0,1,1.45-2.1M26.6,221.4c1.17-.13,1.75.22,1.75,1a1.75,1.75,0,0,1-2,2,1.39,1.39,0,0,1-1.35-.65l-.15-.7c0-.93.58-1.48,1.75-1.65m3.7,4.35c-.13-.1-.2-.4-.2-.9,0-.33.25-.67.75-1a2.31,2.31,0,0,1,2.1-.2s0,.07.1.1a1.83,1.83,0,0,1,.05.55c0,.4-.28.78-.85,1.15a2.32,2.32,0,0,1-1.05.45,5.11,5.11,0,0,1-.75-.05ZM177.55,137.1v1.2l-.6.3a1.22,1.22,0,0,1-.75-1.2v-.6a4.93,4.93,0,0,1,1.2.15Zm-5.65.3a1.17,1.17,0,0,1,.1.6,1.47,1.47,0,0,1-.4.9,2,2,0,0,1-.95.75,1,1,0,0,1-.75-1.1c0-.23.2-.5.6-.8a3.08,3.08,0,0,1,1.2-.5.65.65,0,0,0,.2.15m.6.15a4.05,4.05,0,0,1,.55-.75c.27.1.42.18.45.25a1.21,1.21,0,0,1,.15.7c0,.73-.45,1.17-1.35,1.3-.1-.07-.15-.35-.15-.85a1.77,1.77,0,0,1,.35-.65m31.25,29.35a2.4,2.4,0,0,1,.5,1.5,2.48,2.48,0,0,1-.2,1c-.2.37-.43.55-.7.55s-.63-.35-.9-1a3.84,3.84,0,0,1-.3-1.15l0-1.35a1.24,1.24,0,0,1,1.55.5m-3.1,3.1a1.57,1.57,0,0,1-.5-.25.84.84,0,0,1-.25-.7,1.29,1.29,0,0,1,.75-1.35,1.72,1.72,0,0,1,.55.5,1.22,1.22,0,0,1,.2.75c0,.5,0,.73-.1.7Zm-3,.15c0,.07-.15.12-.35.15a1,1,0,0,1-.4-.1q-.15-.1-.15-.6a.81.81,0,0,1,.2-.65,1.56,1.56,0,0,1,.5,0,1.05,1.05,0,0,1,.35.75Zm-91.2,7.5a2,2,0,0,1,.85-1.4,1.82,1.82,0,0,1,2.1-.4.49.49,0,0,0,.1.2,1.17,1.17,0,0,1,.1.6,2.22,2.22,0,0,1-.75,1.25,2.07,2.07,0,0,1-1.4.8,1.17,1.17,0,0,1-.6-.1.84.84,0,0,0-.3-.25c-.07,0-.1-.2-.1-.7m4.45.15q-.8,2.4-1.65,2.85a.92.92,0,0,1-.7-.6,1.83,1.83,0,0,1,0-.55,2.32,2.32,0,0,1,.65-1.5,1.4,1.4,0,0,1,1.45-.65ZM163,201.7a3.09,3.09,0,0,1,1.3-2.1c.83-.77,1.25-.53,1.25.7q-1.05,2.35-1.8,2.55a.93.93,0,0,1-.7-.55,2.12,2.12,0,0,1-.05-.6M125.5,189a1.19,1.19,0,0,0,.45.1c.1,0,.15.2.15.5s-.4.65-1.2,1.05a1.07,1.07,0,0,1-.6-1.05,3.26,3.26,0,0,1,1.2-.6m2,1.1c.83,0,1.25.3,1.25,1a1.46,1.46,0,0,1-1.35,1.35,1.07,1.07,0,0,1-1-.5,1.16,1.16,0,0,1-.15-.6c0-.83.43-1.25,1.3-1.25m5,30.3c.73-.3,1.1.27,1.1,1.7a5.12,5.12,0,0,1-.05.9,1.36,1.36,0,0,1-1.3.7,7.93,7.93,0,0,1-.9-.8c0-1.33.38-2.17,1.15-2.5m-2.9.35a1.27,1.27,0,0,1,0,.5,2.32,2.32,0,0,1-1.5,2l-.55-.55a.82.82,0,0,1-.2-.5c0-.2.18-.47.55-.8a2.2,2.2,0,0,1,1.55-.6Zm38.1-20.1a3.19,3.19,0,0,1,.05.65,2.51,2.51,0,0,1-.25,1,1.35,1.35,0,0,1-.8.75,1.79,1.79,0,0,1-.6-1l.15-.75a1.51,1.51,0,0,1,1.35-.9.78.78,0,0,0,.1.25m1.4.75a1.12,1.12,0,0,1,.6-1.1,1.51,1.51,0,0,1,.75,1.3,1.72,1.72,0,0,1-.75.6c-.4-.43-.6-.7-.6-.8"/><path class="cls-6" d="M268.78,214.7q1.55,8.46-5.58,9.05Q222,227.55,192,219.7q-2.55-1.3-2.25-5.15.19-2.75,2.85-10.55a237.61,237.61,0,0,1,9.3-23.35q14.06-31.2,22.25-44.55,5.29-8.65,7.75-8.25,2.1.3,7,9.43,9.48,17.55,20.13,45.65,8.07,21.28,9.73,31.77"/><path class="cls-7" d="M237.63,178.53c2.47,1.26,3.38,1.85,2.69,1.77a26.79,26.79,0,0,1-3.25-.7c-1.36,1.69-2.88,3.66-4.57,5.93q2.7,35.33,2.38,54.1c-1.41-.09-3-.16-4.93-.23q1.06-14.73.6-42.25l-10.3-9q-.75-1.55,4.22,2.33t6.13,4.62c-.08-3.52-.15-6.81-.22-9.85a1.39,1.39,0,0,1,0-.3.75.75,0,0,1,0-.2l-.06-2q-.91-36.54,2.38-.1a57.93,57.93,0,0,1,6.7-7.7c1.45-1.36.85-.18-1.77,3.53"/><path class="cls-8" d="M248.7,157.35a2.4,2.4,0,0,1-1.85,1.05q-1.5,0-1.95-.75a2.09,2.09,0,0,1-.15-.9,2.31,2.31,0,0,1,2.35-2.6c1.57-.17,2.35.42,2.35,1.75a2.59,2.59,0,0,1-.75,1.45m1.55,36.6a1.27,1.27,0,0,1,.05.5q0,1.05-2.55,1.05a.73.73,0,0,1-.8-.5,1,1,0,0,1-.1-.55c0-.53.35-.85,1.05-.95a4.23,4.23,0,0,1,2.25.5Zm-4.4,4.9c0-1.47.82-2,2.45-1.65s2.45,1.15,2.45,2.25a1.77,1.77,0,0,1-.6,1.35,2.09,2.09,0,0,1-1.45.5,2.62,2.62,0,0,1-2.3-1.15,2.15,2.15,0,0,1-.55-1.3m-26.65-52c1.73-.23,2.6.37,2.6,1.8a2,2,0,0,1-.9,1.65,4.4,4.4,0,0,1-2.4.6,1.7,1.7,0,0,1-1.9-2c0-1.2.87-1.9,2.6-2.1m.25,12.3a1.9,1.9,0,0,1-1.4.5,1.87,1.87,0,0,1-1.75-.75c-.13-.53-.2-.82-.2-.85,0-1.17.63-1.75,1.9-1.75s1.9.53,1.9,1.7a1.55,1.55,0,0,1-.45,1.15m21-2.75c0-.93.42-1.43,1.25-1.5a1.06,1.06,0,0,1,1.25,1.2,1.54,1.54,0,0,1-.3.85,1.11,1.11,0,0,1-1.05.7c-.77,0-1.15-.42-1.15-1.25m-12.7,44.35a2,2,0,0,1-1.7,1.05h-.3l-.25.1a1.93,1.93,0,0,1-.35-.35,1.55,1.55,0,0,1-.4-1.15,1.89,1.89,0,0,1,1.8-2.1c1.17-.17,1.75.25,1.75,1.25a2.26,2.26,0,0,1-.55,1.2m-6.95-4.25a.73.73,0,0,1-.8-.5,1,1,0,0,1-.1-.55c0-.73.63-1.32,1.9-1.75s1.85-.1,1.85,1a1.5,1.5,0,0,1-.9,1.35,4.12,4.12,0,0,1-1.95.45m-16.2,25.55c-1.1,1.3-1.92,1.95-2.45,1.95q-1.8,0-1.8-2.1c0-1,1-2.07,3-3.1s2.9-.8,2.9.7c0,.43-.53,1.28-1.6,2.55m2.05.4c0-.77.52-1.43,1.55-2s1.5-.2,1.5,1.1c0,.6-.67,1.27-2,2-.5,0-.82-.17-.95-.5a1.33,1.33,0,0,1-.1-.6"/><path class="cls-9" d="M293.92,272.15c0-7.76-4.51-12.5-10.51-12.5h-32c-4.68,0-5.5-1.58-5.5-3.5s.82-3.5,5.5-3.5h3.83a8.53,8.53,0,0,0,8.5-8.5v-1.5a8.52,8.52,0,0,0-8.5-8.5H14.59a8.53,8.53,0,0,0-8.51,8.5v1.5a8.53,8.53,0,0,0,8.51,8.5H44.75c4.68,0,5.5,1.57,5.5,3.5s-.82,3.5-5.5,3.5h-5.5c-6.83,0-11.51,5-11.51,12.5s4.28,12.5,11.51,12.5H283.41c6.34,0,10.51-4.74,10.51-12.5"/><path class="cls-9" d="M275.5,298.4a8.89,8.89,0,0,1-5.7,1.6q-5.06,0-6.85-2.4a4.1,4.1,0,0,1-.85-2.6,4.86,4.86,0,0,1,2.35-4.6,7.91,7.91,0,0,1,5.2-.65,11.87,11.87,0,0,1,5.15,2.05c1.57,1.1,2.35,2.28,2.35,3.55a3.81,3.81,0,0,1-1.65,3M22.4,279.1a5.53,5.53,0,0,1-4.15,1.65c-2.57,0-4.23-.72-5-2.15-.27-1.47-.4-2.23-.4-2.3a5.39,5.39,0,0,1,1.7-4.1,5.54,5.54,0,0,1,3.7-1.6,4.62,4.62,0,0,1,3.7,1.3,6,6,0,0,1,1.7,4.55,4,4,0,0,1-1.25,2.65"/><path class="cls-10" d="M37.55,241l.3-.1A17.93,17.93,0,0,1,42,244.1c0,.23,0,.18,0-.15a98.72,98.72,0,0,0-2-9.85q0-3.56,3.4,3t3.4,9.85a3.2,3.2,0,0,1-.1.65c0,.08,0,.38-.05.9-1.09-1.75-1.72-2.81-1.9-3.17.33,1.92.5,2.9.5,2.92a1.18,1.18,0,0,1-.25.7,1.2,1.2,0,0,1-1,.5c-.4,0-1-.65-1.7-2a13.17,13.17,0,0,0-2-2.9,20,20,0,0,1,1.4,3.9,1.23,1.23,0,0,1-.25.75,1,1,0,0,1-.8.4,4.06,4.06,0,0,1-1.25-.55,3.27,3.27,0,0,1-1.1-.7,2.07,2.07,0,0,1,1.1-.95,39.62,39.62,0,0,1-2-5.75,1.35,1.35,0,0,1,.25-.7m-1.5,5.75a1.77,1.77,0,0,1,1.1,1.65c0,.77-.32,1.15-.95,1.15s-1-.35-1.15-1.05l-.1-.95c0-.9.37-1.17,1.1-.8"/><path class="cls-10" d="M219.85,266.35a8.3,8.3,0,0,1,1.75-2.7c.7-.7,1.09-.86,1.15-.5a33.16,33.16,0,0,1-.1,4.3v1l.1.05a2.38,2.38,0,0,1,.6-.6,1.69,1.69,0,0,1,.9-.4c.46,0,.74.16.83.48-.29.52-.56,1.08-.83,1.67s-.59,1.13-1.05,2a2.41,2.41,0,0,1-.67.12,8.75,8.75,0,0,1-1.13-3.75h-.05c-.87,1.95-1.51,2.72-1.9,2.32s-1-2.13-1.95-5.22a32.3,32.3,0,0,0-.07,7.8c-.29,0-.67-.32-1.15-.88q-1.28-1.45-1-8.39.56-7.28,1.77-4.18l2.7,6.8Zm-6.95,6-1.22-3.2c0-.13-.06-.25-.08-.37q1.5.15,2,2.55a1,1,0,0,1-.65,1m13.8-1.27c-.1.15-.3.45-.57.9-.29-.11-.43-.42-.43-.95a2,2,0,0,1,1.1-1.75c.44-.25.74-.26.9,0a19.06,19.06,0,0,0-1,1.82"/></g></g></svg>