<svg id="decor" xmlns="http://www.w3.org/2000/svg" xmlns:xlink="http://www.w3.org/1999/xlink" viewBox="0 0 300 300"><defs><style>.cls-1{fill:none;}.cls-2{opacity:0.75;}.cls-3{clip-path:url(#clip-path);}.cls-4{fill:#3a8c53;}.cls-10,.cls-11,.cls-12,.cls-14,.cls-4,.cls-5,.cls-6,.cls-7,.cls-9{fill-rule:evenodd;}.cls-5{fill:#52a86f;}.cls-6{fill:#aa8c65;}.cls-7{fill:#bfd072;}.cls-8{fill:#ffe6bb;}.cls-9{fill:#e2c396;}.cls-10{fill:#a2af56;}.cls-11{fill:#f7eee2;}.cls-12{fill:#ead8c1;}.cls-13{clip-path:url(#clip-path-2);}.cls-14{fill:#b0d8ff;}</style><clipPath id="clip-path"><rect class="cls-1" x="6.08" y="145.69" width="287.83" height="154.31"/></clipPath><clipPath id="clip-path-2"><rect class="cls-1" x="134.29" y="161.47" width="55.1" height="40.73"/></clipPath></defs><title>Plan de travail 10</title><g class="cls-2"><g class="cls-3"><path class="cls-4" d="M80.58,148q3.48-5.56,8.62,2.3t10.2,24.5a279.87,279.87,0,0,1,7.35,30.45q2.9,15.19,2.9,22,0,.15.15,6.35a12.63,12.63,0,0,1-1.27,4.7H56.65q-.37-2.07,2.93-19.57,3.69-19.57,7.6-33.45t6.9-22.8A68.83,68.83,0,0,1,80.58,148"/><path class="cls-5" d="M9.15,179.78v-4.6q.9-3.12,2.95-9.58l.57-1.77a19.33,19.33,0,0,1,2.93-.63q4.4-.64,19-1.65H47.25q17.45,2.85,23.3,4,14.63,3.14,18,6v27.5q-.45,10.65-4,39.5c-.08.62-.15,1.22-.22,1.83l-3.13-.13q-10.65.34-21.7,1.3-30.75-1-47.3-1.45-1-8.11-1.25-12.35-.6-9.8-1.1-26.5-.47-14.1-.75-21.47"/><path class="cls-6" d="M31.2,173.3l1.35-1.2q7.2,8.13,18.42,21.08.31-8.85.63-18.65l1.62-.46q-.11,4.85-.37,12.93-.21,6.36-.2,21.95,17.22-12.48,27.57-20l1.38,1.4-.35.27q-6.54,5.25-12.75,9.86a31.15,31.15,0,0,1,3,4.12c-.42.48-.83,1-1.25,1.5-1.75-2.05-3-3.47-3.62-4.27q-7.25,5.28-14,9.72,0,6.23.07,13.75-.33,10-.59,18.23l-2.85.5q.22-6.61.5-14.61-2.72-1.51-12.18-9-6.54-5.21-11.52-9.4c.46-.71.9-1.37,1.3-2q7.94,6.35,22.47,18,.46-13.63,1-31.08-6.52-7.48-12.15-13.9l-9.67,8.8c-.21-.38-.35-.66-.43-.85s-.26-.57-.4-.87c.73-.71,1.56-1.48,2.5-2.33a62.93,62.93,0,0,1,7-5.88q-3.48-4-6.58-7.52"/><path class="cls-4" d="M45,172.7l-.09-.9c0-1.33.48-1.92,1.45-1.75a1.69,1.69,0,0,1,1.45,1.85c0,1.33-.5,2-1.4,2A1.37,1.37,0,0,1,45,172.7m20-5.35c-.07-.5-.1-.77-.1-.8a3.42,3.42,0,0,1,2.05-3.4c1.33-.6,2-.1,2,1.5a4.45,4.45,0,0,1-.65,1.95q-.8,1.5-1.8,1.5a1.48,1.48,0,0,1-1.5-.75m19.1,15a2.35,2.35,0,0,1-.55,1.35,1.91,1.91,0,0,1-1.6.95,1.79,1.79,0,0,1-1.7-.8,2,2,0,0,1-.2-.9c0-1.13.68-1.88,2-2.25s2,.18,2,1.65m-6.5.35c-.07,0-.1-.3-.1-.9,0-1.33.47-2.1,1.4-2.3s1.35.42,1.35,1.75-.52,1.85-1.55,1.85a1.46,1.46,0,0,1-.7-.1,1.73,1.73,0,0,0-.4-.3m-30.2,11.92a2.39,2.39,0,0,1,.34,1.42,1.89,1.89,0,0,1-.75,1.71,1.79,1.79,0,0,1-1.85.34,2,2,0,0,1-.68-.62c-.66-.92-.54-1.93.35-3s1.74-1,2.59.17m-5.08,4.07c-.05,0-.26-.18-.61-.67-.77-1.08-.84-2-.2-2.68s1.34-.45,2.12.63.66,1.81-.18,2.41a1.69,1.69,0,0,1-.63.33,2.39,2.39,0,0,0-.5,0M77.1,218.08c-.27-.8-.4-1.22-.4-1.25,0-1.54.85-2.2,2.55-2s2.55.95,2.55,2.25a2.07,2.07,0,0,1-.55,1.45,2.22,2.22,0,0,1-1.7.69,2.72,2.72,0,0,1-2.45-1.14m-55.38-35-.34.1a8.56,8.56,0,0,1-.85-1,2,2,0,0,1-.11-.75,1.19,1.19,0,0,1,1-.35c.06.1.28.61.65,1.55Zm-2.39,1a1.26,1.26,0,0,1-.8.35,1.45,1.45,0,0,1-1.36-.9,3.11,3.11,0,0,0-.25-.8c0-1.57.49-2.14,1.46-1.7a2.22,2.22,0,0,1,1.45,2.15,1.17,1.17,0,0,1-.5.9M13.78,214.4c0,1-.61,1.55-1.8,1.55a3.29,3.29,0,0,1-2.4-.75,1.73,1.73,0,0,1-.5-1.2c0-1.23.78-1.72,2.34-1.45s2.36.85,2.36,1.85m-3.7,4.45c0-.9.68-1.55,2.05-1.95s2-.07,2,1c-1.6,1.43-2.55,2.15-2.85,2.15a1.15,1.15,0,0,1-1.11-.55,2,2,0,0,1-.09-.65m53.42,12.3c-1.27,0-1.9-.58-1.9-1.75,0-.93.58-1.43,1.75-1.5s1.75.47,1.75,1.5-.53,1.75-1.6,1.75m-17.85-20.5c-1.27,0-1.9-.58-1.9-1.75,0-.93.58-1.43,1.75-1.5s1.75.47,1.75,1.5-.53,1.75-1.6,1.75"/><path class="cls-5" d="M257,155.75c.2.6.4,1.23.6,1.9q2.06,7,2.95,10.4V173q-.3,8-.75,23.2-.5,18-1.1,28.65-.25,4.6-1.25,13.35l-47.3,1.6q-11.06-1.05-21.7-1.45l-3.15.2c-.07-.7-.13-1.37-.2-2q-3.56-31.2-4-42.7V164.1q3.45-3,18-6.45,5.85-1.31,23.3-4.35h12.65q14.59,1,19,1.75a22.52,22.52,0,0,1,2.9.7"/><path class="cls-6" d="M189.1,178.5l27.6,20.05q0-16.31-.2-22l-.4-12.9,1.65.45.6,18.65,18.45-21.1,1.35,1.2-6.6,7.55a50.87,50.87,0,0,1,7,5.85l2.5,2.35-.4.85a3.22,3.22,0,0,1-.45.85l-9.65-8.8-12.15,13.9,1.05,31.1,22.45-18,1.3,2q-5.06,4.3-11.5,9.4-9.41,7.45-12.2,9.05l.8,23.25c-.87-.17-1.82-.33-2.85-.5l-.9-26.9.1-13.75q-6-3.9-14-9.7l-3.6,4.25-1.25-1.5a31.65,31.65,0,0,1,3-4.1q-5.7-4.25-12.75-9.85l-.35-.3Z"/><path class="cls-4" d="M187.25,215.4c0-1,.58-1.53,1.75-1.5s1.75.57,1.75,1.5c0,1.17-.63,1.75-1.9,1.75-1.07,0-1.6-.58-1.6-1.75m-1.55-4.7s-.13.45-.4,1.25a2.7,2.7,0,0,1-2.45,1.15,2.2,2.2,0,0,1-1.7-.7,2,2,0,0,1-.55-1.45q0-1.95,2.55-2.25c1.7-.2,2.55.47,2.55,2m33.6-43a1.37,1.37,0,0,1-1.4,1.2c-.9,0-1.37-.67-1.4-2a1.68,1.68,0,0,1,1.45-1.85c1-.17,1.45.42,1.45,1.75Zm-28.2,9.05a1.73,1.73,0,0,0-.4.3,1.46,1.46,0,0,1-.7.1c-1,0-1.55-.62-1.55-1.85s.45-1.92,1.35-1.75,1.4,1,1.4,2.3c0,.6,0,.9-.1.9m-2.45.25a2,2,0,0,1-.2.9,1.79,1.79,0,0,1-1.7.8,1.91,1.91,0,0,1-1.6-.95,2.35,2.35,0,0,1-.55-1.35c0-1.47.67-2,2-1.65s2.05,1.12,2.05,2.25m12.1-19.2c0-1.6.67-2.1,2-1.5a3.42,3.42,0,0,1,2.05,3.4s0,.3-.1.8a1.48,1.48,0,0,1-1.5.75q-1,0-1.8-1.5a4.45,4.45,0,0,1-.65-1.95m59.1,55.8a1.14,1.14,0,0,1-1.1.55c-.3,0-1.25-.72-2.85-2.15,0-1.07.67-1.4,2-1S260,212.05,260,213a1.71,1.71,0,0,1-.1.65m.6-4.3a3.29,3.29,0,0,1-2.4.75c-1.2,0-1.8-.52-1.8-1.55s.78-1.62,2.35-1.85,2.35.22,2.35,1.45a1.78,1.78,0,0,1-.5,1.2M244.8,172.75a1.2,1.2,0,0,1,.95.35,2.08,2.08,0,0,1-.1.75,7.77,7.77,0,0,1-.85,1l-.35-.1-.3-.45c.37-.93.58-1.45.65-1.55m3-.05c1-.43,1.45.13,1.45,1.7a3.87,3.87,0,0,0-.25.8,1.44,1.44,0,0,1-1.35.9,1.24,1.24,0,0,1-.8-.35,1.17,1.17,0,0,1-.5-.9,2.21,2.21,0,0,1,1.45-2.15"/><path class="cls-7" d="M293.92,272.15c0-7.76-4.51-12.5-10.51-12.5h-32c-4.68,0-5.5-1.58-5.5-3.5s.82-3.5,5.5-3.5h3.83a8.53,8.53,0,0,0,8.5-8.5v-1.5a8.52,8.52,0,0,0-8.5-8.5H14.59a8.53,8.53,0,0,0-8.51,8.5v1.5a8.53,8.53,0,0,0,8.51,8.5H44.75c4.68,0,5.5,1.57,5.5,3.5s-.82,3.5-5.5,3.5h-5.5c-6.83,0-11.51,5-11.51,12.5s4.28,12.5,11.51,12.5H283.41c6.34,0,10.51-4.74,10.51-12.5"/><path class="cls-7" d="M275.5,298.4a8.89,8.89,0,0,1-5.7,1.6q-5.06,0-6.85-2.4a4.1,4.1,0,0,1-.85-2.6,4.86,4.86,0,0,1,2.35-4.6,7.91,7.91,0,0,1,5.2-.65,11.87,11.87,0,0,1,5.15,2.05c1.57,1.1,2.35,2.28,2.35,3.55a3.81,3.81,0,0,1-1.65,3M22.4,279.1a5.53,5.53,0,0,1-4.15,1.65c-2.57,0-4.23-.72-5-2.15-.27-1.47-.4-2.23-.4-2.3a5.39,5.39,0,0,1,1.7-4.1,5.54,5.54,0,0,1,3.7-1.6,4.62,4.62,0,0,1,3.7,1.3,6,6,0,0,1,1.7,4.55,4,4,0,0,1-1.25,2.65"/><path class="cls-8" d="M14.55,272.2a5.39,5.39,0,0,0-1.7,4.1c0,.07.13.83.4,2.3.77,1.43,2.43,2.15,5,2.15a5.53,5.53,0,0,0,4.15-1.65,4,4,0,0,0,1.25-2.65A6,6,0,0,0,22,271.9a4.62,4.62,0,0,0-3.7-1.3,5.54,5.54,0,0,0-3.7,1.6"/><path class="cls-8" d="M203.6,243.44s25.82-1.84,27.55-9.29H48.88c-2.67,4.29-1.23,9.47,21,9.72l-21.78,9.2a2.86,2.86,0,0,1,2.18,3.08c0,1.92-.82,3.5-5.5,3.5h-5.5c-6.83,0-11.51,5-11.51,12.5s4.28,12.5,11.51,12.5h211.2Z"/><path class="cls-9" d="M69.63,246.67c.1.07.15.3.15.7,0,.64-.73,1.07-2.2,1.3a1.63,1.63,0,0,1-.75-.1l0-.1-.2-.1c-.07,0-.1-.25-.1-.65s.3-.78.9-1.05a2.84,2.84,0,0,1,2.1-.1Zm3.85,1.8a3.3,3.3,0,0,0,.2.9l-.2.9a2.62,2.62,0,0,1-1.3.2l-1.5-.2a.49.49,0,0,0-.1-.2c-.07-.06-.1-.3-.1-.7a1.82,1.82,0,0,1,0-.6.53.53,0,0,0,.15-.3c.13,0,.43,0,.9-.05a13.89,13.89,0,0,1,1.9.05m48.5,4.7-.1-.6a1.86,1.86,0,0,1,2-.3l.1.3c-.1.3-.43.57-1,.8Zm3.4,1.3h-.75c-.17,0-.25-.25-.25-.65a1.05,1.05,0,0,1,.35-.9,3.37,3.37,0,0,1,.65-.25,1.1,1.1,0,0,1,.7,1.1l-.2.5a1.1,1.1,0,0,1-.5.2m16,24.8a1.91,1.91,0,0,1-.9-.15,1.57,1.57,0,0,1-.4-.35,7.59,7.59,0,0,0,.65-.75,1.94,1.94,0,0,1,1.55.05l.2.6a.74.74,0,0,1-.25.4,1.22,1.22,0,0,1-.85.2m11.3.8a1.77,1.77,0,0,1-.9.8c-.4.44-.6.32-.6-.35,0-.43.13-.68.4-.75h.8Zm51.5-25.9a3.4,3.4,0,0,1-1.2.8c-.4.34-.6.17-.6-.5,0-.43.12-.68.35-.75a3.19,3.19,0,0,1,.65-.05l.35.15a.89.89,0,0,1,.45.35m2.7,1,.1.75-.1.75a5.25,5.25,0,0,1-2,.3l-.15-.1c-.1-.06-.15-.3-.15-.7a1.13,1.13,0,0,1,.65-.9,1.81,1.81,0,0,1,1.65-.1"/><path class="cls-10" d="M29.46,239.48a9.92,9.92,0,0,1,.59,2.45,2.28,2.28,0,0,1-.3,1.3H29.4l-.44-2.7c.09-.67.14-1,.14-1.05Zm-2.5-.36c1.33,2.44,2,4,2,4.61v.85s-.12,0-.25.15a.93.93,0,0,1-.61.14c-.39,0-1.05-1-2-3.14A19.24,19.24,0,0,1,25,238.37c0-1.93.66-1.68,2,.75m6.79,3.66a2.8,2.8,0,0,1-.6.3,1.55,1.55,0,0,1-.44-.21,1.09,1.09,0,0,1-.16-.69.92.92,0,0,1,.6-1,2,2,0,0,1,.6,1.6m202.32-1.14a44.9,44.9,0,0,0,.75,4.65,24.41,24.41,0,0,1,.6,4.45c0,.5,0,.76-.15.8l-.05.15a1,1,0,0,1-.55.1c-.37,0-.7-1-1-3.15s-.35-3.22-.35-3.25a10.45,10.45,0,0,1,.25-2,7.59,7.59,0,0,1,.5-1.75m-4.2-1.4q2.15,1.39,3,9.95a2.61,2.61,0,0,1-.1.6.72.72,0,0,1-.65.25c-.53,0-1.1-1.39-1.7-4.15l-.75-4.15c.1-1,.15-1.87.15-2.5m9.9,8.1a2.14,2.14,0,0,1,.2-.85,1.31,1.31,0,0,1,.85-.8l.25.2a1.17,1.17,0,0,1,.1.6,2.69,2.69,0,0,1-.3.95,1.87,1.87,0,0,1-.5.8,2.08,2.08,0,0,1-.45-.2,1.23,1.23,0,0,1-.15-.7m-1.5-1.2s.07.1.2.2.1.2.1.5a3.38,3.38,0,0,1-.2,1,2.56,2.56,0,0,0-.25.9l-.3.15c-.2-.07-.32-.14-.35-.2a2.43,2.43,0,0,1-.05-.65,8.44,8.44,0,0,1,.05-1.1,1.07,1.07,0,0,1,.8-.8"/><path class="cls-11" d="M153.19,215.35V205.5a18.46,18.46,0,0,0,.2-2.2q1.5-.45,2.4-.75a12.05,12.05,0,0,1,1.65-.45,1,1,0,0,1,.15.35V215l-4.4.4"/><path class="cls-12" d="M148,212.75V212c4.64-.73,7.89-1.32,9.75-1.75a58.7,58.7,0,0,1,6.4-1.1q-.39,3.25-.75,7.75-.19,2.35-.35,6.7h-1c-4.57.43-9.11.8-13.65,1.1q-.39-6.15-.4-11.95"/><g class="cls-2"><g class="cls-13"><path class="cls-14" d="M161.24,163.4c0-1.17.37-1.8,1.1-1.9s1,.22,1,1.05q0,.9-1.35,1.65l-.6-.15c-.13-.07-.2-.28-.2-.65m-6.75,2.4a4.15,4.15,0,0,0-.6,1,3,3,0,0,1-.95-1.85l.1-.9.65,0a4.5,4.5,0,0,1,1.15,0s0,.07.1.1.05.18.05.55a2.52,2.52,0,0,1-.5,1.05m-.1,5.9c0-.57,0-.87,0-.9,0-.93.43-1.4,1.3-1.4s1.25.4,1.25,1.2a2.19,2.19,0,0,1-.45,1.35,1.11,1.11,0,0,1-.9.55,1.09,1.09,0,0,1-1.15-.8m1.35,1.55a2.57,2.57,0,0,1,1.65,2.65,42.52,42.52,0,0,1-.45,4.9,45.35,45.35,0,0,0-.4,4.75c0,.63,0,1.37.1,2.2.13.57.25,1.17.35,1.8a4.66,4.66,0,0,1,.4-1,17,17,0,0,1,3.65-6.7,22.7,22.7,0,0,1,9.45-6.5q5.46-2,9.4-.65,4.25,1.5,4.25,6.45a3.94,3.94,0,0,1-.1.9,3.13,3.13,0,0,0-.15.9l-.15.25-.45.1a51.55,51.55,0,0,0-6.5-3.7q2.66,2.4,2.65,7.65a2.28,2.28,0,0,1-.15.9l-.45.6q-1.4-2.45-2.45-4.05-2-3-4.5-3.05-6,0-10.7,8a46.24,46.24,0,0,0-4.45,10.6l-.55.15a4,4,0,0,1-.7-1.45,2.08,2.08,0,0,1-.1-.6h0a48.45,48.45,0,0,0-2.5-8.4q-2.51-6-5.5-5.95a5.11,5.11,0,0,0-4.6,2.8c-1.4,2.4-2.15,3.63-2.25,3.7a3.54,3.54,0,0,1-1-1.75,5.85,5.85,0,0,1-.3-1.75,5.48,5.48,0,0,1,2.65-5.15,16.9,16.9,0,0,0-1.85.1c-.17.07-.25-.18-.25-.75q0-3.25,2.7-4,2.51-.7,5.95,1a15.7,15.7,0,0,1,6,4.95,6,6,0,0,1,.55.75q-.79-8.15-.8-9.5c0-1.2.55-1.57,1.65-1.1m24.8-1.7c0-.73.57-1.12,1.7-1.15s1.65.35,1.65,1.15c0,1-.5,1.45-1.5,1.45a1.74,1.74,0,0,1-1.65-.7,1.35,1.35,0,0,1-.2-.75m-42.75,9.65a4.41,4.41,0,0,1-1.3,2.15,5.71,5.71,0,0,1-.45-.65,2.68,2.68,0,0,1-.1-.9c0-.4.38-.83,1.15-1.3a1.06,1.06,0,0,0,.5.1c.13,0,.2.23.2.6m-3.5,8.2c0-1.13.48-1.7,1.45-1.7s1.4.57,1.4,1.7a1.4,1.4,0,0,1-.35.8,2.07,2.07,0,0,1-1.1.65l-1.25-.4a2.16,2.16,0,0,1-.15-1m8,8.65a1.53,1.53,0,0,1-.2-.9c0-.4.42-.75,1.25-1.05s1.2,0,1.2.75a1.33,1.33,0,0,1-.55.85,4.81,4.81,0,0,1-1.05.65,2.5,2.5,0,0,1-.65-.3m45.7-13.75a1.26,1.26,0,0,1,1.45,1.4,2,2,0,0,1-.3,1.05,1.22,1.22,0,0,1-1.1.7c-.47,0-.86-.32-1.2-.95s-.35-.87-.35-.8c0-.93.5-1.4,1.5-1.4m-7.65,16.3a3.26,3.26,0,0,1,.55-.1,2,2,0,0,1,.85.7c0,.47-.28.8-.85,1a1.76,1.76,0,0,1-.8-.4c0,.23,0,.07,0-.5,0-.37.1-.6.3-.7m0-6.95,0-1c0-.73.23-1.17.7-1.3s1.12.23,1.85,1.3l-.15,1-.3.25a1.43,1.43,0,0,1-.8.2,1.81,1.81,0,0,1-.75-.1,1.93,1.93,0,0,0-.5-.35"/></g></g><path class="cls-11" d="M111.29,227q-4.4-3.19-4.4-4.35a5.49,5.49,0,0,1,.45-2.45h97.2A3.07,3.07,0,0,1,205,222q0,1.8-3.15,4.7a15.35,15.35,0,0,1-3.07,2.23c0,.15.11.31.17.47q1.5,4.05,2.95,9.3a3.78,3.78,0,0,1,0,.7h-89c.14-1.21.38-3.06.7-5.55.24-1.89.45-3.53.65-4.92a27.16,27.16,0,0,1-2.9-1.88"/></g></g></svg>