<svg id="decor" xmlns="http://www.w3.org/2000/svg" xmlns:xlink="http://www.w3.org/1999/xlink" viewBox="0 0 300 300"><defs><style>.cls-1,.cls-2{fill:none;}.cls-2{clip-rule:evenodd;}.cls-3{opacity:0.75;}.cls-4{clip-path:url(#clip-path);}.cls-5{fill:#f4ddbd;}.cls-10,.cls-11,.cls-12,.cls-16,.cls-19,.cls-21,.cls-22,.cls-23,.cls-24,.cls-25,.cls-26,.cls-27,.cls-28,.cls-30,.cls-31,.cls-32,.cls-5,.cls-7,.cls-8,.cls-9{fill-rule:evenodd;}.cls-6{clip-path:url(#clip-path-2);}.cls-7{fill:#666b7c;}.cls-8{fill:#e09e34;}.cls-9{fill:#c98a2f;}.cls-10{fill:#d3bba5;}.cls-11{fill:#6b665f;}.cls-12{fill:#dde5e8;}.cls-13{clip-path:url(#clip-path-3);}.cls-14{opacity:0.5;}.cls-15{clip-path:url(#clip-path-4);}.cls-16{fill:#fff;}.cls-17{opacity:0.25;}.cls-18{clip-path:url(#clip-path-5);}.cls-19{fill:#a56817;}.cls-20{clip-path:url(#clip-path-6);}.cls-21{fill:#d9beea;}.cls-22{fill:#ea7b28;}.cls-23{fill:#d6d5d4;}.cls-24{fill:#dd902a;}.cls-25{fill:#d6a7ff;}.cls-26{fill:#9ad3f4;}.cls-27{fill:#d3d3d3;}.cls-28{fill:#bcbcbc;}.cls-29{clip-path:url(#clip-path-7);}.cls-30{fill:#f2b446;}.cls-31{fill:#c6872c;}.cls-32{fill:#aa6c1a;}</style><clipPath id="clip-path"><rect class="cls-1" x="-23.3" y="122.32" width="335.27" height="177.68"/></clipPath><clipPath id="clip-path-2"><path class="cls-2" d="M283.41,284.65H39.25c-7.23,0-11.51-5-11.51-12.5s4.68-12.5,11.51-12.5h5.5c4.68,0,5.5-1.58,5.5-3.5s-.82-3.5-5.5-3.5H14.59a8.53,8.53,0,0,1-8.51-8.5v-1.5a8.53,8.53,0,0,1,8.51-8.5H255.25a8.52,8.52,0,0,1,8.5,8.5v1.5a8.53,8.53,0,0,1-8.5,8.5h-3.83c-4.68,0-5.5,1.57-5.5,3.5s.82,3.5,5.5,3.5h32c6,0,10.51,4.74,10.51,12.5s-4.17,12.5-10.51,12.5m-6.26,10.7c0-1.27-.78-2.45-2.35-3.55a11.87,11.87,0,0,0-5.15-2.05,7.91,7.91,0,0,0-5.2.65,4.86,4.86,0,0,0-2.35,4.6,4.1,4.1,0,0,0,.85,2.6q1.8,2.4,6.85,2.4a8.89,8.89,0,0,0,5.7-1.6,3.81,3.81,0,0,0,1.65-3m-253.5-18.9A6,6,0,0,0,22,271.9a4.62,4.62,0,0,0-3.7-1.3,5.54,5.54,0,0,0-3.7,1.6,5.39,5.39,0,0,0-1.7,4.1c0,.07.13.83.4,2.3.77,1.43,2.43,2.15,5,2.15a5.53,5.53,0,0,0,4.15-1.65,4,4,0,0,0,1.25-2.65"/></clipPath><clipPath id="clip-path-3"><path class="cls-2" d="M109.4,221.68a1.51,1.51,0,0,1-1.15-.55,2.36,2.36,0,0,1-.43-1.23c.12-2.34.27-4.94.43-7.8q.33-5.92.57-9.82c0-1.17.68-1.79,2.18-1.85l5.1-.28q24.5-1.35,41.2-1.35c3.45,0,7.8.08,13,.23,1.19.09,1.91.88,2.18,2.37q.63,8.22.75,17.8c0,1.05,0,2.07.05,3.05a1.74,1.74,0,0,1-1.7,1.78q-16.31-.83-40.15-1.63l-22-.72"/></clipPath><clipPath id="clip-path-4"><rect class="cls-1" x="131.9" y="196.15" width="43.84" height="30.21"/></clipPath><clipPath id="clip-path-5"><rect class="cls-1" x="24.5" y="175.6" width="228.69" height="9.17"/></clipPath><clipPath id="clip-path-6"><rect class="cls-1" x="176.42" y="122.32" width="26.25" height="18.81"/></clipPath><clipPath id="clip-path-7"><rect class="cls-1" x="61.24" y="142.45" width="9.23" height="20.3"/></clipPath></defs><title>Plan de travail 3</title><g class="cls-3"><g class="cls-4"><path class="cls-5" d="M293.92,272.15c0-7.76-4.51-12.5-10.51-12.5h-32c-4.68,0-5.5-1.58-5.5-3.5s.82-3.5,5.5-3.5h3.83a8.53,8.53,0,0,0,8.5-8.5v-1.5a8.52,8.52,0,0,0-8.5-8.5H14.59a8.53,8.53,0,0,0-8.51,8.5v1.5a8.53,8.53,0,0,0,8.51,8.5H44.75c4.68,0,5.5,1.57,5.5,3.5s-.82,3.5-5.5,3.5h-5.5c-6.83,0-11.51,5-11.51,12.5s4.28,12.5,11.51,12.5H283.41c6.34,0,10.51-4.74,10.51-12.5"/><path class="cls-5" d="M275.5,298.4a8.89,8.89,0,0,1-5.7,1.6q-5.06,0-6.85-2.4a4.1,4.1,0,0,1-.85-2.6,4.86,4.86,0,0,1,2.35-4.6,7.91,7.91,0,0,1,5.2-.65,11.87,11.87,0,0,1,5.15,2.05c1.57,1.1,2.35,2.28,2.35,3.55a3.81,3.81,0,0,1-1.65,3M22.4,279.1a5.53,5.53,0,0,1-4.15,1.65c-2.57,0-4.23-.72-5-2.15-.27-1.47-.4-2.23-.4-2.3a5.39,5.39,0,0,1,1.7-4.1,5.54,5.54,0,0,1,3.7-1.6,4.62,4.62,0,0,1,3.7,1.3,6,6,0,0,1,1.7,4.55,4,4,0,0,1-1.25,2.65"/><g class="cls-6"><path class="cls-7" d="M312,263.55H255.72Q272,278.63,286,292.45H234.4q-10.23-11.43-25.82-28.9h-46q4.5,15.51,8.41,28.9H110.17q3.93-13.4,8.41-28.9h-46Q57,281,46.8,292.45H-5.63q15.51-14.38,31.1-28.9H-14.88Q-6.65,257.93,3.45,251l8.67-5.85H-23.3q6.9-3.26,16.4-6.65Q5.57,234,15.3,231.6H32.53q-9,5.84-20.41,13.55H45.55l3.45-3.1L60.92,231.6H101.2q-5.4,6-12.15,13.55h34.82q2.19-7.56,3.91-13.55h25.64q1.72,6,3.91,13.55h34.82Q185.4,237.61,180,231.6h40.28l11.92,10.45,3.45,3.1h43.68l6.77,3.8q13.62,7.65,25.87,14.6m-239.35,0,13.48-15.1,3-3.3H45.55q-10.42,9.42-20.08,18.4Zm46,0h44c-.66-2.3-1.34-4.63-2-7q-1.75-6.09-3.27-11.4H123.87q-1.52,5.31-3.27,11.4c-.68,2.37-1.36,4.7-2,7m76.52-15.1,13.48,15.1h47.14q-9.65-9-20.07-18.4h-43.5l2.95,3.3"/></g><path class="cls-8" d="M80,205.75q-.81,8.82-2.12,22.82-13.87.66-40.5,1.13l-13.88.23-3.07,0q.24-1.64.48-3.15c2.32-.75,3.75-1.17,4.27-1.27l-.8-.15v0a8.79,8.79,0,0,0-3.35.48q.57-3.93,1-7.05l.14-.16a1,1,0,0,0,.93-1.17v-.08a6.53,6.53,0,0,1,.23,1.63,5.57,5.57,0,0,0-.75-4.3q1-7.22,1-8.42l1.93,0q7.56.09,19.12.3,7.65,0,29.05-.95Zm.18-2.05q-16.2.41-39.45.4l-15.1,0q-1,0-2,0c.07-2.68.16-5.5.27-8.44,2.19-.49,3.75-.87,4.68-1.13-1.59.05-3.14.13-4.65.25q.14-3.1.3-6.4c.26-4.79.43-8.14.53-10H82.22q-.31,5.85-1.57,19.8c-.14,1.61-.31,3.47-.5,5.6"/><path class="cls-9" d="M25.53,206.4c0-.69.06-1.47.07-2.33l15.1,0q23.25,0,39.45-.4c-.06.66-.12,1.34-.18,2.05H73.7q-21.4.94-29.05.95-11.55-.21-19.12-.3"/><path class="cls-9" d="M23.58,235.45l0-1c0-1.77-.06-3.28-.08-4.52l13.88-.23q26.63-.47,40.5-1.13c-.21,2.2-.42,4.49-.65,6.88Z"/><path class="cls-10" d="M52.35,191.4c-2.93-.1-4.65-.3-5.15-.6a2.64,2.64,0,0,1-1.1-1.6c-.27-.77.08-1.28,1-1.55a40.92,40.92,0,0,1,6.7-.7q5.2-.34,5.4,1.5a2.18,2.18,0,0,1-1.1,2.45c-.93.4-2.87.57-5.8.5M28.9,215.35c.2-2.43.48-3.85.85-4.25a2.79,2.79,0,0,1,1.7-.95A1.07,1.07,0,0,1,33,211a27.61,27.61,0,0,1,.4,5.6q.15,4.35-1.8,4.5t-2.4-.9c-.4-.8-.48-2.42-.25-4.85"/><path class="cls-9" d="M60.3,181.15a25.56,25.56,0,0,1,7-2.6q-10.54,6.19-12.95,6.2l-1.15-.05,0-.1c.67-.27,3-1.42,7.1-3.45m-9,26.25q3.45-.71,6.9-1.2c2.2-.3,3.78-.55,4.75-.75l0,.1a33.7,33.7,0,0,1-10.35,2.15l-1.25,0Zm18.2,10.2a55.58,55.58,0,0,1,12.5,0q-1.09.9-6.87.85-4.6,0-11.25.15a22.86,22.86,0,0,1,5.62-1"/><path class="cls-8" d="M252.1,205.65h2c0,.83.33,3.72,1,8.65a5.79,5.79,0,0,0-.75,4.4,5.75,5.75,0,0,1,.25-1.65v0a1.12,1.12,0,0,0,.9,1.25.28.28,0,0,1,.15.15q.5,3.15,1,7.2a9.08,9.08,0,0,0-3.35-.5v0l-.8.15c.53.1,1.95.55,4.25,1.35.17,1,.33,2.12.5,3.25-1,0-2-.05-3.1-.05q-5.85-.1-13.85-.3-26.6-.45-40.5-1.1Q198.5,214,197.65,205H204q21.41.94,29.05.95l19.1-.3m0-2.35H237q-23.25,0-39.45-.4-.3-3.3-.5-5.75-1.25-14.29-1.6-20.35h57.45q.15,3,.55,10.35c.1,2.23.2,4.42.3,6.55-1.5-.13-3-.22-4.65-.25q1.39.41,4.65,1.2.2,4.5.3,8.65Z"/><path class="cls-9" d="M252.05,203.3c0,.87,0,1.65,0,2.35L233,206q-7.65,0-29.05-.95h-6.3q0-1.09-.15-2.1,16.2.4,39.45.4Z"/><path class="cls-9" d="M254.05,235.45h-53.6c-.23-2.43-.45-4.77-.65-7q13.9.65,40.5,1.1,8,.19,13.85.3c0,1.27,0,2.8-.05,4.6,0,.33,0,.67,0,1"/><path class="cls-9" d="M214.65,204.8l0-.1c1,.2,2.55.45,4.75.75s4.6.75,6.9,1.25l-.1.25L225,207a32.84,32.84,0,0,1-10.35-2.2m-6.5,12.35a19.88,19.88,0,0,1,5.6,1q-6.65-.25-11.25-.15c-3.83,0-6.12-.27-6.85-.9a55.58,55.58,0,0,1,12.5,0M224.4,183.4l-1.15,0q-2.4,0-12.95-6.35a24.69,24.69,0,0,1,7,2.65c4.07,2.1,6.43,3.28,7.1,3.55Z"/><path class="cls-10" d="M210.4,221.1c-.4.77-1.2,1.08-2.4,1s-1.9-1.68-1.8-4.65a29.23,29.23,0,0,1,.4-5.75,1.07,1.07,0,0,1,1.5-.85,2.79,2.79,0,0,1,1.7.95c.37.43.65,1.88.85,4.35s.15,4.17-.25,5m20.4-34.85c1,.3,1.32.83,1,1.6a2.68,2.68,0,0,1-1.1,1.65c-.5.3-2.22.5-5.15.6s-4.87-.1-5.8-.5a2.23,2.23,0,0,1-1.1-2.5c.13-1.27,1.93-1.78,5.4-1.55a40.92,40.92,0,0,1,6.7.7"/><polygon class="cls-11" points="184.43 235 89.88 235 93.22 177.15 183.65 177.15 184.43 235"/><path class="cls-10" d="M97.05,191.07c.11-1.37,1.16-2.08,3.15-2.12l79-.75a2.16,2.16,0,0,1,2.2,2.05c.18,1.26-.51,1.9-2,1.93h-.15q-39.12-.59-80.05.92c-1.47,0-2.16-.65-2-2"/><path class="cls-12" d="M109.4,221.67a1.44,1.44,0,0,1-1.15-.55,2.21,2.21,0,0,1-.42-1.22c.11-2.34.26-4.94.42-7.8.22-3.95.41-7.23.58-9.82-.06-1.17.67-1.79,2.17-1.86l5.1-.27q24.5-1.35,41.2-1.35,5.17,0,13,.23c1.17.09,1.9.88,2.17,2.37q.63,8.22.75,17.8c0,1.05,0,2.07.05,3.05a1.74,1.74,0,0,1-1.7,1.78q-16.31-.83-40.15-1.63l-22-.73"/><g class="cls-13"><g class="cls-14"><g class="cls-15"><path class="cls-16" d="M173.16,196.23h1.25l1.33-.08a28.87,28.87,0,0,1-3,4.32q-1.94,2.33-7.28,4.76a45.7,45.7,0,0,1-8.3,2.84q-8.7,1.92-11.55,7.78-1.56,3.3-1.56,10l.05.46H131.9c.91-2.56,1.48-4.19,1.71-4.87a33.76,33.76,0,0,1,5.92-10.74,14.38,14.38,0,0,1,3.05-2.49,17.73,17.73,0,0,1,3.94-2,39.63,39.63,0,0,1,6.53-1.24q4.63-.61,9.11-1.63a20,20,0,0,0,7.37-3.1,9.74,9.74,0,0,0,3.63-4.07"/></g></g></g><path class="cls-8" d="M92.53,178.4l0,.75q0,3-2.65,31Q88.63,225.38,88,238q-.84.66-15.07-.06a262.38,262.38,0,0,1,2.57-34.77,202.46,202.46,0,0,0,2.65-24.8Z"/><path class="cls-9" d="M92.53,178.4h1.6l0,.75q-.25,9.1-.9,21.15-.35,6.85-2,27.1c-.21,3-.41,5.83-.57,8.52L88,238q.67-12.66,2-27.88,2.66-27.94,2.65-31Z"/><path class="cls-9" d="M86.1,191.65a10.25,10.25,0,0,0,.2-4h.15a9.5,9.5,0,0,1,.3,2.3,14.36,14.36,0,0,1-.55,2.9c0,.15-.07.29-.1.42a1.77,1.77,0,0,1,.55-.52,2.06,2.06,0,0,1,.35,1.1,2.85,2.85,0,0,1-.15.75,1.94,1.94,0,0,0-.2.7l-1.2,1.75-.4.05q-.15-.1-.15-.6a6.22,6.22,0,0,1,.5-1.9c0-.1.08-.2.13-.3q.14-.94.57-2.7m-11.73,20c-.1,1-.2,1.91-.29,2.89a52.76,52.76,0,0,0,1.87-5.1A49.7,49.7,0,0,0,78.1,198.9c-.82,3.57-2.08,7.83-3.73,12.76M77.9,237.8a19.35,19.35,0,0,0,.75-2.9l-.05-.3a15.1,15.1,0,0,0-1.45,3.05c-.06.18-.11.34-.16.51l.79,0,.12-.4m6.5-58.15c0,.37.1,2.1.3,5.2.23,3.37.42,5.7.55,7a.46.46,0,0,0,.3-.25l.1-4a43.83,43.83,0,0,0-.35-5.1c-.16-1.31-.24-2.69-.29-4.1h-.59c0,.39,0,.81,0,1.25m2.95,15.7a1.35,1.35,0,0,0-.5.4.83.83,0,0,0-.3.5c0,.33.07.42.2.25.5-.37.75-.65.75-.85a.69.69,0,0,0,0-.35Zm-5.38,43q1.08-5.35,3-15a122.27,122.27,0,0,0-4.75,15l1.77,0"/><path class="cls-9" d="M185.1,175.6l0,.8q-.2,3.19.65,32.35.3,15.9.1,29.1c-.93-.83-1.78-1.57-2.55-2.2v-8.9q-.3-21.15-.2-28.3.1-12.55.45-22a3.57,3.57,0,0,0,0-.8Z"/><path class="cls-8" d="M185.8,237.85q.19-13.2-.1-29.1-.85-29.15-.65-32.35l0-.8h14.45a229.9,229.9,0,0,0,1,25.9,277.31,277.31,0,0,1,.3,36.3q-14.25.75-15.1,0"/><path class="cls-9" d="M188.2,195l-1-1.8a2.85,2.85,0,0,0-.15-.75,3.86,3.86,0,0,1-.1-.75,2.21,2.21,0,0,1,.45-1.15,1.61,1.61,0,0,1,.5.55,2.68,2.68,0,0,1,0-.45,15.8,15.8,0,0,1-.35-3.05,8.87,8.87,0,0,1,.45-2.4h.15a12,12,0,0,0-.1,4.15,16,16,0,0,1,.35,2.8,1.05,1.05,0,0,1,.15.3,6.22,6.22,0,0,1,.35,2c0,.33-.07.53-.2.6Zm.5-9.9-.2,4.2a.46.46,0,0,0,.3.25q.34-2.06,1-7.3c.43-3.23.67-5.05.7-5.45s0-.82.06-1.2H190c-.15,1.44-.34,2.85-.58,4.2a41.15,41.15,0,0,0-.75,5.3m-2.25,8.1-.1,0a.69.69,0,0,0,0,.35c0,.2.18.5.65.9.13.17.22.08.25-.25a.83.83,0,0,0-.3-.55,1,1,0,0,0-.45-.4m6,45q-.42-4.23-3.69-15.8,1.22,10.23,1.92,15.83l1.77,0m8.77-24.06a158.77,158.77,0,0,1-3.81-17.19,50.71,50.71,0,0,0,1.35,11,48.9,48.9,0,0,0,2.49,7.92l0-1.73m-5.71,23.21a13.94,13.94,0,0,0-1.2-3.15l-.1.3a26.62,26.62,0,0,0,.55,3c0,.22.09.41.14.62l.78,0c-.05-.24-.1-.48-.17-.74"/><g class="cls-17"><g class="cls-18"><path class="cls-19" d="M199.51,176.8c0-.41,0-.81,0-1.2H183.5a3.57,3.57,0,0,1,0,.8l0,.75H93.22l-.07,1.25H82.22v-.1H24.78c-.06,1.2-.16,3-.28,5.33l53.26,1.14.32-2.29,14.34-.33L94,183.49l89.32-2,1.72-1.38,14.37-.29v2l53.77,1.47c-.15-2.91-.27-5.09-.34-6.49Z"/></g></g><g class="cls-14"><g class="cls-20"><path class="cls-21" d="M195.22,129.78q0,1.2-1.2,1.2a1.12,1.12,0,0,1-1.15-.55l-.2-.6a1.18,1.18,0,0,1,1.3-1.3,1.11,1.11,0,0,1,1.25,1.25m-5.9-5.7-.2-.65c0-.8.38-1.16,1.25-1.1a1.23,1.23,0,0,1,1.3,1.25,1.41,1.41,0,0,1-.2.7,1.26,1.26,0,0,1-1,.55,1.24,1.24,0,0,1-1.15-.75m7.6,15.7a1.37,1.37,0,0,1-.35-.75c0-1.8.73-2.73,2.3-2.8a2,2,0,0,1,2.4,2.25c0,1.24-.84,1.87-2.6,1.9a1.93,1.93,0,0,1-1.75-.6m3.85-3.6c0-.66.31-1,.95-1s.95.34.95.9a1,1,0,0,1-.3.7.64.64,0,0,1-.55.3,1.08,1.08,0,0,1-.9-.45,1.15,1.15,0,0,1-.15-.5m-5.85-1.4a3.35,3.35,0,0,1,1.4,2.6c0,1.6-.5,2.42-1.6,2.45a2.81,2.81,0,0,0-.7.55,3.69,3.69,0,0,1-2.4.55c-1.7,0-2.85-.38-3.45-1.25-.27-.9-.4-1.36-.4-1.4-.07-3.1,1.33-4.61,4.2-4.55a5.07,5.07,0,0,1,2.95,1.05m-11.1-3.55c0-1.36.68-2.1,2.15-2.2s2.21.67,2.25,2.4c0,1.34-.72,2-2.25,2a1.89,1.89,0,0,1-1.9-1,2.6,2.6,0,0,1-.25-1.2m-7.4,3.55a1.16,1.16,0,0,1,1.25-1.3,1.11,1.11,0,0,1,1.25,1.25,1.69,1.69,0,0,1-.2.75,1.09,1.09,0,0,1-.95.5,1.13,1.13,0,0,1-1.1-.55,4.5,4.5,0,0,1-.25-.65m3.55,4.3c0-1.93.85-2.88,2.65-2.85s2.66.82,2.7,2.45a2.47,2.47,0,0,1-.5,1.45,3,3,0,0,1-2.4,1,2.16,2.16,0,0,1-2.15-1q-.3-1-.3-1"/></g></g><path class="cls-22" d="M207.12,139.68a4.94,4.94,0,0,0-1.55.6c-.8.37-1.22,1.39-1.25,3.05s-.09,3.52,0,5.55l.25,11.85a2.87,2.87,0,0,1-.55,1.35,3,3,0,0,1-2.15.7,11.76,11.76,0,0,1-1.75.2l-4.35.15q-12.6.26-20.6.55-3.26-.54-3.2-2.9v-.1c0-1.66.05-5,.25-10,.06-.8.11-1.51.15-2.15.13-1.7.2-2.56.2-2.6v-.6a2.87,2.87,0,0,0-1.65-2q1.95-2.79,18-4.25t18.25.6"/><path class="cls-23" d="M203,142.43a2,2,0,0,1,1.6,1.95q-.85.45-1.5.75l-2.1.05q-.21-1.2-.3-2.1h.05c.86-.26,1.61-.48,2.25-.65"/><path class="cls-24" d="M202.67,143.33q-.1-.65-.15-1.2l4.35-1.15q10.55-2.79,26.3-7.4c2.43-.46,4-.45,4.6,0a3.26,3.26,0,0,1,.9,2.55c0,1.24-2.79,2.32-8.35,3.25l-26.15,5.95a1.36,1.36,0,0,1-1.25-.8c-.1-.56-.19-1-.25-1.25"/><path class="cls-25" d="M196.22,138.78a1.35,1.35,0,0,1,.2.6,4.49,4.49,0,0,1-.35,1.4,6.6,6.6,0,0,0-.4,1.55,6.09,6.09,0,0,0,.35,1.4c0,.3-.14.45-.4.45s-.32-.06-.35-.2l0-2.3a2.84,2.84,0,0,1,.25-1.1,2.78,2.78,0,0,0,.25-1c0-.23-.25-.43-.65-.6s-.65-.3-.65-.4.26-.35.8-.35a1,1,0,0,1,.9.5m-19.6,2.4h-.15l-.1.35a1.73,1.73,0,0,0-.2,1.05,4.18,4.18,0,0,0,.15,1.2,10.07,10.07,0,0,1,.5,1.55,16.87,16.87,0,0,1,.25,2.75l.1,5a1,1,0,0,1-.45.1.84.84,0,0,1-.9-.65v-.65a31.07,31.07,0,0,0,.75-5.3,5,5,0,0,0-.55-2.4,3.84,3.84,0,0,1-.5-1.7,3.58,3.58,0,0,1,0-.95c-.27.17-.39.7-.35,1.6a8.58,8.58,0,0,0,.15,1.6v2.6c-.14.17-.35.12-.65-.15s-.5-.58-.4-.85a5.28,5.28,0,0,1,.45-1.1,3.78,3.78,0,0,0,0-1.9,8.27,8.27,0,0,1-.3-1.65c0-.56.33-.91,1-1.05a1.26,1.26,0,0,1,.75,0l.15-.15,2-.05,0,.1a2.38,2.38,0,0,0-1.7.7m3.15,11.5q-.26,0-.3-.15v-.2c0-.4.13-.58.4-.55a.47.47,0,0,1,.35.5c-.1.27-.25.4-.45.4m16-6.9a.3.3,0,0,1-.3-.2l-.05-.2c0-.2.13-.3.4-.3s.35.1.35.3a.35.35,0,0,1-.4.4m-5.3,1.8.3.35a.7.7,0,0,1-.25.4l-.35-.3a.48.48,0,0,1,.3-.45m-.35-2.35a.45.45,0,0,1,.25-.4c.2.17.3.3.3.4a.57.57,0,0,1-.2.4c-.24-.1-.35-.23-.35-.4m-15.4,3.85q.39,0,.45.45a.89.89,0,0,1-.1.35c-.1.17-.2.25-.3.25s-.39-.06-.45-.2v-.25c0-.36.1-.56.4-.6"/><path class="cls-26" d="M191,162.88c-.07-.2.08-.53.45-1a17.26,17.26,0,0,1,1.45-1.6c.63-.63.8-.26.5,1.1s-.79,2.17-1.35,2.4-.94.05-1-.35Zm-3.15.1,0-.65q.3-1.25.6-1.05a2.6,2.6,0,0,1,.6,1.3q.3,1-.3,1a.86.86,0,0,1-.85-.65m7.35.9c-.4.07-.65,0-.75-.2a4,4,0,0,1,0-.75c0-.3.58-.91,1.65-1.85s1.43-1.11,1.3-.55a9,9,0,0,1-.9,2.1c-.47.8-.89,1.22-1.25,1.25m-10.4-3c1.33.74,2,1.45,2,2.15s-.1,1.05-.4,1.05a3.06,3.06,0,0,1-2.5-1.65l-.95-1.7q-.15-.94,1.8.15m-5.8,2.65c-.07.44-.39.67-.95.7s-1.1-.48-1.9-1.45-1-1.36-.8-1.6.75,0,2,.7,1.7,1.22,1.7,1.65m.9-1.75c0-.23.58-.1,1.65.4s1.56.85,1.6,1.05a1.71,1.71,0,0,1-.25.6.82.82,0,0,1-.65.3q-.45,0-1.5-1.05c-.64-.63-.92-1.06-.85-1.3m19.3-.15a7.06,7.06,0,0,1,2-1.9q.75-.45.6.15c-1.2,2.67-2.24,4-3.1,4a.6.6,0,0,1-.6-.3.46.46,0,0,1-.1-.35,6.21,6.21,0,0,1,1.2-1.65m1.6,1.4c0-.26.73-.63,2.2-1.1s2.61-.93,3.55-1.3,1.35-.33,1.45,0-.9,1.09-2.8,2.15-3.4,1.32-4.4.85a.86.86,0,0,1,0-.6m-25.35.45a1.57,1.57,0,0,1-.25.8,1,1,0,0,1-.75.3,6.33,6.33,0,0,1-3.6-1.25c-1.17-.83-1.62-1.4-1.35-1.7s1.25-.2,3.15.4,2.76,1.05,2.8,1.45"/><path class="cls-27" d="M76.77,152.65c.93.9,1.25,1.63,1,2.2a25.85,25.85,0,0,1-2.1,2.75c-1.07,1.23-2,2.3-2.75,3.2s-2.17,2.58-4.2,5q-12.66-9.4-19.15-14.2,4.4-4.8,5.55-6.15l4.45-5.2,17.25,12.35m-1.55.85c-.64,0-.94.32-.9.85a.75.75,0,0,0,.9.8.88.88,0,0,0,.75-.45,1.33,1.33,0,0,0,.15-.6q-.06-.65-.9-.6"/><path class="cls-28" d="M68.67,165.85q-12.66-9.4-19.15-14.2c.46-.47.9-.92,1.3-1.35Q64,160.2,69.77,164.55l-1.1,1.3"/><g class="cls-14"><g class="cls-29"><path class="cls-16" d="M64.42,143.75c-1,.43-1.6,1.53-1.9,3.3a3.19,3.19,0,0,0,2.1,3.8A24.57,24.57,0,0,1,68,152.6c2.4,1.27,3,3.08,1.9,5.45a9.79,9.79,0,0,1-2.25,2.4,25.11,25.11,0,0,1-3.1,2.3c-.17-.1-.54-.35-1.1-.75a8.77,8.77,0,0,0,3.75-2.95,3.21,3.21,0,0,0,.15-3.75,14.62,14.62,0,0,0-3.9-3.65,4.71,4.71,0,0,1-2.15-5c.26-2.17.7-3.57,1.3-4.2.06.07.66.5,1.8,1.3"/></g></g><path class="cls-30" d="M58.62,138.2q2.45,2,3.15,2.4a7.71,7.71,0,0,1-1.45,2,4.53,4.53,0,0,1-3,1.4c-1,0-1.57,0-1.8.05v-.6a3.27,3.27,0,0,0-1.3-1.85l-1.55-1.25a12,12,0,0,0-1.7-1.45,6.14,6.14,0,0,0-3.6-.75l-1.4.15a2.2,2.2,0,0,1-2.15-1.3,3.62,3.62,0,0,1-.55-1.65,4.07,4.07,0,0,1,.95-2.6,4.18,4.18,0,0,1,3-1.8,3.88,3.88,0,0,1,2.2.45,25.6,25.6,0,0,1,3.25,2.15q3.54,2.7,6,4.7"/><path class="cls-27" d="M58.32,140.9c0,.37-.15.58-.55.65a.54.54,0,0,1-.45-.2l-.15-.25a.49.49,0,0,1,.5-.6c.4,0,.61.1.65.4m-10.75-6a1,1,0,0,1-.65.35c-.3,0-.5,0-.6-.2a.6.6,0,0,1-.1-.35c-.07-.5.18-.78.75-.85a.64.64,0,0,1,.6,1m3.15,1.55c-.07-.37.13-.58.6-.65a.55.55,0,0,1,.65.5c.06.4-.1.62-.5.65s-.69-.1-.75-.5m4.15,2.65c-.23.07-.39,0-.45-.15l-.1-.25c0-.23,0-.37,0-.4a.74.74,0,0,1,.5-.3.44.44,0,0,1,.5.5.62.62,0,0,1,0,.4.59.59,0,0,1-.4.2"/><path class="cls-30" d="M43.87,167.25a.65.65,0,0,1,0-.25c-.07-1.8-.15-3.35-.25-4.65H86.22v.2c-.07.27-.14.57-.2.9a23.53,23.53,0,0,0-.5,3.2v.2Z"/><path class="cls-31" d="M259,171.6l-1.75.15q.18,3.15.18,5.4c0,.58,0,1.19,0,1.82q-42.31-.53-66.87-.52-43.8,0-85.7,1.5Q69.2,181.18,23,181.47c.06-1.41.1-2.68.13-3.8l-1.93.2q-.33-5.4-.9-11.52,28.64-.84,73.87-1.18,44.54-.31,120.58-4.07l-4.4,2.15a56.26,56.26,0,0,0,6.37-1.45c1.18-.39,2.24-.77,3.2-1.15h10.88q11,0,28.08.52.09,5,.14,10.43"/><path class="cls-32" d="M84.12,180.56q11.91-2.19,31.93-4.06l.1.2q-11.3,2.1-19.5,3.52-6.12.18-12.53.34M54,176.5l-21.28.4L23,177l-1.91.06.06.87,1.93-.2c0,.31,0,.64,0,1q11.62-.43,31-2.16m203.19-4.75.2,0-3.82-.08q-19.35-.45-20.7-.4a17.67,17.67,0,0,0,4.7.8q4.8.49,12.05.65,2.06,0,7.64.32c0-.41,0-.83-.07-1.27"/></g></g></svg>