<svg id="decor" xmlns="http://www.w3.org/2000/svg" xmlns:xlink="http://www.w3.org/1999/xlink" viewBox="0 0 300 300"><defs><style>.cls-1{fill:none;}.cls-2{opacity:0.75;}.cls-3{clip-path:url(#clip-path);}.cls-4{fill:#bcbfc1;}.cls-10,.cls-11,.cls-12,.cls-13,.cls-14,.cls-15,.cls-16,.cls-4,.cls-5,.cls-6,.cls-7{fill-rule:evenodd;}.cls-5{fill:#597996;}.cls-6{fill:#a0a0a0;}.cls-7{fill:#bf8136;}.cls-8{opacity:0.5;}.cls-9{clip-path:url(#clip-path-2);}.cls-10{fill:#cae0ea;}.cls-11{fill:#ff5c00;}.cls-12{fill:#dd9c45;}.cls-13{fill:#595857;}.cls-14{fill:#eaeaea;}.cls-15{fill:#ced6d8;}.cls-16{fill:#bcaf9f;}</style><clipPath id="clip-path"><rect class="cls-1" x="3.65" y="64.7" width="290.26" height="235.3"/></clipPath><clipPath id="clip-path-2"><rect class="cls-1" x="222.5" y="125.05" width="18.9" height="43"/></clipPath></defs><title>Plan de travail 7</title><g class="cls-2"><g class="cls-3"><path class="cls-4" d="M293.92,272.15c0-7.76-4.51-12.5-10.51-12.5h-32c-4.68,0-5.5-1.58-5.5-3.5s.82-3.5,5.5-3.5h3.83a8.53,8.53,0,0,0,8.5-8.5v-1.5a8.52,8.52,0,0,0-8.5-8.5H14.59a8.53,8.53,0,0,0-8.51,8.5v1.5a8.53,8.53,0,0,0,8.51,8.5H44.75c4.68,0,5.5,1.57,5.5,3.5s-.82,3.5-5.5,3.5h-5.5c-6.83,0-11.51,5-11.51,12.5s4.28,12.5,11.51,12.5H283.41c6.34,0,10.51-4.74,10.51-12.5"/><path class="cls-4" d="M275.5,298.4a8.89,8.89,0,0,1-5.7,1.6q-5.06,0-6.85-2.4a4.1,4.1,0,0,1-.85-2.6,4.86,4.86,0,0,1,2.35-4.6,7.91,7.91,0,0,1,5.2-.65,11.87,11.87,0,0,1,5.15,2.05c1.57,1.1,2.35,2.28,2.35,3.55a3.81,3.81,0,0,1-1.65,3M22.4,279.1a5.53,5.53,0,0,1-4.15,1.65c-2.57,0-4.23-.72-5-2.15-.27-1.47-.4-2.23-.4-2.3a5.39,5.39,0,0,1,1.7-4.1,5.54,5.54,0,0,1,3.7-1.6,4.62,4.62,0,0,1,3.7,1.3,6,6,0,0,1,1.7,4.55,4,4,0,0,1-1.25,2.65"/><path class="cls-5" d="M73.63,93.45l.25,0c-.13,1.07-.3,2.4-.5,4l2.05-.1a2.47,2.47,0,0,1,.1.35,1.85,1.85,0,0,0-1.3,2v.1h0c-.06,0-.21,2.67-.45,7.9s-.75,14.6-1.55,28.2q-.09,1.35-.15,2.55a16.46,16.46,0,0,1,2,1.3q.7.7,2.55,2.4a18.76,18.76,0,0,1,2.2,2.4,16.24,16.24,0,0,1,2.35,4.85,17.54,17.54,0,0,1,.45,4.45,22.23,22.23,0,0,1-.25,4,25.11,25.11,0,0,1-1.7,4.4,9.23,9.23,0,0,1-2.85,2.95,9.15,9.15,0,0,1,2.3.05s-.51,2.88-1.65,8.65c-.2.83-.36,1.63-.5,2.4H42.73L43,168c0-.5,0-1.33-.15-2.5,1.14-.1,2.4-.2,3.8-.3a13.44,13.44,0,0,1-2.2-2.5c-1.86-2.67-2.8-5.13-2.8-7.4q0-10.5,11.6-15.95a21.27,21.27,0,0,1,8-2.15h.3a1,1,0,0,1,.25-.05c.34-2.43.75-5.22,1.25-8.35q.81-5.9,1.45-14.15.75-9.34,1.15-14a1.48,1.48,0,0,0-.25-.15,2.3,2.3,0,0,0-1.9-2.2,1,1,0,0,1,.1-.4l3-.1q-.09-2-.3-3.9c1.67-.1,3-.2,4.1-.3Zm111.15,46.7a15,15,0,0,1,.2,4.3c0,.17-.21,2.57-.65,7.2a22.43,22.43,0,0,1-1,4.35,10.63,10.63,0,0,1,1.55-.1q.41,0,3.3-.3a4.51,4.51,0,0,1,2,.4v.4q-.15,3.56,0,10.8v8h-53.1c0-.73-.06-1.5-.1-2.3q-.5-9.45-.5-9.8-.39-5-.65-8.1,1-1.39,4.25-.35a24.5,24.5,0,0,1,2.35.9,3.77,3.77,0,0,1-.5-.75q-.6-1.91-.6-1.95c0-3.17,1.24-4.85,3.7-5.05a3.25,3.25,0,0,1,2.55.75l.3.3q.66-2.36,1.95-6.4,2.76-8.44,2.85-9.3,1.65-10.95,6.8-4.35a41.66,41.66,0,0,1,5.15,9.5c2.24-2.57,4-3.85,5.3-3.85.8,0,1.29.7,1.45,2.1,0,.27,0,1.3,0,3.1,0,0,.12.07.25.2q.81-1.31,4.2-2.65a15.73,15.73,0,0,1,5.3-1.25q2.81,0,3.55,4.25"/><path class="cls-5" d="M85.08,68.5a12.75,12.75,0,0,1,3.85-1.6,8.11,8.11,0,0,1,6.7.9c2,1.43,3.05,3.87,3.05,7.3a16,16,0,0,1-.1,1.85,1.81,1.81,0,0,1,1.25.2,5.69,5.69,0,0,1,1.1.3,3.35,3.35,0,0,1,1.7,1.5l.35.25a86.8,86.8,0,0,1,9.85,9.9q5,5,14.5,13.9,3.11,3,16.45,15.35,11.76,11.1,11.75,12.3a1.25,1.25,0,0,1-.35.85,1.48,1.48,0,0,1-1.15.5q-1.2,0-12.25-10.75L125,105q-6.09-5.59-13.9-13.6-.84-.86-2.85-3.15t-3.2-3.6c-.6-.6-1.33-1.3-2.2-2.1-1.26-1-2.8-2.08-4.6-3.25a20.39,20.39,0,0,1-1,3c-1,2.47-1.86,3.85-2.6,4.15a7.42,7.42,0,0,0-1.5.8,3.38,3.38,0,0,1-2,.1,2.43,2.43,0,0,1-2-1.8q-.15-1.6-.15-1.65a5.34,5.34,0,0,1,2.2-4,11.85,11.85,0,0,1,4.8-2.5.53.53,0,0,1,.2,0,14.93,14.93,0,0,0-.2-4.3Q95.34,69,92.18,69a11.42,11.42,0,0,0-6.45,1.7v2a19.65,19.65,0,0,1-.45,4.4q-.75,3.3-2.55,3.8a3.79,3.79,0,0,1-1.7.35c-1.26,0-1.9-1.08-1.9-3.25a10.14,10.14,0,0,1,3.05-7.15c.4-.4.82-.78,1.25-1.15a1.86,1.86,0,0,0-.1-.2c-.56-1.77-1.58-2.65-3-2.65-3.5,0-5.81,1-7,3.05q-.75,1.3-.75,6.9t-1,18.6q-.24,3.5-.5,5.55H69q.1-5.25,1-23a34,34,0,0,1,0-5.4,10.16,10.16,0,0,1,3-5.75,7.55,7.55,0,0,1,6.75-2c2.8.37,4.37,1,4.7,1.85s.54,1.48.7,1.85m-2,4.75a8.65,8.65,0,0,0-1.75,4.8l.05.6.2.25a1.06,1.06,0,0,0,.6-.4c.14-.33.25-.65.35-1a15.8,15.8,0,0,0,1.2-4.9V72.4a9.08,9.08,0,0,0-.65.85M92.28,85.5a9.75,9.75,0,0,0,2.6-2.9,19.75,19.75,0,0,0,1.15-3,6.83,6.83,0,0,0-3,2.15c-1.1,1.7-1.65,2.57-1.65,2.6,0,.77.25,1.15.75,1.15Z"/><path class="cls-6" d="M71.06,240.09c.1.06.15.3.15.7,0,.63-.73,1.06-2.2,1.3a1.79,1.79,0,0,1-.75-.1l-.05-.1-.2-.1c-.07,0-.1-.25-.1-.65s.3-.79.9-1a2.8,2.8,0,0,1,2.1-.1Zm3.85,1.8a3.3,3.3,0,0,0,.2.9l-.2.9a2.74,2.74,0,0,1-1.3.2l-1.5-.2a.44.44,0,0,0-.1-.2c-.07-.07-.1-.3-.1-.7a1.73,1.73,0,0,1,0-.6.61.61,0,0,0,.15-.3l.9,0a11.29,11.29,0,0,1,1.9,0m48.5,4.7-.1-.6a1.83,1.83,0,0,1,2-.3l.1.3c-.1.3-.43.56-1,.8Zm3.4,1.3h-.75c-.17,0-.25-.25-.25-.65a1,1,0,0,1,.35-.9,2.8,2.8,0,0,1,.65-.25,1.09,1.09,0,0,1,.7,1.1l-.2.5a1.31,1.31,0,0,1-.5.2m16,24.8a1.91,1.91,0,0,1-.9-.15,2.2,2.2,0,0,1-.4-.35c.17-.17.38-.42.65-.75a1.9,1.9,0,0,1,1.55.05l.2.6a.79.79,0,0,1-.25.4,1.26,1.26,0,0,1-.85.2m11.3.8a1.86,1.86,0,0,1-.9.8c-.4.43-.6.31-.6-.35,0-.44.14-.69.4-.75h.8Zm51.5-25.9a3.54,3.54,0,0,1-1.2.8c-.4.33-.6.16-.6-.5,0-.44.12-.69.35-.75a2.59,2.59,0,0,1,.65,0l.35.15a.84.84,0,0,1,.45.35m2.7,1,.1.75-.1.75a5.25,5.25,0,0,1-2,.3l-.15-.1c-.1-.07-.15-.3-.15-.7a1.1,1.1,0,0,1,.65-.9,1.79,1.79,0,0,1,1.65-.1"/><path class="cls-7" d="M245.3,166.1l-3.45.7q0-7.25-.2-19.25t2-12c1.47,0,2.3.57,2.5,1.7s.17,4.93-.1,11.4-.55,12.28-.75,17.45m-52-29.75c1.47,0,2.3.57,2.5,1.7s.17,4.93-.1,11.4-.55,12.28-.75,17.45l-3.45.7q0-7.24-.2-19.25t2-12"/><g class="cls-8"><g class="cls-9"><path class="cls-10" d="M241.4,126.4c0,.2-.38.65-1.15,1.35a7.32,7.32,0,0,1-1.05.8c-.07.4-.15.88-.25,1.45a8,8,0,0,0,.15,1.8v7q.3,6.1.3,9.45,0,3.19-.15,4.8v5.7q-1,6.15-2.45,7.8-1.25,1.5-4.85,1.5c-3.73,0-6.12-1-7.15-3a8.16,8.16,0,0,1-.55-3.6q.75-15,.75-16.95-.25-9.9.05-15.25c-1.7,0-2.55-.6-2.55-1.7q0-1.24,3.3-1.65,1.9-.25,6.85-.75v-.1h6.6a2.44,2.44,0,0,1,1.7.45,1.2,1.2,0,0,1,.45.9"/></g></g><path class="cls-11" d="M232.65,150.8a6.44,6.44,0,0,0,5.15-2.2,17,17,0,0,1,.4,4.35,51.71,51.71,0,0,1-.35,7.6Q236.5,167,231.6,167c-2.83,0-4.77-.85-5.8-2.55a27.85,27.85,0,0,1-.6-7.9,53.57,53.57,0,0,1,.55-7.4,1.48,1.48,0,0,1,.35-.25c1.23,1.27,3.42,1.9,6.55,1.9"/><path class="cls-12" d="M248,174.25H188.2q-.15-2.75-.4-6.3-.11-1.24-.15-2.4,11.85-.2,33.65-.35,15.3-.1,28-.7-.8,4.31-1.35,9.75m2.6-29.8h-63.2c-.3-1.07-.65-2.28-1-3.65-.17-.5-.3-1-.4-1.4q12.45-.1,35.55-.2,16.2,0,29.6-.4a34.91,34.91,0,0,0-.5,5.65"/><path class="cls-13" d="M27.65,225c0-.8,0-1.55.05-2.25h79.05q12.65-.75,30.6-.95,6.94,0,33.5-.05,34.35,0,71.75,1.1c-.13,1.33-.25,2.73-.35,4.2q-8.85-.45-15.7-.75-36.26-1.5-81.35-1.5l-82.55.7q-25.2-.25-35-.5"/><path class="cls-14" d="M250.2,181.4q.8,8.81,1.6,25.75,1,20.06,2.1,29.85c.07.4.17,1.12.3,2.15H235.3q1.24-17.6,1.35-23.8.75-24.85.85-28.8c0-1.33,0-2.8-.1-4.4q2.29-.15,5.1-.3l7.7-.45m-233-.9q6.56,0,12.15.3.7,10.39,1.25,32.85.45,15.94.55,25.5H18.6q0-8.44-.35-23.2-.64-24.64-1.6-35.45Z"/><path class="cls-15" d="M250.2,181.4c.19,2.13.39,4.63.58,7.47-3.53.13-8,.3-13.36.48,0-1.27.07-2.22.08-2.8,0-1.33,0-2.8-.1-4.4q2.29-.15,5.1-.3l7.7-.45m-220.85-.6q-5.59-.3-12.15-.3h-.55q.36,4.09.68,10.2c3.94.24,8.15.46,12.57.64-.18-4.18-.36-7.7-.55-10.54"/><path class="cls-16" d="M259.25,178.4c-.17,2.37-.32,4.58-.45,6.65l-15.05.15q-32.2,0-39.8,0-25.45-.19-41.3-1H94.25q-5.44,0-45.9-.1-17.25,0-23.65-.2c1.1-.07,2.4-.18,3.9-.35l-7.7.1c-.1,0-.15-.07-.15-.1a.16.16,0,0,0,.05.1l-15.5.15q-.94-7.84-1.65-12.65h24.7q20.2.35,66.65.65,16.91,0,74.15-1.15,53.7-1.09,90.7-1.15-.25,4-.6,9"/></g></g></svg>