<?xml version="1.0" encoding="utf-8"?>
<!-- Generator: Adobe Illustrator 16.0.0, SVG Export Plug-In . SVG Version: 6.00 Build 0)  -->
<!DOCTYPE svg PUBLIC "-//W3C//DTD SVG 1.1//EN" "http://www.w3.org/Graphics/SVG/1.1/DTD/svg11.dtd">
<svg version="1.1" id="Calque_1" xmlns="http://www.w3.org/2000/svg" xmlns:xlink="http://www.w3.org/1999/xlink" x="0px" y="0px"
	 width="360px" height="300px" viewBox="0 0 360 300" enable-background="new 0 0 360 300" xml:space="preserve">
<g>
	<path fill-rule="evenodd" clip-rule="evenodd" fill="#FF4E5E" d="M308.384,256.186c12.561,0,22.832-10.262,22.832-22.803
		c0-12.545-10.271-22.813-22.832-22.813h-3.672c-12.555,0-22.83-10.264-22.83-22.805c0-12.539,10.275-22.807,22.83-22.807h20.686
		c12.561,0,22.833-10.262,22.833-22.808c0-12.541-10.272-22.804-22.833-22.804h-38.913c-12.56,0-22.831-10.268-22.831-22.813
		c0-12.541,10.271-22.803,22.831-22.803h14.796c12.556,0,22.832-10.263,22.832-22.808s-10.276-22.809-22.832-22.809H96.653
		c-12.554,0-22.831,10.264-22.831,22.809s10.276,22.808,22.831,22.808h13.768c12.56,0,22.833,10.262,22.833,22.803
		c0,12.545-10.272,22.813-22.833,22.813H34.602c-12.56,0-22.833,10.263-22.833,22.804c0,12.546,10.272,22.808,22.833,22.808h17.282
		c12.56,0,22.833,10.268,22.833,22.807c0,12.541-7.641,22.805-16.986,22.805c-9.347,0-16.998,10.268-16.998,22.813
		c0,12.541,10.276,22.803,22.833,22.803H308.384z"/>
	<g>
		<defs>
			<circle id="SVGID_1_" cx="193.359" cy="150" r="138.06"/>
		</defs>
		<clipPath id="SVGID_2_">
			<use xlink:href="#SVGID_1_"  overflow="visible"/>
		</clipPath>
		<g clip-path="url(#SVGID_2_)">
			<path opacity="0.5" fill-rule="evenodd" clip-rule="evenodd" fill="#BEC7E4" d="M157.38,446.682
				c-29.74-0.463-75.745,5.113-73.422,11.617c4.27,11.953,43.216,3.256,73.885,5.576c30.669,2.326,81.14,22.736,117.103,16.266
				C298.182,475.959,254.507,448.201,157.38,446.682z"/>
			<g>
				<g>
					<g>
						<path fill-rule="evenodd" clip-rule="evenodd" fill="#FF4E5E" d="M225.534,361.463c-1.295,10.23-5.492,17.279-12.595,21.154
							c-7.104,3.893-15.685,5.666-25.735,5.316c-10.037-0.365-18.636-4.623-25.8-12.777c-6.601-7.531-10.025-16.357-10.269-26.469
							c6.76,1.648,14.992,3.381,24.697,5.197C191.433,356.75,208.001,359.275,225.534,361.463z"/>
					</g>
					<g>
						<path fill-rule="evenodd" clip-rule="evenodd" fill="#333333" d="M222.293,468.631c0.311-3.365,3.04-7.053,8.19-11.066
							c1.426-5.9,2.771-10.609,4.036-14.121c6.655-0.559,11.995-0.496,16.017,0.182c5.719,0.977,11.262,2.871,16.627,5.686
							c-2.793,2.195-7.563,6.086-14.303,11.678c10.036,4.363,18.676,9.254,25.919,14.672c-8.117,0.566-16.205,0.098-24.27-1.406
							c-9.249-1.725-16.868-2.828-22.862-3.301C225.646,470.482,222.53,469.709,222.293,468.631z"/>
					</g>
					<g>
						<path fill-rule="evenodd" clip-rule="evenodd" fill="#333333" d="M127.659,419.539h6.725c-0.236,3.832-0.399,6.074-0.49,6.725
							v10.762c1.061,1.686,2.448,4.15,4.158,7.395c1.719,3.246,1.392,5.588-0.977,7.031c-0.611,0.166-1.772,0.369-3.487,0.611
							c-1.705,0.25-4.353,0.496-7.947,0.732c-3.577,0.234-8.387,1.271-14.426,3.119c-5.917,1.803-13.803,2.293-23.658,1.467
							c7.716-6.697,16.437-12.627,26.163-17.789c-4.625-5.449-8.212-9.566-10.758-12.348c1.158-0.965,3.95-2.391,8.375-4.279
							C115.75,421.076,121.189,419.936,127.659,419.539z"/>
					</g>
					<g>
						<defs>
							<path id="SVGID_3_" d="M154.841,350.643l23.696,34.391l-49.993,38.721c0,0-3.178,3.758-17.339,2.313
								C111.205,426.066,51.388,366.826,154.841,350.643z"/>
						</defs>
						<clipPath id="SVGID_4_">
							<use xlink:href="#SVGID_3_"  overflow="visible"/>
						</clipPath>
						<g clip-path="url(#SVGID_4_)">
							<path fill-rule="evenodd" clip-rule="evenodd" fill="#FF4E5E" d="M114.209,419.172c-5.951-14.344-8.883-22.17-8.802-23.475
								c0.081-1.303,1.304-3.096,3.668-5.379c2.199-2.363,11.818-8.967,28.854-19.807l13.206-8.559c0.081-0.164,0-0.408-0.246-0.732
								c-0.325-0.41-0.53-0.818-0.611-1.223c-0.162-0.49,0.898-0.369,3.179,0.365c0.083,0,0.165,0.039,0.246,0.121l1.834-1.098
								c0.163,0.324,0.406,0.648,0.733,0.977c0.327,0.408,0.652,0.775,0.979,1.1c1.547,2.121,3.627,5.297,6.235,9.539
								c-0.162,0.08-2.486,0.895-6.97,2.445c-4.563,1.547-11.818,6.07-21.762,13.57c-9.862,7.498-15.121,12.635-15.773,15.404
								c1.712,1.223,2.405,2.078,2.078,2.568c-0.325,0.326-1.058,0.57-2.199,0.732c2.118,5.707,3.952,10.639,5.502,14.797
								c1.466,3.91,2.689,7.09,3.668,9.535c-1.223-0.162-2.08-0.285-2.567-0.365c-2.121-0.328-4.117-0.654-5.992-0.98
								c-0.408,0-0.938-0.121-1.59-0.367C117.063,426.225,115.84,423.168,114.209,419.172z"/>
							<g opacity="0.5">
								<path fill-rule="evenodd" clip-rule="evenodd" fill="#8E7554" d="M109.808,400.346c6.522,10.842,11.372,20.416,14.55,28.732
									c-1.712-0.408-3.384-0.736-5.012-0.98c-0.409,0-0.938-0.121-1.591-0.367c-0.814-2.117-2.037-5.174-3.668-9.17
									c-2.607-6.275-4.401-10.676-5.38-13.203c-0.814-2.363-1.426-4.32-1.834-5.869c0-0.082-0.041-0.162-0.122-0.244
									c0.652,0.408,1.264,0.693,1.834,0.855C109.075,400.264,109.481,400.346,109.808,400.346z"/>
							</g>
							<g>
								<path opacity="0.5" fill-rule="evenodd" clip-rule="evenodd" fill="#8E7554" d="M150.4,359.387
									c1.875,2.117,3.343,3.748,4.403,4.891c-1.061-0.574-2.283-1.186-3.668-1.834c-0.246-0.164-0.49-0.287-0.735-0.369
									l0.368-0.488c0.081-0.164,0-0.408-0.244-0.734c-0.327-0.406-0.53-0.816-0.611-1.223
									C149.829,359.467,149.994,359.387,150.4,359.387z M113.966,403.889c2.364,0.328,3.668,0.246,3.912-0.244
									c0.246-0.57-0.449-1.672-2.078-3.299c0-0.082,0.041-0.164,0.122-0.246c5.624-7.01,12.308-13.041,20.052-18.094
									c5.053-3.264,9.7-5.709,13.939-7.336c-2.364-0.736-5.015-1.51-7.947-2.324c2.607,0,5.215,0.041,7.823,0.121
									c2.202,0,5.096,0.162,8.683,0.49c-0.571,0.162-1.142,0.365-1.712,0.611c-1.223,0.408-2.607,1.02-4.157,1.834
									c-4.401,2.281-10.271,6.195-17.607,11.736c-9.862,7.498-15.121,12.633-15.773,15.406c1.712,1.223,2.405,2.08,2.08,2.566
									c-0.327,0.328-1.06,0.572-2.202,0.736c0.162,0.242,0.287,0.529,0.368,0.854c0.571,1.467,1.142,2.895,1.712,4.279
									c-2.691-2.363-4.279-4.117-4.769-5.258c-0.571-0.244-1.712-0.814-3.424-1.709c-0.325-0.164-0.652-0.287-0.977-0.369
									C112.497,403.564,113.149,403.645,113.966,403.889z"/>
							</g>
						</g>
					</g>
					<g>
						<defs>
							<path id="SVGID_5_" d="M259.45,443.984c0,0-3.181,4.912-14.449,3.467c-11.27-1.445-6.936-11.271-6.936-11.271l-45.08-59.529
								l28.607-20.227C221.593,356.424,307.71,394.857,259.45,443.984z"/>
						</defs>
						<clipPath id="SVGID_6_">
							<use xlink:href="#SVGID_5_"  overflow="visible"/>
						</clipPath>
						<g clip-path="url(#SVGID_6_)">
							<path fill-rule="evenodd" clip-rule="evenodd" fill="#FF4E5E" d="M222.05,368.311c0.078,0,0.16,0,0.243,0
								c2.369,0.004,3.468,0.188,3.3,0.551c-0.166,0.363-0.432,0.707-0.793,1.039c-0.374,0.314-0.537,0.561-0.488,0.732
								l12.47,12.961c15.985,16.623,25.013,26.484,27.083,29.59c2.07,3.117,3.09,5.357,3.057,6.725
								c-0.049,1.342-3.717,8.453-11.004,21.334c-2.037,3.611-3.606,6.443-4.707,8.496c-0.523-0.088-1.051-0.172-1.591-0.244
								c-1.87-0.266-3.909-0.551-6.113-0.854c-0.476-0.07-1.309-0.191-2.505-0.369c1.201-2.32,2.689-5.234,4.461-8.742
								c1.958-3.795,4.303-8.336,7.029-13.633c-1.072-0.41-1.764-0.898-2.076-1.467c-0.318-0.563,0.455-1.174,2.322-1.834
								c-0.412-3.094-5.201-10.064-14.365-20.906c-9.166-10.832-15.953-17.781-20.358-20.848c-4.417-3.082-6.698-4.691-6.847-4.828
								c2.982-3.479,5.388-6.047,7.215-7.703c0.36-0.318,0.726-0.643,1.098-0.977c0.304-0.273,0.588-0.539,0.857-0.797
								L222.05,368.311z"/>
							<g>
								<path opacity="0.5" fill-rule="evenodd" clip-rule="evenodd" fill="#8E7554" d="M263.253,424.063
									c0.594,0,1.184-0.121,1.771-0.365c-0.015,0.055-0.036,0.117-0.061,0.184c-0.544,1.498-1.379,3.354-2.507,5.563
									c-1.155,2.219-3.336,6.15-6.54,11.799c-2.037,3.611-3.606,6.443-4.707,8.496c-0.523-0.088-1.051-0.172-1.591-0.244
									c-1.562-0.223-3.253-0.445-5.075-0.672c4.018-7.438,9.784-15.773,17.302-25.004
									C262.228,423.982,262.696,424.063,263.253,424.063z"/>
							</g>
							<g opacity="0.5">
								<path fill-rule="evenodd" clip-rule="evenodd" fill="#8E7554" d="M224.8,371.182c-0.285,0.063-0.551,0.125-0.795,0.186
									c-1.475,0.27-2.76,0.494-3.852,0.672c1.209-0.779,2.858-1.959,4.953-3.545c0.398,0.086,0.561,0.207,0.486,0.367
									c-0.166,0.363-0.432,0.707-0.793,1.039c-0.374,0.314-0.537,0.561-0.488,0.732L224.8,371.182z M218.014,380.842
									c-0.597-0.416-1.146-0.805-1.649-1.16c3.646,0.822,6.559,1.555,8.742,2.199c2.586,0.758,5.131,1.531,7.642,2.324
									c-2.956-0.047-5.626-0.105-8.01-0.184c4.04,3.039,8.442,7.053,13.206,12.045c7.224,7.66,13.337,15.994,18.34,25.002
									c0.051,0.094,0.091,0.174,0.121,0.244c-1.843,1.16-2.679,2.076-2.507,2.75c0.175,0.688,1.44,1.178,3.79,1.469
									c0.947,0.119,1.662,0.223,2.139,0.307c-0.305,0.055-0.63,0.115-0.977,0.184c-1.793,0.35-2.975,0.535-3.545,0.549
									c-0.657,1.107-2.408,2.475-5.26,4.096c0.643-1.277,1.316-2.604,2.019-3.975c0.15-0.27,0.294-0.531,0.427-0.795
									c-1.072-0.41-1.764-0.898-2.076-1.467c-0.318-0.563,0.455-1.174,2.322-1.834c-0.412-3.094-5.201-10.064-14.365-20.906
									c-6.83-8.074-12.332-13.982-16.506-17.729C220.421,382.664,219.136,381.623,218.014,380.842z"/>
							</g>
						</g>
					</g>
				</g>
				<g>
					<path fill-rule="evenodd" clip-rule="evenodd" fill="#ACD1F9" d="M202.73,256.436c2.118,3.588,5.786,11.861,11.004,24.822
						c4.647,11.898,8.599,24.818,11.858,38.758c2.04,15.242,3.263,25.758,3.668,31.545c0,1.549,0,5.705,0,12.471
						c-31.915,2.385-60.526-2.996-85.829-16.139c1.712-3.342,4.32-8.275,7.825-14.795c5.624-11.33,9.414-21.111,11.37-29.344
						c2.935-15.244,4.444-27.59,4.525-37.047c0-10.025,2.118-16.547,6.357-19.563c3.262-2.77,6.644-4.035,10.149-3.789
						c0.162-0.084,0.365-0.123,0.611-0.123c0.57,0,1.142,0.123,1.713,0.365c3.992,0.814,7.252,2.283,9.781,4.402
						C198.208,249.795,200.528,252.605,202.73,256.436z"/>
				</g>
				<g>
					<path fill-rule="evenodd" clip-rule="evenodd" fill="#5A94BF" d="M160.611,240.42c4.628-4.715,13.33-8.26,26.103-10.637
						c12.788-2.369,19.188-1.881,19.195,1.467c0,0.979-0.693,2.24-2.078,3.789c-0.377,0.424-0.744,0.791-1.101,1.102
						c-1.521,7.564-9.428,16.816-23.72,27.754c-1.223,0-3.097-1.588-5.624-4.768c-2.445-3.506-3.912-5.545-4.401-6.113
						c-2.04-1.957-3.75-3.668-5.137-5.137c-2.608-2.688-3.912-4.688-3.912-5.99C159.938,241.324,160.162,240.836,160.611,240.42z"/>
				</g>
				<g>
					<path fill-rule="evenodd" clip-rule="evenodd" fill="#CAD8A4" d="M184.513,223.914c1.139-0.119,2.342-0.342,3.607-0.674
						c0.129,0.588,0.23,1.221,0.307,1.896c0.324,4.158,0.57,6.52,0.732,7.092c0.162,2.852,0.449,7.58,0.855,14.184
						c-2.047,7.893-4.246,13.395-6.604,16.506c-2.34,3.135-4.114,2.523-5.318-1.834c-1.22-4.385-1.626-7.994-1.223-10.82
						c0.174-0.826,0.277-1.662,0.306-2.508c-0.243-5.053-0.773-10.025-1.588-14.916c-0.595-3.744-1.266-6.781-2.018-9.109
						c0.862,0.15,1.819,0.213,2.873,0.184H184.513z"/>
					<g>
						<path fill-rule="evenodd" clip-rule="evenodd" fill="#9FAD6C" d="M184.513,223.914c1.139-0.119,2.342-0.342,3.607-0.674
							c0.129,0.588,0.23,1.221,0.307,1.896c0.324,4.158,0.57,6.52,0.732,7.092c0.029,0.531,0.07,1.123,0.122,1.771
							c-0.64,1.252-1.373,2.416-2.202,3.484c-2.23,2.848-4.756,4.354-7.579,4.525c-0.077,0-0.158,0-0.244,0
							c-0.083-0.004-0.165-0.004-0.246,0c-0.43,0-0.838-0.102-1.223-0.305c-0.398-0.217-0.767-0.545-1.101-0.979
							c-0.301-2.662-0.667-5.291-1.099-7.887c-0.595-3.744-1.266-6.781-2.018-9.109c0.862,0.15,1.819,0.213,2.873,0.184H184.513z"/>
					</g>
				</g>
				<g>
					<g>
						<path fill-rule="evenodd" clip-rule="evenodd" fill="#9FAD6C" d="M97.032,137.779c-17.217-33.533-24.491-50.834-21.826-51.903
							c2.689-1.067,9.148,2.968,19.381,12.104c9.562,8.539,15.51,14.471,17.851,17.791
							C108.753,121.082,103.619,128.417,97.032,137.779z"/>
					</g>
					<g>
						<path fill-rule="evenodd" clip-rule="evenodd" fill="#CAD8A4" d="M260.317,53.537c5.93,5.586,9.557,10.067,10.883,13.449
							c2.395,4.476,3.904,8.651,4.522,12.532c1.142,7.498,1.712,16.179,1.712,26.041c0.01,20.375-0.907,37.105-2.751,50.191
							c-1.839,13.105-3.284,21.563-4.339,25.371c-1.061,3.805-2.794,7.594-5.196,11.371c-1.827,2.855-4.21,5.465-7.155,7.824
							c-2.9,2.514-14.557,7.363-34.967,14.549c-20.412,7.172-33.129,10.859-38.146,11.066c-5.022,0.223-8.812,0.061-11.372-0.49
							c-2.555-0.563-10.502-4.313-23.842-11.246c-13.352-6.945-25.026-14.301-35.03-22.07c-9.989-7.752-16.854-13.578-20.601-17.484
							c-6.278-6.688-9.662-10.945-10.147-12.777c-0.482-1.809-0.664-4.232-0.551-7.273c0.107-3.066,2.471-9.018,7.092-17.853
							c4.611-8.816,12.375-23.65,23.29-44.503c3.181-6.113,7.745-15.976,13.695-29.59c4.253-9.688,12.546-15.538,24.881-17.544
							c24.327-3.114,47.578-3.912,69.754-2.384C241.636,44.345,254.393,47.951,260.317,53.537z"/>
						<g>
							<path fill-rule="evenodd" clip-rule="evenodd" fill="#CAD8A4" d="M260.929,42.96c-0.896-3.912-1.344-5.992-1.344-6.235
								c0-3.587,1.793-3.098,5.379,1.466c3.506,4.482,5.257,8.031,5.257,10.639c0,1.223-0.611,3.057-1.834,5.502
								c-0.249,0.512-0.492,0.979-0.733,1.404c1.986-0.43,6.715-1.712,14.183-3.85c0.098,2.131-0.839,3.983-2.812,5.562
								c-1.96,1.571-5.119,2.488-9.475,2.751c-2.104,0.122-3.695,0.084-4.77-0.121c-0.692-0.908-1.631-1.622-2.813-2.14l0.305-3.362
								C262.272,50.745,261.827,46.872,260.929,42.96z"/>
						</g>
						<g>
							<path fill-rule="evenodd" clip-rule="evenodd" fill="#CAD8A4" d="M274.684,168.1c-4.466,0.521-8.562-0.09-12.286-1.834
								c-2.197-1.025-3.785-1.904-4.77-2.629c0.33-1.797,0.657-3.754,0.977-5.869c1.045-6.621,1.837-11.816,2.387-15.588
								c3.713-2.523,12.15-5.236,25.308-8.131c17.717-3.888,30.067-5.335,37.048-4.342c3.35,1.51-2.804,8.153-18.462,19.93
								C289.212,161.414,279.147,167.572,274.684,168.1z"/>
						</g>
						<g>
							<path fill-rule="evenodd" clip-rule="evenodd" fill="#9FAD6C" d="M316.194,134.292c-15.947,4.646-27.908,9.208-35.887,13.695
								c2.49,1.313,3.224,3.064,2.201,5.258c-1.036,2.18-3.297,3.852-6.786,5.014c1.005-2.188,1.413-3.715,1.223-4.584
								c-0.664-2.996-2.151-4.891-4.461-5.688c2.298-2.535,9.041-5.389,20.233-8.558c11.332-3.259,19.113-5.055,23.353-5.38
								L316.194,134.292z"/>
						</g>
					</g>
					<g>
						<g>
							<path fill-rule="evenodd" clip-rule="evenodd" fill="#A3481F" d="M201.081,152.451c14.998-2.025,23.74-3.043,26.225-3.057
								c2.486,0,4.787,0.773,6.908,2.32c2.123,1.533,3.998,5.059,5.624,10.576c1.624,5.525,0.423,12.496-3.606,20.908
								c-2.201,3.199-4.891,6.215-8.068,9.047c-5.707,5.137-11.291,9.09-16.752,11.861c-8.879,4.518-18.457,6.842-28.732,6.969
								c-9.129-0.244-16.098-0.898-20.907-1.955c-4.972-1.551-8.926-2.73-11.859-3.547c-3.587-1.061-7.582-2.486-11.983-4.279
								c-2.085-0.854-5.285-2.24-9.598-4.158c0.664-2.031,1.091-3.623,1.282-4.768c0.979-5.951,1.59-10.066,1.834-12.35
								c0.165-1.955,0.246-5.502,0.246-10.635c0-6.928-0.857-13.898-2.567-20.908c-0.015-0.053-0.034-0.09-0.063-0.123
								c2.04,0.484,4.544,1.096,7.52,1.834c7.341,1.805,16.714,3.271,28.121,4.402h9.782
								C177.203,155.178,186.067,154.467,201.081,152.451z"/>
						</g>
						<g>
							<path fill-rule="evenodd" clip-rule="evenodd" fill="#FFFFFF" d="M206.398,152.877c-0.114-0.209-0.218-0.412-0.306-0.611
								c-0.938,0.133-1.875,0.252-2.813,0.367c-7.088,0.896-14.607,1.346-22.558,1.346c-9.292,0-19.563-0.734-30.81-2.201
								c-6.832-0.859-13.352-1.92-19.563-3.18c-0.795-0.156-1.591-0.318-2.386-0.488l-0.06,0.121
								c-3.181,5.137-4.769,8.438-4.769,9.904c0,1.078,0.284,1.895,0.855,2.445c0.91,1.219,6.92,3.014,18.034,5.379
								c11.124,2.367,20.353,3.547,27.694,3.547h10.393c0.602-1.17,1.741-1.781,3.425-1.834c1.641,0,2.741,0.387,3.3,1.16
								c8.141-1.037,13.724-2.281,16.749-3.729c3.098-1.467,4.647-3.912,4.647-7.336
								C208.232,156.789,207.621,155.158,206.398,152.877z"/>
						</g>
						<g>
							<path fill-rule="evenodd" clip-rule="evenodd" fill="#FFFFFF" d="M186.958,195.549c-0.645-4.15-1.603-5.943-2.873-5.379
								c-1.256,0.537-2.235,1.619-2.935,3.24c-0.719,1.643-1.146,2.621-1.282,2.932c-1.058,0.281-2.605,0.426-4.647,0.43
								c-6.032,0-12.757-0.816-20.174-2.445c-6.276-1.631-9.538-2.488-9.781-2.568c-2.854-0.488-5.421-1.143-7.704-1.957
								c-2.61-0.861-5.137-1.879-7.58-3.057c-0.26-2.113-1.015-4.129-2.261-6.051c-1.23-1.928-2.615-0.826-4.158,3.301
								c-1.249,3.326-1.819,6.525-1.712,9.598c0.996,0.678,2.016,1.33,3.057,1.957c9.87,4.227,20.222,7.67,31.056,10.33
								c10.825,2.668,20.444,4.219,28.854,4.648c0.35,0.027,0.695,0.047,1.039,0.059c0.855-0.771,1.383-3.703,1.591-8.801
								C187.447,199.748,187.284,197.668,186.958,195.549z"/>
						</g>
						<g>
							<path fill-rule="evenodd" clip-rule="evenodd" fill="#9FAD6C" d="M214.103,148.842c4.787-0.623,9.392-1.051,13.814-1.281
								c4.443-0.234,7.928,2.008,10.455,6.725c2.512,4.713,3.837,9.133,3.973,13.264c0.132,4.129-0.866,8.064-2.996,11.801
								c-2.125,3.734-6.141,8.768-12.043,15.1c-6.357,5.766-12.857,10.393-19.5,13.875c-6.645,3.473-15.876,5.205-27.694,5.197
								c-10.271,0-23.353-3.057-39.247-9.17c-14.906-5.717-22.975-10.893-24.209-15.527c1.33,0.664,3.023,1.457,5.074,2.383
								c6.641,2.98,14.242,5.895,22.803,8.744c3.993,1.631,9.454,3.34,16.384,5.133c10.025,2.691,18.256,4.037,24.697,4.037
								c11.983,0,24.045-5.176,36.19-15.529c10.598-9.127,15.895-16.344,15.895-21.641c0-11.494-3.098-17.934-9.292-19.318
								c-3.479-0.775-8.208-0.609-14.183,0.488c-8.949,1.084-18.201,2.002-27.756,2.752c-9.552,0.746-18.824,0.766-27.815,0.061
								h-0.122c-0.069,0.006-0.131,0.006-0.184,0c-12.062-1.549-21.029-3.139-26.899-4.768c-7.257-1.994-12.289-4.58-15.099-7.764
								c1.604,0.609,4.621,1.482,9.048,2.629c9.29,2.402,19.437,4.299,30.445,5.684c11,1.371,21.373,1.555,31.116,0.551
								c3.758-0.564,8.016-1.115,12.777-1.648C204.513,150.072,209.3,149.48,214.103,148.842z"/>
							<g>
								<path fill-rule="evenodd" clip-rule="evenodd" fill="#9FAD6C" d="M231.706,137.473c0.912-0.051,2.381,0.296,4.404,1.038
									c2.004,0.758,3.918,2.797,5.746,6.114c-0.295-0.172-0.619-0.355-0.98-0.551c-3.901-2.117-7.447-3.42-10.636-3.913h-4.401
									c-3.391,0.196-6.406,0.583-9.048,1.16c0.028-0.176,1.333-1.155,3.911-2.932c2.594-1.784,7.201-2.742,13.817-2.876
									L231.706,137.473z"/>
							</g>
						</g>
						<g>
							<path fill-rule="evenodd" clip-rule="evenodd" fill="#333333" d="M198.451,133.253c0.112,2.978-0.132,5.218-0.733,6.725
								c4.01-0.521,6.967-0.743,8.865-0.671c-4.471,1.347-7.141,2.12-8.01,2.321c-2.445,0.572-5.951,1.67-10.515,3.301
								c-0.249,0.09-0.494,0.17-0.733,0.244c-0.279,0.092-0.566,0.172-0.857,0.246c-0.895,0-1.344-0.449-1.344-1.346
								c0-1.25,2.242-2.27,6.725-3.057c-0.105-0.646-0.127-2.217-0.061-4.707c0.067-2.481,1.168-4.358,3.301-5.624
								C197.207,129.416,198.329,130.271,198.451,133.253z"/>
							<g>
								<path fill-rule="evenodd" clip-rule="evenodd" fill="#FFFFFF" d="M196.083,132.917c0,0.643-0.185,1.375-0.55,2.202
									c-0.55,1.191-1.284,1.786-2.202,1.786c-1.098,0-1.65-0.55-1.65-1.648c0-2.479,1.008-3.716,3.026-3.716
									C195.624,131.541,196.083,132,196.083,132.917z"/>
							</g>
						</g>
						<g>
							<path fill-rule="evenodd" clip-rule="evenodd" fill="#333333" d="M151.011,127.081c2.039-1.305,3.14-0.449,3.302,2.566
								c0.082,2.936-0.162,5.175-0.733,6.725c-0.058,0.347-0.098,0.692-0.124,1.039c1.719,0.32,2.861,0.647,3.424,0.979
								c0.573,0.314,0.981,0.726,1.223,1.223c0.25,0.501-0.117,1.296-1.101,2.383c-0.984-0.497-3.205-1.454-6.663-2.873
								c-3.451-1.401-7.321-2.824-11.615-4.279c0.26-0.121,0.688-0.184,1.283-0.184c1.91,0,4.458,0.368,7.642,1.101
								c0.004-0.919,0.023-1.938,0.062-3.057C147.711,130.175,148.812,128.303,151.011,127.081z"/>
							<g>
								<path fill-rule="evenodd" clip-rule="evenodd" fill="#FFFFFF" d="M151.379,131.481c-0.571,1.14-1.304,1.713-2.202,1.713
									c-1.058,0-1.588-0.53-1.588-1.591c0-2.445,0.977-3.668,2.935-3.668c0.977,0,1.466,0.449,1.466,1.345
									C151.99,129.931,151.787,130.667,151.379,131.481z"/>
							</g>
						</g>
					</g>
					<g>
						<path fill-rule="evenodd" clip-rule="evenodd" fill="#9FAD6C" d="M194.05,74.505l-0.979-0.124l-0.061-0.549
							c1.529-1.624,3.16-3.559,4.891-5.808c1.183-0.765,1.772-0.315,1.772,1.344c0,0.814-0.651,1.875-1.956,3.179
							C196.333,73.851,195.11,74.505,194.05,74.505z M189.281,72.671c0.735-1.008,1.509-2.067,2.323-3.181
							c-1.174,3.229-2.459,6.099-3.852,8.621c-0.354,1.887-2.044,4.597-5.074,8.131c-4.158,4.808-8.396,7.214-12.716,7.214
							c-4.807,0-7.212-2.323-7.212-6.97c0-2.589,0.936-5.381,2.811-8.375c-0.876,0.448-1.855,0.673-2.935,0.673
							c-3.098,0-5.378-0.897-6.847-2.691c-0.896-1.139-1.344-2.242-1.344-3.3c0-2.283,0.408-4.076,1.223-5.38
							c0.494-0.932,1.39-2.032,2.689-3.301c0.083-0.081,0.165-0.162,0.246-0.246c1.956-2.118,3.912-3.219,5.868-3.3
							c-2.037,1.875-3.463,3.26-4.279,4.157c-0.294,0.311-0.559,0.616-0.793,0.917c-0.105,0.223-0.208,0.447-0.306,0.671
							c-0.487,1.027-0.814,1.984-0.979,2.873c0.033,0.965,0.317,1.679,0.855,2.14c0.897,0.817,2.569,1.223,5.015,1.223
							c3.668,0,7.823-1.061,12.47-3.179c0.12,0.086,0.222,0.168,0.306,0.246c0.389-0.311,0.797-0.635,1.223-0.979
							c0.282,0.349,0.568,0.654,0.855,0.917l-4.339,5.563c-4.239,5.216-6.359,8.762-6.359,10.637c0,0.733,0.165,1.263,0.489,1.59
							c0.49,0.406,1.469,0.611,2.935,0.611c3.505,0,7.376-2.526,11.615-7.582c0.726-0.866,2.804-3.556,6.235-8.068
							C189.362,72.428,189.321,72.55,189.281,72.671z"/>
					</g>
				</g>
				<g>
					<path fill-rule="evenodd" clip-rule="evenodd" fill="#95C1E8" d="M160.121,241.152c0.206-0.42,0.695-0.645,1.466-0.67
						c0.779-0.033,2.715,2.125,5.808,6.479c3.112,4.354,4.821,6.756,5.137,7.215c4.315,5.385,6.842,8.666,7.58,9.842
						c1.97-1.482,3.336-4.09,4.095-7.824c0.746-3.729,1.217-6.521,1.407-8.375c0.21-1.873,0.494-3.299,0.854-4.279
						c0.356-0.973,1.049-1.809,2.08-2.508c2.792-1.334,5.176-2.498,7.152-3.484c1.982-1.01,3.816-2.496,5.502-4.463
						c1.667-1.959,2.521-3.057,2.567-3.301c0.069-0.242,0.497-0.406,1.284-0.488c0.77-0.09,0.953,0.887,0.55,2.934
						c-0.396,2.047-0.946,5.512-1.65,10.393c-0.724,4.877-0.989,8.85-0.795,11.922c0.198,3.061-2.513,6.383-8.132,9.963
						c-4.482,2.934-8.027,4.402-10.636,4.402c-0.882,0-2.307-1.631-4.279-4.891c0.408,0.826,0.611,1.314,0.611,1.467
						c0,0.324-0.122,0.732-0.368,1.223c-0.406,0.652-0.936,0.979-1.588,0.979c-0.528-0.58-0.975-1.068-1.345-1.469
						c-2.658-3.336-6.039-7.574-10.149-12.715c-1.323-1.271-3.076-2.9-5.258-4.891c-2.173-1.975-3.09-3.605-2.751-4.891
						C159.613,242.43,159.897,241.574,160.121,241.152z"/>
				</g>
				<g>
					<path fill-rule="evenodd" clip-rule="evenodd" fill="#5A94BF" d="M177.239,296.906c0.036-0.381,0.076-0.768,0.122-1.16
						c0.776-6.768,1.244-11.559,1.407-14.367l1.834-14.428c0.162,0.246,0.365,1.346,0.611,3.303
						c0.244,1.711,0.365,2.771,0.365,3.178c0,3.992-0.324,8.152-0.976,12.471c-0.817,4.971-1.875,8.602-3.179,10.881
						C177.355,296.771,177.293,296.814,177.239,296.906z"/>
					<g>
						<path fill-rule="evenodd" clip-rule="evenodd" fill="#333333" d="M184.88,283.457c-0.816,0.326-1.672,0.488-2.566,0.488
							c-1.631,0-3.141-0.201-4.526-0.611c-1.547-0.488-2.323-1.02-2.323-1.588c0-1.795,1.793-2.322,5.38-1.59
							c3.506,0.732,5.258,1.467,5.258,2.201C186.103,282.764,185.694,283.133,184.88,283.457z M182.435,275.51
							c-2.526,0.816-4.647,1.223-6.359,1.223c-0.896,0-1.507-0.326-1.834-0.977l-0.244-0.98c0-2.117,2.037-3.178,6.113-3.178
							c3.995-0.082,5.991,0.57,5.991,1.955C186.103,274.043,184.88,274.695,182.435,275.51z"/>
					</g>
				</g>
			</g>
		</g>
	</g>
</g>
</svg>
