<svg xmlns="http://www.w3.org/2000/svg" viewBox="0 0 66 66"><defs><style>.cls-1{fill:#65b77e;}.cls-1,.cls-2,.cls-3{fill-rule:evenodd;}.cls-2{fill:#ffb566;}.cls-3{fill:#da8370;}.cls-4{opacity:0.5;}</style></defs><title>Plan de travail 13</title><g id="objet02"><path class="cls-1" d="M25.47,20.61q-.87-.52-1.95-1.14c-.47,1.7-.94,2.71-1.41,3.05a.74.74,0,0,1-1.17-.22l-.1-.13a15,15,0,0,1-.95,1.51,36.44,36.44,0,0,1-4.26,4.57,8.15,8.15,0,0,1-2.57,1.1,4.38,4.38,0,0,1-4.87-1.77,3.85,3.85,0,0,1-.44-4.2A7.91,7.91,0,0,1,10.3,20.5a8.77,8.77,0,0,1,1.16-.72l.15-.07a3.79,3.79,0,0,1-1.39-.7c-.43-.59-.22-1.19.63-1.82q.18-.12,2.55-1.32c.26-.14.52-.25.75-.35l-.55-.2a7.61,7.61,0,0,1-3.33-2.43,1.19,1.19,0,0,1-.23-.5,1.41,1.41,0,0,1-.11-1.07,5.36,5.36,0,0,1,.35-.53c.49-.36,1-.68,1.42-1l.15-.08,0,0a16.15,16.15,0,0,1,1.78-.93l.6-.3a3.18,3.18,0,0,1,.89-.25A7.62,7.62,0,0,1,16.65,8a1.51,1.51,0,0,1-.4-1.33A2.38,2.38,0,0,1,16.32,6a1.68,1.68,0,0,1,.58-1,2.55,2.55,0,0,1,1.47-.2c.11,0,.45.12,1,.47l.55.28.17.14.21.28c0-.15,0-.33,0-.52a.44.44,0,0,1,.15-.44q.3-.23.63.21a3.13,3.13,0,0,1,.23.37c.13-.22.24-.42.35-.59a4.68,4.68,0,0,1,1.2-1.49,1,1,0,0,1,1.65.21q.73,1,.51,6.52a16.93,16.93,0,0,1,2.77-2c1.34-.75,2,0,1.87,2.28q-.39,4.55-3.45,6.64s7.35,6,9.72,12.41l-2.72-.27S31.11,25.34,25.47,20.61Z"/><path class="cls-2" d="M33.23,30.58c0-.21,0-.41,0-.63a32.84,32.84,0,0,0-.63-4,6.55,6.55,0,0,1,4-2.23,13,13,0,0,1,5.06.87,1.65,1.65,0,0,1,.77.66,5.16,5.16,0,0,1,2.77,1.41,29.59,29.59,0,0,1,2.35,2.84A8.19,8.19,0,0,1,48,31a5.14,5.14,0,0,1,.16,1.09,11.07,11.07,0,0,0,1.2,1.47c.69.8,1.35,2.47,2,5A23,23,0,0,1,53.5,41c.55.76,1,1.36,1.36,1.8a5.68,5.68,0,0,1,.66,1.47c.36-.11,1.42.56,3.16,2A14.27,14.27,0,0,1,56.17,46a2.5,2.5,0,0,1-1.31-.65,6,6,0,0,1-3.26-.6,14.46,14.46,0,0,1-3.44-2.18,11.88,11.88,0,0,1-3.32-1.47,20.3,20.3,0,0,1-3.16-3.38q-4.8-2.17-6.32-5.18a2.65,2.65,0,0,1-1.2-.65C33.82,31.43,33.51,31,33.23,30.58Z"/><path class="cls-3" d="M35.68,25.76l.06.32q0,.23-.06.27c-.07.08-.18.08-.32,0l-.17-.16c-.14-.18-.12-.33.06-.43S35.54,25.57,35.68,25.76Zm.82.59q.16-.21.33.06c.18.18.18.34,0,.49s-.29.07-.44-.11S36.32,26.54,36.5,26.35Zm2.73-.87.16-.05.11.11-.11.16a.23.23,0,0,1-.16-.05S39.19,25.56,39.23,25.48Zm-1,6.92a.27.27,0,0,1,0,.39c-.1.07-.18.07-.21,0l-.11-.11q-.16-.23.27-.39Zm-.59-1.79a10.75,10.75,0,0,1,1.19-1.37c.77-.83,1.22-1.34,1.37-1.52.87-1.35,1.47-2.24,1.79-2.67-.1.25-.56,1.14-1.36,2.67L38,30.39l0,0Zm5-1-.05.33-.22.11-.11-.17c-.07-.18,0-.29.28-.32Zm.55.87-.27-.05c-.11-.15,0-.29.27-.44l.11.11C43.37,30.21,43.33,30.33,43.15,30.44Zm4.58.87q-.39,3.17-1.75,4.36l.71-1.41c.11-.33.22-.62.33-.88,0,0,0,0,0-.05a1.26,1.26,0,0,0,.11-.38,5.66,5.66,0,0,0,.49-1.69Zm-.82.39.11.05c.11.11.09.24-.06.38H46.8l0-.16A.31.31,0,0,1,46.91,31.7Zm8.28,13.07a1.06,1.06,0,0,1-.22.49l-.21.17-.22-.06.65-1.25A1,1,0,0,1,55.19,44.77Zm-3.65-.87s0-.09,0-.16a.34.34,0,0,1,.22-.22l.05-.05a.58.58,0,0,1-.11.49A.21.21,0,0,1,51.54,43.9Zm.87.33-.11.05a.91.91,0,0,1,.06-.22.45.45,0,0,1,.11-.21l.16.16Zm-2.72-8.12.11.11s0,.11,0,.22a.38.38,0,0,1-.17.16l-.21-.11C49.34,36.35,49.43,36.22,49.69,36.11ZM45,38.56l-.27-.05a.52.52,0,0,1,0-.49l.32.1Zm4.47,1.09-.22.11c-.18-.18-.13-.31.16-.38l.16.16Zm-.66-.76-.16.16h-.22l-.05-.11a.55.55,0,0,0,.1-.16s.11,0,.22,0Zm-5.23-3c-.14-.14-.07-.27.22-.38l.11,0-.22.49S43.57,36,43.53,35.89Zm-.54.22a.78.78,0,0,1,.21-.6c.11-.15.28-.35.49-.6,0,.07-.14.25-.32.55L43,36Zm.1-1.09a10.17,10.17,0,0,1-1.52,2.56l-.49.11a10.11,10.11,0,0,0,.82-1.14,1.34,1.34,0,0,0,.16-.22.62.62,0,0,1,.11-.17A6.48,6.48,0,0,1,43.09,35Zm-3.59.27-.17-.22.33-.21.11.1.11.17-.11.16S39.64,35.33,39.5,35.29Zm7.57,7.36.11-.27.87-.5a8.51,8.51,0,0,0,1.47-1.25,4.23,4.23,0,0,1-1.3,1.58,1.84,1.84,0,0,1-.77.33A2.3,2.3,0,0,1,47.07,42.65Z"/><g class="cls-4"><path class="cls-3" d="M34.16,24.61h2.4a13.14,13.14,0,0,1,4.3,1.2,10.85,10.85,0,0,1,3.21,2.07c.08.11.35.75.82,1.91a9.5,9.5,0,0,1,.77,2.29,1.17,1.17,0,0,1-.22.6,1.11,1.11,0,0,0-.22.65,3.57,3.57,0,0,0,.44,1.36,1.36,1.36,0,0,1,.05.71,1.77,1.77,0,0,0,.16.76c.66,1.64,1,2.57,1.09,2.78a13.94,13.94,0,0,0,1.31,2.78c.22.44.51,1,.87,1.58-.29-.25-.6-.51-.92-.76a12.08,12.08,0,0,1-3.33-1.47,20.72,20.72,0,0,1-3.16-3.38q-4.78-2.17-6.32-5.18a2.65,2.65,0,0,1-1.2-.65,16.86,16.86,0,0,1-1-1.39c0-.17,0-.34,0-.52a36.9,36.9,0,0,0-.6-3.95A6,6,0,0,1,34.16,24.61Z"/></g><path class="cls-2" d="M32.52,25.78c.06,0,4.18-.22,5.67.68a15.08,15.08,0,0,1,4.14,4.36A1.51,1.51,0,0,1,42.5,32a6,6,0,0,1,1.57,3.21,29.57,29.57,0,0,1,.22,4.31,7.91,7.91,0,0,1-.6,1.71,4.34,4.34,0,0,1-.6,1.12c0,.91,0,1.65.06,2.21q.06,1.84-1.74,6a23.56,23.56,0,0,1,.35,3.62c0,1.1,0,2,0,2.65a6.47,6.47,0,0,1-.38,1.85c.44.11.95,1.46,1.53,4.06a17.71,17.71,0,0,1-2.13-2A2.86,2.86,0,0,1,40,59.16,7.19,7.19,0,0,1,37.4,56.3a14.43,14.43,0,0,1-1.61-4.39,11.48,11.48,0,0,1-2-3.7,18.48,18.48,0,0,1-.65-5.29,16,16,0,0,1-2.32-7.82S28,27.49,32.52,25.78Z"/><path class="cls-3" d="M36.45,27.94a1.4,1.4,0,0,1-.17.32c-.11.15-.18.22-.21.22a.34.34,0,0,1-.33-.22L35.68,28a.39.39,0,0,1,.39-.43C36.32,27.57,36.45,27.68,36.45,27.94Zm.6,1.41c0,.29-.13.44-.39.44s-.27-.13-.27-.38.11-.29.33-.33S37.05,29.13,37.05,29.35Zm-1.69,4.53-.49-.06a10.82,10.82,0,0,1,2-.44C38.19,33.17,39,33,39.23,33q2.61-.93,3.54-1.2c-.26.14-1.31.64-3.16,1.47L38,33.6l-2.67.22S35.32,33.86,35.36,33.88Zm4.57-3.71.17.11v.16l-.17.06c-.1,0-.16-.09-.16-.17S39.83,30.21,39.93,30.17Zm.17,6,0,.17-.27.27-.27-.05v-.28C39.68,36.05,39.84,36,40.1,36.16ZM40,37.58l-.21-.33c0-.22.18-.29.54-.22l.05.22A.34.34,0,0,1,40,37.58Zm2.62,3.76.05.11c0,.14-.11.24-.32.27l-.17-.11.06-.22A.41.41,0,0,1,42.66,41.34ZM42,42.65a11.91,11.91,0,0,0,1.64-1.2v0C42,43.27,40.39,44.21,39,44.34c.53-.26,1.08-.55,1.66-.87l.87-.52.11,0A2.86,2.86,0,0,0,42,42.65Zm.06,4.68,0,.11a.28.28,0,0,1-.11.22.37.37,0,0,1-.32.06l-.06-.22C41.62,47.32,41.77,47.26,42.06,47.33Zm-2.73,3.06-.27-.06c0-.29.15-.38.44-.27v.27Zm2.18,8.17a.86.86,0,0,1-.38.6,1.16,1.16,0,0,1-.6.27h-.32l-.11-.16Zm-7.62-22.4c-.15,0-.22,0-.22-.11v-.16c0-.22.14-.27.43-.16l.06.16A.24.24,0,0,1,33.89,36.16Zm-.6,3.27v-.32h.43l.06.16-.06.27-.22.06S33.39,39.54,33.29,39.43Zm-.22,3.33a9.6,9.6,0,0,0,1.58-.52l.27-.08.22-.11a11.05,11.05,0,0,1,1.58-.38,9.58,9.58,0,0,1-3.16,1.25Zm3.65-.49a2,2,0,0,0-.65.27l-.11.05a1,1,0,0,1,.6-.38,7.59,7.59,0,0,0,.81-.22A3.09,3.09,0,0,1,36.72,42.27Zm-.11.7a.17.17,0,0,1-.11-.16c0-.22.18-.29.55-.22l.11.06ZM36,46.24,35.79,46a.5.5,0,0,1,.33-.44l.22.27ZM38.84,49a.81.81,0,0,0,.22-.06s.11,0,.22.11v.17l-.22.05-.22-.11ZM36.5,51.48a12.67,12.67,0,0,0,2.29-.17,5.21,5.21,0,0,1-2.34.6,2.08,2.08,0,0,1-1-.22,1.48,1.48,0,0,0-.39-.21l.28-.11Zm2.78,5.17-.38.06-.11-.06s.05-.09.16-.16a.56.56,0,0,1,.28-.11Zm-.49-1.09.11.06a.7.7,0,0,1-.44.32.17.17,0,0,1,0-.32A.37.37,0,0,1,38.79,55.56Z"/></g></svg>