<svg xmlns="http://www.w3.org/2000/svg" viewBox="0 0 66 66"><defs><style>.cls-1{fill:#493c2d;}.cls-1,.cls-2{fill-rule:evenodd;}.cls-2{fill:#685a47;}.cls-3{opacity:0.5;}</style></defs><title>Plan de travail 36</title><g id="objet04"><path class="cls-1" d="M37.77,33.1a11.56,11.56,0,0,1-4.08-.65,4.07,4.07,0,0,1,0,.5A6.6,6.6,0,0,1,33,36.17a4.58,4.58,0,0,1-4.44,2.38,8.53,8.53,0,0,1-2.81-.4,2.92,2.92,0,0,1,.05.5,1.3,1.3,0,0,1-.44,1,7.64,7.64,0,0,1-1.86.94,3,3,0,0,1,.44,1,5.89,5.89,0,0,1,0,.85s-.15.74-.44,2.07a2.24,2.24,0,0,1-3,1.13c0,.09,0,.31-.1.65s0,.46,0,.72c0,.09-.2,1.35-.6,3.8,0,0,0,.07,0,.11l0,.2c0,.33-.09.66-.14,1-.71-.56-1.41-1.09-2.12-1.62A14.49,14.49,0,0,0,18.22,46a33.75,33.75,0,0,0-.55-6.87A4.62,4.62,0,0,1,19,37.92a14.6,14.6,0,0,0-1.27-3.09C16.66,33,15.49,32,14.22,32l.68-1.74,18.64-3.4ZM18,54.66l-1.58-1.43.09-.17.36-.72,2.28,2a10,10,0,0,1-.35,1c-.28-.26-.54-.51-.8-.74M16,53.91c.59.58,1.16,1.13,1.69,1.67a1.05,1.05,0,0,1-.28.17l-1.38-1.29a2.63,2.63,0,0,1,0-.29,2.26,2.26,0,0,1,0-.26m3.23-.06c-.69-.6-1.45-1.24-2.26-1.92.1-.24.2-.49.28-.73.73.56,1.46,1.12,2.2,1.71-.07.32-.14.64-.22.94m-1,2.67-.3-.28v-.13a2.34,2.34,0,0,0,0-.26l.39.4-.13.27"/><path class="cls-2" d="M3,24.41a5.45,5.45,0,0,1,.24-2,2.22,2.22,0,0,1,2.24-1.82,1.8,1.8,0,0,1,1.5.56,6,6,0,0,1,.44.76,17.7,17.7,0,0,1,3.1-6.6A26.48,26.48,0,0,1,16,9.52q3.18-2.41,5.16-1.89c1.1.29,1.8,1.23,2.11,2.83l.37-.41A3.93,3.93,0,0,1,26.21,8.4c.75,0,1.16.3,1.24.89a2.73,2.73,0,0,1-.12,1.09c3.05-2.81,5.23-3.84,6.54-3.07.84.49,1.31,1.62,1.4,3.39A9,9,0,0,1,36.76,9a14.58,14.58,0,0,1,4.9-2.89,7.47,7.47,0,0,1,4.89-.35c1.47.51,2.21,1.73,2.21,3.65a7.2,7.2,0,0,1-1.62,4.79c1.55-.8,2.33-.66,2.33.43a1.61,1.61,0,0,1-.13.59,12.6,12.6,0,0,1,4.2-.29,10.46,10.46,0,0,1,4.65,1.35,4,4,0,0,1,2.13,3.51,3.82,3.82,0,0,1-.86,2.51,1.47,1.47,0,0,0-.1.13l.22.19c2.28,2,3.42,4.21,3.42,6.54a7.31,7.31,0,0,1-.32,2.69c-.65,1.29-2.18,1.94-4.57,1.94a13.22,13.22,0,0,1-4.66-.73,5.12,5.12,0,0,1,0,.56,7.66,7.66,0,0,1-.83,3.68Q51.21,40,47.58,40a10,10,0,0,1-3.21-.45,2.76,2.76,0,0,1,.06.57,1.52,1.52,0,0,1-.5,1.18,8.65,8.65,0,0,1-2.13,1.06,3.39,3.39,0,0,1,.51,1.18,7.67,7.67,0,0,1,0,1c0,.06-.17.85-.51,2.36q-1,2.07-3.45,1.3c0,.1-.06.35-.11.74s0,.52,0,.82c0,.1-.23,1.54-.68,4.33l0,.14,0,.22c-.05.38-.1.76-.16,1.12-.81-.64-1.61-1.25-2.42-1.84a16.89,16.89,0,0,0,.81-5.18,38.63,38.63,0,0,0-.63-7.84,5.42,5.42,0,0,1,1.5-1.4,17.14,17.14,0,0,0-1.46-3.52c-1.2-2.14-2.52-3.22-4-3.22a49.45,49.45,0,0,0-9.08,1.51q-6.6,1.5-7.4,1.5a4,4,0,0,1-4-2.36l-.56-2.3a6.67,6.67,0,0,1,.19-1.48c-.12-.13-.22-.2-.28-.2-.33,0-.71.43-1.15,1.27a2.44,2.44,0,0,1-2.41,1.27,2.27,2.27,0,0,1-.9-.16c-1-.23-1.81-1.41-2.29-3.53C3.14,25.67,3,24.45,3,24.41m32.49,34-1.82-1.64.11-.19c.14-.27.28-.55.41-.83l2.61,2.35c-.12.4-.26.78-.4,1.15l-.91-.84m-2.2-.86,1.93,1.9a1.28,1.28,0,0,1-.32.2c-.59-.55-1.11-1-1.58-1.48,0-.19,0-.3,0-.32s0-.2,0-.3M37,57.47c-.78-.68-1.64-1.41-2.57-2.2.11-.27.22-.55.32-.82.83.63,1.66,1.28,2.51,1.94-.08.38-.16.73-.26,1.08m-1.15,3.05-.33-.32v-.15c0-.1,0-.2,0-.3l.44.46-.15.31"/><g class="cls-3"><path class="cls-1" d="M12.65,24.73a.6.6,0,0,1-.68-.68v-.29s.07,0,.09-.09a2.57,2.57,0,0,1,1,0l.09.44-.06.42c.08.13-.06.2-.41.2M25.71,14.5q.09.06.09.39c0,.33,0,.5-.06.5a1.69,1.69,0,0,1-.36.2.76.76,0,0,1-.32-.2.65.65,0,0,1-.15-.47.47.47,0,0,1,.53-.53.81.81,0,0,0,.27.11m-2.09,6.05a4.9,4.9,0,0,1-.45,1.71c-.33.84-.69,1.26-1.09,1.26a1.7,1.7,0,0,1-.41,0l-.21-.11c-.09.15-.14.07-.14-.27a5.41,5.41,0,0,1,.62-.82,4,4,0,0,0,.76-1.51v-.09a3.14,3.14,0,0,0-1.12,1.36,4.21,4.21,0,0,1-1.06,1.47l-.35-.08a.89.89,0,0,1-.06-.45c.17-.43.35-.89.53-1.38a7.22,7.22,0,0,0,.53-2.3,2.32,2.32,0,0,0-.09-.62,1.74,1.74,0,0,1-.12-.41,2,2,0,0,0-1.12,1.47A2.94,2.94,0,0,1,19,21.31s-.3-.74-.83-2.18a4.38,4.38,0,0,0-1.71-2.21,26.3,26.3,0,0,0-.26,2.71c0,.61-.05,1.55-.09,2.8a2.51,2.51,0,0,1-.38.24,1.92,1.92,0,0,1-.42-1.09c0-.2,0-.64,0-1.33a13.05,13.05,0,0,1,.27-3.57q.74-1.65,3.27,2.51a4.22,4.22,0,0,0,.71-1c.35-.47.69-.71,1-.71.85,0,1.3.47,1.36,1.42a5.54,5.54,0,0,1-.21,1.62l0,.06a2,2,0,0,1,.47-.54,1.27,1.27,0,0,1,.65-.26c.59,0,.85.25.8.74M34.05,19a.68.68,0,0,0-.12-.23.22.22,0,0,0-.29-.09q-.21.3-.21-.24a3.83,3.83,0,0,1,.5-.94,2.85,2.85,0,0,1,.65-.88l.44,0c0,.1,0,.34.06.71a1.69,1.69,0,0,1-1,1.65m-2.74-1.82a2,2,0,0,1-.35-.59l-.12-.3a1.82,1.82,0,0,1,.09-.74c.13-.25.49-.34,1.06-.26v.47a2.58,2.58,0,0,1-.39,1.33.65.65,0,0,1-.29.09m6.43,9.28c-.08,0-.12-.18-.12-.41a.59.59,0,0,1,.44-.65.93.93,0,0,1,.44.83,1.89,1.89,0,0,1-.44.35.74.74,0,0,1-.32-.12M44,13.12a.53.53,0,0,1-.32-.06c-.08,0-.12-.18-.12-.41s.34-.64,1-1.15a2.1,2.1,0,0,0,.33.11q.12.09.12.42c0,.47-.34.83-1,1.09m2.42,3.06c-.08,0-.12-.14-.12-.38a1.17,1.17,0,0,1,.39-.74.86.86,0,0,1,1-.23l.09.41c-.24.61-.52,1-.86,1a1.28,1.28,0,0,1-.47-.09M41.92,27.83H41.8s0-.11,0-.33A3.46,3.46,0,0,1,44,24.35c1.45-.73,2.18-.36,2.18,1.09A8.76,8.76,0,0,1,45.81,27a7.46,7.46,0,0,1-.47,1.51v.11a4.78,4.78,0,0,0,.74-.23,2.36,2.36,0,0,1,.74-.15,2.26,2.26,0,0,1,.67.12l.06,0s0,.11,0,.32a1.94,1.94,0,0,1-.2.83c-.1.18-.3.54-.59,1.09.66,0,1,.23,1,.62s-.26.67-.77,1.18a2.49,2.49,0,0,1-1.41.79l-.53-.11L45,33v-.33a.62.62,0,0,1,.06-.32l-.24.12a1.21,1.21,0,0,1-.59.17.88.88,0,0,1-.41-.06l-.06-.06a.47.47,0,0,1-.15-.08s-.06-.14-.06-.36a15.78,15.78,0,0,1,1.3-1.21c.94-.82,1.48-1.3,1.59-1.44l.06-.09a2.66,2.66,0,0,0-1.12.38,2.73,2.73,0,0,1-1,.39,1.25,1.25,0,0,1-.38,0V30a.69.69,0,0,1-.18-.09,1,1,0,0,1,0-.35c0-.06.25-.66.74-1.8a10.81,10.81,0,0,0,.91-2.68.27.27,0,0,0,0-.12c0-.08-.14-.12-.35-.12a2.44,2.44,0,0,0-2.15,1.33,5,5,0,0,1-1,1.62m17.19-1.12a1.23,1.23,0,0,1-.74.17l-.91-.11a2,2,0,0,1-.15-.5,2.42,2.42,0,0,1,1.74-.3s0,0,.06.06,0,.1,0,.29q0,.54,0,.39M39.62,43.33s0,.11,0,.33a.54.54,0,0,1-.23.44.92.92,0,0,1-.68.24.83.83,0,0,1-.41-.06.27.27,0,0,0-.15-.18l-.06-.24a1.34,1.34,0,0,1,.47-.5,1.17,1.17,0,0,1,1,0Zm-.29-2.65a.63.63,0,0,1-.12-.44c0-.26.28-.45.83-.59a.79.79,0,0,1,1.06.65,1.72,1.72,0,0,1-.65.29l-.83.18a1.05,1.05,0,0,1-.29-.09"/></g></g></svg>