<svg xmlns="http://www.w3.org/2000/svg" viewBox="0 0 66 66"><defs><style>.cls-1{opacity:0.5;}.cls-2{fill:#c5e3ea;}.cls-2,.cls-3,.cls-4{fill-rule:evenodd;}.cls-3{fill:#bae5f4;}.cls-4{fill:#84afbf;}</style></defs><title>Plan de travail 29</title><g id="objet03"><g class="cls-1"><path class="cls-2" d="M50,10.43a1.25,1.25,0,0,1-.38-.38.85.85,0,0,1-.17-.42c0-1,1-1.62,3.08-1.73s3.08.65,3.08,2.28c0,1-.64,2.17-1.9,3.5S51.72,16,51.72,16.75s.59,1.31,1.77,1.9c.7.34,2,.89,3.88,1.65q5.66,2.52,5.65,7a10,10,0,0,1-1.35,5.48Q59.48,36.1,53.87,37l-.38.21c-.68.63.62.58,3.88-.17,2.5.2,3.94,1.44,4.3,3.71a12.54,12.54,0,0,1-.34,6,6.91,6.91,0,0,0,.34,5.35,1.73,1.73,0,0,0-.34.25,3.56,3.56,0,0,0-.8,0q-3.75.6-3.75,7.09a7.4,7.4,0,0,0,.13.75,6.53,6.53,0,0,1-.72-1.81c-.2-.81-.48-2.8-.84-5.94q-1.07-8.65-4-8.65a4.7,4.7,0,0,1-4.17-2,4.26,4.26,0,0,1-.93-2.53,4.38,4.38,0,0,1,2.82-4.53c1.88-.75,2.7-1.59,2.47-2.51a16.62,16.62,0,0,0-2.38-4.41,11.45,11.45,0,0,1-2.07-6.55,14.35,14.35,0,0,1,2.24-7.55,1.85,1.85,0,0,1,.21-.34c-.17-.17-.26-.28-.26-.34A4.83,4.83,0,0,1,50,10.43"/></g><path class="cls-3" d="M3,28.94Q8.8,32.74,10.61,34q11.48,8,11.85,8.31,2.74,2.14,10.88,9.1l6.53,5.69Q54.38,3.52,50.79,5.87c-1,.51-2.09,1.07-3.24,1.69Q28,17.81,11.29,25c-1.78.75-4.53,2.08-8.27,4"/><path class="cls-4" d="M3.31,28.91c-3.74.87,24.91,28.75,34.89,29.16S9.15,27.57,3.31,28.91Z"/></g></svg>