<svg xmlns="http://www.w3.org/2000/svg" viewBox="0 0 66 66"><defs><style>.cls-1{fill:#f24827;}.cls-1,.cls-2,.cls-3,.cls-5,.cls-6{fill-rule:evenodd;}.cls-2{fill:#d32c16;}.cls-3{fill:#6d6154;}.cls-4{opacity:0.5;}.cls-5,.cls-7{fill:#514439;}.cls-6{fill:#3f3e3d;}</style></defs><title>Plan de travail 30</title><g id="objet03"><path class="cls-1" d="M51.14,19.76A10.42,10.42,0,0,1,53,19.54q4.21-.15,4.22,2.71a3.85,3.85,0,0,1-1,2.11l-.21.26.18,0c2.08.4,3.13,1.3,3.13,2.69a3.32,3.32,0,0,1-1,1.77l-.15.16a7.59,7.59,0,0,1,.69.36Q63,32,63,34.33a1.89,1.89,0,0,1-.21,1.06c-.34.46-1.13.68-2.37.68l-1,0a3.64,3.64,0,0,1,1.12,2.31q0,1.89-2.49,2a9.09,9.09,0,0,1,2.31,5.45,7,7,0,0,1-.21,2.18c-.51,1.13-1.72,1.69-3.65,1.69a5.28,5.28,0,0,1-1.21-.13,1.61,1.61,0,0,1,0,.37,1.64,1.64,0,0,1-.15.8,1.2,1.2,0,0,1-1.12.5c-.47,0-1-.42-1.62-1.25-.14-.19-.25-.37-.35-.52-.12.17-.25.34-.4.52a3.28,3.28,0,0,1-2.58,1.25,3.6,3.6,0,0,1-2.94-1.12,2.17,2.17,0,0,1-.52-1,2.82,2.82,0,0,1-.68.08,1,1,0,0,1-.87-.47c0-.18.11-.38.17-.57a22.23,22.23,0,0,0,1-5.37,38.94,38.94,0,0,0-.37-5.85A19.94,19.94,0,0,0,43.22,31c-.59-1.31-1-2.3-1.36-3a22.14,22.14,0,0,0-1.58-3c-.3-.47-.63-1-1-1.52v0a1,1,0,0,1,0-.31,7,7,0,0,1,1.67-4.4,10.4,10.4,0,0,1,3.69-2.89,6,6,0,0,1,3.7-.7A2,2,0,0,1,50,17.38a2.86,2.86,0,0,1-.32,1.06c1.14-.43,1.7-.18,1.7.76a1,1,0,0,1-.22.56"/><path class="cls-2" d="M40.67,22.56s2.75-5.58,4.66-4.87,2,3.17,2,3.17.91-.77,1.62-.35-.5,1.2-.5,1.2,4.1-.71,5.16,1.41-1.62,4-1.62,4,2.75-.07,2.75,1.48a1.56,1.56,0,0,1-1.48,1.62s6.07,1.34,5.64,3.25-5.22,1.48-5.22,1.48,4.38,1.63,3,3.61-2.55,1.34-2.55,1.34,4.71,3.28,1.28,6c-1.7,1.34-2.48.35-2.48.35s.92,2.4-.14,2.54-1.69-1.06-1.69-1.06-3.67,3-4.94.29c0,0-1.71,1.7-2.09.64a3.39,3.39,0,0,1,.53-2.48Z"/><path class="cls-3" d="M17.24,27.25A19,19,0,0,0,22,24.49q1-.73,4.6-4.14a26.89,26.89,0,0,0,3-3.44A14.39,14.39,0,0,1,34.18,15a5.17,5.17,0,0,1,3.68.26,3.79,3.79,0,0,1,.72.49c.42.85.93,1.82,1.51,2.89A39.29,39.29,0,0,1,42.33,26v1.12c0,.23,0,.7.11,1.41a4.33,4.33,0,0,1-.26,1.82q-.95,2.26-5.18,2.26-3.11,0-10.55-2.55a83.69,83.69,0,0,0-8-2.55,2.29,2.29,0,0,1-1.17-.23"/><g class="cls-4"><path class="cls-5" d="M42.36,29.34S40.89,19.06,38.68,17.1,37.38,26.65,30.52,29c0,0,8.33,3.67,11.84.32"/></g><path class="cls-6" d="M32.1,31.82q-7.6-2-10.25-2.59a40.3,40.3,0,0,1-4.78-1.31c1.23-1.18,2.15-2.09,2.78-2.73q8.92.87,24.51,6.35a.86.86,0,0,1,.15.22q-4.8,2.06-12.41.06"/><path class="cls-3" d="M14.79,24.62Q18.6,26,22.42,27a56.15,56.15,0,0,0,8.22,1.61h3.6q.78-.12,5.25-1.35a40.34,40.34,0,0,1,4.66-1.12q3.85,0,6.41,8.8a56.2,56.2,0,0,1,1.38,6.17c.12.7.25,1.89.41,3.57a24,24,0,0,1-2.6,2.29,10.53,10.53,0,0,1-5,1.34,8.81,8.81,0,0,0-1,0c0-.28,0-.61,0-1v-4.8a78,78,0,0,1-13.56-4.9q-9.1-4.1-12.6-7H11.15l-.68-.13c.1.11-.5,0-1.78-.2-.25-.19-.53-.41-.82-.66a24.14,24.14,0,0,1-2.19-2c-1.06-1-1.73-1.75-2-2.11A2.78,2.78,0,0,1,3,23.58Q3,21,7.76,22.28c1.7.45,4.05,1.23,7,2.34"/><path class="cls-7" d="M44.1,48.28l-.4,0v0Z"/><path class="cls-7" d="M46.35,43.18c-6.22-1.55-27.81-12.64-27.81-12.64l-2.93-1.29-.53-.31c-3.92-2.26-6.35-3.38-7.29-3.38s-1.64.32-1.64,1,.56,1.61,1.68,3l0,0c.29.25.57.47.82.66,0,0,12.09,9.53,20.64,13.29,8.31,3.65,9.4,4.3,14.36,4.75v0h1.59a3.63,3.63,0,0,0,1.06-.15,12.63,12.63,0,0,0,1.44-.36l.76-.64a2.87,2.87,0,0,0,.78-2c1-.1,1.7-.57,1.7-.94C49.58,43.91,48,43.59,46.35,43.18Z"/></g></svg>