<svg xmlns="http://www.w3.org/2000/svg" viewBox="0 0 66 66"><defs><style>.cls-1{fill:#ffac00;}.cls-1,.cls-2,.cls-3,.cls-5,.cls-6,.cls-7,.cls-8{fill-rule:evenodd;}.cls-2{fill:#e29814;}.cls-3{fill:#d69000;}.cls-4{opacity:0.5;}.cls-5{fill:#fff;}.cls-6{fill:#d3e7f2;}.cls-7{fill:#a7c6d3;}.cls-8{fill:#e8f2f7;}</style></defs><title>Plan de travail 34</title><g id="objet04"><path class="cls-1" d="M29,20.8a3.4,3.4,0,0,1,.54.88,6.39,6.39,0,0,1,.44,2.66,32.15,32.15,0,0,1-1.28,4,46.26,46.26,0,0,1-3.59,7.39,29.08,29.08,0,0,1-3.5,5.13q-3.3,3.84-6.06,2.46a1.66,1.66,0,0,0-.35-.35,84.21,84.21,0,0,0-7.38-7.09l0-.1-4-2.31a1.74,1.74,0,0,1,.29-1.53c.2-.36.39-.69.59-1A33.63,33.63,0,0,1,6,26.56a29.62,29.62,0,0,1,4.8,1.63C13.59,25.75,15,23.65,15,21.88q-3.11-2.76-4.88-4.29c1.71-3.57,2.58-5.38,2.61-5.41a3.28,3.28,0,0,1,.79-1,.92.92,0,0,0,.05-.2q.84-1.43,3.45.2c.36.33.72.67,1.08,1a78.09,78.09,0,0,0,6.65,6.15l3.84,2.22a.12.12,0,0,1,.05.1c.1,0,.17,0,.2.05a.14.14,0,0,0,.1.05"/><path class="cls-2" d="M10.63,37.84l.79.25-.2-.3a9.26,9.26,0,0,1-1.52-.74,4.06,4.06,0,0,1-1.19-.88,1,1,0,0,1-.09-.4l.24.15A14.18,14.18,0,0,0,13.05,38a3.84,3.84,0,0,1,2.07.93c0,.1-.15.12-.35,0a9.34,9.34,0,0,0-1.87-.54,10.23,10.23,0,0,1-1.53-.52.43.43,0,0,1,.25.28c.79.22,1.82.55,3.1,1a14.75,14.75,0,0,0,3,.79v.34a4.16,4.16,0,0,1-2,.2,7,7,0,0,1-2.61-.74l1,1.38a10.38,10.38,0,0,0,2.76,2.22h-.64l-.89-.54a22.82,22.82,0,0,1-2.12-2.37,7.66,7.66,0,0,1-.83-1.08l-1-.79a4.66,4.66,0,0,0-.64-.74M8.22,30.7l-.84.69a4.1,4.1,0,0,0-.64.83,2.09,2.09,0,0,0-.39,1.38A36.61,36.61,0,0,1,9.2,35.92c.23.2.45.39.64.59a2.77,2.77,0,0,0-.24-.15L5.85,33.85a.53.53,0,0,1,0-.64l.25.15a2.11,2.11,0,0,0,0-.74,5.38,5.38,0,0,1,.35-.54A3.08,3.08,0,0,1,7,31.34l1.18-.69Zm8-17.14a2.8,2.8,0,0,1,.24-1,7.83,7.83,0,0,1,.64-.84h.05a14,14,0,0,0-.44,2.91l-.15.1a1.34,1.34,0,0,1-.34-1.13"/><path class="cls-3" d="M16.71,16.54s.78-4.34-1.89-2.79a21.3,21.3,0,0,0-4.68,3.84S6.86,25.13,6,27s-.13,4.69,3,3S16.55,25.11,16.71,16.54Z"/><path class="cls-2" d="M16.25,13.75q2.57,1.38,1.23,6.8a15.1,15.1,0,0,1-2.86,6.6s-1,.79-3,2.27-3.47,1.9-4,1.47c-.13-.16-.15-.22,0-.19l.1-.3c.29-.23,1.15-.87,2.56-1.92a8.68,8.68,0,0,0,2.22-1.87q3.24-3.75,3.84-12.86"/><g class="cls-4"><path class="cls-5" d="M20.34,21.24a5,5,0,0,1-1.09,2.27,6,6,0,0,1-2.61,2.31.46.46,0,0,1-.24-.24,2.84,2.84,0,0,1,0-.74,6.33,6.33,0,0,1,2-4.88q2-1.87,2,1.28m-6.11,6.31a2.82,2.82,0,0,1-.15-.89c0-.69.36-1,1.08-.94a1.14,1.14,0,0,1,1,1.28c0,.89-.35,1.33-1,1.33q-.63,0-.93-.78m-6.33,3a2.08,2.08,0,0,1,1,1.77,2.76,2.76,0,0,1-.39,1,3.78,3.78,0,0,1-.89,1.18,2.23,2.23,0,0,1-.94-1.48A3.08,3.08,0,0,1,7.9,30.56"/></g><path class="cls-6" d="M22,20.77C22,20,22,19.4,21.93,19V16.87q1.11.28,2.64.72l1.54.53v3.42a.6.6,0,0,1-.29.14Z"/><path class="cls-7" d="M30.49,16.53a2.27,2.27,0,0,1-1.78,1.73,2.11,2.11,0,0,1-1.92-.33,1.66,1.66,0,0,1-.73-.82.57.57,0,0,1,.15-.58,4.29,4.29,0,0,1,.82.68,1.71,1.71,0,0,0,1.54.28,1.38,1.38,0,0,0,1.15-1.73,1.3,1.3,0,0,0-1.11-.91,3.12,3.12,0,0,1-1-.39c-.12-.51.29-.67,1.26-.48s1.41.48,1.53,1a3.38,3.38,0,0,1,.1,1.59"/><path class="cls-8" d="M25.15,15.18a3.51,3.51,0,0,0,.48-1,.74.74,0,0,1,1-.43,7.67,7.67,0,0,1,.63.77,3.83,3.83,0,0,1,.38.62,5.26,5.26,0,0,1-.82,2.55c-.7,1.51-1.38,2.35-2,2.51a1.33,1.33,0,0,1-1.39-.48,7.65,7.65,0,0,1-.48-.77,1.67,1.67,0,0,1,.33-1.59,15.79,15.79,0,0,0,1.88-2.22"/><path class="cls-6" d="M27.17,12.44c.8.07,1.32.32,1.54.77a1.61,1.61,0,0,1-.05,1.49c-.29.58-.53.89-.72.92a2,2,0,0,1-1.87-.43l-.82-.82a3.32,3.32,0,0,1-.05-.58c.19-.32.38-.67.58-1.06a.63.63,0,0,1,.14-.24c.06-.13.48-.14,1.25-.05"/><path class="cls-8" d="M28.68,13a1.87,1.87,0,0,1,.19.62.8.8,0,0,1-.48.34,1.62,1.62,0,0,1-1.54-.48,2.51,2.51,0,0,1-.72-1,.4.4,0,0,1,.05-.34,3.37,3.37,0,0,1,1,0,1.8,1.8,0,0,1,1.54.77"/><path class="cls-1" d="M56.27,50.8a3,3,0,0,1-.37,1A5.42,5.42,0,0,1,54,53.62a31.31,31.31,0,0,1-4.28,1,48.57,48.57,0,0,1-8.78.65,32,32,0,0,1-6.8-.48c-3.72-.65-5.84-2.08-6.38-4.27a1.73,1.73,0,0,0,.05-.51,81.45,81.45,0,0,0,.73-10.65h.12l-.92-5c.22-.36.72-.55,1.5-.55.44,0,.86,0,1.25,0a32.58,32.58,0,0,1,4.66-1.11,36.79,36.79,0,0,1,2,5.32c4,1.24,6.77,1.4,8.28.48q.12-4.37.15-6.82c4.23-.35,6.37-.51,6.42-.5a3.62,3.62,0,0,1,1.39.2l.2-.06c1.2,0,2,1.1,2.29,3.29,0,.51-.06,1-.11,1.56a77.12,77.12,0,0,0-.46,9.47l.86,4.74c0,.05,0,.08,0,.1a.38.38,0,0,1,.1.21.12.12,0,0,0,0,.12"/><path class="cls-2" d="M28.89,43c.08.22.2.51.35.86,0-.11.07-.22.11-.34a10.22,10.22,0,0,1-.46-1.81,3.87,3.87,0,0,1-.09-1.57.7.7,0,0,1,.26-.3l.05.31a16.12,16.12,0,0,0,1.37,5.16,4.37,4.37,0,0,1,.68,2.42c-.11,0-.2-.07-.29-.29a11.05,11.05,0,0,0-.87-2,12.81,12.81,0,0,1-.65-1.69.36.36,0,0,1-.05.37c.36.85.82,2,1.37,3.4a18.77,18.77,0,0,0,1.44,3.16l-.29.18a5.91,5.91,0,0,1-1.61-1.76A9.1,9.1,0,0,1,29,46.29c-.19.71-.34,1.26-.46,1.65a10.44,10.44,0,0,0,.09,3.75l-.45-.6L28,50a21.34,21.34,0,0,1,.49-3.23,6.86,6.86,0,0,1,.32-1.36c0-.52-.05-1-.07-1.38a4.34,4.34,0,0,0,.17-1M33.2,37,32,36.54a4.42,4.42,0,0,0-1.16-.14,2,2,0,0,0-1.44.38,35.32,35.32,0,0,1,.07,3.89,8.84,8.84,0,0,1,0,.91,1.82,1.82,0,0,0-.05-.31c-.34-2.91-.52-4.51-.54-4.81a.47.47,0,0,1,.5-.4,2.26,2.26,0,0,0,.05.31c.44-.18.66-.3.66-.35a5.46,5.46,0,0,1,.7,0,3.61,3.61,0,0,1,1,.1l1.42.72Zm20.14-1.8a2.74,2.74,0,0,1,1-.33,6.62,6.62,0,0,1,1.16.14l0,0a12.83,12.83,0,0,0-2.77,1.16l-.19-.09a1.13,1.13,0,0,1,.71-.92"/><path class="cls-3" d="M51.16,37.18s4.21-1.62,1-3.25a27.17,27.17,0,0,0-6.56-2.26L34.77,32.94c-2.15.26-4.05,2.4-.37,4.39S43.82,41.65,51.16,37.18Z"/><path class="cls-2" d="M53.18,35.25c.44,2.08-1.18,3.67-4.86,4.8a15.73,15.73,0,0,1-7.59.91s-1.39-.52-4.08-1.61-4.06-2.18-4.08-2.89c0-.21.09-.26.13-.15l.33-.07,3.43,1.33a11.26,11.26,0,0,0,3.15,1q5.47,1,13.57-3.37"/><g class="cls-4"><path class="cls-5" d="M49.77,43.06a5.26,5.26,0,0,1-2.68.22,7.59,7.59,0,0,1-3.8-1.17.42.42,0,0,1,0-.36,2.89,2.89,0,0,1,.59-.44,6.52,6.52,0,0,1,5.54-.76c2,.55,2.09,1.38.32,2.51m-9.65-2.25a2.36,2.36,0,0,1,.64-.62c.58-.37,1.1-.2,1.56.5A1.08,1.08,0,0,1,42,42.34a1.24,1.24,0,0,1-1.86-.24,1,1,0,0,1,0-1.29m-7-4.23a1.83,1.83,0,0,1-.8,1.87,2.82,2.82,0,0,1-1.15.19,4.26,4.26,0,0,1-1.63-.19c0-.87.23-1.43.59-1.66a3.27,3.27,0,0,1,3-.21"/></g><path class="cls-6" d="M51.44,44.49c.63-.44,1.11-.79,1.44-1l1.79-1.14c.32.73.7,1.6,1.13,2.63q.24.69.57,1.59l-2.88,1.83a.77.77,0,0,1-.31-.16Z"/><path class="cls-7" d="M60.6,49.38A2.7,2.7,0,0,1,58,48.8,2.32,2.32,0,0,1,57,47a1.47,1.47,0,0,1,.21-1.05.58.58,0,0,1,.59-.19,5,5,0,0,1,0,1.06,1.89,1.89,0,0,0,.77,1.46,1.55,1.55,0,0,0,2.22,0,1.2,1.2,0,0,0,0-1.43,3.42,3.42,0,0,1-.34-1.06c.35-.38.76-.12,1.23.8s.53,1.45.21,1.82a3.22,3.22,0,0,1-1.28.94"/><path class="cls-8" d="M58.21,44.13A4.6,4.6,0,0,0,59.34,44a.88.88,0,0,1,1,.62,7,7,0,0,1-.23,1,3.49,3.49,0,0,1-.28.66c-.23.27-1.13.5-2.69.68-1.73.21-2.88.09-3.44-.36a1.37,1.37,0,0,1-.51-1.44,4.86,4.86,0,0,1,.33-.83,1.69,1.69,0,0,1,1.56-.57,18.37,18.37,0,0,0,3.1.4"/><path class="cls-6" d="M61.86,44.37q.7,1.07.36,1.71a1.54,1.54,0,0,1-1.28.77c-.68.06-1.1,0-1.25-.12a2.11,2.11,0,0,1-.87-1.82c.09-.72.14-1.09.14-1.14a3.75,3.75,0,0,1,.46-.35c.4,0,.82,0,1.27-.08a.77.77,0,0,1,.3,0c.15,0,.44.33.87,1"/><path class="cls-8" d="M62.42,45.92a1.87,1.87,0,0,1-.4.5,1,1,0,0,1-.6-.23,1.7,1.7,0,0,1-.61-1.56,2.17,2.17,0,0,1,.33-1.13.4.4,0,0,1,.32-.14,4,4,0,0,1,.59.84,1.8,1.8,0,0,1,.37,1.72"/></g></svg>