<svg xmlns="http://www.w3.org/2000/svg" viewBox="0 0 66 66"><defs><style>.cls-1{fill:#e7eff2;}.cls-1,.cls-2,.cls-3,.cls-4{fill-rule:evenodd;}.cls-2{fill:#b9cfd6;}.cls-3{fill:#9aadb2;}.cls-4{fill:#d3dfe2;}</style></defs><title>Plan de travail 47</title><g id="objet05"><path class="cls-1" d="M30.06,24.46c-.28-.27-.66-.62-1.12-1s-.65-.76-.58-1q-2-1.89-5.33-5.31-7-7.17-7.22-7.54c-.18-.25-.36-.48-.53-.69a.65.65,0,0,0-1,0,1.14,1.14,0,0,0-.27.33,3.35,3.35,0,0,0-1-1.86q-.26,1.92-1.26,6c-.06.27-.13.54-.2.79l.54.09a1.42,1.42,0,0,0,.39.18c.16,1,.31,1.85.43,2.59a41.91,41.91,0,0,1,7,3.31A41.29,41.29,0,0,1,24,23.27q1.68,1.45,5.9,5.89l.06.06A17.8,17.8,0,0,0,30.7,27c.13-.48.24-.91.33-1.31l-1-1.22"/><path class="cls-2" d="M23.66,21.12l1.17,1.09c.07.05.44.38,1.11,1,.41.38.74.7,1,1s.4.46.59.68l-3.3-5.26h.07a42.61,42.61,0,0,1,4.35,6.67,16.61,16.61,0,0,1,1.24,1.87l-.15.15c-3.16-3.22-5.56-5.79-7.2-7.68a1.81,1.81,0,0,1,1.14.54m-8.5-9.84a2.67,2.67,0,0,1-2.06,2.46,10.35,10.35,0,0,0,.65-1.47,5.7,5.7,0,0,0,.39-1.71L14,9.11c0-.3.16-.39.47-.29a1,1,0,0,1,.63.5,5.42,5.42,0,0,1,.69,1.78,9.88,9.88,0,0,1,.2,2V14a3.18,3.18,0,0,1-.23.88h-.15a22.29,22.29,0,0,0-.37-3.13l-.06-.42"/><path class="cls-1" d="M51.45,24.33l-4.28-1.45-.32.47a5.7,5.7,0,0,1-.8,1.08.38.38,0,0,1-.41-.33.82.82,0,0,1,0-.44l0-.06a29.62,29.62,0,0,0-7.07,6.27c-.48,0-.94-.36-1.37-1.09a7,7,0,0,1-.61-2,2.31,2.31,0,0,1,.05-.83,50.65,50.65,0,0,1,10.1-7,10.26,10.26,0,0,1,4.68-.09c2.1.32,3.3.66,3.6,1-.4,1-.71,1.76-.95,2.24a6.07,6.07,0,0,1-.59,1l0,.06a4.83,4.83,0,0,1-1.93,1.24"/><path class="cls-2" d="M53.25,21.35a4.74,4.74,0,0,1-1.79.55,1.47,1.47,0,0,1-.44-.08c.24-.12.95-.4,2.12-.83.45-.16.82-.29,1.09-.41a3.85,3.85,0,0,1,.73-.44c0,.34-.52.91-1.5,1.7a5.22,5.22,0,0,1-3.19,1.38l-.57-.06L49.6,23a9.25,9.25,0,0,1,1.45-.51,6.74,6.74,0,0,0,1.68-.73l.52-.39m-6.42-1.71a7.59,7.59,0,0,0-.56,3.46,7.78,7.78,0,0,1,.89-1.83c.75-1.19,1.44-1.75,2.08-1.68l0,.16a17.27,17.27,0,0,1-3,4.09l-.08-.05v-.11c-.22,0-.4-.27-.54-.7s-.13-.68-.13-.7a4.6,4.6,0,0,1,.31-1.5c.26-.76.59-1.14,1-1.14M39,28.31l0-.12a8.41,8.41,0,0,1,1.71-2.7A14.77,14.77,0,0,1,42.87,23c-.42.68-1.06,1.62-1.9,2.84a19.62,19.62,0,0,1,2.75-2.45q-.77.78-2.84,3.19a18.91,18.91,0,0,1-2.23,2.32c.11-.19.23-.38.35-.57"/><path class="cls-2" d="M56.32,17.68c.74.72,1.53,1.46,2.35,2.21-.38.52-1.31,1.57-2.78,3.14a23.19,23.19,0,0,1-3.28,3.2,28.61,28.61,0,0,0-2.93-1.1c.84-.9,1.81-2,2.89-3.18,1.55-1.74,2.79-3.16,3.75-4.27m-49-4.08a15.09,15.09,0,0,0,1.11-3.4c.5-2.8.77-4.31.8-4.53.14-.9.23-1.79.28-2.67.61.14,1.55.4,2.81.77a5.21,5.21,0,0,0,1.44,3.12v.48a16.91,16.91,0,0,1-.49,3.94,15.21,15.21,0,0,1-1.34,3.78c-.24.44-.52.93-.86,1.46q-2.1-1.74-3.75-3"/><path class="cls-3" d="M44.11,55.05q-.15-.33-.42-.84a19.58,19.58,0,0,0-2.89-2.79l-.27-.19a4.66,4.66,0,0,1-.81.56,10.39,10.39,0,0,1-5.45,1.13,7.42,7.42,0,0,1-5.46-2.71c-.12-.13-.22-.27-.33-.41q-3.32,3.27-6.09,5.69,2,2.91,8.26,4.59c.79-.64,1.8-1.43,3-2.39v.08c.18.89.36,1.72.52,2.49Q42.26,59.65,45,57c-.35-.86-.63-1.51-.84-1.93"/><path class="cls-3" d="M39.07,20.73s-7.54-.11-8.4.23v7.92L29.06,52.43,33,55l8.19-1.22L39,28.19l-.82-4.28,1.14-2.33Z"/><path class="cls-1" d="M41,28.34q2.2,6.15,3.31,19.09c.05.08,0,.28-.25.61a.83.83,0,0,1,.68.21.5.5,0,0,1,.13.31.68.68,0,0,1-.44.59c-.3.14-.44.26-.44.36v.11a2.13,2.13,0,0,1,1.78,1,10.06,10.06,0,0,0,1.79,2.22,27,27,0,0,1,1.94,2.07,15.52,15.52,0,0,1,1.55,1.92,3.65,3.65,0,0,1,.31.36,4.44,4.44,0,0,1,.48.71h0a8.16,8.16,0,0,0-3.83.47,7.78,7.78,0,0,0-2.61,1.47,23.33,23.33,0,0,1-1.94,1.69A12.5,12.5,0,0,0,41.83,63a.49.49,0,0,1-.15-.1h-.07c-.67-1.48-1.09-2.43-1.25-2.82q-.78-1.89-2.88-6.32c-.65-1.47-1.13-2.52-1.42-3.16a2.8,2.8,0,0,0-.22-.46.82.82,0,0,0-.12-.2c0-.42,0-.89,0-1.41l.26-7.3c0-.08,0-.16,0-.23,0-1.32,0-2.72,0-4.21Q36,23.34,36,23.32c.35-.15.76-.31,1.22-.47s1.07-.35,1.63-.49q.39,1,2.19,6"/><path class="cls-2" d="M40.44,48.76l2.71-.07-.33.15c-.09,0-1,.09-2.59.16l0,0Zm-.7,1.43c0-.28.66-.57,2-.88s2.12-.34,2.38-.08c-1.16.93-2.09,1.64-2.79,2.12l-.26-.23c0-.16.18-.4.54-.73a9.82,9.82,0,0,1,1-.75l0,0a5.45,5.45,0,0,0-1.43.36,12.26,12.26,0,0,1-1.29.44Z"/><path class="cls-1" d="M28.58,22.52l1.08.7.78-.7,2.24.7s0,9-.38,16.17l-2.14-14Z"/><path class="cls-4" d="M40.19,20.08s-6.2-.57-9.21.34a11.69,11.69,0,0,1-1.32,1.73,20.23,20.23,0,0,0,1.95,3,14.75,14.75,0,0,0,1.22-2.25s-1-1-1-1.58c0,0,7.38.08,8.05.28Z"/><path class="cls-4" d="M37.56,25.66c-.71-1-1.27-1.91-1.68-2.65a.19.19,0,0,1,0-.1,7.81,7.81,0,0,0,3.72-2.83h.09l.64,1a3.1,3.1,0,0,1,0,.54,42.44,42.44,0,0,1-2.8,4.09h0"/><path class="cls-4" d="M44.67,43.33l.22.26a32.49,32.49,0,0,0,2.56,2.53l.52.46q-1.89.26-6.19.71H39.24l-.2-.91-.2-.84c0-.46,0-.87,0-1.23V44h.08l.35-.05v0l.16-.05c1.16-.14,2.92-.32,5.27-.54"/><path class="cls-1" d="M31.71,32.25q-.26-4.79-.26-5.93V26.2l-1.39-1.74-.19-.18c-.52.12-.9.87-1.13,2.25-.37,2.09-.6,3.63-.69,4.63s-.28,2.46-.56,4.39-.58,3.64-.92,5.15a6.59,6.59,0,0,1-1.16,2.94,3.84,3.84,0,0,0-.89,1.27,3.56,3.56,0,0,0,.72,1.32,1.41,1.41,0,0,0-1,.18s-.05.12-.05.26a2.8,2.8,0,0,0,.41,1c0,.35-1.3,1.31-3.91,2.9a28.09,28.09,0,0,0-3.91,2.59,22.26,22.26,0,0,0,2.72,2c1.8,1.26,2.72,1.89,2.77,1.89q.83,0,3.65-2.48,2.18-1.92,3.83-3.46T31.66,42c.16-5,.21-7.76.17-8.18s-.08-1-.12-1.6"/><path class="cls-2" d="M27.34,46.12c1.07.31,1.65.6,1.76.86a.68.68,0,0,1-.44.23,9.06,9.06,0,0,0-1.43-.31l1.09.88V48c0,.07-.11.1-.23.1a3,3,0,0,1-1.35-.75A5,5,0,0,1,25.45,46q.29-.31,1.89.15m-1.27,3.76v.39l-.23.07c0,.07-.06,0-.06-.1q-.15-1-.18-1.53l.08,0a1.66,1.66,0,0,1,.26.59,2.48,2.48,0,0,1,.13.6m.7.1a1.06,1.06,0,0,1-.23.36,10.73,10.73,0,0,1-.63-1.29,3.29,3.29,0,0,0-1-1.35c.52-.1,1,.18,1.35.83A2.94,2.94,0,0,1,26.77,50m-1.71.1a.56.56,0,0,1-.16-.33.24.24,0,0,1,.16-.26c.07,0,.1.15.1.31a.32.32,0,0,1-.1.28"/><path class="cls-4" d="M23.05,42.94q.68-.33,1.41-.75c.75-.42,1.37-.8,1.88-1.15l1.28,1.12c.52.45,1,.84,1.44,1.18a.67.67,0,0,1-.07.17c-.5.55-.84.91-1,1.06l-1,.93a1.36,1.36,0,0,1-.48-.15,33.1,33.1,0,0,0-2.9-2L22.94,43l.11-.08"/><path class="cls-4" d="M51.62,18.87a.39.39,0,0,1,.18-.21l.08,0-.19.34h-.07Zm-31,1.55-.26.26-.15,0a.67.67,0,0,1,.41-.23m.21.85v-.1a1,1,0,0,1,.46-.49c0,.05.05.12.08.21a.29.29,0,0,1-.08.2,1.77,1.77,0,0,0-.15.18l-.13,0Zm-3.62-9.16-.16,0a1.45,1.45,0,0,1,.34-.6q.25-.33.36-.36a.36.36,0,0,1,.13.26c0,.09-.09.23-.26.41a1,1,0,0,1-.41.34m25.62,8.62a.42.42,0,0,1,.39.31c0,.12.08.28.13.47s-.07.07-.21.07-.16-.09-.23-.28a1,1,0,0,1-.11-.34Zm1.14-.05c0,.14,0,.21,0,.21L43.8,21a1.49,1.49,0,0,1-.18-.46,2.24,2.24,0,0,0,.08-.36h.07a4.63,4.63,0,0,0,.16.54m-.47,16a1.63,1.63,0,0,1-.31.18.9.9,0,0,1-.28.13l0,0a1.1,1.1,0,0,1,.29-.24.77.77,0,0,1,.28-.1Zm-.67,1.09a1.93,1.93,0,0,1,.67-.39l.16.1-.26.21a1.14,1.14,0,0,1-.52.15Zm6.81,16.3a2.6,2.6,0,0,1-.42.21l-.31.1a.4.4,0,0,1-.15,0l0-.06c0,.07,0,0,0-.07s.11-.16.33-.21a1.34,1.34,0,0,1,.55,0Zm-1.06-.31-.16-.08a.59.59,0,0,1,.18-.2.48.48,0,0,1,.18-.11l.08.11ZM27.65,37l-.18.08H27.1a.49.49,0,0,1-.07-.31c.08-.06.28,0,.59.15Zm-.34.85,0,.08a.18.18,0,0,1-.16.1c-.15,0-.26,0-.31,0a.42.42,0,0,0-.08-.13l.24,0,.28,0M19.55,51.82a1.18,1.18,0,0,1-.62-.21.86.86,0,0,1-.39-.36,1.75,1.75,0,0,1,1,.57m1.24,4.42a.35.35,0,0,0,.08-.15s.12,0,.26,0a.88.88,0,0,1-.26.24l-.08,0Zm.46.39-.2,0a.86.86,0,0,1,.36-.37l0,.13Zm6.58,2.49a.36.36,0,0,1,.49-.11,2.61,2.61,0,0,1-.23.29,1.31,1.31,0,0,1-.44.26c.12-.28.18-.42.18-.44m15.71,2.07s0-.13-.15-.23a.77.77,0,0,1,.62.18.08.08,0,0,1,0,.07s0,.06-.13.06Z"/></g></svg>