<svg xmlns="http://www.w3.org/2000/svg" viewBox="0 0 66 66"><defs><style>.cls-1{fill:#1c67a3;}.cls-1,.cls-2,.cls-3,.cls-4{fill-rule:evenodd;}.cls-2{fill:#2c85de;}.cls-3{fill:#2075ba;}.cls-4{fill:#39f;}</style></defs><title>Plan de travail 54</title><g id="objet06"><path class="cls-1" d="M48.17,26.25s-3-9.61-3.53-10.95c0,0,2-2.14,0-4l-3.35,2,3.07,9.79Z"/><path class="cls-2" d="M43.91,19.18c3.62.77,6.14,2,7.56,3.62,1.07,3.33.7,7-1.13,11.13q.82,3.1,3.38,11.37,2.74,8.93,4.76,14.89c.15.52.3,1,.45,1.43a3.57,3.57,0,0,1-.66.18,31.11,31.11,0,0,0-2.09-4.38q-2.16-3.87-3.28-4c-.71-.1-1,1.56-.73,5a2.17,2.17,0,0,0,0,.36,1.47,1.47,0,0,1-.37-.35q-1.91-9.46-3.53-9.52-1.65-.42-2.77,3.31a5.33,5.33,0,0,0-.53-.61,124.63,124.63,0,0,0-.93-17.21q-1-8.8-1.5-11.14Q41.41,18,40.11,13.36c-.53-2.11-.79-3.17-.76-3.18a13.62,13.62,0,0,0,1.93.35,31.67,31.67,0,0,1,3.37.81c.07-.06.05.16,0,.66a1.8,1.8,0,0,1-1,1.3l-.94.62q.22,1.1.57,2.7c.29.92.52,1.78.7,2.56"/><path class="cls-1" d="M44.76,25.45l.42.79.83,2A17.6,17.6,0,0,0,48.25,32a2.92,2.92,0,0,0,1.14.86.18.18,0,0,1,0,.14.2.2,0,0,1-.19.21c-.5,0-1.12-.53-1.85-1.48a18.73,18.73,0,0,1-1.9-3.58,6.17,6.17,0,0,1-.7-2.69m5.49,20a47.22,47.22,0,0,1,1.24,7l-.09-.1q-1.21-5.61-2.54-12.78a50.62,50.62,0,0,1,1.39,5.91M46,44.07,45.34,35c.13.61.3,2.28.51,5a24.36,24.36,0,0,1,.21,4.18Zm3.7-10.91c0-.13-.07-.22,0-.25A1.37,1.37,0,0,0,50,33l0,.12c.09.21,0,.31-.1.31l-.11,0Zm5.4,18.44a8.37,8.37,0,0,1,.68,2.52l-.27-.53q-.69-1.65-2.37-6.83l-.57-1.92.75,1.8c.9,2.47,1.49,4.13,1.78,5"/><path class="cls-3" d="M32.05,16.14S38.88,8.76,40,7.8c0,0-.86-2.78,1.7-3.58l2.16,3.25-7,7.5Z"/><path class="cls-4" d="M39,11.62q-5.4-1.32-8.39,0c-2.4,2.54-3.66,6-3.79,10.53q-2.09,2.45-8,8.79Q12.5,37.8,8.09,42.31c-.36.41-.7.77-1,1.09a2.8,2.8,0,0,0,.52.45,30.32,30.32,0,0,1,3.77-3Q15,38.25,16.05,38.6c.69.22.19,1.82-1.49,4.82a3.24,3.24,0,0,1-.17.32,1.46,1.46,0,0,0,.49-.16c3.86-5.14,6.3-7.49,7.29-7q1.66.33,1.07,4.17a5.28,5.28,0,0,1,.74-.32,126.12,126.12,0,0,1,8.27-15.12q4.74-7.5,6.17-9.4Q41.71,11.65,44.88,8c1.4-1.67,2.08-2.51,2.06-2.53a15,15,0,0,1-1.89-.53q-1.87-.48-3.39-.72c0-.08-.12.12-.24.62a1.79,1.79,0,0,0,.36,1.61l.58,1c-.45.6-1,1.33-1.68,2.2a26.1,26.1,0,0,0-1.73,2"/><path class="cls-3" d="M35.47,16.9l-.72.53-1.61,1.45a17.53,17.53,0,0,1-3.65,2.41,3.05,3.05,0,0,1-1.39.29c-.05,0-.07.07-.07.11a.22.22,0,0,0,.07.28,3.17,3.17,0,0,0,2.32-.54A18.41,18.41,0,0,0,33.67,19a6.24,6.24,0,0,0,1.8-2.13M21.88,32.57a46.49,46.49,0,0,0-4.13,5.76l.12,0q3.52-4.53,7.81-10.43a49.47,49.47,0,0,0-3.8,4.72m4.47.61,4.49-8q-.57.75-2.6,4.28a25.68,25.68,0,0,0-2,3.68Zm1.38-11.44a.61.61,0,0,0,.16-.2,1.55,1.55,0,0,1-.36-.08l-.09.08c-.17.15-.19.26-.05.33h.12ZM14.9,36a7.91,7.91,0,0,0-1.7,2l.47-.36c.88-.8,2.58-2.51,5.08-5.14.5-.55.94-1.05,1.35-1.49l-1.46,1.31Q15.82,35.1,14.9,36"/></g></svg>