<svg id="objet01" xmlns="http://www.w3.org/2000/svg" xmlns:xlink="http://www.w3.org/1999/xlink" viewBox="0 0 66 66"><defs><style>.cls-1,.cls-2{fill:none;}.cls-1{clip-rule:evenodd;}.cls-3{fill:#564937;}.cls-10,.cls-12,.cls-3,.cls-5,.cls-6,.cls-7,.cls-8,.cls-9{fill-rule:evenodd;}.cls-4{clip-path:url(#clip-path);}.cls-5{fill:#3d3224;}.cls-6{fill:#d36629;}.cls-7{fill:#b8bfe0;}.cls-8{fill:#d2d3db;}.cls-9{fill:#8e9abc;}.cls-10{fill:#ededef;}.cls-11{opacity:0.5;}.cls-12{fill:#fff;}.cls-13{clip-path:url(#clip-path-2);}</style><clipPath id="clip-path"><path class="cls-1" d="M34.14,40S49.28,53.52,51,54.81l2-2.46S40.43,38.1,37.22,35.22Z"/></clipPath><clipPath id="clip-path-2"><rect class="cls-2" x="19.25" y="27.47" width="8.01" height="3.4" transform="translate(-13.19 21.18) rotate(-39.08)"/></clipPath></defs><title>Plan de travail 8</title><path class="cls-3" d="M34.14,40S49.28,53.52,51,54.81l2-2.46S40.43,38.1,37.22,35.22Z"/><g class="cls-4"><path class="cls-5" d="M48.38,53.91a35.33,35.33,0,0,0,.93-7.66l.61.52c.37,2.25-.81,7.37-.81,7.37ZM46.57,52s1.18-5.12.81-7.37l-.61-.52a35.33,35.33,0,0,1-.93,7.66ZM44,49.84s1.18-5.12.81-7.37L44.23,42a35.33,35.33,0,0,1-.93,7.66Zm-2.35-2.19s1.17-5.12.8-7.37l-.6-.52a34.94,34.94,0,0,1-.94,7.66Zm-2.37-2.77s1.18-5.13.81-7.38L39.51,37a35.33,35.33,0,0,1-.93,7.66Zm-2.42-2.3s1.17-5.13.8-7.37l-.61-.53a35.33,35.33,0,0,1-.93,7.66Z"/></g><path class="cls-6" d="M52.48,52.71q.24-.2.48-.36A3.36,3.36,0,0,1,57,53a4.05,4.05,0,0,1,1.34,3.41,4.5,4.5,0,0,1-1.7,2.93,3.92,3.92,0,0,1-2.6.9,2.82,2.82,0,0,1-2.37-1,4.54,4.54,0,0,1-.72-4.4,4.59,4.59,0,0,1,1.52-2.1"/><path class="cls-7" d="M12.62,6.09c2.85.18,5.54.39,8.09.61Q24.09,11.32,37.08,29c-1.55,1.68-3.26,3.57-5.14,5.64l-4.22,4.65c-2.39-2.64-5.23-5.52-8.49-8.64,0-.1,0-.22.06-.35a6.66,6.66,0,0,0,.16-1.93c-.08-.19-.14-.29-.18-.31s-.08,0-.09,0a.41.41,0,0,0-.22.11,2.38,2.38,0,0,0-.45.51,4.34,4.34,0,0,0-.16-1.12,4.93,4.93,0,0,0-.49-1.45,1,1,0,0,0-.21-.21c-.16,0-.37,0-.63.25a2.81,2.81,0,0,0-.84,1.65c-.38-.36-.76-.72-1.16-1.08l-6.53-6c-.09-1.54-.18-3.22-.29-5C8,11.34,7.75,8,7.62,5.77l5,.32"/><path class="cls-8" d="M7.64,5.77l25.11,28-.81.88-4.22,4.65c-2.39-2.64-5.23-5.52-8.49-8.64,0-.1,0-.22.06-.35a6.66,6.66,0,0,0,.16-1.93c-.08-.19-.14-.29-.18-.31s-.08,0-.09,0a.41.41,0,0,0-.22.11,2.38,2.38,0,0,0-.45.51,4.34,4.34,0,0,0-.16-1.12,4.93,4.93,0,0,0-.49-1.45,1,1,0,0,0-.21-.21c-.16,0-.37,0-.63.25a2.81,2.81,0,0,0-.84,1.65c-.38-.36-.76-.72-1.16-1.08l-6.53-6c-.09-1.54-.18-3.22-.29-5C8,11.34,7.75,8,7.62,5.77Z"/><path class="cls-6" d="M41.45,24.25l.86.87,2,2c-1.56,1.82-3.09,3.66-4.57,5.51-.76.95-1.5,1.91-2.24,2.88q-1.7,2.21-3.32,4.47l-.31.44c-1.56,2.19-3.19,4.59-4.9,7.23-.23-.21-.45-.43-.68-.66-1.55-1.5-2.86-2.79-3.91-3.87l3.38-3.77,4.22-4.65c1.88-2.07,3.59-4,5.14-5.64s3.11-3.41,4.37-4.78"/><path class="cls-9" d="M31.8,34.78q-2.11,2.32-3.93,4.37c-1.21-3.91-.4-7,2.42-9.3a6.14,6.14,0,0,1,6.64-.75l0,0c-1.55,1.68-3.26,3.57-5.15,5.65"/><path class="cls-10" d="M12.62,6.09c2.85.18,5.54.39,8.09.61,0,.72-.12,4-.29,9.81,0,1.34-.07,2.42-.09,3.26l-11.84,1c-.09-1.54-.19-3.21-.29-5C8,11.34,7.75,8,7.62,5.77l5,.32"/><g class="cls-11"><path class="cls-12" d="M9.26,18.56q1.29-1.2,2.22-.06a2.06,2.06,0,0,1,.4,1.1,1.7,1.7,0,0,1-.66,1.6,1.55,1.55,0,0,1-1.47.33,1.35,1.35,0,0,1-.68-.36,1.73,1.73,0,0,1,.19-2.61M53.45,55.21a2.15,2.15,0,0,1,.37,1.06,1.51,1.51,0,0,1-.52,1.4,1.23,1.23,0,0,1-1,.32,1.08,1.08,0,0,1-.57-.33,1.66,1.66,0,0,1,0-2.32c.64-.74,1.22-.79,1.75-.13m-28-11.51L25,43.23a1.27,1.27,0,0,1,.16-1.75c.51-.64,1-.64,1.56,0a1.63,1.63,0,0,1,.27.84,1.42,1.42,0,0,1-.52,1.33.78.78,0,0,1-1,0"/></g><g class="cls-11"><g class="cls-13"><path class="cls-12" d="M26.51,26.83l-1.29-1.45a4.69,4.69,0,0,1-.09.73c-.19.94-1,1.61-2.54,2a3.58,3.58,0,0,0-2.76,2.23,5.13,5.13,0,0,0-.19.7c.62.59,1.22,1.18,1.81,1.76,0-.15,0-.29,0-.44a3,3,0,0,1,2.07-2.84,7.38,7.38,0,0,0,2.77-1.8,2.18,2.18,0,0,0,.23-.92"/></g></g></svg>