<svg xmlns="http://www.w3.org/2000/svg" xmlns:xlink="http://www.w3.org/1999/xlink" viewBox="0 0 66 66"><defs><style>.cls-1{fill:none;clip-rule:evenodd;}.cls-2{isolation:isolate;}.cls-3{fill:#232220;}.cls-3,.cls-4,.cls-7,.cls-8{fill-rule:evenodd;}.cls-4{fill:#f0670b;}.cls-5{clip-path:url(#clip-path);}.cls-6{opacity:0.5;mix-blend-mode:multiply;}.cls-7{fill:#333;}.cls-8{fill:#595959;}</style><clipPath id="clip-path"><path class="cls-1" d="M62.76,41.2a10.93,10.93,0,0,0-1.25-2.63,5,5,0,0,0-1.31-1.31,8.28,8.28,0,0,0-1.35-.84L59,36.3a1.47,1.47,0,0,0,.53-1.06,1,1,0,0,0-.56-.88,1.68,1.68,0,0,0-.48-.2l.11-.23a10.23,10.23,0,0,0,1.28-4.1,4.73,4.73,0,0,0-.43-2,3,3,0,0,0-1.81-1.78,16.26,16.26,0,0,0-5.79-.35c.23-.75.47-1.62.7-2.61q0-4.64-4.42-2.77a12.37,12.37,0,0,0-3,1.87c-.27.22-.49.41-.68.59a3.55,3.55,0,0,0-.47-.86,4,4,0,0,0-1.6-1.36c-1.79-.82-3.8-.25-6,1.71q-1.7,1.47-2.49,5.39a2.4,2.4,0,0,1,.11.23c-1,0-1.95.27-1.84,1.42a8.24,8.24,0,0,0,1.73,4.36s-4.79-.38-4.54,5S32.36,44,32.36,44s-7,8.4,1.78,8.4a1.87,1.87,0,0,0,.34,0,4,4,0,0,0,2.72-1.14,8,8,0,0,0,.93-.87,7.22,7.22,0,0,0,.5,1.53c1.07,2.24,3.09,3.35,6.07,3.35A6.06,6.06,0,0,0,50,52.41a9.73,9.73,0,0,0,.61-1c0,.1.08.19.13.29a1.61,1.61,0,0,0,1.49,1A1,1,0,0,0,53.28,52a3.47,3.47,0,0,0,.11-1v-.13a8.07,8.07,0,0,0,2.93.53q4.78,0,6.17-3.41A12.08,12.08,0,0,0,63,43.71,10.3,10.3,0,0,0,62.76,41.2Z"/></clipPath></defs><title>Plan de travail 21</title><g class="cls-2"><g id="objet03"><path class="cls-3" d="M11.63,19.66c-.12-.45-.22-.85-.29-1.23a11.87,11.87,0,0,1-.06-1.35c0-.66.77-1.48,2.27-2.45s2.48-1.12,3-.44a4.15,4.15,0,0,0,3,2.14,25.63,25.63,0,0,0,3.84.11,5,5,0,0,1,1.23,1.41c-1.09.65-1.72,1-1.89,1.12a26.94,26.94,0,0,1-3.89,1.51c-2.06.66-3.45,1.08-4.16,1.26s-1.31.19-1.85.3a2.1,2.1,0,0,1-.46-.34A8,8,0,0,1,11.63,19.66Z"/><path class="cls-4" d="M62.76,41.2a10.93,10.93,0,0,0-1.25-2.63,5,5,0,0,0-1.31-1.31,8.28,8.28,0,0,0-1.35-.84L59,36.3a1.47,1.47,0,0,0,.53-1.06,1,1,0,0,0-.56-.88,1.68,1.68,0,0,0-.48-.2l.11-.23a10.23,10.23,0,0,0,1.28-4.1,4.73,4.73,0,0,0-.43-2,3,3,0,0,0-1.81-1.78,16.26,16.26,0,0,0-5.79-.35c.23-.75.47-1.62.7-2.61q0-4.64-4.42-2.77a12.37,12.37,0,0,0-3,1.87c-.27.22-.49.41-.68.59a3.55,3.55,0,0,0-.47-.86,4,4,0,0,0-1.6-1.36c-1.79-.82-3.8-.25-6,1.71q-1.7,1.47-2.49,5.39a2.4,2.4,0,0,1,.11.23c-1,0-1.95.27-1.84,1.42a8.24,8.24,0,0,0,1.73,4.36s-4.79-.38-4.54,5S32.36,44,32.36,44s-7,8.4,1.78,8.4a1.87,1.87,0,0,0,.34,0,4,4,0,0,0,2.72-1.14,8,8,0,0,0,.93-.87,7.22,7.22,0,0,0,.5,1.53c1.07,2.24,3.09,3.35,6.07,3.35A6.06,6.06,0,0,0,50,52.41a9.73,9.73,0,0,0,.61-1c0,.1.08.19.13.29a1.61,1.61,0,0,0,1.49,1A1,1,0,0,0,53.28,52a3.47,3.47,0,0,0,.11-1v-.13a8.07,8.07,0,0,0,2.93.53q4.78,0,6.17-3.41A12.08,12.08,0,0,0,63,43.71,10.3,10.3,0,0,0,62.76,41.2Z"/><g class="cls-5"><g class="cls-6"><path class="cls-4" d="M40.46,22.14a4,4,0,0,1,1.29,1.7,4.69,4.69,0,0,1,.3,1c.2-.17.45-.36.74-.56A11.62,11.62,0,0,1,46,22.69q4.47-1.41,3.72,3.63c-.38,1.05-.74,2-1.09,2.74A13.57,13.57,0,0,1,54,30.25a3.14,3.14,0,0,1,1.42,2.2,5.83,5.83,0,0,1,.08,2.2,12.41,12.41,0,0,1-1.87,4.28l-.13.23a2.19,2.19,0,0,1,.41.29,1.12,1.12,0,0,1,.39,1,1.74,1.74,0,0,1-.68,1.09l-.14.11a7.8,7.8,0,0,1,1.14,1.1,5.28,5.28,0,0,1,1,1.61,13,13,0,0,1,.75,3,12.06,12.06,0,0,1-.18,2.76A15.29,15.29,0,0,1,55,54.72q-1.86,3.51-6.38,2.84a6.83,6.83,0,0,1-2.67-1l0,.14a4.44,4.44,0,0,1-.26,1.09,1,1,0,0,1-1.13.66,1.54,1.54,0,0,1-1.24-1.28c0-.12-.06-.23-.08-.34a12,12,0,0,1-.74,1,6,6,0,0,1-10.62-2.06,8.8,8.8,0,0,1-.24-1.84,5.88,5.88,0,0,1-.43.44,3.89,3.89,0,0,1-3.33,1.34,1.57,1.57,0,0,1-.31-.08c.19-.54.42-1.27.69-2.17.12,0-1.09-13.84-.69-16.54.35-2.34,4.26-6.38,3.93-7.51a4.47,4.47,0,0,0-.21-.74q1.4-4.14,3.22-5.52C36.92,21.33,38.91,21,40.46,22.14Z"/></g></g><path class="cls-7" d="M20.63,15.45Q26.47,11,31.51,10.71a17.41,17.41,0,0,1,8.35,1.2,20.12,20.12,0,0,1,4.5,3.14q2.27,2.4,2.37,7.67.09,4.88-3.93,9.5Q33.53,28.77,14,21.67,15.29,19.67,20.63,15.45Z"/><path class="cls-3" d="M3.75,23.29S13.9,34.47,24.6,39.19s26.17,7.8,25,5.94S16.23,23.35,3.75,23.29Z"/><path class="cls-8" d="M10.26,14.69q3.35-.91,4-1a3.46,3.46,0,0,1,1.12-.07,1.36,1.36,0,0,1,.65.26,8.92,8.92,0,0,0-3,3.41q-.83,1.83,1.92,3.51a9.57,9.57,0,0,0,4.79,1.68q2.05,0,3.76-4.13l.32-.21c3,.27,5.33.52,7.07.77Q37.72,19.85,41,22a12.67,12.67,0,0,1,3.57,3.46,25.72,25.72,0,0,1,2,3.54,31.91,31.91,0,0,1,2.35,7A32.9,32.9,0,0,1,49.76,43c0,.27,0,1-.16,2.12Q45.24,42.67,42.31,41a198.72,198.72,0,0,0-17.82-9.34q-9-4.05-20.74-8.33l-.44-.16A11.37,11.37,0,0,1,3,21.36a9.69,9.69,0,0,1,.29-2.87,3.6,3.6,0,0,1,2.12-2.31Q6.91,15.61,10.26,14.69Z"/></g></g></svg>