<svg xmlns="http://www.w3.org/2000/svg" viewBox="0 0 66 66"><defs><style>.cls-1{fill:#c9edf4;}.cls-1,.cls-2,.cls-3,.cls-4,.cls-5,.cls-6,.cls-7{fill-rule:evenodd;}.cls-2{fill:#689fad;}.cls-3{fill:#88cfe2;}.cls-4{fill:#ffba00;}.cls-5{fill:#fff;}.cls-6{fill:#ffce00;}.cls-7{fill:#333;}</style></defs><title>Plan de travail 19</title><g id="objet02"><path class="cls-1" d="M15.49,37.05a49.26,49.26,0,0,1,.6-5l11.6-1.75q4-.56,14.9-1.4c.95-.09,1.83-.18,2.62-.28l.08,0h.05v0l.3.18a6.86,6.86,0,0,1,2,1.8c.2.33.63,1,1.3,2a16,16,0,0,1,1.25,1.95,19.38,19.38,0,0,1,1.45,4,16.34,16.34,0,0,1,.4,3.75,17.49,17.49,0,0,1-2.65,9.5q-4.8,7.8-16.9,7.8-12.55,0-16.1-6.85c-.87-1.63-1.3-4.59-1.3-8.85.1-2.34.25-4.6.45-6.8"/><path class="cls-2" d="M35.55,7.73C24.76,4,18.09,10.2,18.09,10.2a11.17,11.17,0,0,0-1.89,2.15,11.74,11.74,0,0,0-2,7.85,30.67,30.67,0,0,0,1.45,6.45,25.8,25.8,0,0,0,1.56,3.8l2.23-.2V30A35.56,35.56,0,0,0,18.18,26a28.4,28.4,0,0,1-1.47-6.08c-.14-1.39.57-3,2.11-4.77,0,0,6.26-8.17,17.31-3.73,4.11,1.65,6.36,6.8,7.1,14.08a12.35,12.35,0,0,1-.08,2.15v.07l1.48-.2A22.51,22.51,0,0,0,45,24a36.45,36.45,0,0,0-.09-4.85,12.35,12.35,0,0,0-2.66-6.55A16.47,16.47,0,0,0,35.55,7.73Z"/><path class="cls-3" d="M38.05,7.63a18.69,18.69,0,0,0-17.7,2.47,12.64,12.64,0,0,0-2.11,2.15,12.78,12.78,0,0,0-2.85,7.85,28.74,28.74,0,0,0,.8,6.45,22.8,22.8,0,0,0,1.17,3.8l2.25-.2,0-.25a32.69,32.69,0,0,0-.8-4A26.15,26.15,0,0,1,18,19.77c0-1.39.87-3,2.58-4.77,0,0,7.1-8.17,17.7-3.73,3.94,1.65,5.67,6.8,5.67,14.08a11.81,11.81,0,0,1-.3,2.15v.07l1.5-.2a25,25,0,0,0,.7-3.47,38.72,38.72,0,0,0,.4-4.85,11.27,11.27,0,0,0-2-6.55A14.24,14.24,0,0,0,38.05,7.63Z"/><path class="cls-4" d="M14.91,33.17l-.17-.72c-.18-.67-.42-1.52-.73-2.53L28.09,28.6l-.3-.9c0-1.07.4-1.44,1.2-1.1a1.7,1.7,0,0,1,1.15,1.65.55.55,0,0,1,0,.17l.2,0a3,3,0,0,1,1.43-1.9c1-.64,1.45-.43,1.45.6a2.83,2.83,0,0,1-.63,1.07l15.68-1.5c-.05.78-.09,1.64-.13,2.58q-6.34.93-20.17,2.5l-13,1.42"/><path class="cls-3" d="M34.19,38.9c-.5-.19-1-.35-1.43-.48-.22-.22-.45-.46-.67-.72L32,37.62q-.2-.82-.27-1.17c-.06-.33-.19-.82-.38-1.48a3.89,3.89,0,0,1,1.83-.47q7.65,0,9.65,5.1a13.79,13.79,0,0,1,.52,1.8l-.17.17,0,0a33.31,33.31,0,0,0-2.7,2.07c-.82-1.9-2.91-3.49-6.25-4.77"/><path class="cls-5" d="M36.19,38.45a15.38,15.38,0,0,1,4.3,5q2.3,3.69,2.3,5.75a1.28,1.28,0,0,1-.33.72,4.2,4.2,0,0,1-1.37,1.93,5.1,5.1,0,0,1-3.45,1.45c-1.34,0-2.2-.39-2.6-1.15a8.43,8.43,0,0,0-.45-1.75,13.78,13.78,0,0,1-.9-2.68,9,9,0,0,1-5.35,1.83,3.88,3.88,0,0,1-3.55-1.65,3.34,3.34,0,0,1-.55-1.85c0-2.9,1.6-5.24,4.8-7s5.48-1.94,7.15-.6"/><path class="cls-6" d="M31.59,38.85c0,.73-.39,1.1-1.15,1.1a.89.89,0,0,1-.9-.8v-.08q-1-1.22-3.7-4.57,0-1.56,2.7.65a9.93,9.93,0,0,1,2.22,2.35c.55.16.83.61.83,1.35"/><path class="cls-7" d="M31.69,43.3c-.5,0-.75-.29-.75-.85a1,1,0,0,1,.95-1.15c.63-.1,1,.11,1,.65a1.78,1.78,0,0,1-.25.8,1.07,1.07,0,0,1-.9.55m-2.2-1.6a1,1,0,0,1-.8.4.58.58,0,0,1-.5-.3.64.64,0,0,1-.15-.35,1,1,0,0,1,.2-.55.91.91,0,0,1,.8-.45.57.57,0,0,1,.65.65,1.1,1.1,0,0,1-.2.6"/><path class="cls-5" d="M32,43.2a.3.3,0,0,1-.2-.1L31.79,43c0-.27.13-.34.4-.2v.4Zm-.4-1.85c.33,0,.5,0,.5.25s-.2.45-.6.45a.35.35,0,0,1-.35-.2l-.05-.2c0-.17.16-.27.5-.3m-.45.9c.16,0,.23.07.2.2a.68.68,0,0,1-.1.2c-.1.1-.17.15-.2.15l-.2,0-.05-.15a.3.3,0,0,1,.35-.35m-2.1-.8.15.2-.1.3c-.2-.07-.3-.15-.3-.25a.22.22,0,0,1,.25-.25m-.85.25-.2-.05V41.4c.06-.07.23-.1.5-.1v.25Zm0-.9c0-.23.15-.37.45-.4s.4.06.4.3a.36.36,0,0,1-.4.4q-.45,0-.45-.3"/></g></svg>