<svg id="objet01" xmlns="http://www.w3.org/2000/svg" viewBox="0 0 66 66"><defs><style>.cls-1{fill:#d7dfe2;}.cls-1,.cls-2,.cls-3,.cls-4,.cls-5,.cls-6,.cls-7{fill-rule:evenodd;}.cls-2{fill:#ffd7c4;}.cls-3{fill:#bcc8cc;}.cls-4{fill:#c7d0d3;}.cls-5{fill:#e5eff9;}.cls-6{fill:#fff;}.cls-7{fill:#ff3700;}</style></defs><title>Plan de travail 2</title><path class="cls-1" d="M33.92,21.16c-.52-2.22-1.61-3.28-3.14-3.46a38.68,38.68,0,0,0-4.92-.23,8.82,8.82,0,0,1-4-.66c-.93-.49-1.24-1.08-.78-1.95a5.08,5.08,0,0,1,2.13-2.2,16,16,0,0,1,3.2-1.23c.3-.09.61-.16.92-.24a10.31,10.31,0,0,1,4-.32c-.4-.15-.74-.26-1-.35a10.81,10.81,0,0,1-2.68-1.17c-1-.76-1.25-1.81-.67-3.25A6.73,6.73,0,0,1,29.35,3c1.18-.8,3.23-.57,5.61.85a13.4,13.4,0,0,1,5.56,6.29,10.91,10.91,0,0,1,.82,3.75A25.85,25.85,0,0,1,39.45,23c-2.32.72-3.36,1.1-5.41,1.73A12,12,0,0,0,33.92,21.16Z"/><path class="cls-2" d="M38.39,18.85c0-3.53-.88-6.18-2.83-7.91a11.88,11.88,0,0,0-2.28-1.49,5.08,5.08,0,0,1-1.7-1.24,1.79,1.79,0,0,1-.25-1.6c.15-.63.84-1.12,2-1.32s3,1,4.38,3.6a14.14,14.14,0,0,1,1.61,7c0,1.19-.11,2.09-.18,2.64-.1.94-.43,3.5-.6,4.45h-.4S38.37,20.69,38.39,18.85Zm-3.88.64a4.57,4.57,0,0,0-.79-1.61,6.25,6.25,0,0,0-2.35-1.77,9.71,9.71,0,0,0-3.2-.48c-1.39,0-2.32-.13-2.6-.45a.67.67,0,0,1-.05-.84,2.08,2.08,0,0,1,1-.88A6.47,6.47,0,0,1,31.68,13c1.71.67,3.22,2.35,4,5.66A22.82,22.82,0,0,1,36,24l-1.13.21A14.29,14.29,0,0,0,34.51,19.49Z"/><path class="cls-3" d="M36.41,19.76c-.19-3.42-1.39-5.82-4.18-6.89a11.78,11.78,0,0,0-3.67-.79,6.38,6.38,0,0,1-2-.35.52.52,0,0,1-.21-.3c.3-.09.61-.16.92-.24a10.31,10.31,0,0,1,4-.32,14.33,14.33,0,0,1,2.2,1.06c2.41,1.59,3.32,4.22,3.33,7.62,0,0,.09,1.9,0,3.78l-.45.11A21.55,21.55,0,0,0,36.41,19.76Z"/><path class="cls-4" d="M21.86,14.2a4.22,4.22,0,0,1-1,.22,4.93,4.93,0,0,1-.82.09l.1-.07c.12,0,.78-.18,1.89-.41l.06,0C22.18,14,22.12,14.07,21.86,14.2Z"/><path class="cls-4" d="M20.24,14.92a8.74,8.74,0,0,1,.89-.35,3.46,3.46,0,0,1,.91-.19s0,.08-.05.13-.54.18-1.5.49h-.16Z"/><path class="cls-4" d="M31.72,2.57a.7.7,0,0,1-.08-.64v0a.56.56,0,0,1,.24.13,1.68,1.68,0,0,1,.42,1.1c0,.08,0,0-.22-.09A1.23,1.23,0,0,1,31.72,2.57Z"/><path class="cls-4" d="M30.94,3a3.16,3.16,0,0,0-.38-.46c-.2-.24-.26-.38-.16-.42a.61.61,0,0,1,.14.07,1.52,1.52,0,0,1,.53.8Z"/><path class="cls-4" d="M27.65,8.71l-.1-.11a3.11,3.11,0,0,1,.86-.38l.1,0c0,.11-.25.28-.67.52C27.86,8.84,27.79,8.82,27.65,8.71Z"/><path class="cls-4" d="M29.11,9a.71.71,0,0,1-.6.06c0-.06.1-.17.38-.32l.28.06,0,.07C29.34,8.83,29.31,8.87,29.11,9Z"/><path class="cls-4" d="M26.27,17.66a.89.89,0,0,1-.36.05,1.18,1.18,0,0,1,.38-.34,1,1,0,0,1,.41-.19h.12Z"/><path class="cls-3" d="M43.63,58.48a3.37,3.37,0,0,1,1.89.66.8.8,0,0,1,.12,1.28,3.49,3.49,0,0,1-1.87,1c.27.13.37.29.3.46a1.6,1.6,0,0,1-.19.24,2.7,2.7,0,0,1-1.53.49A2.79,2.79,0,0,1,40,62q-3.18-2.94-2.23-4c.62-.72,1.12-1.08,1.49-1.09a1.34,1.34,0,0,1,1,.45,13.3,13.3,0,0,1,1.09-1.17,1.53,1.53,0,0,1,1.55.48,2.19,2.19,0,0,1,.7,1.19A1.12,1.12,0,0,1,43.63,58.48Z"/><path class="cls-4" d="M39.05,63.49h-.88a.9.9,0,0,0-.12-.32,13.5,13.5,0,0,1,1.62-1,14.1,14.1,0,0,1,6.13-1.54q3.77-.23,5.6.87c1.41.84,2.06,1.75,1.94,2.72a1.08,1.08,0,0,1-1.13,1c-.53-.11-1.66-.45-3.37-1S43.86,63.4,39.05,63.49Zm-6.31-.36,0,0a3,3,0,0,0-.16.31l0,0s-.06,0-.11.09a67.26,67.26,0,0,0-11.06.77c-1.65.42-2.52.5-2.62.25v0l-.08,0A.92.92,0,0,1,18,64c-.31-.78,0-1.45,1-2l1.62-.63a12.39,12.39,0,0,1,2.89-.53,13.23,13.23,0,0,1,3.42.1,19.41,19.41,0,0,1,3.9,1.24A11.16,11.16,0,0,1,32.74,63.13Z"/><path class="cls-1" d="M40,41.18q.47-.16,1.66,6.6,1.45,7.89.55,12.64c-1.25,2.37-3.46,3.64-6.62,3.83s-5.3-.66-6.54-2.52a9.89,9.89,0,0,1-1.25-4.42c-.2-2,.7-4.26,2.7-6.75a18.35,18.35,0,0,0,3.82-8.72,9.61,9.61,0,0,1,2.12-.32A22.41,22.41,0,0,0,40,41.18Z"/><path class="cls-2" d="M34.94,51.17a2.65,2.65,0,0,1,2.55,1,3.46,3.46,0,0,1,.43,1.68c0,.7,0,1.6,0,2.69a26.87,26.87,0,0,0,0,3.1,16.43,16.43,0,0,0,.25,2.05c.09.35.25,1,.49,2a10,10,0,0,1-3,.61,8.35,8.35,0,0,1-5-1l-.18-1.46A23.63,23.63,0,0,1,31,56.46C31.7,53,33,51.28,34.94,51.17Z"/><path class="cls-4" d="M43.7,51a4.4,4.4,0,0,1-.09,2.13c-.19.48-1,.67-2.45.58s-2.3.4-2.59,1.47-.6,1.6-.91,1.61c-.51,0-.91-.65-1.22-2.06s-.32-2.12-.32-2.14c-.08-1.31.75-2,2.48-2.08s2.56-.59,2.5-1.54a12.76,12.76,0,0,0-.26-1.75,12.24,12.24,0,0,1-.26-1.58,1.84,1.84,0,0,1,0-.24c0-.11.07-.28.13-.5s.18-.26.39-.09a13.82,13.82,0,0,1,1.51,2.8A13.22,13.22,0,0,1,43.7,51Z"/><path class="cls-4" d="M34.87,51.11a6.68,6.68,0,0,1,0,2.66,3.75,3.75,0,0,1-1.2,1.67c-.64.54-1,.23-1.06-.94s-.76-1.63-2.07-1.31a6.14,6.14,0,0,0-.92.25c-1,.08-1.45-.32-1.43-1.18A5.12,5.12,0,0,1,30,49.13q2.64-2.68,3.39-3.53a15.87,15.87,0,0,1-1.32,3l-.54,1,.72-.11C33.76,49.35,34.64,49.88,34.87,51.11Z"/><path class="cls-1" d="M41.31,23.9a28.87,28.87,0,0,1,.74,3.45,44.15,44.15,0,0,1,.18,10.58q-.57,4.62-4.57,5.09a44.46,44.46,0,0,1-9.56-.18c-3.6-.43-6-1.44-7.2-3a7.77,7.77,0,0,1-1.84-4.75,9.74,9.74,0,0,1,1-4.52,6.35,6.35,0,0,1,3.59-3L30.29,25a26.83,26.83,0,0,0,5.93-2.87A6.12,6.12,0,0,1,41.31,23.9Z"/><path class="cls-5" d="M39.28,30.71a7.67,7.67,0,0,1,.06,1,1.24,1.24,0,0,1-1,1.16c-.59.15-1-.37-1.35-1.55a16.88,16.88,0,0,1,.44-2.09c.29-1.11.52-1.91.7-2.41A14.26,14.26,0,0,1,39.28,30.71Z"/><path class="cls-6" d="M37.64,32.15s.73,0,.72-.41-.12-1.68-.59-1.5S37.06,32.11,37.64,32.15Z"/><path class="cls-2" d="M32.76,33.65c0,.22-.32.52-1,.89a5.77,5.77,0,0,1-1.56.62,3,3,0,0,1-2.69-.94,3.6,3.6,0,0,1-1-2c-.08-.53.16-.73.7-.61l2.29.54C31.61,32.85,32.72,33.34,32.76,33.65Z"/><path class="cls-7" d="M31.12,29c.22,0,.35.09.39.38q.1.66-.42.72a.38.38,0,0,1-.41-.14.52.52,0,0,1-.05-.23.51.51,0,0,1,.11-.41A.43.43,0,0,1,31.12,29ZM33,30.7c-.06-.15-.08-.23-.09-.26a.85.85,0,0,1,.52-.86c.41-.24.65-.13.72.36a1.12,1.12,0,0,1-.13.57.72.72,0,0,1-.52.33A.47.47,0,0,1,33,30.7Z"/><path class="cls-6" d="M33.38,30c-.18,0-.27,0-.28-.21s.06-.3.28-.35a.23.23,0,0,1,.34.21.31.31,0,0,1-.12.24A.38.38,0,0,1,33.38,30Zm-2.49-.39c-.15,0-.24-.08-.25-.28s.05-.28.25-.31a.25.25,0,0,1,.31.21.5.5,0,0,1-.31.38Z"/><path class="cls-3" d="M27.46,39.88a.51.51,0,0,0-.26-.42c0-.28.13-.31.43-.09a2.28,2.28,0,0,1,.68.86,2.69,2.69,0,0,1,.25.82c0,.16-.41,0-1.19-.43A2.86,2.86,0,0,0,27.46,39.88Z"/><path class="cls-3" d="M37.46,34.31a43.16,43.16,0,0,1-5.59,1.92l-.1,0,0,0a17.5,17.5,0,0,1,5.68-1.93ZM18.66,30.9A16,16,0,0,1,20.42,32l.91.63-.77-.37A39.21,39.21,0,0,1,17,30.34,4,4,0,0,1,18.66,30.9Zm-1.18,2.3a15.63,15.63,0,0,1,2,.35c1.08.21,1.74.34,2,.42h.08a7,7,0,0,1-2.18-.11,5.7,5.7,0,0,1-2.17-.65Zm5.91-.87A60.12,60.12,0,0,1,18.57,28a5.33,5.33,0,0,1,2.7,1.95C22.35,31.1,23.05,31.91,23.39,32.33Zm12.85,8v.06a23.42,23.42,0,0,1-2.18-.87,20.54,20.54,0,0,1-2.19-1.07v0a10,10,0,0,1,2.37.77A5,5,0,0,1,36.24,40.31Zm1.09-2.4c-.2,0-2-.18-5.34-.59a12.75,12.75,0,0,1,1.89-.07,10.21,10.21,0,0,1,3.61.58v0Z"/><path class="cls-4" d="M26.82,26.63a.54.54,0,0,1-.33-.54.53.53,0,0,1,0-.2l.2,0a2.08,2.08,0,0,1,.21.66Zm-.54.37c0,.07-.08.11-.19.14a1.84,1.84,0,0,1-.3-.45,1.87,1.87,0,0,1-.19-.45c0-.13,0-.2,0-.2a.13.13,0,0,0,0,.06l.19,0A1.56,1.56,0,0,1,26.28,27Zm-3.7,14.3-.11-.1c.21-.32.39-.48.54-.49l0-.07s0,.06.05.19A.48.48,0,0,1,22.58,41.3Zm1.13-.07a1,1,0,0,1-.25.32,1,1,0,0,1-.35.22L23,41.7a1.4,1.4,0,0,1,.27-.38A1.57,1.57,0,0,1,23.6,41ZM27.89,52c.24-.17.36-.27.35-.29l.24,0c.18,0,.28,0,.3.08-.32.15-.53.25-.61.3A.39.39,0,0,1,27.89,52Zm-.16,8h-.24s-.07-.1-.08-.23.13-.3.41-.39a1.44,1.44,0,0,1,.67-.07l0,.06A4.49,4.49,0,0,1,27.73,60ZM42.11,37.1l.13-.14.23,0c.16,0,.25,0,.27.08s-.11.08-.29.09A.55.55,0,0,1,42.11,37.1Zm.13,1.06a4.62,4.62,0,0,1,.63,0l.07.07c.05.11,0,.17-.25.18s-.37,0-.44-.11Zm-14,14.29a1.08,1.08,0,0,1,.78-.21l0,.06a6.22,6.22,0,0,0-.58.27Q28.32,52.56,28.29,52.45ZM34.1,50l.08.1a10.69,10.69,0,0,1-.93.59,1,1,0,0,1,.31-.35A1.41,1.41,0,0,1,34.1,50Zm9.66,2.87a.64.64,0,0,1-.32.16,3.14,3.14,0,0,1-.4-.48c0-.09.09-.14.23-.15l.42.38Zm.2-.61a1.7,1.7,0,0,1-.57-.06q.15-.12.12-.21l.64.1,0,.1Zm6.73,8.33a.49.49,0,0,1,.16.16q.12.15-.12.66c.1.17.05.23-.16.16s-.19-.38,0-.95Zm1.13.48H52c.1.13.14.23.11.32l-.41.6c.09.07,0,.08-.18,0s-.2-.18-.15-.4A1,1,0,0,1,51.82,61.05ZM19,62.64c-.55-.54-.83-.82-.83-.84s-.06-.2,0-.2l0,0a1.19,1.19,0,0,1,.9.93Zm.77-.32a1.16,1.16,0,0,1-.07-.15.76.76,0,0,1-.29-.33.69.69,0,0,1-.06-.26l.09-.17a1,1,0,0,1,.54.91l-.23-.12Z"/></svg>