<svg xmlns="http://www.w3.org/2000/svg" viewBox="0 0 66 66"><defs><style>.cls-1{fill:#f4ec5b;}.cls-1,.cls-2{fill-rule:evenodd;}.cls-2{fill:#f4bf5b;}</style></defs><title>Plan de travail 16</title><g id="objet02"><path class="cls-1" d="M25,23.58c4.74-3.74,19.68-1.47,20.6,7.43S39.24,45.26,29,43.21,17.72,29.36,25,23.58Z"/><path class="cls-1" d="M37.19,25a5.4,5.4,0,0,0-.2-1.37q8.7,1.3,8.7,9.17a11.89,11.89,0,0,1-1.6,6.4q-3.2,5-11.9,5-6.25,0-9.2-4.8a12.46,12.46,0,0,1-1.9-6.15c1.86.3,3.14-1.59,3.85-5.65a9.52,9.52,0,0,0,.67,3.1,2.56,2.56,0,0,0,2.45,2c1.19,0,1.82-.49,1.88-1.57a15.32,15.32,0,0,1,.6-3.48q4.35.15,5.5-.52A2.28,2.28,0,0,0,37.19,25"/><path class="cls-2" d="M44.94,33.65c-1.23,0-2.77,1.15-4.6,3.45s-3.59,3.45-5.25,3.45-2.65-.47-3.15-1.4a4.15,4.15,0,0,1-.35-1.9,10.8,10.8,0,0,1,1.75-5.45A11.87,11.87,0,0,0,35,27.37c-.12-1.44-.42-6.46-8.78-4.5l-1.51,1c2.76-.34,9.3-1.47,8.81,3.68a11.28,11.28,0,0,1-1.56,3.71,12.4,12.4,0,0,0-1.8,6,6,6,0,0,0,.45,2.4A3.36,3.36,0,0,0,34,41.8a8.17,8.17,0,0,0,6.75-3.55c1.8-2.4,3.11-3.6,3.95-3.6a1.2,1.2,0,0,1,.81.45c.06-.43.11-.87.13-1.32a1.88,1.88,0,0,0-.69-.13"/><path class="cls-2" d="M42.64,26.2c-.13-.07-.2-.15-.2-.25a4.64,4.64,0,0,1,.6-.7h.25a1.08,1.08,0,0,0,.05.2.77.77,0,0,1-.2.4.91.91,0,0,1-.5.35M40,31.05l0,.15q0,.15-.45.6c-.07,0-.1,0-.1-.2l.1-.25a.72.72,0,0,1,.4-.3m1.2.45q0,.2-.3.45a.85.85,0,0,1-.45.25l-.25-.05a.37.37,0,0,1,0-.2c0-.13.1-.27.3-.4a1.52,1.52,0,0,1,.65-.25.32.32,0,0,1,.1.2m3.1-4.5a5.35,5.35,0,0,0-.85.55.23.23,0,0,1-.15-.25c0-.2.48-.53,1.45-1l.25.1a2.43,2.43,0,0,1-.7.6m-22.11.45a.3.3,0,0,1-.18.27,4.51,4.51,0,0,1-.84-.38l-.07-.24.17-.11a.8.8,0,0,1,.44.08,1,1,0,0,1,.48.38m5.18.69.16,0a1.5,1.5,0,0,1,.29.69c0,.07-.08.07-.22,0l-.17-.22a.74.74,0,0,1-.06-.49m1-.81a.68.68,0,0,1,.23.48.84.84,0,0,1,0,.52l-.17.19a.66.66,0,0,1-.2-.06c-.11-.07-.17-.22-.19-.46a1.62,1.62,0,0,1,.11-.69.29.29,0,0,1,.23,0m-5.88-1.69a4.64,4.64,0,0,0,.77.66c0,.11-.07.18-.2.22s-.65-.31-1.37-1.11l0-.27a2.46,2.46,0,0,1,.77.5m.11,15.16q0-.25.9-.6c.57-.23.93-.32,1.1-.25a.49.49,0,0,0,.1.2c0,.27-.62.58-1.85,1a.27.27,0,0,1-.25-.3m21.05.6a1.47,1.47,0,0,1-1.15-.6,1.16,1.16,0,0,1-.35-.65,1.87,1.87,0,0,1,1,.3c.26.13.58.32,1,.55,0,.27-.15.4-.45.4m-8.25-7.55a1,1,0,0,1-.2-.5,1.08,1.08,0,0,1,.05-.2.78.78,0,0,1,.9.25.87.87,0,0,1,.25.55c0,.23-.1.35-.3.35a.77.77,0,0,1-.7-.45m-7.1,2.35-.5-.05-.05-.3c0-.4.41-.42,1.25-.05a.85.85,0,0,1-.7.4m-1.95,5.65c.13,0,.2.1.2.2a2.6,2.6,0,0,1-.35.65,3.21,3.21,0,0,1-.55.65.23.23,0,0,1-.15-.25,1.53,1.53,0,0,1,.85-1.25m4.5-2.9-.25-.05a.78.78,0,0,1-.1-.25.33.33,0,0,1,.1-.25.72.72,0,0,1,.7,0,1.08,1.08,0,0,0,.05.2.41.41,0,0,1-.2.3.73.73,0,0,1-.3.1m.95,2.35c0-.1.13-.17.4-.2l.1.35a.19.19,0,0,1-.2.15l-.25-.05Zm4-17.88L36,23l.3.08c.37.16.21.55-.46,1.16a.86.86,0,0,1-.08-.8M32.2,24.66l.14-.21a.64.64,0,0,1,.27,0,.32.32,0,0,1,.19.19.71.71,0,0,1-.23.66l-.21,0a.43.43,0,0,1-.19-.31.65.65,0,0,1,0-.31m-2.54-.07c.09,0,.1.19,0,.44L29.33,25a.19.19,0,0,1-.06-.24l.14-.21Z"/></g></svg>