<svg xmlns="http://www.w3.org/2000/svg" viewBox="0 0 66 66"><defs><style>.cls-1{fill:#d2d3db;}.cls-1,.cls-2,.cls-3,.cls-4,.cls-5,.cls-6{fill-rule:evenodd;}.cls-2{fill:#b8bfe0;}.cls-3{fill:#7680a5;}.cls-4{fill:#516089;}.cls-5{fill:#3b4c72;}.cls-6{fill:#8e9abc;}</style></defs><title>Plan de travail 58</title><g id="objet06"><path class="cls-1" d="M10.34,21.91a16.58,16.58,0,0,1,1.86-1.58q9.19,8,11.84,10.44c1.55,1.45,3,2.89,4.46,4.31a.43.43,0,0,0-.11.21,4.58,4.58,0,0,0-.2.64c-.1.36.16.81.77,1.37s1.11,1,1.48,1.38l1.18,1.49c-.15.32-.33.66-.53,1a13.5,13.5,0,0,1-1.34,2,91.57,91.57,0,0,0-6.91-6.37q-3.14-2.64-6.46-5.07a81.28,81.28,0,0,0-8.09-4.12L7.13,27a15.31,15.31,0,0,1,3.21-5.11"/><path class="cls-2" d="M27.58,34.38l.09-.12.83.82a.43.43,0,0,0-.11.21,4.58,4.58,0,0,0-.2.64c-.1.36.16.81.77,1.37s1.11,1,1.48,1.38l1.18,1.49c-.15.32-.33.66-.53,1-.06.1-.12.21-.19.31s-.23.39-.36.58a12.32,12.32,0,0,1-.79,1.07,91.57,91.57,0,0,0-6.91-6.37q-3.14-2.64-6.46-5.07-2.34-1.38-5.3-2.82c-.88-.43-1.81-.87-2.78-1.3L7.13,27c.34-.78.68-1.48,1-2.11a11.63,11.63,0,0,1,2.18-3,16.58,16.58,0,0,1,1.86-1.58l1.51,1.31-1.12,3c-.32.89-.62,1.7-.87,2.44,1.13.7,2.47,1.51,4,2.44a123.88,123.88,0,0,1,14,10.92,16.83,16.83,0,0,0-1.68-2.53,4.13,4.13,0,0,1-1.17-2.1,3.73,3.73,0,0,1,.68-1.44"/><path class="cls-3" d="M5.41,26.88C4.49,26.22,3.7,25.62,3,25.09a1.45,1.45,0,0,1,0-.3A11,11,0,0,1,4.68,18.6a24.51,24.51,0,0,1,2.79-3.1q1.62,1.14,5.26,4,.66.56,1.17.93a43.41,43.41,0,0,1-2.85,3.37A41.73,41.73,0,0,1,6.89,28L5.41,26.88"/><path class="cls-4" d="M7.56,15.57A18.09,18.09,0,0,0,6.3,17.91a13.88,13.88,0,0,0-1.55,5.38l.42.5a16,16,0,0,0,2,1.92,35.14,35.14,0,0,1,4.64-3.47c.49-.32,1-.63,1.46-.93-.54.66-1.26,1.5-2.18,2.51A41.73,41.73,0,0,1,6.89,28l-1.16-.83-.32-.24C4.49,26.22,3.7,25.62,3,25.09a1.45,1.45,0,0,1,0-.31A11,11,0,0,1,4.68,18.6a24.51,24.51,0,0,1,2.79-3.1l.09.07"/><path class="cls-3" d="M28.38,46.79q.53-3.47.79-5.6c.54-1.08,1.14-1.7,1.78-1.86.33.37.79.91,1.36,1.62s1.07,1.32,1.36,1.68a18.4,18.4,0,0,0,3-3.8,20.47,20.47,0,0,1,2.62-1.41,13.26,13.26,0,0,1,2.08-.74,50.6,50.6,0,0,1,5.81,9.66c.26.55.52,1.1.77,1.65q-2.88,1.57-10.88,2.15t-9.27.21c.22-1.39.39-2.57.54-3.56"/><path class="cls-4" d="M27.84,50.35c.08-.48.15-.93.21-1.36,1.31-.13,2.7-.29,4.18-.48a47.92,47.92,0,0,0,10.5-2.15A38.67,38.67,0,0,0,43.09,41c0-.71,0-1.42-.08-2.11a56.37,56.37,0,0,1,4.21,7.47c.26.55.52,1.1.77,1.65a18.87,18.87,0,0,1-5.91,1.62c-1.45.22-3.1.4-5,.53q-8,.59-9.27.21m2.5-9-.9-.63A2.79,2.79,0,0,1,31,39.33c.33.37.79.91,1.36,1.62s1.07,1.32,1.36,1.68a18.4,18.4,0,0,0,3-3.8,19.82,19.82,0,0,1,2.62-1.41l.22-.08a12.85,12.85,0,0,1-2.27,3.43q-2.13,2.44-3.85,2.44a11.88,11.88,0,0,1-3.09-1.89"/><path class="cls-5" d="M30.3,44.87a1.15,1.15,0,0,1,.62-.73.36.36,0,0,1,.24.21,2.86,2.86,0,0,1-.27.38.67.67,0,0,1-.38.24.34.34,0,0,1-.21-.1m6.91-2.79c0,.07,0,.1-.1.1a5.52,5.52,0,0,1-.93-1.13c.21,0,.44.11.69.41a1.43,1.43,0,0,1,.34.62m-.82-.17a1.31,1.31,0,0,0,.51,1c0,.06,0,.1,0,.1s-.06,0-.17,0a.54.54,0,0,1-.55-.44,2,2,0,0,0-.18-.69q.08-.07.42,0m-4.06,2.61s0,0,0,.14a.25.25,0,0,1-.2.27,2.66,2.66,0,0,0-.41.14l-.23-.15a9.44,9.44,0,0,1-.7,1,.67.67,0,0,1-.14-.11.24.24,0,0,1-.07-.2c0-.12.13-.31.38-.59a1.77,1.77,0,0,1,.45-.41.77.77,0,0,1,.06.15.63.63,0,0,1,.76-.25Zm-.79,1.89a1.67,1.67,0,0,1-.31-.34,1.07,1.07,0,0,1,.24-.55c.16-.25.29-.37.38-.35l.1.31a2.49,2.49,0,0,1-.2.76Zm10.52.72a.35.35,0,0,1-.07.21c0,.07,0,.1-.2.1a.51.51,0,0,1-.45-.27c-.21.53-.44.79-.69.79l-.21-.07a3.68,3.68,0,0,1-.1-1l0-.1-.48.48a.93.93,0,0,1-.66.24c-.11.09-.17.05-.17-.11s.22-.35.65-.72a6.44,6.44,0,0,1,.9-.62,1,1,0,0,1-.11.55v.9c.42-.16.68-.67.8-1.52a.81.81,0,0,1,.61.52,1.36,1.36,0,0,1,.21.58m-4.43.93c-.14.09-.21.06-.21-.1a.88.88,0,0,1,.31-.62,1,1,0,0,1,.14.62.45.45,0,0,1-.24.1"/><path class="cls-1" d="M54.66,31.32a10.88,10.88,0,0,1,.81,4.3,6,6,0,0,1-.1,1,26.88,26.88,0,0,0-5.69,2.49,21.13,21.13,0,0,0-5.06,3.76,5.7,5.7,0,0,1-1.25.26,2.33,2.33,0,0,1-2-1.13,3.22,3.22,0,0,1-.59-1.76,3.12,3.12,0,0,1,.49-1.51c.15-.26.34-.6.58-1l2.49-1.94a29.94,29.94,0,0,1,6.95-3.71,23.44,23.44,0,0,1,3.21-1.14l.06.11.06.15a.91.91,0,0,1,.07.14"/><path class="cls-2" d="M54.47,30.92l.05.11a1,1,0,0,1,.07.15c0,.05,0,.09.07.14a9.69,9.69,0,0,1,.67,2.46,12,12,0,0,1,.14,1.84,6,6,0,0,1-.1,1c-.58.16-1.17.37-1.79.61a32.48,32.48,0,0,0-3.9,1.88,24.18,24.18,0,0,0-3.54,2.37,15.9,15.9,0,0,0-1.52,1.39,5.7,5.7,0,0,1-1.25.26,2.33,2.33,0,0,1-2-1.13,3.22,3.22,0,0,1-.59-1.76,3.12,3.12,0,0,1,.49-1.51c.15-.26.34-.6.58-1l.21-.15a4.23,4.23,0,0,0,.44,2.15,1.66,1.66,0,0,0,1.86.72q2.07-2.35,8.73-5.59a26.81,26.81,0,0,1-.46-3.32,16.89,16.89,0,0,1,1.87-.6"/><path class="cls-3" d="M60.52,29.74c0,.17-.07.32-.1.46a8.68,8.68,0,0,0-2.59-.58,6,6,0,0,1,.63-1.36c.57-1,1.14-1.45,1.69-1.45.16,0,.29.13.41.38a2,2,0,0,1,.21.9,9.38,9.38,0,0,1-.25,1.65"/><path class="cls-3" d="M63,31.61c-.67,4.09-1.81,6.52-3.42,7.31l-2-.73-1.7-.63a8.92,8.92,0,0,1-1.29-3,12.06,12.06,0,0,1-.48-3.13,6,6,0,0,1,.1-1.09c0-.12,0-.24.07-.36s.05-.29.07-.41Q61,27.4,63,31.54a.64.64,0,0,1,0,.07"/><path class="cls-5" d="M59.18,28.26a1.14,1.14,0,0,1-.31-.31l.31,0,0,.17Zm1.14,5.16c0,.06-.07,0-.07-.18s.17-.19.52-.24l.06.21-.31.31Zm.27-.69a.48.48,0,0,1-.34-.14,1.58,1.58,0,0,1,.52-.17l.06.17c0,.07,0,.1-.06.1s-.06,0-.18,0M11.11,20.56s-.06-.08-.06-.18a.43.43,0,0,1,.37-.48.12.12,0,0,0,.14,0s.07.09.07.21a.76.76,0,0,1-.1.41l-.21.1-.21-.06m.42.55L11.42,21a1.43,1.43,0,0,1,.62-.93.17.17,0,0,0,.14,0c.05,0,.07.09.07.2a1.59,1.59,0,0,1-.21.49c-.13.23-.24.34-.31.34a.38.38,0,0,1-.2,0m-4,1.47a.28.28,0,0,1,.07-.2.45.45,0,0,1,.14-.07.65.65,0,0,1,.24.27.38.38,0,0,1-.24.31l-.17-.06a.67.67,0,0,1,0-.25m48.8,8.19s0,.06,0,.17-.07.13-.21.24a1.35,1.35,0,0,0-.24.31h-.13s-.07,0-.07-.14a.59.59,0,0,1,.2-.34,1.37,1.37,0,0,1,.35-.24Zm.06.65s0,.06,0,.17-.1.29-.31.31a.13.13,0,0,1-.1,0V31.7c0-.12.1-.23.31-.35a.1.1,0,0,0,.06.07m-1-.55a.27.27,0,0,0-.11-.1.91.91,0,0,1,.76-.41l.07.17c-.21.27-.38.41-.52.41a.24.24,0,0,1-.2-.07"/><path class="cls-4" d="M59.92,26.83l.23,0c.16,0,.29.13.41.38a2,2,0,0,1,.21.9,7.08,7.08,0,0,1-.18,1.29A3.65,3.65,0,0,0,59,29.05h-.08q.48-1,1-2.22"/><path class="cls-4" d="M63,31.54a.64.64,0,0,1,0,.07c-.66,4.09-1.81,6.52-3.42,7.31l-2-.72-1.7-.64a8.92,8.92,0,0,1-1.29-3,12.06,12.06,0,0,1-.48-3.13,6,6,0,0,1,.1-1.09c0-.12,0-.24.07-.36s.05-.29.07-.41l.09,0c.17.64.39,1.41.67,2.3.69,2.18,1.37,3.53,2,4.06a3.09,3.09,0,0,0,2.1.65q1.52,0,2.62-4.16c.18-.69.34-1.32.46-1.87A4.9,4.9,0,0,1,63,31.54"/><path class="cls-3" d="M38.28,41.08a7.82,7.82,0,0,1-.48-.79,7.83,7.83,0,0,1,1.72-5.4,3.88,3.88,0,0,1,2.85-1.44,5.56,5.56,0,0,1,2.82.69,3.64,3.64,0,0,1,1.48,1.58c-.05.21-.09.42-.14.65s-.09.51-.14.76A8.34,8.34,0,0,1,42.78,40a9.73,9.73,0,0,1-4.19,1.1Z"/><path class="cls-5" d="M43.92,35l-.18,0a.29.29,0,0,1,0-.17c0-.14.14-.24.41-.31a.33.33,0,0,1,.14.2Zm.1.41c-.05.07-.07,0-.07-.13a.42.42,0,0,1,.14-.28c.14-.13.39-.16.76-.07a2.42,2.42,0,0,0,0,.28c0,.23-.15.34-.45.34a.53.53,0,0,1-.41-.14m-2,2.17h-.38c0,.05,0,0,0-.2s0-.14.1-.14l.1,0,.21.07,0,.14Zm-.72-.38c-.12,0-.19-.07-.21-.13s.24-.29.52-.31l.1.13Z"/><path class="cls-4" d="M39.72,34.69a4.42,4.42,0,0,0-.86,2.51s0,.36.11,1c.25.55.89.83,1.92.83a6.84,6.84,0,0,0,4.71-1.72,6.51,6.51,0,0,0,1-1.07l0,.17c-.05.25-.09.51-.14.76A8.34,8.34,0,0,1,42.78,40a9.73,9.73,0,0,1-4.19,1.1h-.31a7.82,7.82,0,0,1-.48-.79,7.83,7.83,0,0,1,1.72-5.4,1.89,1.89,0,0,1,.2-.2"/><path class="cls-3" d="M32.26,41.5a6.32,6.32,0,0,0,.56-.51,6.46,6.46,0,0,0-.06-4.65,3.21,3.21,0,0,0-1.9-1.82,4.65,4.65,0,0,0-2.38-.13,3,3,0,0,0-1.53.89c0,.17,0,.36-.05.55s0,.42-.08.62A6.89,6.89,0,0,0,29,39.56a8.08,8.08,0,0,0,3,1.86Z"/><path class="cls-5" d="M29.29,35.34l.14,0a.24.24,0,0,0,.07-.13c0-.11-.05-.22-.25-.34a.33.33,0,0,0-.16.13Zm-.18.3c0,.07,0,0,.08-.09a.3.3,0,0,0,0-.25c-.07-.14-.27-.22-.58-.23l-.09.21c-.05.18,0,.3.27.37a.44.44,0,0,0,.36,0m1,2.17.3.09s0,0,.07-.15,0-.12-.05-.13l-.07-.06H30.2l-.06.1Zm.66-.12a.19.19,0,0,0,.19-.06c0-.16-.12-.28-.33-.37l-.11.09Z"/><path class="cls-4" d="M32.65,36.13a3.6,3.6,0,0,1,.07,2.17s-.11.29-.31.74-.9.43-1.71.19a5.54,5.54,0,0,1-3.79-3.55v.15c0,.21,0,.42-.07.62A6.79,6.79,0,0,0,29,39.56a8.08,8.08,0,0,0,3,1.86l.25.08a6.32,6.32,0,0,0,.56-.51,6.46,6.46,0,0,0-.06-4.65,2.12,2.12,0,0,0-.11-.21"/><path class="cls-6" d="M18,29.94l.1.17a.18.18,0,0,1,0,.11.24.24,0,0,1-.21.1h-.31c0-.18.15-.31.45-.38m.79.9-.59.31-.24-.07c-.07.07-.1,0-.1-.14s.17-.22.52-.38a2,2,0,0,1,.55-.21.27.27,0,0,0,.13.07s0,0,0,.14a3,3,0,0,1-.21.69l.45-.38a1.85,1.85,0,0,1,.07.62c0,.05,0,0,.1-.1a1.53,1.53,0,0,1,.45.72.41.41,0,0,1,0,.17l-.17.1a.27.27,0,0,1-.21-.24c0-.09-.13-.1-.34,0a.24.24,0,0,1,0-.24l0-.28v0l-.41.14-.21,0c-.07.09-.1.06-.1-.1a.87.87,0,0,1,.17-.31.89.89,0,0,0,.14-.38Zm5.6,2.58c.19,0,.28.08.28.24s0,.25-.11.2a1,1,0,0,1-.41.07c-.07,0-.1,0-.1-.17a.4.4,0,0,1,.1-.24c.07-.14.15-.17.24-.1M24.28,33s0,.05,0,.17-.16.17-.48.31a.4.4,0,0,1-.17-.07c-.05,0-.07-.08-.07-.17a.37.37,0,0,1,.2-.35.4.4,0,0,1,.45.11Zm-8.35-7.36a.5.5,0,0,1,0,.24.58.58,0,0,1-.31.48.56.56,0,0,1-.2-.45.49.49,0,0,1,.31-.44c.11.09.17.15.17.17m-1.07,1.24a.76.76,0,0,1,.11.41l-.24.14h-.18a.45.45,0,0,1,0-.21l.07-.14a.94.94,0,0,1,.27-.2M14,26.61h.07a.34.34,0,0,1,0,.2s0,.08-.11.18a1.64,1.64,0,0,1-.2.17l-.28,0c-.07,0-.1-.05-.1-.24s.07-.12.2-.17a.86.86,0,0,1,.38-.1m37,6.81,0,.2c0,.12-.1.25-.31.41a.35.35,0,0,0-.14-.06.33.33,0,0,1-.07-.21c0-.3.16-.41.48-.34m.11.61a.56.56,0,0,1,0-.24q.11-.13.48,0v.52l-.1.06-.17,0c-.16-.16-.24-.28-.24-.35m-1.86,1.55s-.07-.08-.07-.24.11-.24.31-.38h.28v.14a1.77,1.77,0,0,1-.17.41.63.63,0,0,1-.35.07"/></g></svg>