<svg id="objet01" xmlns="http://www.w3.org/2000/svg" viewBox="0 0 66 66"><defs><style>.cls-1{fill:#a1adb7;}.cls-1,.cls-2,.cls-3,.cls-4,.cls-5,.cls-6,.cls-7{fill-rule:evenodd;}.cls-2{fill:#d8a450;}.cls-3{fill:#aa772e;}.cls-4{fill:#ad8151;}.cls-5{fill:#e1e3e5;}.cls-6{fill:#6c7882;}.cls-7{fill:#dadde0;}</style></defs><title>Plan de travail 5</title><path class="cls-1" d="M59.7,31.63a13.33,13.33,0,0,0-2.52-.19,3,3,0,0,0-1.63.47,3.08,3.08,0,0,0-1.15.94q-.63.82-.9,1.11c.06-1.84.09-2.83.09-2.95a11.25,11.25,0,0,0-.05-1.22,6,6,0,0,0,4.24.36A2.18,2.18,0,0,1,60,30.8v.12a.8.8,0,0,1-.26.71"/><path class="cls-1" d="M16.47,3a6.21,6.21,0,0,1,.68.47l.34.28v.06c0,.06-.15.62-.47,1.67a8.57,8.57,0,0,0-.51,2.4,2.28,2.28,0,0,0,.21.72,2.48,2.48,0,0,1,.17.69v.06c-.74-.39-1.43-.72-2.05-1L14.11,8q.5-1.41.69-1.86L16.47,3"/><path class="cls-1" d="M14.67,15.1A1.82,1.82,0,0,1,15,13.8q.09,0,4.26,2.44T30,23.08q4.52,3,9.43,6.78c.23.42.49.87.77,1.36-.78-.49-1.68-1.08-2.71-1.75q-6.63-4.37-12.56-8-5.2-3.21-10.28-6.35"/><path class="cls-2" d="M7.17,4.41c.72.53,1.57,1.12,2.54,1.75C10,6.37,10.9,7,12.34,8c-.16.5-.41,1.35-.75,2.57a3.29,3.29,0,0,1-.13.47c-2.2-.61-4.18-1.09-5.94-1.46L4.39,9.33c.18-.55.31-.95.4-1.2C5.36,7,5.86,6,6.29,5.05a2,2,0,0,1,.13-.25c.23-.25.41-.38.55-.39h.2"/><path class="cls-3" d="M6.93,6.07a.87.87,0,0,1-.17.51.52.52,0,0,1-.47.3c-.31,0-.47-.22-.47-.64,0-.26.19-.46.56-.6s.55,0,.55.43M9.06,7.41c0,.09-.07.13-.3.13a.36.36,0,0,1-.34-.25l-.05-.13c0-.29.13-.43.39-.43s.38.14.38.43,0,.31-.08.25m1.36.52c-.34,0-.51-.16-.51-.47a.62.62,0,0,1,.51-.6c.35-.09.52.1.52.55,0,.18-.17.35-.52.52m-.75,2c-.09.12-.17.18-.26.18A.42.42,0,0,1,9,9.84a.34.34,0,0,1-.13-.25c0-.23.15-.36.47-.39s.43.1.43.39a.56.56,0,0,1-.13.29M7,9.29a1,1,0,0,1-.73.3c-.37,0-.58-.12-.64-.35,0,0,0-.15,0-.38,0-.51.28-.78.85-.81s.82.18.82.64a.83.83,0,0,1-.26.6"/><path class="cls-4" d="M11.87,12l0,10.28q.09,2.4.09,7.1v3.89c0,.11,0,.24,0,.39l0,.23h0q0,.65,0,5.43t-1.09,6.31a3,3,0,0,1-3.2,1.14q-2.13-.39-2.55-8.62c-.1-2-.18-3.45-.23-4.45q0-.45,0-.81V25.19q0-4,.09-9.45c.06-3.44.14-5.49.24-6.13a1.43,1.43,0,0,1,0-.22l.36.09c.06,1.08.08,3.26.07,6.52,0,4.87,0,8.2,0,10v10.8c.06.75.13,1.7.22,2.85Q6.3,46.23,8.92,46c1.74-.16,2.54-2.71,2.39-7.68s-.2-7.24-.17-6.84,0,.59.07.94v-3l.13-17.67c0-.37.47-.49.53.25"/><path class="cls-5" d="M12.4,6.74Q32.94,17,43.88,22.59,54.44,28.14,54.44,29l-.73,3.51a28.47,28.47,0,0,0,6.1,4.27c2.36,1.26,2.4,1.72.15,1.39s-3.92.11-5,1.33a3.07,3.07,0,0,0-.6,3.68,16.39,16.39,0,0,1,1.47,4.1c.34,1.52.29,4.56-.17,9.13s-1.52,6.71-3.18,6.44a2.82,2.82,0,0,1-1,.15H48a6.7,6.7,0,0,1-4.15-3.51,7,7,0,0,1-.67-3.12,11.54,11.54,0,0,1,.24-2.57c.15-.58.49-1.72,1-3.42s.34-4.55-.58-8.57Q42,34.4,39.67,31.61c-1.62-1.93-2.54-3.08-2.78-3.44l0,0a126.89,126.89,0,0,0-14.77-10Q16,14.38,10.54,11.34q.18-.78.54-2.1a7.11,7.11,0,0,1,1.17-2.58l.15.08"/><path class="cls-6" d="M41.12,26l1.22.72q2.47,1.45,6.2,3.42l.55.35a3.33,3.33,0,0,1,.22,1.15,5.87,5.87,0,0,1-.43,1.8,6.59,6.59,0,0,1-.81,1.75A5.35,5.35,0,0,1,45.48,37l-.62-.38c-1.74-1.31-3.19-2.4-4.36-3.25l-.34-.24c.1-.36.2-.76.3-1.17.45-3.08.68-4.68.68-4.79a10.09,10.09,0,0,0,0-1.11"/><path class="cls-7" d="M48.58,31.82c.49.15.73.42.73.81s-.2.73-.6.73a.79.79,0,0,1-.81-.47l-.09-.51c0-.49.26-.67.77-.56m-1.58,3-.13-.35c0-.48.29-.67.86-.55s.81.38.81.72a.68.68,0,0,1-.21.48.74.74,0,0,1-.43.17.94.94,0,0,1-.9-.47m-1.54,1c0-.48.29-.65.85-.51s.82.33.82.55c0,.63-.24.95-.73.95a.81.81,0,0,1-.73-.47Z"/><path class="cls-1" d="M41.23,26.65l.12-.73a1,1,0,0,1,.15.21,4.36,4.36,0,0,1,.5,2.23c-.61,3-1.23,4.54-1.84,4.6s-1,0-1.14-.22a14.12,14.12,0,0,1-.7-2.59,2.19,2.19,0,0,0,.77.13c1,0,1.68-1.21,2.14-3.63"/></svg>