<svg xmlns="http://www.w3.org/2000/svg" viewBox="0 0 66 66"><defs><style>.cls-1{fill:#936c3a;}.cls-1,.cls-2{fill-rule:evenodd;}.cls-2{fill:#ad8151;}</style></defs><title>Plan de travail 15</title><g id="objet02"><path class="cls-1" d="M44.93,15.9q5.74,5.7,5.75,16.4a20,20,0,0,1-3.4,10.8q-5.55,8.65-17.55,8.65a20,20,0,0,1-6.8-1.2l-2.8-1.3c0,.08,0,.17,0,.27s0,.83,0,2a8.68,8.68,0,0,1-.28,2.5c-.18.53-.46,1.67-.82,3.4a11.26,11.26,0,0,0-.4,3.35l-.3,0a4.92,4.92,0,0,1-.25-1.2,10.58,10.58,0,0,1,.17-2,4.48,4.48,0,0,0-1.52,2.68c-.27,0-.4-.23-.4-.7a6.89,6.89,0,0,1,1.35-3.4s.19-.29.57-.83a7.21,7.21,0,0,0,.5-3.32,15.51,15.51,0,0,0-.37-3.6q-3-3.5-4.1-5.1A25.57,25.57,0,0,1,9.38,30.5a22.13,22.13,0,0,1,2.75-12.33q3.19-5.87,6.27-6.52c2.05-.44,3.22-.45,3.5-.05a2,2,0,0,1,.43,1c0,.39-.59,1-1.78,1.9l-.32.22-.05,0c-.12.08-.66.52-1.63,1.32a16.71,16.71,0,0,0-3.17,4.08,22.76,22.76,0,0,0-.85,2.15,34.16,34.16,0,0,0-.9,4.45,39.61,39.61,0,0,0-.7,5.35,21.09,21.09,0,0,0,1.4,6.6A15.07,15.07,0,0,0,17.88,45c0-.32-.06-.71-.1-1.17-.1.13-.79-1.25-2.05-4.15a21.74,21.74,0,0,1-1.9-8.8,18.77,18.77,0,0,1,5.75-14,18.91,18.91,0,0,1,12.7-5.5,16.06,16.06,0,0,1,12.65,4.6M17.68,29.3a30.89,30.89,0,0,0,.75,8.25q2.25,7.2,10.15,7.2,10.44,0,14.3-6.15a15.07,15.07,0,0,0,2-8.15q0-8.81-4.25-13a10.66,10.66,0,0,0-9.35-3,15.77,15.77,0,0,0-9.4,4.75,14,14,0,0,0-4.25,10.1M19.8,46.07a10.7,10.7,0,0,0,3.23,2,17.33,17.33,0,0,0,6.8,1.25q10.55,0,15.5-7.85a17.49,17.49,0,0,0,3-9.25,22.66,22.66,0,0,0-.95-5.55,14.83,14.83,0,0,0-1.9-4.85v.05c.4,2.3.71,4,1,5,0,.27,0,1.43,0,3.5,0,4.4-.64,7.77-1.9,10.1q-4,7.29-13,7.45t-11.85-2.9q.09.64.12,1"/><path class="cls-2" d="M43.73,14.65l-3.95,0q-13.26.75-18.3,1.1l-1.6.12L19,16q-.66-.15-1.35-3A16.75,16.75,0,0,1,17,9.15Q24.1,8.37,42.33,7A103.53,103.53,0,0,0,54.05,5.2c.87,0,1.36.2,1.48.5a7,7,0,0,1,.4.6,1.38,1.38,0,0,1,.4.45,10,10,0,0,1,.35,2.55,7.74,7.74,0,0,1-.4,2.4,3.37,3.37,0,0,1-1.35,1.9,3.17,3.17,0,0,1-1,.55h-.22a4.06,4.06,0,0,1-1.75.07l-7.75.33Z"/><path class="cls-1" d="M49.38,14.33l-.45,0a17.61,17.61,0,0,0,2.2-8.2h.2l.15,1.45a33.19,33.19,0,0,1-.9,4.15,12.47,12.47,0,0,1-1.2,2.58m3-4.63c0,1.13,0,1.92,0,2.35-.09.79-.16,1.51-.21,2.19l.29,0A19.23,19.23,0,0,0,53,9.65a20.32,20.32,0,0,0-.37-4.15l-.49.1a24.13,24.13,0,0,1,.31,4.1M40.13,7.12c-.08.39-.17.82-.25,1.33a14.86,14.86,0,0,1-.7,3,18.2,18.2,0,0,1-2.07,3.4l.74,0a13,13,0,0,0,1.63-2.61,12.16,12.16,0,0,0,1.29-5.13l-.64,0m6.95,4a12,12,0,0,0,1.15-4.9v0l-.51.07a16.56,16.56,0,0,1-1,4,18.31,18.31,0,0,1-2.35,4.29l.47,0a11.24,11.24,0,0,0,2.23-3.37m6.9.15a20,20,0,0,1-1.06,3,5.57,5.57,0,0,0,.76-.11h0c.1-.26.2-.52.3-.8a20.33,20.33,0,0,0,1.2-6.3c0-.6,0-1.14,0-1.64a1.91,1.91,0,0,0-.52-.15,24.71,24.71,0,0,1-.69,6M43.38,9a19.52,19.52,0,0,1-.94,5.67H43a13.57,13.57,0,0,0,.82-4.56,10.83,10.83,0,0,0-.46-3.26l-.43,0Zm-12.6,4a9.67,9.67,0,0,0,1.8-4.45l-.07-.82-.28,0c-.2,2.47-1.54,5-4,7.61l.81,0A12.57,12.57,0,0,0,30.78,13m5-1.8a15,15,0,0,0,2-3.89L37,7.37a15.07,15.07,0,0,1-6,7.83l1-.06a13.69,13.69,0,0,0,3.73-3.94m-11.3,2.3a14.34,14.34,0,0,0,.6-2.2,14.78,14.78,0,0,0,.4-2.4c0-.2,0-.38,0-.57l-.71.07A13,13,0,0,1,24,12.5a15,15,0,0,1-2,3.26L23,15.7a15.83,15.83,0,0,0,1.52-2.2m-2.95-2.95a6.42,6.42,0,0,0-.25-1.83l-.47,0a2.52,2.52,0,0,0,.12.29,5.53,5.53,0,0,1,.15,1.55,11.54,11.54,0,0,1-1.4,5.2l-.07.13h.27l.29,0c.16-.35.31-.71.46-1.1a12.34,12.34,0,0,0,.9-4.25M27.83,13a9.82,9.82,0,0,0,1.3-4.65c0-.09,0-.21,0-.33l-.49,0a11.32,11.32,0,0,1-1.23,4.39,12.08,12.08,0,0,1-2.12,3.1l.75,0A9.23,9.23,0,0,0,27.83,13"/></g></svg>