<svg xmlns="http://www.w3.org/2000/svg" viewBox="0 0 66 66"><defs><style>.cls-1{fill:#936c3a;}.cls-1,.cls-2,.cls-3,.cls-4,.cls-5,.cls-6{fill-rule:evenodd;}.cls-2{fill:#a3481f;}.cls-3{fill:#fff;}.cls-4{fill:#9fad6c;}.cls-5{fill:#ad8151;}.cls-6{fill:#755028;}</style></defs><title>Plan de travail 32</title><g id="objet04"><path class="cls-1" d="M46.12,19.57q9.75.12,10.5,3.33a45.22,45.22,0,0,1,1.44,9.39V35a39.13,39.13,0,0,1-.54,5.27q-1.35,7.45-5.64,7.45a4.69,4.69,0,0,1-1.77-.32c-.44-.28-.71-.44-.82-.5.08.69-.48,1.42-1.69,2.18a8.33,8.33,0,0,1-4.53,1.28,5,5,0,0,1-2.68-.86A5.47,5.47,0,0,1,39,48.39,17.74,17.74,0,0,1,34.34,51a19.35,19.35,0,0,1-7.21,1.4q-4.69,0-6.46-2a13.89,13.89,0,0,0-1.12-2.26,9.69,9.69,0,0,1-1.81,1,6.1,6.1,0,0,1-2.18.78,2,2,0,0,1-2-1.65c-.13-1.1-.2-1.66-.2-1.69,0-.63.07-1.62.2-3a22.18,22.18,0,0,1,.29-2.51l0-.13c-1,.52-1.55.83-1.77.91a6.63,6.63,0,0,1-2.63.66A3.47,3.47,0,0,1,6,40.28L5.55,38a10.17,10.17,0,0,1,.13-2.1c.22-.68.46-1.55.74-2.59-1.32.41-2.16.11-2.51-.91-.14-1.12-.21-1.73-.21-1.81a7.63,7.63,0,0,1,.62-3.17,17.65,17.65,0,0,1,2.34-3.46,33.35,33.35,0,0,0,2.6-3.58q1.65-1.28,7.41-1.28l12.89.41a60.18,60.18,0,0,0,11.2-.7c.69-.13,2.47.13,5.36.79"/><path class="cls-2" d="M42.06,19.92c5-.68,8-1,8.83-1a3.87,3.87,0,0,1,2.33.78,6.82,6.82,0,0,1,1.89,3.56q.82,2.79-1.21,7a16.78,16.78,0,0,1-2.72,3.05,26.67,26.67,0,0,1-5.64,4,21.63,21.63,0,0,1-9.68,2.34,39.42,39.42,0,0,1-7-.66c-1.67-.52-3-.92-4-1.19-1.21-.36-2.56-.84-4-1.44-.7-.29-1.78-.76-3.23-1.4A13.43,13.43,0,0,0,18,33.36c.33-2,.53-3.39.62-4.16s.08-1.85.08-3.58a29.43,29.43,0,0,0-.87-7,.05.05,0,0,0,0,0l2.54.61a68.94,68.94,0,0,0,9.47,1.49H33.1c.92.2,3.9,0,9-.72"/><path class="cls-3" d="M43.85,20.06l-.1-.2-1,.12a61,61,0,0,1-7.6.45,81.31,81.31,0,0,1-10.37-.74c-2.31-.29-4.5-.65-6.59-1.07l-.81-.17,0,.05a9.65,9.65,0,0,0-1.6,3.33,1.07,1.07,0,0,0,.28.82c.31.42,2.34,1,6.08,1.82a46.9,46.9,0,0,0,9.33,1.19H35A1.22,1.22,0,0,1,36.15,25a1.3,1.3,0,0,1,1.11.39,20.58,20.58,0,0,0,5.64-1.25,2.54,2.54,0,0,0,1.57-2.47,4.32,4.32,0,0,0-.62-1.65"/><path class="cls-3" d="M37.3,34.43c-.21-1.39-.54-2-1-1.81a1.92,1.92,0,0,0-1,1.09c-.25.56-.39.89-.43,1a7.32,7.32,0,0,1-1.57.15,32,32,0,0,1-6.8-.83l-3.29-.86a16.27,16.27,0,0,1-2.59-.66,22.8,22.8,0,0,1-2.56-1,4.71,4.71,0,0,0-.76-2c-.41-.65-.88-.28-1.4,1.11a8.47,8.47,0,0,0-.58,3.23c.34.23.68.45,1,.66a66.15,66.15,0,0,0,10.46,3.48,52.85,52.85,0,0,0,9.72,1.57l.35,0q.43-.39.54-3a13.92,13.92,0,0,0-.17-2.1"/><path class="cls-4" d="M46.45,18.7c1.61-.21,3.16-.35,4.65-.43a3.65,3.65,0,0,1,3.52,2.26A10.33,10.33,0,0,1,56,25a7.46,7.46,0,0,1-1,4,31,31,0,0,1-4.06,5.08,31.75,31.75,0,0,1-6.57,4.68Q41,40.49,35,40.49q-5.19,0-13.22-3.09-7.53-2.9-8.16-5.23c.45.22,1,.49,1.71.8,2.24,1,4.8,2,7.68,3a48.58,48.58,0,0,0,5.52,1.73A33.75,33.75,0,0,0,36.85,39Q42.91,39,49,33.77q5.35-4.61,5.35-7.29c0-3.87-1-6-3.13-6.5a12.51,12.51,0,0,0-4.77.16c-3,.37-6.13.68-9.35.93a59.85,59.85,0,0,1-9.37,0h-.1a69.17,69.17,0,0,1-9.06-1.61,10.45,10.45,0,0,1-5.09-2.61c.54.2,1.56.5,3.05.88a82.18,82.18,0,0,0,10.25,1.92,46.31,46.31,0,0,0,10.48.18c1.27-.19,2.7-.37,4.31-.55s3.22-.38,4.84-.6"/><path class="cls-5" d="M43.79,17.47q2.68-.49,4.59-1,10-2.64,10,1.15c0,.33,0,.47-.13.41,0,.14-.13.21-.49.21s-.52-.22-.82-.33-.36-.13-.56-.19a16.57,16.57,0,0,1,2.45,1.71Q63,22.91,63,24.67a1.74,1.74,0,0,1-1.15,1.65,14.06,14.06,0,0,1-4.41.91H50.85a80,80,0,0,1-12.85-3,48.33,48.33,0,0,1-7.84-3.52q-3.66,2-5.58,2.74a20.42,20.42,0,0,1-7.7,1.4A22.08,22.08,0,0,1,6.5,22.66Q3,20.76,3,18.66c0-.55.52-1,1.56-1.4q.81-.29,1.53-.6a8.57,8.57,0,0,1-2-.26Q7,13.31,13.67,13.6A14.14,14.14,0,0,1,20,15l3.77,1.64a42.29,42.29,0,0,0,12.08,1.71l1.18-.14c1.57-.21,3.81-.45,6.73-.74"/><path class="cls-6" d="M12.88,28a5.25,5.25,0,0,1-1.48.74c-.27-.19-.43-.33-.45-.41.68-.91,1.33-1,1.93-.33m-1,1.85a1.7,1.7,0,0,1,1.32.13,7.41,7.41,0,0,1-1.69.82c-.19.19-.28.12-.28-.21s.22-.6.65-.74m-4.77,8-.46.45a1.35,1.35,0,0,1-.86.25.8.8,0,0,1-.66-.25A1.6,1.6,0,0,1,6,37.69a2.34,2.34,0,0,1,1-.09Zm-2,3.54A3.06,3.06,0,0,1,6.25,40a3.82,3.82,0,0,1,1.16-.74c.41.17.61.32.61.45a9,9,0,0,1-1.11,1,4.54,4.54,0,0,1-1.32.87,1,1,0,0,1-.45-.21m23.6,8.2v.33a3.46,3.46,0,0,1-.5,1.23c-.13.06-.22,0-.24-.08a7.8,7.8,0,0,0,.33-1.57h.28c.06.06.1.09.13.09m-2.89,1.89a1,1,0,0,1-.12-.41,2.38,2.38,0,0,1,.21-.78,3.15,3.15,0,0,0,.2-.87c.5-.22.74.06.74.83a2,2,0,0,1-.28.86,7.36,7.36,0,0,1-.46.74c-.08,0-.18-.15-.29-.37m31.92-14,.16.12a.42.42,0,0,1,.21.21,1,1,0,0,1-.74.21A1.42,1.42,0,0,1,57,38a.84.84,0,0,0-.25-.17l0-.12a3,3,0,0,1,1.07-.21m1.11,3.09v.12a1,1,0,0,1-.78.29,3.31,3.31,0,0,1-1.52-.41c-.44-.25-.66-.45-.66-.62a1.67,1.67,0,0,0,.08-.49,6.8,6.8,0,0,1,1.36.41,5.94,5.94,0,0,1,1.52.7"/></g></svg>