<svg xmlns="http://www.w3.org/2000/svg" viewBox="0 0 66 66"><defs><style>.cls-1{fill:#ad8151;}.cls-1,.cls-2,.cls-3{fill-rule:evenodd;}.cls-2,.cls-4{fill:#936c3a;}.cls-3{fill:#635e59;}</style></defs><title>Plan de travail 25</title><g id="objet03"><path class="cls-1" d="M21.09,25.52a37,37,0,0,1,4.73-4.07c1.7-1.3,4-2.91,6.81-4.8a26,26,0,0,1,8.95-3.45c3.74-.8,5.61-.19,5.61,1.85a7,7,0,0,1-1.39,3,6.76,6.76,0,0,0-1.4,2.9v0h.07l2.37-.89a11.66,11.66,0,0,1,3.66-.89,2.49,2.49,0,0,1,1.88,1.47,3.77,3.77,0,0,1,.35,1.68,9.34,9.34,0,0,1-1.42,4.09q-1.65,2.71-2.16,3.63-1.2,2.67-2,4.32a12.92,12.92,0,0,1-1.64,2.83.87.87,0,0,1-.32.58,1.32,1.32,0,0,1-.81.23Q35,33.48,32.22,32.15l-6.32-2.9c-3.48-1.68-5.21-2.71-5.21-3.1a.6.6,0,0,1,.4-.63"/><path class="cls-2" d="M44.4,21.63a3.21,3.21,0,0,1,.06-.63,3.58,3.58,0,0,0,.55-.19l.3.77a2.07,2.07,0,0,0,1.37,1,1.13,1.13,0,0,1-.12.21A.71.71,0,0,1,46,23a1.47,1.47,0,0,1-1.22-.64,1.38,1.38,0,0,1-.35-.73"/><path class="cls-3" d="M17.26,27.35c.25-.39,1.08-1.57,2.47-3.55l.14,0c2.09.68,4.42,1.57,7,2.69L34.66,30a51.42,51.42,0,0,1,6.43,3.36c1.13.74,3.48,2.28,7,4.64a1.2,1.2,0,0,1-1.09.44q-4.57,0-18.32-3.79-10.53-2.91-13.06-4.43l1.6-2.88"/><path class="cls-4" d="M11.41,38.22a84,84,0,0,0,18.2,7.05C41,48.4,50.8,50.93,50.8,50.93l6.63-6.35L33.67,35.05l-18.8-5.47S11,35.08,11.41,38.22Z"/><path class="cls-1" d="M6.05,24.09q3.06.09,10.34,4.32a50.31,50.31,0,0,0,17.28,6.64,27.51,27.51,0,0,0,4.63.4,16.94,16.94,0,0,0,6.78-1.4,14.37,14.37,0,0,1,5.21-1.39q2.37,0,4.83,4.32a30.35,30.35,0,0,1,2.11,4.47,31,31,0,0,0,3.71,5C62.31,48.11,63,49.37,63,50.27a2.49,2.49,0,0,1-.81,1.83,4.76,4.76,0,0,1-3.33,1c-1.93,0-4.87-.76-8.85-2.29q5.15-4.08,5.14-4.65A.19.19,0,0,0,55,46a3.83,3.83,0,0,0-1.3-.13,7.85,7.85,0,0,0-1.39.1,5,5,0,0,1-.84.1c-1.24.16-2.88.46-4.92.91l-1.33.29,0-.43c.18-2.21.28-3.45.31-3.73,0-.49-.06-1-.09-1.6Q37.83,39.8,34.82,39,26.45,36.85,22,35.25a50.11,50.11,0,0,1-7.45-3.38,20.11,20.11,0,0,1-1.24,2.69c-.47.94-1.11,2.16-1.93,3.66-.39-.25-.78-.51-1.17-.79A29.82,29.82,0,0,1,5.77,33.8a13.7,13.7,0,0,1-1.83-2.9A7.55,7.55,0,0,1,3,27.8C3,25.28,4,24,6.05,24.09"/><path class="cls-2" d="M4.7,27.78A2.23,2.23,0,0,1,5.26,27h.9a20.58,20.58,0,0,1,6.37,3.2c.8.54,1.57,1.09,2.31,1.64l0,.17-.29-.16a20.11,20.11,0,0,1-1.24,2.69c-.38.77-.89,1.74-1.51,2.89-.3-.38-.64-.8-1-1.26a24.48,24.48,0,0,1-3-4c0-.11-.19-.76-.43-1.93a3.53,3.53,0,0,0-.91-1.83,1.62,1.62,0,0,0-2,.44c0-.17,0-.33,0-.49a2.51,2.51,0,0,1,.3-.63M45.49,41.51q.16,0,7.08,2.19a23,23,0,0,1,4.36,2.11c.8.56,1.68,1.24,2.65,2A23.47,23.47,0,0,1,61.82,50c.22.43.09,1-.4,1.69a1.09,1.09,0,0,0-.05-.49c-.1-.22-.39-.33-.89-.33a18.81,18.81,0,0,0-1.88.23c-1.06.17-1.74.26-2,.28H54.13a18.42,18.42,0,0,1-3.33-.48l-.61-.22q5-3.94,5-4.51A.19.19,0,0,0,55,46a3.83,3.83,0,0,0-1.3-.13,7.85,7.85,0,0,0-1.39.1,5,5,0,0,1-.84.1c-1.24.16-2.88.46-4.92.91l-1.33.29,0-.43c.18-2.21.28-3.45.31-3.73,0-.49-.06-1-.09-1.6m-20.16-5.4.38.35-.42-.13a1.43,1.43,0,0,0,0-.22"/><path class="cls-2" d="M10.93,25.08a1.89,1.89,0,0,1-.28.51,4.7,4.7,0,0,1-.38.54c-.09,0-.13-.08-.13-.28a1.22,1.22,0,0,1,.23-.54,1.52,1.52,0,0,1,.43-.53l.1.08s0,.09,0,.22m23.81-8.81c.07.06,0,.1-.23.1s-.25-.18-.4-.54a2.12,2.12,0,0,1-.21-.56V15.1s.06,0,.08-.08a.71.71,0,0,1,.53.38c0,.07.13.26.28.59Zm-2.34.43a1,1,0,0,1-.18-.31l.06-.23a.86.86,0,0,1,.43.23.54.54,0,0,1,.15.46l-.2.15s-.14-.12-.26-.3m17,2.89a.58.58,0,0,1,0,.28s-.07.07-.15.11S49,20,49,19.82a2.07,2.07,0,0,1,0-.35c0-.24.15-.38.3-.43a1.85,1.85,0,0,1,.13.55m2.85,4.25c.49,0,.77.12.83.25L52.17,24a.15.15,0,0,1,.06-.11Zm-8.64.51.15.07a.46.46,0,0,1,.05.26.47.47,0,0,1,0,.23.11.11,0,0,1-.05.07l-.12.08-.21-.1a.46.46,0,0,1,0-.26.52.52,0,0,1,0-.28,1.14,1.14,0,0,1,.21-.07m2.87.76a.78.78,0,0,1,.33.28c0,.25-.17.44-.51.56a1.67,1.67,0,0,1-.33-.38c0-.05.07-.15.2-.28s.24-.2.31-.18M57.43,39.9a3.06,3.06,0,0,1-.5.51q-.49.38-.66.33-.06.12-.06-.21A.81.81,0,0,1,56.6,40a.75.75,0,0,1,.76-.23Zm-1-.71a.77.77,0,0,1-.2.43.62.62,0,0,1-.48.28c-.09.15-.13.12-.13-.1a.91.91,0,0,1,.2-.46.88.88,0,0,1,.49-.38.1.1,0,0,0,.1,0s0,.06,0,.18m-11.2-2.65a.37.37,0,0,1-.18-.1.39.39,0,0,1-.08-.28c0-.28.09-.45.26-.5.17.11.25.37.25.76Zm7,4.07,0-.2a2.34,2.34,0,0,1,.39,0l0,.21a.27.27,0,0,1-.21.17h-.2s-.05-.06-.05-.2M37.56,37.05a.86.86,0,0,1-.25.26c-.17,0-.26,0-.28-.13a.74.74,0,0,1,.46-.23Zm.15.51a1.11,1.11,0,0,1,.59-.51s0,.05.1.08,0,.08,0,.2,0,.36-.11.41,0,.1-.22.1a.32.32,0,0,1-.28-.1,1.42,1.42,0,0,0-.11-.18M5.26,32.3c0,.12-.24.36-.74.71a.28.28,0,0,1-.15,0s0-.09,0-.23.11-.17.33-.3a1.55,1.55,0,0,1,.51-.28l0,0s0,.06,0,.18M4.68,31a.64.64,0,0,1,0,.2.55.55,0,0,1-.18.41.76.76,0,0,1-.58.2.41.41,0,0,1-.25-.05l0-.05-.08,0s-.05-.09-.05-.23.15-.26.44-.38a.79.79,0,0,1,.66,0Z"/></g></svg>