<svg xmlns="http://www.w3.org/2000/svg" viewBox="0 0 66 66"><defs><style>.cls-1{fill:#edeeef;}.cls-1,.cls-2,.cls-3{fill-rule:evenodd;}.cls-2{fill:#b2cad8;}.cls-3,.cls-4{fill:#ed3e21;}</style></defs><title>Plan de travail 56</title><g id="objet06"><path class="cls-1" d="M53.26,47.27c.21-2,.61-3.28,1.2-3.87a12.09,12.09,0,0,1,2.6-1.33c1.2-.75,1.49-1.63.89-2.65q-1.7-3.11-8.72-5.2-7-2.26-11.58-1.15A13.55,13.55,0,0,0,34,34.54c-2.17,1.17-2.93,2.34-2.3,3.49A11.86,11.86,0,0,0,33,39.85a5,5,0,0,1,.88.81c.58,1.08.17,2.43-1.25,4.06a12.69,12.69,0,0,1-4,3.26q-1.55,1-2.22,1.53-1.07,1.22.51,2.22a16.53,16.53,0,0,0,5.74,2.05c.9.16,1.66.29,2.28.38,0,0,5.85,1.4,8.3,1.76-4.07-.6,7.08.79,9.1.28a15.34,15.34,0,0,0,1.91-.71A1.77,1.77,0,0,0,55,52.87a7.83,7.83,0,0,0-.9-1.12c-.38-.5-.64-.86-.8-1.1-.26-.4-.26-1.52,0-3.38"/><path class="cls-2" d="M52.53,54.42s-9.42-2.86-16.34-4.15-7.95.34-7.95.34l3,.06s-.42,2.14,7.72,3.38,11.28.51,11.28.51Z"/><path class="cls-3" d="M53.9,51.53l-1.24-.23q-4.86-.84-6.16-2.07a.92.92,0,0,1-.55.46c-.3.05-.48,0-.53,0l-.2,0-.54-.43a1.84,1.84,0,0,1,.13-1.36,1.92,1.92,0,0,1-1.22,1l-.66,0-.54-.43a4.93,4.93,0,0,1,.29-.72.93.93,0,0,0,.09-.78,2,2,0,0,1-1.07.83,12.89,12.89,0,0,1-2.88-.14Q35.88,47.24,35,46l-1.07,1.22c-.49-.06-.79-.41-.92-1l-.92,1c-.3.06-.51,0-.61-.15a2.84,2.84,0,0,0-.64-.59,14.51,14.51,0,0,0,1.79-1.8,8.52,8.52,0,0,0,.93-1.28l1.77,0a11.07,11.07,0,0,1,5.65.73q3.52,1.4,4.46,1.14a3.09,3.09,0,0,1,1.19.4c.55.4.86.59.94.54,1-.24,2.84.45,5.56,2a4.73,4.73,0,0,0,.12,2.39c.13.2.35.5.64.88M31.75,38A11.23,11.23,0,0,0,33,39.85a5,5,0,0,1,.88.81,2,2,0,0,1,.18.64.68.68,0,0,0,.3-.41.59.59,0,0,0,.12-.47c.08-.05.23.09.43.41a.77.77,0,0,0,.71.18.63.63,0,0,0,.4-.3.63.63,0,0,1,.45-.48c.22,0,.64,0,1.29,0a2.81,2.81,0,0,0,1.44.26c.08,0,.4-.16.95-.35l.24.36a3.34,3.34,0,0,0,1.6-.79l.08.12a3.89,3.89,0,0,0,3.73,1.45,1.49,1.49,0,0,0,.27.66,3.55,3.55,0,0,1,3.14.8,4.21,4.21,0,0,0,2.89.93,3.36,3.36,0,0,1,.58-.15.31.31,0,0,0,.13.33,1.8,1.8,0,0,0,.87,1,3.77,3.77,0,0,1,.76-1.51,5.85,5.85,0,0,1,1-.61,1.7,1.7,0,0,0-1.89-.7c0,.06-.06.09-.12.07a.72.72,0,0,0-.24-.36,60.39,60.39,0,0,0-6.31-3.19,1.2,1.2,0,0,1-.35.11c-.48-.39-1.83-.76-4-1.13a1,1,0,0,1-.45.09A1.18,1.18,0,0,0,40.64,37c-.22,0-.38.24-.49.67A2.59,2.59,0,0,0,38,37.14c-.16,0-1,.22-2.42.58a5.62,5.62,0,0,0-1.89-.18,2,2,0,0,1-1.14-.19,2,2,0,0,0-.84-.12.93.93,0,0,0-.19.11,1.67,1.67,0,0,0,.21.69"/><path class="cls-2" d="M55.77,45l-.07.28a5.13,5.13,0,0,1-1.07-.47c-.43-.31-.73-.52-.92-.63.06-.25.14-.4.22-.44a5.21,5.21,0,0,1,1.68,1ZM53,46c-.05-.08,0-.16.18-.25a1.82,1.82,0,0,1,.89.32,2.48,2.48,0,0,0,1.09.38l.2.45a2.36,2.36,0,0,1-2.28-.78ZM39.89,34a4.4,4.4,0,0,1-.69-2c.23-.07.48.09.74.49a3.45,3.45,0,0,1,.4,1.39Zm-6.62,4.78c-.06.25-.28.42-.67.52a4.34,4.34,0,0,1-1,.14,1.92,1.92,0,0,1-1.21-.31,2.91,2.91,0,0,1,1.07-.42l1.57-.2Zm.27-1.92a5.12,5.12,0,0,1-1.16-.5,1.41,1.41,0,0,1-.68-1.16l0-.09c.06.07.35.35.88.81a4.75,4.75,0,0,1,.94.94m-4,8.12c2.14.94,3.44,1.74,3.93,2.39l-.28.23A2.87,2.87,0,0,1,31.31,47a13.18,13.18,0,0,1-1.84-1.67l-.08-.12c-.05-.08,0-.13.15-.16M29,47.27l.13-.07A3.64,3.64,0,0,1,31,48c0,.06-.11.13-.28.23a1.85,1.85,0,0,1-.88-.33,2.27,2.27,0,0,1-.72-.58Z"/><path class="cls-1" d="M13.87,27.22a4.86,4.86,0,0,0-1.18-.16,6.71,6.71,0,0,1-2.35-.5c-1.34-.51-1.41-2-.23-4.4a16.82,16.82,0,0,1,2.24-3.55q3.22-4,10.62-6.91t10.9-1.61c1.2.46,1.5,1.39.89,2.78a11.62,11.62,0,0,0-1.37,2.81c-.06.83.42,2.12,1.44,3.88s1.72,2.62,2.19,2.8a6.17,6.17,0,0,0,1.38.23A5.87,5.87,0,0,1,40,22.9a1.73,1.73,0,0,1,1.07,2.56c-.7,1.17-1.06,1.79-1.1,1.83q-2.25,2.78-8.39,6.1c-.55.32-1.31.72-2.28,1.19l-5.18,2.33a23.48,23.48,0,0,1-2.74,1.6,16.85,16.85,0,0,1-6.27,2.2c-1.38.19-2-.27-1.88-1.4.14-.6.42-1.53.85-2.81a12.87,12.87,0,0,0,1.32-5.17c.19-2.28-.31-3.65-1.52-4.11"/><path class="cls-2" d="M16.18,39.06s3.31-7.67,20.88-13.16l-2.9,1.65s2.44,1.22-.86,3S19,37,19,37,17.13,38.26,16.18,39.06Z"/><path class="cls-4" d="M17.51,19.7a.89.89,0,0,1,0-.86,1.3,1.3,0,0,1,1.61-.37l.05,0a1.76,1.76,0,0,1,.26-.39,16.53,16.53,0,0,1,4.34-1.87.92.92,0,0,1,.13-.24q.25-.3,7.57-1.71a1.42,1.42,0,0,1,.37.19l.15-.19a1.74,1.74,0,0,1,2.12-.66.6.6,0,0,1,.13.09,8.27,8.27,0,0,0-.89,2,3,3,0,0,0,.11.89,2.89,2.89,0,0,1-1-.26,1.43,1.43,0,0,1-.37-.19l-.33.41a4.38,4.38,0,0,1-3.07,1.18,4.45,4.45,0,0,0-3.26,1.59,1.76,1.76,0,0,1-.68-.45,4.36,4.36,0,0,1-4.13,1.36l-.18,0a3.81,3.81,0,0,1-.9,1.66,2.47,2.47,0,0,1-.43-.11l-.6.9a4.27,4.27,0,0,1-1.29.77,5.88,5.88,0,0,0-1.26.9.62.62,0,0,0-.12.63.54.54,0,0,1-.07.57.75.75,0,0,1-.76.29c-.38-.07-.58-.09-.62,0a2.63,2.63,0,0,1,.26.49.75.75,0,0,1-.19.71,1.37,1.37,0,0,1-.52.32l-.09-.06a4.86,4.86,0,0,0-1.18-.16,6.71,6.71,0,0,1-2.35-.5,1.84,1.84,0,0,1-.28-.15c-.37-.59-.44-1.06-.17-1.4a3.21,3.21,0,0,1,.89-.44A2.48,2.48,0,0,0,11.89,24a9,9,0,0,1,1.75-1.19l1.71-2.1a3.31,3.31,0,0,1,2.16-1m12,2a2.72,2.72,0,0,1-1.23.22,1.92,1.92,0,0,0-1.25.4q-.66.83-4.58,2.07a12,12,0,0,0-5.38,3.23c-.78.58-1.37,1.06-1.81,1.44a7,7,0,0,1,.13,2.23,15.26,15.26,0,0,1-.21,1.72,6.25,6.25,0,0,1,1,.05c.2.07.4,0,.61-.26l.11-1.43a1.22,1.22,0,0,0,1.38.24l.2-1.69c1.05.21,2.5-.22,4.33-1.28a12.41,12.41,0,0,0,2.56-1.86,2.23,2.23,0,0,0,.37-1.43,1.26,1.26,0,0,1,.5.68,1.36,1.36,0,0,0,.18.75h.78l.47-.41a2.49,2.49,0,0,0,.49-1.57A2.33,2.33,0,0,0,28.82,26h.78a.35.35,0,0,1,.22-.11c.14.05.3-.05.51-.3a.87.87,0,0,0,.18-.71c1.29,0,3.49-.79,6.61-2.47h0l-.12,0c-.45-.18-1.15-1.07-2.09-2.64q-4.44.83-5.42,2"/><path class="cls-2" d="M13.13,35.55l.12-.14a3.78,3.78,0,0,1,2.06-.59c0,.07,0,.19-.15.34a2,2,0,0,1-.82.36,2.91,2.91,0,0,1-1.11.07Zm-.83-1.88-.1,0c-.07,0,0-.11.08-.26,2.45-.63,4.07-.86,4.89-.68l0,.38a3.26,3.26,0,0,1-2.12.66,14,14,0,0,1-2.71-.06m-.83-7.85a.86.86,0,0,1-.17,1,4.25,4.25,0,0,1-.87.74,2.26,2.26,0,0,1-1.21.52A2.42,2.42,0,0,1,9.82,27l1.23-1.19ZM7.75,24.1l0-.19A5.63,5.63,0,0,0,9,24a4.36,4.36,0,0,1,1.45.16,3.4,3.4,0,0,1-1.35.36,1.7,1.7,0,0,1-1.36-.42m25.38-5.68c-.07,0,0-.11.08-.26a1.93,1.93,0,0,1,1-.41,3.28,3.28,0,0,0,1.19-.33l.5.19a2.91,2.91,0,0,1-2.56.89Zm.7-2a7.26,7.26,0,0,1-1.21,0c-.12-.17-.14-.31-.06-.41a7.58,7.58,0,0,1,2.14-.36l.24.19.08.22a11,11,0,0,1-1.19.34M14.14,17.53a5.64,5.64,0,0,1-1.92-1c.2-.25.54-.29,1-.11a3.19,3.19,0,0,1,1.22.76Z"/></g></svg>