<svg xmlns="http://www.w3.org/2000/svg" viewBox="0 0 66 66"><defs><style>.cls-1{fill:#c6d2db;}.cls-1,.cls-2{fill-rule:evenodd;}.cls-2{fill:#edeeef;}.cls-3{fill:#ed3e21;}</style></defs><title>Plan de travail 46</title><g id="objet05"><path class="cls-1" d="M21,21.1s-.16-1.89,5.55-.84c10.19,1.88,24,1.28,24.45,5.9,0,0-3.49,2.95-19,0C19,23.68,21,21.1,21,21.1Z"/><path class="cls-1" d="M4,30.09c-2.14,0-1.69,1.4.23,2.91,1.56,1.22,4.33,2.46,5.58,3.53,2.8,2.39,4.81,4.7,5.92,4.12C18,39.46,9.27,30.09,4,30.09Z"/><path class="cls-1" d="M63.16,37.39c1,.09-1.15,2.16-4.65,4.47s-6,3.46-6.63,4.13-1.31,0,0-1.57S61.5,37.24,63.16,37.39Z"/><path class="cls-2" d="M58.13,32.89l-5.7-3.55a1.66,1.66,0,0,0,.48-.91.63.63,0,0,0-.24-.48,1.41,1.41,0,0,0-1.25,0c-.14-.76-.26-1.35-.38-1.79a69.24,69.24,0,0,1-12.79-.39l-.23,0A57.72,57.72,0,0,1,21.33,21a.54.54,0,0,0-.29.07l-.1-.15c-.37.25-.56,1.21-.57,2.9-.19-.15-.43-.34-.72-.55q-1.2-.81-1.2.24l.05.53Q11.6,26.56,10,27.18c-1.83.7-4.08,1.69-6.75,2.95l0,0c.12,0,.19.05.22.12l1,.65A15.81,15.81,0,0,1,7.81,33c.57.45,1.42,1.17,2.54,2.16a42.34,42.34,0,0,1,4,3.88c.54.59,1,1.14,1.41,1.63h0a.8.8,0,0,0,.63-.27,97.29,97.29,0,0,0,7.74-6.23l.45.36q5.94,4.65,7.81,4.65c.32,0,2.78-.36,7.38-1.1q2.23-.33,6.52-.6,3.85,7.68,4.84,8.53c1.5-1.27,3.41-2.78,5.75-4.53a41.6,41.6,0,0,1,6.28-4.07.77.77,0,0,0,.1-.33q0-.83-5.13-4.17"/><path class="cls-2" d="M20.44,22.42s-.13-2,1-2.48,3.08,0,4.08.14l.15,0c.94.15-4.18-.48-4.23,1.4S20.44,22.42,20.44,22.42Z"/><path class="cls-2" d="M46.87,23a18.43,18.43,0,0,1,3.64,1.14c.36.4.91,1.41.53,4.13L50,27.13s.47-1.88.08-2.52S46.87,23,46.87,23Z"/><path class="cls-1" d="M31.82,26.46a.15.15,0,0,1-.1.15c-.12,0-.28,0-.48-.19a1.32,1.32,0,0,0-.33-.24q0,1.82-.72,8.57c0,.36.25.56.77.63a6.44,6.44,0,0,1,2.06.48l0,.09a3,3,0,0,1-2.15.58A2,2,0,0,1,29.47,36c-.29-.26-.43-.46-.43-.62q1.25-7.49,1.44-9.73a4.39,4.39,0,0,1,1.34.81"/><path class="cls-1" d="M45,29.72q2.69-.52,4.65-1a12.34,12.34,0,0,1-3.89,1.44c-1.78.22-3.32.43-4.6.62l-.67-.14c.26-.07,1.76-.36,4.51-.87m-.43,2.59c.09-.19.59-.46,1.48-.81a16.44,16.44,0,0,1,1.87-.63s.61-.24,1.73-.72a4.05,4.05,0,0,1,1.67-.43,2,2,0,0,1-.67,1.3,1.9,1.9,0,0,1-1,.62.66.66,0,0,1-.29-.1c.18-.44.29-.72.33-.83A21.17,21.17,0,0,1,45,32.45a1,1,0,0,1-.38-.14m-8.87,6q6.13-.86,10.06-1.77c1.76-.39,4.56-1.15,8.39-2.3A40.1,40.1,0,0,1,47,36.77l-.89.26q7.07-.84,7.89-1l.05.05c-1.15.6-3.6,1-7.34,1.29l-3.64.43a24,24,0,0,1-5.17.77,4.63,4.63,0,0,1-2.21-.29M19.17,24.21c.42,0,.66.27.72.79a6.88,6.88,0,0,1,.67,1.13c.22.48.51,1.18.86,2.11l-.1.14-.24.05L19.86,25.7s0,.09,0,.14-.1.67-.29,1.73a10.34,10.34,0,0,1-.43-3.17.45.45,0,0,1,.05-.19m6.28,5.18c.09,0,.06.05-.1.05-.32,0-1.18-.71-2.59-2.11l-3.07-3.17a10.15,10.15,0,0,1,3.45,2.21,10.3,10.3,0,0,1,2.35,2.87Zm-5.37-.05q2.58,2.44,8.14,8.05A33.62,33.62,0,0,1,25,34.87a38.11,38.11,0,0,1-6-4.48A14.13,14.13,0,0,1,22,32a22.26,22.26,0,0,1-2-2.56Z"/><path class="cls-3" d="M51.13,46A7.73,7.73,0,0,1,50,44.38l1-.81c.51-.4,1-.78,1.44-1.12l1.22-.94,1.65-1.2.22-.14c3.44-2.34,5.35-3.61,5.72-3.83l.53-.39c.12-.08.24-.14.35-.22.75.63,1.14,1.07,1.14,1.32a.77.77,0,0,1-.1.34,41.6,41.6,0,0,0-6.28,4.07c-2.34,1.75-4.25,3.26-5.75,4.53m9.4-10.71.57-.34-.49-.36c-1.34.83-2.89,1.8-4.69,3a73.17,73.17,0,0,0-7,4.94l.43.77q2.51-1.91,6.17-4.84,1.15-.87,5-3.12M15.14,33.41a70,70,0,0,0-6.77-5.57l-1.19.5a64.71,64.71,0,0,1,11.55,10.3l.95-.77c-1.24-1.34-2.74-2.82-4.54-4.46m-2.59.77a34,34,0,0,0-7.2-5c-.67.3-1.36.62-2.09,1l0,0c.12,0,.19.06.22.12l1,.65A15.81,15.81,0,0,1,7.81,33c.57.45,1.42,1.17,2.54,2.16a42.34,42.34,0,0,1,4,3.88c.54.59,1,1.14,1.41,1.63h0a.82.82,0,0,0,.62-.26c.31-.2.83-.57,1.5-1.09-.49-.5-1.05-1-1.67-1.57a43.41,43.41,0,0,0-3.67-3.55"/></g></svg>