<svg xmlns="http://www.w3.org/2000/svg" xmlns:xlink="http://www.w3.org/1999/xlink" viewBox="0 0 66 66"><defs><style>.cls-1{fill:none;clip-rule:evenodd;}.cls-2{fill:#5e3e1d;}.cls-2,.cls-3,.cls-4,.cls-6{fill-rule:evenodd;}.cls-3{fill:#8e5c25;}.cls-4{fill:#d7dfe2;}.cls-5{clip-path:url(#clip-path);}.cls-6{fill:#fff;opacity:0.5;}</style><clipPath id="clip-path"><path class="cls-1" d="M37.78,35.4c.78.92,1.55,1.85,2.32,2.78L37,41.5q-1.3,1.47-5.18,5c-1.39-1.54-2.11-2.37-2.16-2.47a74.31,74.31,0,0,1-5.33-7.19c.67-.72,1.39-1.46,2.16-2.24q3.18-3.24,5.64-5.87Q34.46,31.62,37.78,35.4Z"/></clipPath></defs><title>Plan de travail 52</title><g id="objet06"><path class="cls-2" d="M13,3.87c14.71.59,38.61,27.58,43.39,51.85l-2.89,3.5C48.81,42.65,30.32,14.94,10.3,7.5,10.3,7.5,12.54,5.4,13,3.87Z"/><path class="cls-3" d="M9.59,7.5C11.48,5.64,12.07,5.4,13,3.87A26.24,26.24,0,0,1,16.3,8.58q4,7,4.49,7.65A148.76,148.76,0,0,0,31.45,31.3Q36.16,36.94,38,39a77,77,0,0,0,7.34,7.42q1.55,1.45,9.19,7.64c.68.57,1.29,1.11,1.86,1.63-.43,1.22-.94,2.69-1.55,4.4-.22.63-.47,1.3-.73,2a63.26,63.26,0,0,1-6.92-4.94Q41.57,52.71,37,48.45A110.11,110.11,0,0,1,23.64,33.23q-3.09-4.56-8-13.52C14.15,16.86,10.61,9.7,9.59,7.5Z"/><path class="cls-4" d="M37.78,35.4c.78.92,1.55,1.85,2.32,2.78L37,41.5q-1.3,1.47-5.18,5c-1.39-1.54-2.11-2.37-2.16-2.47a74.31,74.31,0,0,1-5.33-7.19c.67-.72,1.39-1.46,2.16-2.24q3.18-3.24,5.64-5.87Q34.46,31.62,37.78,35.4Z"/><g class="cls-5"><path class="cls-6" d="M36.74,29.37a11.52,11.52,0,0,1,.58,3.48V34.7a7.2,7.2,0,0,1-.69,3.17,1.89,1.89,0,0,1-1.86,1,8.91,8.91,0,0,0-1.54,0L29.9,39q-1.92-.23-2.78,3c-.1.39-.19.8-.27,1.24-.32-.36-.54-.61-.66-.77-.66-1-1.21-1.85-1.66-2.52l0-.11A7.16,7.16,0,0,1,25,37.25c.51-1.49,1.39-2.24,2.62-2.24a7.91,7.91,0,0,1,2.4.66,6.67,6.67,0,0,0,2.86.54,2.47,2.47,0,0,0,1.89-1.59,10.72,10.72,0,0,0,.93-4c.13-1.69.47-2.13,1-1.31A.2.2,0,0,1,36.74,29.37Z"/></g></g></svg>