<svg xmlns="http://www.w3.org/2000/svg" viewBox="0 0 66 66"><defs><style>.cls-1{fill:#acb6bc;}.cls-1,.cls-2{fill-rule:evenodd;}.cls-2{fill:#e3e6e8;}</style></defs><title>Plan de travail 53</title><g id="objet06"><path class="cls-1" d="M29.47,10.54q0,2.76,0,7.32V47.47q-3,1.78-3.42-.34a18.39,18.39,0,0,0-.42-3.25c-2.06.85-3.4,1.43-4,1.74q.61-4.66,2.35-22,1.54-15.6,1.74-17C26.48,1.88,30.68,2.34,29.47,10.54Z"/><path class="cls-2" d="M28.09,3.39A7,7,0,0,1,29.83,3c.63,0,1.41,1.31,2.36,3.93a16.68,16.68,0,0,1,2.66,1.54,8.68,8.68,0,0,1,2.08,2.07,6.28,6.28,0,0,1,1.93-.81,7.88,7.88,0,0,1,2.07-.34q1.51,0,2.3,11.1.59,8,1,23.05.1,4.47.2,9.56a12.58,12.58,0,0,1-1.18.53,19.3,19.3,0,0,1-2.38.87c.09,2.57.16,5.33.22,8.3a7.4,7.4,0,0,1-1.37.2A8.92,8.92,0,0,1,35,61.71l-.11-.08a18.19,18.19,0,0,1-2.83-2.42c-.33.4-1.07.59-2.22.59l-.39,0V17.86q0-4.56,0-7.32,0-3,0-3.9a3.62,3.62,0,0,0-2.19-3Z"/><path class="cls-1" d="M32.41,7.54c-.07-.21-.15-.42-.22-.61a16.68,16.68,0,0,1,2.66,1.54,46.15,46.15,0,0,1,.81,7.93,38.4,38.4,0,0,1-.56,6.9A64.67,64.67,0,0,0,32.41,7.54ZM40,16.35a20.4,20.4,0,0,1-.23,2.86A5.21,5.21,0,0,1,39.36,21c-1.08-5.83-1.72-9-1.9-9.48a5.16,5.16,0,0,0-.51-.95,3,3,0,0,1,2.53,2.07A10.85,10.85,0,0,1,40,16.35ZM34.88,61.63a18.19,18.19,0,0,1-2.83-2.42.86.86,0,0,0,.14-.25,29.71,29.71,0,0,0,.22-5.21V52.18c-.11-2.4-.19-4.1-.22-5.11C32,44.49,32,41.74,32,38.83Q32.86,42.21,34.88,61.63Zm8-14.61,1.37-3.48q.1,4.47.2,9.56a12.58,12.58,0,0,1-1.18.53,19.3,19.3,0,0,1-2.38.87q-.42-12-1.23-18.08c.34,1.17.81,2.72,1.43,4.65C42.13,44.51,42.73,46.5,42.84,47Z"/></g></svg>