<svg xmlns="http://www.w3.org/2000/svg" viewBox="0 0 66 66"><defs><style>.cls-1{opacity:0.5;}.cls-2{fill:#cae0ea;}.cls-2,.cls-3{fill-rule:evenodd;}.cls-3{fill:#c0e852;}</style></defs><title>Plan de travail 17</title><g id="objet02"><g class="cls-1"><path class="cls-2" d="M57.59,27c-.34,2-1.28,3.13-2.8,3.33a32,32,0,0,1-6.25,0q-3.94-.29-14.42-.1t-16.55.35c-2.79.07-4.63.1-5.5.07-.29-1.52-.47-2.5-.55-2.92-.5-2.43-.78-3.93-.85-4.5s-.06-.94-.1-1.35c.72-.12,1.92-.28,3.57-.48Q21.12,20.6,35,20h9.5q8.67.21,11.12,2.12a4.87,4.87,0,0,1,2,4.95"/></g><path class="cls-3" d="M10.72,30.38s23.93-1.51,34.08-1.06,1.28-1.65-4.51-1.73S29.53,29,25.92,29,15.46,30,13.73,29.62s-2.93.08-3.46.76.45,0,.45,0"/><path class="cls-3" d="M10.82,30l.45.15.05.25-.5.3c-.27.17-.4.28-.4.35l.3,8a8.31,8.31,0,0,0,.3,1.9q0,.75-.9.75a1,1,0,0,1-.85-.35.85.85,0,0,1-.1-.4,10.68,10.68,0,0,0,.9-3.55,21,21,0,0,0-.25-2.45,17.16,17.16,0,0,1-.3-2.65A9.68,9.68,0,0,1,9.57,31,1.24,1.24,0,0,1,10.82,30M9.67,43.6c0-.1.08-.17.25-.2s.25,0,.25.25a.22.22,0,0,1-.25.25c-.07,0-.13,0-.2-.15Zm1.1,1.9c0,.37-.12.55-.35.55a.36.36,0,0,1-.35-.3A1.23,1.23,0,0,1,10,45.4c0-.33.13-.52.4-.55s.35.18.35.65"/><g class="cls-1"><path class="cls-2" d="M11.67,25c0,.23.32,2.32.85,6.25,0,1-.36,1.65-1.08,1.85s-1.21-.58-1.47-2.35-.6-3.65-1-5.65a25.77,25.77,0,0,1-.62-3.75c0-.7.3-1.08.9-1.15s1.22.45,1.65,1.65a25,25,0,0,1,.8,3.15"/></g></g></svg>