<svg xmlns="http://www.w3.org/2000/svg" viewBox="0 0 66 66"><defs><style>.cls-1{fill:#514439;}.cls-1,.cls-2,.cls-3,.cls-4{fill-rule:evenodd;}.cls-2{fill:#6d6154;}.cls-3{fill:#d7dee2;}.cls-4{fill:#b6c5d3;}</style></defs><title>Plan de travail 20</title><g id="objet02"><path class="cls-1" d="M5.38,27.6s2.45-2.27,37.76-3.83,5.61,9.39,5.61,9.39S15.24,32.28,5.38,27.6Z"/><path class="cls-2" d="M51.17,39.7a209.44,209.44,0,0,1-31.11-2.47Q11.35,35.9,5.49,34.5l-.11-6.9q16.76,1,26.24,1a226.54,226.54,0,0,0,29-2c-.29,1.2-.61,2.51-.94,3.92q-1.08,4.78-1.93,9c-2.21.12-4.41.18-6.58.18"/><path class="cls-2" d="M20.79,29.45c1.69-.05,4.14-.19,7.34-.44a4.8,4.8,0,0,1,1.6.15,1.54,1.54,0,0,1,.76,1c.06.18.1.39.15.61a25.77,25.77,0,0,0-.11,4.48c-.1,1.69-.82,2.54-2.18,2.54a22.72,22.72,0,0,1-2.91-.29l-3-.36a12.9,12.9,0,0,1-3.71-.44c-.43-.24-.65-1.07-.65-2.47a10.69,10.69,0,0,1,.29-3,2.44,2.44,0,0,1,2.4-1.82"/><path class="cls-3" d="M20.79,29.45a2.44,2.44,0,0,0-2.4,1.82,10.69,10.69,0,0,0-.29,3c0,1.4.22,2.23.65,2.47a12.9,12.9,0,0,0,3.71.44l3,.36a22.72,22.72,0,0,0,2.91.29c1.35,0,2.08-.85,2.18-2.54a26.81,26.81,0,0,1,.11-4.48,4.54,4.54,0,0,0-.15-.61,1.54,1.54,0,0,0-.76-1,4.85,4.85,0,0,0-1.6-.15c-3.2.25-5.64.39-7.34.44m11.12-3.27C33.07,26,33.77,27,34,29q-.59,7.93-1.17,11.2c-.38,1.45-1.14,2.18-2.25,2.18A42,42,0,0,1,26,41.73c-2.47-.43-3.78-.68-3.92-.72a43.73,43.73,0,0,1-4.51-1.17,2.81,2.81,0,0,1-2.11-3c.24-4.32.39-7.56.47-9.74v-.21q2.1,0,7.82-.37c4-.24,6.69-.36,8.14-.36"/><path class="cls-4" d="M27.77,34.25c0-1.12.8-1.67,2.39-1.67a4.59,4.59,0,0,1,1.09.07.45.45,0,0,1,.44.58c.44.44.65.75.65.94,0,.78-.62,1.17-1.88,1.17-1.8,0-2.69-.37-2.69-1.09"/></g></svg>