<svg xmlns="http://www.w3.org/2000/svg" viewBox="0 0 66 66"><defs><style>.cls-1{fill:#bc823c;}.cls-1,.cls-2,.cls-3{fill-rule:evenodd;}.cls-2{fill:#e9edf4;}.cls-3{fill:#7f5e3b;}</style></defs><title>Plan de travail 12</title><g id="objet02"><path class="cls-1" d="M55.36,52c.65-.92,1.81-1.24,3.46-.94s3,2,4.19,5.08q-2.32-2.49-4.42-1.85a5.21,5.21,0,0,0-3,2.14c-.66,1-1.09,1.66-1.31,2.07a5.43,5.43,0,0,1-1.07,1.21Q49,63.35,39,57.12A87.19,87.19,0,0,1,19.78,40.51Q10.66,30.1,6.41,24.11T3.2,15.82a9,9,0,0,1,2.38-2.89A15.23,15.23,0,0,0,8.35,9.71C9,8.62,8.72,7,7.56,5c3.06,1.1,4.4,2.36,4,3.77a9.59,9.59,0,0,1-2.3,4,17.63,17.63,0,0,0-2.68,3.74C6,17.71,7,20,9.47,23.32S16,31.52,21.65,37.94A71.82,71.82,0,0,0,38.89,52.65q8.78,5.13,10.76,4.76A5.38,5.38,0,0,0,53,55.23c.91-1.22,1.69-2.29,2.34-3.22"/><path class="cls-2" d="M56.79,54.22a2.12,2.12,0,0,1-1-1.17,1.59,1.59,0,0,0,.58,1.39,5.36,5.36,0,0,0,1,.54,2.06,2.06,0,0,1,.31.13,1.91,1.91,0,0,1-1.83-.5A2.38,2.38,0,0,1,55.17,53a1.34,1.34,0,0,1,.28-1l.15-.09L10.7,10.84l-.09.08q-1.84.95-2.43.27a1.17,1.17,0,0,1-.22-1,1.15,1.15,0,0,1,.15-.59,2.75,2.75,0,0,0,0,.34,1.69,1.69,0,0,0,.45.93c.26.28.66.26,1.17-.06l.33-.19-.27-.06a2.53,2.53,0,0,1-1.27-.61.83.83,0,0,1-.25-.59v0a6.41,6.41,0,0,1-.9.29,2.79,2.79,0,0,1-1.09.09C5.45,9,5.68,8.55,7,8.31h.07C6.35,8.11,6,7.82,6,7.43a1.38,1.38,0,0,1,.24-.64c.25-.4,1.06-.14,2.45.78a2.83,2.83,0,0,0,.15.86s0,0,0,.05L59.05,54.14c.52-.2,1,.08,1.45.82.6.93.65,1.62.15,2.06-.28.24-.56.2-.85-.12a1.65,1.65,0,0,1-.52-1.21A3,3,0,0,1,58.43,57c-.43.38-.76.42-1,.12s-.11-.84.39-1.64l.49-.69a7,7,0,0,1-1.5-.61m1.53.19-2.25-2.08a1,1,0,0,1,.11.43A6.21,6.21,0,0,0,58,54.26l.36.15m-.45,2.18a2.11,2.11,0,0,0,1-1.81,3.75,3.75,0,0,0-1,1.7ZM59.72,55l-.17-.12a3.91,3.91,0,0,0,.71,1.57A2,2,0,0,0,59.72,55M8.76,9.05l.05-.14a1.16,1.16,0,0,1-.18.22,1,1,0,0,0,.22.47,2.53,2.53,0,0,0,1.3.73ZM7.2,8.86a5,5,0,0,0-.52.32A3.69,3.69,0,0,0,8,8.8H8a1.06,1.06,0,0,0-.75.06M6.69,7.51a1.79,1.79,0,0,0,1.46.42C7.5,7.35,7,7.17,6.59,7.4Z"/><path class="cls-3" d="M29.11,50.62a56.52,56.52,0,0,1-6.63-5.93q-3.56-3.63-6.42-6.76l-1.5-1a21.18,21.18,0,0,1,2.16-2.23c.73-.64,1.51-1.25,2.34-1.85.17.39.36.85.57,1.36,1.4,1.42,3.24,3.33,5.5,5.75s4.56,4.8,6.9,7.12a11.5,11.5,0,0,1,2,.66c-.52.68-1.1,1.44-1.75,2.26s-1.45,1.8-2.15,2.62a3.39,3.39,0,0,1-1-2.05"/></g></svg>