<svg xmlns="http://www.w3.org/2000/svg" viewBox="0 0 66 66"><defs><style>.cls-1{fill:#ad8151;}.cls-1,.cls-2,.cls-3,.cls-4,.cls-5,.cls-6,.cls-7{fill-rule:evenodd;}.cls-2{fill:#5e3e1d;}.cls-3{fill:#754e25;}.cls-4{fill:#936c3a;}.cls-5{fill:#f4bf19;}.cls-6{fill:#e8e9ed;}.cls-7{fill:#f9cd50;}</style></defs><title>Plan de travail 55</title><g id="objet06"><path class="cls-1" d="M14.14,31.37a9.15,9.15,0,0,0,0,1,21.83,21.83,0,0,1-1.67-3.26c.34-.09.72.3,1.16,1.18a10.37,10.37,0,0,1,.5,1M13,30.75c.12.24.53,1.16,1.23,2.78L14.41,35a8.59,8.59,0,0,1-.92-1.86l-.72-1.93a.48.48,0,0,1,.22-.45m1.09,4q.22.42.39.78l.22,1.81a17.53,17.53,0,0,1-1.86-3.85c.19-.31.61.11,1.25,1.26m0,2.26c.23.64.51,1.54.84,2.69a1.8,1.8,0,0,1,0,.22.37.37,0,0,1-.21.06c-.17,0-.5-.61-1-1.9-.64-1.67-1.06-2.7-1.27-3.08a3.37,3.37,0,0,1,1.59,2M15,41.53c0,.33,0,.67,0,1q-.63-1.11-2.21-4.29A12.44,12.44,0,0,1,15,41.53m-2-.8c.13.16.48.7,1,1.63A15.22,15.22,0,0,1,15,44c0,.11,0,.23,0,.34l-.07.18a15.39,15.39,0,0,1-2-3.78ZM11.4,48.54a4.82,4.82,0,0,1,1.81,1.64c.16.25.37.61.63,1.06-.1.25-.21.51-.31.77a11.23,11.23,0,0,1-.95-1.25,20.45,20.45,0,0,0-1.42-1.94Zm2.08,0a10.28,10.28,0,0,1,.83.91c-.06.3-.14.6-.22.89A8.13,8.13,0,0,1,13,49.24c-.54-.81-.95-1.41-1.22-1.79.2-.25.76.1,1.67,1m-1.17-2.92a6.46,6.46,0,0,1,2.31,2.2c0,.29-.09.59-.13.88a9.34,9.34,0,0,1-1-1.2c-.61-.87-1.05-1.46-1.31-1.78Zm2.57,0c0,.23,0,.47-.06.7a10.13,10.13,0,0,1-1.17-1.23c-.65-.74-1.11-1.24-1.37-1.51l0-.43A3.76,3.76,0,0,1,14,44.45a5.85,5.85,0,0,1,.86,1.17m-5,6.72.17,0a17.74,17.74,0,0,1,2.11,2.83l-.43.86c-.77-1.23-1.36-2.25-1.79-3.07Zm.58-1.1A10.5,10.5,0,0,1,12.11,53a9.34,9.34,0,0,1,.65.89c-.12.29-.25.58-.39.86-1-1.38-1.71-2.45-2.23-3.2Zm.61-.93a6.27,6.27,0,0,1,2.3,2.15c-.13.34-.27.68-.42,1l-.71-.93a8.31,8.31,0,0,1-1.33-2c0-.06,0-.1.16-.11Zm.43,6.07c-.18.31-.37.6-.56.89l-1.8-3.73c.45-.1,1,.42,1.71,1.57a10.27,10.27,0,0,1,.65,1.27"/><path class="cls-2" d="M3.48,29.06S3,27.56,5.71,26.65c4.1-1.38,8.77.14,7.14,3S3.48,29.06,3.48,29.06Z"/><path class="cls-3" d="M6.81,28.38c-.64,1.44-2.62.61-3.33.68l.88,4C4.67,34.92,5,38,5.47,42.28q.62,6.09.73,11.56c0,.59,0,1.31,0,2.16l.43,0a7.21,7.21,0,0,1,2.92.14q4.32-5.58,4.13-15.4a115.21,115.21,0,0,0-.59-12.22c-.2-.13-.92.3-1.16-1,0,0,.27-6.19-2.8-6.14S7.7,26.35,6.81,28.38Z"/><path class="cls-4" d="M5.82,33.73a10.88,10.88,0,0,1-.51-2.47l0-.51h.08a34.65,34.65,0,0,1,1.58,7.91A23.85,23.85,0,0,1,7.1,43l-.29-.32-.39-5.52a16.3,16.3,0,0,0-.6-3.41m1.69,9.9c.14.22,0,.35-.56.41L6.77,44l0-.35ZM7.39,45l-.52,0-.1-.16c0-.18.22-.35.73-.51l.1.16Zm-.33,2.81,0-1.21.26,0,.13.51-.06,1.13-.17,0Z"/><path class="cls-3" d="M3,12.06S1.81,6.57,36.06,9.7s26,11.12,26,11.12S4.51,21.21,3,12.06Z"/><path class="cls-4" d="M60.76,27.61Q46.5,26.8,32.68,25.36q-17.94-1.89-29-4.1-.14-4.43-.7-9.2,8.88,1.62,16.29,2.68Q40.8,17.83,63,19c-.57,2.28-1.32,5.14-2.24,8.6"/><path class="cls-5" d="M37.81,15.83l1.12.22-1,7.9c-.18,1.45-.35,2.8-.52,4.07l-12.7-1.17q.24-2.91.52-6.26.35-4.12.61-7l12,2.2"/><path class="cls-6" d="M42.88,26.43a.93.93,0,0,1,.79.35c-.12,0-.17,0-.17.08A3.58,3.58,0,0,1,42.3,29H42a3.74,3.74,0,0,1-.79-2.11v-.08a2.27,2.27,0,0,1,1,0Z"/><path class="cls-1" d="M45.21,18a25.4,25.4,0,0,1-.83,5.39c-.33,1.73-.6,3.13-.81,4.21l-.12.09,0-.22a3.24,3.24,0,0,1-.56.05A4.53,4.53,0,0,1,41,27q0-.12,1.24-8.86c.06-.38.11-.75.17-1.09a1.36,1.36,0,0,1,.85-.22c1.26,0,1.93.37,2,1.09"/><path class="cls-7" d="M45,16.34c.53.29.8.59.82.88a1.2,1.2,0,0,1-1.34,1,3.54,3.54,0,0,1-2.1-.52,1.32,1.32,0,0,1-.56-.88c0-.64.36-1,1.17-1a3.87,3.87,0,0,1,2,.53"/><path class="cls-6" d="M44.69,17c0,.34-.26.52-.84.52s-1.05-.26-1.07-.79c0-.23.18-.35.59-.35.86,0,1.3.21,1.32.62"/><path class="cls-6" d="M22.17,23.66a1,1,0,0,1,.82.27c-.12,0-.17.05-.16.11a3.47,3.47,0,0,1-1,2.2l-.26,0a3.68,3.68,0,0,1-1-2l0-.09a2.31,2.31,0,0,1,1-.09Z"/><path class="cls-1" d="M23.7,15a25.82,25.82,0,0,1-.32,5.45c-.17,1.75-.3,3.17-.41,4.27a.35.35,0,0,0-.11.1,1.55,1.55,0,0,1,0-.22,4.68,4.68,0,0,1-.56.09,4.45,4.45,0,0,1-2-.25q-.06-.11.4-8.94c0-.38,0-.75.07-1.1a1.42,1.42,0,0,1,.83-.3c1.25-.11,1.95.19,2.08.9"/><path class="cls-7" d="M23.35,13.42c.56.24.85.51.9.8A1.2,1.2,0,0,1,23,15.3,3.44,3.44,0,0,1,20.87,15a1.24,1.24,0,0,1-.64-.82c-.09-.63.27-1,1.07-1.06a3.81,3.81,0,0,1,2.05.33"/><path class="cls-6" d="M23.09,14.06c.05.35-.21.55-.79.6s-1.06-.16-1.14-.68c0-.23.15-.37.55-.41.86-.08,1.32.09,1.38.49"/><path class="cls-6" d="M16.68,22.78a1,1,0,0,1,.84.24c-.12,0-.17.05-.16.11a3.53,3.53,0,0,1-.89,2.25l-.26,0a3.73,3.73,0,0,1-1.07-2l0-.08a2.15,2.15,0,0,1,.94-.13Z"/><path class="cls-1" d="M17.82,14.08a25.9,25.9,0,0,1-.08,5.45c-.08,1.76-.15,3.18-.21,4.29l-.11.1c0-.08,0-.15,0-.22a4.88,4.88,0,0,1-.55.12,4.69,4.69,0,0,1-2-.16q-.06-.11,0-8.95c0-.38,0-.75,0-1.1a1.44,1.44,0,0,1,.82-.34c1.25-.17,1.95.1,2.12.81"/><path class="cls-7" d="M17.39,12.5c.57.22.88.47.94.75a1.2,1.2,0,0,1-1.19,1.14A3.55,3.55,0,0,1,15,14.17a1.32,1.32,0,0,1-.67-.79c-.12-.64.22-1,1-1.12a3.84,3.84,0,0,1,2.06.24"/><path class="cls-6" d="M17.16,13.15c.07.35-.18.56-.75.64s-1.08-.11-1.18-.63c0-.23.14-.38.54-.43.85-.12,1.32,0,1.39.42"/><path class="cls-6" d="M11.69,22a1,1,0,0,1,.85.19c-.12,0-.16.06-.15.12a3.47,3.47,0,0,1-.79,2.29l-.25.05a3.73,3.73,0,0,1-1.17-1.92l0-.08a2.28,2.28,0,0,1,.93-.18Z"/><path class="cls-1" d="M12.4,13.23a25.85,25.85,0,0,1,.19,5.45c0,1.76,0,3.18,0,4.29a.47.47,0,0,0-.1.1,1.62,1.62,0,0,1,0-.22,3.06,3.06,0,0,1-.54.15,4.58,4.58,0,0,1-2-.06c0-.07-.19-3-.44-8.93,0-.39,0-.76-.05-1.11a1.54,1.54,0,0,1,.8-.38c1.25-.23,2,0,2.17.71"/><path class="cls-7" d="M11.89,11.67c.58.19.9.43,1,.71a1.2,1.2,0,0,1-1.13,1.2,3.58,3.58,0,0,1-2.16-.12,1.28,1.28,0,0,1-.71-.76q-.22-.94,1-1.17a3.88,3.88,0,0,1,2.07.14"/><path class="cls-6" d="M11.7,12.34c.08.34-.16.56-.73.67s-1.08-.06-1.2-.57c-.06-.23.11-.38.51-.46.85-.16,1.32,0,1.42.36"/><path class="cls-6" d="M7.17,21.15a1,1,0,0,1,.85.14c-.11,0-.15.07-.14.13a3.46,3.46,0,0,1-.63,2.34L7,23.82A3.72,3.72,0,0,1,5.71,22l0-.08a2.19,2.19,0,0,1,.92-.24Z"/><path class="cls-1" d="M7.29,12.38a25.59,25.59,0,0,1,.56,5.43c.12,1.75.21,3.17.28,4.27A.62.62,0,0,0,8,22.2,1.92,1.92,0,0,1,8,22a3.66,3.66,0,0,1-.53.18,4.41,4.41,0,0,1-2,.07q-.08-.09-1-8.88c0-.39-.08-.75-.12-1.1a1.51,1.51,0,0,1,.78-.43c1.22-.31,2-.13,2.2.56"/><path class="cls-7" d="M6.69,10.86c.58.15.92.36,1,.64a1.2,1.2,0,0,1-1,1.27,3.52,3.52,0,0,1-2.16,0,1.3,1.3,0,0,1-.77-.71c-.18-.61.11-1,.89-1.22a3.87,3.87,0,0,1,2.08,0"/><path class="cls-6" d="M6.53,11.53c.11.34-.12.58-.68.72s-1.08,0-1.23-.49c-.07-.22.08-.39.48-.49.83-.21,1.31-.13,1.43.26"/><path class="cls-6" d="M48,26.72a.94.94,0,0,1,.79.35c-.12,0-.18,0-.17.08a3.51,3.51,0,0,1-1.24,2.07h-.26a3.5,3.5,0,0,1-.75-2.07v-.08a2.27,2.27,0,0,1,1,0Z"/><path class="cls-1" d="M50.44,18.41a25.51,25.51,0,0,1-.93,5.29c-.36,1.7-.65,3.08-.88,4.14a1,1,0,0,0-.13.09c0-.08,0-.15,0-.22a3.43,3.43,0,0,1-.56.05,4.64,4.64,0,0,1-2-.43q0-.12,1.41-8.71.09-.57.18-1.08a1.59,1.59,0,0,1,.86-.21c1.26,0,1.92.36,2,1.08"/><path class="cls-7" d="M50.27,16.81c.53.29.8.58.8.86a1.22,1.22,0,0,1-1.35.95,3.48,3.48,0,0,1-2.09-.52,1.21,1.21,0,0,1-.54-.86c0-.63.37-.95,1.18-.95a3.89,3.89,0,0,1,2,.52"/><path class="cls-6" d="M49.94,17.41c0,.35-.27.52-.85.52s-1-.26-1.06-.77c0-.23.2-.35.6-.35.86,0,1.3.2,1.31.6"/><path class="cls-6" d="M52.8,27.17a.93.93,0,0,1,.78.35c-.12,0-.17,0-.17.09a3.58,3.58,0,0,1-1.26,2.07h-.26a3.48,3.48,0,0,1-.73-2.07v-.09a2.27,2.27,0,0,1,1,0Z"/><path class="cls-1" d="M55.38,18.82a26.33,26.33,0,0,1-1,5.32l-.93,4.16-.13.09a2.07,2.07,0,0,0,0-.22,3.36,3.36,0,0,1-.56,0,4.45,4.45,0,0,1-2-.43c0-.08.47-3,1.49-8.75.07-.38.14-.74.2-1.08a1.5,1.5,0,0,1,.86-.22c1.27,0,1.92.37,2,1.09"/><path class="cls-7" d="M55.22,17.21c.52.29.79.58.79.87a1.24,1.24,0,0,1-1.37,1,3.45,3.45,0,0,1-2.08-.52,1.2,1.2,0,0,1-.53-.86c0-.64.39-1,1.19-1a3.89,3.89,0,0,1,2,.52"/><path class="cls-6" d="M54.88,17.82c0,.35-.28.52-.85.52s-1-.26-1.05-.78c0-.23.19-.35.6-.35.86,0,1.3.21,1.3.61"/><path class="cls-6" d="M57.91,27.48a.93.93,0,0,1,.78.35c-.11,0-.17,0-.17.08A3.57,3.57,0,0,1,57.28,30H57a3.43,3.43,0,0,1-.74-2.08v-.08a2.28,2.28,0,0,1,.95,0Z"/><path class="cls-1" d="M60.43,19.13a25.87,25.87,0,0,1-1,5.32c-.36,1.7-.66,3.09-.89,4.16l-.13.08c0-.07,0-.14,0-.21a3.36,3.36,0,0,1-.56,0,4.42,4.42,0,0,1-2-.43c0-.07.44-3,1.43-8.74.06-.38.12-.74.19-1.08a1.45,1.45,0,0,1,.85-.22c1.27,0,1.92.37,2,1.08"/><path class="cls-7" d="M60.26,17.53c.52.29.79.58.8.87a1.24,1.24,0,0,1-1.36,1,3.46,3.46,0,0,1-2.09-.52,1.24,1.24,0,0,1-.54-.87c0-.63.38-.95,1.19-.95a4,4,0,0,1,2,.52"/><path class="cls-6" d="M59.92,18.14c0,.34-.27.52-.85.52s-1-.26-1-.78c0-.23.19-.35.59-.35.87,0,1.3.2,1.31.61"/></g></svg>