<svg xmlns="http://www.w3.org/2000/svg" xmlns:xlink="http://www.w3.org/1999/xlink" viewBox="0 0 66 66"><defs><style>.cls-1{fill:none;clip-rule:evenodd;}.cls-2{fill:#bdc7d6;}.cls-10,.cls-2,.cls-5,.cls-6,.cls-7,.cls-8,.cls-9{fill-rule:evenodd;}.cls-3{clip-path:url(#clip-path);}.cls-10,.cls-4{opacity:0.5;}.cls-10,.cls-5{fill:#fff;}.cls-6{fill:#e4eaef;}.cls-7{fill:#939fb2;}.cls-8{fill:#f8b334;}.cls-9{fill:#917b5d;}</style><clipPath id="clip-path"><path class="cls-1" d="M17.33,2.78l.42-.51q5.73,7.7,22,29.54-.28.48-.6,1c-.31.52-.62,1.09-.92,1.7-1.88,3.19-3.24,5.42-4.09,6.67a24.19,24.19,0,0,1-9-1.69,18.56,18.56,0,0,1-2.59-1.22,3.43,3.43,0,0,0,.12-1.43,3.45,3.45,0,0,0-.9-2.38c-.31-.29-.56-.37-.76-.26s-.39.33-.47.38a3.88,3.88,0,0,0-.31.26A4.21,4.21,0,0,0,19,32.89a1.6,1.6,0,0,0-.88-.49,1.67,1.67,0,0,0-.69.35A2.38,2.38,0,0,0,16.71,34l0,0q-4.86-5.7-6-10.59Q8.25,13.91,17.33,2.78Z"/></clipPath></defs><title>Plan de travail 1</title><g id="objet03"><path class="cls-2" d="M17.33,2.78l.42-.51q5.73,7.7,22,29.54-.28.48-.6,1c-.31.52-.62,1.09-.92,1.7-1.88,3.19-3.24,5.42-4.09,6.67a24.19,24.19,0,0,1-9-1.69,18.56,18.56,0,0,1-2.59-1.22,3.43,3.43,0,0,0,.12-1.43,3.45,3.45,0,0,0-.9-2.38c-.31-.29-.56-.37-.76-.26s-.39.33-.47.38a3.88,3.88,0,0,0-.31.26A4.21,4.21,0,0,0,19,32.89a1.6,1.6,0,0,0-.88-.49,1.67,1.67,0,0,0-.69.35A2.38,2.38,0,0,0,16.71,34l0,0q-4.86-5.7-6-10.59Q8.25,13.91,17.33,2.78Z"/><g class="cls-3"><g class="cls-4"><path class="cls-5" d="M22.3,4.84c.65.51,1.22,1,1.73,1.39l0,0c.73.61,1.32,1.07,1.76,1.38l.52.43c.07.22.15.45.22.68q3.06,9.43,2.34,12.54c-.5,2.06-2.37,4.14-5.63,6.22s-4.43,4.66-3.55,7.76a34.42,34.42,0,0,0,2,5.77,70.75,70.75,0,0,1-9.79-7.76c-1.25-4.56-.74-8.31,1.54-11.22a5.42,5.42,0,0,1,3.74-1.2,5.76,5.76,0,0,0,3.25-.9,1.26,1.26,0,0,0,.57-.29,1.94,1.94,0,0,0,.33-.44Q24.84,15.66,22.3,4.84Z"/></g></g><path class="cls-6" d="M12.79,12.36a17.08,17.08,0,0,0-.63,4.43,23.09,23.09,0,0,0,.42,4.3,14.8,14.8,0,0,0,2.57,5.34,40.93,40.93,0,0,0,4.29,5.32A28.31,28.31,0,0,0,26.84,37a67.11,67.11,0,0,0,7.92,3.26c-.22.34-.41.63-.59.89a24.19,24.19,0,0,1-9-1.69,18.56,18.56,0,0,1-2.59-1.22,3.43,3.43,0,0,0,.12-1.43,3.45,3.45,0,0,0-.9-2.38c-.31-.29-.56-.37-.76-.26s-.39.33-.47.38a3.88,3.88,0,0,0-.31.26A4.21,4.21,0,0,0,19,32.89a1.6,1.6,0,0,0-.88-.49,1.67,1.67,0,0,0-.69.35A2.38,2.38,0,0,0,16.71,34l0,0q-4.86-5.7-6-10.59Q8.26,14,17.2,3c-.41.7-.85,1.47-1.31,2.31A34.66,34.66,0,0,0,12.79,12.36Z"/><path class="cls-7" d="M34.61,28.51c-2.17-2.24-4.6-4.77-7.26-7.61q-5.72-6.1-6.81-10.77,1.29,1.72,3.57,4.7Q32.21,25.42,34.61,28.51Z"/><path class="cls-8" d="M35.1,48.08c0,.21,0,.44-.06.67q-.45,6.3,2.6,9.42a7.68,7.68,0,0,0,4,2.24,7,7,0,0,0,5.65-1.36,8.78,8.78,0,0,0,1.64-1.11c.5-.59.9-1.08,1.22-1.47l1.13,1.17.21.21a6.18,6.18,0,0,1-.91,1.63,7.7,7.7,0,0,1-.8,1q-4.31,4.22-9.1,3a11.23,11.23,0,0,1-5-2.79q-2.31-2.13-2.39-7.41c-.06-3.38.2-5.64.76-6.79.45.15.82.28,1.11.41C35.15,47.31,35.12,47.7,35.1,48.08Z"/><path class="cls-9" d="M37.51,43.64A11.62,11.62,0,0,0,40,40.12l.3,0,11.38,11.8Q52.75,53,55,55l-.07.13a29.11,29.11,0,0,1-1.84,2.36l-1.5,1.31-1.88-2.07C48.16,55,47.23,54,46.88,53.6,46.71,53.41,37.68,43.81,37.51,43.64Z"/><path class="cls-8" d="M52,59.45a4.45,4.45,0,0,1-1.23-.59A29.84,29.84,0,0,0,55.26,54a10.34,10.34,0,0,1,.52,1.37c.24.84-.14,1.81-1.13,2.9S52.79,59.75,52,59.45Z"/><path class="cls-8" d="M41.46,31.32a10.74,10.74,0,0,1,5.26,4.56q-2.19,2.19-3.45,3.42Q41.43,41.1,36,47.52l-1.72,2.06a9.16,9.16,0,0,1-3.14-6.3c-.12-2.36,1.24-5.2,3.48-8.1S39.43,30.59,41.46,31.32Z"/><path class="cls-10" d="M32.6,40.19a3.83,3.83,0,0,0-.78,3.44c.55,1.36,2.55-.26,2.29-2.12S33,39.69,32.6,40.19Z"/><path class="cls-10" d="M32.2,43.5a1.21,1.21,0,0,0-.59,1.5c.31.81,1.66.45,1.6-.6S32.53,43.27,32.2,43.5Z"/><path class="cls-10" d="M34.56,56.6c-.27.19-.72.76-.05,1.88.52.87,1.41.76,1.36-.09S34.82,56.42,34.56,56.6Z"/></g></svg>