<svg xmlns="http://www.w3.org/2000/svg" viewBox="0 0 66 66"><defs><style>.cls-1{fill:#ce9f1b;}.cls-1,.cls-2{fill-rule:evenodd;}.cls-2{fill:#f4bf19;}</style></defs><title>Plan de travail 45</title><g id="objet05"><path class="cls-1" d="M9.43,24.78c-.06-.73-.08-1.15-.07-1.25.1-1.76.93-2.54,2.48-2.34A2.15,2.15,0,0,1,14,23.66c-.11,1.75-1,2.59-2.65,2.48a1.92,1.92,0,0,1-1.94-1.36m5.23-1.39a1.55,1.55,0,0,1,.81-.42l14,2.27q2.74-9.18,4-11.28,2.64-5,4.95-1.8c.57,6.86.82,12,.76,15.32q13.86,5,13.47,7.68-.9,1.73-14.11,2.79Q43.22,47.58,43,51.77c-.14,2.28-.94,3.37-2.39,3.28q-1.86-.12-7.06-6.67L28.64,41.7q-15.12,5.55-15.79,3.38l0-.31q.12-1.86,4.42-6c1.54-1.46,3.58-3.31,6.1-5.54A48.87,48.87,0,0,0,17.73,29q-3.57-2.57-3.46-4.42a1.79,1.79,0,0,1,.39-1.22M37.73,10.48a2.53,2.53,0,0,1-2.41-1.39,2.3,2.3,0,0,1-.23-1.26c.09-1.45,1.12-2.12,3.08-2,1.76.11,2.59.89,2.5,2.33q-.15,2.49-2.94,2.31M53.36,37.31A2.25,2.25,0,0,1,53.13,36c.08-1.44,1.08-2.32,3-2.61s2.61.62,2.5,2.48a3.38,3.38,0,0,1-.88,1.66,2.7,2.7,0,0,1-2.25,1.11,2.22,2.22,0,0,1-2.1-1.37m-13,21.31c.1-1.55,1.08-2.27,2.94-2.15,1.66.09,2.44.92,2.34,2.47-.11,1.76-.94,2.6-2.49,2.5A2.73,2.73,0,0,1,40.74,60a2.81,2.81,0,0,1-.38-1.42M8.17,47.75,8,46.34c.12-2,.94-2.75,2.48-2.34a2.39,2.39,0,0,1,2.16,2.78q-.16,2.64-2.49,2.49a2.1,2.1,0,0,1-1.93-1.52"/><path class="cls-2" d="M8.89,23.51c-.06-.73-.08-1.15-.08-1.25.11-1.76.94-2.54,2.48-2.34s2.28,1,2.19,2.47c-.11,1.76-1,2.59-2.65,2.49a1.94,1.94,0,0,1-1.94-1.37m5.23-1.39a1.56,1.56,0,0,1,.8-.42L29,24q2.75-9.18,4-11.28,2.64-5,4.94-1.8.87,10.29.77,15.32,13.86,5,13.46,7.68-.89,1.74-14.1,2.79,4.69,9.63,4.44,13.82c-.15,2.28-.94,3.37-2.39,3.28q-1.86-.12-7.06-6.67l-4.89-6.68Q13,46,12.31,43.81l0-.31c.07-1.24,1.55-3.22,4.42-6,1.54-1.46,3.58-3.3,6.1-5.53a48.11,48.11,0,0,0-5.66-4.25c-2.38-1.71-3.54-3.18-3.46-4.42a1.79,1.79,0,0,1,.39-1.22M37.19,9.21a2.51,2.51,0,0,1-2.41-1.39,2.2,2.2,0,0,1-.23-1.26c.09-1.45,1.12-2.11,3.08-2,1.76.11,2.59.89,2.5,2.33Q40,9.39,37.19,9.21M52.82,36a2.25,2.25,0,0,1-.24-1.27c.09-1.44,1.08-2.32,3-2.61s2.61.62,2.5,2.48a3.33,3.33,0,0,1-.89,1.66,2.69,2.69,0,0,1-2.25,1.11A2.22,2.22,0,0,1,52.82,36m-13,21.31c.1-1.55,1.08-2.27,2.93-2.15,1.66.1,2.44.93,2.35,2.47-.11,1.76-.94,2.6-2.49,2.5a2.81,2.81,0,0,1-2.79-2.82M7.63,46.48,7.4,45.07q.18-3,2.48-2.34a2.4,2.4,0,0,1,2.17,2.78Q11.88,48.15,9.56,48a2.07,2.07,0,0,1-1.93-1.52"/></g></svg>