<svg id="objet01" xmlns="http://www.w3.org/2000/svg" viewBox="0 0 66 66"><defs><style>.cls-1{fill:#b6c5d3;}.cls-1,.cls-2{fill-rule:evenodd;}.cls-2{fill:#d7dee2;}</style></defs><title>Plan de travail 10</title><path class="cls-1" d="M8.65,9.42l.26.26,30,32.58a2,2,0,0,1-.3,1c-.71.26-1.06.6-1,1Q10.51,13.36,3.76,5.76c.19-.24.38-.46.57-.67L8.65,9.42"/><path class="cls-1" d="M40.67,47.11S47,55,54.12,59.24l2-2.85s-6.91-8.33-13-11C41,44.41,40.67,47.11,40.67,47.11Z"/><path class="cls-2" d="M56.55,54S54,59.34,51.3,60.5c0,0,3.24,4.12,6.3,0S59,54.91,56.55,54Z"/><path class="cls-2" d="M47.37,37.3s4.17,3.1,7.26,3.29c3.35.2,11.36,12,1.73,14.8L58.09,57s8.46-5.46,4.09-12.7C57.52,36.57,54.8,42.12,47.37,37.3Z"/><path class="cls-2" d="M42.27,34.62q3.43-.61,9,4.38-.6.7-3.39,4.24c-1.72,2.21-3.33,4.16-4.86,5.86q-5.22,5.35-9.2,9.65l-2.6-3a8.82,8.82,0,0,1-1.81-8.29,17.32,17.32,0,0,1,4.8-8.24,15,15,0,0,1,8-4.56"/><path class="cls-2" d="M3.57,6.81,3,6.3a1.38,1.38,0,0,1,.13-2c.66-.72,1.26-.77,1.81-.15a2.42,2.42,0,0,1,.27,1.14c.06.69,0,1.14-.29,1.36a1.18,1.18,0,0,1-1.31.21"/></svg>