<svg xmlns="http://www.w3.org/2000/svg" viewBox="0 0 66 66"><defs><style>.cls-1{fill:#3f3e3d;}.cls-1,.cls-2,.cls-3,.cls-4{fill-rule:evenodd;}.cls-2{fill:#6d6154;}.cls-3{fill:#514439;}.cls-4{fill:#d7dee2;}</style></defs><title>Plan de travail 60</title><g id="objet06"><path class="cls-1" d="M30.6,42.42h0l.18,0h.1c.89.15,1.7.27,2.42.37a28.57,28.57,0,0,0,4.11.36h.12l-.12-2.36H37v.06l-.13-.06H34.35c-1-.15-1.75-.3-2.39-.45s-1-.19-1.36-.28a9,9,0,0,1-1.69-.51c0,.38.11.81.18,1.3,0,.23.06.49.09.79a1.8,1.8,0,0,0,.58.48l.75.25.09,0"/><path class="cls-2" d="M37.2,17.76a16.05,16.05,0,0,0-6.05-1c-1.41,0-2.29.28-2.63.85s-.26,1.82.3,3.75A28.12,28.12,0,0,0,31.21,27a5.26,5.26,0,0,1,.06,5.41A22.46,22.46,0,0,0,29,39.66c.14.86,1.25,1.39,3.33,1.57,4.43.37,7.32.69,8.65,1,1.53.53,3.19,1,5,1.46a47,47,0,0,0,10.59,1.21,48.11,48.11,0,0,0,4.9-.19q.12-.3.24-.54c.16-.48.77-1.9,1.82-4.24-.49-.2-1.74-.6-3.75-1.21a38.26,38.26,0,0,1-8.35-4,25.83,25.83,0,0,1-3.09-3.57,16.3,16.3,0,0,1,4.24-2.66A5.5,5.5,0,0,0,55.47,26c.53-1.09-.55-1.75-3.15-2.3C46.76,22.51,39.91,18.84,37.2,17.76Z"/><path class="cls-3" d="M53.87,24.72a7.66,7.66,0,0,0-1-.43l0,.06a1,1,0,0,1-.91.49q-1.4,0-5.32-1.76c-.92-.41-6.27-2.6-6.27-2.6-.47-.19-1.09-.45-1.84-.78a14.17,14.17,0,0,0-4.84-1.34,4.22,4.22,0,0,0-1.39.37c-.14,0-.4-.49-.79-1.45a5.75,5.75,0,0,0-.67.72c-.13.2.24.73,1.12,1.57a8.43,8.43,0,0,0,3.85,1.91c1.68.43,2.92.78,3.72,1a25.71,25.71,0,0,0,4.08,1.24h0l.23,0h0q2.41.48,5.55,1Q55.24,25.52,53.87,24.72Z"/><path class="cls-1" d="M28.91,38.87a2.8,2.8,0,0,0,2.53,1.73c2.11.26,8,.26,10.31.77s7.35,2.37,10.55,2.71a43.36,43.36,0,0,0,10.24-.26l-.42,1a45.33,45.33,0,0,1-10.4,0c-8.54-1.32-9.1-2.31-11.82-2.68s-8.43-.07-9.7-.82a2.31,2.31,0,0,1-1.29-1.8Z"/><path class="cls-4" d="M44.64,35.06c.36.89.73,1.34,1.09,1.34a11.07,11.07,0,0,0,3.93-.85c1.37-.53,2.06-.93,2.06-1.21a20.42,20.42,0,0,0-.85-1.94c-.56-1.29-1-1.93-1.21-1.93a7.24,7.24,0,0,0-4.35,1.08,2.2,2.2,0,0,0-1.09,1.76,5.6,5.6,0,0,0,.42,1.75"/><path class="cls-2" d="M46.21,34.46a1.46,1.46,0,0,0,1.15.36,3,3,0,0,0,2.24-.6,1.57,1.57,0,0,0,.24-1c0-.81-.5-1.21-1.51-1.21a2.24,2.24,0,0,0-1.88.78,1.58,1.58,0,0,0-.36.91,1.69,1.69,0,0,0,.12.73"/><path class="cls-1" d="M4.78,46.5h0l.18,0h.09c.9.15,1.71.27,2.42.37a28.69,28.69,0,0,0,4.11.36h.13l-.13-2.36h-.48V45L11,44.9H8.53c-1-.15-1.76-.3-2.39-.45s-1-.19-1.36-.28a10,10,0,0,1-1.7-.51c0,.38.11.81.19,1.3,0,.23,0,.49.09.79a1.66,1.66,0,0,0,.57.48l.76.24.09,0"/><path class="cls-2" d="M11.37,21.85a16,16,0,0,0-6-1c-1.41,0-2.28.28-2.63.85s-.25,1.82.3,3.75a29.57,29.57,0,0,0,2.39,5.69,5.26,5.26,0,0,1,.06,5.41A22.71,22.71,0,0,0,3.2,43.75c.15.86,1.26,1.39,3.33,1.57q6.66.55,8.65,1c1.54.53,3.19,1,5,1.45A46.28,46.28,0,0,0,30.73,49a48.62,48.62,0,0,0,4.9-.18c.09-.2.17-.38.25-.54q.24-.73,1.81-4.24c-.48-.2-1.73-.6-3.75-1.21a38.26,38.26,0,0,1-8.35-4,26.9,26.9,0,0,1-3.08-3.57,16.43,16.43,0,0,1,4.23-2.66,5.46,5.46,0,0,0,2.9-2.48c.53-1.09-.54-1.75-3.14-2.3C20.94,26.6,14.09,22.93,11.37,21.85Z"/><path class="cls-3" d="M28,28.81a7.14,7.14,0,0,0-1-.43s0,0,0,.06a1,1,0,0,1-.91.49c-.92,0-2.7-.59-5.32-1.76-.91-.41-6.26-2.6-6.26-2.6-.48-.19-1.09-.46-1.85-.79A14.27,14.27,0,0,0,7.8,22.45a4,4,0,0,0-1.39.37c-.14,0-.4-.49-.79-1.46a6.25,6.25,0,0,0-.66.73c-.14.2.23.72,1.12,1.57a8.44,8.44,0,0,0,3.84,1.91c1.68.43,2.92.78,3.72,1a25.43,25.43,0,0,0,4.09,1.23h0l.22,0h0c1.61.32,3.45.66,5.54,1Q29.41,29.6,28,28.81Z"/><path class="cls-1" d="M3.08,43a2.8,2.8,0,0,0,2.53,1.74c2.11.26,8,.26,10.32.77s7.34,2.36,10.54,2.71a43.36,43.36,0,0,0,10.24-.26l-.42,1a45.33,45.33,0,0,1-10.4,0c-8.53-1.31-9.1-2.3-11.82-2.67s-8.42-.07-9.7-.82a2.34,2.34,0,0,1-1.29-1.8Z"/><path class="cls-4" d="M18.81,39.15c.37.89.73,1.33,1.09,1.33a11.13,11.13,0,0,0,3.94-.84c1.37-.53,2.05-.93,2.05-1.21a20.3,20.3,0,0,0-.84-1.94c-.57-1.29-1-1.94-1.21-1.94a7.27,7.27,0,0,0-4.36,1.09,2.2,2.2,0,0,0-1.09,1.76,5.6,5.6,0,0,0,.42,1.75"/><path class="cls-2" d="M20.39,38.55a1.45,1.45,0,0,0,1.15.36,3.07,3.07,0,0,0,2.24-.6,1.59,1.59,0,0,0,.24-1c0-.81-.51-1.21-1.52-1.21a2.22,2.22,0,0,0-1.87.78,1.58,1.58,0,0,0-.36.91,1.72,1.72,0,0,0,.12.73"/></g></svg>