<svg xmlns="http://www.w3.org/2000/svg" viewBox="0 0 66 66"><defs><style>.cls-1{fill:#d2d3db;}.cls-1,.cls-2,.cls-3,.cls-4,.cls-5,.cls-6{fill-rule:evenodd;}.cls-2{fill:#b8bfe0;}.cls-3{fill:#8e9abc;}.cls-4{fill:#7680a5;}.cls-5{fill:#516089;}.cls-6{fill:#3b4c72;}</style></defs><title>Plan de travail 48</title><g id="objet05"><path class="cls-1" d="M20.74,30.87a32.19,32.19,0,0,1,1,4.15,57.93,57.93,0,0,0,2.2,7.08l-4.39-1.26c-1.54-.49-2.79-.88-3.77-1.17-1.28-1.7-2.42-3.26-3.42-4.7-.54-.84-1-1.52-1.31-2,2.47-.49,5-1,7.57-1.52.82-.21,1.54-.39,2.16-.53"/><path class="cls-2" d="M15.74,39.79c-.48-.7-.89-1.27-1.23-1.7A4.36,4.36,0,0,1,17,38q2,.33,6.75,3.83a1.66,1.66,0,0,0,.15.33c-1.52-.41-3-.81-4.36-1.2-1.56-.45-2.83-.83-3.83-1.14M11,32.92c2.28-.41,4.64-.9,7.1-1.46a1.5,1.5,0,0,0,.32-.09c.92-.19,1.69-.38,2.31-.56.25.73.65,2.37,1.2,4.94a31.37,31.37,0,0,0,.82,3q-1.14-2-2.66-4.35c-.24-.39-.47-.75-.7-1.08-.57.15-1.17.3-1.82.44a4.5,4.5,0,0,1-3.39,1.49A3.51,3.51,0,0,1,13,34.88c-.28-.14-.54-.29-.79-.44s-.27-.34-.38-.5c-.3-.37-.56-.71-.79-1"/><path class="cls-3" d="M14.87,35.52s0,0,.05,0a.72.72,0,0,1,.47.26l-.14.15-.15,0a.49.49,0,0,1-.29-.12Zm6,3.92c0-.14.13-.22.35-.24s.27.07.23.27,0,.1-.12.14a.25.25,0,0,1-.26.12.21.21,0,0,1-.2-.29m-2.75-2.08h-.23a1.46,1.46,0,0,1-.41-.26l.11-.15c.24,0,.38,0,.44.09a1.44,1.44,0,0,0,.09.2Zm-.2-1.08,0,.2-.05.15a.57.57,0,0,1-.33-.12l0-.2Zm2.36-.76,0,.18-.23.11-.23-.2v-.12c.13-.17.24-.24.32-.2s.09.07.17.23m.56.09-.21.41-.23-.12a1.23,1.23,0,0,1,.32-.44Zm.38.29,0,.15c0,.13-.15.25-.38.35l0-.06a5,5,0,0,1,.35-.44Zm-5.09-1.17c0,.24-.19.33-.47.29a.45.45,0,0,1-.23-.2.54.54,0,0,1-.09-.26c0-.2.19-.29.44-.27s.39.19.35.44"/><path class="cls-4" d="M12.7,45.08a7.55,7.55,0,0,1-3-2.49l5.35-3h.06a36.49,36.49,0,0,1,5.14,1.08,15.13,15.13,0,0,1,4.85,1.87c-1.42.35-3.39.77-5.93,1.26s-4.73.93-6.43,1.23"/><path class="cls-5" d="M23.37,43c-1.17.26-2.58.55-4.24.88-.82.18-1.59.33-2.34.47l-4.09.76a10.44,10.44,0,0,1-1.9-1.26,5.49,5.49,0,0,1-1.14-1.23l1-.55a18.9,18.9,0,0,1,2.77.76l.59.23c.95-.25,1.95-.51,3-.76l2.86-.7c-.7-.27-1.48-.56-2.34-.85-1.07-.37-2-.67-2.83-.9l.29-.18h.06a36.49,36.49,0,0,1,5.14,1.08l1.41.41a10,10,0,0,1,3.44,1.46c-.48.12-1,.25-1.69.38"/><path class="cls-6" d="M15.48,42.24a.92.92,0,0,1,.61.27l-.17.11a1,1,0,0,1-.21-.11,1.69,1.69,0,0,1-.29-.21Zm.12-.76.14,0a.24.24,0,0,1-.06.18H15.6Zm-1.08-.2q-.09,0-.09-.09a.61.61,0,0,1,.55-.32,1.54,1.54,0,0,1-.46.41m0,1.14V42.3a0,0,0,0,0,.06,0,4,4,0,0,1,.79.21c.35.09.53.22.53.38s0,.18-.06.08c-.88-.15-1.32-.34-1.32-.55m7.19-.09a.51.51,0,0,1-.38,0,.34.34,0,0,1,.18-.29,1.94,1.94,0,0,0,.2.32M19.89,42q0,.23,0,.09a.72.72,0,0,1-.35.08.22.22,0,0,1-.26-.17l0-.09a.62.62,0,0,1,.47-.09.2.2,0,0,1,.14.18"/><path class="cls-4" d="M3,45.4c0-.25,1-.74,3.07-1.46,2.4-.76,3.94-1.29,4.65-1.58l.4,0,.18.09a12.1,12.1,0,0,1,1.43.76,11,11,0,0,1,1.81,1.52c-3.13.48-5.94.87-8.41,1.17L4,46c-.64,0-1-.22-1-.61"/><path class="cls-5" d="M3.35,45.9l-.06-.12q4.25-.7,6.7-1.23a18.23,18.23,0,0,0,3.36-.91,8.57,8.57,0,0,1,1.19,1.06c-3.13.48-5.94.87-8.41,1.17L4,46a1.51,1.51,0,0,1-.61-.11"/><path class="cls-6" d="M6.57,44.78H6.21v-.14a1.7,1.7,0,0,1,.41,0Zm.35-.7,0,0a1.47,1.47,0,0,1,.85.15,3,3,0,0,0,.59.38v.09l-.35-.09,0,0a.7.7,0,0,1,.2.41.26.26,0,0,1-.15.23,5.53,5.53,0,0,1-.52-.85v0a4,4,0,0,0-.7-.3m1,0L8,44a1.56,1.56,0,0,1,.35.23,4.44,4.44,0,0,1,.29.35c-.06,0-.16-.08-.29-.23A1,1,0,0,0,8,44.08M9.72,44l.06.08-.09.09-.14-.09A.25.25,0,0,1,9.72,44m2.19.2a.89.89,0,0,1-.55-.5c.41.06.61.2.61.41s0,.19-.06.09m-1.17-.06a.75.75,0,0,0,0-.17.25.25,0,0,1,.24.11l.09.15c0,.16,0,.19-.06.12q-.3-.06-.3-.21M5.25,45.28l-.18.12-.17-.18.17-.17c.12.1.18.17.18.23"/><path class="cls-4" d="M20.89,41.63a1.34,1.34,0,0,1-.33-.85c0-1,.55-1.49,1.64-1.43s1.64.6,1.64,1.64a1.78,1.78,0,0,1-.09.7c-.21.37-.68.55-1.4.55a1.7,1.7,0,0,1-1.46-.61"/><path class="cls-5" d="M21.79,39.35h.41c1.09.06,1.64.6,1.64,1.64a1.78,1.78,0,0,1-.09.7c-.21.37-.68.55-1.4.55a2.42,2.42,0,0,1-1-.2l.53,0A1.19,1.19,0,0,0,23,41.54a1.14,1.14,0,0,0,.18-.61,1.55,1.55,0,0,0-1.35-1.58"/><path class="cls-6" d="M22.41,41.45l0-.17a.55.55,0,0,1,.36.17l0,.09a.86.86,0,0,1-.35-.09m-.18.3a2,2,0,0,1-.32-.36c.31,0,.52.08.61.24l0,.09Zm.12-1.23c.17,0,.26,0,.26.14s-.11.09-.26.09l-.09-.09Z"/><path class="cls-1" d="M19.19,24c2.34-2.33,4-3.94,5.06-4.82a2.21,2.21,0,0,1,.73,0,6.22,6.22,0,0,1,3.36,2.05,5.9,5.9,0,0,1,1.46,2c-1.05.7-2.67,1.93-4.85,3.71-2.4,2-4.05,3.28-5,3.94a33.23,33.23,0,0,1-5.7-2c.66-.61,2.3-2.21,4.91-4.83"/><path class="cls-2" d="M24.25,19.21a2.21,2.21,0,0,1,.73,0,6.22,6.22,0,0,1,3.36,2.05,5.9,5.9,0,0,1,1.46,2c-.91.6-2.23,1.6-4,3l-.87.7c-1.15.94-2.13,1.74-2.94,2.38s-1.55,1.22-2,1.56a33.23,33.23,0,0,1-5.7-2c.33-.3.89-.84,1.68-1.61.44.1.92.21,1.45.35.76.19,1.46.4,2.09.61.71-.45,1.61-1.06,2.7-1.84s2-1.46,2.72-2a9,9,0,0,1-1.48-4.43q.45-.42.81-.72"/><path class="cls-3" d="M16.74,27.63c0-.06.07-.15.23-.26a.93.93,0,0,1,.32-.21l.06,0a6,6,0,0,1-.56.59.25.25,0,0,1-.05-.15m1.08-.09-.06.06-.06,0v-.15h.09Zm-.59.29,0-.17c0-.24.1-.36.3-.38l0,.06a.84.84,0,0,1-.24.49Zm7.28-3.56,0-.15.23,0,.06.09-.06.09Zm-.61-2.13a1.06,1.06,0,0,1-.3.14c-.11,0-.17,0-.17-.12s.1-.16.29-.26.35-.15.47-.09l0,.06a.83.83,0,0,1-.32.27m-.41-.36,0-.08c0-.16.1-.22.29-.18l0,.06a.34.34,0,0,1-.29.2m-3.63,4c-.06.08-.1.12-.14.12h-.29l0-.09a.25.25,0,0,1,.11-.21v0l-.14.12h-.09s0,0,0-.06a.52.52,0,0,0,.09-.29l-.09,0c-.1,0-.21.08-.32.23l0-.05a.25.25,0,0,1,.26-.27q.27,0,.24.3l.05-.06.18,0,0,.2.23,0Zm2.46-.56,0-.14.14,0h.18a.23.23,0,0,0,0,.09l0,.08-.15,0Zm.26.5h-.2l-.06-.09c0-.08.11-.1.26-.09l0,.09Zm-1.11,1.61a.38.38,0,0,1,.12.29.33.33,0,0,1-.24.2l0,0v-.44Zm.44.49q0,.09-.18.21l-.11,0s0-.07.11-.15.13-.11.15-.11Zm0,.38a.24.24,0,0,1,.2-.23.12.12,0,0,1,0,.09c0,.08-.07.13-.23.14"/><path class="cls-4" d="M47.61,20.18A30.61,30.61,0,0,1,40.91,27Q39.38,28.15,38,29.12a50.28,50.28,0,0,1-7.41-1.2c-1-.23-1.85-.47-2.65-.73l-.27-.41a30.59,30.59,0,0,1-4.83-10.47q8.36.9,18.59,2.76l6.18,1.11"/><path class="cls-5" d="M39.75,27.85c-.6.45-1.19.87-1.75,1.27a50.28,50.28,0,0,1-7.41-1.2c-1-.23-1.85-.47-2.65-.73l-.27-.41a39.28,39.28,0,0,1-2.5-4.21c.48.22,1,.44,1.56.68Q31.7,25.34,37,27a36.61,36.61,0,0,0,5.16-4.72c.85-.91,1.61-1.81,2.3-2.7l3.12.57A30.61,30.61,0,0,1,40.91,27l-1.16.89"/><path class="cls-6" d="M30.79,17.25a1,1,0,0,0,.06.24.46.46,0,0,1,0,.2.31.31,0,0,0-.11.09c-.2-.1-.3-.19-.3-.29s.13-.25.38-.24m-1,.41a.31.31,0,0,1-.18-.26v-.18H30v.36a.29.29,0,0,1-.18.08m6.9,2.9a.31.31,0,0,1,0-.18c0-.17.1-.28.32-.32l.09,0a.24.24,0,0,1,0,.15c0,.15-.1.26-.3.32Zm4.12,1.93a.38.38,0,0,1,.06.43s0,0-.18,0-.29-.15-.29-.46c.15-.16.29-.16.41,0m-.65-.15a1,1,0,0,1,0,.23l-.15.09-.18-.14a.56.56,0,0,1,0-.21.47.47,0,0,1,0-.17h.33a1.91,1.91,0,0,0,0,.2M41,22s0,0,0,0c.35.49.67,1,1,1.36h0a.31.31,0,0,1-.18,0c-.17,0-.37-.21-.58-.64a2.25,2.25,0,0,1-.27-.67Q41,22,41,22Zm-8.84,5.2c0,.12,0,.27.08.44a.78.78,0,0,0,.27.44s0,.07-.09.09l-.35-.47v-.5Zm-.44-.29c0,.08.15.5.35,1.26l-.09.05a.94.94,0,0,1-.23-.46,1.58,1.58,0,0,1-.12-.47l0-.38Zm.93.2a.09.09,0,0,1,0,.06.51.51,0,0,1,.32.32q0,.12.06.3c0,.06,0,.08-.11.08a.89.89,0,0,1-.33-.64q0-.12,0-.12m-7.33-8.62-.09-.06c.31-.31.5-.4.56-.29Zm-.47,1.23a.24.24,0,0,1,0,.15,4.5,4.5,0,0,1-.35.46c-.06.08-.09.05-.09-.08A.57.57,0,0,1,24.6,20c.1-.15.17-.24.23-.26Zm-.15-.09v.12l-.32.09,0,0,.21-.15c.06,0,.11-.05.14,0m-.08,1c.29-.53.59-.73.9-.62a2.21,2.21,0,0,1-.82.65Zm2.8,2v.11A2.64,2.64,0,0,1,27,23.71s-.08-.13-.08-.29a1.75,1.75,0,0,1,.14-.5c.12-.25.22-.4.3-.43s0,0,.08,0m.62.84s0,0,0,.12a.57.57,0,0,1-.12.41l-.06,0a.4.4,0,0,1,0-.21,1.33,1.33,0,0,0,.09-.35Zm-.41-.08a1.38,1.38,0,0,1-.12.52h-.15a2.48,2.48,0,0,1,.15-.79h0a.54.54,0,0,1,.09.27"/><path class="cls-1" d="M40.93,24.74a6.3,6.3,0,0,1,3.63-1.55,2.55,2.55,0,0,1,.73.09q7.18,8.15,9.56,11a38.09,38.09,0,0,1-5.94,1.26q-7.33-7-9.67-9a6.32,6.32,0,0,1,1.69-1.78"/><path class="cls-2" d="M41,25.88q1.93,2.86,9.88,9.33c-.63.12-1.27.22-1.93.31q-5.91-5.61-8.57-8l-1.1-1a6.06,6.06,0,0,1,1.69-1.78l.11-.08.68-.48a11.11,11.11,0,0,0-.76,1.7"/><path class="cls-3" d="M41.46,26.87a.77.77,0,0,1,.21-.32.78.78,0,0,1,.58.06,1,1,0,0,1-.58.35.24.24,0,0,1-.15,0s0-.06-.06-.06m1.43-.58a.28.28,0,0,1-.06.2.47.47,0,0,1-.14.12.21.21,0,0,1-.24-.24c0-.09.09-.19.27-.29a.22.22,0,0,1,.17.21M44.79,28s0,.06,0,.06,0,0-.14,0H44.5s-.06,0-.06-.15.07-.23.21-.23h.11s0,.07,0,.17Zm1.41-1.49s0,.06-.15.06l-.29-.09c.17-.35.33-.38.46-.09Zm-1.29,2.6c0-.35.12-.56.35-.61s.32.06.32.43a.69.69,0,0,1-.52.65,1.13,1.13,0,0,1-.15-.47m3.89,2.16,0,0c0-.08.08-.11.26-.11l.09.08a.35.35,0,0,1-.06.09h-.18c-.08,0-.12,0-.14,0m.29.64a.27.27,0,0,1,.06-.29c.09-.11.28-.1.55,0l0,.09-.17.15a1,1,0,0,1-.21.11c-.1,0-.15,0-.17,0Z"/><path class="cls-1" d="M46.66,45.46l-4.21.73a49.08,49.08,0,0,0,3.22-5.88,47.1,47.1,0,0,1,2.13-4.56c.65.23,1.43.5,2.34.79,2.65.89,5.2,1.67,7.64,2.36-.64.58-1.42,1.24-2.35,2-1.58,1.29-3.26,2.57-5,3.86-1,.19-2.21.43-3.74.7"/><path class="cls-2" d="M50.49,36.66c2.52.84,4.95,1.58,7.29,2.24l-1,.89-.49.42a6.43,6.43,0,0,1-.91.37,4.84,4.84,0,0,1-1.37.23,4.66,4.66,0,0,1-3.38-1.89c-.65-.17-1.26-.37-1.84-.58-.3.29-.61.61-1,.95q-2,2-3.56,3.83a30.21,30.21,0,0,0,1.4-2.81,47.1,47.1,0,0,1,2.13-4.56c.65.23,1.43.5,2.34.79l.35.12m-8,9.53c.07-.1.12-.2.18-.29q4.93-2.9,6.91-3c1.32-.09,2.18.11,2.57.59-.56.43-1.12.85-1.71,1.28-1,.19-2.21.43-3.74.7l-4.21.73"/><path class="cls-3" d="M48,40l-.26.18L47.42,40v-.17q.15-.21.24-.21c.09,0,.19,0,.29.21Zm2.19,1v.17a.68.68,0,0,1-.35.06L49.73,41l.06-.17Zm-.7.82a.64.64,0,0,0,.12-.21.7.7,0,0,1,.49,0l.09.18a1.89,1.89,0,0,1-.5.2l-.2,0Zm3.71-1.29a0,0,0,0,0,.06,0v.26a.45.45,0,0,1-.32.09h-.18l-.11-.15a.76.76,0,0,1,.55-.2m-.44-.73a.36.36,0,0,1-.26.14c-.29,0-.44-.1-.44-.32s.15-.38.44-.38.41.13.41.33a.33.33,0,0,1-.15.23m-6.22.38c0,.06.12.21.26.47l0,.06c-.23-.12-.35-.25-.35-.39v-.14Zm.32-.26.17-.09a1.26,1.26,0,0,1,.27.44l-.27.08Zm-.67,3.68c0,.17-.1.26-.3.26a.29.29,0,0,1-.26-.15.22.22,0,0,1-.09-.17c0-.18.11-.24.33-.2s.32.12.32.26"/><path class="cls-4" d="M46.87,48.41q-3.81-.52-5.93-.94a15.74,15.74,0,0,1,4.85-2.13A37.92,37.92,0,0,1,50.93,44H51l5.33,2.63a8.05,8.05,0,0,1-3,2.64q-2.55-.29-6.43-.83"/><path class="cls-5" d="M42.62,47.77c-.63-.1-1.19-.2-1.69-.3a12,12,0,0,1,3.44-1.65c.43-.16.9-.32,1.42-.48A37.92,37.92,0,0,1,50.93,44H51l.28.13c-.81.3-1.75.67-2.82,1.09-.86.34-1.64.66-2.36,1l2.88.55,3,.57.6-.24a22.71,22.71,0,0,1,2.77-.94l1,.5a6.15,6.15,0,0,1-1.12,1.31,9.79,9.79,0,0,1-1.9,1.33q-1.74-.2-4.11-.51l-2.32-.32c-1.66-.23-3.07-.44-4.25-.64"/><path class="cls-6" d="M44.47,46.68a.35.35,0,0,1,.18.3.76.76,0,0,1-.38.05,2.39,2.39,0,0,0,.2-.35m1.67,0c0,.1,0,.07,0-.08a.2.2,0,0,1,.14-.18.69.69,0,0,1,.47.06l0,.09a.26.26,0,0,1-.26.2.63.63,0,0,1-.35-.09m5.34-1.14a1.4,1.4,0,0,1-.46-.38.55.55,0,0,1,.55.3s0,.06-.09.08M50.32,46a.22.22,0,0,1-.06-.17l.14,0V46Zm-.41.91a.84.84,0,0,1,.61-.29l.06.06-.29.2a.84.84,0,0,1-.21.12Zm.17.35c0-.16.18-.29.53-.41a4.57,4.57,0,0,1,.79-.23,0,0,0,0,0,.06,0v.11c0,.22-.44.42-1.32.62,0,.09-.06.07-.06-.09"/><path class="cls-4" d="M51.46,49a12.82,12.82,0,0,1,1.81-1.63,16.35,16.35,0,0,1,1.43-.85.76.76,0,0,1,.18-.09h.4c.71.25,2.25.69,4.65,1.32,2,.6,3.07,1,3.07,1.28s-.32.62-1,.67l-2.17,0c-2.47-.14-5.28-.36-8.41-.68"/><path class="cls-5" d="M51.46,49a15.65,15.65,0,0,1,1.19-1.15,19.34,19.34,0,0,0,3.37.74q2.44.39,6.69.85l-.06.12a1.83,1.83,0,0,1-.61.14l-2.17,0c-2.47-.14-5.28-.36-8.41-.68"/><path class="cls-6" d="M54,48.26c0-.21.2-.36.61-.44a1,1,0,0,1-.55.53q-.06.15-.06-.09m2.19-.14.06-.12a.22.22,0,0,1,.17.09l-.14.09Zm-1,.08q0,.15-.3.24-.06.12-.06-.12l.09-.14a.33.33,0,0,1,.24-.15.67.67,0,0,0,0,.17m3.82-.26a3.2,3.2,0,0,0-.7.32v0a6.62,6.62,0,0,1-.52.88.21.21,0,0,1-.15-.21.8.8,0,0,1,.2-.43l0,0a1.31,1.31,0,0,1-.34.11v-.08c.14-.08.33-.22.59-.41a1.44,1.44,0,0,1,.85-.21Zm-1.75.59a4.44,4.44,0,0,1,.29-.35,1.58,1.58,0,0,1,.35-.27L58,48a1,1,0,0,0-.41.29c-.13.16-.23.24-.29.24m3.6.61-.18-.09c0-.06.06-.14.18-.26l.17.17Zm-1.5-.53,0-.17a1.7,1.7,0,0,1,.41,0v.14Z"/><path class="cls-4" d="M45.44,45.66a1.34,1.34,0,0,1-.33.85,1.7,1.7,0,0,1-1.46.61c-.72,0-1.19-.18-1.4-.55a1.78,1.78,0,0,1-.09-.7c0-1,.55-1.58,1.64-1.64s1.64.42,1.64,1.43"/><path class="cls-5" d="M44.21,44.23a1.56,1.56,0,0,0-1.35,1.58,1.14,1.14,0,0,0,.18.61,1.19,1.19,0,0,0,1.11.53,2.76,2.76,0,0,0,.51-.05,2.07,2.07,0,0,1-1,.22c-.72,0-1.19-.18-1.4-.55a1.78,1.78,0,0,1-.09-.7c0-1,.55-1.58,1.64-1.64h.41"/><path class="cls-6" d="M43.65,45.63c-.15,0-.24,0-.26-.09s.09-.14.26-.14l.09.14Zm-.06.7a.86.86,0,0,1-.35.09l0-.09a.55.55,0,0,1,.36-.17Zm.5,0a2.29,2.29,0,0,1-.32.35l-.26,0,0-.09c.09-.16.3-.23.61-.23"/><path class="cls-4" d="M51.31,38.71c-2-.47-2.92-1.2-2.92-2.2a4.44,4.44,0,0,1,1.66-3.15,5.08,5.08,0,0,1,3.57-1.67h.23a4.71,4.71,0,0,1,3.77,1.46A4.49,4.49,0,0,1,59,36.37a2.37,2.37,0,0,1-1.17,2.31,5.54,5.54,0,0,1-2.6.46,17.65,17.65,0,0,1-3.95-.43"/><path class="cls-5" d="M57.27,35.05c.29,0,.5.43.64,1.29,0,.1,0,.19.05.28L57.4,37l-.2.08a7,7,0,0,1-.5-1c0-.1,0-.28,0-.54a.7.7,0,0,1,.35-.63c0,.13,0,.2.23.2M58,36.81l-.38.11.36-.25s0,.1,0,.14M58,37l-.63.35,0,0a.54.54,0,0,1-.07-.13l.07,0,.26-.09.4-.13V37m-.51.48.51-.3v.1l-.29.34a.68.68,0,0,1-.22-.14"/><path class="cls-4" d="M57.05,36.18a.85.85,0,0,1-.22-.54,1.29,1.29,0,0,1,.24-.78q2.82-.24,3.24.54a4.07,4.07,0,0,1-1.61.65,6.06,6.06,0,0,1-1.65.13"/><path class="cls-5" d="M57,35l.08.18c.15.39.35.58.58.58a9.13,9.13,0,0,0,2.31-.32c.2-.06.09,0-.32.32a6.28,6.28,0,0,1-.91.27,6.06,6.06,0,0,1-1.65.13.85.85,0,0,1-.22-.54A1.56,1.56,0,0,1,57,35"/><path class="cls-5" d="M50.2,34.78A2.22,2.22,0,0,0,50.9,37c.7.78,2.34,1.49,4.9,2.13h-.54a17.65,17.65,0,0,1-3.95-.43c-2-.47-2.92-1.2-2.92-2.2a4.44,4.44,0,0,1,1.66-3.15,5.29,5.29,0,0,1,3.16-1.65,5.5,5.5,0,0,0-1.62,1.11,4.57,4.57,0,0,0-1.39,2"/><path class="cls-6" d="M53.06,33.65l0-.09.12,0,0,.12Zm-.49.18,0,0-.38.15-.06,0a.35.35,0,0,1,.17-.12.42.42,0,0,1,.24,0m-.38.43a.35.35,0,0,1,.26-.17q.18,0,.18.09a.26.26,0,0,1-.09.14.05.05,0,0,0,.06.06.39.39,0,0,1-.12.23.35.35,0,0,1-.24.12l-.05-.2a.44.44,0,0,1,.14-.24h-.11Zm1.14.91.08,0v.06l-.14,0,0-.09a.12.12,0,0,1,.09,0m-2.75,1.49s-.09.07-.26.15l0-.09c0-.08.08-.12.26-.12Zm0,.18c.1,0,.14,0,.14.11s-.06.18-.2.18-.12-.05-.12-.15.06-.14.18-.14m2.69,1.49-.3.23,0-.15a.42.42,0,0,1,.29-.14Zm-.38-.12.06,0-.09.17h-.06l0-.08ZM56.34,33c.13-.1.2,0,.2.17l-.09,0a.15.15,0,0,1-.11-.06Zm-2.52-.32s0,0,.06-.09l.12.2-.06.06c-.08-.08-.12-.13-.12-.17m-.35.23-.11-.2.17.08v.09Zm1.14-.09v.06l-.06,0a.61.61,0,0,1-.38-.2s.08-.06.18-.06.15.06.26.17m2.49.53c0,.13-.06.2-.18.2s-.23-.08-.23-.26.07-.19.2-.18a.22.22,0,0,1,.21.24m-.68.26h-.05l0-.14h.08l0,.11Zm1.76,1.58,0,0c0-.08.05-.12.14-.12l0,0Zm.32-.06a.32.32,0,0,0-.15.12l0,0a.14.14,0,0,1,.15-.12Zm.32.5.06.06,0,0-.06,0-.06-.14Zm-.61,0-.06,0-.09-.06q0-.12.15-.12l0,.09Zm0-.24-.3.09,0,0s0-.08,0-.14a.27.27,0,0,1,.3,0Zm-1.64,2.49c0,.12-.08.17-.23.17l-.12,0,0-.12q0-.15.21-.18c.11,0,.17,0,.17.15m-3.19-2.31a.12.12,0,0,1-.08-.12c0-.08.05-.12.14-.14s.09.06.09.08-.05.1-.15.18m.76,1.67h-.08l0,0,.09-.12.08.06Zm1.93.29a.17.17,0,0,1,.21,0s.06.07.06.09-.1.11-.3.17l0-.12a.17.17,0,0,1,.06-.11"/><path class="cls-4" d="M9.66,31.9a4.49,4.49,0,0,1,1.41-3.22,4.71,4.71,0,0,1,3.77-1.46h.23a5.08,5.08,0,0,1,3.57,1.67A4.44,4.44,0,0,1,20.3,32c0,1-1,1.73-2.92,2.19a17.08,17.08,0,0,1-3.95.44,5.51,5.51,0,0,1-2.6-.46A2.37,2.37,0,0,1,9.66,31.9"/><path class="cls-5" d="M11,33.09a2.15,2.15,0,0,0-.29-.32v-.11a4.87,4.87,0,0,1,.52.32.49.49,0,0,1-.23.11m.09-.64-.38-.11a.27.27,0,0,0,0-.12,3.54,3.54,0,0,1,.35.23m-.38,0a0,0,0,0,0,0-.06l.41.12.26.09.06.06-.06.11a0,0,0,0,1,0,0l-.64-.35m.73-1.9c.19,0,.27-.07.23-.2A.73.73,0,0,1,12,31a3.16,3.16,0,0,1,0,.53,6.07,6.07,0,0,1-.49,1.05.67.67,0,0,0-.21-.09c-.17-.12-.36-.23-.55-.35,0-.1,0-.2,0-.29.14-.86.35-1.29.65-1.29"/><path class="cls-4" d="M11.62,31.72A6.12,6.12,0,0,1,10,31.58a4.08,4.08,0,0,1-1.6-.65c.27-.52,1.35-.7,3.24-.52a1.21,1.21,0,0,1,.24.76.8.8,0,0,1-.24.55"/><path class="cls-5" d="M11.86,31.17a.8.8,0,0,1-.24.55A6,6,0,0,1,10,31.58a5.92,5.92,0,0,1-.91-.27c-.41-.27-.52-.38-.32-.32a9.61,9.61,0,0,0,2.31.32c.23,0,.42-.19.58-.58l.06-.18a1.24,1.24,0,0,1,.15.62"/><path class="cls-5" d="M12.88,34.67q3.85-1,4.91-2.13a2.25,2.25,0,0,0,.7-2.22,4.46,4.46,0,0,0-1.4-2,5.11,5.11,0,0,0-1.61-1.11,5.21,5.21,0,0,1,3.16,1.64A4.44,4.44,0,0,1,20.3,32c0,1-1,1.73-2.92,2.19a17.08,17.08,0,0,1-3.95.44Z"/><path class="cls-6" d="M18.14,32.66q-.21,0-.21-.18t.15-.12q.18,0,.18.15t-.12.15m0-.53c.17,0,.26,0,.26.12l0,.09c-.17-.08-.26-.13-.26-.15Zm-2.43,1.64.06,0,.12.11,0,.09H15.8Zm0,.17-.06.15-.29-.24.06-.05a.42.42,0,0,1,.29.14m-3.62-.55c0-.12.06-.17.17-.15s.21.08.21.18l0,.11-.12,0c-.15,0-.23-.06-.23-.17m.23-.3a.21.21,0,0,1,.06-.08.17.17,0,0,1,.21,0,.18.18,0,0,1,.05.11l0,.12c-.19-.06-.29-.12-.29-.18m2.19-.35,0-.08.08-.06a.39.39,0,0,0,.09.11l0,0Zm-2.3-3.65,0-.12h.08l0,.15h-.05Zm0-.38-.09,0c0-.21.07-.27.2-.17v.14a.17.17,0,0,1-.11.06m2.1-.55c.1,0,.16,0,.17.05a.55.55,0,0,1-.38.21l-.05,0v-.06c.11-.12.2-.17.26-.17m.41.2-.06-.06.12-.2a.21.21,0,0,1,.06.08s0,.1-.12.18m.41,2.54s0,0,.09-.09.14.07.14.15a.12.12,0,0,1-.09.12c-.09-.08-.14-.14-.14-.18m.2-.2a.12.12,0,0,1,.09,0l0,.08-.15,0v-.06Zm.29-1.61,0,.09h-.12l0-.12Zm-.32-.88-.11.21-.06,0V28.3Zm1.17,1.58,0,0h-.11a.44.44,0,0,1,.14.24l-.06.2a.35.35,0,0,1-.23-.12.39.39,0,0,1-.12-.23.05.05,0,0,0,.06-.06.26.26,0,0,1-.09-.14q0-.12.18-.09a.37.37,0,0,1,.26.17m0-.29-.06,0-.38-.15,0,0a.36.36,0,0,1,.24,0,.35.35,0,0,1,.17.12M10.48,31q.15,0,.15.12l-.09.06-.06,0,0-.06Zm.35,0-.06,0-.29-.09v-.09a.29.29,0,0,1,.29,0q.09.09.06.15m-1,.18H10l-.06.14-.06,0,0-.06Zm.5-.56,0,0q.15,0,.15.12l0,0Zm-.18.06,0,0c.08,0,.12,0,.15.12l0,0a.32.32,0,0,0-.15-.12m1.58-1.58c-.12,0-.18-.07-.18-.2a.22.22,0,0,1,.21-.24c.13,0,.2,0,.2.18s-.08.26-.23.26"/></g></svg>