<svg xmlns="http://www.w3.org/2000/svg" viewBox="0 0 66 66"><defs><style>.cls-1{fill:#936c3a;fill-rule:evenodd;}</style></defs><title>Plan de travail 35</title><g id="objet04"><path class="cls-1" d="M45.58,17.22a16.36,16.36,0,0,1,6.89,1.28A24.78,24.78,0,0,1,54.84,20a7.59,7.59,0,0,1,1.78,1.87c.18.31.53,1,1,2A12.78,12.78,0,0,1,59,27.94c0,.36,0,1.55,0,3.55q0,2.7-.63,9.12c0,3,.75,5.35,2.27,7Q61.81,48.9,63,50.09a.41.41,0,0,0,0,.19q-4.09.22-7-3.76a14.92,14.92,0,0,0,.73,3.12l-.09.09c-.64-.3-1.15-1.41-1.55-3.33a20.06,20.06,0,0,1-.45-3.15q-.73-6.18-.73-6.56a27,27,0,0,0-1.83-9.76q-2.28-5.7-6.33-4.6H39.84a45.88,45.88,0,0,1-6.06.36l-2,.07a1.29,1.29,0,0,1-.34-.36c.08-.34.14-.57.18-.71q.39-.9.66-1.62a18.39,18.39,0,0,1,4.86-1.44q3.2-.59,8.43-1.41M8,23.06q0-9.48,11-7.75a29,29,0,0,1,7.57,2.32,30.06,30.06,0,0,1,3.78,2.19L30,21.05c-.12.26-.25.63-.42,1.12a2.91,2.91,0,0,1-1.32.3A19.87,19.87,0,0,1,23.84,22a18.58,18.58,0,0,0-4.2-.46,6,6,0,0,0-6.27,4.75q.11,3.15.48,6.65c.34,3.07.5,5.24.5,6.52a19.14,19.14,0,0,1-.5,4.88,11.79,11.79,0,0,1-2.55,4.79L11.16,49a26,26,0,0,0,1.23-4.24c0-.2.1-.4.14-.59A16.45,16.45,0,0,1,11.39,46a8.59,8.59,0,0,1-3.74,3.35A5.42,5.42,0,0,1,3.78,51,.9.9,0,0,1,3,50.64q3.11-1.91,5-7.16a24,24,0,0,0,1.5-7.88q0-.51-.73-6.25T8,23.06"/></g></svg>