<svg xmlns="http://www.w3.org/2000/svg" viewBox="0 0 66 66"><defs><style>.cls-1{fill:#dd4040;}.cls-1,.cls-2,.cls-3,.cls-4,.cls-5,.cls-6,.cls-8,.cls-9{fill-rule:evenodd;}.cls-2{fill:#af4141;}.cls-3{fill:#7680a5;}.cls-4{fill:#d2d3db;}.cls-5{fill:#ededef;}.cls-6{fill:#b8bfe0;}.cls-7{opacity:0.5;}.cls-8{fill:#fff;}.cls-9{fill:#8e9abc;}</style></defs><title>Plan de travail 28</title><g id="objet03"><path class="cls-1" d="M31.92,16.81a7.53,7.53,0,0,1,2.23-4.95,13.42,13.42,0,0,1,4.9-3.47c2-.81,3.58-1,4.88-.42,1.49.61,2.23,2,2.23,4.22,0,.44,0,.84-.09,1.19a4.59,4.59,0,0,1,1.26-.61c1.82-.53,2.72.4,2.72,2.77,0,.11,0,.21,0,.31a10,10,0,0,1,2.15-1.27Q55,13.4,55.11,16.7A6.46,6.46,0,0,1,57,16.29c4,.18,6,2.61,6,7.32a9.1,9.1,0,0,1-1.17,4.53,7.49,7.49,0,0,1-6.58,3.8,5.4,5.4,0,0,1,0,.56,5.85,5.85,0,0,1-.35,2.32,3.22,3.22,0,0,1-3.3,1.81,5.13,5.13,0,0,1-3.87-1.81c-.24-.25-.45-.49-.64-.72l-12-9.48a12.42,12.42,0,0,1-1.65-2.7,12.91,12.91,0,0,1-1.5-5.11"/><path class="cls-2" d="M51.79,29.82l.05,0a2.65,2.65,0,0,0,1.76.59c.73,0,1.1-.29,1.1-.87a2.15,2.15,0,0,0-.85-1.31c1.55-.76,2.33-1.54,2.33-2.33a.47.47,0,0,0-.07-.37c-.15-.24-.47-.35-1-.35a6.13,6.13,0,0,0-2.55.64c.21-.54.92-.93,2.13-1.16,1.47-.3,2.21.13,2.21,1.27a2,2,0,0,1-.31,1.15,8,8,0,0,1-1.57,1.33,1.83,1.83,0,0,1,.28.61,2.7,2.7,0,0,1,.14.73,1.34,1.34,0,0,1-.3.82,1.61,1.61,0,0,1-1.36.59,2.61,2.61,0,0,1-1.53-.5c-.39-.28-.58-.48-.58-.6a.34.34,0,0,1,.09-.27m-14.94-13s0,.55.12,1.52a6.42,6.42,0,0,1-.38-1.24,9.46,9.46,0,0,1-.28-1.79,2.08,2.08,0,0,1,1.59-2.15c1.07-.35,1.6.14,1.6,1.45v.26a2.87,2.87,0,0,1,.44-.49,3.32,3.32,0,0,1,1.69-.85c1.64-.28,2.47.65,2.47,2.79a1.2,1.2,0,0,1,0,.24,2.72,2.72,0,0,1,1.64-.64c1.3-.15,1.95.33,1.95,1.46a11.29,11.29,0,0,1-.23,1.92A4.18,4.18,0,0,1,47,20.7c0-.34,0-.75,0-1.22q0-3.33-2.49-2.25a4,4,0,0,0-.75.42c-.14-2.65-1-3.64-2.65-2.95A4.6,4.6,0,0,0,39.48,16c-.16-1.11-.59-1.7-1.29-1.78-.9-.09-1.34.75-1.34,2.54"/><path class="cls-3" d="M45.13,43c-2.63-.27-4.14,3.63-4.39,6.54s-.5,4.64,1.73,4.47,3.84-2.35,3.8-6.11S47.69,43.27,45.13,43Z"/><path class="cls-3" d="M3,52.4s-.31,3.25,5.69,3,8.62-3.55,19.37-3a85.46,85.46,0,0,1,18.48,3L40.59,33.81,15.25,35l-7,8.7S5.69,51.24,3,52.4Z"/><path class="cls-4" d="M46.36,45.55a2.83,2.83,0,0,0-.26-1.39,1.08,1.08,0,0,0-.84-.47,1.67,1.67,0,0,0-.32,0c-1.28,0-2.28,1-3,2.95,0,.05,0,.1,0,.14a13.12,13.12,0,0,0-.73,4.15,3.6,3.6,0,0,0,.25,1.45,2,2,0,0,0,.11.2,1.34,1.34,0,0,0,.32.31,1.92,1.92,0,0,0,1.06.27,2.35,2.35,0,0,0,2.15-1.37c.13-.24.25-.48.36-.73.41-.26.85-.57,1.34-.91,0,2.08,0,3.5.07,4.26,0,.32,0,.69.07,1.09a24.22,24.22,0,0,1-2,1.84,4,4,0,0,1-2.3,1,4.62,4.62,0,0,1-3.85-1.68,6.79,6.79,0,0,1-1.29-4.48,26.84,26.84,0,0,1,.37-4.5,21.22,21.22,0,0,0,.33-3.84,3.59,3.59,0,0,0-1.54-3.21c-.89-.63-2.43-.94-4.6-.94a11.53,11.53,0,0,0-4.55,1.1,14.38,14.38,0,0,0-1.68.86q-.61,2-1.37,5-.21.81-.42,1.68c-1.14,0-2.19-.06-3.16-.08l.3-.62c.69-1.48,1.3-2.81,1.83-4a4.62,4.62,0,0,0,.11-1.27,3.4,3.4,0,0,0-1.43-3.08,6.67,6.67,0,0,0-3.61-.79,6.68,6.68,0,0,0-5.14,2.18A19.38,19.38,0,0,0,10,45.47,22.69,22.69,0,0,1,7.2,50.26,6.36,6.36,0,0,1,3,52.4q.45-.75.87-1.56a60.86,60.86,0,0,0,3.59-8.65,31.85,31.85,0,0,0,1.69-4.27q.67-2.19,1.26-3.81a20.52,20.52,0,0,1,2.11-3.93,17.08,17.08,0,0,1,4.33-4.33,33.57,33.57,0,0,1,8.7-4,62.88,62.88,0,0,1,15.8-2.51,39.29,39.29,0,0,1,5.58,7c1,1.95,1.55,4.82,1.55,8.61a49.73,49.73,0,0,1-.87,5.74q-.45,2.49-.66,4.71l-.59.11"/><path class="cls-5" d="M45.73,45.63s-.22,4.08-1.4,6.07c-1,1.7,1.08-.66,1.08-.66a7,7,0,0,0,1-5.49Z"/><path class="cls-4" d="M46.75,50.13s0-3.14.22-5l-.61.41a11.9,11.9,0,0,1-1,5.49S46.4,51.59,46.75,50.13Z"/><path class="cls-5" d="M45.73,45.68a3.58,3.58,0,0,0-.25-1.76,1,1,0,0,0-.22-.23,1.08,1.08,0,0,1,.84.47,2.83,2.83,0,0,1,.26,1.39l-.63.13m-1.4,6q.48-.27,1.08-.66c-.11.25-.23.49-.36.73a2.35,2.35,0,0,1-2.15,1.37,1.92,1.92,0,0,1-1.06-.27,2,2,0,0,0,.43,0,2.35,2.35,0,0,0,2.06-1.21"/><path class="cls-6" d="M38.42,20.87l.14.18a21.66,21.66,0,0,0-8.19,6.74,31.75,31.75,0,0,0-3.7,7.34H26.6a14.24,14.24,0,0,1,2.72-7.65,18.87,18.87,0,0,1,9.1-6.61"/><path class="cls-6" d="M41.23,44a10.32,10.32,0,0,0-1.71-6.1,5.91,5.91,0,0,0-5.11-2.65A15,15,0,0,0,29,36.58a17.13,17.13,0,0,0-3.33,1.74,10.57,10.57,0,0,0-2.47-2.42A6.76,6.76,0,0,0,19.51,35a12.21,12.21,0,0,0-8,3.35,29.78,29.78,0,0,0-4.4,4.83,57.45,57.45,0,0,1-3.25,7.67q-.42.81-.87,1.56a6.36,6.36,0,0,0,4.2-2.14A22.69,22.69,0,0,0,10,45.47a19.38,19.38,0,0,1,2.88-4.78,6.68,6.68,0,0,1,5.14-2.18,6.67,6.67,0,0,1,3.61.79,3.4,3.4,0,0,1,1.43,3.08A4.62,4.62,0,0,1,23,43.65c-.53,1.19-1.14,2.52-1.83,4l-.3.62c1,0,2,0,3.16.08q.21-.87.42-1.68.75-3,1.37-5a14.38,14.38,0,0,1,1.68-.86A11.53,11.53,0,0,1,32,39.7c2.17,0,3.71.31,4.6.94a3.62,3.62,0,0,1,1.55,3.21,21.12,21.12,0,0,1-.35,3.84,28.13,28.13,0,0,0-.36,4.5,6.79,6.79,0,0,0,1.29,4.48,5.56,5.56,0,0,0,.47.5q1-4.32,1.5-7.62A35.54,35.54,0,0,0,41.23,44"/><g class="cls-7"><path class="cls-8" d="M15.29,30.93a1,1,0,0,1-.91.45.58.58,0,0,1-.54-.31l-.12-.33c0-.44.3-.72.89-.84s.89,0,.89.49a.92.92,0,0,1-.21.54m.52-2.49c0-1,.66-1.58,2-1.9s1.95,0,1.95.92c0,.28-.33.68-1,1.19a3.13,3.13,0,0,1-1.71.78A1.21,1.21,0,0,1,16,29a1,1,0,0,1-.19-.57M17,30.55a.49.49,0,0,1,.21-.44,1,1,0,0,1,.89-.05.29.29,0,0,0,.05.1.78.78,0,0,1,0,.21.48.48,0,0,1-.19.39.58.58,0,0,1-.44.19l-.5-.09s0-.1,0-.31m5.91,16.92a.74.74,0,0,1-.21.49.72.72,0,0,1-.57.28.74.74,0,0,1-.65-.3l-.1-.33a.63.63,0,0,1,.31-.52,1.18,1.18,0,0,1,.61-.16.58.58,0,0,1,.49.23.64.64,0,0,1,.12.31M9.26,41q-2.83,8.79-3.37,8.79a.48.48,0,0,1-.47-.28.85.85,0,0,1,0-.3A19.74,19.74,0,0,1,6.29,47l1.36-3.07c.06-.14.38-1,1-2.68a9.11,9.11,0,0,1,1.31-2.55c-.44,1.48-.66,2.26-.66,2.32"/></g><path class="cls-9" d="M27.23,23.8a.38.38,0,0,1-.3.09,1.11,1.11,0,0,1-.26,0v-.05l-.1,0s0-.07,0-.21a.31.31,0,0,1,.26-.33.55.55,0,0,1,.39,0,.53.53,0,0,0,.12.28.89.89,0,0,0-.07.21m-1.5-.14.16-.07a.83.83,0,0,1,.29.58.67.67,0,0,1-.29.29.51.51,0,0,1-.35-.54.24.24,0,0,1,.19-.26M45.32,29.4v-.35l0-.47c.47-.22.7-.06.7.47a2.79,2.79,0,0,1-.09.47c0,.13-.05.19-.28.19a.32.32,0,0,1-.35-.31m-.71,1s.07-.05.21-.1a.58.58,0,0,1,.26.19.35.35,0,0,1,.09.19L45.1,31a.87.87,0,0,1-.28.14.5.5,0,0,1-.28-.47c0-.16,0-.25.07-.28m1.27,0c0-.56.22-.87.65-.94s.64.11.64.54c-.13.69-.39,1-.8,1a.58.58,0,0,1-.28-.05.55.55,0,0,0-.14-.17c-.05,0-.07-.18-.07-.42m-4.43,8.17a.66.66,0,0,1-.22.16L41,38.6v-.38h.28a.41.41,0,0,1,.15.29m1.9,2.39c0-.17.25-.43.77-.78l.35.17a1.46,1.46,0,0,1-.75.82h-.3c-.05.09-.07,0-.07-.21m.37.63a3.75,3.75,0,0,0,.49-.44,1.36,1.36,0,0,1,.75-.33,5.66,5.66,0,0,1-.49.44,2,2,0,0,1-.68.4ZM42.31,56.17,42,56a1.06,1.06,0,0,1,.56-.4l.14.19a.74.74,0,0,1-.35.35m-.68-1.55s0,.07,0,.21a1.76,1.76,0,0,1-.21.54c-.16.31-.28.49-.38.52L41,55.82l.12-.68c.08-.35.25-.5.52-.45ZM37.22,37c0,.13-.07.07-.07-.16s.08-.22.24-.28l.4-.08.07.1a.63.63,0,0,1-.64.42M37,35.86a1.53,1.53,0,0,1-.45.6H36.4l0-.16s.11-.18.28-.49a.9.9,0,0,1,.42-.47.68.68,0,0,1-.09.52m-.4-.59a6.09,6.09,0,0,1-.42,1.22l-.21,0a.68.68,0,0,1-.14-.5,2.53,2.53,0,0,1,.23-.7,2.19,2.19,0,0,1,.35-.63.86.86,0,0,1,.14.23.8.8,0,0,1,.05.33M25.28,31.7V32a1.41,1.41,0,0,1-.72.1,3.41,3.41,0,0,0,.4-.31.41.41,0,0,1,.32-.12m-.82.19a.7.7,0,0,1,0-.23.4.4,0,0,1,.19-.28.79.79,0,0,1,.35-.24,1.14,1.14,0,0,1-.07.38.58.58,0,0,1-.35.39l-.1,0m-.68-.68a.72.72,0,0,1,.45-.37,3.84,3.84,0,0,1-.42,1h-.1s0-.07,0-.3a.75.75,0,0,1,.11-.33m-1.47,1.31c0,.1-.07,0-.07-.21v-.18a.4.4,0,0,1,.35.07.39.39,0,0,1-.14.32Zm3.19,6.92.07.21a1.5,1.5,0,0,1-.15.26c0,.07-.14.1-.3.1a.64.64,0,0,1-.26,0v0c0,.12-.07.07-.07-.17a.31.31,0,0,1,.28-.3,1.53,1.53,0,0,1,.43,0m-.73,3.22-.21-.07a.46.46,0,0,1,.21-.17q.16,0,.21,0Zm-.33.49a1.34,1.34,0,0,1,.82-.42l.09.21c0,.11-.22.23-.58.35a.57.57,0,0,1-.33-.14m14.47,8.94a.65.65,0,0,1,.24-.28.42.42,0,0,1,.28-.08,1.78,1.78,0,0,1-.31.36Zm.8.35c0,.08-.1.22-.31.42-.14,0-.22-.09-.25-.14a2,2,0,0,1,.56-.28m-.38.94v-.17h.38l0,.1a.61.61,0,0,1-.21.09.29.29,0,0,1-.22,0m1.65.93a.49.49,0,0,1,0,.26,1.12,1.12,0,0,1-.11.47.57.57,0,0,1-.38.31h-.3s0-.08,0-.24a1,1,0,0,1,.14-.42.83.83,0,0,1,.56-.42.13.13,0,0,0,.1,0M14,36.49l0-.17c.13-.2.24-.25.35-.14s-.07.17-.21.31Zm-.58-.14a1.68,1.68,0,0,1,.16.42c-.06.3-.16.17-.3-.38Zm2.81-.94a.37.37,0,0,1-.21.14.34.34,0,0,1-.16-.07.5.5,0,0,1-.05-.28.45.45,0,0,1,.07-.31.78.78,0,0,1,.21,0,.18.18,0,0,0,.12.09.59.59,0,0,1,.05.29c0,.23,0,.28,0,.16m-3.56,1.13c0-.1.19-.14.42-.12a2.47,2.47,0,0,0-.35.84l-.14.05-.07-.42a1.11,1.11,0,0,0,.14-.35m-6.1,11.3a1.29,1.29,0,0,1,.59.31c-.07.14-.22.21-.47.21l-.31,0c0,.13-.07.07-.07-.16s.09-.34.26-.31m.3-.54c.08-.12.32-.19.71-.19a.71.71,0,0,0,.14.33v.1c.09.07,0,.11-.21.11a.77.77,0,0,1-.64-.35"/></g></svg>