<svg xmlns="http://www.w3.org/2000/svg" viewBox="0 0 66 66"><defs><style>.cls-1{fill:#1f4e87;}.cls-1,.cls-2,.cls-3,.cls-4,.cls-5,.cls-6{fill-rule:evenodd;}.cls-2{fill:#3876c1;}.cls-3{fill:#fff;}.cls-4{fill:#cee3ea;}.cls-5{fill:#eff6f9;}.cls-6{fill:#acd9e5;}.cls-7{opacity:0.5;}.cls-8{fill:#a2cddb;}</style></defs><title>Plan de travail 50</title><g id="objet05"><path class="cls-1" d="M51.73,17.78s6.11,18.34,5.61,31.57c0,0-19.85,2.27-25.88.93,0,0,3.61-20.34.92-26.42Z"/><path class="cls-2" d="M22.83,25.84q3.21-.37,6.42-1c2.94-.51,5.38-1,7.33-1.58A44.7,44.7,0,0,0,43,20.61l.45-.12v-.08l.2-.1.47-.22c.06.35.12.72.18,1.12a68.76,68.76,0,0,1,.75,10.4A97.3,97.3,0,0,1,41,57.69l-9.55.52q-7.5-.49-12.55-1.3c-1.57-.26-4-.75-7.4-1.45-.63-.11-1.58-.35-2.85-.7l.8-.9a47.27,47.27,0,0,0,7.15-11A89.79,89.79,0,0,0,21.43,32a47.21,47.21,0,0,0,1.4-6.12"/><path class="cls-3" d="M36.93,23.16c-.32,2.16-.76,4.56-1.3,7.2q-1.29,6.3-3.2,12.48A113.89,113.89,0,0,0,44.33,42c-.27,2-.61,4.06-1,6.18q-5.43.47-11.57.47l-1.23,0q-1.68,4.66-3.72,9.27c-3-.27-5.64-.59-7.9-1l-.55-.1q2.3-4.1,4.5-8.8l-2.4-.2-6.2-.55c.8-1.35,1.59-2.8,2.35-4.35L17,42l1.75.2c2.21.25,4.36.42,6.42.53.3-.67.59-1.35.88-2A112.15,112.15,0,0,0,31.7,24.39c1.88-.37,3.5-.74,4.88-1.13l.35-.1"/><path class="cls-4" d="M14,23.81a11.47,11.47,0,0,0-.8-1.4l-1-1.45a1.89,1.89,0,0,0-.2-.27l.15-.23a.83.83,0,0,1,.65-.4c.3,0,.62.28.95.83a61.34,61.34,0,0,1,8.1-2.33q10.8-2.65,11.65-3,3.11-1.1,11-3.3c.17-.07,1.32-.4,3.45-1a20.11,20.11,0,0,0,3-1l2.05-1c0-1.16.36-1.31,1-.45a.35.35,0,0,1,0,.08A1,1,0,0,1,54.7,9a49.9,49.9,0,0,0,.15,6.25c.3.24-.3,1.15-1.77,2.73a23.68,23.68,0,0,1-4.4,3.77,68.25,68.25,0,0,1-9.1,4.2q-8.25,3.35-13,3.35-7.35,0-10.7-1.2c-.31-.19-.59-.36-.85-.5a12.56,12.56,0,0,0-1-3.75"/><path class="cls-5" d="M12.28,20.49q-.13,2.49,9.45,3.17,9.72.21,21-4.75T54.6,11.06c.4-1.94-.09-3-1.45-3.17a45.47,45.47,0,0,0-15.1,1.62,25,25,0,0,0-5.62.53c1-.2-3,.84-6.25,1.57A39,39,0,0,0,16.9,15c-3,1.51-4.5,3.35-4.62,5.5"/><path class="cls-6" d="M23.58,25.56l.55,1.7a.85.85,0,0,0,.3-.05,6.37,6.37,0,0,1,.4-1.45c.33-.87.65-1.3,1-1.3s.63.4,1.1,1.2a11.79,11.79,0,0,1,.8,1.6h.15A4.08,4.08,0,0,1,29,24.66c.83-.93,1.52-1.05,2.05-.35a6.16,6.16,0,0,1,1.75,3.75l-.3.15q-.55-1.46-.9-2.25c-.43-1-.82-1.55-1.15-1.55-1,0-1.62.62-1.95,1.85a6.16,6.16,0,0,0-.2,1.95V29l-.25.1c-.4-.93-.72-1.63-1-2.1a9.59,9.59,0,0,0-1.3-2.1,6.71,6.71,0,0,0-.9,1.7,4.14,4.14,0,0,0-.2.83,5.88,5.88,0,0,1,.15,1.47.7.7,0,0,1,0,.28c.08.05,0,.07-.22.07s-.42-.6-.85-1.8a30.18,30.18,0,0,0-1.1-3,1.89,1.89,0,0,1,.95,1.15m-2.15,1.6v1.95a.73.73,0,0,1-.3.25c0-.07-.3-1-.8-2.75-.37-1.33-.9-2-1.6-2s-1.07.52-1.1,1.55c0,.57.05,1.35.15,2.35a1.05,1.05,0,0,1-.3.15c-.37-1-.67-1.73-.9-2.3A16,16,0,0,0,15.43,24a3.21,3.21,0,0,0-.35,2,18.29,18.29,0,0,0,.3,2.05c-.3-.23-.45-1.17-.45-2.8s.27-2,.8-1.45a7.32,7.32,0,0,1,1.45,2.75v0a4.11,4.11,0,0,1,1.05-2.3h.95a4.07,4.07,0,0,1,1.2,1.4,9,9,0,0,1,.4,1.5l.2.15a.87.87,0,0,0,.25-.65h.15Zm32.8-14.25a1.17,1.17,0,0,0-.55.9,10.81,10.81,0,0,0,0,1.15.16.16,0,0,1-.08.15,8.1,8.1,0,0,1,.08,1.2c0,.13,0,.22-.1.25a.21.21,0,0,0-.15.05l-.15.05c-.3-1.5-.57-2.25-.8-2.25-.7,0-1.18.85-1.45,2.55a13.44,13.44,0,0,0-.15,3l0,.25c.1.1,0,.15-.25.15s-.35-.58-.65-1.75-.63-1.8-1.1-1.8-.75.47-1.15,1.4c-.17.47-.32.93-.45,1.4l-.25,2.15a.71.71,0,0,1-.35.55,4.12,4.12,0,0,1-.7-1.7,5.18,5.18,0,0,0-.65-1.75A4.93,4.93,0,0,0,43.68,21c-.07.16-.24.91-.53,2.25.05.22.09.43.13.65a1.32,1.32,0,0,1-.1.65l-.2.05-.3-.05a9.05,9.05,0,0,0-.4-2.3c-.33-1.23-.72-1.85-1.15-1.85-.77,0-1.33.77-1.7,2.3-.2.8-.47,1.92-.8,3.35a11.14,11.14,0,0,1-1-2.1,6.61,6.61,0,0,0-1.15-2.1A3.79,3.79,0,0,0,34.38,24a15,15,0,0,0-.55,2.35l-.1.05a2.38,2.38,0,0,1-.15-.7,6,6,0,0,1,.6-2.15c.6-1.33,1.35-2,2.25-2q.7,0,1.35,1.2a3.89,3.89,0,0,1,.6,1.55c.07,0,.1.05.1.15.27-.87.48-1.53.65-2a7.85,7.85,0,0,1,1.45-2.25c.7-.73,1.35-.35,2,1.15a10.29,10.29,0,0,1,.5,1.45,14.14,14.14,0,0,1,.4-2.35c.4-1.43,1-2.15,1.85-2.15.5,0,.85.48,1,1.45h.1c.37-1.4.55-2.12.55-2.15a2,2,0,0,1,1.8-1.45c.83,0,1.37.57,1.6,1.7h.1c.2-2.4.78-3.73,1.75-4a.87.87,0,0,1,1.12.53,3.25,3.25,0,0,1,0-.33,4.2,4.2,0,0,1,.05-.85c.1-.27.35-.38.75-.35Z"/><g class="cls-7"><path class="cls-4" d="M53.23,11.06c.4-1.94-.09-3-1.45-3.17a45.47,45.47,0,0,0-15.1,1.62L31.06,10q-1.43.48-6.25,1.57c-.33.07-.64.17-1,.25l-.59.33s-10.88,9.17,19.75,4c2.18-.37,4.13-.72,5.87-1.06,2.66-1.59,4.12-3,4.35-4.09"/></g><ellipse class="cls-8" cx="31.66" cy="15.35" rx="5.55" ry="1.72" transform="translate(-2.27 6.03) rotate(-10.51)"/></g></svg>