<svg xmlns="http://www.w3.org/2000/svg" viewBox="0 0 66 66"><defs><style>.cls-1{fill:#ad8151;}.cls-1,.cls-10,.cls-11,.cls-12,.cls-13,.cls-2,.cls-3,.cls-4,.cls-5,.cls-6,.cls-7,.cls-9{fill-rule:evenodd;}.cls-2{fill:#936c3a;}.cls-3{fill:#b2865f;}.cls-4{fill:#996a47;}.cls-5{fill:#ffb7b3;}.cls-6{fill:#e88d8b;}.cls-7{fill:#ddb083;}.cls-8{opacity:0.5;}.cls-9{fill:#333;}.cls-10{fill:#edc9b7;}.cls-11{fill:#cca392;}.cls-12{fill:#ad8476;}.cls-13{fill:#c69161;}</style></defs><title>Plan de travail 38</title><g id="objet04"><path class="cls-1" d="M36.29,31.85c.46-.32.86-.63,1.21-.91Q45.66,41.52,58,61.21a2.91,2.91,0,0,1-1.25,1.23,5.13,5.13,0,0,1-1.59.56Q41.21,39.77,36.29,31.85"/><path class="cls-2" d="M56.49,62.57a5.16,5.16,0,0,1-.49.21c-.27-.61-.5-1.1-.68-1.48-.73-1.58-1.42-3-2-4.15.62,1,1.27,2.05,1.95,3.22l1.27,2.2M40.94,38.43l.09.14a17.18,17.18,0,0,1,.81,2.1c0,.13.09.28.14.47l-.57-1c0-.18-.09-.37-.14-.58-.13-.51-.24-.9-.33-1.18m-1.55-5a16.62,16.62,0,0,1-1,1.78c-.79-1.29-1.48-2.41-2.08-3.36.46-.32.86-.63,1.21-.91q.91,1.18,1.89,2.49M50.94,50.16l-1-1.1q-1.29-1.39-3.28-3.83l-.42-.53,2.12,2.16c.26.26.69.72,1.3,1.38l1.26,1.92"/><path class="cls-2" d="M17.91,8.67c-.59-1-1.06-1.86-1.42-2.52l.31-.29c.82,1.22,1.56,2.38,2.23,3.48,0-.08-.06-.14-.08-.2L17.39,5.72Q21.58,2.47,28,4.24A9.56,9.56,0,0,1,33.06,8.1a10.18,10.18,0,0,1,2,5.77,24.86,24.86,0,0,1-.13,3,8,8,0,0,1-.5,1.85c-.08-.14-.58-.74-1.47-1.8a38,38,0,0,0-5-4.41q-3.62-2.83-6-2.63a6.18,6.18,0,0,0-2.91.71c-.37-.59-.76-1.24-1.18-1.95"/><path class="cls-1" d="M19.75,3.59c.1.38.23.91.39,1.61.1.35.27.92.49,1.71A10.12,10.12,0,0,1,21,8.59l-.13.08c-.16-.47-.37-1.21-.64-2.2a6.66,6.66,0,0,1-.45-2.88m5.58,8.08-.15-.09A15.8,15.8,0,0,1,26,8.64a23.73,23.73,0,0,1,.88-2.46Zm-.7-2.47c-.1.76-.18,1.41-.25,2L24.13,11c.06-.59.14-1.34.23-2.23Q24.75,4.93,25,3a35.8,35.8,0,0,1-.35,6.2m-1.9,1.22-.49-.12q0-.73,0-1.62a23.13,23.13,0,0,1,.13-3c.07.82.2,2.39.39,4.73m7.56-6.07-1.4,3a10.25,10.25,0,0,1-1.4,2.41c.64-1.35,1.13-2.37,1.48-3.06a13.22,13.22,0,0,1,1.32-2.3m-2.06,9.21-.05,0c2.48-2.64,4.51-4.34,6.09-5.08-.44.32-1.38,1.12-2.82,2.38l-3.22,2.74M27.4,13l-.08,0q.43-.64,1.62-2.52A19.67,19.67,0,0,1,31,7.61c-.79,1.28-1.4,2.25-1.84,2.92A15.56,15.56,0,0,1,27.4,13m7.42.64a34.14,34.14,0,0,0-3.24,2L31,16l-.2-.18.49-.34a18.07,18.07,0,0,1,3.47-1.89Zm-.16-3.13q-3.22,2.56-5.19,4.1a2.11,2.11,0,0,0-.23-.19,15.15,15.15,0,0,1,1.51-1.27l2-1.48a9.36,9.36,0,0,1,1.94-1.16m.83,5.73L32,16.94h0l-.06-.07a13.24,13.24,0,0,1,3.85-.71Zm-1.34-.43c-1.07.44-1.87.76-2.4,1l-.06-.07A34.23,34.23,0,0,1,35.78,15c-.76.37-1.31.62-1.63.75"/><path class="cls-3" d="M15.56,7.76a9.27,9.27,0,0,1,1.32,1.12A29.2,29.2,0,0,0,19.08,11l.18.16-.78.8a5,5,0,0,1-.62-.65c-1,.59-1.6.79-1.89.62s-.49-1-.65-2.35-.07-2,.24-1.82"/><path class="cls-4" d="M17.21,11a.78.78,0,0,1-.95-.06c-.25-.19-.44-1-.57-2.27h0a3.16,3.16,0,0,0,.62,1.7,1.22,1.22,0,0,0,.94.19,2.55,2.55,0,0,0,.62-.19c.17.19.39.43.67.7l.05.06q0,.12-.36,0a1,1,0,0,1-.47-.36,3.26,3.26,0,0,1-.57.26"/><path class="cls-5" d="M11.4,34.94c-.53-.1-.73-.6-.61-1.51a3.73,3.73,0,0,1,.84-2.05c.44-.47.63-.64.59-.52.47.48,1,1.06,1.71,1.76-.68,1-1.13,1.7-1.36,2a1.15,1.15,0,0,1-1.17.32"/><path class="cls-6" d="M13.07,31.32v0h0Zm-.88.68a4.23,4.23,0,0,1,.36-.44l.26.26c-.14.2-.39.59-.75,1.16,0,0-.14.22-.36.62a3.29,3.29,0,0,1,.49-1.6"/><path class="cls-7" d="M31,9.52c1.4,0,2,.19,1.79.47a8.2,8.2,0,0,1-1.3,1.14q-1,.72-2.43,1.89l-.16.15c-.29-.36-.52-.65-.69-.88q.28-.22.72-.51c-.45-1-.56-1.69-.34-1.94s1-.37,2.41-.32"/><path class="cls-3" d="M31.84,10a3,3,0,0,0-1.76.42,1.1,1.1,0,0,0-.34.88,3,3,0,0,0,.11.65c-.23.13-.49.32-.8.54L29,12.5c-.08,0-.06-.13.08-.33a.9.9,0,0,1,.42-.42,3.41,3.41,0,0,1-.19-.59.85.85,0,0,1,.21-1c.21-.21,1-.3,2.33-.26Z"/><path class="cls-7" d="M8.84,22.18Q11,19.45,14,16c2.08-2.41,3.78-4.33,5.09-5.78,2.47-1.7,4.88-1.89,7.21-.58l.44.38a96.61,96.61,0,0,1,7.07,6.88q2.69,2.88,7.9,9l.6.73q-2,4-7.28,8.31c-1,.81-2,1.56-3.07,2.26a84.81,84.81,0,0,0-6.07-11.66l-.3-.47a10,10,0,0,1-1.36.64l-2.52,2.39-.77.73-.26.24c-.05.06-.11.11-.17.17l-.71.68c-1.36,1.27-2.51,2.36-3.47,3.24a11,11,0,0,1-2,.2q-.57,0-1.05,0A22.72,22.72,0,0,1,11,29.93,22,22,0,0,1,8.16,23l.68-.85"/><g class="cls-8"><path class="cls-3" d="M33.81,16.9c.67.72,1.46,1.59,2.37,2.62q1.8,2,4.21,4.84c.42.5.86,1,1.32,1.55l.6.73a17.36,17.36,0,0,1-1.26,2.15c-1.41-2.29-2.53-4.05-3.38-5.29q-4.65-6.57-8-10.82,2.1,2,4.17,4.22m-8.22,8.18a10,10,0,0,1-1.36.64l-2.52,2.39-.77.73-.26.24c-.05.06-.11.11-.17.17l-.71.68c-1.36,1.27-2.51,2.36-3.47,3.24a11,11,0,0,1-2,.2q-.57,0-1.05,0c-.14-.16-.28-.34-.41-.52,1,0,2.58-.86,4.72-2.48A30.53,30.53,0,0,0,21.51,27c.38-.38.91-1,1.58-1.73A5.42,5.42,0,0,1,25,23.92a9.65,9.65,0,0,0,2.44-1.37,6.54,6.54,0,0,0,1.63-3,12.18,12.18,0,0,1-.52,3.75,15.4,15.4,0,0,1,.36,1.63,20.16,20.16,0,0,1,.29,3.24A16.43,16.43,0,0,1,29,30.91c-1-1.91-2-3.69-3.08-5.36l-.3-.47"/></g><path class="cls-3" d="M25.89,25.55l-.3-.47a7.85,7.85,0,0,0,1.25-.85A5.43,5.43,0,0,0,29,19.93c0-.29,0-.56,0-.79a5.67,5.67,0,0,1,.19,1.57,4.7,4.7,0,0,1-1,3.08,9.2,9.2,0,0,1-2.25,1.76"/><path class="cls-9" d="M15.4,17.68c-.31-.52-.21-.89.31-1.11a.81.81,0,0,1,1.12.31.78.78,0,0,1,.05.49.9.9,0,0,1-.44.65.67.67,0,0,1-.73,0,1.79,1.79,0,0,1-.31-.31m.49-.29c.07.14.16.21.26.21l0,0a.19.19,0,0,0,.1,0,.32.32,0,0,0,.16-.47A.29.29,0,0,0,16,17a.26.26,0,0,0-.11.41m3.65-.23a.37.37,0,0,1,0,.26.41.41,0,0,1-.21.31.43.43,0,0,1-.46,0l-.13-.16a.44.44,0,0,1,.77-.44"/><path class="cls-10" d="M11.83,21.51a9.09,9.09,0,0,1,6.11,2.75q2.82,2.58,2.57,5l-.71.68c-1.36,1.27-2.51,2.36-3.47,3.24a11,11,0,0,1-2,.2q-.57,0-1.05,0A22.72,22.72,0,0,1,11,29.93,22,22,0,0,1,8.16,23l.68-.85a6.79,6.79,0,0,1,3-.67"/><path class="cls-11" d="M10.77,26.3c-.11-.05-.15.07-.13.36a3.67,3.67,0,0,0,.54,1.45,2.72,2.72,0,0,0,1,1.25,1.06,1.06,0,0,1-.34.05c-.44,0-.87-.36-1.26-1.06A2.86,2.86,0,0,1,10,26.82a1.05,1.05,0,0,1,.16-.54.21.21,0,0,1,.23-.08.78.78,0,0,1,.34.1M16,28.76a1.29,1.29,0,0,1-.29,0c-.46,0-.92-.37-1.37-1.09A3.44,3.44,0,0,1,13.72,26a1,1,0,0,1,.15-.54.68.68,0,0,1,.65-.41,1.13,1.13,0,0,1,.54.13c-.32.12-.49.47-.49,1.06a3.21,3.21,0,0,0,.49,1.58,2.62,2.62,0,0,0,.94,1"/><path class="cls-12" d="M10.77,26.3A3.37,3.37,0,0,1,12,27.83q.65,1.26.15,1.53a2.72,2.72,0,0,1-1-1.25,3.67,3.67,0,0,1-.54-1.45c0-.29,0-.41.13-.36m4.29-1.16a2.83,2.83,0,0,1,1.3,1.76Q17,28.55,16,28.76a2.62,2.62,0,0,1-.94-1,3.21,3.21,0,0,1-.49-1.58c0-.59.17-.94.49-1.06"/><path class="cls-13" d="M16.72,12.48l.47.18c.19.05.3.13.33.23v0s-.05,0-.1,0a1,1,0,0,1-.36-.21,3.3,3.3,0,0,1-.36-.28Zm.18.54-.15,0a1.18,1.18,0,0,1-.39-.16l-.23-.16c.05-.08.18-.09.38,0a1.14,1.14,0,0,1,.39.23Zm9.5-3.08s.05-.1.13-.18a.71.71,0,0,1,.21-.16l0,.05a.82.82,0,0,1-.34.37s0,0,0-.08m.44.26c-.13.15-.25.22-.33.2l.21-.28a.48.48,0,0,1,.33-.21.69.69,0,0,1-.21.29M16.33,13.51a.57.57,0,0,1,.34.21v.13s0,0-.1,0a.4.4,0,0,1-.24-.1,1.54,1.54,0,0,0-.28-.18c.05-.09.15-.11.28-.08M8.1,23.4a.48.48,0,0,1,.23-.08.68.68,0,0,1,.31,0s-.15.08-.41.13Zm.41.52a.58.58,0,0,1-.38.1L8,24a.48.48,0,0,1,.23-.24.61.61,0,0,1,.36-.1l.13,0,0,.07a.59.59,0,0,0-.24.16m6.74-1.81,0,.05-.28.21,0,0s0-.08.08-.13a.29.29,0,0,1,.21-.1m.31.28v.08s-.06.11-.18.23l-.08-.05c0-.16.07-.24.2-.26Zm11-6.24a.29.29,0,0,1-.23,0l.29-.31a.14.14,0,0,1,.07.13c0,.07,0,.12-.13.15m.11.34a.23.23,0,0,1-.11,0,.4.4,0,0,1,.52-.2.64.64,0,0,1-.41.23M18.17,23.3c-.05.15-.13.2-.23.13l.18-.21h0s0,0,0,.08m8.29.18a.65.65,0,0,1-.29.05l-.26,0-.05-.07.13-.11h.36l.16.08-.05.08m-.55.46a.41.41,0,0,1-.26-.12c.19-.07.32-.06.39.05a.19.19,0,0,1-.13.07m-2.15,3.19a.1.1,0,0,1-.1.05c-.05,0-.16-.08-.31-.23s-.21-.23-.21-.26l0-.05a1.71,1.71,0,0,1,.62.44s0,.05,0,.05m-.41.26a.8.8,0,0,1-.26-.18c-.14-.14-.21-.25-.21-.34l.08,0a2,2,0,0,0,.47.39v.13s0,0-.08,0m-5.52,4.74a3,3,0,0,1,.24.38l0,.08a.76.76,0,0,1-.39-.31,2,2,0,0,0-.18-.36l.05,0a.48.48,0,0,1,.31.24m-.85.2L16.93,32c.19-.08.33.08.41.49,0,.07-.07.11-.13.11s-.18-.1-.23-.29m-6.16-3.21,0,.08a.53.53,0,0,1-.23.21.66.66,0,0,1-.24.08l-.05,0a.55.55,0,0,1,.47-.34m25.47-9.24a.55.55,0,0,1,.24-.31c.14-.1.2-.08.2.08s-.14.14-.44.23m.81,0-.57.37a.18.18,0,0,1-.11-.16q0-.11.21-.18a1.74,1.74,0,0,1,.47,0m-9.66,2.39.39,0,0,0-.07.06h-.31ZM31,25.29a.11.11,0,0,1,.05-.1l0,0c.13,0,.19.05.19.16s0,.13-.06.13,0,0-.05,0a.15.15,0,0,1-.15-.08Zm.57-.26a.13.13,0,0,1-.08.13A.23.23,0,0,1,31.3,25l0-.05ZM38,31.17l0,.08-.15.07c-.05,0-.08-.07-.08-.18Zm.15,1.06-.18,0-.18,0,0-.13a.33.33,0,0,1,0-.1,1.87,1.87,0,0,1,.36,0l0,.08Zm-8.54-.6,0,0v.08c0,.08-.06.15-.23.2l-.08-.07c.12-.13.22-.19.29-.19m-.21-.31a2,2,0,0,1-.65.37l0-.08.28-.18a.84.84,0,0,1,.29-.16Zm7.25,3.11c-.1,0-.22-.11-.36-.34a1.25,1.25,0,0,1-.16-.38c.11,0,.31.2.6.62v.07s0,0-.08,0m-.72-.34a1.31,1.31,0,0,0,.15.39l-.1.11a3.82,3.82,0,0,1-.34-.76s0-.07.05-.07l0,0a.58.58,0,0,1,.21.36"/></g></svg>