<svg xmlns="http://www.w3.org/2000/svg" xmlns:xlink="http://www.w3.org/1999/xlink" viewBox="0 0 66 66"><defs><style>.cls-1{fill:none;}.cls-2{fill:#d1b337;}.cls-10,.cls-2,.cls-3,.cls-4,.cls-5,.cls-6,.cls-7{fill-rule:evenodd;}.cls-3{fill:#ffac00;}.cls-4{fill:#fcd842;}.cls-5{fill:#ce3b28;}.cls-6{fill:#e29814;}.cls-7{fill:#b5cff4;}.cls-8{clip-path:url(#clip-path);}.cls-9{opacity:0.5;}.cls-10{fill:#fff;}</style><clipPath id="clip-path"><path class="cls-1" d="M28,31.58Q21.75,34.07,21.75,38a4.45,4.45,0,0,0,1.12,3.26,3.5,3.5,0,0,0,1,.72,7.44,7.44,0,0,0,1.09.08,23.18,23.18,0,0,0,5.26-1.26A26.93,26.93,0,0,1,35,39.53a9.11,9.11,0,0,1,2.92.65,24.37,24.37,0,0,1,4.29,1.73,30.61,30.61,0,0,0,3.16,1.37,5.64,5.64,0,0,0,1.48.23,4.4,4.4,0,0,0,3.69-1.92,5.42,5.42,0,0,0,1.17-3.23A6.88,6.88,0,0,0,50,34.07q-1.53-2-5.89-3.57A24.06,24.06,0,0,0,41.47,30c-2.31-.27-3.73-.4-4.26-.4A24.91,24.91,0,0,0,28,31.58"/></clipPath></defs><title>Plan de travail 24</title><g id="objet03"><path class="cls-2" d="M22.34,43.92s-.85,5,6.38,7.37,33,3.92,32.1,1l.63-4.82A50.94,50.94,0,0,1,50,48.9c-7.33.11-20.06-.95-23.46-5Z"/><path class="cls-3" d="M21.36,45.39l0,0c-.1-.08-.41-.34-.9-.78a5.34,5.34,0,0,1-1.31-2.41c-.06-.19-.21-.76-.43-1.7a19.07,19.07,0,0,1,0-5.08,6.85,6.85,0,0,1,3.44-5.51A23.3,23.3,0,0,1,28,27.3a15.9,15.9,0,0,1,2.34-.68L32,26.31q2.77-.46,6-.76a19.9,19.9,0,0,1,8.35,1q4.07,1.39,4.32,1.56a11.63,11.63,0,0,1,1.22.88,16.09,16.09,0,0,1,2.76,3.1,10.1,10.1,0,0,1,2.15,5.67,10.75,10.75,0,0,1-.43,3l-.92-.83a35,35,0,0,1-2.23,3.45c-.56.79-1.06,1.48-1.49,2.05l1.2.84a7.56,7.56,0,0,1-5.32,2.55,8.77,8.77,0,0,1-1.58-.23,20.48,20.48,0,0,1-7-3,11.53,11.53,0,0,0-4.46-1.59,11.81,11.81,0,0,0-4.32.67c-1.67.54-3.24,1-4.69,1.48a3.94,3.94,0,0,1-2.88-.2,2.15,2.15,0,0,1-1.32-.5"/><path class="cls-4" d="M32.84,17.38c.57.08,1.17.19,1.79.34a12.58,12.58,0,0,1,2.22.77c-.75,1.14-1.53,2.35-2.33,3.64C33.84,23.22,33,24.62,32,26.31l-1.66.31A16.37,16.37,0,0,0,28,27.3q1.77-3.91,4.37-9l.47-.91M19.17,42.18a5.34,5.34,0,0,0,1.31,2.41c.49.44.8.7.9.78l0,0-.15.3a68.85,68.85,0,0,1-4.7,7.84q-2.63,3.53-5.81,3.52a7.18,7.18,0,0,1-3.86-1A3.82,3.82,0,0,1,5,52.67a20.42,20.42,0,0,1,.23-2q.17-1.14.27-1.92a16.75,16.75,0,0,0,3.19-.28,6.33,6.33,0,0,0-.52,1.46A5.24,5.24,0,0,0,8,51a4.26,4.26,0,0,0,.4,1.94,1.65,1.65,0,0,0,1.52,1c1.13,0,2.62-1.27,4.49-3.81a67.91,67.91,0,0,0,4.78-7.89"/><path class="cls-5" d="M36.85,18.49a12.58,12.58,0,0,0-2.22-.77c-.62-.15-1.22-.26-1.79-.34Q35.69,11.86,37.48,9a6,6,0,0,1,3.22,1.7,6,6,0,0,1,1,1.22,79.07,79.07,0,0,0-4.84,6.62m-28.21,30a16.75,16.75,0,0,1-3.19.28h0c-.9,0-1.41,0-1.52,0a1.18,1.18,0,0,1-.66-.57,2,2,0,0,1-.16-.24A.56.56,0,0,1,3,47.63.78.78,0,0,1,3.37,47a1.51,1.51,0,0,1,.8-.2,1.42,1.42,0,0,1,.72.31A2,2,0,0,0,6,47.35a6.2,6.2,0,0,0,2.23-.57,5.83,5.83,0,0,1,2-.6h.66c.21,0,.32.25.32.6,0,.68-.69,1.2-2.07,1.54l-.51.12"/><path class="cls-6" d="M57.7,41.91l-1.28-1.16a10.75,10.75,0,0,0,.43-3,10.1,10.1,0,0,0-2.15-5.67A16.09,16.09,0,0,0,51.94,29l.13.07a14,14,0,0,1,4,4,10.1,10.1,0,0,1,2.15,5.66,10.48,10.48,0,0,1-.43,3l-.06.2m-35,4a3.94,3.94,0,0,0,2.88.2c1.45-.45,3-.94,4.69-1.48a11.81,11.81,0,0,1,4.32-.67A11.53,11.53,0,0,1,39,45.53a20.48,20.48,0,0,0,7,3,8.77,8.77,0,0,0,1.58.23A7.56,7.56,0,0,0,53,46.26l1.33,1A7.57,7.57,0,0,1,49,49.75a8.06,8.06,0,0,1-1.57-.23,21.38,21.38,0,0,1-7-3l0,0a11.19,11.19,0,0,0-4.44-1.59,11.46,11.46,0,0,0-4.32.69c-1.68.54-3.25,1-4.7,1.46a4.2,4.2,0,0,1-4.22-1.2"/><path class="cls-4" d="M56.42,40.75l1.28,1.16,2.07,1.86c1.14,1.06,2.22,2.06,3.23,3l-1.2,2.88c-.35.9-.68,1.77-1,2.6-1.76-1.45-3.21-2.61-4.35-3.46q-1.11-.84-2.16-1.59l-1.33-1-1.2-.84c.43-.57.93-1.25,1.49-2.05a35,35,0,0,0,2.23-3.45l.92.83"/><path class="cls-6" d="M23.84,42a3.79,3.79,0,0,1-2.15-1.09,4.49,4.49,0,0,1-1.11-3.26q0-3.93,6.27-6.42A25,25,0,0,1,36,29.26c.54,0,2,.13,4.27.4a16.75,16.75,0,0,1,3.29.66l.55.18A24.06,24.06,0,0,0,41.47,30c-2.31-.27-3.73-.4-4.26-.4A24.91,24.91,0,0,0,28,31.58Q21.75,34.07,21.75,38a4.45,4.45,0,0,0,1.12,3.26,3.5,3.5,0,0,0,1,.72"/><path class="cls-7" d="M23.84,42a3.5,3.5,0,0,1-1-.72A4.45,4.45,0,0,1,21.75,38q0-3.93,6.27-6.41a24.91,24.91,0,0,1,9.19-1.95c.53,0,1.95.13,4.26.4a24.06,24.06,0,0,1,2.67.47C47,31.57,49,32.76,50,34.07a6.88,6.88,0,0,1,1.63,4.29,5.42,5.42,0,0,1-1.17,3.23,4.41,4.41,0,0,1-3.69,1.92,5.64,5.64,0,0,1-1.48-.23,30.61,30.61,0,0,1-3.16-1.37,24.37,24.37,0,0,0-4.29-1.73A9.11,9.11,0,0,0,35,39.53a26.7,26.7,0,0,0-4.75,1.26,23.34,23.34,0,0,1-5.27,1.26A7.44,7.44,0,0,1,23.84,42"/><g class="cls-8"><g class="cls-9"><path class="cls-10" d="M38.3,33.09a7.71,7.71,0,0,0,3.09,1.18A3,3,0,0,0,44.08,33a3.45,3.45,0,0,0,.46-1.81,7.23,7.23,0,0,0-.78-3l-.14-.32a1.32,1.32,0,0,1,.26-.42.83.83,0,0,1,.78-.28c.32.41.7.89,1.14,1.42A11.42,11.42,0,0,1,48.06,35a4.39,4.39,0,0,1-.33,1.8l-.1.18a2.8,2.8,0,0,1-1.39,1.17,20.85,20.85,0,0,1-2.58.69,4.92,4.92,0,0,1-3.82-1.06c-1.39-1-2.31-1.58-2.75-1.85a5.78,5.78,0,0,0-2.17-.6,2.92,2.92,0,0,0-2.61,1c-.73.78-.84,2-.34,3.68a10.87,10.87,0,0,0,1.17,3,5.07,5.07,0,0,1-1.49,1.48,6.05,6.05,0,0,1-3.07,1.27,12.28,12.28,0,0,1-.88-4.76,14,14,0,0,1,.69-4.76,6.07,6.07,0,0,1,6.18-4.26,8,8,0,0,1,3.73,1.17"/></g></g></g></svg>