<svg xmlns="http://www.w3.org/2000/svg" viewBox="0 0 66 66"><defs><style>.cls-1{fill:#eab2b2;}.cls-1,.cls-2,.cls-3,.cls-4,.cls-5,.cls-6{fill-rule:evenodd;}.cls-2{fill:#b7afa7;}.cls-3{fill:#87827e;}.cls-4{fill:#e5dfd6;}.cls-5{fill:#e24324;}.cls-6{fill:#cec5ba;}</style></defs><title>Plan de travail 27</title><g id="objet03"><path class="cls-1" d="M35.88,39.58c.28-.6.56-1.27.84-2a8.83,8.83,0,0,1,1.36-.09q3.47-.09,4.5-1.41A8.12,8.12,0,0,0,44,33.63c.5-1.62.88-2.78,1.13-3.47a.12.12,0,0,1,0-.09,3.59,3.59,0,0,1,.61-1.83c.32-.4,1.38-.75,3.19-1A32.23,32.23,0,0,1,55.6,27q3.93.24,6.6,5.16A7.19,7.19,0,0,1,63,35.6a14.68,14.68,0,0,1-1.83,6.51q-2.85,5.61-8.33,5.62a49.32,49.32,0,0,1-8.06-1.36A50,50,0,0,0,37.15,45a2.67,2.67,0,0,0-1.83.66c-.38.31-.56.54-.56.7a5.86,5.86,0,0,0,.93,1.78,5.23,5.23,0,0,1,.89,2.57,1.15,1.15,0,0,1-1,1.27,3.88,3.88,0,0,0-1.22.33c-.12.06-.38-.1-.79-.47s-.69-.56-.84-.56a.81.81,0,0,0-.8.47,3.28,3.28,0,0,1,0-.47.87.87,0,0,1,.24-.71,1.33,1.33,0,0,1,.56-.09.62.62,0,0,1,.56.19,1.76,1.76,0,0,0,.7.42,2.08,2.08,0,0,0,.94.14,1.08,1.08,0,0,0,.7-.52,1.41,1.41,0,0,0,.28-.79,1,1,0,0,0-.37-.75,2.61,2.61,0,0,0-.66-.61c-1.06-.69-1.59-1.26-1.59-1.73a2.9,2.9,0,0,1,.7-1.92,3.71,3.71,0,0,1,3-1.17c.91,0,2.2.07,3.89.23q10,3.14,14.1,2.11A6.52,6.52,0,0,0,60,41.36a14.51,14.51,0,0,0,.7-5.72,9.53,9.53,0,0,0-1.59-3.7c-.85-1.15-2.39-2-4.64-2.48a9.43,9.43,0,0,0-6.14.52,8.19,8.19,0,0,0-.93,2c-.72,1.94-1.18,3.13-1.36,3.56q-2.11,4.64-6,4.64c-2.31,0-3.64-.13-4-.38l-.09-.18"/><path class="cls-2" d="M11,35.83q-1,0-1.83-1.59L8.53,32.6q0-3.37,2.57-2.39c1.72.66,2.58,1.67,2.58,3Q12.27,35.83,11,35.83"/><path class="cls-3" d="M3.33,40.94a.32.32,0,0,0-.1-.14A15.6,15.6,0,0,0,4.87,40q.94-.51,1.5-.75v.14c-.22.13-.59.36-1.12.71a7.15,7.15,0,0,1-1.92.89m2.81-2.49a.32.32,0,0,0,.05.19A9.63,9.63,0,0,1,5,39.11a9.34,9.34,0,0,1-2,.56.14.14,0,0,1,0-.09c.59-.25,1.64-.63,3.14-1.13M5.86,38l0,.05-2.76.84c0-.06,0-.09,0-.09A20.87,20.87,0,0,1,5.86,38"/><path class="cls-4" d="M5.11,39.62c-.94-.87-1.41-1.6-1.41-2.2,0-1.18.56-1.78,1.69-1.78a12.74,12.74,0,0,1,1.73.28,12.56,12.56,0,0,0,1.69.29c3,0,4.78-2,5.34-5.95q0-6.09-.05-6.51,0-6.09,4.26-8.62,3.75-2.25,9.37-1A19.06,19.06,0,0,1,37.1,19a12.23,12.23,0,0,1,4.26,9.09q0,.27-.42,6.08-1.12,5.67-5,5.67l-8.52-.56a31.67,31.67,0,0,0-9.93,1.22,20.37,20.37,0,0,1-6.37,1.17,8.37,8.37,0,0,1-6-2"/><path class="cls-1" d="M6.65,36a5.42,5.42,0,0,1-.14,1.36l-.14.28A2.19,2.19,0,0,1,5,38.45l-.7.19a1.93,1.93,0,0,1-.65-.89,4,4,0,0,1-.43-2c0-.85.33-1.27,1-1.27a15.37,15.37,0,0,0,2.43,1.36Z"/><path class="cls-5" d="M11.34,35.69a.44.44,0,0,1,.42.51.9.9,0,0,1-.14.43.53.53,0,0,1-.38.23c-.12-.37-.23-.69-.32-.94a.34.34,0,0,1,.42-.23m1.21,1.64a.11.11,0,0,0,0-.09,1.94,1.94,0,0,1,1.69-1h.28a.23.23,0,0,1,0,.15.62.62,0,0,1-.19.42,4.35,4.35,0,0,0-.47.32,3.45,3.45,0,0,1-1.36.24Z"/><path class="cls-6" d="M18.36,31.1q3.09-1.37,3.09,1.83a4.32,4.32,0,0,1-1.12,2.76,4.14,4.14,0,0,1-3.28,1.64,1.66,1.66,0,0,1-1.64-.84l-.19-.85a4.67,4.67,0,0,1,3.14-4.54"/><path class="cls-6" d="M19.58,14.52a9.75,9.75,0,0,1,.14,1.26l-.09.14a1.68,1.68,0,0,1-.66-1,3.69,3.69,0,0,1-.19-.93l.1-.24c.37,0,.61.24.7.8M17,15.17v.05h.09c.28.06.44.34.47.84l-.14.14c-.09,0-.2-.18-.33-.46l-.14-.38c0-.12,0-.19.05-.19m23.18,4.64V20c0,.19-.62.79-1.87,1.83L38,21.68a2.41,2.41,0,0,1,.75-1,3.34,3.34,0,0,1,1.36-.84Zm-14.42.75a.49.49,0,0,1,.18-.09.92.92,0,0,1,.14.42.68.68,0,0,1-.14.51.82.82,0,0,1-.28-.56.36.36,0,0,1,.1-.28m11.85.14-.24-.14a1.72,1.72,0,0,1,.42-.61.74.74,0,0,1,.66-.37v.09c0,.31-.28.66-.84,1m-10.07,2-.05-.14c-.06.12-.09.08-.09-.14s.14-.17.42-.33a1.46,1.46,0,0,1,.65-.19l.05.24c0,.15-.25.34-.75.56Zm2.34,12.46a1.68,1.68,0,0,0,.33-.33q.18-.13.51.09V35a.52.52,0,0,1-.37.47l-.43-.1Z"/><path class="cls-3" d="M7.87,39.62,8,39.53a29.87,29.87,0,0,1,3,2.67.14.14,0,0,0-.09,0,16.53,16.53,0,0,1-2.95-2.63M9,39.48v-.14a8.92,8.92,0,0,1,1.64.85c.44.28,1.09.68,2,1.21a.16.16,0,0,0-.05.1,19.3,19.3,0,0,1-2.11-1.08c-.59-.37-1.07-.69-1.45-.94m-.37-.93a.33.33,0,0,1,0-.14,19.84,19.84,0,0,1,4.69,1.17.41.41,0,0,0-.05.18c-1.59-.46-3.15-.87-4.68-1.21"/></g></svg>