<svg xmlns="http://www.w3.org/2000/svg" viewBox="0 0 66 66"><defs><style>.cls-1{fill:#226e8c;}.cls-1,.cls-2,.cls-3,.cls-4,.cls-5{fill-rule:evenodd;}.cls-2{fill:#61b1e2;}.cls-3{fill:#438baf;}.cls-4{fill:#f9b341;}.cls-5{fill:#dd8f1d;}</style></defs><title>Plan de travail 22</title><g id="objet03"><path class="cls-1" d="M3.27,32.76S20.72,64.56,44.18,63C44.18,63,68.77,26,3.27,32.76Z"/><path class="cls-2" d="M44.18,55.9c.29.36.8.89,1.52,1.61.43.59.79,1.11,1.07,1.57a1.1,1.1,0,0,0,.15-.54q0-2.55-3-5.9c-.07-.09-.15-.17-.22-.25a51.83,51.83,0,0,0-8.33-6.89c-1.39-1-2.91-2-4.54-3Q19,35.09,12.39,32.49a24.5,24.5,0,0,0-3.31-1.1,7.3,7.3,0,0,0-3.83.09l1.38.59,1.17.57-4.53.12A4.71,4.71,0,0,1,3,31.19a8.64,8.64,0,0,1,.37-2.62Q15.81,25,28.1,20.21,48.2,12.32,60.82,3.42C62,2.69,62.76,2.88,63,4V4l-.1.89q-.43,4.24-1,9.48c-.09.76-.18,1.53-.27,2.33q-1.58,13.88-8,32.79Q51.4,56,49.08,61.75a.88.88,0,0,0,0,.15c0,.06-.05.11-.07.17a21.82,21.82,0,0,1-4.78.88h0C44.23,59.75,44.24,57.4,44.18,55.9Z"/><path class="cls-2" d="M3.27,32.69s1.31,4.31,8,11.59a33.49,33.49,0,0,1-3.93-12S4,31.37,3.27,32.69Z"/><path class="cls-3" d="M43.93,52.64q3,3.34,3,5.9a1.1,1.1,0,0,1-.15.54c-.28-.46-.64-1-1.07-1.57-.72-.72-1.23-1.25-1.52-1.61ZM12.39,32.49l-1.2.07-3.39.08-1.17-.57-1.38-.59a7.3,7.3,0,0,1,3.83-.09A24.5,24.5,0,0,1,12.39,32.49Z"/><path class="cls-3" d="M61.63,16.73q-1.58,13.88-8,32.79Q51.4,56,49.08,61.75a.88.88,0,0,0,0,.15c0,.06-.05.11-.07.17a21.59,21.59,0,0,1-4.73.88h0c.09-2.84.08-5.19,0-7.05l-.2-3.26c-.07-.09-.15-.17-.22-.25a51.83,51.83,0,0,0-8.33-6.89A98,98,0,0,0,47.46,34.72Q57.38,24.46,61.9,14.4C61.81,15.16,61.72,15.93,61.63,16.73Z"/><path class="cls-3" d="M32.35,61A27.72,27.72,0,0,0,44.28,62.9a28,28,0,0,0,1.46-2.58c0-.8.06-1.37.06-1.37A46,46,0,0,1,32.35,61Z"/><path class="cls-4" d="M43,13.58c2.88.35,4.3,1.36,6.77,3q.87.61,3.48,2.82c-.45.72-2.26,2.45-5.44,5.17-1.05.9-2,1.67-2.79,2.33-.55.43-1.05.81-1.5,1.13a9.68,9.68,0,0,1-2.28,1.35c-.17-.17-.35-.33-.54-.49-3.1-2.65-7.94-6.51-13.45-8.55C30.27,19.15,39.31,15.52,43,13.58Z"/><path class="cls-5" d="M35.65,23.2a.4.4,0,0,0,.34.05c.07,0,.1.16.1.39a5.59,5.59,0,0,1-1,1,11.15,11.15,0,0,1-1.47,1.18,1.19,1.19,0,0,1-.4-.25.63.63,0,0,1-.19-.54c0-.29.28-.63.83-1A6.06,6.06,0,0,1,35.65,23.2Zm16.61-8.87s.05.18.05.44a11.07,11.07,0,0,1-1.81,1.67,19.28,19.28,0,0,1-2.16,1.66H47.9c-.1,0-.14-.16-.14-.39,0-.42.53-1,1.61-1.72C51.1,14.88,52,14.31,52,14.28A.93.93,0,0,0,52.26,14.33ZM50,23.49a6.71,6.71,0,0,1-1.81-2c.26-.19,1.06,0,2.4.74s2.06,1.29,2.06,1.81a1.56,1.56,0,0,1,0,.44c.08.13-.08.2-.46.2A4.57,4.57,0,0,1,50,23.49Zm-1.72-7.64a4.32,4.32,0,0,1-1.66,1,1.48,1.48,0,0,1-.49,0v-.05l-.1-.05a.82.82,0,0,1,0-.39c0-.23.46-.66,1.37-1.28A9.35,9.35,0,0,1,49,14a.8.8,0,0,1,.64.49C49.58,14.72,49.14,15.16,48.29,15.85Zm-4.85,9.8c.85.07,2.29,1,4.32,2.75-.27.45-.5.68-.69.68-.52,0-1.24-.46-2.16-1.37a11,11,0,0,1-1.57-1.86Zm5.79.88c-1.93-.62-3-1.42-3.29-2.4a3.22,3.22,0,0,1,2.16.64A4.16,4.16,0,0,1,49.81,26c0,.2,0,.31-.05.35S49.52,26.53,49.23,26.53Z"/></g></svg>