<svg xmlns="http://www.w3.org/2000/svg" viewBox="0 0 66 66"><defs><style>.cls-1{fill:#e0271e;}.cls-1,.cls-2,.cls-3,.cls-4{fill-rule:evenodd;}.cls-2{fill:#b51818;}.cls-3{fill:#efd9bd;}.cls-4{fill:#cc1717;}</style></defs><title>Plan de travail 14</title><g id="objet02"><path class="cls-1" d="M13.9,29c-.21-1.11.91-2.09,3.38-2.92a44,44,0,0,1,7-1.38,94.32,94.32,0,0,1,13.33-.47q8.81.3,12,1.45T51.9,29a7.27,7.27,0,0,1-2.12,3c.15,2,.26,3.39.3,4.2.06,1.36.06,3.25,0,5.65q0,3.13.25,15.4.49,4.57-17,5T15.88,55.44q.45-13.56.45-19.95a8.17,8.17,0,0,1,.17-1.75,9.19,9.19,0,0,0-1.25-1.8,6.7,6.7,0,0,1-1.35-3"/><path class="cls-2" d="M17.08,27.81a9.7,9.7,0,0,1,1.45-.72,2.46,2.46,0,0,1,.35-.13l.45-.05a3.39,3.39,0,0,1,1.1-.17c.05.38.37.74.95,1.07v0l.12.05a10.81,10.81,0,0,0,2.13.8,32.51,32.51,0,0,0,8.3.9,27.66,27.66,0,0,0,8-.8A4.5,4.5,0,0,0,41,28.24a1.8,1.8,0,0,0,.93-.65,2.06,2.06,0,0,0,.4-1.2,2.35,2.35,0,0,0-.08-.6.54.54,0,0,1,.45.07,10.24,10.24,0,0,1,2.08.1,9.69,9.69,0,0,1,3,.78,1.53,1.53,0,0,1,1.07,1.75q-.21,1.16-4.77,2a83.64,83.64,0,0,1-9.2,1.23h-5.2q-13-1.15-13-3a1.25,1.25,0,0,1,.45-.93"/><path class="cls-3" d="M22.28,4.86c.59-.23,1.94-.52,1.52-.45a84.38,84.38,0,0,1,17.5-.35c-.24,0,.52.1.83.18a7.62,7.62,0,0,1,2.45.9,4.35,4.35,0,0,1,2,3.3,58.14,58.14,0,0,1,.7,6.6v7.65A9,9,0,0,0,47.43,24a5.78,5.78,0,0,1-.13,1.2A6.48,6.48,0,0,0,46,25a4.54,4.54,0,0,0-.6,0c0-.9,0-1.6-.1-2.1v-7.6l-.6-5.4a4.51,4.51,0,0,0-2.55-3.4,1.19,1.19,0,0,0-.33-.18c-5.45-1.52-15.24-1.09-18.27,0l-.35.2A5.84,5.84,0,0,0,20.7,8.94,8.09,8.09,0,0,0,20,11.61c-.07.82-.1,1.68-.1,2.58q0,2.3.27,9.9.2,5.44.28,7.8a4.08,4.08,0,0,0,1.05.55.89.89,0,0,1,.75.8,1.56,1.56,0,0,1,.05.4c0,.7-.62,1-1.85,1a2.36,2.36,0,0,1-2.25-1,2.22,2.22,0,0,1-.3-1.15,3.48,3.48,0,0,1,.15-1.1v-6.1q-.16-1.37-.28-8c-.08-4.46-.08-7,0-7.75.21-.67.47-1.38.77-2.15S20.08,5.71,22.28,4.86Z"/><path class="cls-4" d="M16.48,34.14a3.85,3.85,0,0,1-.05-.65.8.8,0,0,1,.2.15c.43.3.81.55,1.15.75a1.73,1.73,0,0,1,.45.85c-.3.06-.74-.15-1.3-.65a3.15,3.15,0,0,1-.45-.45m3.8,1.75.35.25c.13.1.51.08,1.15,0a.48.48,0,0,1,.2.3c-.07.16-.3.25-.7.25-.57,0-.9-.09-1-.25a4.71,4.71,0,0,0-.1-.5Zm.5.15-.2-.3a2.52,2.52,0,0,0,2-1.35,8.83,8.83,0,0,0,.35-1.45,5.46,5.46,0,0,1,.25.9,2.47,2.47,0,0,1-.4,1.25,1.79,1.79,0,0,1-1.55.95Zm3.15-1.55s-.05-.09-.05-.25.1-.2.3-.4a1.35,1.35,0,0,1,.65-.35s0,0,.05,0,.05.06.05.2-.29.51-.85.85a.21.21,0,0,1-.15,0m1.3,1a.62.62,0,0,1,.55-.7c.36-.07.55.08.55.45s-.2.75-.6.75a.44.44,0,0,1-.5-.5m-5.7,17.05a1,1,0,0,1-.4.7,1.62,1.62,0,0,1-.6.35c-.2-.07-.3-.19-.3-.35s.13-.32.4-.55a1.51,1.51,0,0,1,.8-.5.78.78,0,0,0,.1.35m-.5,1.1c.16-.27.28-.4.35-.4a.27.27,0,0,1,.3.3.84.84,0,0,1-.2.5.93.93,0,0,1-.4.3l-.3-.15a1,1,0,0,1,.25-.55m1.3.9a.83.83,0,0,1-.45.65c-.1,0-.15-.14-.15-.4s.13-.65.4-.75a.59.59,0,0,1,.2.5M47.88,31.24a.43.43,0,0,1-.45.3q-.36,0-.45-.45v-.4q0-1.26.45-1.05t.45,1.05Zm1.95.8v.1a.79.79,0,0,0,.05.3,7.15,7.15,0,0,1-3,1.2c-.17,0-.25,0-.25,0l0-.05a6,6,0,0,1,2.1-1.1c.4-.17.75-.3,1-.4m-3-1.05-.1.85-.2.15h-.2s0-.09,0-.25c.16-.54.26-.9.3-1.1h.15a.65.65,0,0,1,.1.35M44,32.49c.3-.34.46-.54.5-.6a.46.46,0,0,0,.2.05.4.4,0,0,1,0,.25.57.57,0,0,1-.45.55ZM41.43,46.74a2.46,2.46,0,0,1-.7.1s0-.07,0-.3.15-.42.45-.45a.36.36,0,0,1,.3.35Zm-.3,1.6c0-.17.26-.32.8-.45,0,0,0,.06.1.1s0,.06,0,.2c0,.3-.17.45-.5.45h-.4a.79.79,0,0,1,0-.3"/></g></svg>