<svg xmlns="http://www.w3.org/2000/svg" viewBox="0 0 66 66"><defs><style>.cls-1,.cls-4{fill:#d9958c;}.cls-1,.cls-2,.cls-3,.cls-5,.cls-6{fill-rule:evenodd;}.cls-2{fill:#ffafa5;}.cls-3{fill:#fff;}.cls-5{fill:#6d6154;}.cls-6{fill:#453d35;}</style></defs><title>Plan de travail 59</title><g id="objet06"><path class="cls-1" d="M6.1,22q-2.68-3.11-2.6-5.22c.14-3.23,2-4.68,5.44-4.37q4.47.42,11.42,4.4a65.23,65.23,0,0,1,11.26,8.17c1.52,1.4,3.94,3.94,4.2,4.14a3.48,3.48,0,0,1,1.31,3.09,9.43,9.43,0,0,1-1,3.67,21.93,21.93,0,0,1-3.52,5.23,18.39,18.39,0,0,1-15.11,6.3c-3.7-.15-6.28-.87-7.73-2.14a3.31,3.31,0,0,1-1.26-2.75c.09-2,1.53-4,4.33-6a17.65,17.65,0,0,1,9.8-3.17c-1-.52-2.13-1.13-3.37-1.83Q13,28,11.46,26.85A34.16,34.16,0,0,1,6.1,22m53.67-8.49c2.62,0,3.86,1.6,3.72,4.9q-.16,3.91-4.41,9.08a16.9,16.9,0,0,1-9,6,20.44,20.44,0,0,1,6.55,5.86,28,28,0,0,1,3.27,5.29A8.88,8.88,0,0,1,60.93,48a8.39,8.39,0,0,1-.62,3.31C59.43,53,57.64,53.77,55,53.66q-6.51-.27-12.09-7.84a34.41,34.41,0,0,1-5.55-10.63C36.63,33,38,29,38,29q.06-1.44,4.14-5.24A57,57,0,0,1,51,16.89q5.51-3.41,8.74-3.42"/><path class="cls-2" d="M5.1,22q-2.68-3.11-2.6-5.22c.14-3.23,2-4.68,5.44-4.37q4.47.42,11.42,4.4a65.23,65.23,0,0,1,11.26,8.17c1.52,1.4,3.94,3.94,4.2,4.14a3.48,3.48,0,0,1,1.31,3.09,9.43,9.43,0,0,1-1,3.67,21.93,21.93,0,0,1-3.52,5.23,18.39,18.39,0,0,1-15.11,6.3c-3.7-.15-6.28-.87-7.73-2.14a3.31,3.31,0,0,1-1.26-2.75c.09-2,1.53-4,4.33-6a17.65,17.65,0,0,1,9.8-3.17c-1-.52-2.13-1.13-3.37-1.83Q12,28,10.46,26.85A34.16,34.16,0,0,1,5.1,22m53.67-8.49c2.62,0,3.86,1.6,3.72,4.9q-.16,3.91-4.41,9.08a16.9,16.9,0,0,1-9,6,20.44,20.44,0,0,1,6.55,5.86,28,28,0,0,1,3.27,5.29A8.88,8.88,0,0,1,59.93,48a8.39,8.39,0,0,1-.62,3.31C58.43,53,56.64,53.77,54,53.66q-6.51-.27-12.09-7.84a34.41,34.41,0,0,1-5.55-10.63C35.63,33,37,29,37,29q.06-1.44,4.14-5.24A57,57,0,0,1,50,16.89q5.51-3.41,8.74-3.42"/><path class="cls-3" d="M18.68,25.08a1.86,1.86,0,0,1-.53,1.16,2.11,2.11,0,0,1-1.73.67A1.57,1.57,0,0,1,14.83,26c-.05-.57-.08-.87-.08-.9.06-1.35.74-1.92,2-1.69s1.93.78,1.89,1.67M54,26.17a2.59,2.59,0,0,1-2.8,2.4,1.88,1.88,0,0,1-1.71-.92,7.22,7.22,0,0,1-.29-.86c0-1.43.89-2.26,2.51-2.49S54,24.67,54,26.17M50.23,39.91c2.22.51,3.29,2,3.19,4.39a3.09,3.09,0,0,1-.59,1.61A2.3,2.3,0,0,1,50.71,47a3.69,3.69,0,0,1-3.24-2.1,4.55,4.55,0,0,1-.73-2.22,2.66,2.66,0,0,1,3.49-2.74m-30.74.62a2.83,2.83,0,0,1-.55,1.6,2.92,2.92,0,0,1-2.52.94A2.53,2.53,0,0,1,14.24,42a1.94,1.94,0,0,1-.32-1.12A2.71,2.71,0,0,1,16.81,38c1.86-.09,2.75.74,2.68,2.49"/><path class="cls-4" d="M40.5,40c0-.95.11-1.92.11-1.92l1.47-.37s-.07.89-.24,1.84Zm.07,1.28c.07.37.2.57.43.41a1.5,1.5,0,0,0,.37-.53Zm1.19-1.38-1.26.39c0,.12,0,.24,0,.36l1.15-.31C41.69,40.18,41.73,40,41.76,39.88Zm.36-10.51c.3-1.61.46-3.27.46-3.27l-1.49.57s-.2,1.74-.28,3.29Zm-.06.35-1.26.62c0,.27,0,.52,0,.75l1.08-.52C41.93,30.3,42,30,42.06,29.72Zm-1.21,2.16c.06.36.17.53.36.33a2.32,2.32,0,0,0,.4-.78Z"/><path class="cls-5" d="M42.58,26.1,41,24.85s-6.49-4.08-6.57,9.49,7.65,3.33,7.65,3.33l-1.56-.13c-2.14,2.61-5.31,2.89-4.78-4.71.38-5.44,2.77-8.16,5.35-6.16Z"/><path class="cls-6" d="M35.72,35.45c.09,4.8,1.44,4.61,3.56,4.41a6,6,0,0,0,2.8-2.19l-1.56-.13C38.66,39.8,36,40.31,35.72,35.45Z"/><path class="cls-6" d="M41,24.85a5,5,0,0,0-.52-.26,2.28,2.28,0,0,0-1.16,0c-1.32.37-2.27,2.6-2.81,4.31,1-2.67,2.73-3.67,4.58-2.24l1.49-.57Z"/><path class="cls-4" d="M29.51,40c0-.95.12-1.92.12-1.92l1.47-.37s-.07.89-.25,1.84Zm.07,1.28c.07.37.2.57.43.41a1.5,1.5,0,0,0,.37-.53Zm1.19-1.38-1.26.39c0,.12,0,.24,0,.36l1.15-.31C30.71,40.18,30.74,40,30.77,39.88Zm.37-10.51c.29-1.61.46-3.27.46-3.27l-1.5.57s-.2,1.74-.27,3.29Zm-.07.35-1.26.62c0,.27,0,.52,0,.75l1.08-.52C31,30.3,31,30,31.07,29.72Zm-1.21,2.16c.06.36.17.53.36.33a2.15,2.15,0,0,0,.4-.78Z"/><path class="cls-5" d="M31.6,26.1,30,24.85s-6.49-4.08-6.57,9.49,7.66,3.33,7.66,3.33l-1.57-.13c-2.14,2.61-5.31,2.89-4.78-4.71.38-5.44,2.77-8.16,5.35-6.16Z"/><path class="cls-6" d="M24.73,35.45c.09,4.8,1.44,4.61,3.56,4.41a6.09,6.09,0,0,0,2.81-2.19l-1.57-.13C27.67,39.8,25.05,40.31,24.73,35.45Z"/><path class="cls-6" d="M30,24.85a5,5,0,0,0-.52-.26,2.28,2.28,0,0,0-1.16,0c-1.32.37-2.27,2.6-2.81,4.31,1-2.67,2.73-3.67,4.58-2.24l1.5-.57Z"/></g></svg>