<svg xmlns="http://www.w3.org/2000/svg" viewBox="0 0 66 66"><defs><style>.cls-1{isolation:isolate;}.cls-2{fill:#232220;}.cls-2,.cls-3,.cls-4,.cls-5,.cls-6{fill-rule:evenodd;}.cls-3,.cls-5{fill:#333;}.cls-4{fill:#f8b334;}.cls-5{opacity:0.5;mix-blend-mode:multiply;}.cls-6{fill:#fc3;}</style></defs><title>Plan de travail 41</title><g class="cls-1"><g id="objet05"><path class="cls-2" d="M13.44,24.66c-1.8-3.37,43.68-1.94,38.77,3.33S16.2,29.83,13.44,24.66Z"/><path class="cls-3" d="M52.16,28.31a32.72,32.72,0,0,0-.25,4.35,38.87,38.87,0,0,0,.7,6.6c-2.69.76-6.63,1.07-11.82.9a100.81,100.81,0,0,1-16-1.77q-7.75-1.52-11-3.65a22.41,22.41,0,0,0,.47-4.13c0-.23-.16-1.85-.5-4.85l-.22-1.1c.56.54,3.19,1.42,6.85,2.07A123.43,123.43,0,0,0,43,28.88c4.53-.09,7.68-.17,9.26-.89C52.19,28.12,52.17,28.23,52.16,28.31Z"/><path class="cls-4" d="M40.11,29.51q.51,9.24-.82,12.5A1.89,1.89,0,0,1,38,43.11c-1,.2-3.42-.22-7.17-1.25S25,40,24.44,39.29A3.76,3.76,0,0,1,23.66,37a64.39,64.39,0,0,1,1-8.2q.32-1.86.6-3c.2-.68,1.49-1,3.85-1.08h3.25c3.6,0,5.92.6,7,1.7A5.57,5.57,0,0,1,40.11,29.51Z"/><path class="cls-3" d="M31.76,28.41q4.62.19,5.28.93T37.49,34c-.15,2.61-.36,4.14-.63,4.57a1.19,1.19,0,0,1-.8.4H34.41l-.25-.05-1.45,0a28.9,28.9,0,0,1-5-.85,1.51,1.51,0,0,1-1.05-1.55,36.61,36.61,0,0,1,.48-5.07c.32-2.16,1.1-3.15,2.32-3Z"/><path class="cls-5" d="M35.91,33.46a.9.9,0,0,1-.15.55.39.39,0,0,0,.15.35.88.88,0,0,0,.3-.55A.32.32,0,0,0,35.91,33.46Zm1.25.3c0,1.17-.48,1.75-1.45,1.75s-1.35-.48-1.35-1.45.47-1.65,1.4-1.65A1.19,1.19,0,0,1,37.16,33.76Z"/><path class="cls-5" d="M47.34,33.64c0,1.17-.48,1.75-1.45,1.75s-1.35-.48-1.35-1.45.47-1.65,1.4-1.65A1.19,1.19,0,0,1,47.34,33.64Z"/><path class="cls-6" d="M37,32.91a5.73,5.73,0,0,1,1.7.35.79.79,0,0,1,.4.8q0,1.35-1.65,1.35-2.4,0-2.4-1.35a1.39,1.39,0,0,1,.33-.87C35.57,32.91,36.11,32.82,37,32.91Z"/></g></g></svg>