<svg xmlns="http://www.w3.org/2000/svg" viewBox="0 0 66 66"><defs><style>.cls-1{fill:#aacde2;}.cls-1,.cls-2,.cls-4,.cls-5,.cls-6{fill-rule:evenodd;}.cls-2{fill:#e4f1f9;}.cls-3{opacity:0.5;}.cls-4{fill:#fff;}.cls-5{fill:#686766;}.cls-6{fill:#333;}</style></defs><title>Plan de travail 37</title><g id="objet04"><path class="cls-1" d="M29.71,37.82q-2.82,6.59-9,7.15-8.57.73-12.73-3.63a9.59,9.59,0,0,1-2.82-5.86,12.32,12.32,0,0,1,3.31-9.73,15.43,15.43,0,0,1,8.72-4.93A12.08,12.08,0,0,1,26.36,22q4.37,2.63,4.93,8.85a14.9,14.9,0,0,1-1.58,6.94"/><path class="cls-2" d="M15.09,20.17a12,12,0,0,1,9.21,1.21q4.41,2.67,4.93,8.85a15.3,15.3,0,0,1-1.53,7q-2.88,6.59-9.09,7.15Q10,45.05,5.88,40.69a9.66,9.66,0,0,1-2.83-5.86A12.38,12.38,0,0,1,6.37,25.1a15.62,15.62,0,0,1,8.72-4.93"/><g class="cls-3"><path class="cls-4" d="M26.22,22.9q-4.12,4.94-7.85,5a2.1,2.1,0,0,1-.58.09,1.36,1.36,0,0,1-.65-.2A6.16,6.16,0,0,1,14,26a5.78,5.78,0,0,0-3.74-1.87,10.91,10.91,0,0,0-4.48,1.66,12.28,12.28,0,0,0-2.71,9,9.09,9.09,0,0,0,1.83,4.66L5.17,39q2.46-4.55,8.51-3.27t8.94-.55q2.36-1.5,6-8.19a10.15,10.15,0,0,0-2.37-4.05"/></g><path class="cls-1" d="M42.76,23a12,12,0,0,1,8.89,1.13c2.77,1.72,4.32,4.57,4.64,8.52a14.11,14.11,0,0,1-1.49,6.63q-2.67,6.26-8.64,6.79Q38,46.83,34,42.71a9.42,9.42,0,0,1-2.71-5.65,11.84,11.84,0,0,1,3.15-9.29A14.56,14.56,0,0,1,42.76,23"/><path class="cls-2" d="M32.46,27.12a15.23,15.23,0,0,1,8.36-4.69,12,12,0,0,1,8.89,1.14q4.13,2.54,4.65,8.52a15.51,15.51,0,0,1-1.42,6.62Q50.2,45,44.26,45.5q-8.25.72-12.2-3.39a9.44,9.44,0,0,1-2.75-5.7,12,12,0,0,1,3.15-9.29"/><g class="cls-3"><path class="cls-4" d="M51.42,24.93q-4.06,4.83-7.75,4.89a2.1,2.1,0,0,1-.58.09,1.36,1.36,0,0,1-.65-.2A6.16,6.16,0,0,1,39.28,28a5.78,5.78,0,0,0-3.74-1.87,10.72,10.72,0,0,0-2.81.76l-.27.27a12,12,0,0,0-3.15,9.29,8.87,8.87,0,0,0,1.43,4c1.68-2.67,4.41-3.64,8.24-2.84,4,.85,7,.66,8.94-.54q2.32-1.48,5.86-8a9.75,9.75,0,0,0-2.36-4.13"/></g><path class="cls-5" d="M63,38.23c-.22.08-.47.17-.73.28l-.34.14c-.8-.45-1.67-.93-2.61-1.43Q56.93,36,54.72,35c.27-.35.56-.77.89-1.26,1.13.65,2.41,1.34,3.84,2.06,1,.52,2.12,1.23,3.47,2.15a.75.75,0,0,1,.08.24"/><path class="cls-6" d="M43.83,34.2a14.43,14.43,0,0,1-.6,5.13,50,50,0,0,1,6.91-.53c-3.49,1.07-5.57,1.67-6.27,1.8a77,77,0,0,0-8.07,2.46,4.73,4.73,0,0,1-.59.21l-.66.17a.94.94,0,0,1-1-1q0-1.44,5.22-2.32a35,35,0,0,1,0-3.52,4.61,4.61,0,0,1,2.6-4.34c1.54-1,2.36-.36,2.47,2"/><path class="cls-4" d="M42,33.87a3.61,3.61,0,0,1-.5,1.7q-.66,1.34-1.71,1.32a1.09,1.09,0,0,1-1.21-1.25c0-1.87.79-2.8,2.3-2.78.76,0,1.13.33,1.12,1"/><path class="cls-6" d="M18.66,32.86A13.65,13.65,0,0,1,18.53,38a3,3,0,0,0,0,.81,5.92,5.92,0,0,1,2.71.52,1.62,1.62,0,0,1,1,.85c.22.35,0,1-.65,1.86-.78-.33-2.51-.91-5.21-1.74s-5.77-1.71-9.09-2.46a2.74,2.74,0,0,1,.93-.25,31,31,0,0,1,5.9.33c-.08-.68-.15-1.44-.2-2.31A4.57,4.57,0,0,1,16,31.12q2.22-1.7,2.71,1.74"/><path class="cls-4" d="M16.6,34.47c-.35.92-.87,1.4-1.54,1.46a1.08,1.08,0,0,1-1.33-1.09c-.16-1.86.5-2.86,2-3,.75-.06,1.16.25,1.21.93a3.49,3.49,0,0,1-.32,1.69"/></g></svg>