<svg id="objet01" xmlns="http://www.w3.org/2000/svg" viewBox="0 0 66 66"><defs><style>.cls-1{fill:#cad6dd;}.cls-1,.cls-2,.cls-3{fill-rule:evenodd;}.cls-2{fill:#7daadb;}.cls-3{fill:#514d47;}</style></defs><title>Plan de travail 6</title><path class="cls-1" d="M62.29,28.22a.56.56,0,0,1,0-.08.09.09,0,0,1,0-.05Zm-15.36-16a16.2,16.2,0,0,0,1.48,1.17c.41.34,1.38,1.24,2.93,2.71l1.72-1.24c-.49.44-1,.87-1.64,1.32l1,1,1.95-1.54.07.06c-.58.5-1.22,1-1.91,1.59l2.06,2.06L57,17.65l.07.07a16.75,16.75,0,0,1-1.5,1.19,8.79,8.79,0,0,0-.74.6l1.57,1.57q2.55,2.84,4.34,5c0,.08-.05.17-.08.26L60.3,26q-2.16-2.41-3.88-4.28l-1.91-1.91a2.68,2.68,0,0,0-.3.28,17.57,17.57,0,0,1-1.48,1.27L54.17,23l1.29-1,0,0-1.23,1,.9,1a22.55,22.55,0,0,1,2.77,3.41l0,0c-1.39-1.43-2.69-2.84-3.92-4.21-.6.5-1.25,1-1.94,1.56l.73.84.71.82.28-.19a.4.4,0,0,1-.14.27l0,0q.9,1.07,1.77,2l1-.63a.39.39,0,0,0,0,.14s0,.05-.07.11-.4.36-.74.62l1,1.08,0,.13a2.3,2.3,0,0,1-.63-.53c-.16-.19-.31-.37-.47-.54q-2,1.61-7.81,5.51l0,0q1.91,2.13,3.67,4.39-1.56-1.68-3.91-4.27l-1.6,1.09-.11,0c-.06,0,0,0,.07-.11a18.63,18.63,0,0,1,1.47-1.15L44,30.94l-1.15.84-.07-.06c-.07,0-.06-.08.05-.18s.43-.37,1-.81c-.51-.58-1-1.18-1.6-1.8h0l-.09-.05,0,0-1.79-2L38.82,28l-.2,0c-.08,0-.06-.08,0-.18s.61-.51,1.52-1.22a.6.6,0,0,1-.08-.08l0-.05.09.09,3.28-2.54-.8-.87-.8.61-5.17,4.1,6,7.12.08.23c-1.11-1.09-3.21-3.36-6.27-6.81l-.23-.24q-1.48,1.18-2.4,1.95c.55.54.83.8.84.8,1,1.19,1.82,2.23,2.58,3.11l2.24,2.51,0,0-5.86-6.25L33,31l-.2-.07a2.64,2.64,0,0,1,.62-.86L31.5,28a12.38,12.38,0,0,1-1.95-2.13l2.08,2,2,2,.29-.29c.27-.27.95-.84,2-1.71l-2-2-1,.75-.07-.07a5,5,0,0,0,.87-.74l.07-.07-1.22-1.22c-.78.59-1.47,1.12-2.1,1.58l-.17.05c-.12,0-.12-.11,0-.23s.92-.8,2-1.65l-1.71-1.69c-.59.38-1.16.75-1.72,1.08l0,0c-.06,0,0,0,.07-.12a12.81,12.81,0,0,0,1.07-.8,4.46,4.46,0,0,1,.41-.34L26.69,18.6l.25-.4.35.28c.62.54,1.6,1.47,2.93,2.8l.68.68c.85-.65,2.27-1.7,4.27-3.17L37,17.46l-2.23-2.2-1.5-1.42c-.29-.28-.39-.46-.32-.53l4.35,3.94c.82-.59,1.58-1.12,2.27-1.6L37.14,13.2c-.27-.23-.94-.86-2-1.92l.15-.07c.72.69,1.38,1.3,2,1.83l2.47,2.47,1.67-1.15L41,13.89l-1.81-1.81-.27-.14a.73.73,0,0,1-.14-.18q-.14-.22-.09-.27l.68.54,2.29,2.21.95-.62,0,.09-.81.63,1.63,1.58.07-.06.07.07-.08.05,1.22,1.18c.79-.61,1.48-1.13,2.08-1.56L45.07,14a32.18,32.18,0,0,1-2.69-2.65l.07-.11,3,2.78,0-.05L47,15.39l.06,0v0l2.21,2.2,1.8-1.33-.62-.62c-.68-.65-1.37-1.3-2.06-1.92L47.44,13c-.41-.42-.59-.66-.51-.74m3.46,6.55,1.77-1.36-1-1-.36.27a14.48,14.48,0,0,0-1.37,1.14Zm3.93.8-2-2c-.54.45-1.12.91-1.74,1.4l.82.82c.17.21.52.61,1,1.21l1.91-1.39m-.91,7.18a86.74,86.74,0,0,1-7.78,5.63c.63.68,1.21,1.33,1.75,2l2.5-1.86q3.25-2.37,5.27-3.72l-1.74-2M51.83,25q-3.24,2.55-7.67,5.83c.47.49.91,1,1.33,1.42q5.26-3.87,7.8-5.62l-.65-.74c-.24-.28-.51-.57-.81-.89m2.05-1.81c-.49-.54-1-1.09-1.42-1.62-.56.44-1.22.95-2,1.52l1.42,1.6,2-1.5m-1.75-2-.81-1-1-1-2,1.55,1.79,1.95,2-1.48m-2.26,1.66c-.55-.6-1.15-1.25-1.8-1.94l-1.32,1-.49.38,1.62,2,1.6-1.17.39-.28M48.5,25.18l-.36-.41L45.9,26.36l.24.27,0,.11a1.68,1.68,0,0,1-.36-.29l-3.43,2.39c.57.61,1.12,1.19,1.64,1.76,1-.72,2.43-1.84,4.46-3.34l3.27-2.44-1.46-1.59-2,1.49.34.43q-.18.18-.06,0m-2-2.13c-.12-.13-.29-.32-.5-.57l-2.14,1.64q.59.68,1.74,1.92l2.18-1.67c-.37-.39-.79-.83-1.28-1.32m-1.74,2.42-1.09-1.2L40.4,26.8l1.85,2c.92-.79,2-1.66,3.2-2.6Zm4.32-7.33c-.12.12-.73.62-1.85,1.52l.91.86,2-1.52-.94-.94ZM47,19.84l-1.68,1.32.77.95,1.79-1.39Zm2-2L46.82,15.7c-.43.41-1.08,1-1.94,1.69l2.07,2,2-1.52m-4.58-.68-1.16-1.06A13.08,13.08,0,0,0,42,17.18a2.84,2.84,0,0,1-.31.27l1.11,1.11c.6-.47,1.15-.9,1.67-1.29Zm.69,4.17L42.9,23.07l.79.89,1.65-1.27.5-.39-.39-.48-.36-.47M45,20.82l1.69-1.26-2-2L43.1,18.84l1.77,1.77.17.21m-.37,0L42.89,19c-.64.5-1.35,1.06-2.13,1.65l.43.44c.48.56.94,1.1,1.38,1.6l.08-.05L44.82,21l-.15-.18m-3.12-6.34L40,15.7l1.56,1.56,1.66-1.21c-.64-.6-1.18-1.13-1.63-1.58m-1.78,1.38-2.15,1.68,1.53,1.52c.81-.62,1.54-1.16,2.17-1.63Zm-2.46,1.93-1.38,1.06q-2.55,1.9-4.77,3.38l1.66,1.66q1.44-1.12,3.67-2.82c.84-.65,1.62-1.24,2.33-1.77Zm-.19,3.28-4,3.09,1.2,1.19c.77-.65,2.38-1.93,4.82-3.86l1.08-.85-1.11-1.09-2,1.52m3.34-.16q-2.55,2-6,4.59l0,0,.36.5,1.53,1.52c1.42-1.13,3.43-2.68,6-4.67-.38-.41-.76-.8-1.13-1.18Zm2.15-2.17-1.09-1.11L39.39,19.3l1.1,1.1,2.12-1.67"/><path class="cls-2" d="M47.82,41.88Q40.17,44.16,34,41.16a19.15,19.15,0,0,0-3-.31A12.9,12.9,0,0,0,28.5,41l-.76.29c-.49.2-1,.45-1.68.74s-.55.29-1.38.79c-.09,0-1.67-1.65-1.75-1.59-.73-.51-.51,1.18-1,.71a3.11,3.11,0,0,0-.28-.23,12.65,12.65,0,0,0,3.1-7.43c-.09-.87-.15-1.61-.19-2.22A14.28,14.28,0,0,1,23.3,21.3a18.67,18.67,0,0,1,4.91-8.44,23.18,23.18,0,0,1,9.58-6A18.77,18.77,0,0,1,52.64,8.63Q62.6,14,63,23.59A16.11,16.11,0,0,1,61.6,30.8a15.3,15.3,0,0,1-3.34,5.13A36.32,36.32,0,0,1,54,39.17a22.17,22.17,0,0,1-6.18,2.71m8.07-8.73a11.89,11.89,0,0,0,2.19-3.74A12.14,12.14,0,0,0,59,23.79q-.5-8-9.65-12.16a14.48,14.48,0,0,0-11-.43,18.61,18.61,0,0,0-7.57,4.39A14,14,0,0,0,27,22.27q-1.62,6.48,4,12.11,6.4,6.4,15.81,3.76a21.23,21.23,0,0,0,5.56-2.4,22.07,22.07,0,0,0,3.51-2.59M30.58,39.06a21.91,21.91,0,0,1-2.26-2c-.57-.57-1.09-1.13-1.57-1.7A13,13,0,0,1,26.5,38a12.75,12.75,0,0,1-.84,2.16,10.06,10.06,0,0,1,2.19-.81,13.71,13.71,0,0,1,2.73-.32"/><path class="cls-3" d="M26.34,44.07c-.13,0-.62.17-1.49.37A6.65,6.65,0,0,0,23.5,45.6L19.07,50C16,52.6,14,54.34,13,55.23c-1.62,1.42-3.3,3-5,4.72-1.47-.2-3.11-1.66-4.95-4.39,1.14-.88,2.37-1.86,3.71-3q10.77-9.53,10.9-9.65c.84-.84,1.34-1.36,1.5-1.55a5.5,5.5,0,0,0,1.17-1.79,2.4,2.4,0,0,0,.11-.23q1.34-1,4.13,1.29c1.86,1.56,2.67,2.5,2.41,2.84a2,2,0,0,1-.59.57"/></svg>