<svg xmlns="http://www.w3.org/2000/svg" viewBox="0 0 66 66"><defs><style>.cls-1{fill:#eac353;}.cls-1,.cls-2,.cls-3{fill-rule:evenodd;}.cls-2{fill:#d1ae4a;}.cls-3{fill:#f9d970;}</style></defs><title>Plan de travail 39</title><g id="objet04"><path class="cls-1" d="M21.65,26.89a11,11,0,0,0-1.85,6.57,79.18,79.18,0,0,0,1.85,9.39s-2.35-.94-2.46,1.06a4.11,4.11,0,0,0,1.23,3.17s-2.89,3.28-1.24,4.81,4.58,0,4.58,0,.94,3.79,3.53,2.19S32.1,48.6,32.1,48.6,38.56,55.2,43,53.66s6.26-3.76,6.26-3.76V20l-6.37.59Z"/><path class="cls-2" d="M25.64,28.54s-1.53.83-2.3,4.46c-.48,2.24,1.6,6.14,1.92,10.87.62-3.95-1.16-8-.78-10.87.24-1.77,2.35-4.46,2.35-4.46Z"/><path class="cls-3" d="M22.65,10.5q6.92,2.29,10.6,2.3a17.39,17.39,0,0,0,4.32-.88,20.74,20.74,0,0,1,5.9-.88q3.33,0,4.64,1.62a2.74,2.74,0,0,1,.71,1.85c0,.13,0,.25,0,.36a2.74,2.74,0,0,1,.84-.5,5,5,0,0,1,3-.2,5.08,5.08,0,0,1,2,1.37,5.18,5.18,0,0,1,.92,1.54,11.72,11.72,0,0,1,1,3c0,.11,0,1,0,2.62a33.34,33.34,0,0,1-.8,6.35A34,34,0,0,0,55,35.87a15.8,15.8,0,0,0,.17,1.85c.11.92.17,1.48.17,1.68l.08.06a5.91,5.91,0,0,1,.74-.43,4.48,4.48,0,0,1,.89-.34h1.14c.85.17,1.28,1.08,1.28,2.74a9.15,9.15,0,0,1-.34,1.88V44c1.48,0,2.46.31,3,.94a2.51,2.51,0,0,1,.37,1.54,3.43,3.43,0,0,1-.88,2.13,4.37,4.37,0,0,1-.42.44,2,2,0,0,1,1.7.84,1.34,1.34,0,0,1,.17.94,2.43,2.43,0,0,1-.91,1.91Q60.62,54,57.2,54A5,5,0,0,1,55,53.62a2.45,2.45,0,0,0-.91-.55c-.69.94-1.11,1.49-1.26,1.66a3,3,0,0,1-2,1.22Q47.31,56,46.09,45c-.25-2.28-.41-4.78-.48-7.52,0-2.27,0-3.42,0-3.44q-.26-3-.23-6.24A31,31,0,0,1,46,21a31,31,0,0,1-5.34,3.87q-8.24,4.88-14.92,4.87a22.14,22.14,0,0,1-10.28-2.14,14.47,14.47,0,0,1-3.79-2.9A23.51,23.51,0,0,0,5.56,20,10.42,10.42,0,0,1,3,18.73,26.36,26.36,0,0,1,6.33,16a45.36,45.36,0,0,1,6.35-4.3,15.79,15.79,0,0,1,3.42-1.45,18.37,18.37,0,0,1,6.55.26"/><path class="cls-1" d="M18.83,14.54q-2.41,0-7.23,2.08c-.95.41-1.82.76-2.63,1l.2,0a18.5,18.5,0,0,1,3.71-.23,11.3,11.3,0,0,1,6.67,2.34,12.72,12.72,0,0,0,7.57,2.31,13.34,13.34,0,0,0,6-1.74q1.14-.6,5.56-3.42a18,18,0,0,1,4.87-2.39,3.57,3.57,0,0,1,3.84,1.37c-.11.32-.25.5-.4.54a1.58,1.58,0,0,0-.54-.74,1.78,1.78,0,0,0-1.17-.54,5.33,5.33,0,0,0-3.22,1.42q-2.16,2-3.47,3.1a17.11,17.11,0,0,1-11.48,4.5A13.53,13.53,0,0,1,21.06,23a17.5,17.5,0,0,1-3.45-2.51,10.45,10.45,0,0,0-3.42-2.1,11.51,11.51,0,0,0-3.47-.29,6.31,6.31,0,0,1,2.7,1.48A10.45,10.45,0,0,1,16,22.37a11.17,11.17,0,0,0,2.53,2.82c.19.08.1.12-.28.12a2.88,2.88,0,0,1-1.66-1c-.37-.39-.73-.74-1-1a6.77,6.77,0,0,0-2.19-2.17,12.49,12.49,0,0,0-1.58-.85A9.68,9.68,0,0,0,7.46,19L7,19c-.51-.08-1-.13-1.51-.18.44-.19.89-.4,1.34-.62q5.07-2.43,7-3.16a18.09,18.09,0,0,1,6.32-1.46A16.38,16.38,0,0,1,26,14.74a15.33,15.33,0,0,0,4.93,1.2,15.62,15.62,0,0,0,6.55-1.85,15.24,15.24,0,0,1,6-1.86,7.82,7.82,0,0,1,3.67,1.09l.8.41a1.41,1.41,0,0,1,.12,1.1,1.15,1.15,0,0,0-.26.28,5.68,5.68,0,0,0-1-1.31,3.27,3.27,0,0,0-2.3-.85,12.12,12.12,0,0,0-7.18,2.36,11.37,11.37,0,0,1-6.52,2.34,15.43,15.43,0,0,1-4.87-1.54,17.24,17.24,0,0,0-7.07-1.57"/></g></svg>