<svg id="objet01" xmlns="http://www.w3.org/2000/svg" viewBox="0 0 66 66"><defs><style>.cls-1{fill:#e09e34;}.cls-1,.cls-3{fill-rule:evenodd;}.cls-2{fill:#c98a2f;}.cls-3{fill:#f2b446;}</style></defs><title>Plan de travail 3</title><path class="cls-1" d="M52.4,36.39a2.36,2.36,0,0,0-2.34,0,16.58,16.58,0,0,0-4.31,3.13,20.48,20.48,0,0,0-4.43,6.06q-1.83,3.66-.76,4.81l-.82-.84A187,187,0,0,0,22.52,32.65c-2.33-2-4.47-3.79-6.4-5.31a37.89,37.89,0,0,1,2.76-5.27,31,31,0,0,1,2.59-3.52c.47-.54,1-1.07,1.46-1.57a26.92,26.92,0,0,1,3.49-3q6.75,5.16,15.19,12.57,4.62,4,10.79,9.8Z"/><path class="cls-2" d="M52.18,39.06c.09-.23.16-.46.23-.67a4.72,4.72,0,0,0,.22-1c0-.42.08-1-.23-1a2.36,2.36,0,0,0-2.34,0,16.58,16.58,0,0,0-4.31,3.13,20.48,20.48,0,0,0-4.43,6.06q-1.62,3.24-1,4.51h0a.45.45,0,0,0,.17.25l0,0,0,0,0-.05.07,0-.11,0h.15a3,3,0,0,0,1.09-.08l.06,0a6.33,6.33,0,0,0,3.27-1.55c3.73-2.74,6.17-7.92,6.52-8.58.12-.23.24-.51.36-.81.05-.11.09-.23.13-.34Z"/><path class="cls-3" d="M60,55.43q2.61-4.26-4.11-8.79Q55,46,50.28,43.31c-.61-.34-1.15-.67-1.62-1a2.14,2.14,0,0,0-1.84.94c-.47.55-1.27,1.73-1,2.39a27.47,27.47,0,0,1,4.56,5.13q3.2,4.64,4.2,5.24a4.81,4.81,0,0,0,3,.8A3,3,0,0,0,60,55.43"/><path class="cls-2" d="M52.61,37a3.36,3.36,0,0,1-.08,1A2.73,2.73,0,0,0,52.61,37Z"/><path class="cls-2" d="M52.5,36.49a.35.35,0,0,1-.1-.1,1,1,0,0,1,.12.17S52.51,36.51,52.5,36.49Z"/><path class="cls-3" d="M6.09,10.53q3.52-3.54,9.5,2c.54.5,2.05,2.08,4.55,4.72.48.5.92,1,1.33,1.35a31,31,0,0,0-2.59,3.52,27,27,0,0,0-6-3.24C9.33,17.47,7.31,16.52,6.75,16a4.88,4.88,0,0,1-1.47-2.76,3,3,0,0,1,.81-2.68"/></svg>