<svg id="objet01" xmlns="http://www.w3.org/2000/svg" viewBox="0 0 66 66"><defs><style>.cls-1{opacity:0.5;}.cls-2{fill:#cae0ea;}.cls-2,.cls-4,.cls-5,.cls-6,.cls-7,.cls-8{fill-rule:evenodd;}.cls-3{opacity:0.75;}.cls-4{fill:#e1de5c;}.cls-5{fill:#79cd8e;}.cls-6{fill:#fff;}.cls-7{fill:#d2e877;}.cls-8{fill:#94e877;}</style></defs><title>Plan de travail 7</title><g class="cls-1"><path class="cls-2" d="M28.54,31.18c0-.75.76-1.32,2.29-1.72a19.87,19.87,0,0,1,4.31-.67c1.34-.05,2,.15,1.81.6a3.37,3.37,0,0,1-1.34,1.5q.07,2,.2,8.13v3.75A21.54,21.54,0,0,0,36.2,48a8.78,8.78,0,0,0,1.9,3.32,44.66,44.66,0,0,1,2.92,4,6.3,6.3,0,0,1,1.31,3.21c0,.74-.91,1.35-2.66,1.83s-3.28.84-4.56,1.08l-4.94.89a32.87,32.87,0,0,1-5.93.64q-1.86,0-2.4-.9A2.22,2.22,0,0,1,21.65,61c0-.83.57-2,1.72-3.56q.91-1.24,2.55-3.33a18.94,18.94,0,0,1,1.42-1.74,17.79,17.79,0,0,0,1.36-1.73c.22-.36.44-.71.69-1.07a6.79,6.79,0,0,0,1-3.78c0-1-.09-2.78-.15-5.21-.14-5.51-.2-8.38-.17-8.63-.56-.26-1.06-.48-1.51-.64,0-.07,0-.11,0-.12"/></g><g class="cls-3"><path class="cls-4" d="M26.3,54.47h0l-.08.08.07-.08m14,1a5,5,0,0,1,1.27,2.45c0,.8-.49,1.36-1.46,1.68l-3.73.78q-4.35,1-6.09,1.34a34.81,34.81,0,0,1-5.88.83,4,4,0,0,1-.81-.07h0a1.7,1.7,0,0,1-1.4-.55,1.09,1.09,0,0,1-.26-.66c0-.7.59-1.87,1.77-3.49.47-.64,1.28-1.68,2.44-3.13l12.93-1.26c.34.53.51.8.52.83a7,7,0,0,0,.71,1.25"/></g><g class="cls-1"><path class="cls-5" d="M32.15,33.36q.57,0,.57.54a.44.44,0,0,1-.12.3.48.48,0,0,1-.43.22.55.55,0,0,1-.52-.26c0-.16-.07-.25-.07-.26q0-.54.57-.54m.17,15.88c0,.24-.13.35-.38.35a.33.33,0,0,1-.31-.16l-.05-.19c0-.24.13-.35.38-.35s.36.11.36.35m.28,1.65a.53.53,0,0,1-.1-.28c0-.33.19-.52.55-.57s.52.16.52.57a.48.48,0,0,1-.55.54.42.42,0,0,1-.42-.26m-.19,3.66a12.35,12.35,0,0,1-1.51.05c-.49,0-.73-.17-.73-.5,0-1,.42-1.38,1.27-1.25s1.28.54,1.28,1.25a.41.41,0,0,1-.31.45m5.07.35q0,.33-.3.33a.38.38,0,0,1-.36-.16.43.43,0,0,1,0-.19c0-.17.11-.27.35-.31s.35.1.35.33m.22,3.26c0,.22-.11.33-.31.33a.33.33,0,0,1-.31-.21l0-.14c0-.21.11-.31.33-.31s.31.11.31.33m-3.83-.42a.37.37,0,0,1-.35-.17l0-.19a.37.37,0,0,1,.4-.42c.26,0,.4.11.4.38s-.14.4-.43.4M32.53,57l0-.18c0-.16.09-.24.26-.24s.26.09.26.28-.08.31-.23.31-.23-.05-.26-.17m-5.45-.42c.41,0,.61.19.61.57a.81.81,0,0,1-.17.35.61.61,0,0,1-.47.31.59.59,0,0,1-.52-.26.87.87,0,0,1-.09-.36c0-.39.21-.59.64-.61m3.39,3.66a.34.34,0,0,1-.14.28.38.38,0,0,1-.28.12.43.43,0,0,1-.4-.19.36.36,0,0,1,0-.19c0-.27.15-.4.45-.4s.42.13.42.38"/></g><g class="cls-1"><path class="cls-6" d="M29.67,52a6.74,6.74,0,0,1,1.09-1c.27-.14.4.11.4.73q-4.45,7.53-5.92,7.53c-.54,0-.81-.19-.81-.56a5.29,5.29,0,0,1,1.44-2.39c.51-.59,1.11-1.27,1.82-2,.38-.47,1-1.22,2-2.24m-6.21,8.43c0-.43.26-.63.78-.62s.78.26.78.66-.26.52-.78.52-.78-.19-.78-.56"/></g><g class="cls-1"><path class="cls-7" d="M34.53,7.44a4.9,4.9,0,0,1,3.29-.9,4,4,0,0,1,3.89,2.67,7.75,7.75,0,0,1,.64,3,8.67,8.67,0,0,1-.48,3.12,3.89,3.89,0,0,1-4,2.69l-2.13-.21a1.8,1.8,0,0,1-.64-.12,2.63,2.63,0,0,0-.73-.14,1.14,1.14,0,0,0-1,.47,1.06,1.06,0,0,0-.21.59c0,.39.4.74,1.18,1a1.56,1.56,0,0,1,1.16,1.51c0,.6-.53,1-1.58,1.27a1.85,1.85,0,0,0-1.61,1.89c0,.84-.11,2.05-.28,3.64l-.07.07a1.17,1.17,0,0,1-.21-.87,7.1,7.1,0,0,0,.09-.95q0-1-.42-1.32A1.25,1.25,0,0,1,31,23.82a3.75,3.75,0,0,1,.14-.87A4.35,4.35,0,0,0,31.3,22a9.56,9.56,0,0,0-1.2-3.63c-.93-1.73-1.51-2.85-1.75-3.35-.13-.29-.84-1.49-2.15-3.61a6.15,6.15,0,0,1-1-3.26A4.75,4.75,0,0,1,26.6,4.63,6,6,0,0,1,29.79,3.1,5.14,5.14,0,0,1,33,3.45a2.35,2.35,0,0,1,1.44,2.2A1.7,1.7,0,0,1,33.76,7a1.56,1.56,0,0,0-.67,1c0,.2.08.3.22.3a3.69,3.69,0,0,0,1.22-.87"/></g><g class="cls-1"><path class="cls-5" d="M46.88,11.81a.51.51,0,0,1-.57.59.5.5,0,0,1-.47-.24,1.69,1.69,0,0,1-.07-.26.5.5,0,0,1,.57-.57q.54,0,.54.48M38.52,5.17a.29.29,0,0,1-.33-.33c0-.22.1-.33.31-.33s.31.09.31.31-.1.35-.29.35M43.27,4q0,.78-.57.78a.5.5,0,0,1-.49-.26l-.08-.28a.69.69,0,0,1,.57-.74c.38-.09.57.08.57.5M20,10.32c.53.06.8.33.8.8a.65.65,0,0,1-.24.47.92.92,0,0,1-.66.24.68.68,0,0,1-.59-.33.72.72,0,0,1-.14-.35c0-.6.28-.88.83-.83m7.69,12.86c.55-.11.83.1.83.62,0,1-.27,1.44-.8,1.44a.78.78,0,0,1-.78-.48c-.07-.29-.1-.45-.1-.47a1,1,0,0,1,.85-1.11m8.74.1a1.73,1.73,0,0,1-.05-.26.53.53,0,0,1,.56-.57q.57,0,.57.54c0,.37-.21.55-.64.55a.42.42,0,0,1-.44-.26"/></g><g class="cls-1"><path class="cls-8" d="M30.17,5.69a.5.5,0,0,1,.45-.54,9.13,9.13,0,0,1,1.27-.05c.36,0,.52-.09.47-.28s-.13-.24-.4-.38a2.74,2.74,0,0,0-1.15-.23,3.49,3.49,0,0,0-3,1.72A3.72,3.72,0,0,0,27,7.84q0,2.69,3,7.58t2.48,6.37a1,1,0,0,1,.68-.39,5.64,5.64,0,0,0,1-.2c.41-.11.44-.34.09-.68-.19-.19-.49-.48-.9-.85a3.15,3.15,0,0,1-1.25-2.32,1.23,1.23,0,0,1,.28-.78A1.74,1.74,0,0,1,33.78,16a3.21,3.21,0,0,1,1.42.36,5.86,5.86,0,0,0,2.28.33,2.37,2.37,0,0,0,2.18-1.47,5,5,0,0,0,.49-1.51l-.07-.12a1.43,1.43,0,0,1-.21.5c-.17.27-.32.4-.43.4s-.35-.07-.4-.21,0-.22,0-.24a.68.68,0,0,1,.38-.54,1,1,0,0,0,.49-.78A8,8,0,0,0,40,11.41a2.25,2.25,0,0,0-.17-.9,1.2,1.2,0,0,0-1.18-.78.79.79,0,0,0-.42.09L38,10s-.06,0-.12,0,0,0,0-.12c0-.54.41-.64,1.25-.31a1.84,1.84,0,0,1,1.22,1.87l-.14,1.65a.74.74,0,0,0,.21.37.77.77,0,0,1,.22.45,4,4,0,0,1-.71,2.1,3.05,3.05,0,0,1-2.88,1.66,11,11,0,0,1-2.27-.35,3.18,3.18,0,0,0-1.18-.17,1,1,0,0,0-.89.42l0,.38A1.88,1.88,0,0,0,34,19.71c.9.38,1.35.77,1.35,1.18,0,.65-.46,1.09-1.39,1.33a2.76,2.76,0,0,0-1.89,1.09,1.06,1.06,0,0,0,0,1.21c.25.32.26,1.15,0,2.49.14-1.3,0-2.09-.34-2.39a1.41,1.41,0,0,1-.55-1.15,1.31,1.31,0,0,0,0-.43,3.57,3.57,0,0,1,.25-.85A3.13,3.13,0,0,0,31.67,21a10.79,10.79,0,0,0-1.22-3.23c-.9-1.7-1.44-2.77-1.63-3.21s-.86-1.62-2-3.49a6.11,6.11,0,0,1-1-3.19c0-2.2,1.16-3.57,3.47-4.13a4.7,4.7,0,0,1,2.36,0c.73.22,1.09.59,1.09,1.09s-.21.71-.64.71l-.61-.14H31c-.35.2-.52.34-.52.4s0,.17.07.19H31V6a.2.2,0,0,1,0-.14.12.12,0,0,0,.05,0l.19,0c0,.05,0,.1-.07.14a.56.56,0,0,0,.33.31,2.78,2.78,0,0,1,.38.19s-.09.07-.21.07a.67.67,0,0,1-.64-.28l0-.07h-.61a.5.5,0,0,1-.28-.48m2.38.66c.17,0,.26.08.26.31l0,.24a.26.26,0,0,1-.21.07c-.19,0-.29-.08-.29-.24a.34.34,0,0,1,.26-.38m4.09,3.73a.32.32,0,0,1,0,.19.37.37,0,0,1,0,.21h0a.27.27,0,0,1-.07-.18l0-.22Zm.89.29s0,.07-.12.07-.17-.07-.23-.19a.4.4,0,0,1-.07-.21c0-.15.08-.19.23-.15a.28.28,0,0,1,.22.26Z"/></g></svg>