<svg xmlns="http://www.w3.org/2000/svg" viewBox="0 0 66 66"><defs><style>.cls-1{fill:#5e3e1d;}.cls-1,.cls-2,.cls-3{fill-rule:evenodd;}.cls-2{fill:#ad8151;}.cls-3{fill:#936c3a;}</style></defs><title>Plan de travail 40</title><g id="objet04"><path class="cls-1" d="M14.92,19.88l.26,11.69a44,44,0,0,1-.71,6.84c-1.27-.32-1.91,0-1.91,1.05a5.63,5.63,0,0,0,.13,1.36,8.74,8.74,0,0,0-2-.5,5.37,5.37,0,0,0-3.51.46,3.18,3.18,0,0,0-1.61,3,5.32,5.32,0,0,0,1.21,3.22,5.61,5.61,0,0,0,4.83,2.28,5.24,5.24,0,0,0,2.84-.74,6.49,6.49,0,0,0,.73,2A4.33,4.33,0,0,0,19.21,53q5.73,0,7.71-5.55s.81,7.74,6.08,2.4c0,0,3.11,8.17,12.27,1.34,0,0,.84-35.67,0-35.67S14.92,19.88,14.92,19.88Z"/><path class="cls-2" d="M16.49,10.53a20.47,20.47,0,0,0,3.4.23s2.08-.08,4.52-.23a59.27,59.27,0,0,0,9-1.06,23,23,0,0,0,3.62-1,26.11,26.11,0,0,1,6.16,0,7.45,7.45,0,0,1,4.29,3A6.29,6.29,0,0,1,48.84,15a3,3,0,0,1,0,.32c1.36-.28,2.42.37,3.19,2a4.1,4.1,0,0,1,.43,1.7,17.76,17.76,0,0,1,.12,2L52.3,32.67A42.74,42.74,0,0,0,53,39.51c1.27-.32,1.91,0,1.91,1a6.29,6.29,0,0,1-.13,1.37,8.62,8.62,0,0,1,2-.5,5.37,5.37,0,0,1,3.51.46,3.2,3.2,0,0,1,1.61,3,5.32,5.32,0,0,1-1.21,3.22,5.61,5.61,0,0,1-4.83,2.28,5.24,5.24,0,0,1-2.84-.74,6.86,6.86,0,0,1-.73,2,4.36,4.36,0,0,1-4.06,2.39q-5.73,0-7.71-5.55a14.56,14.56,0,0,1-.81-3.92q-.06-1.87-.06-2,0-.47.09-2.22c.08-1.44.16-2.56.26-3.37v-8.2c0-3.76.08-6.52.14-8.29,0-.68.06-1.29.12-1.84q-3.39,5.17-7.43,5.18a4.5,4.5,0,0,1-3.71-2c-.13-.16-.24-.31-.35-.46a18.56,18.56,0,0,1-.95,2.25c-1.55,3.16-3.68,4.75-6.39,4.75A4.27,4.27,0,0,1,18,26.54a7.15,7.15,0,0,1-1.27-2.74v-.08a17,17,0,0,1-2.5,1.87,7.66,7.66,0,0,1-3.8.92,2.4,2.4,0,0,1-2-.87c-.27-.59-.41-.9-.41-.92a4.4,4.4,0,0,1,.64-1.84c.21-.42.53-1,1-1.67-2.36.39-4,.05-4.84-1a3,3,0,0,1-.66-2,7.6,7.6,0,0,1,1.3-4.35q2.38-3.54,8.29-3.54a17.28,17.28,0,0,1,2.84.23"/><path class="cls-3" d="M25.78,38.87l-.08-.13a7.05,7.05,0,0,1-.37-.86l.75-.13c2.06-.35,5.09-.78,9.09-1.31v-.06l.49.14a44,44,0,0,1-4.49,1.33,32.13,32.13,0,0,1-4.66,1.06c-.28,0-.52,0-.73,0M19.93,53.68a4.26,4.26,0,0,0,0,.63c0,.9,0,1.84-.12,3.43a3.49,3.49,0,0,1-.6-.09,6.14,6.14,0,0,1-.68-1.21c-.08.33-.17.72-.27,1.18a.92.92,0,0,1-.29-.55,2.71,2.71,0,0,1-.05-.34A2.22,2.22,0,0,1,18.52,55c.12-.17.19-.27.22-.3a.57.57,0,0,1,.13-.08l-1.28.63-.23-.14a7.24,7.24,0,0,1,1.35-.9,7.2,7.2,0,0,1,1.22-.57m-2.56-15q-2.45-1.6-7.06-4.47c2.73,1.1,5.26,2.1,7.57,3-.05.15-.1.31-.15.49s-.14.41-.36,1"/></g></svg>