<svg id="objet01" xmlns="http://www.w3.org/2000/svg" viewBox="0 0 66 66"><defs><style>.cls-1{fill:#39f;}.cls-1,.cls-2{fill-rule:evenodd;}.cls-2{fill:#99d1ff;}</style></defs><title>Plan de travail 4</title><path class="cls-1" d="M58.2,17.69c.38-.38.42-1.6.12-3.67a15.45,15.45,0,0,1-.21-2.95,1,1,0,0,1,.17-.55,1,1,0,0,1,1-.13,3.65,3.65,0,0,1,1.49,1.14A4.51,4.51,0,0,1,61.9,13.4a19,19,0,0,1,.39,1.88q.15,1,.6,4.38t-1.1,5.17a55.64,55.64,0,0,1-5.24,4.91L54.41,32a3.15,3.15,0,0,1-4.23-.26c-.41-.43-.83-.88-1.27-1.33-1-1-2-2-3.17-3.11a1.14,1.14,0,0,0-1.63.07Q36.5,35.24,24,48,22,50.09,19.81,52.18q-4.2,4.13-6.18,5.85c-2.48,2.21-4.14,3.45-5,3.71A6,6,0,0,1,6.55,62c-.5-.29-1.29-.79-2.39-1.51s-1.42-2-1-3.73a8.59,8.59,0,0,1,3.12-4.58Q8.78,50.2,22.08,38.65T37.71,25.07c1.53-1.35,2.24-2.25,2.13-2.68a5.46,5.46,0,0,0-1.69-2,19.63,19.63,0,0,1-2-2,2.36,2.36,0,0,1-.7-1.77c.1-.44,1.11-1.26,3-2.45A25.78,25.78,0,0,0,42,11.76a4.67,4.67,0,0,0,.55-.62l.16-.26a7.77,7.77,0,0,0,.36-1.21,5.75,5.75,0,0,0-.29-2.82c-.37-1.22-.24-2.07.37-2.56a1.46,1.46,0,0,1,.42-.23q.78-.19,1.74.87A7.74,7.74,0,0,1,47,9.12c.27,1.84.75,3,1.43,3.58l0,.05a2.2,2.2,0,0,0,1.22.5,1.41,1.41,0,0,0,.72-.16,1.46,1.46,0,0,0,.7-1.68c-.13-.8-.28-1.94-.44-3.43s.37-1.87,1.59-1.4l.23.1A3.93,3.93,0,0,1,54.88,10c.21,1.56.38,3.06.52,4.49a17.76,17.76,0,0,0,.32,2.5,2,2,0,0,0,.21.44,2.51,2.51,0,0,0,.33.26l0,0c.89.39,1.53.4,1.91,0M9.82,55.27c-.3-.31-.86-.36-1.66-.16A2.86,2.86,0,0,0,7,55.56c-.78.78-.83,1.51-.16,2.18a1.86,1.86,0,0,0,1.76.32,2.71,2.71,0,0,0,1.26-.55,1.81,1.81,0,0,0,.56-1.33,2,2,0,0,0-.59-.91"/><path class="cls-2" d="M52.26,6.58l.23.1A3.93,3.93,0,0,1,54.88,10c.21,1.56.38,3.06.52,4.49a17.76,17.76,0,0,0,.32,2.5,2,2,0,0,0,.21.44,2.51,2.51,0,0,0,.33.26l-.52-.16a5,5,0,0,1-1.46-2.05c0-.84-.11-1.82-.26-2.93-.29-2-.46-3.1-.52-3.25a4.14,4.14,0,0,0-.88-2.11ZM43.59,4.06q.78-.19,1.74.87A7.78,7.78,0,0,1,47,9.12c.27,1.84.75,3,1.43,3.58a2.93,2.93,0,0,1-2-.86A9.83,9.83,0,0,1,45.3,8.21C45,6.13,44.6,4.9,44.23,4.54a2.16,2.16,0,0,0-.64-.48m17.22,7.47A4.51,4.51,0,0,1,61.9,13.4a19,19,0,0,1,.39,1.88q.15,1,.6,4.38t-1.1,5.17a55.64,55.64,0,0,1-5.24,4.91L54.41,32a3.14,3.14,0,0,1-4.23-.26c-.41-.43-.83-.88-1.27-1.33a5.47,5.47,0,0,0,3.51-.26c.91-.44,2.9-2.18,5.95-5.24l1.56-1.56A2.72,2.72,0,0,0,60.62,22,16.68,16.68,0,0,0,61,18.36a22.59,22.59,0,0,0-.39-4.17,5.58,5.58,0,0,0-1.53-2.69c-.41-.42-.75-.56-1-.43a.92.92,0,0,1,.17-.55,1,1,0,0,1,1-.13,3.65,3.65,0,0,1,1.49,1.14"/></svg>