<svg id="objet01" xmlns="http://www.w3.org/2000/svg" viewBox="0 0 66 66"><defs><style>.cls-1{opacity:0.25;}.cls-2{fill:#ffd15f;}.cls-2,.cls-3,.cls-4,.cls-5{fill-rule:evenodd;}.cls-3{fill:#e29b3d;}.cls-4{fill:#ffba00;}.cls-5{fill:#bf7d26;}.cls-6{opacity:0.5;}</style></defs><title>Plan de travail 9</title><g class="cls-1"><path class="cls-2" d="M48.2,22.07c-1.21-5,.38-11.44-10.75-14.41s-10.17,7.83-16.29,9.19-9.71,12.37,2.55,16.42,15,1.17,19.15-1.62,7.45-2.24,3.94.41S39.22,40.21,46,39s8.71-1,9.34-.44,1,6.5,6.53,7c-5-4.33-4.89-4.94-3.35-7.8s2.14-9.27-1.52-8-10.62,3.79-7.84,1.39S57,25.71,54.25,23.3s-4.84,3.79-6-1.23"/></g><path class="cls-3" d="M33.06,23.59S12.53,43,2.06,56.77a10.75,10.75,0,0,0,2.26,2.08s7-9.78,9.09-12.17S34.13,24.41,34.13,24.41Z"/><path class="cls-4" d="M43.71,21.13a1.07,1.07,0,0,1,.43,1.07,1.3,1.3,0,0,1-.31.45,4.93,4.93,0,0,1-2.93,1,15.94,15.94,0,0,1-2.38.09,17.47,17.47,0,0,1,0,2.25c-.23,3.42-.54,5.33-.94,5.75s-1,.31-1.69-.37a21.22,21.22,0,0,1-2.29-3.45L32,25.18c-1.46.07-2.95.11-4.48.11-3,0-4.76-.17-5.18-.57s0-.73.85-1.34a58.08,58.08,0,0,1,7.72-3.69c-.3-.5-.64-1.1-1-1.8Q28,14.43,28.45,14A1.39,1.39,0,0,1,30,13.73a16.52,16.52,0,0,1,3.68,2.41l.33.15q6-6.27,5.88-2.21a32.33,32.33,0,0,1-.76,5.59s.75.23,2.2.66a13.58,13.58,0,0,1,2.39.8"/><path class="cls-5" d="M39.32,24.31l-.25.16-.18.05c-.66-.9-1.35-1.94-2.06-3.1-.31-.5-.59-1-.85-1.44l-1.39.12-1.05.09c-.07.34-.15.68-.24,1a.14.14,0,0,1,0,.07l.77.36a21.7,21.7,0,0,1,4.77,2.79,35.65,35.65,0,0,1-4.19-1.65l-1.53-.7c-.23.94-.52,2.16-.88,3.66h0l-.2,0c.12-1.16.32-2.45.6-3.89l-1.94-1.26,0,0h0c-.05,0-.07,0-.05,0a.64.64,0,0,1,.12-.14c.11-.12.8.09,2.07.65l.18-.84-2.71-.05v0c.05-.19.09-.34.11-.47l2.77-.21c.36-1.65.65-2.9.84-3.76a17,17,0,0,1-.25,3.72c.69,0,1.33-.06,1.94-.07A20,20,0,0,1,34,15.5l.44-.18c.48.89,1.2,2.24,2.17,4q2.09,0,3,0a1.93,1.93,0,0,1,0,.24l-.25,0h.26a1.48,1.48,0,0,0,0,.21l-2.65,0,2.45,4.41M32.8,26.65A8.08,8.08,0,0,1,30,26.2a.46.46,0,0,1,.08-.51c.11-.12.58,0,1.4.22a6.18,6.18,0,0,1,1.31.51Zm-.32.85s0,.09-.13.18c-.29.3-1.31.07-3.06-.7,0-.32,0-.5.07-.56a4.46,4.46,0,0,1,1.45.36c.71.24,1.24.43,1.6.58a.17.17,0,0,0,.07.14m-4.64.37c.1-.1.57,0,1.43.34h0a1.07,1.07,0,0,1-.16-.14,1.42,1.42,0,0,1-.48-.71c0-.18,0-.32,0-.4l.19-.2a4.37,4.37,0,0,1,.8.86,2.73,2.73,0,0,0,.77.45,1.43,1.43,0,0,1,.52.28l0,.22a3.12,3.12,0,0,1-.76,0,2.49,2.49,0,0,1,.62.35l.06,0s0,.07-.1.15-.57.22-1.21.13a2.72,2.72,0,0,1-1.58-.68l-.26-.34s0-.11.16-.26M28.78,30a1.14,1.14,0,0,0,.46.07,1.09,1.09,0,0,1-.63.14A1.23,1.23,0,0,1,27.8,30l-.63-.6a.47.47,0,0,1,0-.36l.34,0a5.87,5.87,0,0,0,1.3,1"/><g class="cls-6"><path class="cls-2" d="M58.19,35.57A1.37,1.37,0,0,1,58,36.84a1.73,1.73,0,0,1-1.45.43,3.17,3.17,0,0,1-2.14-1,1.69,1.69,0,0,1-.58-1.51,1.52,1.52,0,0,1,.38-.88q1.73-1.8,3.25.08a3.52,3.52,0,0,1,.73,1.58M62,50.27c.23.3.28.52.16.65s-.42.14-.73-.15-.3-.47-.12-.66.43-.15.69.16m-8.86-6.76c.31-.31.78-.3,1.43,0s.72.71.29,1.16a.79.79,0,0,1-.69.2,1.57,1.57,0,0,1-1-.46.62.62,0,0,1-.18-.64l.16-.3m7.61,7.84c0-.06.19-.07.42-.05a.49.49,0,0,1,.47.37l-.1.15a.58.58,0,0,1-.38.14.4.4,0,0,1-.34-.08l-.22-.29s0-.12.15-.24M46.05,33.88a.48.48,0,0,1,0,.75.55.55,0,0,1-1-.49l.12-.26a.5.5,0,0,1,.79,0M62.91,50.69s0-.19.14-.45a2.47,2.47,0,0,1,.22-.4l.17-.09c.26.25.24.53-.07.85,0,.06-.21.09-.46.09m.92,1.64c-.12.13-.42.06-.89-.2a1,1,0,0,1-.2-.31l.12-.17a.89.89,0,0,1,.56,0,.9.9,0,0,1,.51.45v.09a.55.55,0,0,1-.11.15m-1.53.6-.17.13c0,.06-.09,0-.19-.06a.6.6,0,0,1-.14-.63.69.69,0,0,1,.14-.36l.17-.09a.88.88,0,0,1,.24.56c0,.23,0,.38-.05.45M52.59,25a.84.84,0,0,1-.74.21,1.51,1.51,0,0,1-1-.47,1,1,0,0,1-.4-.88l.2-.35a1.39,1.39,0,0,1,2-.29c.68.44.67,1,0,1.78m-5.18,4.88a1.09,1.09,0,0,1-1.74,0,1.13,1.13,0,0,1-.45-1.05,1.2,1.2,0,0,1,.29-.43,1.07,1.07,0,0,1,1.68,0c.6.52.67,1,.22,1.5m-7.36,2.86a.49.49,0,0,1-.79,0,.57.57,0,0,1-.18-.55.58.58,0,0,1,.12-.25.51.51,0,0,1,.79,0,.46.46,0,0,1,.06.76"/></g></svg>