<svg xmlns="http://www.w3.org/2000/svg" viewBox="0 0 66 66"><defs><style>.cls-1{opacity:0.5;}.cls-2{fill:#c5e3ea;}.cls-2,.cls-3,.cls-4,.cls-5,.cls-6{fill-rule:evenodd;}.cls-3{fill:#bae5f4;}.cls-4{fill:#93cad8;}.cls-5{fill:#c9edf4;}.cls-6{fill:#9dc9d1;}</style></defs><title>Plan de travail 49</title><g id="objet05"><g class="cls-1"><path class="cls-2" d="M20,11.75a2.91,2.91,0,0,1-.2-.35,9.48,9.48,0,0,0-.55-1.12q0-1.23,1.2-.36l.2.16-.2-.85c0-1.28.35-1.54,1.05-.8a3.74,3.74,0,0,1,.32.4l0-.76c0-1.06.25-1.29.76-.69a3.88,3.88,0,0,1,.72,2.47,1.49,1.49,0,0,1-.18.65c-.14.26-.29.4-.43.4l-.15,0c0,.59-.22.88-.61.88a.81.81,0,0,1-.31,0,1.23,1.23,0,0,1,0,.2c0,.48-.18.72-.55.72h0a1.11,1.11,0,0,1,.27.66.69.69,0,0,1-.15.39.49.49,0,0,1-.34.26,1.36,1.36,0,0,1,.05.36.68.68,0,0,1-.43.69,4.94,4.94,0,0,1-1.45.14c-.63,0-1-.15-1.23-.47s-.11-.48-.11-.51c0-.69.5-1,1.48-1-.43-.43-.65-.74-.65-.9,0-1,.47-1.13,1.42-.55l.09.06m27.82-1.9A2.45,2.45,0,0,1,47.3,11c1.05-.32,1.57-.18,1.57.42,0,.41-.3.78-.92,1.1q1.14.18,1.14.75a.73.73,0,0,1-.47.72,1,1,0,0,1-.22.07c.58.12.87.36.87.73s-.47.7-1.43.76A3.29,3.29,0,0,1,49,16.87a.66.66,0,0,1-.25.54.77.77,0,0,1-.51.22,2.19,2.19,0,0,1-1.81-.87,1.86,1.86,0,0,1-.47-.94.46.46,0,0,1,.16-.38,1.38,1.38,0,0,1-.45-.16,1,1,0,0,1,.71-1.09,1.24,1.24,0,0,1-.64-.25.58.58,0,0,1-.11-.4,1.66,1.66,0,0,1,0-.33.45.45,0,0,1-.47-.36c0-.24,0-.37,0-.4a.67.67,0,0,1,.24-.47.6.6,0,0,1-.2-.25,1.26,1.26,0,0,1-.07-.47c0-.53.45-1.16,1.37-1.88s1.34-.57,1.34.47"/></g><path class="cls-3" d="M36.2,46.63a88.45,88.45,0,0,0,10.86,1.16l7.9,0a17.16,17.16,0,0,1,4.92-.47,12,12,0,0,1,2.94.27.49.49,0,0,1,.18,0s0,1.18-.13,3.5-.46,3.24-1.09,2.79a3.57,3.57,0,0,1-1.54-1c-.57-.73-.9-1.13-1-1.2-.36,1-.69,1.82-1,2.5-.56,1.33-1.23,2-2,2A3.73,3.73,0,0,1,53.94,55a7.21,7.21,0,0,0-1.23-1.26q-.36,0-2.28,2.31c-1.3,1.55-2.32,2.32-3,2.32a1.74,1.74,0,0,1-1.85-1.3,9.58,9.58,0,0,1-.14-2l0-.07c-.58.82-1.09,1.53-1.55,2.13-.92,1.21-1.74,1.81-2.47,1.81a2.48,2.48,0,0,1-2.42-1.63c-.46-1.11-.81-1.66-1.05-1.66a7.07,7.07,0,0,0-1.27,1.56,3.07,3.07,0,0,1-2.35,1.52,3,3,0,0,1-2.57-1.6q-.69-1.47-.87-1.83a7.36,7.36,0,0,1-1.31,1.43c-1,.92-1.73,1.38-2.17,1.38a2.48,2.48,0,0,1-2.53-1.59c-.24-1.26-.4-2.08-.47-2.46a3.56,3.56,0,0,0-2,1,3.46,3.46,0,0,1-2.21.9c-.78,0-1.43-.71-2-2.13a10.44,10.44,0,0,0-.87-2.14,2.72,2.72,0,0,0-1.7.91,2.93,2.93,0,0,1-1.59.87c-.63,0-1-.69-1.27-2.07s-.51-2.06-.87-2.06a6.36,6.36,0,0,0-1.74,1.16,5.66,5.66,0,0,1-1.81,1.12c-.46,0-.82-.66-1.08-2-.12-.53-.27-1.51-.44-2.93a.25.25,0,0,0-.07-.19c-.22.34-.44.64-.65.91a2.06,2.06,0,0,1-1.45.76c-.77,0-1.28-.51-1.52-1.52L3,45.15a5.89,5.89,0,0,1,.18-1.31,5.47,5.47,0,0,1,.47-1.23c.2-.29.86-.44,2-.47.58,0,1.19,0,1.81.08q.18,0,2.43.21c1.5.15,3.81.22,6.95.22,1.26,0,2.7,0,4.35-.14,1.32-.1,2.29-.19,2.89-.26a3.73,3.73,0,0,0,.47.4c0,.26-.23.48-.68.69A39.13,39.13,0,0,1,29.69,45a60.65,60.65,0,0,0,6.51,1.59"/><path class="cls-4" d="M40,50.25a2.09,2.09,0,0,1,1.09.51,14.51,14.51,0,0,0,1.66,1.12l0,.11A6.25,6.25,0,0,1,40,50.36Zm1.56-1.84q.57-.18,4,1.26c1.49.63,3,1.3,4.41,2-1.06-.29-3.86-1.25-8.4-2.86,0,.12-.07.06-.07-.19Zm-9.34.14a6.91,6.91,0,0,1-.69,1.63A7.22,7.22,0,0,1,30.48,52c-.07.12-.11.06-.11-.19a8.35,8.35,0,0,1,.65-2,8,8,0,0,1,1-1.92,1.53,1.53,0,0,1,.26.69m2,.54a1.19,1.19,0,0,1,0-.32h.22a4.72,4.72,0,0,1,.36,1.12l-.07,1.23-.18.07a9.38,9.38,0,0,1-.37-2.1m18.32.62q2.35.47,6.45,1a1.6,1.6,0,0,0,.4.22A38.2,38.2,0,0,1,48.73,49l0-.18,3.83.9M13.46,46.38a21.9,21.9,0,0,0,3.88-.72,11.13,11.13,0,0,1,3.18-.44,25.46,25.46,0,0,1-2.64.94,13.06,13.06,0,0,1-3.69.51c-.44,0-.68,0-.73-.11Zm8.3.87-2.58,1.08c-.09.15-.14.1-.14-.14s.63-.58,1.88-1.09a13.51,13.51,0,0,1,2.94-1,9,9,0,0,1-2.1,1.16m-1-3.55a9.25,9.25,0,0,1-2.39.69,33.72,33.72,0,0,1-6.37.54,4.11,4.11,0,0,1-1.38-.18l-.54-.07c-.36,0-.55-.1-.58-.15a96.93,96.93,0,0,1,11.23-.9Zm6.74,4.49.07.22a5.41,5.41,0,0,1-1.41.79,10.12,10.12,0,0,1-1.67.62l-.07-.11a4,4,0,0,1,1.59-1,5.62,5.62,0,0,1,1.49-.54"/><path class="cls-5" d="M27.37,16.29l0-.11c.23-1.13.49-1,.78.29a37.36,37.36,0,0,0,3.39,3.08c.46,0,1.58-.64,3.37-1.92a15.9,15.9,0,0,1,2.93-1.92,2.07,2.07,0,0,1,2,1.56c.67,1.66,1.05,2.55,1.12,2.64a69.86,69.86,0,0,1,3.76,8.76,82.1,82.1,0,0,1,2.86,9,40.49,40.49,0,0,1,.77,8.44,2.34,2.34,0,0,1-.33,1.23,1.76,1.76,0,0,1-.24.3,1.48,1.48,0,0,1-.74,1,5.64,5.64,0,0,1-3,.65A51.88,51.88,0,0,1,28.56,47a21.92,21.92,0,0,1-6.26-2.75A2.42,2.42,0,0,1,20.56,43a2.89,2.89,0,0,1-.51-1.42A44.66,44.66,0,0,0,23,37a25.48,25.48,0,0,0,3.3-11.41l.94-8a12.75,12.75,0,0,1,.2-1.36Z"/><path class="cls-3" d="M27.82,10.59a.49.49,0,0,1-.34.34l0,0c-.35.31-.65.6-.9.85-.7.66-1.05,1.11-1.05,1.38a10.05,10.05,0,0,0,1.26,1.16A7.9,7.9,0,0,1,28.67,17a.36.36,0,0,1-.07.1.6.6,0,0,1,.14.3,1.45,1.45,0,0,1,0,.58,4.47,4.47,0,0,1-.22,1.13,4.75,4.75,0,0,1-.2.54c-.32,1.45-1,2.17-2,2.17q-4.38,0-5.87-3.26a9,9,0,0,1-.65-3.73q0-5.56,4.06-6.77a3.79,3.79,0,0,1,2.75.15,2,2,0,0,1,1.26,1.95,1.69,1.69,0,0,1,0,.33l0,0-.05.06"/><path class="cls-3" d="M25.25,7.89s3.75-.2,4.19,5.42-.5,8.85-3.94,8.52S20.5,10.71,25.25,7.89Z"/><path class="cls-6" d="M38.75,14s-5.59.67-7.44.25-4.19-.06-3.13,2.22a51.71,51.71,0,0,0,3.13,5.36S39.38,17.5,38.75,14Z"/><path class="cls-5" d="M37.87,15.71a34.67,34.67,0,0,1-6.3,3.84c-.69.26-4.44-3.46-3.5-4.69,0,0-.57-.22-.94.65s-.72,8.28-.83,9.67,4.9,4.51,6,3.88S41.61,15.42,37.87,15.71Z"/><path class="cls-3" d="M37.76,13.43a8.78,8.78,0,0,1,3.11-4.2Q44.53,7,46.3,10a10,10,0,0,1,1.2,5.17,9.48,9.48,0,0,1-.94,4.1,5.54,5.54,0,0,1-5.36,3.44,4.16,4.16,0,0,1-4.06-2.18,5.19,5.19,0,0,1-.58-2.46,12.16,12.16,0,0,1,1.2-4.67"/></g></svg>