<svg xmlns="http://www.w3.org/2000/svg" viewBox="0 0 66 66"><defs><style>.cls-1{fill:#b6853c;}.cls-1,.cls-2,.cls-3{fill-rule:evenodd;}.cls-2{fill:#d7a354;}.cls-3{fill:#bc823c;}</style></defs><title>Plan de travail 11</title><g id="objet02"><path class="cls-1" d="M28.51,12.6,30,11.13c.68-.37,1-.2.85.5a2.94,2.94,0,0,1-.25.74,1.33,1.33,0,0,1-.05.69,4.88,4.88,0,0,1-.8,1.75,20.42,20.42,0,0,1-2.16,2.62A34.82,34.82,0,0,1,21.71,22c-.88.84-2.61,1.45-5.2,1.81s-4.3-.16-5.16-1.58-1-2.65-.37-3.68a3.67,3.67,0,0,1,1.38-1.33,16.48,16.48,0,0,1,7.32-1.53q4.72-.13,6.78-1.28A16.86,16.86,0,0,0,28.51,12.6Z"/><path class="cls-2" d="M28.48,11.05l0,0,.12-.35a5.26,5.26,0,0,1,1.07-2.13c.59-.32,1.67.22,3.25,1.63s2.4,2.81,2.29,4.05a17.57,17.57,0,0,1-1.11,3.64,44.23,44.23,0,0,0-5,2.34q-3.89,2.07-4.36,3a1.87,1.87,0,0,0-.15,1l-3.84.55c-4.77.29-7.74-.23-8.9-1.54a4.81,4.81,0,0,1-1.43-4c2.24,2.31,4.24,3.31,6,3a14,14,0,0,0,4.44-1.47,15.25,15.25,0,0,0,5.59-5.09,11.72,11.72,0,0,0,1.81-4.13Zm2.34,10.42c0-.22,0-.44-.05-.65a24.58,24.58,0,0,1,2.74-1.3c3.51-1,6.53,6.45,9.4,7.05Q51.37,28.36,54,36.32c1.33,3.92,2.05,5,1.08,9.62-.76,3.62-1.28,4.4-4.08,7.38s-8.24,3.4-12.27,3.79c-.31.06-.63.12-1,.16a28.19,28.19,0,0,1-8.69-.08A6.54,6.54,0,0,1,28.3,57c-.4,0-.79-.11-1.19-.19a14.16,14.16,0,0,1-10-7.17,9,9,0,0,1-.74-6.8q.74-3.52,6-8.25,1.2-1.08,2.16-2.13l.53-.58q.38-.43.72-.87l.48.1c1.93.41,3.23.15,3.9-.76.19-.13.4-1.21.62-3.24A28,28,0,0,0,30.82,21.47Z"/><path class="cls-1" d="M51.3,28.69a2.77,2.77,0,0,1-.82,1,4.87,4.87,0,0,1-1.1.84.68.68,0,0,1-.17-.65,2,2,0,0,1,.71-.93,3,3,0,0,1,1.16-.67C51.28,28.33,51.35,28.46,51.3,28.69Zm3.21,4.66,0,.2c0,.26-.56.63-1.51,1.11l-.17-.14s0-.09,0-.25.23-.36.56-.5.58-.17,1.09-.33ZM51.79,31.5l.1.23a8.9,8.9,0,0,1-1.3.6.55.55,0,0,1-.13-.14.53.53,0,0,1,0-.3c0-.19.24-.34.6-.43A1,1,0,0,1,51.79,31.5Zm2.83,19.36a1,1,0,0,1-.51,0,2.76,2.76,0,0,1-1.06-.53,1.78,1.78,0,0,1-.72-.71,1,1,0,0,1,1.26.06,10,10,0,0,1,1.1.85Zm-5.2-9.39,0,.19a1,1,0,0,1-.56,0l-.15,0s0-.09,0-.25.08-.21.15-.23a.18.18,0,0,1,.09.07Zm-.55,1.88a1.29,1.29,0,0,1-.67-.45c.21-.23.4-.31.56-.24l.46.46A.26.26,0,0,1,48.87,43.35Zm-9.85,7c-.06.09-.18.11-.38.07a1,1,0,0,1-.72-.71q.57-.49,1.26.36ZM37,51.78c-.36-.08-.5-.26-.44-.55a.69.69,0,0,0,.17-.33.82.82,0,0,1,.41.24,1.54,1.54,0,0,0,.38.39A.49.49,0,0,1,37,51.78Zm-2.24.7c.06.05,0,.05-.3,0l-.34-.12.21-1c.47.2.68.43.62.69S34.8,52.47,34.73,52.48Zm-15.82,1c.12-.55.82-1,2.12-1.29l.1,0s0,.12,0,.26c-.07.35-.73.8-2,1.32C18.94,53.81,18.86,53.72,18.91,53.46Zm5.3-10.23a1.14,1.14,0,0,1-1,.4l-.29-.06a.6.6,0,0,1,0-.32c0-.16.18-.27.43-.32a1.26,1.26,0,0,1,.79.12ZM24,45s0-.09,0-.25q.11-.54,1.08-.54c.13.19.19.31.18.34l-1,.55A.45.45,0,0,1,24,45ZM23,54.67l0,.19a1.76,1.76,0,0,1-.29.66l-.15,0,.06-.25A.87.87,0,0,1,23,54.67Zm-1.49-.93a2.46,2.46,0,0,1-.47.77,1.55,1.55,0,0,1-1.08.29s0-.14,0-.41.51-.72,1.28-1C21.41,53.49,21.49,53.61,21.46,53.74Z"/><path class="cls-2" d="M25.71,31s3.68-3.41,3.57-7.1c0,0-2,0-5.74.47,0,0,3.69-6.62,10.58-6.49l-.74,2.76,7.13,10.8S29.6,37.35,25.71,31Z"/><path class="cls-3" d="M29.28,23.87s3.37-.51,4.1-3.26,2-2.1,1.55-1.05-1,5.87-5.65,5.25C26.68,24.46,29.28,23.87,29.28,23.87Z"/><path class="cls-3" d="M29.46,24.7s3.12.11,4.59-3.8c1-2.67,2.15-1.91,1.63-.9s-1.75,6.67-6.3,5.63C26.83,25.05,29.46,24.7,29.46,24.7Z"/></g></svg>