<svg xmlns="http://www.w3.org/2000/svg" xmlns:xlink="http://www.w3.org/1999/xlink" viewBox="0 0 66 66"><defs><style>.cls-1{fill:none;}.cls-2{fill:#fcd842;}.cls-11,.cls-2,.cls-3,.cls-4,.cls-5,.cls-6,.cls-7,.cls-8,.cls-9{fill-rule:evenodd;}.cls-3{fill:#d1b22f;}.cls-4{fill:#333;}.cls-5{fill:#d3e7f2;}.cls-6{fill:#a7c6d3;}.cls-7{fill:#e8f2f7;}.cls-8{fill:#fcac42;}.cls-9{fill:#ce8125;}.cls-10{opacity:0.5;}.cls-11{fill:#fff;}.cls-12{clip-path:url(#clip-path);}.cls-13{clip-path:url(#clip-path-2);}.cls-14{clip-path:url(#clip-path-3);}</style><clipPath id="clip-path"><rect class="cls-1" x="15.14" y="39.35" width="2.15" height="2.25"/></clipPath><clipPath id="clip-path-2"><rect class="cls-1" x="16.9" y="17.02" width="2.15" height="2.26"/></clipPath><clipPath id="clip-path-3"><rect class="cls-1" x="32.42" y="35.87" width="7.4" height="2.45"/></clipPath></defs><title>Plan de travail 44</title><g id="objet05"><path class="cls-2" d="M14.61,42.09s.66,5.07,7,6.95,25.53,5.57,30,5.33,10-.92,11.2-5.78S14.61,42.09,14.61,42.09Z"/><path class="cls-2" d="M27.9,11.62q7.56,1.47,7.56,9a9.55,9.55,0,0,1-4.19,8c-1.41.93-2.39,1.58-2.93,2-.87.65-1.3,1.24-1.3,1.79a7.47,7.47,0,0,0,.61,1.83h1.83A103.54,103.54,0,0,1,42.21,36q2.85.69,9.24,2.36a29.22,29.22,0,0,1,8.78,3.49,5.36,5.36,0,0,1,2.32,2.45A5.19,5.19,0,0,1,63,46.52c0,3.58-1.75,5.73-5.25,6.43H55.47c-3.28-.6-5.74-1-7.4-1.22-.68-.11-1.63-.31-2.85-.61L43,50.51q-4-.9-5.41-1.14c-2.34-.43-4.83-.77-7.49-1a37.71,37.71,0,0,1-11.27-2.56q-4.35-1.95-4.35-4.8a7.11,7.11,0,0,1,1.63-4.72,10.1,10.1,0,0,1,3.25-2.56,2.09,2.09,0,0,0,1.18-1.51c-.31-.86-.57-1.55-.77-2.07A12,12,0,0,0,17.85,27a9.36,9.36,0,0,1-2.48-6.23,7.92,7.92,0,0,1,2.11-5.2,11.92,11.92,0,0,1,7.61-3.87v0Z"/><path class="cls-3" d="M27.69,34.69q0,1.29-1.83,3.09a1.24,1.24,0,0,1,.16.4l-.12.13a1.81,1.81,0,0,1-.32-.27,9.74,9.74,0,0,1-1.06.82v.22l-.12.12a.9.9,0,0,1-.15-.18,7.35,7.35,0,0,1-2.68,1l0,.19-.08,0,0,0v-.16a9.23,9.23,0,0,1-1.18.08,3.33,3.33,0,0,1-2.69-1A1.94,1.94,0,0,1,17.12,38a3.52,3.52,0,0,1,.32-1.59,4.05,4.05,0,0,1,1.46-1.5,4,4,0,0,0-1.38,2.85A1.7,1.7,0,0,0,18.05,39a2.43,2.43,0,0,0,1.06.59.39.39,0,0,1,.16,0v.06a5.54,5.54,0,0,0,1.06.1,7,7,0,0,0,3.8-1,.78.78,0,0,1,0-.16c0-.06,0-.12.12-.2l.19.18a6.87,6.87,0,0,0,1-.81v-.15l.13,0,.24-.26a18.83,18.83,0,0,0,1.79-2.93.45.45,0,0,1,.12.33"/><path class="cls-4" d="M23.87,23.21l-.12-.36c0-.44.23-.65.69-.65s.69.21.69.65-.23.73-.69.73a.61.61,0,0,1-.57-.37m-1.79-.44q0-.29.36-.33c.25,0,.37.08.37.33s-.09.4-.28.4-.45-.13-.45-.4"/><path class="cls-5" d="M48.11,41.32c0-.66,0-1.16-.08-1.51V38l2.24.61,1.3.45V42a.6.6,0,0,1-.24.12Z"/><path class="cls-6" d="M55.27,37.74a1.94,1.94,0,0,1-1.5,1.46,1.81,1.81,0,0,1-1.63-.28,1.39,1.39,0,0,1-.61-.7.47.47,0,0,1,.12-.48,3.25,3.25,0,0,1,.69.57,1.46,1.46,0,0,0,1.3.24,1.18,1.18,0,0,0,1-1.46,1.1,1.1,0,0,0-.94-.78,3,3,0,0,1-.85-.32c-.11-.44.24-.57,1.06-.41s1.19.41,1.3.81a2.87,2.87,0,0,1,.08,1.35"/><path class="cls-7" d="M50.76,36.6a3.69,3.69,0,0,0,.4-.82.63.63,0,0,1,.86-.36,7.28,7.28,0,0,1,.53.65,3,3,0,0,1,.32.53,4.62,4.62,0,0,1-.69,2.15c-.6,1.28-1.17,2-1.71,2.12a1.12,1.12,0,0,1-1.18-.41,5,5,0,0,1-.4-.65,1.37,1.37,0,0,1,.28-1.34,14.38,14.38,0,0,0,1.59-1.87"/><path class="cls-5" d="M52.46,34.28a1.46,1.46,0,0,1,1.31.65,1.4,1.4,0,0,1,0,1.26c-.25.49-.45.75-.61.77a1.67,1.67,0,0,1-1.59-.36l-.69-.69a3.2,3.2,0,0,1,0-.49c.16-.27.32-.57.49-.9a.7.7,0,0,1,.12-.2c.05-.11.4-.12,1.05,0"/><path class="cls-7" d="M53.74,34.71a1.91,1.91,0,0,1,.16.53.65.65,0,0,1-.41.29,1.37,1.37,0,0,1-1.3-.41,2.19,2.19,0,0,1-.61-.81.4.4,0,0,1,0-.29,3.07,3.07,0,0,1,.82,0,1.54,1.54,0,0,1,1.3.65"/><path class="cls-8" d="M12.32,22.4a10.08,10.08,0,0,0,6.44,2.08c2.84-.86,4.37-1,4.58-.35a4.55,4.55,0,0,0,1.71,2c.92.69,1.35,1.38,1.3,2.06A5,5,0,0,1,25.88,30c-.26.54-1.06.81-2.42.81a7.89,7.89,0,0,1-2.64-.65A18,18,0,0,0,19,29.36a18.64,18.64,0,0,0-1.79-.57,24.68,24.68,0,0,0-4.4-.45H9.35q-4.32-.57-5.62-2c-.26-.29-.12-.65.41-1.1A2,2,0,0,1,3,23.66a4.71,4.71,0,0,1,.37-2.15c.59-1.2,1.85-1.79,3.78-1.79a4.86,4.86,0,0,1,2.36.48,25.64,25.64,0,0,1,2.81,2.2"/><path class="cls-9" d="M20.25,24.84l0-.2c0-.14.1-.23.32-.29s.33,0,.33.17-.06.16-.17.24a.51.51,0,0,1-.2.12Zm.85.37s0,0,0-.16a.3.3,0,0,0,0-.13.75.75,0,0,1,.49.13v.12a.41.41,0,0,1-.28.08Z"/><path class="cls-9" d="M4.79,25.61c.11-.32.08-.55-.08-.69.24-.32.46-.35.65-.08a1.2,1.2,0,0,1,.28.73c0,.27-.15.41-.44.41s-.46-.12-.41-.37"/><g class="cls-10"><path class="cls-11" d="M6.21,22.69a.84.84,0,0,1-.81-.49,1.21,1.21,0,0,1-.12-.53c0-.71.38-1,1.14-1s1.14.31,1.14.94a1,1,0,0,1-.49.73,1.43,1.43,0,0,1-.86.37m15.26-5.37a3,3,0,0,1-2.08,1.26,1.34,1.34,0,0,1-1.34-.86c-.08-.59-.12-.91-.12-.93,0-1.14.76-2,2.28-2.48s2.23-.09,2.23,1.3a3.14,3.14,0,0,1-1,1.71M17.36,40.54c-.76,0-1.25-.23-1.46-.69s-.13-.74-.13-.77A2.19,2.19,0,0,1,17.6,36.8q1.83-.45,1.83,1.14a3,3,0,0,1-.53,1.59,1.92,1.92,0,0,1-1.54,1"/></g><g class="cls-10"><g class="cls-12"><path class="cls-11" d="M16.07,41.6c-.45,0-.73-.13-.86-.4s-.07-.44-.07-.46a1.28,1.28,0,0,1,1.07-1.33q1.08-.27,1.08.66A1.89,1.89,0,0,1,17,41a1.16,1.16,0,0,1-.91.59"/></g></g><g class="cls-10"><g class="cls-13"><path class="cls-11" d="M17.83,19.28a.86.86,0,0,1-.86-.41c0-.29-.07-.44-.07-.45A1.29,1.29,0,0,1,18,17.08c.71-.18,1.07.05,1.07.67a1.8,1.8,0,0,1-.31.93,1.12,1.12,0,0,1-.91.6"/></g></g><g class="cls-10"><g class="cls-14"><path class="cls-11" d="M35.37,38.09A6.8,6.8,0,0,1,32.56,37a4,4,0,0,1-.14-.5c.15-.68,1.46-.84,3.91-.47s3.62.88,3.48,1.48c-.06.28-.48.5-1.25.67a7.88,7.88,0,0,1-3.19-.12"/></g></g><path class="cls-3" d="M20,46.07s8.34,4.31,23.93,4.27a20.46,20.46,0,0,1,4.66,1.22C46.23,49.85,39.47,48,32,46.84a68.34,68.34,0,0,0-14.53-1.06Z"/></g></svg>