<svg xmlns="http://www.w3.org/2000/svg" viewBox="0 0 66 66"><defs><style>.cls-1{fill:#d3a759;}.cls-1,.cls-2,.cls-3,.cls-4,.cls-6,.cls-7,.cls-8{fill-rule:evenodd;}.cls-2{fill:#7f5e3b;}.cls-3{fill:#bc823c;}.cls-4{fill:#d7dfe2;}.cls-5{opacity:0.5;}.cls-6{fill:#fff;}.cls-7{fill:#c7d0d3;}.cls-8{fill:#8e5c25;}</style></defs><title>Plan de travail 42</title><g id="objet05"><path class="cls-1" d="M42.76,24.09l-.47.47a48.66,48.66,0,0,1,2.49,4.34q1.86,3.77,1.76,5-.2,2-11.46,9Q23.5,50,17.89,49.86c-.47-1-1-2-1.5-3-1.49-2.93-2.79-5.28-3.88-7.06a65.44,65.44,0,0,1,6.2-3.21l9.14-4.35c1.61-.83,4.12-2.22,7.51-4.17s5.93-3.37,7.32-4.09Z"/><path class="cls-2" d="M45.46,28.89q-1.65-1.74.93-4.14,2.2-1.37,5.12-3.3A40.49,40.49,0,0,0,55.6,18a.82.82,0,0,1,.32.11,6.35,6.35,0,0,1,1.36,2.1c.19.34.59,1,1.19,2q.26.46.42.84-2.64,2.16-3.64,2.83-2.55,1.52-4.85,3c-1.18.76-2.13,1.4-2.85,1.94a13.22,13.22,0,0,1-2.09-1.9"/><path class="cls-3" d="M49.06,29.58a.17.17,0,0,0,.15-.18,11,11,0,0,1-.8-3q-.06-.36-.3-2.73l-.29.18a11.33,11.33,0,0,0-.19,1.21,7.15,7.15,0,0,0,.3,2.43,3.15,3.15,0,0,0,1.13,2.09"/><path class="cls-3" d="M54,19.47a1.42,1.42,0,0,1-.13.12,1.07,1.07,0,0,0-.06.27s.06,1,.2,2.9c.29,1.95.77,2.95,1.42,3h0l.16-.11.07-.15a18.14,18.14,0,0,1-1.69-6"/><path class="cls-3" d="M56.28,21.37a5.76,5.76,0,0,0,1.18,2l.1,0a17.57,17.57,0,0,1-.93-2.17c-.38-1-.65-1.71-.8-2.1l-.14,0v.14a6.58,6.58,0,0,0,.6,2.14"/><path class="cls-3" d="M52.46,24.42a14.49,14.49,0,0,1-.5-3.26h-.05l0,0-.14,1a9.28,9.28,0,0,0,.21,2.9,7.49,7.49,0,0,0,.87,2.3l.32-.19c-.13-.63-.34-1.54-.66-2.76"/><path class="cls-3" d="M50.81,28.6a10.85,10.85,0,0,1-.39-3.52q.09-1.91.09-3l-.36.23-.38,2.58s0,.68.1,1.95c.15,1.11.36,1.75.64,1.91l.3-.18"/><path class="cls-4" d="M39.6,17.45l.93-.68q3.18,4.86,8.84,14,2.48,4,4.31,7c-1.81,1.05-2.85,1.64-3.14,1.78L48.29,40.7q-1.23-2.28-2.75-5.21-3.75-7.4-8.17-16.39l1-.71,1.12-.82.19-.05a.25.25,0,0,0,0-.07"/><path class="cls-4" d="M62,26.52a4.63,4.63,0,0,1-1.59.94Q60,27.5,53.28,16q0-3.37,4.82,1.75T63,24.3a2.57,2.57,0,0,1-1,2.22"/><g class="cls-5"><path class="cls-6" d="M38.19,19.46a.44.44,0,0,1,.4-.29c.19,0,.27.13.25.35l-.07.23c.06,0,0,.05-.14,0Zm1.28-.11-.66-.49,1.29-1.2c.64,1.15,1.46,2.61,2.48,4.38a2,2,0,0,1,.09.2q-2.78-2.56-3.2-2.89M55,17.19a9.51,9.51,0,0,0-.66-1c.08-.93.62-1,1.62-.18s1.43,1.39,1.39,1.83-.26.54-.66.5A2.57,2.57,0,0,1,55,17.19M50.78,38.33l-.33.21a.1.1,0,0,0-.05,0c.1-.15.2-.3.3-.47a.83.83,0,0,1,.08.22m.68-1.49a2.12,2.12,0,0,0,0-.34A12.13,12.13,0,0,0,49.8,33a27.71,27.71,0,0,1,2.83,4.11l-.82.52a.78.78,0,0,1-.44-.35,1.19,1.19,0,0,1-.09-.15l.18-.31M51,38.21l-.11-.32.33-.54a.59.59,0,0,1,0,.08,2.66,2.66,0,0,1,.19.49l-.45.29"/></g><path class="cls-2" d="M33.89,28.92l-.26.15q3,5.25,6.65,10.43l.5-.34-.85-1.26q-3.76-5.65-6-9"/><path class="cls-2" d="M41.34,37c-1.62-2.92-3-5.19-4-6.79-.58-1-1.06-1.75-1.47-2.41l-.51.29-.06,0,5,9.07c.31.56.62,1.1.93,1.64l.79-.56L41.34,37"/><path class="cls-2" d="M18.88,41.93v0c-.24-2.07-.44-3.77-.6-5.09l-.69.33c0,1.16.12,2.55.23,4.19-1.48-.84-2.84-1.58-4.11-2.22l-.86.48c1.45.91,3.13,1.92,5.07,3,0,.49.09,1,.14,1.55.19,2.25.39,4.13.59,5.66.29,0,.6-.05.92-.09-.1-1.62-.28-3.77-.56-6.47,2.23,1.27,4.76,2.68,7.57,4.22L27.69,47c-3.77-2.1-5.82-3.27-6.13-3.47-.92-.56-1.81-1.09-2.68-1.59"/><path class="cls-2" d="M40.68,33.39c.94,1.39,1.83,2.66,2.7,3.88C44,36.79,44.52,36.35,45,36l-5.27-9.28-.45-.81-.63.36c1.53,3.19,2.61,5.38,3.21,6.51.52.94,1,1.87,1.57,2.76L43,35q-2.81-4.36-5.54-8.11l-.81.46q1.55,2.41,4,6.07"/><path class="cls-7" d="M12.92,38.47q4.23,6.87,7.32,11.78a1.43,1.43,0,0,1-.63.69c-.51.33-1.84.46-4,.39A5.17,5.17,0,0,1,10.86,48a8.22,8.22,0,0,1-.81-4,9.41,9.41,0,0,1,1.64-4.38,2.18,2.18,0,0,1,1.23-1.07"/><path class="cls-8" d="M3,24s0-1.38,17.27-1.36,18.11,2,18.11,2-.62,1.78-17,1.56S3,24,3,24Z"/><path class="cls-3" d="M38.38,24.61c-.07.5-.12,1-.14,1.41s-.07.79-.14,1.44l-.24.07q-2.16.6-12.6,1.41L4.62,28.35a.42.42,0,0,1,0-.12C4.16,27.06,3.64,25.64,3,24c2.22.09,4.26.19,6.11.28a78.84,78.84,0,0,0,8.68.54l1.6.14,5.5,0a16.54,16.54,0,0,0,2.82.14A97.56,97.56,0,0,0,38.38,24.61Z"/><path class="cls-4" d="M24.7,25.88v3.6c-2.2.05-5.35.11-9.48.16-.06-.7-.13-1.47-.21-2.3l-.37-3.27c2.17.06,5.47.13,9.92.21,0,.46.09,1,.14,1.6"/><path class="cls-3" d="M16.47,27.81a10.08,10.08,0,0,1-.09-2c0-.25.07-.39.23-.43a27.6,27.6,0,0,1,3.15-.09,19.55,19.55,0,0,1,3.76.19c.13,0,.19.19.19.47a10.31,10.31,0,0,1-.09,1.6c-.1.44-1.79.65-5.08.65-1.22,0-1.91-.12-2.07-.37"/><path class="cls-4" d="M24.27,27c0,.32-.31.47-.94.47a1.11,1.11,0,0,1-.84-.23.4.4,0,0,1-.1-.29c0-.37.32-.54.94-.51s.94.22.94.56"/></g></svg>