<svg xmlns="http://www.w3.org/2000/svg" viewBox="0 0 66 66"><defs><style>.cls-1{fill:#f7d2a6;}.cls-1,.cls-2,.cls-3,.cls-4,.cls-5,.cls-6,.cls-7,.cls-8{fill-rule:evenodd;}.cls-2{fill:#515151;}.cls-3{fill:#ffadae;}.cls-4{fill:#efbd33;}.cls-5{fill:#d6a221;}.cls-6{fill:#f7cb5e;}.cls-7{fill:#cecece;}.cls-8{fill:#9b9b9b;}</style></defs><title>Plan de travail 57</title><g id="objet06"><path class="cls-1" d="M18.09,15.69a5.71,5.71,0,0,1,1,1.77,12.63,12.63,0,0,1-.43,4.88A5,5,0,0,1,14,26.18a7,7,0,0,1-4.1-.59c-.27-1.12-.65-2.73-1.17-4.82Q6.08,10.12,3.36,8.07a1.93,1.93,0,0,1,.47-2.75Q10.3,16,18.09,15.66Z"/><path class="cls-2" d="M5.68,11.42A8.94,8.94,0,0,0,3.36,8.07a1.93,1.93,0,0,1,.47-2.75A36.85,36.85,0,0,0,7.05,9.9a1.5,1.5,0,0,1-1.37,1.52"/><path class="cls-3" d="M61.49,56.9c-1.34,2.36-2.89,3.62-4.67,3.76a4.38,4.38,0,0,1-1.93-.28c-1.11-.86-2.28-1.82-3.53-2.87a26.13,26.13,0,0,0,2.11-2.69,17.21,17.21,0,0,0,3-7.08c.3.14.62.29,1,.43,1.07.46,2.35,1,3.83,1.57A4.56,4.56,0,0,1,63,52.69c.08.89-.43,2.29-1.5,4.21"/><path class="cls-4" d="M47.45,56.43Q39.82,49.79,37,47.5,25.73,38.67,20,34T9.75,25.6c1.37-.49,2.14-1.68,2.32-3.57a4.26,4.26,0,0,0,2.69,1.21,2.36,2.36,0,0,0,2.11-1.45,3.5,3.5,0,0,0,.31-1.68,3.57,3.57,0,0,0-1.25-2.39,3.14,3.14,0,0,0,2.3-1.88Q28.4,24.89,45,37.46l7.62,5.79a24.09,24.09,0,0,0,.59,2.53,20.07,20.07,0,0,1,.56,2.89c.24,2.87-1.26,5.12-4.48,6.75-.67.34-1.27.68-1.8,1"/><path class="cls-5" d="M47.45,56.43Q39.82,49.79,37,47.5,25.73,38.67,20,34T9.75,25.6c1.37-.49,2.14-1.68,2.32-3.57q26.26,21,39.74,31.65a11,11,0,0,1-2.56,1.74c-.67.34-1.27.68-1.8,1"/><path class="cls-6" d="M53.17,45.78a21.76,21.76,0,0,1,.53,2.61Q41.45,38.33,15.93,17.72a3.14,3.14,0,0,0,2.3-1.88Q28.4,24.89,45,37.46l7.62,5.79a24.09,24.09,0,0,0,.59,2.53"/><path class="cls-7" d="M50.62,58.94Q47.1,56,44.56,54.28c2-.84,3.49-2.71,4.51-5.61a16.88,16.88,0,0,0,1.09-6.85c0-.45-.07-.84-.09-1.17l.84.6a1.2,1.2,0,0,1,.09.21,5.08,5.08,0,0,1,.56.21c.83.57,1.74,1.17,2.73,1.82.43.31.9.67,1.4,1.06A43.58,43.58,0,0,0,59.52,47a18.41,18.41,0,0,1-.12,2.37,29,29,0,0,1-.52,3c-.24,1.17-1.74,3-4.49,5.48l-1.58.57-2.19.5"/><path class="cls-8" d="M52.3,54.76l3.11-3.32a19.55,19.55,0,0,1-2.24,3.75A10.7,10.7,0,0,1,49.45,58l-.36-.29a23.38,23.38,0,0,0,3.21-2.94m4.05-3.53a.73.73,0,0,0,.11-.26l-.15-.18a.63.63,0,0,0-1,.21l.1.44.51,0a.64.64,0,0,0,.43-.17m1-1.8a1.1,1.1,0,0,0-.9-.06c-.29.11-.42.27-.41.48l0,.26h.13l.39.09c.64,0,.94-.25.91-.58,0-.17,0-.26-.08-.25ZM53.1,50.54a30,30,0,0,1-6,5.6l.85.65a26.3,26.3,0,0,0,5.27-4.92,21.17,21.17,0,0,0,3.86-6.38c-.34-.22-.63-.4-.86-.57a19.93,19.93,0,0,1-3.11,5.62m-7.76,4.3.72.52A17,17,0,0,0,52,49.87a15.7,15.7,0,0,0,2.65-6.14l-.32-.24-.41-.27A16,16,0,0,1,51.19,49a24.24,24.24,0,0,1-5.85,5.8"/></g></svg>