<svg xmlns="http://www.w3.org/2000/svg" viewBox="0 0 66 66"><defs><style>.cls-1{fill:#65b77e;}.cls-1,.cls-2,.cls-3{fill-rule:evenodd;}.cls-2{fill:#fc3;}.cls-3{fill:#f90;}</style></defs><title>Plan de travail 33</title><g id="objet04"><path class="cls-1" d="M42.63,44a2.31,2.31,0,0,1,.87-1.72,5.3,5.3,0,0,1,3.77-1.06,1.46,1.46,0,0,1-.07-.73c0-.4.36-.59.93-.59a1.08,1.08,0,0,1,.63.29c.07-.45.16-1,.3-1.75.22-1.37.33-2.17.33-2.39.39-2.48.63-4.06.69-4.76l.63-.47v.14c0,.35-.22,1.94-.66,4.76-.32,2.19-.6,3.84-.83,5,.06.06.11.13.17.2l.13.16c.1-.7.35-1,.73-1a.45.45,0,0,1,.26.14c.11-1.45.18-2.33.2-2.65q.32-5,.37-7l.4-.3,1.75-1.32a4.29,4.29,0,0,0,.13.82q-.12,6.3-.2,10.5A3,3,0,0,1,54.42,40c1.1,0,1.72.31,1.86.92a2.55,2.55,0,0,1-.2,1.39c2-.48,3.48,0,4.37,1.46a5.37,5.37,0,0,1,.72,2.72,6.87,6.87,0,0,1-.39,2.38,1.94,1.94,0,0,1-2.72,1.19,4,4,0,0,1,.33,1.53q0,2.84-3.37,2.84a3,3,0,0,1-1.46-.33,3.14,3.14,0,0,0-.73-.46q-1.26,2.85-3.57,2.85a2.77,2.77,0,0,1-2.72-1.86c-.31-1.28-.46-1.94-.46-2L46.34,50v-.14L44.82,51a2.38,2.38,0,0,1-1.39.46,1,1,0,0,1-1.06-.73L42.24,50q0-1.12,1.92-3.51A12.33,12.33,0,0,1,43,45.15,2,2,0,0,1,42.63,44Zm9.57-3.18c-.07-1.26-.14-2.51-.23-3.74-.07,1-.16,2-.26,3.08,0,.26-.05.51-.07.76a.82.82,0,0,1,.26-.1Z"/><path class="cls-2" d="M29.42,25.25s8.18,6.49,18.52,6.53c7,0,7.25-7.68,3.17-11.82-2.08-2.12-3.08-3.44-7-4.7a13.9,13.9,0,0,0-6-.63,28.43,28.43,0,0,0-8.81-2.42A30.88,30.88,0,0,0,21.11,12a10.22,10.22,0,0,0-3.31-1.09,8.48,8.48,0,0,0-3.7.16A21.34,21.34,0,0,0,8.2,9.76a28.67,28.67,0,0,0-3.34-.23l0,.76c.27.19.92.67,2,1.46a20.64,20.64,0,0,0,5,2.68c.2.8,1.08,1.59,2.61,2.38a26.82,26.82,0,0,0,5.14,2A8.37,8.37,0,0,0,22.9,22,32.21,32.21,0,0,0,29,24.76a6.28,6.28,0,0,0,.43.49"/><path class="cls-3" d="M32.44,21.31l1-1.12a9.28,9.28,0,0,1-2,3c-1.37,1.46-2.36,2.18-3,2.18,0,0-.11,0-.2-.13a5,5,0,0,1,.4-.4A16.09,16.09,0,0,0,32.44,21.31Zm6.35-6.82a6.6,6.6,0,0,1,.34,1.92,9.31,9.31,0,0,1-2.19,6.1l-.13.06c.15-.32.31-.67.46-1.06a14.53,14.53,0,0,0,1.19-4.83c0-.22-.13-1.26-.39-3.11a1.55,1.55,0,0,0-.07-.23C38.31,13.38,38.58,13.77,38.79,14.49Zm-24.23-3a2.41,2.41,0,0,1-.6,1.32,2.73,2.73,0,0,1-1.06,1.06l.27-.46a7.63,7.63,0,0,0,1.06-2.65C14.45,10.78,14.56,11,14.56,11.45Zm7,3a6.47,6.47,0,0,1-.73,2.78A8.08,8.08,0,0,1,19,19.79c-.14,0-.2-.11-.2-.2.88-.77,1.79-2.63,2.71-5.59Z"/></g></svg>