<svg xmlns="http://www.w3.org/2000/svg" viewBox="0 0 66 66"><defs><style>.cls-1{isolation:isolate;}.cls-2{fill:#d7a354;}.cls-2,.cls-3,.cls-4,.cls-5,.cls-7,.cls-8{fill-rule:evenodd;}.cls-3{fill:#d3cfc9;}.cls-4,.cls-7{fill:#999;}.cls-4,.cls-6{opacity:0.5;mix-blend-mode:multiply;}.cls-5{fill:#b3752d;}.cls-8{fill:#e29a44;}</style></defs><title>Plan de travail 51</title><g class="cls-1"><g id="objet06"><path class="cls-2" d="M40.2,39.66l6,10.47c-1.2,1.2-6.7,5.78-6.7,5.78Q38,57.13,36,58.5q-6,4.09-11.38,4.47c-3.55.26-6.17.06-7.84-.6s-2.38-1.49-2.1-2.48,2.7-3,7.22-6a3.62,3.62,0,0,0,.32-.22A144.13,144.13,0,0,0,40.2,39.66Z"/><path class="cls-3" d="M18,55.78a77.29,77.29,0,0,0,3.78,7.91c-1,.09-1.55.14-1.76.14A10.33,10.33,0,0,1,15.31,63a2.43,2.43,0,0,1-1.08-2.88Q14.68,58.11,18,55.78Z"/><path class="cls-4" d="M19.4,62.21v0a.43.43,0,0,1-.49.49h0a.37.37,0,0,1-.29-.11.29.29,0,0,1-.13-.16.5.5,0,0,1-.05-.16v-.11c0-.39.17-.57.5-.54A.48.48,0,0,1,19.4,62.21Zm-1.93-4.63h.13A.39.39,0,0,1,18,58c0,.33-.18.49-.54.49s-.44-.07-.5-.22a.64.64,0,0,1,0-.27.45.45,0,0,1,.09-.32A.69.69,0,0,1,17.47,57.58Zm-1.26,5a.47.47,0,0,1-.45-.27L15.67,62c0-.39.18-.55.54-.49s.54.24.54.53S16.57,62.57,16.21,62.57Zm-.68-3c.33,0,.5.12.5.45s-.17.54-.5.54-.39-.07-.45-.22a.53.53,0,0,1,0-.23v0C15,59.8,15.2,59.63,15.53,59.6Z"/><path class="cls-5" d="M18.91,2.58C21.2,1.5,27.7,2.25,31.62,8.66s7.66,15.94,9.91,25.89L38,37.08S34.53,20.83,27.28,10.66c-5-7-11.07-6.25-11.07-6.25A4.73,4.73,0,0,0,18.91,2.58Z"/><path class="cls-3" d="M38.31,36a18.84,18.84,0,0,1,5.56-2.76q6.21,9.49,8,15.4a10,10,0,0,1,.29,1.24A30.35,30.35,0,0,0,45,54.43c-1.16,0-2.58-1.91-4.25-5.8-.76-1.77-1.45-3.54-2-5.29,0,0-1.68-4.11-2.29-5.88Z"/><g class="cls-6"><path class="cls-7" d="M43.94,35.85q.69,1.3,2.4,4.68,3.24,6.39,3.65,7.11A1.64,1.64,0,0,0,50.8,47c.3,1,.25,1.66-.14,2a5.53,5.53,0,0,1-1.51,1.06c-.62.3-1.42-.46-2.4-2.3s-2-4-3.17-6.41a14.53,14.53,0,0,1-1.67-5.17c0-1,.71-1.55,2.07-1.64a3.34,3.34,0,0,1,1,1.26A1,1,0,0,0,43.94,35.85Z"/></g><path class="cls-8" d="M15.47,3.83c-.25.75-.53,1.68-.86,2.79a29,29,0,0,0-.43,11.67q.91,7.07,7.36,13.79t20,7.69c-.07-1-.16-2.14-.27-3.51A35.84,35.84,0,0,1,23.37,24.33c-5.54-7-4.08-17.55-4.46-21.75C18.91,2.58,16.73,4,15.47,3.83Z"/></g></g></svg>