<svg xmlns="http://www.w3.org/2000/svg" viewBox="0 0 66 66"><defs><style>.cls-1{fill:#e3e6e8;}.cls-1,.cls-2,.cls-3{fill-rule:evenodd;}.cls-2{fill:#acb6bc;}.cls-3{fill:#f9ba2d;}</style></defs><title>Plan de travail 43</title><g id="objet05"><path class="cls-1" d="M25.07,6.92s4.64-4.61,9-4.61,1.36,4.48,1.36,4.48l.88-.18s2.55-5.21-2.1-5.11-9.84,5.38-9.84,5.38Z"/><path class="cls-2" d="M34.42,29.69s6.58-1.11,10.5,0l0,.71a67.08,67.08,0,0,0-10.48,0Z"/><path class="cls-1" d="M19.07,15c-.06.33.68.68,2.2,1a23.58,23.58,0,0,0,4.92.66A26.85,26.85,0,0,0,32.68,16c.82-3.22,1.58-5.85,2.29-7.91s1.26-3.2,1.68-3.46.47-.07.19.56a10.75,10.75,0,0,0-.79,2.41q-1.32,5.49-2.28,10a22.49,22.49,0,0,0,1.52,6.56c.77,1.9,1.29,3.25,1.55,4.05a5,5,0,0,0,1,1.88,3.47,3.47,0,0,0,1.52,1,6.78,6.78,0,0,0,1.41.35,15,15,0,0,0,1.94-.52A8.78,8.78,0,0,0,44.58,30c-.12-2.24-.17-3.43-.17-3.57,0-1.25.25-1.9.77-2s.76.48.76,1.62a9.07,9.07,0,0,1-.38,2,6.41,6.41,0,0,1,1.75-1.8c1.71-1.14,2.56-1,2.56.43a3.45,3.45,0,0,1-1.36,2.18,5,5,0,0,1-2.76,1.39,8.2,8.2,0,0,1,1.56,1.09,9.62,9.62,0,0,1,1.11,1.09,5,5,0,0,0-.11.51c-.47-.36-1.29-1.05-2.45-2.09A10.19,10.19,0,0,1,46.54,32a12.19,12.19,0,0,1,.92,2.31c-.18.06-.38.15-.6.25-.16-.41-.36-.91-.57-1.49A14.06,14.06,0,0,0,44.9,30.4a5.41,5.41,0,0,1-1,.7,9,9,0,0,1-2.26.94,6.37,6.37,0,0,0-1.73.64,1.83,1.83,0,0,0-.9,1.58l0,16.92c.11,1.59.17,4,.17,7.17,0,0-.06,1.76-.17,5.13A43.78,43.78,0,0,1,25,64.29a35.31,35.31,0,0,1-7.41-2L17.06,62q1.15-26.85,4.45-31.92a41.63,41.63,0,0,1-5.38-14q1.34-1.69,3.71-4.31c2.24-2.48,4-4.34,5.3-5.6l.3.34-6.2,7.86a4.33,4.33,0,0,0-.17.68M44.92,26.32l.21,2.13c0-.09,0-.19.07-.3a10.28,10.28,0,0,0,.25-2.07c0-.61-.11-.95-.36-1a4,4,0,0,0-.17,1.24m.43,3.37a5.28,5.28,0,0,0,2.41-1.35C48.59,27.61,49,27,49,26.55s-.39-.42-1.13.15a13.29,13.29,0,0,0-2.55,2.93Z"/><path class="cls-3" d="M23.56,27.68a.37.37,0,0,0,.34.22.42.42,0,0,0,.47-.47.38.38,0,0,0-.43-.43.42.42,0,0,0-.34.17.4.4,0,0,0-.13.26.63.63,0,0,0,.09.25m5.94-6.87.38.21-1.37,2.43a3.64,3.64,0,0,0,1.29.22q.46,0,.72-1.5c.06-.28.12-.53.17-.72l.3.12a3.49,3.49,0,0,1,0,1.63c-.34,1.14-.85,1.72-1.53,1.75a4.14,4.14,0,0,1-2.1-.51,18.84,18.84,0,0,1-2.9,3.84,1.17,1.17,0,0,1-1.11,0,1.15,1.15,0,0,1-.6-.81c-.06-.35.37-.93,1.28-1.76s1.68-1.52,2.39-2.09A2.68,2.68,0,0,1,25.78,22a1.75,1.75,0,0,1,.43-1.24A3.37,3.37,0,0,1,27.87,20l.26.13c-.14.14-.34.33-.6.55-.51.46-.77.79-.77,1a.91.91,0,0,0,.26.59c.71-.71,1.31-1.29,1.79-1.75l.3.13c-.77,1-1.34,1.71-1.71,2.14a.49.49,0,0,0,.13.08,1.62,1.62,0,0,0,.39.3c.14-.23.31-.48.51-.77.43-.62.78-1.14,1.07-1.53"/><path class="cls-2" d="M35.05,35.8a4.52,4.52,0,0,1-1.58.17,32.55,32.55,0,0,1-6.79-.85,17.56,17.56,0,0,1-4.83-1.5l0-.09a65,65,0,0,0,7.37,1.24q3.36.42,6,.67l.19,0,0,.08a2.16,2.16,0,0,1-.38.26m-.13,4a7.44,7.44,0,0,1-1.07,3.5,5.3,5.3,0,0,1-4.91,3,7.75,7.75,0,0,1-5.47-1.79,5.82,5.82,0,0,1-1.75-4.4,1.18,1.18,0,0,1,.13-.56l0,0h0l-.21,0-.05-.22a.39.39,0,0,1,.17-.3.48.48,0,0,1,.47-.08.45.45,0,0,0,.09.17c0,.24-.14.4-.43.47.49,2.48,1.45,4.15,2.86,5a7.27,7.27,0,0,0,3.76.81,5.58,5.58,0,0,0,5.26-2.78,17.62,17.62,0,0,0,1-3.33h0a1.9,1.9,0,0,1,.13.56M22.19,38.53h-.25l-.05-.12H22v0l.25.09Z"/></g></svg>