<svg xmlns="http://www.w3.org/2000/svg" viewBox="0 0 66 66"><defs><style>.cls-1,.cls-3{fill:#c6d2db;}.cls-2{fill:#edeeef;}.cls-2,.cls-3,.cls-4{fill-rule:evenodd;}.cls-4{fill:#b2cad8;}</style></defs><title>Plan de travail 26</title><g id="objet03"><path class="cls-1" d="M5.56,33.77S6.77,37.41,60.32,46C60.32,41.72,15.69,32.45,5.56,33.77Z"/><path class="cls-2" d="M13.23,20.59q9.06,1.86,29.24,8.48a170.45,170.45,0,0,1,16.29,6.42c1.12.53,2.15,1,3.11,1.55-.16.7-.31,1.46-.44,2.28,0,.23-.08.5-.13.8h0a1.56,1.56,0,0,1,.46,1,1.69,1.69,0,0,1-.61,1.3l-.23.19.06,0a.29.29,0,0,0,0,.09c-.23,1.17-.43,2.27-.62,3.29q-2.57-.7-6.07-1.76L40.41,40.12q-5-1.18-14.15-2.87-10.35-1.92-20.7-3.48c-1.22-2.64-1.88-4.15-2-4.51s-.35-1-.55-1.62q.13-.34.36-.36a22.12,22.12,0,0,1,2.3.3c1.47-1.5,2.15-2.89,2-4.17a3.72,3.72,0,0,1,.16-1.49l-.1,0,1.59-1.24.8-.63c.92.13,1.95.32,3.1.56"/><path class="cls-3" d="M57,38.82c.2.15.09.23-.34.23s-5.31-1.39-14.45-4.17q-14.58-4.5-16.63-5.12c.1-.05.15-.11.15-.19q11.58,2.74,16.32,4a105.19,105.19,0,0,1,15,5.05ZM57,41q-7.53-2.18-19.73-4.59-16.86-3.36-22.17-4.59a182.85,182.85,0,0,1,21.72,3.1,193.44,193.44,0,0,1,20.14,5.89ZM16.9,28.42Q12.84,27,9.06,25.59a36.51,36.51,0,0,1,7.76,1.72A24.88,24.88,0,0,1,23.24,30c.08.05-.11.08-.57.08a31.06,31.06,0,0,1-5.77-1.61m-2.72,1A44.44,44.44,0,0,1,9.33,29c-2.81-.34-4.43-.7-4.86-1.11l-.15-.19a48.21,48.21,0,0,1,6.23.57,47.51,47.51,0,0,1,5.28,1,4.41,4.41,0,0,1-1.65.16"/><path class="cls-4" d="M63,39.05a18.58,18.58,0,0,1-2.06.53q-.42.54-.42-.15c0-.25.29-.42.87-.49a8.08,8.08,0,0,1,1-.12l.3.08c.18.05.28.1.31.15m-2,4.47a1,1,0,0,0-.45-.19L60.44,43c.23-.1.67.06,1.34.5.23.1.12.15-.31.15a1.07,1.07,0,0,1-.5-.08M40.9,35.72a.61.61,0,0,1-.34.23c-.18.08-.31.08-.38,0a1.09,1.09,0,0,1,.49-.26l.23,0m11.47-3.63c0,.16-.14.37-.42.65a1.49,1.49,0,0,1-.8.46,1.57,1.57,0,0,1,.34-.69,2.68,2.68,0,0,1,.73-.69l.08-.11c.05,0,.07.1.07.38m2,1.19a9.17,9.17,0,0,1-1,1.11c-.08.2-.11.07-.11-.39,0-.15.28-.51.84-1.07s1-.84,1.18-.84a7.37,7.37,0,0,1-.88,1.19M31.88,32.09l0-.07c-.05.25-.07.16-.07-.27a1.13,1.13,0,0,1,0-.46v0A9.12,9.12,0,0,1,33,31.4l.11.42a.41.41,0,0,1-.11.23,1.29,1.29,0,0,1-.57.08,2,2,0,0,1-.54,0m-.11,4a1,1,0,0,1,.07.53A4.36,4.36,0,0,1,31,38a1.76,1.76,0,0,1-.38-.23,1,1,0,0,1-.11-.57,1.16,1.16,0,0,1,.46-.84,3,3,0,0,1,.61-.39.57.57,0,0,0,.23.16m-1.8.11a.67.67,0,0,0-.54.31l-.15-.16a1.15,1.15,0,0,1,.69-.72Zm8.37-1.72a1,1,0,0,1,.92-.34.91.91,0,0,1-.8.53Zm-23.28.27-.8.8h-.15a2.53,2.53,0,0,0,.45-.84c.13-.2.3-.19.5,0M11.7,36.22a3.27,3.27,0,0,1,.72-1,3.43,3.43,0,0,1,1.07-.84,4.6,4.6,0,0,1-.61,1.11c-.36.56-.57.91-.65,1.07a1.24,1.24,0,0,1-.53-.31M7,21.77A4.09,4.09,0,0,1,8,22.61c.17.23.44.56.8,1l-.08.19c-.4-.34-.74-.6-1-.81a4.52,4.52,0,0,1-1-1c.12-.07.19-.14.19-.19m.23,2.33a2,2,0,0,1,1.14.69c0,.13-.09.2-.26.23-1.1-.36-1.64-.68-1.61-1a5.18,5.18,0,0,1,.73,0M3.55,31.6l-.11-.39a4,4,0,0,1,.92-.42A2.34,2.34,0,0,1,5,30.6l.11.23a2.4,2.4,0,0,1-1.57.77"/></g></svg>