<svg xmlns="http://www.w3.org/2000/svg" viewBox="0 0 66 66"><defs><style>.cls-1{fill:#acb6bc;}.cls-1,.cls-2{fill-rule:evenodd;}.cls-2{fill:#e3e6e8;}</style></defs><title>Plan de travail 23</title><g id="objet03"><path class="cls-1" d="M6.37,42.13s-1.22-.51-1.07.64C5.93,47.39,12.67,59.12,38,62.91,45.35,64,20,37.61,6.37,42.13Z"/><path class="cls-2" d="M24.19,13.65a14.12,14.12,0,0,1,5.51,2.73l.62.53Q30.71,9.68,35,6.06a13.62,13.62,0,0,1,10.33-3A19,19,0,0,1,55.6,7q4.68,3.62,4.68,8.25A19.86,19.86,0,0,1,59,21.86a11.23,11.23,0,0,1-2.56,4.36,6.94,6.94,0,0,1,1.63,1.37c1.83,2,2.74,3.83,2.74,5.47a10.91,10.91,0,0,1-1.11,4.72,6.47,6.47,0,0,1-6.3,4.06A8.25,8.25,0,0,1,46,37.78c-.14-.35-.28-.69-.39-1q-.41,3-3.71,16.63c-.53,2.2-1.32,5.26-2.36,9.2l-1,.4A44.39,44.39,0,0,0,27.81,51.28a38,38,0,0,0-14.57-6.7L5.3,42.77c0-.31-.07-.6-.11-.88q5-4.16,7.7-6.4,7.2-6,12.36-10.33c-.48,0-1,.05-1.51.05q-5.32,0-7-2.61a3.8,3.8,0,0,1-.62-1.8v-.89q0-4.18,2.52-5.73a7.24,7.24,0,0,1,5.56-.53"/><path class="cls-1" d="M16.42,42.64c0-.33,1.5-1.91,4.5-4.77a51,51,0,0,1,7.55-6.26l.13.17q-3.53,3.8-5.43,5.69a30.76,30.76,0,0,1-6.62,5.39c-.09.09-.13,0-.13-.22m9,2.29a4.23,4.23,0,0,1,.71-1.41c.47-.77.85-1.21,1.15-1.32l.08-.05c.06,0,.09.1.09.22a4,4,0,0,1-.75,1.68c-.5.76-.84,1.18-1,1.23s-.27-.14-.27-.35m-4.19-.22c0-.44,1-1.76,3-4A19.48,19.48,0,0,1,28.33,37c-.47.53-1.58,1.9-3.35,4.11a43.34,43.34,0,0,1-3.4,4L21.32,45q-.09,0-.09-.27M38.75,47.8a24,24,0,0,1-1.15,2.38l-.13,0c.35-1.27.6-2.13.75-2.61a5.29,5.29,0,0,1,1.37-2.16v.22a10.92,10.92,0,0,1-.84,2.21m1,.53a50.49,50.49,0,0,1,3.4-9.18,27.74,27.74,0,0,1-3.27,9.27Z"/></g></svg>