<svg xmlns="http://www.w3.org/2000/svg" xmlns:xlink="http://www.w3.org/1999/xlink" viewBox="0 0 66 66"><defs><style>.cls-1{fill:none;}.cls-2{fill:#7680a5;}.cls-2,.cls-3,.cls-5,.cls-7{fill-rule:evenodd;}.cls-3{fill:#ededef;}.cls-4{opacity:0.25;}.cls-5{fill:#fff;}.cls-6{clip-path:url(#clip-path);}.cls-7{fill:#8e9abc;}.cls-8{opacity:0.5;}</style><clipPath id="clip-path"><path class="cls-1" d="M19.94,11.79q-6.14,2.55-12.66,5.5Q8.59,21.9,12,34.14A76.68,76.68,0,0,0,17.52,49a22.18,22.18,0,0,0,9.13,9.44q6.2,3.3,16.51,3.3A7.77,7.77,0,0,1,47.39,63a8.34,8.34,0,0,1,1.77-4.25c.37-.5,1.66-2,3.89-4.36q5.67-6.07,5.67-12.47,0-6.9-4.4-18.77A140.41,140.41,0,0,0,44.85,3a200.75,200.75,0,0,0-24.91,8.79"/></clipPath></defs><title>Plan de travail 18</title><g id="objet02"><path class="cls-2" d="M54.32,23.15q4.4,11.87,4.4,18.77,0,6.39-5.67,12.47c-2.23,2.4-3.52,3.86-3.89,4.36A8.34,8.34,0,0,0,47.39,63a7.77,7.77,0,0,0-4.23-1.27q-10.32,0-16.51-3.3A22.18,22.18,0,0,1,17.52,49,76.68,76.68,0,0,1,12,34.14Q8.59,21.9,7.28,17.29q6.53-3,12.66-5.5A200.75,200.75,0,0,1,44.85,3a140.41,140.41,0,0,1,9.47,20.15"/><path class="cls-3" d="M49.43,25.61q3.49,8.92,3.66,14.09.07,4.8-4.05,9.37c-1.64,1.82-2.6,2.92-2.86,3.29A6,6,0,0,0,45,55.54a6,6,0,0,0-3.22-1q-7.77,0-12.5-2.46a17.53,17.53,0,0,1-7-7.1,61.6,61.6,0,0,1-4.4-11.16Q15,24.7,13.91,21.2q4.88-2.22,9.48-4.13a145.69,145.69,0,0,1,18.54-6.59,114.79,114.79,0,0,1,7.5,15.13"/><g class="cls-4"><path class="cls-5" d="M38,37.32Q43.45,50.55,47.41,63h0a7.77,7.77,0,0,0-4.23-1.27q-10.32,0-16.51-3.3A22.18,22.18,0,0,1,17.52,49,76.68,76.68,0,0,1,12,34.14Q8.59,21.9,7.28,17.29q6.53-3,12.66-5.5,3-1.24,5.86-2.36Q33.09,25.62,38,37.32"/></g><g class="cls-6"><path class="cls-7" d="M38,5.68a1.1,1.1,0,0,1-.83.52l-.44-.36c0-.29.28-.65.84-1.07s.79-.4.79.15a1.27,1.27,0,0,1-.36.76M49.08,22.55a.7.7,0,0,1-.28.52,1.08,1.08,0,0,1-.72.27,1,1,0,0,1-.63-.31c-.19-.16-.28-.27-.28-.32,0-.53.32-.73.95-.6s1,.28,1,.44M46,22.31l-.24,0a.39.39,0,0,1-.08-.28A.42.42,0,0,1,46,21.6c.05,0,.13.17.24.43a.92.92,0,0,1-.24.28m.64-.28a1.3,1.3,0,0,1,.55-.35c.11.26-.05.66-.47,1.19l-.32-.48q0-.12.24-.36m4.84-4.52a3.55,3.55,0,0,1-.36.91,3.09,3.09,0,0,1-.44.76c-.23-.22-.35-.36-.35-.44a3.07,3.07,0,0,1,.35-.75,2.42,2.42,0,0,1,.56-.8l.16.08s.08.11.08.24m-2,0c0-.19.16-.37.48-.56a.55.55,0,0,1,.24.48v.2a.81.81,0,0,1-.56.16l-.12-.08a.37.37,0,0,1,0-.2M36.73,7.31s0-.11,0-.24.11-.19.32-.4a3.38,3.38,0,0,1,.4-.32l.35.44c0,.16-.19.37-.59.64l-.36-.12ZM36.1,32c0-.27.31-.48.95-.64h.08a.51.51,0,0,1,0,.24q0,.48-.84.72l-.19-.08s0-.11,0-.24m3.49.55,0,.4V33l-.24,0a.6.6,0,0,1-.24-.48q0-.44.24-.51a.5.5,0,0,1,.28.47m-1.71-1a1.39,1.39,0,0,1,.24.56,1,1,0,0,1-.08.35.35.35,0,0,1-.24.12.77.77,0,0,1-.28-.47.61.61,0,0,1,.36-.56M26,45.06l.08.08c-.18.29-.38.42-.59.39l-.36-.12V45.3a.88.88,0,0,0,.32-.4c.08-.08.26,0,.55.16M56.42,37.4c-.5.6-.89.92-1.15,1,.13-.21.74-.93,1.82-2.14.06.21-.17.6-.67,1.19M54,38.31a.52.52,0,0,1,.36-.44,2.74,2.74,0,0,0,0,.6.44.44,0,0,1-.48.36,1.34,1.34,0,0,0,.16-.52m2-1.75L55.31,38a2.87,2.87,0,0,1-.83,1.07,5,5,0,0,0,.71-1.31A3.19,3.19,0,0,1,56,36.56m4.29-2.86a26.06,26.06,0,0,1-4.53,4.49C56.25,37.73,57,37,58,35.93a30.6,30.6,0,0,1,2.26-2.23M19.7,15.6a29.34,29.34,0,0,1-5.87-4.76H14c.15.13,1.11.87,2.85,2.22,1.27,1,2.24,1.79,2.9,2.42Zm-3.41-2.34a33.7,33.7,0,0,1,4.21,3.93l-.08.08A108.66,108.66,0,0,1,11.57,10a31,31,0,0,1,4.72,3.25M14,24.73a1.19,1.19,0,0,1,.51-.43.67.67,0,0,1,.12.27A1.4,1.4,0,0,1,14,25.73c-.19-.22-.28-.36-.28-.44a1,1,0,0,1,.24-.56m1.54.36a7.74,7.74,0,0,1-.71,1.11.49.49,0,0,1-.24-.44,1.89,1.89,0,0,1,.12-.67.48.48,0,0,1,.72-.28c0,.06.09.08.11.08ZM15.73,27a.93.93,0,0,1-.35-.72.63.63,0,0,1,.35-.59,9.44,9.44,0,0,0,.36,1.07q0,.12-.36.24m.6,12.62a6.89,6.89,0,0,0-.36.75.4.4,0,0,1-.4.28l-.31-.08-.08-.24a1.05,1.05,0,0,1,1-.87Zm.47,1.47a1,1,0,0,1-.07.28l-.28.15-.24,0c-.05,0-.08-.1-.08-.23,0-.32.12-.51.36-.56s.31.08.31.4m.36,1.47q0-.12.24-.12a.66.66,0,0,1,.24.39L17.4,43a1.21,1.21,0,0,1-.24-.51m37.63,7.26a.7.7,0,0,0-.28.32.36.36,0,0,1-.39.16c0,.05,0,0,0-.2s.2-.29.59-.48Zm.28.76c0,.39-.25.62-.75.67a.41.41,0,0,1-.32-.4c0-.13.28-.34.83-.63a.34.34,0,0,1,.24.36m-.52,1.15c0,.05-.07,0-.07-.2s.13-.17.39-.28a1.2,1.2,0,0,1,.76-.12c-.29.42-.55.64-.76.64Zm-8,6.19v.2c0,.29-.18.43-.52.43l-.24,0c.13-.39.35-.59.64-.59q.07,0,.12,0m-19-12.23a.66.66,0,0,1,0,.28c0,.19-.14.38-.43.6a1.43,1.43,0,0,1-.6.31c-.11,0-.17,0-.2,0s-.08-.09-.08-.2.16-.33.48-.59a4.4,4.4,0,0,1,.59-.4l.2,0m-1,.12c0,.27-.21.45-.63.56l-.24-.2a1.09,1.09,0,0,1,.31-.4c.19-.16.3-.26.32-.32a.35.35,0,0,1,.24.36m4,18.58a32,32,0,0,0,3.57-8.85h.12a16,16,0,0,1-3.57,9,.11.11,0,0,1-.12-.12m.36-4.41a1.29,1.29,0,0,1,.39-.16q0,.6-.51.6c-.08.11-.12,0-.12-.16s.08-.17.24-.28m-.68,2.82c.32-.42.76-1.08,1.31-2a7.75,7.75,0,0,1,1.39-1.59c-.47.79-.85,1.4-1.11,1.82a7.07,7.07,0,0,1-1.51,1.79Z"/><g class="cls-8"><path class="cls-5" d="M47.61,4.05c0,.19-.35-.47-1.11-2l.27.49a7.22,7.22,0,0,1,.84,1.47M46.14,1.43a28.8,28.8,0,0,1,2.74,8.5A12.6,12.6,0,0,1,48,16.6,5.35,5.35,0,0,1,43.48,20a7.76,7.76,0,0,0-4.84,1.91Q36.89,23.54,37.49,27a47.61,47.61,0,0,0,2.34,8.17,37.36,37.36,0,0,1,1.9,6.31A4.31,4.31,0,0,1,41,44.3a7.54,7.54,0,0,1-1.91,2.35,22.29,22.29,0,0,1-5.16,2q-4.12,1.18-5.36,2.9a10.1,10.1,0,0,0-1.5,5.4,33.86,33.86,0,0,0,0,6,2.63,2.63,0,0,1-.2.95,1.38,1.38,0,0,0,.16,1.19,17.37,17.37,0,0,1-2.9-2.82,4.47,4.47,0,0,1-.2-.83,2.89,2.89,0,0,1-1-1,.82.82,0,0,1-.44.2c-.5.08-.89-.39-1.15-1.39s-.28-1.52-.28-1.55a45.25,45.25,0,0,1-.47-7.54A6.88,6.88,0,0,1,22,46.37,3.84,3.84,0,0,1,24.55,45q7.82-1.66,9.64-6.63c.56-1.54.46-3.77-.28-6.71Q30,16.43,36.41,16.52c.9-.16,2.19-.43,3.85-.8q5.52-1.19,6.08-5a34.16,34.16,0,0,0,0-8.14c-.06-.39-.12-.79-.2-1.19Z"/></g></g></g></svg>