<?xml version="1.0" encoding="utf-8"?>
<!-- Generator: Adobe Illustrator 16.0.0, SVG Export Plug-In . SVG Version: 6.00 Build 0)  -->
<!DOCTYPE svg PUBLIC "-//W3C//DTD SVG 1.1//EN" "http://www.w3.org/Graphics/SVG/1.1/DTD/svg11.dtd">
<svg version="1.1" id="Calque_1" xmlns="http://www.w3.org/2000/svg" xmlns:xlink="http://www.w3.org/1999/xlink" x="0px" y="0px"
	 width="100px" height="100px" viewBox="0 0 100 100" enable-background="new 0 0 100 100" xml:space="preserve">
<g>
	<defs>
		<rect id="SVGID_20_" width="100" height="100"/>
	</defs>
	<clipPath id="SVGID_1_">
		<use xlink:href="#SVGID_20_"  overflow="visible"/>
	</clipPath>
	<g opacity="0.2" clip-path="url(#SVGID_1_)">
		<g>
			<g>
				<path fill="#E2007A" d="M7.94,81.908l-0.207,0.035c-0.858,0.152-1.433,0.971-1.281,1.83c0.152,0.859,0.971,1.432,1.83,1.28
					l0.206-0.036c0.859-0.152,1.433-0.971,1.281-1.83C9.618,82.329,8.799,81.756,7.94,81.908z"/>
				<path fill="#E2007A" d="M13.015,53.673c-0.715-0.5-1.698-0.326-2.199,0.388l-6.038,8.623c-0.499,0.715-0.326,1.699,0.388,2.199
					c0.357,0.25,0.783,0.332,1.181,0.262s0.769-0.293,1.02-0.649l6.037-8.623C13.902,55.158,13.729,54.174,13.015,53.673z"/>
				<path fill="#E2007A" d="M1.897,3.482c0.356,0.25,0.781,0.332,1.18,0.262c0.397-0.07,0.77-0.292,1.019-0.648
					c0.501-0.715,0.327-1.699-0.388-2.199l-8.623-6.038c-0.714-0.5-1.698-0.326-2.198,0.388c-0.5,0.715-0.326,1.699,0.388,2.199
					L1.897,3.482z"/>
				<path fill="#E2007A" d="M-0.353,83.369l-0.208,0.037c-0.857,0.151-1.432,0.971-1.28,1.829c0.152,0.858,0.971,1.433,1.829,1.28
					l0.207-0.036c0.859-0.151,1.433-0.97,1.281-1.829S0.506,83.219-0.353,83.369z"/>
				<path fill="#E2007A" d="M35.081,41.849c0.859-0.151,1.433-0.97,1.281-1.829s-0.971-1.432-1.83-1.281l-0.207,0.037
					c-0.859,0.152-1.433,0.971-1.281,1.83c0.151,0.858,0.972,1.432,1.829,1.279L35.081,41.849z"/>
				<path fill="#E2007A" d="M81.256,13.962L70.889,15.79c-0.858,0.151-1.432,0.97-1.28,1.829s0.971,1.432,1.829,1.281l10.366-1.828
					c0.859-0.152,1.433-0.971,1.281-1.83C82.934,14.384,82.114,13.811,81.256,13.962z"/>
				<path fill="#E2007A" d="M41.179,40.575c0.091-0.017,0.182-0.04,0.271-0.073c6.47-2.366,10.296-9.016,9.098-15.81l-2.56-14.513
					c-0.151-0.859-0.97-1.433-1.828-1.281s-1.432,0.971-1.28,1.829l2.559,14.513c0.932,5.285-2.042,10.457-7.073,12.297
					c-0.818,0.299-1.239,1.206-0.94,2.025C39.691,40.291,40.439,40.705,41.179,40.575z"/>
				<path fill="#E2007A" d="M65.792,44.367c-0.715-0.5-1.699-0.326-2.199,0.388s-0.327,1.698,0.388,2.198l8.623,6.039
					c0.356,0.25,0.781,0.331,1.18,0.261c0.397-0.069,0.769-0.292,1.019-0.649c0.501-0.715,0.327-1.699-0.388-2.199L65.792,44.367z"
					/>
				<path fill="#E2007A" d="M72.005,70.611l-8.853,1.561c-0.006-0.174-0.02-0.349-0.05-0.525c-0.958-5.43-6.155-9.068-11.585-8.111
					l-0.519,0.092l-0.822-4.666c-0.354-2-2.269-3.341-4.269-2.988l-0.519,0.092l-1.332-7.554
					c8.435-2.96,14.305-10.663,15.048-19.449l1.259-0.222c3.143-0.555,5.25-3.563,4.696-6.707L62.867,9.693
					c-0.555-3.144-3.563-5.25-6.707-4.696l-0.52,0.092L55.55,4.57c-0.555-3.145-3.563-5.25-6.707-4.696l-37.318,6.58
					c-3.145,0.555-5.25,3.563-4.696,6.707L6.92,13.68L6.4,13.771c-3.143,0.554-5.25,3.563-4.695,6.707l2.193,12.439
					c0.554,3.144,3.563,5.25,6.706,4.695l1.259-0.222c3.704,8.003,11.854,13.233,20.792,13.13l1.332,7.553l-0.52,0.092
					c-2,0.354-3.34,2.268-2.987,4.269l0.822,4.665l-0.519,0.092c-5.43,0.957-9.068,6.153-8.111,11.584
					c0.031,0.176,0.078,0.346,0.133,0.511l-8.853,1.562c-0.858,0.151-1.433,0.97-1.281,1.828c0.151,0.859,0.971,1.433,1.829,1.281
					l58.052-10.236c0.859-0.151,1.433-0.97,1.281-1.829C73.683,71.033,72.863,70.46,72.005,70.611z M58.841,23.229L56.19,8.198
					l0.519-0.091c1.429-0.252,2.796,0.705,3.048,2.135l2.193,12.439c0.252,1.43-0.705,2.797-2.134,3.049l-0.671,0.117
					C59.095,24.98,58.995,24.106,58.841,23.229z M10.058,34.504c-1.43,0.252-2.797-0.705-3.049-2.135L4.815,19.93
					c-0.252-1.43,0.705-2.797,2.135-3.049l0.518-0.092l2.65,15.031c0.155,0.877,0.359,1.732,0.608,2.565L10.058,34.504
					L10.058,34.504z M13.228,31.272l-3.29-18.659c-0.252-1.43,0.706-2.797,2.135-3.049l37.319-6.58
					c1.429-0.252,2.797,0.705,3.049,2.135l3.29,18.658c1.864,10.575-5.221,20.695-15.796,22.561l-4.147,0.73
					C25.213,48.934,15.093,41.848,13.228,31.272z M41,49.35l1.28,7.263l-5.183,0.914l-1.28-7.263
					c0.173-0.027,0.345-0.055,0.519-0.086l4.146-0.73C40.655,49.417,40.828,49.384,41,49.35z M33.591,61.887
					c-0.051-0.287,0.141-0.561,0.427-0.61l12.438-2.193c0.286-0.05,0.56,0.141,0.61,0.427l0.822,4.665l-13.476,2.376L33.591,61.887
					L33.591,61.887z M59.564,72.805l-33.172,5.85c-0.285,0.05-0.56-0.142-0.609-0.428c-0.655-3.715,1.835-7.271,5.55-7.926
					l20.732-3.656c3.716-0.654,7.271,1.835,7.927,5.551C60.042,72.48,59.851,72.754,59.564,72.805z"/>
			</g>
		</g>
	</g>
</g>
</svg>
