<?xml version="1.0" encoding="utf-8"?>
<!-- Generator: Adobe Illustrator 16.0.0, SVG Export Plug-In . SVG Version: 6.00 Build 0)  -->
<!DOCTYPE svg PUBLIC "-//W3C//DTD SVG 1.1//EN" "http://www.w3.org/Graphics/SVG/1.1/DTD/svg11.dtd">
<svg version="1.1" id="Calque_1" xmlns="http://www.w3.org/2000/svg" xmlns:xlink="http://www.w3.org/1999/xlink" x="0px" y="0px"
	 width="100px" height="100px" viewBox="0 0 100 100" enable-background="new 0 0 100 100" xml:space="preserve">
<g>
	<defs>
		<rect id="SVGID_26_" x="0.001" width="100" height="100"/>
	</defs>
	<clipPath id="SVGID_1_">
		<use xlink:href="#SVGID_26_"  overflow="visible"/>
	</clipPath>
	<g opacity="0.2" clip-path="url(#SVGID_1_)">
		<g>
			<g>
				<path fill="#E2007A" d="M46.38-21.156c-6.678,1.178-12.611,4.797-16.712,10.193c-4.075,5.365-5.979,12-5.36,18.686
					c0.079,0.868,0.85,1.506,1.717,1.426c0.87-0.076,1.507-0.849,1.428-1.717c-1.125-12.162,7.43-23.354,19.475-25.479
					c12.862-2.268,25.171,6.352,27.438,19.213c1.604,9.09-2.271,18.355-9.866,23.607c-0.509,0.351-0.766,0.965-0.658,1.573
					l3.323,18.843c0.856,4.859-2.399,9.51-7.258,10.366c-4.859,0.856-9.51-2.399-10.366-7.259l-0.365-2.072
					c-0.151-0.859-0.971-1.432-1.83-1.281c-0.858,0.152-1.432,0.971-1.28,1.829l0.365,2.073c1.159,6.574,7.45,10.979,14.024,9.818
					c6.573-1.158,10.979-7.449,9.819-14.022l-3.15-17.868c8.06-6.038,12.11-16.191,10.353-26.156
					C74.906-13.959,60.957-23.727,46.38-21.156z"/>
				<path fill="#E2007A" d="M61.003,61.775c-4.287,0.756-7.16,4.859-6.404,9.145c0.756,4.287,4.858,7.162,9.146,6.404
					c4.287-0.756,7.159-4.857,6.403-9.146C69.393,63.893,65.291,61.02,61.003,61.775z M63.197,74.215
					c-2.572,0.453-5.034-1.27-5.488-3.842c-0.453-2.572,1.271-5.035,3.843-5.488s5.034,1.271,5.488,3.842
					C67.493,71.299,65.768,73.762,63.197,74.215z"/>
				<path fill="#E2007A" d="M61.933,12.66c-0.063,0.094-0.126,0.185-0.191,0.275c-0.508,0.711-0.343,1.696,0.366,2.203
					c0.36,0.256,0.789,0.341,1.192,0.27c0.394-0.068,0.761-0.287,1.011-0.637c0.08-0.111,0.159-0.225,0.236-0.339
					c0.489-0.722,0.3-1.704-0.422-2.192C63.404,11.75,62.422,11.939,61.933,12.66z"/>
				<path fill="#E2007A" d="M65.285,9.392c0.188,0.033,0.371,0.032,0.548,0.001c0.636-0.113,1.163-0.61,1.281-1.282
					c0.331-1.872,0.329-3.778-0.004-5.665C65.547-6.416,57.068-12.353,48.208-10.79c-0.859,0.151-1.433,0.97-1.281,1.829
					s0.971,1.432,1.829,1.281C55.902-8.94,62.74-4.152,64,2.993c0.269,1.522,0.27,3.061,0.005,4.569
					C63.853,8.422,64.425,9.24,65.285,9.392z"/>
				<path fill="#E2007A" d="M54.076,26.028L52.097,5.859C52.052,5.4,51.81,4.984,51.432,4.721c-0.378-0.266-0.852-0.352-1.298-0.236
					L30.503,9.523c-1.542,0.396-3.008,1.012-4.359,1.811c-0.01,0.005-0.019,0.012-0.027,0.017c-2.028,1.206-3.799,2.831-5.172,4.792
					c-2.822,4.029-3.905,8.919-3.051,13.765c0.314,1.786,0.88,3.487,1.67,5.065c-1.514,0.74-2.825,1.857-3.797,3.244L-8.384,72.709
					c-3.163,4.518-2.062,10.764,2.455,13.926c2.26,1.582,4.949,2.098,7.472,1.654c2.521-0.445,4.875-1.852,6.456-4.109l24.152-34.49
					c0.971-1.387,1.573-3.002,1.75-4.678c1.754,0.202,3.546,0.152,5.333-0.162c4.846-0.854,9.068-3.545,11.891-7.575
					C53.418,34,54.466,30.006,54.076,26.028z M23.532,17.953c0.729-1.041,1.597-1.965,2.57-2.755
					c1.028,2.591,2.46,5.009,4.233,7.158c-0.07,0.068-0.135,0.144-0.192,0.226c-2.676,3.82-4.702,7.782-5.705,11.154
					c-0.245,0.827-0.416,1.574-0.526,2.252c-1.475-1.92-2.477-4.178-2.909-6.629C20.294,25.344,21.193,21.293,23.532,17.953z
					 M30.772,44.594c-0.107,1.175-0.526,2.311-1.208,3.285L5.412,82.369c-2.164,3.09-6.439,3.844-9.529,1.68
					s-3.844-6.439-1.68-9.527l24.15-34.492c0.683-0.975,1.607-1.756,2.674-2.26c0.068-0.032,0.131-0.07,0.191-0.108
					c1.138,1.536,2.52,2.899,4.119,4.04c0.043,0.033,0.088,0.066,0.131,0.097c0.045,0.032,0.091,0.063,0.139,0.093
					c1.618,1.111,3.371,1.943,5.203,2.486C30.793,44.447,30.779,44.52,30.772,44.594z M27.28,39.211
					c-0.977-0.684-0.339-6.423,5.238-14.508c0.016,0.016,0.031,0.031,0.047,0.047c1.949,1.847,4.167,3.389,6.559,4.576
					C33.433,37.333,28.257,39.895,27.28,39.211z M44.739,39.253c-1.79,1.243-3.843,2.097-6.054,2.486
					c-2.451,0.433-4.917,0.263-7.225-0.465c0.6-0.336,1.242-0.751,1.937-1.267c2.825-2.096,5.855-5.354,8.53-9.174
					c0.058-0.082,0.105-0.168,0.146-0.256c0.398,0.142,0.801,0.277,1.207,0.4L44.739,39.253L44.739,39.253z M48.538,35.463
					c-0.32,0.459-0.666,0.895-1.029,1.311l-1.29-7.319c-0.107-0.607-0.559-1.098-1.155-1.253
					c-7.469-1.953-13.585-7.535-16.239-14.722c0.787-0.374,1.611-0.679,2.465-0.897l17.846-4.581l1.799,18.335
					C51.25,29.564,50.399,32.805,48.538,35.463L48.538,35.463L48.538,35.463z"/>
			</g>
		</g>
	</g>
</g>
</svg>
