<?xml version="1.0" encoding="utf-8"?>
<!-- Generator: Adobe Illustrator 16.0.0, SVG Export Plug-In . SVG Version: 6.00 Build 0)  -->
<!DOCTYPE svg PUBLIC "-//W3C//DTD SVG 1.1//EN" "http://www.w3.org/Graphics/SVG/1.1/DTD/svg11.dtd">
<svg version="1.1" id="Calque_1" xmlns="http://www.w3.org/2000/svg" xmlns:xlink="http://www.w3.org/1999/xlink" x="0px" y="0px"
	 width="100px" height="100px" viewBox="0 0 100 100" enable-background="new 0 0 100 100" xml:space="preserve">
<g>
	<defs>
		<rect id="SVGID_18_" width="100" height="100"/>
	</defs>
	<clipPath id="SVGID_1_">
		<use xlink:href="#SVGID_18_"  overflow="visible"/>
	</clipPath>
	<g opacity="0.2" clip-path="url(#SVGID_1_)">
		<g>
			<g>
				<path fill="#E2007A" d="M78.205,66.77l-4.217,0.707L63.188,9.385c-0.504-2.705-3.232-4.516-6.082-4.04l-9.43,1.577
					c-2.852,0.477-4.764,3.065-4.26,5.77l10.801,58.09l-10.711,1.793l-5.908-31.773c-0.502-2.703-3.23-4.516-6.082-4.037
					l-9.43,1.576c-2.852,0.477-4.762,3.064-4.26,5.768l5.908,31.771L13.021,77.67L9.963,61.217
					c-0.502-2.703-3.232-4.516-6.082-4.039l-9.432,1.576c-2.85,0.479-4.76,3.064-4.258,5.77l3.059,16.453l-4.445,0.744
					c-1.063,0.178-1.771,1.139-1.584,2.145c0.188,1.008,1.199,1.682,2.262,1.504L78.885,70.42c1.063-0.178,1.771-1.141,1.584-2.146
					C80.281,67.266,79.27,66.592,78.205,66.77z M9.176,78.313l-12.078,2.021l-3.059-16.455c-0.129-0.691,0.359-1.354,1.09-1.477
					l9.43-1.576c0.729-0.123,1.428,0.342,1.557,1.033L9.176,78.313z M39.658,73.217l-12.078,2.02l-5.906-31.771
					c-0.129-0.693,0.361-1.355,1.09-1.477l9.43-1.578c0.73-0.121,1.43,0.342,1.557,1.035L39.658,73.217z M70.141,68.119
					l-12.076,2.02L47.262,12.047c-0.127-0.692,0.361-1.354,1.092-1.477l9.43-1.576c0.729-0.123,1.428,0.342,1.557,1.033
					L70.141,68.119z"/>
			</g>
		</g>
		<g>
			<g>
				<path fill="#E2007A" d="M57.652-20.352c-0.064-0.502-0.344-0.977-0.814-1.291c-0.471-0.313-1.039-0.398-1.559-0.285
					c-0.031,0.004-0.063,0.006-0.094,0.012l-11.637,1.945c-1.063,0.178-1.771,1.139-1.584,2.146
					c0.188,1.008,1.199,1.681,2.262,1.503l7.186-1.201L35.75,3.688l-8.434-5.601c-0.426-0.282-0.951-0.392-1.461-0.307
					s-0.963,0.359-1.26,0.761l-28.48,38.576c-0.619,0.836-0.404,1.992,0.479,2.578c0.441,0.295,0.967,0.389,1.459,0.307
					c0.494-0.082,0.953-0.342,1.262-0.762L26.676,2.184l8.434,5.602c0.885,0.586,2.102,0.383,2.721-0.455l16.781-22.729l1.148,6.168
					c0.188,1.007,1.199,1.681,2.262,1.502c1.063-0.178,1.771-1.138,1.584-2.146l-1.932-10.39
					C57.668-20.294,57.66-20.322,57.652-20.352z"/>
			</g>
		</g>
	</g>
</g>
</svg>
