<?xml version="1.0" encoding="utf-8"?>
<!-- Generator: Adobe Illustrator 16.0.0, SVG Export Plug-In . SVG Version: 6.00 Build 0)  -->
<!DOCTYPE svg PUBLIC "-//W3C//DTD SVG 1.1//EN" "http://www.w3.org/Graphics/SVG/1.1/DTD/svg11.dtd">
<svg version="1.1" id="Calque_1" xmlns="http://www.w3.org/2000/svg" xmlns:xlink="http://www.w3.org/1999/xlink" x="0px" y="0px"
	 width="100px" height="100px" viewBox="0 0 100 100" enable-background="new 0 0 100 100" xml:space="preserve">
<g>
	<defs>
		<rect id="SVGID_16_" y="0.002" width="100" height="100"/>
	</defs>
	<clipPath id="SVGID_1_">
		<use xlink:href="#SVGID_16_"  overflow="visible"/>
	</clipPath>
	<g opacity="0.2" clip-path="url(#SVGID_1_)">
		<g>
			<g>
				<path fill="#E2007A" d="M59.405,6.178c-5.74-5.375-13.177-8.865-20.94-9.83C37.6-3.76,36.811-3.146,36.702-2.28
					c-0.107,0.866,0.507,1.654,1.373,1.762c14.994,1.862,26.834,13.122,29.461,28.017c3.275,18.578-9.173,36.355-27.751,39.632
					C21.208,70.405,3.43,57.957,0.153,39.379C-2.711,23.132,6.602,7.041,21.936,1.363l3.515,26.654
					c-1.322,2.047-1.909,4.575-1.453,7.158c0.957,5.43,6.154,9.068,11.584,8.111c2.748-0.484,5.035-2.055,6.502-4.191l13.66-3.357
					c3.098-0.763,5.09-3.819,4.535-6.961c-0.554-3.141-3.471-5.332-6.642-4.988l-13.534,1.468c-0.089,0.009-0.176,0.027-0.26,0.051
					L33.132-4.988c-0.694-3.133-3.713-5.15-6.873-4.593s-5.307,3.485-4.887,6.667l0.142,1.073
					C13.348,1.004,6.397,6.632,1.885,14.075C-2.811,21.818-4.53,31-2.956,39.928c3.578,20.292,22.997,33.89,43.29,30.312
					c20.292-3.578,33.89-22.997,30.312-43.289C69.229,18.919,65.343,11.736,59.405,6.178z M53.978,26.93
					c1.523-0.166,2.926,0.887,3.192,2.396c0.266,1.51-0.691,2.979-2.181,3.344l-11.354,2.793c0.251-1.205,0.284-2.477,0.058-3.76
					c-0.226-1.285-0.692-2.467-1.34-3.514L53.978,26.93z M24.502-3.327c-0.197-1.501,0.815-2.882,2.306-3.145
					s2.914,0.688,3.242,2.166l6.211,28.044c-1.32-0.33-2.728-0.398-4.152-0.147s-2.725,0.797-3.852,1.559L24.502-3.327z
					 M32.656,26.701c3.716-0.656,7.271,1.834,7.927,5.55s-1.835,7.271-5.55,7.927c-3.716,0.654-7.271-1.835-7.927-5.551
					C26.452,30.912,28.941,27.355,32.656,26.701z"/>
				<path fill="#E2007A" d="M40.882,73.35C21.293,76.804,1.756,65.212-4.563,46.387c-0.277-0.827-1.173-1.27-1.999-0.995
					c-0.827,0.277-1.272,1.173-0.995,1.999c3.294,9.813,10.021,18.164,18.942,23.518c9.013,5.406,19.683,7.379,30.046,5.551
					c0.858-0.15,1.433-0.97,1.281-1.828C42.56,73.771,41.741,73.198,40.882,73.35z"/>
				<path fill="#E2007A" d="M36.677,58.592l0.73,4.146c0.152,0.859,0.971,1.434,1.83,1.281c0.858-0.15,1.432-0.971,1.28-1.829
					l-0.73-4.146c-0.151-0.858-0.971-1.433-1.829-1.28C37.099,56.914,36.525,57.734,36.677,58.592z"/>
				<path fill="#E2007A" d="M18.061,53.229l-2.414,3.449c-0.501,0.713-0.327,1.697,0.388,2.197c0.356,0.251,0.781,0.332,1.18,0.262
					c0.397-0.069,0.769-0.291,1.019-0.648l2.416-3.449c0.499-0.715,0.326-1.699-0.388-2.199
					C19.546,52.34,18.562,52.514,18.061,53.229z"/>
				<path fill="#E2007A" d="M4.545,37.002c-0.859,0.151-1.433,0.971-1.281,1.829s0.971,1.433,1.829,1.281l4.147-0.731
					c0.858-0.151,1.432-0.971,1.28-1.829c-0.152-0.858-0.971-1.433-1.829-1.281L4.545,37.002L4.545,37.002z"/>
				<path fill="#E2007A" d="M62.523-7.518c-10.94-7.662-24.208-10.604-37.361-8.283C12.01-13.482,0.548-6.18-7.112,4.76
					c-7.66,10.94-10.603,24.209-8.283,37.361s9.621,24.615,20.562,32.275s24.209,10.602,37.361,8.283
					c13.152-2.319,24.614-9.621,32.275-20.563c7.66-10.939,10.602-24.208,8.282-37.361C80.767,11.604,73.464,0.142,62.523-7.518z
					 M41.979,79.57C16.542,84.055-7.8,67.01-12.285,41.572c-4.485-25.436,12.56-49.779,37.996-54.264
					c25.437-4.485,49.779,12.56,54.264,37.996C84.46,50.742,67.416,75.084,41.979,79.57z"/>
				<path fill="#E2007A" d="M14.057,17.655l-3.45-2.415c-0.713-0.5-1.698-0.326-2.198,0.387c-0.501,0.715-0.327,1.699,0.388,2.199
					l3.449,2.416c0.357,0.25,0.781,0.331,1.179,0.262c0.398-0.07,0.77-0.293,1.021-0.649C14.943,19.14,14.771,18.155,14.057,17.655z
					"/>
				<path fill="#E2007A" d="M49.629,13.65l2.415-3.449c0.5-0.715,0.326-1.699-0.388-2.199c-0.715-0.5-1.698-0.326-2.199,0.389
					l-2.415,3.449c-0.5,0.714-0.326,1.698,0.388,2.198c0.357,0.25,0.782,0.331,1.181,0.262
					C49.007,14.229,49.379,14.008,49.629,13.65z"/>
				<path fill="#E2007A" d="M53.245,47.023c-0.5,0.715-0.326,1.699,0.389,2.199l3.449,2.415c0.357,0.25,0.782,0.331,1.18,0.262
					c0.397-0.07,0.77-0.292,1.02-0.649c0.5-0.715,0.326-1.699-0.388-2.199l-3.449-2.415C54.73,46.137,53.746,46.31,53.245,47.023z"
					/>
			</g>
		</g>
	</g>
</g>
</svg>
