<?xml version="1.0" encoding="utf-8"?>
<!-- Generator: Adobe Illustrator 24.0.0, SVG Export Plug-In . SVG Version: 6.00 Build 0)  -->
<svg version="1.1" id="Calque_1" xmlns="http://www.w3.org/2000/svg" xmlns:xlink="http://www.w3.org/1999/xlink" x="0px" y="0px"
	 viewBox="0 0 100 100" style="enable-background:new 0 0 100 100;" xml:space="preserve">
<style type="text/css">
	.st0{opacity:0.2;clip-path:url(#SVGID_2_);}
	.st1{fill:none;stroke:#E2007A;stroke-width:3.8798;stroke-linecap:round;stroke-linejoin:round;stroke-miterlimit:10;}
	.st2{fill:none;stroke:#E2007A;stroke-width:3.8798;stroke-linecap:round;stroke-miterlimit:10;}
</style>
<g>
	<defs>
		<rect id="SVGID_1_" x="0" width="100" height="100"/>
	</defs>
	<clipPath id="SVGID_2_">
		<use xlink:href="#SVGID_1_"  style="overflow:visible;"/>
	</clipPath>
	<g class="st0">
		<g>
			<path class="st1" d="M46.1,34l27.2-7.3c1.4-0.4,2.2-1.8,1.8-3.2L67.3-5.6c-0.4-1.4-1.8-2.2-3.2-1.8L35.1,0.4
				c-1.4,0.4-2.2,1.8-1.8,3.2l7.3,27.3l-1.7,9.3L46.1,34z"/>
			<g>
				<polyline class="st1" points="50.7,13 53,12.4 55.9,23.2 				"/>
				<line class="st1" x1="51.2" y1="5.7" x2="51.2" y2="5.7"/>
			</g>
			<polygon class="st1" points="46,74.3 26.1,89.4 1.3,86.3 -6,58.9 13.9,43.7 38.7,46.9 			"/>
			<polyline class="st1" points="38.7,46.9 18.8,62.1 -6,58.9 			"/>
			<g>
				<g>
					<polyline class="st2" points="19.3,64 19.9,66.4 21.5,72.1 22,74.2 					"/>
					<line class="st2" x1="23.6" y1="80.1" x2="23.5" y2="79.8"/>
				</g>
			</g>
			<line class="st1" x1="8.5" y1="74.6" x2="8.5" y2="74.6"/>
			<line class="st1" x1="16.2" y1="52.4" x2="16.2" y2="52.4"/>
			<line class="st1" x1="9" y1="54.4" x2="9" y2="54.4"/>
			<line class="st1" x1="23.4" y1="50.5" x2="23.4" y2="50.5"/>
			<line class="st1" x1="37.3" y1="70.4" x2="37.3" y2="70.4"/>
			<line class="st1" x1="27.9" y1="65.2" x2="27.9" y2="65.2"/>
		</g>
	</g>
</g>
</svg>
