<?xml version="1.0" encoding="utf-8"?>
<!-- Generator: Adobe Illustrator 16.0.0, SVG Export Plug-In . SVG Version: 6.00 Build 0)  -->
<!DOCTYPE svg PUBLIC "-//W3C//DTD SVG 1.1//EN" "http://www.w3.org/Graphics/SVG/1.1/DTD/svg11.dtd">
<svg version="1.1" id="Calque_1" xmlns="http://www.w3.org/2000/svg" xmlns:xlink="http://www.w3.org/1999/xlink" x="0px" y="0px"
	 width="360px" height="300px" viewBox="0 0 360 300" enable-background="new 0 0 360 300" xml:space="preserve">
<g>
	<path fill-rule="evenodd" clip-rule="evenodd" fill="#FF4E5E" d="M308.385,256.186c12.56,0,22.832-10.262,22.832-22.803
		c0-12.545-10.272-22.812-22.832-22.812h-3.672c-12.555,0-22.83-10.264-22.83-22.805c0-12.54,10.275-22.807,22.83-22.807h20.686
		c12.561,0,22.832-10.263,22.832-22.809c0-12.541-10.271-22.804-22.832-22.804h-38.914c-12.56,0-22.83-10.268-22.83-22.813
		c0-12.541,10.271-22.803,22.83-22.803h14.796c12.556,0,22.833-10.263,22.833-22.808s-10.277-22.809-22.833-22.809H96.653
		c-12.554,0-22.831,10.264-22.831,22.809s10.276,22.808,22.831,22.808h13.768c12.56,0,22.833,10.262,22.833,22.803
		c0,12.545-10.272,22.813-22.833,22.813H34.603c-12.56,0-22.833,10.263-22.833,22.804c0,12.546,10.272,22.809,22.833,22.809h17.282
		c12.56,0,22.833,10.267,22.833,22.807c0,12.541-7.641,22.805-16.986,22.805c-9.347,0-16.998,10.267-16.998,22.812
		c0,12.541,10.276,22.803,22.833,22.803H308.385z"/>
	<g>
		<defs>
			<path id="SVGID_1_" d="M148.389,142.864c0-25.358-20.557-45.916-45.916-45.916c-25.361,0-45.917,20.558-45.917,45.916
				s11.118,45.916,45.917,45.916C127.832,188.78,148.389,175.354,148.389,142.864z"/>
		</defs>
		<clipPath id="SVGID_2_">
			<use xlink:href="#SVGID_1_"  overflow="visible"/>
		</clipPath>
		<g clip-path="url(#SVGID_2_)">
			<path fill-rule="evenodd" clip-rule="evenodd" fill="#3798D4" d="M106.195,159.036c2.835,1.162,4.826,5.465,5.976,12.907
				c1.182,7.416,1.354,13.968,0.511,19.655l-21.523-1.977c2.127-7.636,2.988-14.326,2.584-20.069
				c-0.435-5.718,0.8-9.186,3.707-10.403C100.417,157.908,103.332,157.87,106.195,159.036z"/>
			<g>
				<path fill-rule="evenodd" clip-rule="evenodd" fill="#3798D4" d="M100.788,160.854c-0.282,0.04-0.563,0.08-0.841,0.119
					c-0.077-0.831-0.138-1.441-0.182-1.828c-0.26-2.273-0.441-4.008-0.548-5.204c0.637-0.171,1.318-0.356,2.038-0.555
					c0.284-0.073,0.559-0.142,0.828-0.209c0.25,1.146,0.487,2.771,0.71,4.869c0.088,0.825,0.175,1.618,0.262,2.383
					C102.298,160.562,101.543,160.704,100.788,160.854z"/>
			</g>
			<g>
				<path fill-rule="evenodd" clip-rule="evenodd" fill="#3798D4" d="M89.28,146.826c-1.641-5.595-2.42-8.84-2.337-9.734
					c0.119-1.299,0.649-2.313,1.588-3.042c0.941-0.729,2.246-1.308,3.914-1.737c1.673-0.457,4.864-0.951,9.571-1.479
					c4.677-0.531,7.716,0.767,9.119,3.895c1.373,3.124,2.281,5.901,2.728,8.329c0.45,2.4,0.58,4.639,0.388,6.718
					c-0.187,2.05-0.668,3.476-1.441,4.278c-0.77,0.773-3.353,1.497-7.753,2.171c-4.4,0.673-7.655,0.913-9.763,0.719
					c-1.962-0.18-3.431-1.625-4.405-4.335C90.148,149.57,89.611,147.644,89.28,146.826z"/>
				<g>
					<path fill-rule="evenodd" clip-rule="evenodd" fill="#2778A0" d="M100.402,147.455c0.085-0.924,0.338-1.294,0.758-1.11
						c0.391,0.182,0.633,0.54,0.73,1.072c0.097,0.532,0.117,0.942,0.061,1.229c-0.082,0.254-0.311,0.379-0.688,0.372
						c-0.379-0.005-0.644-0.291-0.795-0.857L100.402,147.455z M106.677,147.113c0.027,0.353,0.001,0.627-0.075,0.822
						c-0.077,0.197-0.275,0.311-0.598,0.339c-0.324,0.028-0.572-0.271-0.749-0.898l-0.172-0.976
						c0.229-0.911,0.539-1.101,0.926-0.571C106.4,146.331,106.623,146.76,106.677,147.113z M104.088,154.388
						c-1.152-0.136-1.886-0.552-2.2-1.25c0.14,0.071,0.28,0.127,0.421,0.17c1.011,0.413,2.106,0.367,3.287-0.136
						c0.518-0.243,1.031-0.604,1.541-1.081C106.257,153.757,105.242,154.522,104.088,154.388z"/>
				</g>
			</g>
		</g>
	</g>
	<g>
		<defs>
			<path id="SVGID_3_" d="M275.976,98.081c0-23.967-19.429-43.396-43.396-43.396c-23.969,0-43.397,19.429-43.397,43.396
				s10.508,43.396,43.397,43.396C256.547,141.477,275.976,128.786,275.976,98.081z"/>
		</defs>
		<clipPath id="SVGID_4_">
			<use xlink:href="#SVGID_3_"  overflow="visible"/>
		</clipPath>
		<g clip-path="url(#SVGID_4_)">
			<path fill-rule="evenodd" clip-rule="evenodd" fill="#3798D4" d="M236.098,113.364c2.68,1.1,4.561,5.165,5.648,12.199
				c1.117,7.01,1.279,13.201,0.483,18.577l-20.342-1.869c2.01-7.216,2.824-13.538,2.442-18.967
				c-0.411-5.404,0.757-8.682,3.503-9.832C230.637,112.299,233.393,112.264,236.098,113.364z"/>
			<g>
				<path fill-rule="evenodd" clip-rule="evenodd" fill="#3798D4" d="M230.987,115.083c-0.267,0.037-0.531,0.075-0.795,0.112
					c-0.072-0.785-0.13-1.362-0.172-1.728c-0.245-2.148-0.417-3.788-0.519-4.919c0.603-0.161,1.246-0.336,1.927-0.524
					c0.269-0.068,0.528-0.134,0.782-0.197c0.236,1.084,0.461,2.619,0.671,4.603c0.083,0.779,0.165,1.529,0.247,2.252
					C232.414,114.807,231.702,114.941,230.987,115.083z"/>
			</g>
			<g>
				<path fill-rule="evenodd" clip-rule="evenodd" fill="#3798D4" d="M220.112,101.826c-1.551-5.288-2.288-8.355-2.209-9.2
					c0.112-1.228,0.613-2.187,1.501-2.876c0.889-0.688,2.122-1.235,3.699-1.642c1.581-0.432,4.597-0.899,9.046-1.398
					c4.42-0.502,7.292,0.726,8.618,3.681c1.297,2.953,2.156,5.577,2.579,7.872c0.425,2.269,0.547,4.385,0.365,6.349
					c-0.176,1.938-0.631,3.285-1.361,4.044c-0.728,0.731-3.17,1.415-7.328,2.052c-4.158,0.636-7.234,0.863-9.227,0.68
					c-1.854-0.17-3.243-1.537-4.163-4.098C220.932,104.419,220.425,102.599,220.112,101.826z"/>
				<g>
					<path fill-rule="evenodd" clip-rule="evenodd" fill="#2778A0" d="M230.623,102.42c0.08-0.873,0.319-1.224,0.716-1.049
						c0.369,0.171,0.599,0.51,0.69,1.013s0.11,0.891,0.058,1.161c-0.077,0.239-0.294,0.358-0.65,0.352
						c-0.357-0.004-0.608-0.274-0.751-0.811L230.623,102.42z M236.553,102.097c0.026,0.333,0.002,0.593-0.07,0.777
						c-0.071,0.187-0.26,0.293-0.564,0.32c-0.307,0.026-0.541-0.256-0.709-0.85l-0.161-0.922c0.217-0.86,0.509-1.041,0.875-0.539
						C236.292,101.357,236.502,101.762,236.553,102.097z M234.106,108.973c-1.088-0.129-1.782-0.522-2.079-1.183
						c0.132,0.067,0.266,0.121,0.398,0.16c0.955,0.392,1.99,0.349,3.107-0.128c0.489-0.229,0.974-0.569,1.455-1.021
						C236.157,108.376,235.197,109.099,234.106,108.973z"/>
				</g>
			</g>
		</g>
	</g>
	<g>
		<defs>
			<path id="SVGID_5_" d="M247.361,109.801c0-29.155-23.635-52.791-52.791-52.791c-29.158,0-52.793,23.636-52.793,52.791
				s12.783,52.791,52.793,52.791C223.727,162.592,247.361,147.154,247.361,109.801z"/>
		</defs>
		<clipPath id="SVGID_6_">
			<use xlink:href="#SVGID_5_"  overflow="visible"/>
		</clipPath>
		<g clip-path="url(#SVGID_6_)">
			<path fill-rule="evenodd" clip-rule="evenodd" fill="#3798D4" d="M198.85,128.394c3.26,1.337,5.549,6.283,6.871,14.84
				c1.359,8.527,1.557,16.06,0.588,22.599l-24.746-2.272c2.445-8.779,3.436-16.471,2.971-23.074
				c-0.5-6.574,0.92-10.561,4.262-11.961C192.208,127.097,195.559,127.054,198.85,128.394z"/>
			<g>
				<path fill-rule="evenodd" clip-rule="evenodd" fill="#3798D4" d="M192.633,130.483c-0.324,0.046-0.646,0.092-0.967,0.137
					c-0.088-0.955-0.158-1.656-0.209-2.102c-0.299-2.613-0.508-4.607-0.631-5.983c0.732-0.196,1.516-0.409,2.344-0.638
					c0.326-0.084,0.643-0.163,0.951-0.24c0.287,1.318,0.561,3.186,0.816,5.599c0.102,0.948,0.201,1.86,0.301,2.739
					C194.37,130.147,193.502,130.312,192.633,130.483z"/>
			</g>
			<g>
				<path fill-rule="evenodd" clip-rule="evenodd" fill="#3798D4" d="M179.403,114.356c-1.887-6.433-2.783-10.164-2.688-11.192
					c0.137-1.493,0.746-2.659,1.826-3.498c1.082-0.838,2.582-1.503,4.5-1.997c1.924-0.525,5.592-1.094,11.004-1.701
					c5.377-0.61,8.871,0.882,10.484,4.478c1.578,3.593,2.623,6.785,3.137,9.577c0.518,2.759,0.666,5.333,0.445,7.723
					c-0.215,2.357-0.768,3.996-1.656,4.92c-0.885,0.889-3.855,1.721-8.914,2.495c-5.059,0.773-8.801,1.05-11.225,0.827
					c-2.256-0.207-3.945-1.869-5.064-4.984C180.401,117.511,179.784,115.296,179.403,114.356z"/>
				<g>
					<path fill-rule="evenodd" clip-rule="evenodd" fill="#2778A0" d="M192.19,115.079c0.098-1.063,0.389-1.488,0.871-1.276
						c0.449,0.209,0.729,0.62,0.84,1.232s0.135,1.083,0.07,1.412c-0.094,0.292-0.357,0.437-0.791,0.429
						c-0.436-0.006-0.74-0.335-0.914-0.986L192.19,115.079z M199.405,114.687c0.031,0.404,0.002,0.721-0.086,0.945
						c-0.088,0.227-0.316,0.356-0.688,0.39c-0.373,0.032-0.658-0.312-0.861-1.033l-0.197-1.122c0.264-1.047,0.619-1.266,1.064-0.656
						C199.086,113.787,199.342,114.279,199.405,114.687z M196.428,123.05c-1.324-0.156-2.168-0.635-2.529-1.438
						c0.16,0.082,0.322,0.146,0.484,0.195c1.162,0.475,2.422,0.423,3.779-0.156c0.596-0.279,1.186-0.693,1.771-1.242
						C198.922,122.324,197.754,123.204,196.428,123.05z"/>
				</g>
			</g>
		</g>
	</g>
	<g>
		<defs>
			<path id="SVGID_7_" d="M126.058,138.179c0-29.155-23.635-52.791-52.791-52.791c-29.158,0-52.793,23.636-52.793,52.791
				s12.783,52.791,52.793,52.791C102.423,190.97,126.058,175.532,126.058,138.179z"/>
		</defs>
		<clipPath id="SVGID_8_">
			<use xlink:href="#SVGID_7_"  overflow="visible"/>
		</clipPath>
		<g clip-path="url(#SVGID_8_)">
			<path fill-rule="evenodd" clip-rule="evenodd" fill="#3798D4" d="M77.546,156.771c3.26,1.337,5.549,6.283,6.871,14.84
				c1.359,8.527,1.557,16.06,0.588,22.599l-24.746-2.272c2.445-8.779,3.436-16.471,2.971-23.074
				c-0.5-6.574,0.92-10.561,4.262-11.961C70.903,155.475,74.255,155.432,77.546,156.771z"/>
			<g>
				<path fill-rule="evenodd" clip-rule="evenodd" fill="#3798D4" d="M71.329,158.861c-0.324,0.046-0.646,0.092-0.967,0.137
					c-0.088-0.955-0.158-1.656-0.209-2.102c-0.299-2.613-0.508-4.607-0.631-5.983c0.732-0.196,1.516-0.409,2.344-0.638
					c0.326-0.084,0.643-0.163,0.951-0.24c0.287,1.318,0.561,3.186,0.816,5.599c0.102,0.948,0.201,1.86,0.301,2.739
					C73.065,158.525,72.198,158.689,71.329,158.861z"/>
			</g>
			<g>
				<path fill-rule="evenodd" clip-rule="evenodd" fill="#3798D4" d="M58.099,142.734c-1.887-6.433-2.783-10.164-2.688-11.192
					c0.137-1.493,0.746-2.659,1.826-3.498c1.082-0.838,2.582-1.503,4.5-1.997c1.924-0.525,5.592-1.094,11.004-1.701
					c5.377-0.61,8.871,0.882,10.484,4.478c1.578,3.593,2.623,6.785,3.137,9.577c0.518,2.759,0.666,5.333,0.445,7.723
					c-0.215,2.357-0.768,3.996-1.656,4.92c-0.885,0.889-3.855,1.721-8.914,2.495c-5.059,0.773-8.801,1.05-11.225,0.827
					c-2.256-0.207-3.945-1.869-5.064-4.984C59.097,145.889,58.479,143.674,58.099,142.734z"/>
				<g>
					<path fill-rule="evenodd" clip-rule="evenodd" fill="#2778A0" d="M70.886,143.457c0.098-1.063,0.389-1.488,0.871-1.276
						c0.449,0.209,0.729,0.62,0.84,1.232s0.135,1.083,0.07,1.412c-0.094,0.292-0.357,0.437-0.791,0.429
						c-0.436-0.006-0.74-0.335-0.914-0.986L70.886,143.457z M78.101,143.064c0.031,0.404,0.002,0.721-0.086,0.945
						c-0.088,0.227-0.316,0.356-0.688,0.39c-0.373,0.032-0.658-0.312-0.861-1.033l-0.197-1.122c0.264-1.047,0.619-1.266,1.064-0.656
						C77.782,142.165,78.038,142.657,78.101,143.064z M75.124,151.428c-1.324-0.156-2.168-0.635-2.529-1.438
						c0.16,0.082,0.322,0.146,0.484,0.195c1.162,0.475,2.422,0.423,3.779-0.156c0.596-0.279,1.186-0.693,1.771-1.242
						C77.618,150.702,76.45,151.582,75.124,151.428z"/>
				</g>
			</g>
		</g>
	</g>
	<g>
		<g>
			<path fill-rule="evenodd" clip-rule="evenodd" fill="#333333" d="M31.527,202.281c-2.013,0.038-3.02,0.052-5.034,0.071
				c-0.135-6.455-0.203-9.682-0.338-16.139C28.205,192.782,30.021,198.148,31.527,202.281z M43.069,184.685
				c0.02,0.336-0.032,0.732-0.151,1.188c-0.376,3.601-0.555,8.351-0.527,14.252c-0.113,0.674-0.158,1.288-0.127,1.841
				c-2.008,0.079-3.011,0.114-5.021,0.175c-1.028-5.934-1.936-11.579-2.737-16.942C37.934,185.021,39.647,184.919,43.069,184.685z
				 M47.739,201.721c1.159-7.69,1.904-13.568,2.338-17.564c1.839-0.151,2.759-0.23,4.595-0.398
				c0.774,5.631,1.72,11.421,2.857,17.384C53.618,201.41,51.66,201.525,47.739,201.721z M272.072,112.155
				c4.88,8.094,7.321,12.141,12.201,20.234c-69.516,38.671-143.977,61.527-223.22,68.498c-1.026-5.946-2.026-11.762-2.996-17.451
				C134.498,174.88,205.788,151.19,272.072,112.155z"/>
			<g>
				<path fill-rule="evenodd" clip-rule="evenodd" fill="#333333" d="M245.447,94.825c28.055-0.981,55.918-3.108,83.795-6.41
					c-9.137,25.445-19.977,49.962-33.752,73.263C278.518,139.609,261.779,117.372,245.447,94.825z"/>
			</g>
		</g>
	</g>
	<g>
		<g>
			<path fill-rule="evenodd" clip-rule="evenodd" fill="#FFFFFF" d="M214.881,215.306c0,15.332-12.429,27.759-27.758,27.759h-55.515
				c-15.329,0-27.758-12.427-27.758-27.759l0,0c0-15.33,12.429-27.759,27.758-27.759h55.515
				C202.452,187.547,214.881,199.976,214.881,215.306L214.881,215.306z"/>
			<g>
				<text transform="matrix(1 0 0 1 130.2749 224.0752)" fill="#333333" font-family="'GothamRounded-Bold'" font-size="31.7242">Moi</text>
			</g>
		</g>
		<g>
			<defs>
				<path id="SVGID_9_" d="M243.105,113.859c0-46.248-37.49-83.738-83.738-83.738c-46.251,0-83.741,37.49-83.741,83.738
					s20.277,83.737,83.741,83.737C205.615,197.597,243.105,173.109,243.105,113.859z"/>
			</defs>
			<clipPath id="SVGID_10_">
				<use xlink:href="#SVGID_9_"  overflow="visible"/>
			</clipPath>
			<g clip-path="url(#SVGID_10_)">
				<g>
					<path fill-rule="evenodd" clip-rule="evenodd" fill="#CF9EEF" d="M135.137,167.951c0-1.794-0.468-5.526-1.4-11.198
						c-1.004-5.745-1.505-9.332-1.505-10.769c-0.217-1.58-0.288-3.158-0.217-4.738v-0.055c0.285-3.583,2.045-6.166,5.276-7.753
						c11.326-3.409,22.795-4.216,34.41-2.424c2.702,1.145,5.734,6.064,9.099,14.755c3.374,8.668,5.871,20.244,7.485,34.729
						c1.629,14.49,2.33,25.296,2.101,32.415c-0.239,7.136-0.508,14.942-0.809,23.422c-0.288,8.467-0.79,19.165-1.506,32.093
						c-0.338,6.108-0.499,10.128-0.486,12.061c4.619,4.068,9.071,7.693,13.353,10.878c-10.797-1.571-18.693-3.795-23.691-6.677
						c1.896-45.709,2.274-74.047,1.131-85.021c-13.247-0.46-25.435,0.869-36.56,3.984c-2.063,15.792-3.033,43.451-2.909,82.976
						c-6.692,4.738-14.211,7.876-22.563,9.422c5.75-5.653,9.97-9.78,12.656-12.384c0.245-12.717,0.334-23.684,0.27-32.9
						l0.214-26.113c0.049-1.766,0.086-3.47,0.108-5.115c0.483-4.176,1.109-10.135,1.883-17.879
						C133.917,180.624,135.137,169.389,135.137,167.951z"/>
					<g>
						
							<polyline fill-rule="evenodd" clip-rule="evenodd" fill="none" stroke="#FFFFFF" stroke-width="0.8161" stroke-linecap="round" stroke-linejoin="round" stroke-miterlimit="10" points="
							158.54,154.993 162.793,160.745 165.768,149.673 174.185,149.198 						"/>
						
							<text transform="matrix(0.9994 -0.036 0.036 0.9994 164.8965 161.0273)" fill="#FFFFFF" font-family="'GothamRounded-Bold'" font-size="10.3565">e</text>
						
							<text transform="matrix(0.5826 -0.021 0.021 0.5826 171.1167 157.3535)" fill="#FFFFFF" font-family="'GothamRounded-Bold'" font-size="10.3565">2</text>
						
							<text transform="matrix(0.9994 -0.036 0.036 0.9994 147.6528 161.6504)" fill="#FFFFFF" font-family="'GothamRounded-Bold'" font-size="10.3565">m.</text>
					</g>
				</g>
				<g>
					<path fill-rule="evenodd" clip-rule="evenodd" fill="#F8B334" d="M150.646,127.138c-0.217-1.723-0.431-3.266-0.644-4.632h9.474
						c0.793,1.509,1.187,3.985,1.187,7.433c0,2.01,0,3.085,0,3.23c0,0.143,0,0.251,0,0.322c-1.434,4.309-4.594,4.309-9.477,0
						C151.042,131.338,150.863,129.22,150.646,127.138z"/>
				</g>
				<path fill-rule="evenodd" clip-rule="evenodd" fill="#E0951E" d="M159.476,122.506h-9.474c0.213,1.366,0.427,2.909,0.644,4.632
					c0.056,0.543,0.09,1.108,0.143,1.657c3.718,0.068,7.188-0.988,9.728-2.066C160.34,124.907,159.996,123.494,159.476,122.506z"/>
				<g>
					<path fill-rule="evenodd" clip-rule="evenodd" fill="#F8B334" d="M155.631,123.989c-15.125,0.813-24.066,0.435-26.817-1.13
						c-2.757-1.64-4.498-4.953-5.22-9.945c-0.799-5.06-1.509-12.28-2.128-21.665c-0.62-9.387-1.118-16.728-1.5-22.027
						c-0.452-5.296,1.221-9.241,5.025-11.836c3.733-2.592,10.385-4.453,19.958-5.587c9.635-1.21,17.922-1.587,24.853-1.128
						c7.098,0.881,11.89,6.571,14.372,17.068c2.411,10.504,3.944,20.769,4.601,30.8c0.654,9.959-0.908,16.486-4.681,19.583
						S170.83,123.175,155.631,123.989z"/>
					<g>
						<path fill-rule="evenodd" clip-rule="evenodd" fill="#333333" d="M167.404,94.607c-1.004,0.059-1.698-0.728-2.082-2.359
							c-0.245-1.711-0.366-2.604-0.369-2.675c-0.102-0.499-0.13-0.964-0.083-1.397c0.093-0.867,0.57-1.329,1.431-1.378
							c1.36-0.079,2.333,1.158,2.912,3.714c0.037,0.645-0.062,1.407-0.297,2.283C168.55,93.966,168.045,94.57,167.404,94.607z
							 M150.423,95.707c-1.357,0.152-2.299-0.585-2.829-2.209c-0.598-1.617-0.898-2.463-0.902-2.537
							c-0.176-0.563-0.204-1.102-0.093-1.61c0.307-0.882,1.143-1.36,2.506-1.441c1.36-0.078,2.37,1.193,3.027,3.814
							C152.35,94.229,151.78,95.558,150.423,95.707z"/>
						<path fill-rule="evenodd" clip-rule="evenodd" fill="#FFFFFF" d="M147.96,89.886c-0.031-0.585-0.536-1.028-1.118-0.996
							c-0.589,0.034-1.035,0.535-1.004,1.12c0.034,0.586,0.539,1.033,1.128,0.998C147.548,90.976,147.998,90.472,147.96,89.886z"/>
						<path fill-rule="evenodd" clip-rule="evenodd" fill="#FFFFFF" d="M166.223,88.551c-0.031-0.585-0.536-1.031-1.121-0.997
							c-0.586,0.033-1.032,0.535-1.001,1.121c0.034,0.586,0.539,1.031,1.122,0.998C165.811,89.637,166.26,89.137,166.223,88.551z"/>
						<g>
							<path fill-rule="evenodd" clip-rule="evenodd" fill="#F8B334" d="M165.195,95.603c-0.05-0.861,0.583-1.727,1.899-2.595
								c1.382-0.943,2.934-1.464,4.653-1.564l1.729,0.006c-1.054,0.42-2.243,1.03-3.563,1.826c-1.877,1.115-3.365,2.104-4.467,2.959
								c-0.146-0.065-0.22-0.134-0.223-0.205L165.195,95.603z M151.563,94.887c1.323,0.497,2.001,1.068,2.039,1.715
								c0.009,0.141-0.086,0.363-0.282,0.661c-0.14,0.153-0.238,0.267-0.307,0.344c-1.252-0.503-2.934-1.016-5.05-1.54
								c-1.531-0.342-2.838-0.553-3.919-0.635c-0.022-0.357,0.034-0.613,0.17-0.764c0.27-0.304,0.942-0.486,2.017-0.55
								C148.239,94,150.014,94.258,151.563,94.887z"/>
						</g>
						<g>
							<path fill-rule="evenodd" clip-rule="evenodd" fill="#E0951E" d="M181.311,92.609c1.952,0.174,2.958,0.837,3.027,1.982
								c-0.313,0.809-0.648,1.224-1.007,1.242c-0.285,0.019-0.685-0.03-1.196-0.144c-0.3,0.952-0.886,2.064-1.744,3.338
								c-1.258,1.871-2.578,3.315-3.953,4.331c-2.491,1.726-4.545,2.891-6.165,3.487c-1.967,0.762-5.227,1.6-9.774,2.513
								l-5.799,0.446c-5.911-0.231-10.261-1.415-13.046-3.556c-2.481-1.866-3.993-3.11-4.532-3.727
								c-0.065,0.148-0.108,0.618-0.133,1.411c-0.108,0.655-0.446,0.996-1.02,1.03c-0.861,0.051-1.323-0.496-1.391-1.643
								c-0.161-2.726,1.267-4.176,4.278-4.35c1.146-0.068,1.741,0.257,1.781,0.973c0.028,0.431-0.521,0.896-1.642,1.392
								c0.973,0.663,2.168,1.491,3.594,2.487c3.067,2.05,7.24,3.245,12.51,3.585l4.944-0.288c4.477-0.909,7.875-1.827,10.196-2.753
								c2.032-0.909,4.043-2.214,6.029-3.913c0.958-0.847,2.023-2.31,3.194-4.395c0.13-0.22,0.254-0.589,0.369-1.1
								c-0.958-0.375-1.441-0.634-1.45-0.777C178.309,92.966,179.288,92.44,181.311,92.609z"/>
							<g>
								<path fill-rule="evenodd" clip-rule="evenodd" fill="#E0951E" d="M181.277,88.405c-1.574,0.093-3.039,0.824-4.399,2.199
									c-0.344,0.307-0.675,0.723-1.007,1.244c-0.468,0.603-0.809,0.946-1.019,1.03l-0.124-0.316l0.081-0.435
									c-0.034-0.575,0.39-1.318,1.273-2.232c1.084-1.142,2.379-1.757,3.882-1.847C180.394,88.025,180.834,88.142,181.277,88.405z
									 M141.69,95.785c-1.574-1.059-3.718-1.472-6.441-1.242c-0.703,0.257-1.227,0.505-1.574,0.74l-0.118-0.209
									c-0.077-1.291,1.075-1.86,3.458-1.712c2.379,0.077,3.972,0.846,4.774,2.311L141.69,95.785z"/>
							</g>
						</g>
					</g>
				</g>
			</g>
		</g>
	</g>
</g>
</svg>
