<?xml version="1.0" encoding="utf-8"?>
<!-- Generator: Adobe Illustrator 16.0.0, SVG Export Plug-In . SVG Version: 6.00 Build 0)  -->
<!DOCTYPE svg PUBLIC "-//W3C//DTD SVG 1.1//EN" "http://www.w3.org/Graphics/SVG/1.1/DTD/svg11.dtd">
<svg version="1.1" id="Calque_1" xmlns="http://www.w3.org/2000/svg" xmlns:xlink="http://www.w3.org/1999/xlink" x="0px" y="0px"
	 width="360px" height="300px" viewBox="0 0 360 300" enable-background="new 0 0 360 300" xml:space="preserve">
<g>
	<path fill-rule="evenodd" clip-rule="evenodd" fill="#FF4E5E" d="M308.385,256.186c12.559,0,22.832-10.262,22.832-22.803
		c0-12.545-10.273-22.813-22.832-22.813h-3.673c-12.554,0-22.83-10.264-22.83-22.805c0-12.539,10.276-22.807,22.83-22.807h20.687
		c12.56,0,22.832-10.262,22.832-22.808c0-12.541-10.272-22.804-22.832-22.804h-38.914c-12.561,0-22.83-10.268-22.83-22.813
		c0-12.541,10.27-22.803,22.83-22.803h14.795c12.557,0,22.833-10.263,22.833-22.808s-10.276-22.809-22.833-22.809H96.653
		c-12.554,0-22.831,10.264-22.831,22.809s10.276,22.808,22.831,22.808h13.768c12.56,0,22.833,10.262,22.833,22.803
		c0,12.545-10.272,22.813-22.833,22.813H34.602c-12.56,0-22.833,10.263-22.833,22.804c0,12.546,10.272,22.808,22.833,22.808h17.282
		c12.56,0,22.833,10.268,22.833,22.807c0,12.541-7.641,22.805-16.986,22.805c-9.347,0-16.998,10.268-16.998,22.813
		c0,12.541,10.276,22.803,22.833,22.803H308.385z"/>
	<g>
		
			<line opacity="0.5" fill="none" stroke="#3798D4" stroke-width="5.0189" stroke-linecap="round" stroke-linejoin="round" stroke-miterlimit="10" x1="209.352" y1="206.041" x2="324.088" y2="206.041"/>
		
			<line opacity="0.5" fill="none" stroke="#3798D4" stroke-width="5.0189" stroke-linecap="round" stroke-linejoin="round" stroke-miterlimit="10" x1="82.891" y1="174.391" x2="158.978" y2="174.391"/>
		<g>
			<path fill-rule="evenodd" clip-rule="evenodd" fill="#333333" d="M178.71,83.182c2.26,0.584,3.973,1.212,5.144,1.882
				c1.171,0.584,2.343,1.589,3.515,3.01c1.421,1.505,2.09,3.848,2.007,7.029c0,3.176-1.633,6.229-4.895,9.157
				c-3.931,3.934-7.487,6.315-10.665,7.153c-2.593-0.336-3.095-1.255-1.505-2.763c1.757-1.59,4.056-3.68,6.901-6.273
				c2.759-2.509,4.055-5.31,3.889-8.407c-0.166-3.009-1.59-5.02-4.266-6.021c-2.593-1.003-4.056-1.172-4.392-0.503
				c0,1.504-0.627,2.971-1.882,4.391c-1.588,1.928-3.262,2.386-5.019,1.383c-1.588-0.921-2.299-2.803-2.132-5.646
				c0.166-2.931,2.426-4.769,6.776-5.523C174.193,82.22,176.367,82.595,178.71,83.182z"/>
		</g>
		<g>
			<path fill-rule="evenodd" clip-rule="evenodd" fill="#333333" d="M155.748,237.635c-0.083,3.014-1.63,7.029-4.642,12.047
				c-3.095,4.936-7.445,7.402-13.049,7.402c-3.429,0-6.649-1.422-9.66-4.264c-2.676-2.594-4.1-4.979-4.267-7.152l-0.25-0.627
				c-6.274,3.848-10.038,5.77-11.293,5.77c-0.921,0-1.382-0.545-1.382-1.631v-4.016c8.533-4.348,13.635-6.523,15.309-6.523
				c0.836,0,1.798,2.176,2.884,6.523c1.004,4.352,3.975,6.525,8.911,6.525c4.014,0,7.359-2.135,10.038-6.398
				c1.923-3.012,3.137-6.191,3.637-9.537c0.252-1.59,0.502-2.844,0.754-3.764c0.836-0.084,1.671-0.168,2.51-0.25
				C155.664,233.496,155.833,235.461,155.748,237.635z"/>
		</g>
		<g>
			<path fill-rule="evenodd" clip-rule="evenodd" fill="#79C5D1" d="M71.057,96.333c-1.928-4.589-1.97-8.185-0.127-10.793
				c2.995-4.891,13.91-5.644,32.75-2.259c18.831,3.385,42.837,11.143,72.019,23.276c29.192,12.13,54.078,24.722,74.656,37.769
				c19.424,12.439,30.402,22.307,32.936,29.607c5.979,9.67-3.727,19.373-29.107,29.111c-25.405,9.748-46.756,18.426-64.054,26.035
				c-17.284,7.602-31.316,12.432-42.095,14.49c-10.756,2.059-20.479-9.422-29.172-34.441c-8.692-25.033-16.787-45.504-24.278-61.416
				c-7.499-15.9-12.81-27.298-15.937-34.192C75.519,106.632,72.987,100.904,71.057,96.333z M137.243,151.789
				c0.536,1.695,1.561,4.518,3.073,8.471s3.436,9.285,5.771,15.996c2.343,6.727,5.208,9.842,8.595,9.348
				c3.384-0.492,7.839-1.684,13.363-3.576c5.526-1.889,11.925-4.148,19.198-6.775c7.275-2.631,10.16-5.205,8.658-7.715
				c-0.588-1.922-3.87-4.469-9.852-7.654c-5.979-3.195-13.13-6.354-21.455-9.475c-8.325-3.119-14.932-5.191-19.823-6.209
				c-4.894-1.012-7.842-0.844-8.846,0.502c-0.586,0.668-0.669,1.59-0.25,2.762C136.177,148.639,136.699,150.082,137.243,151.789z"/>
			<path fill-rule="evenodd" clip-rule="evenodd" fill="#CDF1F9" d="M68.045,97.673c-1.929-4.59-1.971-8.185-0.128-10.79
				c2.995-4.892,13.91-5.646,32.75-2.261c18.831,3.383,42.837,11.142,72.019,23.277c29.192,12.13,54.078,24.719,74.656,37.766
				c19.424,12.439,30.402,22.309,32.937,29.611c5.978,9.67-3.728,19.369-29.108,29.107c-25.406,9.75-46.755,18.43-64.055,26.035
				c-17.284,7.602-31.316,12.436-42.094,14.494c-10.756,2.055-20.479-9.426-29.172-34.441
				c-8.693-25.035-16.787-45.508-24.278-61.418c-7.499-15.902-12.81-27.3-15.937-34.19C72.507,107.973,69.976,102.244,68.045,97.673
				z M134.231,153.133c0.536,1.691,1.561,4.514,3.073,8.469c1.511,3.951,3.435,9.283,5.771,15.998
				c2.343,6.725,5.207,9.842,8.594,9.348c3.384-0.494,7.839-1.686,13.363-3.578c5.526-1.887,11.924-4.146,19.198-6.773
				c7.276-2.631,10.161-5.205,8.658-7.719c-0.588-1.918-3.87-4.469-9.852-7.652c-5.979-3.195-13.13-6.352-21.455-9.473
				c-8.325-3.123-14.932-5.191-19.823-6.211c-4.894-1.01-7.842-0.844-8.847,0.5c-0.585,0.67-0.669,1.592-0.25,2.762
				C133.166,149.982,133.687,151.422,134.231,153.133z"/>
			<g>
				<path fill-rule="evenodd" clip-rule="evenodd" fill="#3798D4" fill-opacity="0.251" d="M99.852,84.498
					c0.26,0.033,0.532,0.076,0.815,0.125c0.669,0.123,1.338,0.246,2.007,0.378c-1.137,3.193-2.12,5.39-2.948,6.588h-0.064
					c-0.892-0.25-1.75-0.479-2.573-0.692c0.696-1.614,1.596-3.726,2.699-6.337L99.852,84.498z M115.597,87.95
					c-2.142,5.485-4.024,9.75-5.646,12.799c-1.219-0.541-2.387-1.063-3.512-1.567c2.097-4.592,3.938-8.647,5.521-12.173
					C113.151,87.299,114.364,87.614,115.597,87.95z M125.26,100.244c0.774-1.504,1.82-3.514,3.137-6.021
					c0.412-0.792,0.808-1.545,1.191-2.257c0.973,0.303,1.955,0.616,2.948,0.941c-1.934,4.749-3.441,7.738-4.516,8.969
					C127.21,101.352,126.291,100.808,125.26,100.244z M135.672,111.789c2.826-5.225,5.649-10.202,8.47-14.932
					c1.137,0.407,2.286,0.829,3.45,1.255c-3.548,6.111-6.685,10.983-9.41,14.617C137.358,112.416,136.522,112.102,135.672,111.789z
					 M162.148,103.633c-2.167,4.021-3.84,6.972-5.019,8.844c-0.762-0.407-1.598-0.804-2.51-1.191
					c-0.165-0.067-0.331-0.132-0.502-0.186v-0.19c0-0.667,1.588-3.305,4.767-7.904c0.125-0.178,0.25-0.346,0.377-0.502
					C160.223,102.876,161.183,103.253,162.148,103.633z M177.456,111.037c-3.943,5.582-7.122,9.888-9.536,12.924
					c-1.176-0.461-2.369-0.919-3.575-1.381c0.86-1.212,1.823-2.55,2.884-4.015c2.723-3.762,5.149-7.067,7.278-9.914
					c1.194,0.503,2.385,1.003,3.576,1.508C177.874,110.448,177.666,110.743,177.456,111.037z M188.748,114.8
					c1.046,0.466,2.093,0.927,3.137,1.38c-0.708,1.102-1.483,2.292-2.32,3.575c-0.826,1.263-1.581,2.392-2.26,3.387
					c-0.843-0.461-1.95-1.027-3.325-1.69c0.615-0.995,2.081-3.047,4.391-6.151C188.5,115.133,188.625,114.967,188.748,114.8z
					 M194.896,135.439c-1.221-0.636-2.328-1.2-3.325-1.692c2.473-2.825,6.026-7.073,10.665-12.736
					c1.267,0.607,2.522,1.213,3.765,1.818c-0.573,0.729-1.179,1.479-1.818,2.26C200.439,129.607,197.344,133.057,194.896,135.439z
					 M237.432,139.644c1.125,0.638,2.234,1.288,3.322,1.944c-4.883,4.111-9.943,8.232-15.181,12.359
					c-1.022-0.646-2.024-1.275-3.012-1.883C226.434,148.836,231.389,144.693,237.432,139.644z M215.788,135.125
					c0.806-0.979,2.292-2.675,4.453-5.082c0.96,0.51,1.923,1.009,2.886,1.508c-2.063,2.658-3.653,4.579-4.769,5.771
					C217.691,136.591,216.834,135.859,215.788,135.125z M248.66,157.396c-0.791-0.598-1.711-1.246-2.76-1.945
					c1.074-1.363,3.541-3.328,7.401-5.895c1.169,0.793,2.299,1.564,3.39,2.322C252.079,155.092,249.402,156.932,248.66,157.396z
					 M255.373,173.709c-1.055-0.746-2.143-1.496-3.262-2.26c0.215-0.143,5.883-3.471,17.002-9.975
					c1.205,1.055,2.315,2.078,3.323,3.074c-0.159,0.107-0.326,0.211-0.5,0.313C264.432,169.32,258.911,172.268,255.373,173.709z"/>
			</g>
			<path opacity="0.5" fill-rule="evenodd" clip-rule="evenodd" fill="#FFFFFF" d="M151.763,222.928
				c-13.689-19.6-18.565-40.244-14.689-61.936c-1.377-3.613-2.335-6.262-2.842-7.859c-0.544-1.711-1.066-3.15-1.568-4.33
				c-0.419-1.17-0.336-2.092,0.25-2.762c0.951-1.27,3.664-1.477,8.097-0.637c5.426-17.832,12.354-31.8,20.764-41.93
				c-12.724-5.033-24.32-9.111-34.885-12.317c-1.556,1.52-3.178,3.066-4.908,4.652c-14.201,12.999-24.901,29.534-32.152,49.548
				c0.576,1.217,1.14,2.418,1.743,3.697c7.491,15.91,15.585,36.383,24.278,61.418c8.692,25.016,18.416,36.496,29.172,34.441
				c5.796-1.107,12.564-3.043,20.24-5.754C160.46,234.326,155.953,228.93,151.763,222.928z"/>
			<g>
				<path fill="#333333" d="M142.825,106.645c0,1.255-0.502,1.881-1.507,1.881c-0.752,0-1.546-0.71-2.382-2.132l-1.005-2.259
					c0-1.926,0.835-2.384,2.509-1.382C142.031,103.84,142.825,105.14,142.825,106.645z M121.405,115.197
					c1.446-0.246,2.717-0.396,3.729-0.396c0.12,0,0.213,0,0.331,0c0.252-0.492,0.421-1.088,0.421-1.882
					c0-2.676-1.171-4.558-3.514-5.646c-2.426-1.171-3.639-0.502-3.639,2.007c0,0.753,0.377,1.967,1.129,3.64
					C120.346,113.926,120.861,114.678,121.405,115.197z"/>
				<g>
					<g>
						<path fill-rule="evenodd" clip-rule="evenodd" fill="#3798D4" d="M127.141,115.06c-0.612,0-1.284,0-2.007,0
							c-1.171,0-2.637,0.167-4.392,0.503c-1.674,0.336-2.72,0.626-3.137,0.879l-0.627,0.187v-0.063l-0.127-0.499
							c0-0.16,0.063-0.329,0.189-0.503c0.284-0.409,0.975-0.829,2.071-1.255c1.421-0.585,2.97-0.88,4.641-0.88
							c2.799,0,4.223,0.565,4.267,1.696C127.739,115.109,127.448,115.09,127.141,115.06z M141.945,107.282
							c0.922-1.088,2.052-1.504,3.389-1.254c-1.085,0.697-2.257,1.869-3.514,3.514c-0.248,0.314-0.478,0.605-0.689,0.877
							c-0.211-0.172-0.314-0.466-0.314-0.877C140.818,108.87,141.193,108.117,141.945,107.282z"/>
					</g>
				</g>
				<g>
					<path fill-rule="evenodd" clip-rule="evenodd" fill="#3798D4" d="M131.533,136.883c-2.51,0.669-4.978-0.376-7.404-3.137
						c-2.676-2.846-3.137-5.815-1.379-8.908c0.167,1.924,0.292,3.137,0.375,3.637c0.838,3.015,2.804,4.937,5.899,5.773
						c1.671,0.334,3.22,0.583,4.641,0.753c0.084,0.419-0.166,0.835-0.752,1.254C132.41,136.591,131.95,136.8,131.533,136.883z
						 M158.007,109.782c0-1.256,1.255-1.966,3.765-2.132c2.928-0.422,5.06,0.205,6.398,1.881c0.921,1.172,1.379,2.427,1.379,3.766
						c0,2.256-0.417,3.387-1.254,3.387l-0.375-0.128v-0.877l0.25-1.006c0-0.918-0.292-1.882-0.877-2.884
						c-0.669-1.171-1.549-1.882-2.635-2.135l-3.137,0.128c-1.424,0.416-2.343,0.627-2.762,0.627c-0.417,0-0.669-0.083-0.752-0.25
						V109.782z"/>
					<g>
						<path fill-rule="evenodd" clip-rule="evenodd" fill="#3798D4" d="M153.74,119.193c0-0.923,0.419-1.383,1.255-1.383
							c0.668,0,1.212,0.335,1.632,1.005c0.25,0.419,0.375,0.838,0.375,1.254c0,0.922-0.375,1.383-1.127,1.383
							C154.452,121.452,153.74,120.697,153.74,119.193z M156.877,125.716c-0.669,0-1.338-0.334-2.007-1.005v-0.501
							c1.171,0.501,2.132,0.295,2.887-0.627c1.002-1.172,1.588-1.757,1.755-1.757l0.128,0.88c0,0.499-0.211,1.086-0.628,1.755
							C158.426,125.298,157.715,125.716,156.877,125.716z"/>
					</g>
				</g>
			</g>
		</g>
		<g>
			<path fill-rule="evenodd" clip-rule="evenodd" fill="#333333" d="M281.974,204.764c0.836,1.756,1.505,3.514,2.007,5.268
				c2.426-2.51,4.14-5.268,5.145-8.277c1.674-3.432,2.971-4.354,3.889-2.762c1.088,1.756,0.211,5.393-2.635,10.918
				c-2.845,5.518-5.018,8.027-6.522,7.527c-1.591-0.588-3.432-3.014-5.522-7.279c-2.176-4.182-4.1-6.65-5.771-7.402
				c-6.858-3.012-13.05-3.053-18.571-0.125c-0.418-1.254-0.752-2.385-1.004-3.387c0.922-0.588,1.968-1.133,3.137-1.633
				c6.107-2.676,12.506-2.553,19.197,0.377C278,199.16,280.217,201.418,281.974,204.764z"/>
		</g>
		<g>
			<path fill-rule="evenodd" clip-rule="evenodd" fill="#333333" d="M80.717,153.447c-1.84,2.088-2.218,4.346-1.129,6.773
				c1.087,2.342,1.965,3.432,2.634,3.264c1.005-1.006,2.384-1.549,4.142-1.631c2.257-0.252,3.639,0.498,4.139,2.258
				c0.502,1.672-0.25,3.387-2.257,5.143c-2.007,1.758-4.686,1.506-8.031-0.75c-1.255-1.508-2.468-3.18-3.64-5.02
				c-1.088-1.926-1.798-3.473-2.132-4.643c-0.418-1.174-0.544-2.637-0.377-4.393c0.083-1.84,1.171-3.764,3.262-5.771
				c2.01-2.094,5.061-3.053,9.161-2.887c5.102,0.084,8.991,0.877,11.67,2.385c1.504,1.924,1.213,2.846-0.88,2.762
				c-2.174-0.082-5.019-0.211-8.531-0.377C85.233,150.393,82.557,151.355,80.717,153.447z"/>
		</g>
		<g>
			<path fill-rule="evenodd" clip-rule="evenodd" fill="#3798D4" fill-opacity="0.251" d="M94.832,114.865
				c0.292,1.882,0.333,3.092,0.125,3.637c-0.46,1.548-0.815,2.489-1.066,2.823c-0.752,1.087-1.84,1.588-3.262,1.504
				c-1.424-0.084-2.323-1.44-2.698-4.077l-0.063-0.688c0-0.082,0-0.165,0-0.253c0.046-0.715,0.254-1.701,0.627-2.945
				c0.316-1.078,0.777-2.355,1.379-3.828c1.013-2.466,1.64-4.768,1.882-6.901c0.488,1.638,1.054,3.417,1.696,5.332
				C94.077,111.373,94.539,113.17,94.832,114.865z"/>
			<g>
				<path fill-rule="evenodd" clip-rule="evenodd" fill="#FFFFFF" d="M89.75,120.447c-0.502,0-0.877-0.334-1.129-1.004l-0.25-1.005
					c0-1.589,0.627-2.632,1.882-3.138c1.172-0.5,1.757,0.044,1.757,1.632c0,0.672-0.125,1.338-0.377,2.011
					C91.215,119.944,90.588,120.447,89.75,120.447z"/>
			</g>
		</g>
		<g>
			<path fill-rule="evenodd" clip-rule="evenodd" fill="#F8B334" d="M53.238,59.971c4.517,3.259,5.479,5.646,2.887,7.15
				c-0.502,0.333-4.519-1.674-12.047-6.024c-0.669-1.171-0.835-2.299-0.5-3.387c0.25-0.921,0.586-1.505,1.003-1.757
				C45.751,55.285,48.638,56.623,53.238,59.971z M52.86,113.924c0,0.583-3.764,3.052-11.292,7.4c-1.338,0-2.382-0.462-3.137-1.381
				c-0.669-0.669-1.002-1.254-1.002-1.756c0-1.339,2.593-3.138,7.778-5.397C50.31,110.534,52.86,110.91,52.86,113.924z
				 M32.411,88.83c-0.252-0.922-0.252-1.592,0-2.01c0.668-1.172,3.847-1.422,9.535-0.753c5.521,0.586,7.528,2.174,6.023,4.766
				c-0.252,0.506-4.727,0.756-13.427,0.756C33.371,90.917,32.661,90,32.411,88.83z"/>
		</g>
		<g>
			<path fill-rule="evenodd" clip-rule="evenodd" fill="#BEC7E4" d="M278.459,281.051c0,1.422-0.377,2.676-1.129,3.764
				c-1.002,1.672-2.635,2.551-4.894,2.635H145.21c-2.26-0.084-3.975-0.92-5.146-2.51c-0.92-1.172-1.38-2.467-1.38-3.889
				c0-1.504,0.46-2.76,1.38-3.764c1.087-1.422,2.803-2.217,5.146-2.385l126.976,0.252c1.924,0.084,3.515,0.834,4.77,2.256
				C277.957,278.582,278.459,279.797,278.459,281.051z"/>
		</g>
		
			<line opacity="0.5" fill="none" stroke="#3798D4" stroke-width="5.0189" stroke-linecap="round" stroke-linejoin="round" stroke-miterlimit="10" x1="23.022" y1="193.494" x2="137.758" y2="193.494"/>
		
			<line opacity="0.5" fill="none" stroke="#3798D4" stroke-width="5.0189" stroke-linecap="round" stroke-linejoin="round" stroke-miterlimit="10" x1="109.597" y1="73.042" x2="224.333" y2="73.042"/>
		
			<line opacity="0.5" fill="none" stroke="#3798D4" stroke-width="5.0189" stroke-linecap="round" stroke-linejoin="round" stroke-miterlimit="10" x1="239.39" y1="73.042" x2="250.682" y2="73.042"/>
		
			<line opacity="0.5" fill="none" stroke="#3798D4" stroke-width="5.0189" stroke-linecap="round" stroke-linejoin="round" stroke-miterlimit="10" x1="165.433" y1="226.117" x2="280.168" y2="226.117"/>
		
			<line opacity="0.5" fill="none" stroke="#3798D4" stroke-width="5.0189" stroke-linecap="round" stroke-linejoin="round" stroke-miterlimit="10" x1="130.271" y1="226.117" x2="144.031" y2="226.117"/>
		
			<line opacity="0.5" fill="none" stroke="#3798D4" stroke-width="5.0189" stroke-linecap="round" stroke-linejoin="round" stroke-miterlimit="10" x1="188.287" y1="133.612" x2="264.373" y2="133.612"/>
	</g>
	<g>
		<g>
			<path fill-rule="evenodd" clip-rule="evenodd" fill="#999999" d="M275.932,66.983c-1.402,0.708-2.806,1.479-4.211,2.314
				c-0.783-2.009-1.715-4.522-2.795-7.539c0.929-0.438,1.918-0.917,2.968-1.438c0.021,0.004,0.041,0.008,0.062,0.012l-0.025-0.035
				c0.512-0.241,1.049-0.511,1.611-0.806c0.445,0.887,0.979,1.929,1.598,3.124c0.176,0.413,0.837,1.669,1.984,3.769
				C276.746,66.587,276.349,66.788,275.932,66.983z"/>
			<g>
				<path fill-rule="evenodd" clip-rule="evenodd" fill="#3798D4" d="M277.414,58.794c-4.443,2.036-8.15,3.746-11.118,5.132
					c-0.546-2.26-1.022-4.273-1.429-6.043c2.771-0.894,6.295-2.035,10.576-3.427C276.156,56.049,276.813,57.497,277.414,58.794z"/>
			</g>
		</g>
		<g>
			<path fill-rule="evenodd" clip-rule="evenodd" fill="#999999" d="M315.246,73.804c-0.246-0.385-0.494-0.749-0.746-1.093
				c2.076-1.258,3.287-2.012,3.631-2.264c1.129-0.718,2.125-1.344,2.988-1.879c0.326,0.506,0.654,1.012,0.982,1.518l-0.037,0.024
				c0.021,0.004,0.041,0.008,0.062,0.012c0.642,0.968,1.243,1.874,1.802,2.719c-2.46,2.053-4.525,3.756-6.199,5.111
				C316.924,76.51,316.096,75.127,315.246,73.804z"/>
			<g>
				<path fill-rule="evenodd" clip-rule="evenodd" fill="#3798D4" d="M318.47,66.133c1.19-0.811,2.507-1.735,3.95-2.775
					c2.958,3.371,5.416,6.151,7.37,8.34c-1.261,1.306-2.708,2.808-4.341,4.509C323.615,73.492,321.289,70.134,318.47,66.133z"/>
			</g>
		</g>
		<g>
			<path fill-rule="evenodd" clip-rule="evenodd" fill="#999999" d="M301.111,55.592c1.105,0.081,2.053,0.154,2.844,0.22
				c-0.334,1.438-1.189,5.073-2.565,10.902l-8.821-1.157c0.107-0.679,0.895-4.008,2.361-9.99
				C296.85,55.591,298.91,55.599,301.111,55.592z"/>
			<g>
				<path fill-rule="evenodd" clip-rule="evenodd" fill="#333333" d="M297.076,48.233c-2.064,1.301-3.392,2.34-3.982,3.117
					c-0.604,0.731-0.344,1.204,0.779,1.416c1.146,0.196,3.279,0.492,6.397,0.891c3.073,0.411,4.966,0.578,5.679,0.501
					c0.7-0.122,0.822-0.489,0.367-1.104l-1.909-2.485c-1.788-2.177-2.925-3.438-3.409-3.785
					C300.452,46.426,299.145,46.91,297.076,48.233z M294.094,47.732c1.709-1.433,3.38-2.555,5.014-3.367
					c1.568-0.803,3.396,0.102,5.482,2.717c2.105,2.618,3.667,4.827,4.68,6.625c0.973,1.791,0.451,2.707-1.564,2.75
					c-2.354-0.191-5.463-0.524-9.328-1c-2.853-0.35-5.4-0.682-7.646-1c-2.24-0.339-2.382-1.497-0.422-3.474
					C291.063,50.237,292.324,49.154,294.094,47.732z"/>
			</g>
			<g>
				<path fill-rule="evenodd" clip-rule="evenodd" fill="#3798D4" d="M304.763,52.38c-0.024,0.017-0.028,0.037-0.012,0.061
					c0.021,0.004,0.04,0.008,0.062,0.012c0.031,1.401,0.072,3.482,0.122,6.24c-2.591-0.278-4.683-0.515-6.274-0.709
					c-1.358-0.192-3.352-0.442-5.98-0.748c0.683-2.494,1.195-4.428,1.54-5.801C296.965,51.679,300.479,51.995,304.763,52.38z"/>
			</g>
		</g>
		<g>
			<path display="none" fill-rule="evenodd" clip-rule="evenodd" fill="#FFFFFF" d="M298.235,61.583
				c9.847,1.943,17.573,6.998,23.179,15.161c5.606,8.165,7.461,17.048,5.563,26.649s-6.995,17.108-15.292,22.521
				c-8.296,5.412-17.367,7.146-27.215,5.202c-9.826-1.94-17.543-6.992-23.146-15.156c-5.606-8.164-7.461-17.047-5.563-26.647
				c1.897-9.604,6.995-17.109,15.292-22.521C279.348,61.379,288.408,59.643,298.235,61.583z"/>
			<path fill-rule="evenodd" clip-rule="evenodd" fill="#3798D4" d="M298.235,61.583c9.847,1.943,17.573,6.998,23.179,15.161
				c5.606,8.165,7.461,17.048,5.563,26.649s-6.995,17.108-15.292,22.521c-8.296,5.412-17.367,7.146-27.215,5.202
				c-9.826-1.94-17.543-6.992-23.146-15.156c-5.606-8.164-7.461-17.047-5.563-26.647c1.897-9.604,6.995-17.109,15.292-22.521
				C279.348,61.379,288.408,59.643,298.235,61.583z"/>
			<g>
				<path fill-rule="evenodd" clip-rule="evenodd" fill="#E8F6FC" d="M261.825,91.297c1.579-8.115,5.823-14.584,12.734-19.402
					c6.97-4.879,14.583-6.645,22.84-5.299c8.32,1.317,14.826,5.391,19.517,12.217c4.684,6.808,6.156,14.329,4.415,22.564
					c-1.731,8.175-6.132,14.63-13.203,19.36c-7.018,4.694-14.626,6.319-22.823,4.874c-8.119-1.453-14.457-5.51-19.018-12.172
					C261.703,106.744,260.215,99.363,261.825,91.297z"/>
			</g>
		</g>
		<g>
			<path fill-rule="evenodd" clip-rule="evenodd" fill="#333333" d="M294.051,76.685c0.633,0.014,1.484,0.037,2.557,0.07
				c-0.543,2.879-1.197,6.118-1.962,9.717c-1.224,5.923-2.235,10.606-3.034,14.051c-1.063-0.075-2.195-0.13-3.395-0.165
				c-0.009-0.065-0.011-0.108-0.007-0.129c3.167-13.189,5.104-21.039,5.81-23.55C294.023,76.66,294.034,76.662,294.051,76.685z"/>
		</g>
		<g>
			<path fill-rule="evenodd" clip-rule="evenodd" fill="#333333" d="M301.542,92.787c0.021,0.004,0.039,0.018,0.056,0.042
				c0.239,0.638,0.545,1.541,0.916,2.71c-1.607,0.67-3.416,1.406-5.43,2.211c-3.313,1.299-5.954,2.302-7.928,3.007
				c-0.375-1.148-0.77-2.355-1.188-3.618l0.012-0.062C295.555,94.594,300.074,93.165,301.542,92.787z"/>
		</g>
		<g>
			<path fill-rule="evenodd" clip-rule="evenodd" fill="#333333" d="M272.756,81.61c0.158-0.161,0.319-0.342,0.484-0.543
				c1.672,1.668,3.465,3.434,5.375,5.297c5.73,5.713,10.271,10.229,13.62,13.547c-0.206,0.194-0.394,0.402-0.562,0.624
				c-0.041-0.008-0.072-0.014-0.093-0.018C282.941,91.843,276.667,85.542,272.756,81.61z"/>
		</g>
		<g opacity="0.5">
			<path fill-rule="evenodd" clip-rule="evenodd" fill="#FFFFFF" d="M303.011,93.239c-3.091-2.574-7.685-4.456-13.778-5.647
				c-6.09-1.192-11.702,0.249-16.836,4.323c-5.133,4.071-8.328,9.014-9.586,14.827c-1.746-4.837-2.074-9.985-0.985-15.444
				c1.067-5.486,3.351-10.221,6.854-14.201c6.724-2.979,13.202-3.775,19.434-2.389c6.228,1.39,11.345,4.021,15.353,7.895
				s7.167,5.817,9.477,5.835c2.313,0.015,4.383-1.117,6.209-3.396c0.244-0.302,0.47-0.63,0.677-0.982
				c0.567,1.325,1.026,2.676,1.376,4.05c-0.188,0.346-0.4,0.738-0.635,1.182c-2.016,3.813-4.674,6.071-7.972,6.773
				C309.297,96.761,306.103,95.819,303.011,93.239z"/>
		</g>
	</g>
</g>
</svg>
