<svg xmlns="http://www.w3.org/2000/svg" xmlns:xlink="http://www.w3.org/1999/xlink" viewBox="0 0 300 300"><defs><style>.cls-1{fill:none;}.cls-2{opacity:0.5;}.cls-3{clip-path:url(#clip-path);}.cls-4{fill:#c5e3ea;}.cls-4,.cls-5,.cls-6,.cls-7{fill-rule:evenodd;}.cls-5{fill:#bae5f4;}.cls-6{fill:#93cad8;}.cls-7{fill:#c9edf4;}</style><clipPath id="clip-path"><rect class="cls-1" x="109.05" y="148.9" width="43.6" height="14.6"/></clipPath></defs><title>Plan de travail 59</title><g id="objet05"><g class="cls-2"><g class="cls-3"><path class="cls-4" d="M112.28,155.38a5.5,5.5,0,0,1-.28-.48,11.54,11.54,0,0,0-.75-1.55c0-1.13.55-1.3,1.65-.5l.28.23-.28-1.18c0-1.77.48-2.13,1.45-1.1a4.52,4.52,0,0,1,.45.55l0-1c0-1.47.35-1.78,1-1a5.28,5.28,0,0,1,1,3.4,2,2,0,0,1-.25.9c-.2.37-.4.55-.6.55l-.2,0c0,.81-.31,1.22-.85,1.22a1.29,1.29,0,0,1-.43-.07,1.12,1.12,0,0,1,0,.27c0,.67-.25,1-.75,1h0a1.51,1.51,0,0,1,.38.9,1,1,0,0,1-.2.55.72.72,0,0,1-.47.35,2,2,0,0,1,.07.5.94.94,0,0,1-.6.95,6.5,6.5,0,0,1-2,.2,1.86,1.86,0,0,1-1.7-.65c-.1-.43-.15-.67-.15-.7,0-.95.68-1.42,2-1.4-.6-.6-.9-1-.9-1.25q0-2,2-.75l.13.08m38.42-2.63a3.41,3.41,0,0,1-.77,1.63c1.45-.45,2.17-.26,2.17.57,0,.57-.42,1.07-1.27,1.53,1,.16,1.57.5,1.57,1a1,1,0,0,1-.65,1,1.5,1.5,0,0,1-.3.1c.8.16,1.2.49,1.2,1s-.66,1-2,1.05a4.74,4.74,0,0,1,1.62,1.8,1,1,0,0,1-.35.75,1.08,1.08,0,0,1-.7.3,3,3,0,0,1-2.5-1.2,2.59,2.59,0,0,1-.65-1.3.65.65,0,0,1,.23-.52,2.08,2.08,0,0,1-.63-.23,1.43,1.43,0,0,1,1-1.5,1.54,1.54,0,0,1-.88-.35.77.77,0,0,1-.15-.55,2.14,2.14,0,0,1,0-.45.63.63,0,0,1-.65-.5c0-.33-.05-.52-.05-.55a.91.91,0,0,1,.33-.65.87.87,0,0,1-.28-.35,1.71,1.71,0,0,1-.1-.65c0-.73.63-1.6,1.9-2.6s1.85-.78,1.85.65"/></g></g><path class="cls-5" d="M134.6,203.55a122,122,0,0,0,15,1.6l10.9,0a24.13,24.13,0,0,1,6.8-.65,16.31,16.31,0,0,1,4,.38.45.45,0,0,1,.25.07s0,1.62-.18,4.82-.63,4.48-1.5,3.86a4.9,4.9,0,0,1-2.12-1.33q-1.2-1.5-1.35-1.65-.75,2.06-1.35,3.45c-.77,1.83-1.7,2.75-2.8,2.75a5.12,5.12,0,0,1-3.2-1.75,10.63,10.63,0,0,0-1.7-1.75q-.5,0-3.15,3.2t-4.2,3.2a2.4,2.4,0,0,1-2.55-1.8,12.64,12.64,0,0,1-.2-2.8l-.05-.1c-.8,1.13-1.52,2.12-2.15,3-1.27,1.67-2.4,2.5-3.4,2.5a3.43,3.43,0,0,1-3.35-2.25c-.63-1.53-1.12-2.3-1.45-2.3a10,10,0,0,0-1.75,2.15c-1,1.4-2.12,2.1-3.25,2.1a4.11,4.11,0,0,1-3.55-2.2c-.63-1.35-1-2.2-1.2-2.52a10.91,10.91,0,0,1-1.8,2c-1.4,1.27-2.4,1.9-3,1.9a3.43,3.43,0,0,1-3.5-2.2l-.65-3.4a5,5,0,0,0-2.75,1.4,4.77,4.77,0,0,1-3,1.25c-1.07,0-2-1-2.7-2.95a14,14,0,0,0-1.2-2.95,3.8,3.8,0,0,0-2.35,1.25A4,4,0,0,1,104,213c-.87,0-1.45-.95-1.75-2.85s-.7-2.85-1.2-2.85a9.09,9.09,0,0,0-2.4,1.6,8.06,8.06,0,0,1-2.5,1.55c-.63,0-1.13-.92-1.5-2.75q-.25-1.09-.6-4a.33.33,0,0,0-.1-.25,13.52,13.52,0,0,1-.9,1.25,2.83,2.83,0,0,1-2,1q-1.6,0-2.1-2.1l-.15-2.1a7.78,7.78,0,0,1,.25-1.8,7.48,7.48,0,0,1,.65-1.7c.27-.4,1.18-.62,2.75-.65.8,0,1.63,0,2.5.1.17,0,1.28.1,3.35.3s5.27.3,9.6.3q2.59,0,6-.2c1.83-.13,3.17-.25,4-.35a4.23,4.23,0,0,0,.65.55c0,.35-.32.67-1,.95a54.88,54.88,0,0,1,8,2.35,85.69,85.69,0,0,0,9,2.2"/><path class="cls-6" d="M139.9,208.55a2.84,2.84,0,0,1,1.5.7,20.86,20.86,0,0,0,2.3,1.55l0,.15a8.63,8.63,0,0,1-3.75-2.25Zm2.15-2.55c.53-.17,2.38.42,5.55,1.75,2.07.87,4.1,1.78,6.1,2.75q-2.2-.6-11.6-3.95c-.07.17-.1.08-.1-.25Zm-12.9.2a9.81,9.81,0,0,1-1,2.25,10.31,10.31,0,0,1-1.5,2.45c-.1.17-.15.08-.15-.25a11,11,0,0,1,.9-2.75,10.25,10.25,0,0,1,1.35-2.65,2.14,2.14,0,0,1,.35.95m2.8.75a1.64,1.64,0,0,1,.05-.45h.3a6.59,6.59,0,0,1,.5,1.55l-.1,1.7-.25.1a13.83,13.83,0,0,1-.5-2.9m25.3.85c2.17.43,5.13.88,8.9,1.35a1.9,1.9,0,0,0,.55.3,52.26,52.26,0,0,1-14.8-2.65l0-.25,5.3,1.25m-54-4.6a29.2,29.2,0,0,0,5.35-1,15.71,15.71,0,0,1,4.4-.6c-1.5.6-2.72,1-3.65,1.3a18,18,0,0,1-5.1.7c-.6,0-.93,0-1-.15Zm11.45,1.2-3.55,1.5c-.13.2-.2.13-.2-.2s.87-.8,2.6-1.5a19,19,0,0,1,4-1.4,12.33,12.33,0,0,1-2.9,1.6m-1.4-4.9a13,13,0,0,1-3.3.95,46.36,46.36,0,0,1-8.8.75,5.47,5.47,0,0,1-1.9-.25l-.75-.1c-.5-.07-.77-.13-.8-.2q2.89-.65,15.5-1.25Zm9.3,6.2.1.3a7.36,7.36,0,0,1-2,1.1,13.8,13.8,0,0,1-2.3.85l-.1-.15a5.4,5.4,0,0,1,2.2-1.35,7.74,7.74,0,0,1,2-.75"/><path class="cls-7" d="M122.4,161.65l0-.15q.48-2.35,1.08.4a49.61,49.61,0,0,0,4.67,4.25q.95,0,4.65-2.65t4.05-2.65a2.84,2.84,0,0,1,2.8,2.15c.93,2.3,1.45,3.52,1.55,3.65a97,97,0,0,1,5.2,12.1,117.39,117.39,0,0,1,4,12.45,56.31,56.31,0,0,1,1,11.65,3.25,3.25,0,0,1-.45,1.7,2,2,0,0,1-.33.43,2.06,2.06,0,0,1-1,1.42,7.75,7.75,0,0,1-4.15.9,71.42,71.42,0,0,1-21.45-3.3q-6.21-1.94-8.65-3.8a3.32,3.32,0,0,1-2.4-1.7,4,4,0,0,1-.7-1.95,65.24,65.24,0,0,0,4-6.25,35.15,35.15,0,0,0,4.55-15.75l1.3-11c.08-.76.18-1.38.27-1.87Z"/><path class="cls-5" d="M123,153.78a.66.66,0,0,1-.47.47l0,0c-.48.42-.9.82-1.25,1.17-1,.9-1.45,1.53-1.45,1.9a14.16,14.16,0,0,0,1.75,1.6,10.86,10.86,0,0,1,2.65,3.75.64.64,0,0,1-.1.13.92.92,0,0,1,.2.42,2.25,2.25,0,0,1,0,.8,6.38,6.38,0,0,1-.3,1.55,7,7,0,0,1-.28.75c-.43,2-1.34,3-2.72,3q-6,0-8.1-4.5a12.42,12.42,0,0,1-.9-5.15q0-7.69,5.6-9.35a5.29,5.29,0,0,1,3.8.2,2.82,2.82,0,0,1,1.75,2.7,2,2,0,0,1,0,.45l0,0-.08.08m13.73,3.92c1.23-2.87,2.67-4.8,4.3-5.8q5.05-3.1,7.5,1.1a13.94,13.94,0,0,1,1.65,7.15,13,13,0,0,1-1.3,5.65,7.64,7.64,0,0,1-7.4,4.75q-4,0-5.6-3a7.14,7.14,0,0,1-.8-3.4,16.79,16.79,0,0,1,1.65-6.45"/></g></svg>