<svg xmlns="http://www.w3.org/2000/svg" viewBox="0 0 300 300"><defs><style>.cls-1{fill:#b6c5d3;}.cls-1,.cls-2{fill-rule:evenodd;}.cls-2{fill:#d7dee2;}</style></defs><title>Plan de travail 20</title><g id="objet01"><path class="cls-1" d="M60.22,31.2l0,.45L61.5,85a2.33,2.33,0,0,1-1.08.67c-.85-.33-1.44-.29-1.77.1q.12-49.5.05-61.75.55-.11,1-.15.45,6.95.47,7.35"/><path class="cls-2" d="M70.65,80.75q3.6,2.18,4.7,11.15c-.73.11-2.88.5-6.45,1.15-3.3.63-6.32,1.12-9.05,1.45q-9,.7-16,1.43c0-3,0-4.59,0-4.83q0-5.4,5-8.95a21,21,0,0,1,10.9-3.65,18.13,18.13,0,0,1,10.9,2.25"/><path class="cls-2" d="M57.7,24.8c-.1-.6-.15-.92-.15-.95,0-1,.58-1.62,1.75-1.75s1.75.3,1.75,1.3a2.94,2.94,0,0,1-.65,1.25c-.5.67-.95,1-1.35,1a1.38,1.38,0,0,1-1.35-.85"/></g></svg>