<svg xmlns="http://www.w3.org/2000/svg" xmlns:xlink="http://www.w3.org/1999/xlink" viewBox="0 0 300 300"><defs><style>.cls-1{fill:none;}.cls-2{clip-path:url(#clip-path);}.cls-3{opacity:0.5;}.cls-4{clip-path:url(#clip-path-2);}.cls-5{fill:#9fad6c;}.cls-5,.cls-6,.cls-7,.cls-8,.cls-9{fill-rule:evenodd;}.cls-6{fill:#61b1e2;}.cls-7{fill:#438baf;}.cls-8{fill:#f9b341;}.cls-9{fill:#dd8f1d;}</style><clipPath id="clip-path"><path class="cls-1" d="M116.88,76q-7.57,1.24-10.18,7.18-3.65,8.35-5.6,12.1-6.69,12.8-9.53,18.2c-1.88,3.61-2.85,6-2.89,7.3a10.2,10.2,0,0,0,.22,3c.2.75,1.58,2.5,4.15,5.23a86.09,86.09,0,0,0,8.42,7.15,94.45,94.45,0,0,0,14.33,9q8.17,4.24,9.75,4.6a20,20,0,0,0,4.65.2q3.08-.14,15.6-4.53t14.3-5.95a13.08,13.08,0,0,0,2.92-3.2,16.93,16.93,0,0,0,2.13-4.65q.65-2.34,1.78-10.38a152.88,152.88,0,0,0,1.12-20.52,71.18,71.18,0,0,0-.7-10.65A16.29,16.29,0,0,0,165.5,85c-.54-1.39-2-3.22-4.45-5.5s-7.64-3.76-15.65-4.43c-3-.2-6-.31-9.09-.31A153.77,153.77,0,0,0,116.88,76"/></clipPath><clipPath id="clip-path-2"><rect class="cls-1" x="128.47" y="72.29" width="45.47" height="30.97"/></clipPath></defs><title>Plan de travail 32</title><g id="objet03"><g class="cls-2"><g class="cls-3"><g class="cls-4"><path class="cls-5" d="M128.47,73.14s30.71,12.67,40.26,30.12c0,0,26.54-37-40.26-30.12"/></g></g></g><path class="cls-6" d="M168,98.6c.3.37.82.92,1.55,1.65.44.6.81,1.13,1.1,1.6a1.14,1.14,0,0,0,.15-.55q0-2.61-3.05-6l-.23-.25a51.75,51.75,0,0,0-8.5-7c-1.41-1-3-2-4.62-3q-12.14-7.58-18.83-10.22a24.19,24.19,0,0,0-3.37-1.13,7.46,7.46,0,0,0-3.9.1l1.4.6,1.2.58-4.62.12a4.65,4.65,0,0,1-.28-1.6,8.92,8.92,0,0,1,.38-2.67q12.68-3.63,25.22-8.53Q172.11,54.15,185,45.08c1.24-.75,2-.55,2.23.6v0l-.1.9c-.3,2.89-.64,6.11-1,9.68q-.13,1.15-.27,2.37Q184.2,72.8,177.6,92.1q-2.22,6.56-4.6,12.48a.88.88,0,0,0-.05.15s0,.11-.07.17a22.59,22.59,0,0,1-4.88.9H168q.15-4.9.05-7.2"/><path class="cls-7" d="M167.75,95.28q3,3.41,3.05,6a1.14,1.14,0,0,1-.15.55c-.29-.47-.66-1-1.1-1.6-.73-.73-1.25-1.28-1.55-1.65ZM135.58,74.73l-1.23.07-3.45.08-1.2-.58-1.4-.6a7.46,7.46,0,0,1,3.9-.1,24.72,24.72,0,0,1,3.38,1.13"/><path class="cls-7" d="M185.8,58.65Q184.2,72.8,177.6,92.1q-2.22,6.56-4.6,12.48a.88.88,0,0,0-.05.15l-.08.17a22,22,0,0,1-4.82.9H168q.15-4.35-.05-7.2l-.2-3.32-.22-.25a53.15,53.15,0,0,0-8.5-7,101,101,0,0,0,12.32-11q10.11-10.45,14.72-20.72-.13,1.15-.27,2.37"/><path class="cls-8" d="M166.84,55.44c2.94.36,4.39,1.38,6.91,3.11q.88.63,3.55,2.88-.69,1.09-5.55,5.27c-1.07.91-2,1.71-2.85,2.38-.56.44-1.07.82-1.53,1.15a9.82,9.82,0,0,1-2.32,1.37l-.55-.5c-3.17-2.7-8.1-6.64-13.73-8.71,3-1.27,12.27-5,16.07-7"/><path class="cls-9" d="M159.3,65.25a.42.42,0,0,0,.35,0c.07,0,.1.17.1.4a5.4,5.4,0,0,1-1,1,10.66,10.66,0,0,1-1.5,1.2,1.19,1.19,0,0,1-.4-.25.65.65,0,0,1-.2-.55c0-.3.28-.65.85-1a6.28,6.28,0,0,1,1.8-.8m16.95-9a1,1,0,0,1,.05.45,11.32,11.32,0,0,1-1.85,1.7,19,19,0,0,1-2.2,1.7h-.45c-.1,0-.15-.17-.15-.4,0-.43.55-1,1.65-1.75,1.77-1.13,2.67-1.72,2.7-1.75a.92.92,0,0,0,.25.05M174,65.55a7,7,0,0,1-1.85-2c.27-.2,1.08.05,2.45.75s2.1,1.32,2.1,1.85a3,3,0,0,1,0,.45c.07.13-.08.2-.48.2a4.73,4.73,0,0,1-2.2-1.25m-1.75-7.8a4.3,4.3,0,0,1-1.7,1,1.56,1.56,0,0,1-.5,0v-.05l-.1,0a.88.88,0,0,1-.05-.4c0-.23.47-.67,1.4-1.3a9.19,9.19,0,0,1,1.65-1,.8.8,0,0,1,.65.5q0,.3-1.35,1.35m-4.95,10c.87.07,2.33,1,4.4,2.8-.27.47-.5.7-.7.7-.53,0-1.27-.47-2.2-1.4a10.86,10.86,0,0,1-1.6-1.9Zm5.9.9c-2-.63-3.08-1.45-3.35-2.45a3.29,3.29,0,0,1,2.2.65,4.28,4.28,0,0,1,1.75,1.3.69.69,0,0,1-.05.35c-.07.1-.25.15-.55.15"/></g></svg>