<svg xmlns="http://www.w3.org/2000/svg" viewBox="0 0 300 300"><defs><style>.cls-1{fill:#b6853c;}.cls-1,.cls-2{fill-rule:evenodd;}.cls-2{fill:#d7a354;}</style></defs><title>Plan de travail 21</title><g id="objet02"><path class="cls-1" d="M152.8,172.1l-.55-2c0-.77.28-.93.85-.5a3,3,0,0,1,.53.58,1.31,1.31,0,0,1,.57.37,4.83,4.83,0,0,1,1.15,1.55,20.53,20.53,0,0,1,1.25,3.15,35.35,35.35,0,0,1,1.1,7.37c.31,1.18,0,3-.92,5.43s-2.22,3.69-3.88,3.75-2.8-.42-3.4-1.45a3.62,3.62,0,0,1-.5-1.85,16.31,16.31,0,0,1,2.2-7.15q2.15-4.2,2.15-6.55A17.39,17.39,0,0,0,152.8,172.1Z"/><path class="cls-2" d="M151.43,171.38l0,0a3.33,3.33,0,0,0-.25-.28c-.9-1-1.35-1.69-1.35-2,0-.67,1-1.35,3-2s3.62-.75,4.65-.05a16.94,16.94,0,0,1,2.65,2.72,47.07,47.07,0,0,0-.35,5.48c0,2.93.13,4.68.5,5.25a1.92,1.92,0,0,0,.83.62q-.54,1.45-1.38,3.63-3.07,6.48-5.65,7.05a4.82,4.82,0,0,1-4.15-.65c3.1-.85,4.95-2.11,5.55-3.8a14,14,0,0,0,.85-4.6,15.23,15.23,0,0,0-1.75-7.35,11.67,11.67,0,0,0-2.75-3.57C151.68,171.64,151.55,171.51,151.43,171.38Zm25.87-1.13c-.06-.21-.12-.42-.17-.62a23,23,0,0,1,2.32-1.38,20.18,20.18,0,0,1,9.25-2.5q8.66,0,12.9,7.25a24.1,24.1,0,0,1,3.15,12.45,20.53,20.53,0,0,1-3.2,10.8,16.17,16.17,0,0,1-9.15,7.25c-.29.13-.59.24-.9.35a22.11,22.11,0,0,1-7.55,1.5,7.92,7.92,0,0,1-.85,0c-.39,0-.79,0-1.2,0a14.15,14.15,0,0,1-11.3-4.95q-3.1-3.6-3.1-6.3,0-3.6,4.15-9.3.94-1.31,1.68-2.52c.13-.23.26-.46.4-.68s.36-.67.52-1h.5c2,0,3.18-.52,3.65-1.55.17-.17.15-1.27-.05-3.3A28.28,28.28,0,0,0,177.3,170.25Z"/><path class="cls-1" d="M197.35,166.1a2.83,2.83,0,0,1-.6,1.15,4.81,4.81,0,0,1-.9,1.05.67.67,0,0,1-.3-.6,2,2,0,0,1,.5-1,3.13,3.13,0,0,1,1-.9C197.25,165.75,197.35,165.87,197.35,166.1Zm4.1,3.9v.2c0,.27-.42.73-1.25,1.4l-.2-.1s-.05-.08-.05-.25.15-.4.45-.6.53-.28,1-.55Zm-3-1.25.15.2a8,8,0,0,1-1.15.85.48.48,0,0,1-.15-.1.54.54,0,0,1-.05-.3c0-.2.17-.38.5-.55A.94.94,0,0,1,198.4,168.75Zm6.15,24.35a.91.91,0,0,1-.5.1,2.81,2.81,0,0,1-1.15-.3,1.8,1.8,0,0,1-.85-.55,1,1,0,0,1,1.25-.2,9,9,0,0,1,1.25.6Zm-6.3-10.85v.2a1,1,0,0,1-.55.1h-.15s-.05-.08-.05-.25,0-.22.1-.25a.16.16,0,0,1,.1,0Zm-.15,1.95a1.29,1.29,0,0,1-.75-.3c.17-.27.33-.38.5-.35a6.34,6.34,0,0,1,.55.35A.27.27,0,0,1,198.1,184.2Zm-6.85,12.6c0,.1-.15.15-.35.15a.92.92,0,0,1-.85-.55c.3-.4.73-.37,1.3.1C191.32,196.6,191.28,196.7,191.25,196.8Zm-1.7,1.85c-.37,0-.55-.15-.55-.45a.6.6,0,0,0,.1-.35.72.72,0,0,1,.45.15,1.53,1.53,0,0,0,.45.3A.49.49,0,0,1,189.55,198.65Zm-2.05,1.15c.07,0,0,0-.3,0l-.35,0v-1c.5.1.75.28.75.55S187.57,199.77,187.5,199.8Zm-14.3,4c0-.57.6-1.13,1.8-1.7l.1,0a.42.42,0,0,1,.05.25c0,.37-.55.93-1.65,1.7C173.3,204.13,173.2,204.07,173.2,203.8Zm2.1-10.9a1.12,1.12,0,0,1-.9.6h-.3a.51.51,0,0,1-.1-.3c0-.17.12-.3.35-.4a1.26,1.26,0,0,1,.8-.05Zm.2,1.75s-.05-.08-.05-.25c0-.37.32-.62,1-.75.17.17.25.27.25.3l-.9.75A.42.42,0,0,1,175.5,194.65Zm1.9,9.5v.2a1.76,1.76,0,0,1-.15.7h-.15v-.25A.91.91,0,0,1,177.4,204.15Zm-1.65-.6a2.58,2.58,0,0,1-.3.85,1.59,1.59,0,0,1-1,.5s0-.13,0-.4.35-.82,1-1.25Q175.75,203.36,175.75,203.55Z"/></g></svg>