<svg xmlns="http://www.w3.org/2000/svg" viewBox="0 0 300 300"><defs><style>.cls-1{isolation:isolate;}.cls-2{fill:#d7a354;}.cls-2,.cls-3,.cls-4,.cls-6,.cls-7{fill-rule:evenodd;}.cls-3{fill:#d3cfc9;}.cls-4,.cls-6{fill:#999;}.cls-4,.cls-5{opacity:0.5;mix-blend-mode:multiply;}.cls-7{fill:#e29a44;}</style></defs><title>Plan de travail 61</title><g class="cls-1"><g id="objet06"><path class="cls-2" d="M129.93,216.13c.4.05.81.08,1.22.09a20.1,20.1,0,0,0,10.53-2.17,9.5,9.5,0,0,0,1.57-1.08l.5.35a38.11,38.11,0,0,1,5.5,5.28q-1.74,1.34-4,2.87-6.72,4.56-12.65,5t-8.72-.67c-1.87-.74-2.64-1.66-2.33-2.75s3-3.31,8-6.65C129.69,216.29,129.81,216.21,129.93,216.13Zm19.6-14.83c.12.41.27.84.42,1.3.9,2.63,1.6,4.62,2.1,6,.35.95,1,2.8,2,5.58a14.2,14.2,0,0,1-1.4,1.57l-1.2-1.25-5.1-5.3c0-.07,0-.17.2-.3a1.67,1.67,0,0,0,.32-.42c.05-.11-.16-.18-.62-.21a13.58,13.58,0,0,0,.42-1.67c.56,0,1.13-.06,1.7-.1v-4.2Z"/><path class="cls-3" d="M125.3,218.45a88.26,88.26,0,0,0,4.2,8.8q-1.6.15-2,.15a11.5,11.5,0,0,1-5.25-.9,2.7,2.7,0,0,1-1.2-3.2Q121.6,221.05,125.3,218.45Z"/><path class="cls-4" d="M126.85,225.6v.05a.48.48,0,0,1-.55.55h0a.42.42,0,0,1-.33-.13.28.28,0,0,1-.15-.17.56.56,0,0,1,0-.18v-.12c0-.43.18-.63.55-.6A.53.53,0,0,1,126.85,225.6Zm-2.15-5.15h.15a.44.44,0,0,1,.45.5c0,.37-.2.55-.6.55s-.48-.08-.55-.25a.78.78,0,0,1-.05-.3.47.47,0,0,1,.1-.35A.74.74,0,0,1,124.7,220.45ZM123.3,226a.52.52,0,0,1-.5-.3l-.1-.3c0-.43.2-.62.6-.55s.6.27.6.6S123.7,226,123.3,226Zm-.75-3.3c.37,0,.55.13.55.5s-.18.6-.55.6-.43-.08-.5-.25a.62.62,0,0,1,0-.25v-.05C122,222.92,122.18,222.73,122.55,222.7Z"/><path class="cls-3" d="M148.35,204.63v-3.28c-.08-1.16-.24-2.78-.47-4.88a21,21,0,0,1,6.17-3.07Q161,204,163,210.53a9.55,9.55,0,0,1,.32,1.37q-6,3-8,5c-1.29,0-2.87-2.12-4.72-6.45Q149.36,207.55,148.35,204.63Z"/><g class="cls-5"><path class="cls-6" d="M154.13,196.3q.76,1.44,2.67,5.2c2.4,4.73,3.75,7.37,4,7.9a1.74,1.74,0,0,0,.9-.75q.51,1.62-.15,2.28a6.17,6.17,0,0,1-1.67,1.17q-1,.51-2.68-2.55c-1.1-2-2.28-4.41-3.52-7.12s-1.87-4.64-1.85-5.75.79-1.73,2.3-1.83a3.59,3.59,0,0,1,1.07,1.4A1.08,1.08,0,0,0,154.13,196.3Z"/></g><path class="cls-7" d="M121.53,163.8c.36-1.23.68-2.27,1-3.1a12.78,12.78,0,0,1,.87,1c.38.46,1,1.33,2,2.63A55.31,55.31,0,0,0,134,181.43a67.06,67.06,0,0,0,17.15,15.32q.18,2.28.3,3.9-15.06-1.08-22.22-8.55t-8.18-15.32Q120,168.91,121.53,163.8Z"/></g></g></svg>