<svg xmlns="http://www.w3.org/2000/svg" xmlns:xlink="http://www.w3.org/1999/xlink" viewBox="0 0 300 300"><defs><style>.cls-1{fill:none;}.cls-2{clip-path:url(#clip-path);}.cls-3{fill:#a1adb7;}.cls-3,.cls-4,.cls-5,.cls-6,.cls-7,.cls-8,.cls-9{fill-rule:evenodd;}.cls-4{fill:#d8a450;}.cls-5{fill:#aa772e;}.cls-6{fill:#ad8151;}.cls-7{fill:#e1e3e5;}.cls-8{fill:#6c7882;}.cls-9{fill:#dadde0;}</style><clipPath id="clip-path"><path class="cls-1" d="M2.08,48.15v73.33H71.65l-6.87-7.21-.58-.07a.65.65,0,0,1-.7-.45l0-.45v0a8,8,0,0,1-2-1.26q-2.91,1.45-10.47,1.46c-1.1,0-1.83-.92-2.2-2.75a11.62,11.62,0,0,1-.15-4.15,2.28,2.28,0,0,1-3.2-1.5,7.61,7.61,0,0,1-.4-2.7c0-.53.53-1.35,1.6-2.45.19-.2.38-.38.57-.55a1.55,1.55,0,0,1-.87-.8,7.79,7.79,0,0,1,0-3Q46.6,93.06,51.2,92a25.1,25.1,0,0,1,5.54-1,10.89,10.89,0,0,1-.09-1.22,3.77,3.77,0,0,1,.15-1.3,1.79,1.79,0,0,1,1.9-1,13.31,13.31,0,0,1,5,1.15c1,.37,2.08.83,3.25,1.4a4.84,4.84,0,0,1,2.5,1.75,3.58,3.58,0,0,1,.65,2,1.43,1.43,0,0,1-.1.5c0,.37-.4,2.33-1.2,5.9a45,45,0,0,0-1.2,9.65c0,.5.18,2,.55,4.4v.15l5.27,4.1V48.15Z"/></clipPath></defs><title>Plan de travail 15</title><g id="objet01"><g class="cls-2"><path class="cls-3" d="M70,82.88a15.66,15.66,0,0,0-3-.23,3.52,3.52,0,0,0-1.9.55,3.61,3.61,0,0,0-1.35,1.1c-.49.64-.84,1.07-1,1.3.07-2.16.1-3.31.1-3.45a12.38,12.38,0,0,0-.05-1.42,7,7,0,0,0,5,.42,2.52,2.52,0,0,1,2.55.75v.15a1,1,0,0,1-.3.83"/><path class="cls-3" d="M19.45,49.4a6.56,6.56,0,0,1,.8.55l.4.33v.07c0,.07-.18.72-.55,1.95a10,10,0,0,0-.6,2.8,2.55,2.55,0,0,0,.25.85,3.49,3.49,0,0,1,.2.8v.08c-.88-.46-1.68-.85-2.4-1.18l-.85-.37c.38-1.1.65-1.83.8-2.18.76-1.43,1.41-2.67,1.95-3.7"/><path class="cls-3" d="M17.35,63.55A2.07,2.07,0,0,1,17.78,62c.07,0,1.72.95,5,2.85s7.44,4.56,12.55,8q5.27,3.54,11,7.92c.26.49.56,1,.89,1.6l-3.17-2.05Q36.31,75.25,29.37,71l-12-7.43"/><path class="cls-4" d="M8.58,51.05c.84.62,1.83,1.31,3,2.05.37.24,1.39.94,3.08,2.1-.2.58-.49,1.58-.88,3a4.5,4.5,0,0,1-.15.55C11,58,8.71,57.48,6.65,57.05L5.33,56.8c.21-.64.36-1.11.47-1.4.67-1.3,1.25-2.5,1.75-3.6l.15-.3a1.21,1.21,0,0,1,.65-.45h.23"/><path class="cls-5" d="M8.3,53a1,1,0,0,1-.2.6.59.59,0,0,1-.55.35c-.36,0-.55-.25-.55-.75,0-.3.22-.53.65-.7s.65,0,.65.5m2.49,1.58c0,.1-.09.15-.35.15a.45.45,0,0,1-.4-.3l0-.15c0-.33.15-.5.45-.5s.45.17.45.5,0,.37-.1.3m1.6.6c-.4,0-.6-.18-.6-.55s.2-.56.6-.7.6.12.6.65q0,.3-.6.6m-.89,2.29a.41.41,0,0,1-.3.2.48.48,0,0,1-.45-.25.43.43,0,0,1-.15-.3c0-.27.18-.42.55-.45s.5.12.5.45a.61.61,0,0,1-.15.35m-3.18-.7a1.17,1.17,0,0,1-.85.35c-.43,0-.68-.13-.75-.4a1,1,0,0,1,0-.45c0-.6.33-.92,1-1s.95.22.95.75a1,1,0,0,1-.3.7"/><path class="cls-6" d="M14.07,59.88l0,12c.07,1.87.1,4.63.1,8.3v4.55c0,.12,0,.27,0,.45l0,.28h0c0,.49,0,2.61,0,6.35S13.72,98,12.88,99.2a3.49,3.49,0,0,1-3.75,1.33q-2.49-.45-3-10.08c-.12-2.3-.21-4-.27-5.2,0-.35,0-.67,0-1v-9c0-3.13,0-6.82.1-11q.12-6,.27-7.17a1.83,1.83,0,0,1,.06-.25l.42.1c.07,1.26.09,3.8.08,7.62q0,8.55,0,11.65V88.88c.07.87.15,2,.25,3.32.37,5.16,1.58,7.66,3.63,7.48s3-3.18,2.8-9-.24-8.47-.21-8c0,.32.06.69.08,1.1V80.25l.15-20.67c0-.43.56-.57.62.3"/><path class="cls-7" d="M14.7,53.78q24,12,36.8,18.52,12.35,6.49,12.35,7.5L63,83.9a32.61,32.61,0,0,0,7.13,5q4.13,2.2.17,1.63t-5.8,1.55a3.61,3.61,0,0,0-.7,4.3,19.29,19.29,0,0,1,1.73,4.8q.59,2.66-.2,10.67t-3.73,7.53a3,3,0,0,1-1.2.17h-4a7.87,7.87,0,0,1-4.85-4.1,8.34,8.34,0,0,1-.78-3.65,14.33,14.33,0,0,1,.28-3c.17-.68.57-2,1.2-4s.4-5.33-.67-10q-2.22-8.67-5-11.93t-3.25-4l0,0A148,148,0,0,0,26,67.05q-7.17-4.35-13.5-7.9c.13-.6.34-1.42.62-2.45a8.23,8.23,0,0,1,1.38-3l.17.1"/><path class="cls-8" d="M48.28,76.3c.44.27.91.56,1.42.85,1.93,1.13,4.35,2.47,7.25,4l.65.4a4,4,0,0,1,.25,1.35,7,7,0,0,1-.5,2.1,7.8,7.8,0,0,1-1,2,6.27,6.27,0,0,1-3,2l-.73-.45q-3-2.3-5.1-3.8l-.4-.27c.12-.43.24-.89.35-1.38q.8-5.4.8-5.6a11.17,11.17,0,0,0,0-1.3"/><path class="cls-9" d="M57,83.1c.57.17.85.48.85,1s-.23.85-.7.85a.94.94,0,0,1-.95-.55l-.1-.6c0-.57.3-.78.9-.65m-1.85,3.5L55,86.2c0-.57.33-.78,1-.65s1,.45,1,.85a.76.76,0,0,1-.25.55.82.82,0,0,1-.5.2,1.09,1.09,0,0,1-1.05-.55m-1.8,1.2c0-.57.33-.77,1-.6s.95.38.95.65c0,.73-.28,1.1-.85,1.1a.92.92,0,0,1-.85-.55Z"/><path class="cls-3" d="M48.4,77.05l.15-.85a1.52,1.52,0,0,1,.17.25,4.94,4.94,0,0,1,.58,2.6q-1.06,5.28-2.15,5.38c-.72.07-1.16,0-1.32-.25a15.75,15.75,0,0,1-.83-3,2.74,2.74,0,0,0,.9.15c1.13,0,2-1.42,2.5-4.25"/></g></g></svg>