<svg xmlns="http://www.w3.org/2000/svg" xmlns:xlink="http://www.w3.org/1999/xlink" viewBox="0 0 300 300"><defs><style>.cls-1{fill:none;}.cls-2{clip-path:url(#clip-path);}.cls-3{fill:#ffac00;}.cls-3,.cls-4,.cls-7{fill-rule:evenodd;}.cls-4{fill:#e29814;}.cls-5{opacity:0.5;}.cls-6{clip-path:url(#clip-path-2);}.cls-7{fill:#fff;}.cls-8{clip-path:url(#clip-path-3);}</style><clipPath id="clip-path"><path class="cls-1" d="M123.14,127.9l2.65,21.91-.24,0q-1.58-.36-9.75-4.6a94.45,94.45,0,0,1-14.33-9A86.09,86.09,0,0,1,93.05,129l-1-1.1H89.5v48.25H168V127.9Z"/></clipPath><clipPath id="clip-path-2"><rect class="cls-1" x="143.8" y="146.96" width="4.8" height="9.49"/></clipPath><clipPath id="clip-path-3"><rect class="cls-1" x="94.3" y="139.19" width="15.05" height="12.91"/></clipPath></defs><title>Plan de travail 44</title><g id="objet04"><g class="cls-2"><path class="cls-3" d="M164.3,143.93a3.27,3.27,0,0,1,.2,1.27q0,.08-.45,6.1l-6.48,1.27a4.68,4.68,0,0,0,.28,5c3,.63,4.88,1,5.57,1.25a42.75,42.75,0,0,1-1.35,7c0,.37,0,.77,0,1.22a1.8,1.8,0,0,1-.57,1.5h-4.68v.1a82.15,82.15,0,0,0-10.1,2.45l-.5.15q-3.09-.19-4.1-5.25a33,33,0,0,1-.45-6.3,45.57,45.57,0,0,1,.6-8.3,33.89,33.89,0,0,1,.9-4.15,6.51,6.51,0,0,1,1.75-2.1,1.87,1.87,0,0,1,.9-.5H146a.33.33,0,0,1,.15.05l.13-.05h4.5a86.4,86.4,0,0,0,9-2l1.45-.4c2.1,0,3.15.5,3.15,1.6a.85.85,0,0,1,0,.18"/><path class="cls-4" d="M160.85,145.15q-4.09,8.29-3.15,13.25a9,9,0,0,0,1,2.75c.7,1.67,1.12,2.67,1.25,3l0,.3c.13,0,.1.08-.1.15-.7.13-1.63-1-2.8-3.35s-1.55-3.47-1.55-3.5a16.53,16.53,0,0,1,.85-7.3c1.07-3.6,2.58-5.37,4.55-5.3"/><path class="cls-4" d="M161.25,144a2.13,2.13,0,0,1-.3,1,1.46,1.46,0,0,1-.9.85l-.05-.2a13.33,13.33,0,0,0,1.05-2.75h0a4.59,4.59,0,0,1,.15,1.1M159.4,164.1c.4.73.62,1.13.65,1.2a2.57,2.57,0,0,1,.15.9v.65a7.46,7.46,0,0,0-.35.7h.3a.47.47,0,0,1-.35.5c-.3.07-1.83.17-4.6.3l-.25,0,.85-.18c1.71-.33,2.93-.54,3.67-.62a2,2,0,0,0,.38-1.38,3.18,3.18,0,0,0-.2-1c-.13-.43-.25-.78-.35-1.05Zm-13.15,3.35a13.43,13.43,0,0,0,3.05.8c1.34.26,2.41.48,3.2.68l.38-.1a13.56,13.56,0,0,1-1.63-.28,15.6,15.6,0,0,0-1.9-.5c-.2,0-.3-.1-.3-.2a3.83,3.83,0,0,1,2.3.2,13.55,13.55,0,0,0,4.9.4l.3.05a.84.84,0,0,1-.3.25,4.09,4.09,0,0,1-1.5.2,13.85,13.85,0,0,1-1.7-.1l-.33.13c.34.08.61.15.83.22a4.17,4.17,0,0,0-1,.25,6.14,6.14,0,0,1-1.33.2c-.51.25-.92.44-1.22.55a29.54,29.54,0,0,1-3.1,1h-1l-.55-.3a9.56,9.56,0,0,0,3.5-.55c.41-.17.94-.4,1.6-.7a7.61,7.61,0,0,1-2.7-.7,4.84,4.84,0,0,1-1.65-1.2Z"/><g class="cls-5"><g class="cls-6"><path class="cls-7" d="M145.05,154.4c.77,0,1.15.33,1.15,1a1.08,1.08,0,0,1-.3.7,1.05,1.05,0,0,1-.75.35,1.19,1.19,0,0,1-1-.45.91.91,0,0,1-.3-.65c0-.6.4-.92,1.2-.95m2.35-3.75q-1.25,1.95-2,1.95a1.48,1.48,0,0,1-1.45-.8,2,2,0,0,1-.2-.9c0-1.23.8-2.35,2.4-3.35s2.4-.73,2.4.8a6.59,6.59,0,0,1-1.2,2.3"/></g></g><path class="cls-3" d="M118.1,140.75a3.3,3.3,0,0,1,.55.9,6.41,6.41,0,0,1,.45,2.7,32.53,32.53,0,0,1-1.3,4.05,46.86,46.86,0,0,1-3.65,7.5,29.11,29.11,0,0,1-3.55,5.2q-3.34,3.9-6.15,2.5a1.93,1.93,0,0,0-.35-.35,82,82,0,0,0-7.5-7.2l.05-.1-4.1-2.35a1.76,1.76,0,0,1,.3-1.55c.2-.37.4-.7.6-1a33.59,33.59,0,0,1,1.38-4.45,30.78,30.78,0,0,1,4.87,1.65q4.2-3.7,4.25-6.4-3.15-2.81-5-4.35c1.73-3.63,2.62-5.47,2.65-5.5a3.22,3.22,0,0,1,.8-1,1.08,1.08,0,0,0,0-.2c.57-1,1.73-.9,3.5.2.37.33.73.68,1.1,1.05a80.52,80.52,0,0,0,6.75,6.25l3.9,2.25a.16.16,0,0,1,0,.1.3.3,0,0,1,.2,0,.16.16,0,0,0,.1.05"/><path class="cls-4" d="M99.5,158.05l.8.25-.2-.3a9.61,9.61,0,0,1-1.55-.75,3.82,3.82,0,0,1-1.2-.9.85.85,0,0,1-.1-.4l.25.15a14.32,14.32,0,0,0,4.45,2.1,3.82,3.82,0,0,1,2.1,1c0,.1-.15.12-.35,0a9.41,9.41,0,0,0-1.9-.55,10.08,10.08,0,0,1-1.55-.52.39.39,0,0,1,.25.27c.8.23,1.85.57,3.15,1a15.35,15.35,0,0,0,3,.8v.35a4.26,4.26,0,0,1-2.05.2A7.25,7.25,0,0,1,102,160l1,1.4a10.51,10.51,0,0,0,2.8,2.25h-.65l-.9-.55a23.36,23.36,0,0,1-2.15-2.4,7.35,7.35,0,0,1-.85-1.1l-1-.8a4.77,4.77,0,0,0-.65-.75m-2.45-7.25-.85.7a3.92,3.92,0,0,0-.65.85,2.16,2.16,0,0,0-.4,1.4,36.66,36.66,0,0,1,2.9,2.35c.23.2.45.4.65.6a1.48,1.48,0,0,0-.25-.15q-3.45-2.3-3.8-2.55a.53.53,0,0,1-.05-.65,1.53,1.53,0,0,0,.25.15,2.16,2.16,0,0,0,.05-.75,6.34,6.34,0,0,1,.35-.55,3.47,3.47,0,0,1,.55-.75c.07,0,.47-.27,1.2-.7Zm8.15-17.4a2.89,2.89,0,0,1,.25-1.05,6.22,6.22,0,0,1,.65-.85h.05a13.43,13.43,0,0,0-.45,2.95l-.15.1a1.34,1.34,0,0,1-.35-1.15"/><path class="cls-4" d="M105.2,133.6q2.6,1.4,1.25,6.9a15.39,15.39,0,0,1-2.9,6.7s-1,.8-3.1,2.3-3.52,1.93-4,1.5c-.13-.17-.15-.23-.05-.2l.1-.3,2.6-1.95a8.59,8.59,0,0,0,2.25-1.9q3.3-3.79,3.9-13.05"/><g class="cls-5"><g class="cls-8"><path class="cls-7" d="M109.35,141.2a5.16,5.16,0,0,1-1.1,2.3,6.15,6.15,0,0,1-2.65,2.35.47.47,0,0,1-.25-.25,3.45,3.45,0,0,1,0-.75,6.44,6.44,0,0,1,2-4.95c1.33-1.27,2-.83,2,1.3m-6.2,6.4a2.83,2.83,0,0,1-.15-.9c0-.7.37-1,1.1-.95a1.14,1.14,0,0,1,1.05,1.3q0,1.35-1.05,1.35c-.43,0-.75-.27-.95-.8m-7.6.45a2.12,2.12,0,0,1,1,1.8,2.74,2.74,0,0,1-.4,1.05,3.65,3.65,0,0,1-.9,1.2,2.3,2.3,0,0,1-1-1.5,3.14,3.14,0,0,1,1.25-2.55"/></g></g></g></g></svg>