<svg xmlns="http://www.w3.org/2000/svg" viewBox="0 0 300 300"><defs><style>.cls-1{fill:#edeeef;}.cls-1,.cls-2,.cls-3{fill-rule:evenodd;}.cls-2{fill:#c6d2db;}.cls-3{fill:#b2cad8;}</style></defs><title>Plan de travail 36</title><g id="objet03"><path class="cls-1" d="M107.65,80.9Q119.5,83.35,145.9,92a216.74,216.74,0,0,1,21.3,8.4q2.19,1,4.08,2c-.22.91-.41,1.91-.58,3,0,.31-.11.66-.17,1h0a2.06,2.06,0,0,1,.6,1.25,2.19,2.19,0,0,1-.8,1.7,2.48,2.48,0,0,1-.3.25l.08,0a.42.42,0,0,0,0,.12c-.29,1.53-.56,3-.8,4.3q-3.36-.93-7.95-2.3l-18.1-5.35q-6.55-1.55-18.5-3.75-13.55-2.52-27.07-4.55c-1.6-3.46-2.47-5.43-2.63-5.9-.22-.62-.46-1.33-.72-2.12.11-.31.27-.46.47-.48a27.16,27.16,0,0,1,3,.4c1.93-2,2.82-3.78,2.65-5.45a4.83,4.83,0,0,1,.2-1.95l-.13,0L102.55,81l1-.82c1.2.16,2.55.41,4.05.72"/><path class="cls-2" d="M164.85,104.75q.41.3-.45.3T145.5,99.6q-19-5.89-21.75-6.7c.13-.07.2-.15.2-.25q15.15,3.6,21.35,5.25A135.18,135.18,0,0,1,165,104.5Zm0,2.85q-9.85-2.85-25.8-6-22.05-4.39-29-6a236.36,236.36,0,0,1,28.4,4.05,252,252,0,0,1,26.35,7.7Zm-52.4-16.45q-5.3-1.8-10.25-3.7a48,48,0,0,1,10.15,2.25q6.34,2,8.4,3.45c.1.07-.15.1-.75.1q-1.25,0-7.55-2.1m-3.55,1.3a57.19,57.19,0,0,1-6.35-.55c-3.67-.43-5.78-.92-6.35-1.45L96,90.2a62.63,62.63,0,0,1,8.15.75,61.74,61.74,0,0,1,6.9,1.3,6.11,6.11,0,0,1-2.15.2"/><path class="cls-3" d="M172.75,105.05a25.69,25.69,0,0,1-2.7.7c-.37.47-.55.4-.55-.2,0-.33.38-.55,1.15-.65a10.4,10.4,0,0,1,1.3-.15l.4.1c.23.07.37.13.4.2m-2.65,5.85a1.24,1.24,0,0,0-.6-.25l-.1-.5c.3-.13.88.08,1.75.65.3.13.17.2-.4.2a1.32,1.32,0,0,1-.65-.1m-26.25-10.2a.94.94,0,0,1-.45.3c-.23.1-.4.1-.5,0a1.41,1.41,0,0,1,.65-.35,1.53,1.53,0,0,1,.3,0m15-4.75c0,.2-.18.48-.55.85a2,2,0,0,1-1.05.6,2.09,2.09,0,0,1,.45-.9,3.38,3.38,0,0,1,1-.9l.1-.15c.07,0,.1.13.1.5m2.55,1.55A10.58,10.58,0,0,1,160.05,99c-.1.27-.15.1-.15-.5,0-.2.37-.67,1.1-1.4s1.28-1.1,1.55-1.1a9.53,9.53,0,0,1-1.15,1.55M132.05,96l-.05-.1c-.07.33-.1.22-.1-.35a1.73,1.73,0,0,1,0-.6v0a11.21,11.21,0,0,1,1.55.1l.15.55a.61.61,0,0,1-.15.3,1.63,1.63,0,0,1-.75.1,3.08,3.08,0,0,1-.7,0m-.15,5.25c.07.07.1.3.1.7a5.71,5.71,0,0,1-1.15,1.75,2.06,2.06,0,0,1-.5-.3,1.19,1.19,0,0,1-.15-.75,1.54,1.54,0,0,1,.6-1.1,4,4,0,0,1,.8-.5.75.75,0,0,0,.3.2m-2.35.15a.85.85,0,0,0-.7.4l-.2-.2a1.47,1.47,0,0,1,.9-1ZM140.5,99.1a1.27,1.27,0,0,1,1.2-.45,1.19,1.19,0,0,1-1,.7Zm-30.45.35-1,1h-.2a3.53,3.53,0,0,0,.6-1.1c.17-.27.38-.25.65,0m-4.4,1.9a4.23,4.23,0,0,1,.95-1.35,4.71,4.71,0,0,1,1.4-1.1,6.14,6.14,0,0,1-.8,1.45c-.47.73-.75,1.2-.85,1.4a1.57,1.57,0,0,1-.7-.4m-6.2-18.9a5,5,0,0,1,1.4,1.1c.23.3.58.73,1.05,1.3l-.1.25-1.3-1a6.48,6.48,0,0,1-1.3-1.35c.17-.1.25-.18.25-.25m.3,3a2.53,2.53,0,0,1,1.5.9c0,.17-.12.27-.35.3-1.43-.47-2.13-.88-2.1-1.25a6.24,6.24,0,0,1,1,0M95,95.3l-.15-.5a5.22,5.22,0,0,1,1.2-.55A3.08,3.08,0,0,1,96.9,94l.15.3a3.07,3.07,0,0,1-2,1"/></g></svg>