<svg xmlns="http://www.w3.org/2000/svg" viewBox="0 0 300 300"><defs><style>.cls-1{fill:#936c3a;fill-rule:evenodd;}</style></defs><title>Plan de travail 45</title><g id="objet04"><path class="cls-1" d="M136.35,115.65a17.89,17.89,0,0,1,7.55,1.4,29.88,29.88,0,0,1,2.6,1.65,8.32,8.32,0,0,1,1.95,2c.2.33.58,1.07,1.15,2.2a14.44,14.44,0,0,1,1.45,4.45c0,.4,0,1.7,0,3.9q0,3-.7,10,0,4.95,2.5,7.7c.83.93,1.67,1.83,2.5,2.7a.49.49,0,0,0,0,.2q-4.5.25-7.65-4.12a15.94,15.94,0,0,0,.8,3.42l-.1.1c-.7-.33-1.27-1.55-1.7-3.65a21.91,21.91,0,0,1-.5-3.45q-.8-6.8-.8-7.2a29.68,29.68,0,0,0-2-10.7q-2.5-6.26-6.95-5h-6.5a47.79,47.79,0,0,1-6.65.4l-2.18.08a1.45,1.45,0,0,1-.37-.41c.09-.36.15-.62.2-.77.28-.66.52-1.25.73-1.77a20.07,20.07,0,0,1,5.32-1.58c2.33-.43,5.42-1,9.25-1.55m-41.2,6.4q0-10.39,12.1-8.5a31.43,31.43,0,0,1,8.3,2.55,33.78,33.78,0,0,1,4.15,2.4l-.5,1.35c-.12.28-.27.69-.45,1.22a3.22,3.22,0,0,1-1.45.33,21.9,21.9,0,0,1-4.8-.5,20.92,20.92,0,0,0-4.6-.5q-5.36,0-6.87,5.2.1,3.47.52,7.3.56,5.06.55,7.15a21.12,21.12,0,0,1-.55,5.35,12.77,12.77,0,0,1-2.8,5.25l-.15-.15a27.07,27.07,0,0,0,1.35-4.65l.15-.65a18.17,18.17,0,0,1-1.25,2.05,9.36,9.36,0,0,1-4.1,3.68,6,6,0,0,1-4.25,1.72,1,1,0,0,1-.85-.35q3.41-2.1,5.45-7.85a26.29,26.29,0,0,0,1.65-8.65q0-.56-.8-6.85t-.8-6.9"/></g></svg>