<svg xmlns="http://www.w3.org/2000/svg" viewBox="0 0 300 300"><defs><style>.cls-1{fill:#936c3a;}.cls-1,.cls-2,.cls-3,.cls-4,.cls-5,.cls-6{fill-rule:evenodd;}.cls-2{fill:#a3481f;}.cls-3{fill:#fff;}.cls-4{fill:#9fad6c;}.cls-5{fill:#ad8151;}.cls-6{fill:#755028;}</style></defs><title>Plan de travail 42</title><g id="objet04"><path class="cls-1" d="M141.75,119.5q11.85.15,12.75,4a54.58,54.58,0,0,1,1.75,11.4v3.3a49.84,49.84,0,0,1-.65,6.4q-1.65,9-6.85,9a5.42,5.42,0,0,1-2.15-.4c-.53-.33-.87-.53-1-.6.1.83-.58,1.72-2,2.65a10.1,10.1,0,0,1-5.5,1.55,6,6,0,0,1-3.25-1.05,6.64,6.64,0,0,1-1.65-1.35,21.24,21.24,0,0,1-5.7,3.2,23.41,23.41,0,0,1-8.75,1.7q-5.7,0-7.85-2.45a16.79,16.79,0,0,0-1.35-2.75,11.76,11.76,0,0,1-2.2,1.25,7.5,7.5,0,0,1-2.65,1,2.4,2.4,0,0,1-2.4-2c-.17-1.33-.25-2-.25-2.05,0-.77.08-2,.25-3.6a25.93,25.93,0,0,1,.35-3.05l.05-.15c-1.17.63-1.88,1-2.15,1.1a8.1,8.1,0,0,1-3.2.8,4.22,4.22,0,0,1-4.25-2.8l-.55-2.8a13.3,13.3,0,0,1,.15-2.55q.41-1.25.9-3.15c-1.6.5-2.62.13-3-1.1-.17-1.37-.25-2.1-.25-2.2A9.21,9.21,0,0,1,91,129a22.09,22.09,0,0,1,2.85-4.2A42.53,42.53,0,0,0,97,120.45q2-1.55,9-1.55l15.65.5q9.71,0,13.6-.85,1.25-.26,6.5,1"/><path class="cls-2" d="M136.83,119.93q9.19-1.25,10.72-1.25a4.66,4.66,0,0,1,2.83.95q1.29.93,2.3,4.32t-1.48,8.55a20.63,20.63,0,0,1-3.3,3.7,32,32,0,0,1-6.85,4.85,26.22,26.22,0,0,1-11.75,2.85,48.88,48.88,0,0,1-8.55-.8c-2-.63-3.65-1.12-4.85-1.45-1.47-.43-3.1-1-4.9-1.75-.85-.35-2.16-.92-3.92-1.7a14.64,14.64,0,0,0,.52-1.95c.4-2.43.65-4.12.75-5.05s.1-2.25.1-4.35a36,36,0,0,0-1-8.55s0,0,0,0l3.07.75a83.89,83.89,0,0,0,11.5,1.8h4q1.67.36,10.88-.87"/><path class="cls-3" d="M139,120.1a1.87,1.87,0,0,1-.12-.25l-1.16.15a72.79,72.79,0,0,1-9.22.55,98.09,98.09,0,0,1-12.6-.9q-4.19-.53-8-1.3l-1-.2,0,0q-2,3.15-2,4a1.35,1.35,0,0,0,.35,1q.56.75,7.37,2.2A56.29,56.29,0,0,0,124,126.9h4.25a1.48,1.48,0,0,1,1.4-.75,1.6,1.6,0,0,1,1.35.47,25.43,25.43,0,0,0,6.85-1.52,3.08,3.08,0,0,0,1.9-3,5.15,5.15,0,0,0-.75-2"/><path class="cls-3" d="M131.05,137.55c-.26-1.7-.66-2.43-1.18-2.2a2.38,2.38,0,0,0-1.2,1.33c-.29.67-.46,1.07-.52,1.19a7.58,7.58,0,0,1-1.9.18,38.5,38.5,0,0,1-8.25-1L114,136a19,19,0,0,1-3.15-.8,25.41,25.41,0,0,1-3.1-1.25,5.84,5.84,0,0,0-.93-2.47c-.5-.79-1.06-.34-1.7,1.34a10.26,10.26,0,0,0-.7,3.93c.41.28.83.54,1.25.8a81.9,81.9,0,0,0,12.7,4.23,64.21,64.21,0,0,0,11.8,1.9l.43,0c.35-.32.56-1.51.65-3.6a17.26,17.26,0,0,0-.2-2.55"/><path class="cls-4" d="M142.15,118.45c2-.25,3.84-.43,5.65-.52s3.24.82,4.28,2.75a12.6,12.6,0,0,1,1.62,5.42,9,9,0,0,1-1.23,4.83,37.09,37.09,0,0,1-4.92,6.17,39,39,0,0,1-8,5.68q-4.08,2.13-11.33,2.12-6.3,0-16-3.75-9.15-3.51-9.9-6.35c.54.27,1.24.6,2.08,1,2.71,1.21,5.82,2.41,9.32,3.57a53.7,53.7,0,0,0,6.7,2.1,40.72,40.72,0,0,0,10.1,1.65q7.35,0,14.8-6.35,6.49-5.59,6.5-8.85,0-7.05-3.8-7.9a15.15,15.15,0,0,0-5.8.2q-5.49.66-11.35,1.13a73.31,73.31,0,0,1-11.38,0h-.12a84.18,84.18,0,0,1-11-1.95q-4.45-1.22-6.18-3.17c.66.24,1.89.6,3.71,1.07a99.83,99.83,0,0,0,12.45,2.33,56.26,56.26,0,0,0,12.72.22c1.54-.23,3.28-.46,5.23-.67s3.91-.47,5.87-.73"/><path class="cls-5" d="M138.92,117q3.26-.58,5.58-1.2,12.15-3.19,12.15,1.4c0,.4-.05.57-.15.5,0,.17-.17.25-.6.25s-.63-.27-1-.4a5.43,5.43,0,0,0-.68-.22,19.15,19.15,0,0,1,3,2.07q5.06,4.2,5.05,6.35a2.12,2.12,0,0,1-1.4,2,16.53,16.53,0,0,1-5.35,1.1h-8a96.51,96.51,0,0,1-15.6-3.65,58,58,0,0,1-9.53-4.27,71.22,71.22,0,0,1-6.77,3.32,24.79,24.79,0,0,1-9.35,1.7q-7.6,0-12.6-2.65Q89.4,121,89.4,118.4c0-.67.63-1.23,1.9-1.7.65-.23,1.27-.47,1.85-.72a11.16,11.16,0,0,1-2.4-.33q3.56-3.75,11.6-3.4a17.28,17.28,0,0,1,7.72,1.7l4.58,2A52.11,52.11,0,0,0,129.32,118l1.43-.18q2.87-.37,8.17-.9"/><path class="cls-6" d="M101.4,129.75a6.32,6.32,0,0,1-1.8.9c-.33-.23-.52-.4-.55-.5.83-1.1,1.62-1.23,2.35-.4M100.2,132a2,2,0,0,1,1.6.15,8.53,8.53,0,0,1-2,1c-.23.23-.35.15-.35-.25s.27-.73.8-.9m-5.8,9.65-.55.55a1.72,1.72,0,0,1-1,.3,1,1,0,0,1-.8-.3,2,2,0,0,1,1-.7,2.76,2.76,0,0,1,1.25-.1ZM92,146a3.72,3.72,0,0,1,1.35-1.65,4.69,4.69,0,0,1,1.4-.9c.5.2.75.38.75.55a11.81,11.81,0,0,1-1.35,1.2,5.84,5.84,0,0,1-1.6,1A1.2,1.2,0,0,1,92,146m28.65,10v.4a4.07,4.07,0,0,1-.6,1.5c-.17.07-.27,0-.3-.1a9.24,9.24,0,0,0,.4-1.9h.35c.07.07.12.1.15.1m-3.5,2.3a1.19,1.19,0,0,1-.15-.5,2.93,2.93,0,0,1,.25-.95,3.43,3.43,0,0,0,.25-1.05c.6-.27.9.07.9,1a2.41,2.41,0,0,1-.35,1.05c-.27.47-.45.77-.55.9-.1,0-.22-.18-.35-.45m38.75-16.95.2.15a.47.47,0,0,1,.25.25,1.26,1.26,0,0,1-.9.25,1.56,1.56,0,0,1-.5-.05,1.29,1.29,0,0,0-.3-.2l-.05-.15a4.15,4.15,0,0,1,1.3-.25m1.35,3.75v.15a1.2,1.2,0,0,1-.95.35,4,4,0,0,1-1.85-.5c-.53-.3-.8-.55-.8-.75a1.8,1.8,0,0,0,.1-.6,9.08,9.08,0,0,1,1.65.5,7.64,7.64,0,0,1,1.85.85"/></g></svg>