<svg xmlns="http://www.w3.org/2000/svg" xmlns:xlink="http://www.w3.org/1999/xlink" viewBox="0 0 300 300"><defs><style>.cls-1{fill:none;}.cls-2{opacity:0.5;}.cls-3{clip-path:url(#clip-path);}.cls-4{fill:#c5e3ea;}.cls-4,.cls-5{fill-rule:evenodd;}.cls-5{fill:#bae5f4;}</style><clipPath id="clip-path"><rect class="cls-1" x="181.75" y="47.44" width="19.9" height="62.06"/></clipPath></defs><title>Plan de travail 39</title><g id="objet03"><g class="cls-2"><g class="cls-3"><path class="cls-4" d="M186.15,50.45a1.38,1.38,0,0,1-.45-.45,1,1,0,0,1-.2-.5c0-1.23,1.22-1.92,3.65-2s3.65.77,3.65,2.7q0,1.8-2.25,4.15c-1.53,1.53-2.3,2.75-2.3,3.65s.7,1.55,2.1,2.25c.83.4,2.37,1,4.6,1.95q6.7,3,6.7,8.35a11.86,11.86,0,0,1-1.6,6.5q-2.6,3.9-9.25,5l-.45.25c-.81.75.73.68,4.6-.2q4.45.34,5.1,4.4a14.91,14.91,0,0,1-.4,7.15,8.16,8.16,0,0,0,.4,6.35,1.74,1.74,0,0,0-.4.3,5,5,0,0,0-1,0q-4.45.7-4.45,8.4,0,.11.15.9a7.75,7.75,0,0,1-.85-2.15c-.23-1-.57-3.32-1-7q-1.25-10.24-4.75-10.25a5.57,5.57,0,0,1-5-2.35,5.08,5.08,0,0,1-1.1-3q0-4,3.35-5.37t2.93-3a19.78,19.78,0,0,0-2.83-5.22,13.67,13.67,0,0,1-2.45-7.78,17,17,0,0,1,2.65-9,2.92,2.92,0,0,1,.25-.4c-.2-.2-.3-.33-.3-.4a5.75,5.75,0,0,1,.8-3.15"/></g></g><path class="cls-5" d="M130.5,72.4q6.65-3.34,9.8-4.7,19.84-8.51,43-20.65c1.37-.73,2.65-1.4,3.85-2q4.24-2.8-13,60.75-5.2-4.55-7.75-6.75-9.64-8.25-12.9-10.8-.45-.34-14.05-9.85-2.15-1.5-9-6"/></g></svg>