<svg xmlns="http://www.w3.org/2000/svg" viewBox="0 0 300 300"><defs><style>.cls-1{fill:#e09e34;}.cls-1,.cls-2,.cls-3{fill-rule:evenodd;}.cls-2{fill:#c98a2f;}.cls-3{fill:#f2b446;}</style></defs><title>Plan de travail 13</title><g id="objet01"><path class="cls-1" d="M70.5,88a3.13,3.13,0,0,0-2.2-2.17,22,22,0,0,0-6.95-1.1,27.06,27.06,0,0,0-9.8,1.52c-3.41,1.14-5.15,2.4-5.2,3.78,0-1,0-1.5,0-1.55a251,251,0,0,0-.28-31.88c-.29-4.07-.64-7.71-1-10.92a46.85,46.85,0,0,1,7.5-2.35,39.66,39.66,0,0,1,5.69-.88c.95-.07,1.89-.1,2.83-.1a35.26,35.26,0,0,1,6.05.48Q68.63,53.9,69.6,68.7q.54,8.08.92,19.23Z"/><path class="cls-2" d="M70.5,88s0,.08,0,.18c-.35.91-1.35,1.61-3,2.1A4.23,4.23,0,0,0,67,90c-1.17-.57-2.25-1-3.25-1.4a13.31,13.31,0,0,0-5-1.15,1.79,1.79,0,0,0-1.9,1,3.77,3.77,0,0,0-.15,1.3c0,.3,0,.71.07,1.23a20.76,20.76,0,0,0-4.87.8c-.77,0-1.27,0-1.5-.08a8.14,8.14,0,0,1-4-1.7V90c0-1.38,1.79-2.64,5.2-3.78a27.06,27.06,0,0,1,9.8-1.52,22,22,0,0,1,6.95,1.1A3.13,3.13,0,0,1,70.5,88"/><path class="cls-3" d="M51.4,20.55q6.6,0,7.05,10.7,0,1.45-.15,8.65c0,.92,0,1.75,0,2.5a39.58,39.58,0,0,0-5.7.88A36.61,36.61,0,0,0,50,34.6c-2-4.53-3-7.32-3-8.35a6.4,6.4,0,0,1,1.2-3.95,3.91,3.91,0,0,1,3.25-1.75"/><path class="cls-3" d="M54.2,113.38A19.75,19.75,0,0,0,61.4,112a8.24,8.24,0,0,0,1.05.75c.07.76.1,1.42.1,2a23.75,23.75,0,0,1-.3,5.15c-.33,1-1.3,1.45-2.9,1.45-2,0-3.38-.38-4.15-1.15s-1.2-2.28-1.2-4.45a22.35,22.35,0,0,1,.2-2.37"/></g></svg>