<svg xmlns="http://www.w3.org/2000/svg" xmlns:xlink="http://www.w3.org/1999/xlink" viewBox="0 0 300 300"><defs><style>.cls-1{fill:none;}.cls-2{fill:#685a47;}.cls-2,.cls-5{fill-rule:evenodd;}.cls-3{opacity:0.5;}.cls-4{clip-path:url(#clip-path);}.cls-5{fill:#493c2d;}</style><clipPath id="clip-path"><rect class="cls-1" x="117.9" y="50.95" width="80" height="55.7"/></clipPath></defs><title>Plan de travail 46</title><g id="objet04"><path class="cls-2" d="M102.7,72.85a9.35,9.35,0,0,1,.4-3.35q.95-3.1,3.8-3.1a3.08,3.08,0,0,1,2.55.95,11.4,11.4,0,0,1,.75,1.3q.9-5,5.25-11.2a44.46,44.46,0,0,1,9.2-9.85q5.4-4.1,8.75-3.2,2.79.72,3.57,4.8l.63-.7q2.51-2.8,4.45-2.8t2.1,1.5a4.63,4.63,0,0,1-.2,1.85q7.76-7.15,11.1-5.2,2.13,1.24,2.37,5.75A15.73,15.73,0,0,1,160,46.7a24.66,24.66,0,0,1,8.3-4.9q5-1.75,8.3-.6c2.5.87,3.75,2.93,3.75,6.2a12.25,12.25,0,0,1-2.75,8.13c2.63-1.38,3.95-1.13,3.95.72a2.54,2.54,0,0,1-.23,1,21.76,21.76,0,0,1,7.13-.5,17.83,17.83,0,0,1,7.9,2.3,6.78,6.78,0,0,1,3.6,6,6.42,6.42,0,0,1-1.45,4.25l-.18.23.38.32q5.81,5.15,5.8,11.1a11.94,11.94,0,0,1-.55,4.55q-1.65,3.3-7.75,3.3a22.39,22.39,0,0,1-7.9-1.25c0,.31.05.63.05,1a13.05,13.05,0,0,1-1.4,6.25q-2.44,4.6-8.6,4.6a17,17,0,0,1-5.45-.77,4.57,4.57,0,0,1,.1,1,2.53,2.53,0,0,1-.85,2,14.46,14.46,0,0,1-3.6,1.8,5.8,5.8,0,0,1,.85,2,14,14,0,0,1,.05,1.65c0,.1-.28,1.43-.85,4-1.13,2.33-3.08,3.07-5.85,2.2,0,.17-.11.59-.2,1.25,0,.42.05.89.05,1.4q0,.26-1.15,7.35a2.25,2.25,0,0,0-.05.22c0,.13,0,.25,0,.38-.08.65-.17,1.29-.28,1.9q-2-1.62-4.1-3.12a28.47,28.47,0,0,0,1.38-8.78,64.88,64.88,0,0,0-1.08-13.3,9,9,0,0,1,2.55-2.37,28.63,28.63,0,0,0-2.47-6q-3-5.44-6.75-5.45-4.25,0-15.4,2.55T122.6,91.75q-4.8,0-6.7-4l-1-3.9a10.52,10.52,0,0,1,.33-2.52Q115,81,114.8,81c-.57,0-1.22.72-2,2.15s-2.1,2.15-4.1,2.15a3.74,3.74,0,0,1-1.53-.27q-2.67-.59-3.87-6c-.43-4.07-.65-6.13-.65-6.2m55.1,57.65c-1.05-.95-2.07-1.88-3.08-2.77.07-.11.12-.22.18-.33.24-.47.48-.93.7-1.4l4.42,4c-.2.68-.43,1.32-.67,2-.54-.51-1.06-1-1.55-1.43m-3.73-1.45c1.15,1.11,2.24,2.18,3.28,3.23a2.24,2.24,0,0,1-.55.32l-2.67-2.5a4.91,4.91,0,0,1-.08-.55c0-.17,0-.34,0-.5m6.25-.12q-2-1.74-4.37-3.73c.2-.47.38-.93.55-1.4,1.41,1.07,2.82,2.17,4.25,3.3-.13.63-.27,1.24-.43,1.83m-1.94,5.17-.58-.55v-.25c0-.17,0-.34.08-.5l.75.78c-.09.17-.17.34-.25.52"/><g class="cls-3"><g class="cls-4"><path class="cls-5" d="M119.05,73.4a1,1,0,0,1-1.15-1.15v-.5q.1,0,.15-.15a4.46,4.46,0,0,1,1.65,0l.15.75-.1.7c.13.23-.1.35-.7.35M141.2,56.05c.1.07.15.28.15.65,0,.57,0,.85-.1.85a2.84,2.84,0,0,1-.6.35,1.38,1.38,0,0,1-.55-.35,1.08,1.08,0,0,1-.25-.8.8.8,0,0,1,.9-.9,1,1,0,0,0,.45.2M137.65,66.3a8.36,8.36,0,0,1-.75,2.9c-.57,1.43-1.18,2.15-1.85,2.15a3.08,3.08,0,0,1-.7,0,3.63,3.63,0,0,0-.35-.2c-.17.27-.25.12-.25-.45a10.15,10.15,0,0,1,1.05-1.4,6.8,6.8,0,0,0,1.3-2.55v-.15a5.17,5.17,0,0,0-1.9,2.3,7.35,7.35,0,0,1-1.8,2.5l-.6-.15a1.47,1.47,0,0,1-.1-.75c.3-.73.6-1.52.9-2.35a12.07,12.07,0,0,0,.9-3.9,4,4,0,0,0-.15-1.05,3.17,3.17,0,0,1-.2-.7,3.49,3.49,0,0,0-1.9,2.5,5.11,5.11,0,0,1-1.45,2.65s-.5-1.27-1.4-3.7a7.48,7.48,0,0,0-2.9-3.75,44.71,44.71,0,0,0-.45,4.6c0,1-.08,2.62-.15,4.75a3.69,3.69,0,0,1-.65.4,3.26,3.26,0,0,1-.7-1.85c0-.33,0-1.08,0-2.25q0-5,.45-6,1.24-2.8,5.55,4.25a7.38,7.38,0,0,0,1.2-1.65c.6-.8,1.17-1.2,1.7-1.2,1.43,0,2.2.8,2.3,2.4a9.54,9.54,0,0,1-.35,2.75l.05.1a3,3,0,0,1,.8-.9,2.06,2.06,0,0,1,1.1-.45c1,0,1.45.42,1.35,1.25m17.7-2.55a1.11,1.11,0,0,0-.2-.4.39.39,0,0,0-.5-.15c-.23.33-.35.2-.35-.4a5.87,5.87,0,0,1,.85-1.6,5,5,0,0,1,1.1-1.5l.75,0c0,.17,0,.57.1,1.2a2.89,2.89,0,0,1-1.75,2.8m-4.65-3.1a3.84,3.84,0,0,1-.6-1l-.2-.5a3.08,3.08,0,0,1,.15-1.25q.34-.65,1.8-.45v.8a4.39,4.39,0,0,1-.65,2.25,1.18,1.18,0,0,1-.5.15M161.6,76.4c-.13-.07-.2-.3-.2-.7a1,1,0,0,1,.75-1.1,1.59,1.59,0,0,1,.75,1.4,3.22,3.22,0,0,1-.75.6,1.36,1.36,0,0,1-.55-.2m10.7-22.7c-.3,0-.48,0-.55-.1s-.2-.3-.2-.7.57-1.08,1.7-1.95a3.3,3.3,0,0,0,.55.2c.13.1.2.33.2.7,0,.8-.57,1.42-1.7,1.85m4.1,5.2c-.13,0-.2-.25-.2-.65a2,2,0,0,1,.65-1.25,1.47,1.47,0,0,1,1.65-.4l.15.7c-.4,1-.88,1.62-1.45,1.75a2,2,0,0,1-.8-.15m-7.7,19.75h-.2s-.05-.18-.05-.55q0-3.45,3.7-5.35c2.47-1.23,3.7-.62,3.7,1.85a15.1,15.1,0,0,1-.55,2.6,13.63,13.63,0,0,1-.8,2.55V80c.17,0,.58-.17,1.25-.4A4,4,0,0,1,177,79.3a4.09,4.09,0,0,1,1.15.2l.1,0s.05.18.05.55a3.15,3.15,0,0,1-.35,1.4c-.17.3-.5.92-1,1.85,1.13,0,1.7.38,1.7,1.05,0,.47-.43,1.13-1.3,2a4.17,4.17,0,0,1-2.4,1.35l-.9-.2a.48.48,0,0,1-.15-.1V86.9a1.07,1.07,0,0,1,.1-.55l-.4.2a1.93,1.93,0,0,1-1,.3,1.46,1.46,0,0,1-.7-.1l-.1-.1a1.53,1.53,0,0,1-.25-.15c-.07,0-.1-.23-.1-.6a22.79,22.79,0,0,1,2.2-2.05c1.6-1.4,2.5-2.22,2.7-2.45l.1-.15a4.41,4.41,0,0,0-1.9.65,4.81,4.81,0,0,1-1.75.65,2.38,2.38,0,0,1-.65,0v-.1a1.26,1.26,0,0,1-.3-.15,1.73,1.73,0,0,1,0-.6c0-.1.42-1.12,1.25-3.05a18,18,0,0,0,1.55-4.55.49.49,0,0,0,.05-.2c0-.13-.23-.2-.6-.2a4.17,4.17,0,0,0-3.65,2.25,8.32,8.32,0,0,1-1.7,2.75m29.15-1.9a2.09,2.09,0,0,1-1.25.3l-1.55-.2a3.08,3.08,0,0,1-.25-.85,4.17,4.17,0,0,1,2.95-.5s0,.07.1.1.05.17.05.5c0,.6,0,.82-.05.65m-33,28.2s0,.18,0,.55a.9.9,0,0,1-.4.75,1.55,1.55,0,0,1-1.15.4,1.46,1.46,0,0,1-.7-.1.46.46,0,0,0-.25-.3l-.1-.4a2.19,2.19,0,0,1,.8-.85,1.91,1.91,0,0,1,1.65,0Zm-.5-4.5a1.07,1.07,0,0,1-.2-.75c0-.43.47-.77,1.4-1a1.34,1.34,0,0,1,1.8,1.1,2.76,2.76,0,0,1-1.1.5l-1.4.3a2,2,0,0,1-.5-.15"/></g></g></g></svg>