<svg xmlns="http://www.w3.org/2000/svg" xmlns:xlink="http://www.w3.org/1999/xlink" viewBox="0 0 300 300"><defs><style>.cls-1{fill:none;}.cls-2{clip-path:url(#clip-path);}.cls-3{fill:#ffafa5;}.cls-3,.cls-4{fill-rule:evenodd;}.cls-4{fill:#fff;}</style><clipPath id="clip-path"><path class="cls-1" d="M118.6,210.3a10.3,10.3,0,0,0-1.22.52h3.07c-.25-.3-.5-.6-.73-.91l-1.12.39m46.25-53.85a10.09,10.09,0,0,1,2,1.8,3,3,0,0,1-.25,2A37.79,37.79,0,0,0,156,157.3a7.15,7.15,0,0,0-.65,1.25q-.6.38-1.35-.9a31.94,31.94,0,0,0-6.25,4,40.16,40.16,0,0,0-7,7.77c.4,1,.82,2,1.28,3.13a116.29,116.29,0,0,1,4.85,15.85q1.25,9.35,1.5,12.9v5.1l-1.72.1a13.16,13.16,0,0,1-.41,1.67c.46,0,.68.1.63.21a1.52,1.52,0,0,1-.33.42c-.15.13-.21.23-.19.3l1.6,1.67h25.82V180.55l-.24,0c.25.77.26,1.3,0,1.57s-.68.38-1.35.33-1.46-.08-2.4-.08a8.08,8.08,0,0,0-3.8,1,10.34,10.34,0,0,1-2.22.88,2.69,2.69,0,0,1-1.38-.46,3.2,3.2,0,0,1-.65-1.72v-.45c0-.1,0-.18,0-.28a2.33,2.33,0,0,1-1.52-.84c-.38-.54-.54-2.28-.5-5.23a35.7,35.7,0,0,1,.43-6,1.62,1.62,0,0,1,1.8-1.53l3.9.28c1.61.11,3,.22,4.1.32a2.33,2.33,0,0,0,2.42-1.15,11.3,11.3,0,0,0,.42-4.72,6.76,6.76,0,0,0-2.14-5c-1-.88-3.54-1.44-6.76-1.66.31.24.63.47.93.73m-80.1-9.3v63.67h23.57L111,209.1l5.4-3.5c0-.07,0-.17-.1-.3a1.18,1.18,0,0,1-.25-.5c-.06-.18.32-.15,1.11.09a17.22,17.22,0,0,1-.68-3.5c-1.09-.48-2.17-1-3.23-1.54.7-1.37,1.77-3.38,3.2-6a58.11,58.11,0,0,0,4.65-12,98.87,98.87,0,0,0,1.77-13l-6.3-6.9c-1.14-1.24-3.07-3.14-5.77-5.7a56.34,56.34,0,0,0-7.87-6.35l-6.78-2.7Zm24.5,0q6.1,6.14,10.47,10.15s0,0,0-.05a5.73,5.73,0,0,1,.34-1,.7.7,0,0,1,.22-.35,14.54,14.54,0,0,1,6.1-3.24c-.18-1.1-.38-2-.59-2.85l-.24,0a40.52,40.52,0,0,1-5.89-2.63Zm31.58,0a79.07,79.07,0,0,1-9.17,2.63c.05.65.1,1.19.14,1.62q5.22-.89,6.55,0l.1,0c.21,0,.3.16.3.51a.93.93,0,0,1,.05.29,1.42,1.42,0,0,1-.15.55c-.16.85-.38,2.2-.65,4.1a23.8,23.8,0,0,0-.32,4.88,2.37,2.37,0,0,1-.14.85l0,0a2.71,2.71,0,0,1,.29,0,30.5,30.5,0,0,1,4-3.41,77.65,77.65,0,0,1,7.72-4.83,19.33,19.33,0,0,1,7.83-2.5l10.17-.69a1.28,1.28,0,0,1-.65,1.22l-.35.1a25,25,0,0,1,4.95.8,9.29,9.29,0,0,1,2.25,1.26v-7.36Z"/></clipPath></defs><title>Plan de travail 69</title><g id="objet06"><g class="cls-2"><path class="cls-3" d="M91.7,163.89q-3.63-4.2-3.51-7,.27-6.54,7.35-5.9,6,.56,15.41,5.94a87.75,87.75,0,0,1,15.21,11,40.77,40.77,0,0,1,4.75,5,3.76,3.76,0,0,1,.92.59,4.92,4.92,0,0,1,2,4.19,14,14,0,0,1-1.55,4.94,29.46,29.46,0,0,1-4.75,7.06,24.84,24.84,0,0,1-20.42,8.51q-7.48-.32-10.44-2.88A4.47,4.47,0,0,1,95,191.6q.17-4.09,5.84-8.11a23.84,23.84,0,0,1,13.23-4.29c-1.35-.7-2.86-1.52-4.55-2.46Q101,172,98.93,170.5a45.89,45.89,0,0,1-7.23-6.61m72.48-11.46q5.31-.09,5,6.61-.21,5.29-6,12.26A22.78,22.78,0,0,1,151,179.46a27.84,27.84,0,0,1,8.86,7.92,37.05,37.05,0,0,1,4.4,7.14,12.17,12.17,0,0,1,1.47,4.51,11.3,11.3,0,0,1-.84,4.47c-1.19,2.29-3.6,3.35-7.23,3.2q-8.79-.36-16.33-10.58-6.63-9-6.39-15a17.53,17.53,0,0,1,.38-3c0-.08,0-.17,0-.25a14,14,0,0,1,.77-4.12l-.46.38c-.59-.43-.88-.67-.87-.74q.07-2,5.59-7.07a76.12,76.12,0,0,1,12-9.22q7.45-4.59,11.8-4.61"/><path class="cls-4" d="M110,168.1a2.52,2.52,0,0,1-.72,1.58,2.86,2.86,0,0,1-2.34.9,2.15,2.15,0,0,1-2.15-1.24c-.06-.77-.1-1.17-.1-1.21.08-1.83,1-2.59,2.75-2.28s2.61,1.05,2.56,2.25m47.68,1.47a3.51,3.51,0,0,1-3.79,3.25,2.52,2.52,0,0,1-2.3-1.25c-.27-.74-.4-1.13-.4-1.16.08-1.93,1.21-3.06,3.39-3.37s3.18.5,3.1,2.53m-5.07,18.56c3,.69,4.44,2.67,4.31,5.93a4.09,4.09,0,0,1-.79,2.17,3.09,3.09,0,0,1-2.86,1.44,5,5,0,0,1-4.39-2.84,6.16,6.16,0,0,1-1-3,3.61,3.61,0,0,1,4.71-3.71m-41.52.84a3.85,3.85,0,0,1-.74,2.17A3.94,3.94,0,0,1,107,192.4,3.38,3.38,0,0,1,104,191a2.73,2.73,0,0,1-.44-1.52c.1-2.4,1.41-3.68,3.91-3.85s3.72,1,3.62,3.36"/></g></g></svg>