<svg xmlns="http://www.w3.org/2000/svg" viewBox="0 0 300 300"><defs><style>.cls-1{fill:#e0271e;}.cls-1,.cls-2,.cls-3,.cls-4{fill-rule:evenodd;}.cls-2{fill:#b51818;}.cls-3{fill:#efd9bd;}.cls-4{fill:#cc1717;}</style></defs><title>Plan de travail 24</title><g id="objet02"><path class="cls-1" d="M150.33,197.53q-.33-1.68,3.37-2.93a45.46,45.46,0,0,1,7-1.37,95.78,95.78,0,0,1,13.33-.48q8.8.3,12,1.45t2.25,3.33a7.3,7.3,0,0,1-2.13,3q.24,3,.3,4.2c.07,1.37.07,3.25,0,5.65q0,3.14.25,15.4.5,4.59-17,5T152.3,224q.45-13.55.45-19.95a7.54,7.54,0,0,1,.18-1.75,10.42,10.42,0,0,0-1.25-1.8,6.67,6.67,0,0,1-1.35-3"/><path class="cls-2" d="M153.5,196.38a9.07,9.07,0,0,1,1.45-.73l.35-.12.45-.05a3.13,3.13,0,0,1,1.1-.18c.05.38.37.74,1,1.08v0l.12,0a11.06,11.06,0,0,0,2.13.8,32.51,32.51,0,0,0,8.3.9,27.66,27.66,0,0,0,8-.8,4.18,4.18,0,0,0,1.12-.55,1.71,1.71,0,0,0,.93-.65,2,2,0,0,0,.4-1.2,2.35,2.35,0,0,0-.08-.6.57.57,0,0,1,.46.08,9.41,9.41,0,0,1,2.07.1,9.7,9.7,0,0,1,3,.77,1.54,1.54,0,0,1,1.07,1.75q-.21,1.15-4.77,2a81,81,0,0,1-9.2,1.22h-5.2q-13-1.16-13-3a1.25,1.25,0,0,1,.45-.92"/><path class="cls-3" d="M181,173.7a4.33,4.33,0,0,1,2,3.3,55.86,55.86,0,0,1,.7,6.6v7.65a9,9,0,0,0,.15,1.35,5.71,5.71,0,0,1-.13,1.2,7.13,7.13,0,0,0-1.27-.25c-.21,0-.41,0-.6-.05,0-.89,0-1.59-.1-2.1v-7.6l-.6-5.4a4.53,4.53,0,0,0-2.55-3.4l-.32-.18c-.15-.52-.34-1.25-.56-2.2.25,0,.52.1.83.18a8.13,8.13,0,0,1,2.45.9m-22.3-.27a7.91,7.91,0,0,1,1.52-.45c0,.15,0,.31-.07.47-.06.44-.11.88-.15,1.33l-.35.2a5.74,5.74,0,0,0-2.52,2.52,8.18,8.18,0,0,0-.73,2.68c-.07.82-.1,1.67-.1,2.57q0,2.3.28,9.9c.12,3.63.22,6.23.27,7.8a3.78,3.78,0,0,0,1.05.55.89.89,0,0,1,.75.8,1.62,1.62,0,0,1,0,.4c0,.7-.62,1.05-1.85,1.05a2.36,2.36,0,0,1-2.25-1.05,2.19,2.19,0,0,1-.3-1.15,3.52,3.52,0,0,1,.15-1.1v-6.1q-.16-1.36-.27-8t0-7.75c.21-.67.47-1.38.78-2.15s1.58-1.62,3.77-2.47"/><path class="cls-4" d="M152.9,202.7a5.13,5.13,0,0,1-.05-.65.65.65,0,0,1,.2.15c.43.3.82.55,1.15.75a1.58,1.58,0,0,1,.45.85c-.3.07-.73-.15-1.3-.65a3.15,3.15,0,0,1-.45-.45m3.8,1.75.35.25c.13.1.52.08,1.15,0a.49.49,0,0,1,.2.3c-.07.17-.3.25-.7.25-.57,0-.9-.08-1-.25a3.28,3.28,0,0,0-.1-.5Zm.5.15-.2-.3A2.48,2.48,0,0,0,159,203a8.83,8.83,0,0,0,.35-1.45,4.53,4.53,0,0,1,.25.9,2.35,2.35,0,0,1-.4,1.25,1.79,1.79,0,0,1-1.55.95Zm3.15-1.55s0-.08,0-.25.1-.2.3-.4a1.35,1.35,0,0,1,.65-.35s0,0,.05,0,0,.07,0,.2-.28.52-.85.85a.21.21,0,0,1-.15,0m1.3,1a.63.63,0,0,1,.55-.7c.37-.07.55.08.55.45s-.2.75-.6.75a.44.44,0,0,1-.5-.5M156,221.15a1,1,0,0,1-.4.7,1.37,1.37,0,0,1-.6.35c-.2-.07-.3-.18-.3-.35s.13-.32.4-.55a1.54,1.54,0,0,1,.8-.5.75.75,0,0,0,.1.35m-.5,1.1c.17-.27.28-.4.35-.4a.27.27,0,0,1,.3.3.82.82,0,0,1-.2.5.75.75,0,0,1-.4.3l-.3-.15a1.05,1.05,0,0,1,.25-.55m1.3.9a.83.83,0,0,1-.45.65c-.1,0-.15-.13-.15-.4s.13-.65.4-.75a.6.6,0,0,1,.2.5M184.3,199.8a.43.43,0,0,1-.45.3q-.34,0-.45-.45v-.4q0-1.25.45-1.05a1.1,1.1,0,0,1,.45,1.05Zm1.95.8v.1a1,1,0,0,0,.05.3,7.15,7.15,0,0,1-3,1.2c-.17,0-.25,0-.25,0l0-.05a6.21,6.21,0,0,1,2.1-1.1c.4-.17.75-.3,1.05-.4m-3-1-.1.85-.2.15h-.2s-.05-.08-.05-.25a8.5,8.5,0,0,0,.3-1.1h.15a.6.6,0,0,1,.1.35m-2.85,1.5a4.34,4.34,0,0,0,.5-.6.49.49,0,0,0,.2.05.42.42,0,0,1,.05.25.56.56,0,0,1-.45.55Zm-2.55,14.25a2.11,2.11,0,0,1-.7.1s-.05-.07-.05-.3.15-.42.45-.45.3.18.3.35Zm-.3,1.6c0-.17.27-.32.8-.45,0,0,0,.07.1.1s.05.07.05.2c0,.3-.17.45-.5.45h-.4a1,1,0,0,1,0-.3"/></g></svg>