<svg xmlns="http://www.w3.org/2000/svg" viewBox="0 0 300 300"><defs><style>.cls-1{fill:#3f3e3d;}.cls-1,.cls-2,.cls-3,.cls-4{fill-rule:evenodd;}.cls-2{fill:#6d6154;}.cls-3{fill:#514439;}.cls-4{fill:#d7dee2;}</style></defs><title>Plan de travail 70</title><g id="objet06"><path class="cls-1" d="M112.05,244.43h0l-.16,0h-.07l-2,.3a23.5,23.5,0,0,1-3.4.3h-.1l.1-2h.4v.05l.1-.05h2c.79-.12,1.45-.25,2-.37s.85-.16,1.13-.23a7.56,7.56,0,0,0,1.4-.43c0,.32-.09.67-.15,1.08,0,.19,0,.4-.08.65a1.31,1.31,0,0,1-.47.4l-.63.2-.07,0"/><path class="cls-2" d="M102.5,228.7c.83-.27,1.58-.5,2.25-.7-.3-.67-.63-1.45-1-2.35,0-.5,1-1,2.85-1.6a17.33,17.33,0,0,1,5-.85c1.16,0,1.89.23,2.17.7s.21,1.51-.25,3.1a23.14,23.14,0,0,1-2,4.7,4.37,4.37,0,0,0,0,4.48,18.39,18.39,0,0,1,1.85,6c-.12.71-1,1.15-2.75,1.3q-5.5.45-7.15.8c-1.27.43-2.63.83-4.1,1.2a38.31,38.31,0,0,1-8.75,1,40,40,0,0,1-4-.15c-.07-.17-.13-.32-.2-.45-.13-.4-.63-1.57-1.5-3.5.4-.17,1.43-.5,3.1-1a31.54,31.54,0,0,0,6.9-3.3,23,23,0,0,0,2.55-3,13.87,13.87,0,0,0-3.5-2.2,4.48,4.48,0,0,1-2.4-2.05c-.43-.9.43-1.53,2.6-1.9a22,22,0,0,0,6.3-2.2c0,.07.32.73.85,2a1.05,1.05,0,0,0,.15.3v0l1.1-.4"/><path class="cls-3" d="M107.8,227.13c-1.39.35-2.41.64-3.08.85q-.31-.75-.69-1.68l1.52-.65a11.8,11.8,0,0,1,4-1.1,3.4,3.4,0,0,1,1.15.3c.11,0,.33-.4.65-1.2a5.2,5.2,0,0,1,.55.6c.11.17-.19.6-.93,1.3a7,7,0,0,1-3.17,1.58m-7.08.4c.14.31.32.72.53,1.22l.1.25q-2.07.42-4.8.9c-3.24.38-4.48.34-3.72-.1a6.51,6.51,0,0,1,.84-.35l0,.05a.83.83,0,0,0,.75.4,13.88,13.88,0,0,0,4.4-1.45c.75-.34,1.38-.65,1.87-.92"/><path class="cls-4" d="M100.45,238.35c-.3.73-.6,1.1-.9,1.1a9,9,0,0,1-3.25-.7c-1.13-.43-1.7-.77-1.7-1a15.86,15.86,0,0,1,.7-1.6c.47-1.07.8-1.6,1-1.6a6,6,0,0,1,3.6.9,1.82,1.82,0,0,1,.9,1.45,4.73,4.73,0,0,1-.35,1.45"/><path class="cls-2" d="M99.15,237.85a1.2,1.2,0,0,1-1,.3,2.53,2.53,0,0,1-1.85-.5,1.3,1.3,0,0,1-.2-.8c0-.67.42-1,1.25-1a1.84,1.84,0,0,1,1.55.65,1.29,1.29,0,0,1,.3.75,1.33,1.33,0,0,1-.1.6"/><path class="cls-1" d="M148.45,250.75h2.4l-.3,1.8h-.1a21.75,21.75,0,0,1-3.1-.25c-.57-.07-1.18-.17-1.85-.3h-.25a.16.16,0,0,0-.1-.05l-.5-.2a.88.88,0,0,1-.4-.35,2.24,2.24,0,0,0,.1-.65,8.52,8.52,0,0,1,.05-.95c.3.1.7.22,1.2.35l1,.25,1.85.35"/><path class="cls-2" d="M158.3,237.5l.7.3a18.4,18.4,0,0,1,1.4-2.12,17.34,17.34,0,0,0,4.8,1.67q3,.56,2.1,1.8a4.85,4.85,0,0,1-2.28,2.13,14.71,14.71,0,0,0-3.68,2.17,21,21,0,0,0,1.41,2.5,22.45,22.45,0,0,0,5.85,3.1l2.75.95c-1.2,1.83-1.92,2.93-2.15,3.3-.07.13-.15.28-.25.45a36.48,36.48,0,0,1-3.85.15,33.68,33.68,0,0,1-8-1,29.67,29.67,0,0,1-3.65-1.15q-1.5-.3-6.55-.75c-1.6-.17-2.38-.57-2.35-1.2a22.82,22.82,0,0,1,2.9-5.65,4.53,4.53,0,0,0,.8-4.25,18,18,0,0,1-.95-4.4,5,5,0,0,1,.35-3,3,3,0,0,1,2.25-.65,14.66,14.66,0,0,1,4.5.8q2.55.8,2.4,1.5c-.5.87-1,1.6-1.4,2.2.6.2,1.27.43,2,.7l1,.35"/><path class="cls-4" d="M158,247.3q-.41,0-.6-1.05a4,4,0,0,1-.05-1.4,2.17,2.17,0,0,1,1.15-1.35,6.25,6.25,0,0,1,3.55-.85q.25,0,.6,1.5a11.89,11.89,0,0,1,.4,1.5c-.07.23-.67.55-1.8.95a9.3,9.3,0,0,1-3.25.7"/><path class="cls-2" d="M159.55,246.05c-.47,0-.75-.1-.85-.3a1.15,1.15,0,0,1,.05-.55,1.17,1.17,0,0,1,.45-.7,2,2,0,0,1,1.55-.6c.77,0,1.08.32.95.95a1.89,1.89,0,0,1-.3.75,3,3,0,0,1-1.85.45"/><path class="cls-3" d="M156.35,234.85a17.2,17.2,0,0,1-1,1.6c-.57-.2-1.48-.47-2.75-.8a4.89,4.89,0,0,1-2.65-1.5q-.8-1-.6-1.2l.6-.6c.17.77.3,1.15.4,1.15a3.43,3.43,0,0,1,1.1-.3,9.45,9.45,0,0,1,3.6,1.05l1.3.6m5.7,2.58a7.43,7.43,0,0,0,2.73.82c.61,0,.85-.12.72-.35v-.05l.75.3c.6.43,0,.6-1.68.5a28.23,28.23,0,0,1-5.52-.9c.25-.48.52-.94.8-1.38.28.16,1,.52,2.2,1.06"/></g></svg>