<svg xmlns="http://www.w3.org/2000/svg" xmlns:xlink="http://www.w3.org/1999/xlink" viewBox="0 0 300 300"><defs><style>.cls-1{fill:none;}.cls-2{clip-path:url(#clip-path);}.cls-3{opacity:0.5;}.cls-4{clip-path:url(#clip-path-2);}.cls-5{fill:#9fad6c;}.cls-5,.cls-6,.cls-7{fill-rule:evenodd;}.cls-6{fill:#f9d970;}.cls-7{fill:#eac353;}</style><clipPath id="clip-path"><path class="cls-1" d="M116.88,76q-7.57,1.24-10.18,7.18-3.65,8.35-5.6,12.1-6.69,12.8-9.53,18.2c-1.88,3.61-2.85,6-2.89,7.3a10.2,10.2,0,0,0,.22,3c.2.75,1.58,2.5,4.15,5.23a86.09,86.09,0,0,0,8.42,7.15,94.45,94.45,0,0,0,14.33,9q8.17,4.24,9.75,4.6a20,20,0,0,0,4.65.2q3.08-.14,15.6-4.53t14.3-5.95a13.08,13.08,0,0,0,2.92-3.2,16.93,16.93,0,0,0,2.13-4.65q.65-2.34,1.78-10.38a152.88,152.88,0,0,0,1.12-20.52,71.18,71.18,0,0,0-.7-10.65A16.29,16.29,0,0,0,165.5,85c-.54-1.39-2-3.22-4.45-5.5s-7.64-3.76-15.65-4.43c-3-.2-6-.31-9.09-.31A153.77,153.77,0,0,0,116.88,76"/></clipPath><clipPath id="clip-path-2"><rect class="cls-1" x="94.13" y="81.61" width="74.79" height="62.88"/></clipPath></defs><title>Plan de travail 49</title><g id="objet04"><g class="cls-2"><g class="cls-3"><g class="cls-4"><path class="cls-5" d="M94.13,92.77s1.43,12.61,19.26,14.63,32.46-10.59,40-14c0,0,.59,50.41,7.37,51.12,0,0,7.85-56.71,8.21-56.71s-43.64-16.77-74.79,5"/></g></g></g><path class="cls-6" d="M115.75,69.45q12.15,4,18.6,4A31,31,0,0,0,142,72,36.55,36.55,0,0,1,152.3,70.4q5.85,0,8.15,2.85a4.87,4.87,0,0,1,1.25,3.25q0,.33,0,.63a5,5,0,0,1,1.48-.88,8.87,8.87,0,0,1,5.25-.35,9.08,9.08,0,0,1,3.5,2.4,9.49,9.49,0,0,1,1.6,2.7,20.62,20.62,0,0,1,1.75,5.2c0,.2.05,1.73.05,4.6A58.49,58.49,0,0,1,173.9,102a59.43,59.43,0,0,0-1.45,12,30.65,30.65,0,0,0,.3,3.25c.2,1.6.3,2.58.3,3l.15.1a7.36,7.36,0,0,1,1.3-.75,8.15,8.15,0,0,1,1.55-.6h2q2.25.45,2.25,4.8a15,15,0,0,1-.6,3.3v1.2q3.9,0,5.2,1.65a4.51,4.51,0,0,1,.65,2.7,6,6,0,0,1-1.55,3.75,7.59,7.59,0,0,1-.73.78,3.45,3.45,0,0,1,3,1.47,2.36,2.36,0,0,1,.3,1.65,4.29,4.29,0,0,1-1.6,3.35q-2.55,2.21-8.55,2.2a8.66,8.66,0,0,1-4-.65,4.1,4.1,0,0,0-1.6-1c-1.2,1.63-1.93,2.6-2.2,2.9-1.3,1.43-2.47,2.15-3.5,2.15q-6.1,0-8.25-19.15-.65-6-.85-13.2,0-6-.05-6.05-.45-5.3-.4-10.95a54.73,54.73,0,0,1,1.12-12.05,54.79,54.79,0,0,1-9.37,6.8q-14.44,8.55-26.2,8.55-10.8,0-18.05-3.75a26.06,26.06,0,0,1-6.65-5.1,41.35,41.35,0,0,0-10.7-8.25q-4.5-1.91-4.5-2.2t5.85-4.8a77.26,77.26,0,0,1,11.15-7.55,27.42,27.42,0,0,1,6-2.55q4.05-.85,11.5.45"/><path class="cls-7" d="M109.05,76.55q-4.24,0-12.7,3.65Q93.86,81.28,91.72,82l.35.07a32.29,32.29,0,0,1,6.53-.4,19.85,19.85,0,0,1,11.7,4.1,22.36,22.36,0,0,0,13.3,4,23.5,23.5,0,0,0,10.55-3q2-1,9.75-6,5.55-3.49,8.55-4.2A6.29,6.29,0,0,1,159.2,79c-.2.57-.43.88-.7,1,0-.3-.35-.73-.95-1.3a3.12,3.12,0,0,0-2.05-1q-2.55,0-5.65,2.5c-2.53,2.3-4.57,4.12-6.1,5.45q-9.1,7.91-20.15,7.9A23.92,23.92,0,0,1,113,91.4a31.18,31.18,0,0,1-6-4.4,18.52,18.52,0,0,0-6-3.7,20.88,20.88,0,0,0-6.1-.5,11.17,11.17,0,0,1,4.75,2.6,18.4,18.4,0,0,1,4.5,4.9,19.8,19.8,0,0,0,4.45,5c.33.13.17.2-.5.2s-1.7-.58-2.9-1.75c-.67-.68-1.28-1.3-1.85-1.85a11.84,11.84,0,0,0-3.85-3.8,21.55,21.55,0,0,0-2.78-1.5,16.77,16.77,0,0,0-7.55-2.15l-.72-.1c-.91-.13-1.79-.23-2.65-.3.77-.35,1.55-.72,2.35-1.1q8.9-4.25,12.25-5.55a31.73,31.73,0,0,1,11.1-2.55,28.92,28.92,0,0,1,10.15,2.1A27,27,0,0,0,130.2,79q4.8,0,11.5-3.25t10.6-3.25a13.63,13.63,0,0,1,6.45,1.9c.5.27,1,.51,1.4.72a2.45,2.45,0,0,1,.2,1.93,2.84,2.84,0,0,0-.45.5,10.09,10.09,0,0,0-1.8-2.3,5.8,5.8,0,0,0-4-1.5,21.33,21.33,0,0,0-12.6,4.15Q135.6,82,130,82q-2.35,0-8.55-2.7a30.42,30.42,0,0,0-12.4-2.75"/></g></svg>