<svg xmlns="http://www.w3.org/2000/svg" viewBox="0 0 300 300"><defs><style>.cls-1{fill:#e3e6e8;}.cls-1,.cls-2,.cls-3{fill-rule:evenodd;}.cls-2{fill:#f9ba2d;}.cls-3{fill:#acb6bc;}</style></defs><title>Plan de travail 53</title><g id="objet05"><path class="cls-1" d="M117.1,173c-.07.38.79.79,2.57,1.23a28.62,28.62,0,0,0,5.75.77,31.32,31.32,0,0,0,7.61-.85q1.44-5.64,2.67-9.25t2-4.05c.48-.3.56-.09.23.65a12.35,12.35,0,0,0-.93,2.83q-1.54,6.42-2.67,11.67a26.49,26.49,0,0,0,1.78,7.68q1.35,3.33,1.82,4.75a5.94,5.94,0,0,0,1.2,2.2,4.22,4.22,0,0,0,1.77,1.12,7.88,7.88,0,0,0,1.66.4,18.54,18.54,0,0,0,2.27-.6,10.32,10.32,0,0,0,2.15-1c-.13-2.62-.2-4-.2-4.18,0-1.47.3-2.23.9-2.3s.9.57.9,1.9a10.94,10.94,0,0,1-.45,2.3,7.62,7.62,0,0,1,2.05-2.1c2-1.33,3-1.17,3,.5a4,4,0,0,1-1.6,2.55,5.81,5.81,0,0,1-3.22,1.63,9.87,9.87,0,0,1,1.82,1.27,11.32,11.32,0,0,1,1.3,1.28,3.35,3.35,0,0,0-.12.6c-.56-.42-1.52-1.23-2.88-2.45a13.6,13.6,0,0,1,.8,1.37,14.62,14.62,0,0,1,1.08,2.7c-.22.08-.45.18-.71.3L149,194.2a16.8,16.8,0,0,0-1.62-3.17,6.49,6.49,0,0,1-1.23.82,10.47,10.47,0,0,1-2.65,1.1,7.58,7.58,0,0,0-2,.75,2.18,2.18,0,0,0-1,1.85l0,19.8q.19,2.81.2,8.4,0,.09-.2,6a51.33,51.33,0,0,1-16.27.95,41.42,41.42,0,0,1-8.68-2.3l-.65-.4q1.35-31.42,5.2-37.35a49.11,49.11,0,0,1-6.3-16.45q1.57-2,4.35-5,3.93-4.35,6.2-6.55l.35.4-7.25,9.2a5,5,0,0,0-.2.8m30.25,13.25.25,2.5c0-.11.05-.22.07-.35A11.3,11.3,0,0,0,148,186c0-.72-.12-1.11-.42-1.18a4.7,4.7,0,0,0-.2,1.45m.5,3.95a6.2,6.2,0,0,0,2.82-1.57c1-.86,1.46-1.56,1.45-2.1s-.45-.49-1.32.17a15.63,15.63,0,0,0-3,3.43Z"/><path class="cls-2" d="M122.35,187.85a.44.44,0,0,0,.4.25.48.48,0,0,0,.55-.55.44.44,0,0,0-.5-.5.48.48,0,0,0-.4.2.43.43,0,0,0-.15.3.69.69,0,0,0,.1.3m7-8,.45.25c-.4.7-.93,1.65-1.6,2.85a4.37,4.37,0,0,0,1.5.25c.37,0,.65-.58.85-1.75.07-.33.13-.62.2-.85l.35.15a4.12,4.12,0,0,1,0,1.9c-.4,1.33-1,2-1.8,2.05a4.9,4.9,0,0,1-2.45-.6c-1.83,2.77-3,4.27-3.4,4.5a1.38,1.38,0,0,1-1.3-.05,1.33,1.33,0,0,1-.7-.95c-.07-.4.43-1.08,1.5-2.05s2-1.78,2.8-2.45a3.13,3.13,0,0,1-.8-1.9,2.09,2.09,0,0,1,.5-1.45,3.84,3.84,0,0,1,2-.9l.3.15c-.17.17-.4.38-.7.65-.6.53-.9.92-.9,1.15a1.08,1.08,0,0,0,.3.7c.83-.83,1.53-1.52,2.1-2l.35.15c-.9,1.17-1.57,2-2,2.5a.48.48,0,0,0,.15.1,2.25,2.25,0,0,0,.45.35q.26-.41.6-.9l1.25-1.8"/><path class="cls-3" d="M135.8,197.35a5.26,5.26,0,0,1-1.85.2,38,38,0,0,1-7.95-1,20,20,0,0,1-5.65-1.75l0-.1a77.11,77.11,0,0,0,8.62,1.45c2.62.32,4.95.58,7,.78l.23,0,.05.1a3.49,3.49,0,0,1-.45.3m-.15,4.7a8.83,8.83,0,0,1-1.25,4.1,6.21,6.21,0,0,1-5.75,3.55,9,9,0,0,1-6.4-2.1,6.77,6.77,0,0,1-2-5.15,1.44,1.44,0,0,1,.15-.65l0-.05h0l-.25-.05,0-.25a.45.45,0,0,1,.2-.35.55.55,0,0,1,.55-.1.49.49,0,0,0,.1.2.56.56,0,0,1-.5.55c.57,2.9,1.69,4.86,3.35,5.85a8.48,8.48,0,0,0,4.4,1q4.31,0,6.15-3.25a20.53,20.53,0,0,0,1.15-3.9h.05a2.41,2.41,0,0,1,.15.65m-14.9-1.5h-.3l0-.15h.1v-.05l.3.1Z"/></g></svg>