<svg xmlns="http://www.w3.org/2000/svg" viewBox="0 0 300 300"><defs><style>.cls-1{fill:#e3e6e8;}.cls-1,.cls-2{fill-rule:evenodd;}.cls-2{fill:#acb6bc;}</style></defs><title>Plan de travail 33</title><g id="objet03"><path class="cls-1" d="M151.85,42.05a16,16,0,0,1,6.25,3.1l.7.6q.45-8.2,5.25-12.3,4.6-3.95,11.7-3.4a21.68,21.68,0,0,1,11.7,4.45q5.3,4.09,5.3,9.35a22.29,22.29,0,0,1-1.45,7.5,12.66,12.66,0,0,1-2.9,4.95,7.82,7.82,0,0,1,1.85,1.55c2.07,2.27,3.1,4.33,3.1,6.2a12.49,12.49,0,0,1-1.25,5.35A7.35,7.35,0,0,1,185,74a9.33,9.33,0,0,1-8.4-4.6c-.17-.4-.32-.78-.45-1.15q-.45,3.41-4.2,18.85-.9,3.74-2.68,10.43c-.35.13-.71.28-1.1.45A49.86,49.86,0,0,0,156,84.7a42.82,42.82,0,0,0-16.5-7.6l-9-2c0-.35-.08-.68-.12-1q5.61-4.69,8.72-7.25,8.14-6.75,14-11.7c-.53,0-1.1,0-1.7,0q-6,0-7.95-2.95a4.33,4.33,0,0,1-.7-2.05v-1c0-3.17,1-5.33,2.85-6.5q2.44-1.5,6.3-.6"/><path class="cls-2" d="M143.05,74.9q0-.56,5.1-5.4a58.9,58.9,0,0,1,8.55-7.1l.15.2q-4,4.31-6.15,6.45a34.92,34.92,0,0,1-7.5,6.1c-.1.1-.15,0-.15-.25m10.2,2.6a4.69,4.69,0,0,1,.8-1.6,3.74,3.74,0,0,1,1.3-1.5l.1-.05c.07,0,.1.12.1.25a4.5,4.5,0,0,1-.85,1.9c-.57.87-.95,1.33-1.15,1.4s-.3-.17-.3-.4m-4.75-.25q0-.75,3.45-4.5t4.6-4.2q-.8.9-3.8,4.65a49.74,49.74,0,0,1-3.85,4.5l-.3-.15c-.07,0-.1-.13-.1-.3m19.85,3.5a25.46,25.46,0,0,1-1.3,2.7l-.15,0c.4-1.43.68-2.42.85-3A6.08,6.08,0,0,1,169.3,78v.25a12.61,12.61,0,0,1-1,2.5m1.15.6A57.38,57.38,0,0,1,173.35,71a31.54,31.54,0,0,1-3.7,10.5Z"/></g></svg>