<svg xmlns="http://www.w3.org/2000/svg" xmlns:xlink="http://www.w3.org/1999/xlink" viewBox="0 0 300 300"><defs><style>.cls-1{fill:none;}.cls-2{opacity:0.25;}.cls-3{clip-path:url(#clip-path);}.cls-4{fill:#ffd15f;}.cls-4,.cls-5,.cls-6,.cls-7{fill-rule:evenodd;}.cls-5{fill:#e29b3d;}.cls-6{fill:#ffba00;}.cls-7{fill:#bf7d26;}.cls-8{opacity:0.5;}.cls-9{clip-path:url(#clip-path-2);}</style><clipPath id="clip-path"><rect class="cls-1" x="33.62" y="16.47" width="83.88" height="53.25"/></clipPath><clipPath id="clip-path-2"><rect class="cls-1" x="74.55" y="21.45" width="53.2" height="27"/></clipPath></defs><title>Plan de travail 19</title><g id="objet01"><g class="cls-2"><g class="cls-3"><path class="cls-4" d="M74,25.31c-7.25-4.64-12.76-14.21-29.58-4.93s-3.19,21.17-9,29.87,2.61,26.1,22,16.82S76.89,51.12,78.63,43,85,31.69,83.85,38.94s.29,18.56,7,9.28,9.28-11.31,10.73-11.31,8.7,6.67,15.95.87c-11,.58-11.6-.29-13-5.51s-8.12-13.63-11-7.83S85,41.26,85.59,35.17s3.19-15.66-2.9-15.37S81.24,30,74,25.31"/></g></g><path class="cls-5" d="M61.81,112.28c-.13-.1-.27-.18-.39-.28a11.93,11.93,0,0,1-3.05.92q.3,3.56.66,7.43l.42-.1,3.1-.77q-.39-3.47-.7-6.3c0-.29,0-.59,0-.9"/><path class="cls-5" d="M57.26,87.88a2.25,2.25,0,0,1,1.44-.43,10.07,10.07,0,0,1,1.68.17,87.11,87.11,0,0,1-.63-9.12Q59.38,54.67,59.3,45c0-.21,0-.42,0-.62s-.07-.29-.11-.43l-.62.15c-.12,0-.62.22-1.5.55q-.4,3.75-.4,21.3,0,3.1.2,11.25c.13,5.15.27,8.7.41,10.68"/><path class="cls-6" d="M67.5,29.35a1.77,1.77,0,0,1,1.75.8,2.09,2.09,0,0,1,.15.9q0,1.75-2.35,4.6a25.88,25.88,0,0,1-2.78,2.85,28.2,28.2,0,0,1,2.58,2.75q5.5,6.55,5.5,8c0,1-.82,1.5-2.45,1.5a34.68,34.68,0,0,1-6.75-1.5c-3.33-1-5-1.5-5-1.5-1.67,1.77-3.42,3.53-5.25,5.3q-5.44,5.3-6.9,5.3c-.67,0-.85-.87-.53-2.6s2-6.18,5-13.35c-.94-.26-2-.6-3.3-1q-6.26-2-6.25-3a2.32,2.32,0,0,1,1.55-2.1A26.71,26.71,0,0,1,49.65,35l.57-.2q0-14.49,4.53-9.45a54.66,54.66,0,0,1,5.55,7.6s1.17-.58,3.4-1.75a24.39,24.39,0,0,1,3.8-1.8"/><path class="cls-7" d="M65.9,38.25l-.12.48a1.75,1.75,0,0,0-.16.27c-1.83-.32-3.86-.77-6.07-1.35-.94-.25-1.83-.5-2.68-.75l-1.52,1.75L54.17,40c.31.48.62,1,.93,1.52a.93.93,0,0,1,0,.1l1.35-.45a35.86,35.86,0,0,1,9-2.15,59.18,59.18,0,0,1-7,2.85c-1,.36-1.87.66-2.65.93L59,48.2l-.08,0-.25.2c-1.2-1.53-2.45-3.33-3.78-5.37l-3.8.72h-.07v0c0,.07-.06.08-.08,0a1.9,1.9,0,0,1,0-.3c0-.28,1.08-.81,3.25-1.6-.25-.42-.5-.83-.75-1.22L50.12,43.8l0,0c-.16-.29-.29-.52-.4-.7q1.13-1.29,3.08-3.45c-1.47-2.41-2.57-4.24-3.33-5.5a27.65,27.65,0,0,1,4,4.78c.78-.85,1.53-1.63,2.25-2.33a33.48,33.48,0,0,1-6.45-2.7c.12-.26.23-.5.32-.72l7.28,2.35q2.51-2.43,3.6-3.4l.27.3-.27.32a3.92,3.92,0,0,1,.33-.27c.07.08.15.16.22.25q-1.05,1.07-3.15,3.1c3.39,1,6.07,1.88,8.05,2.47M60.75,48.6c-.2.43-1.48,1.32-3.85,2.65a.78.78,0,0,1-.5-.7q0-.4,2-1.35a10,10,0,0,1,2.15-.9Zm.6,1.4a.69.69,0,0,1,0,.35q0,1-4.5,2.7c-.37-.37-.55-.62-.55-.75a7.26,7.26,0,0,1,2.15-1.25c1.13-.53,2-.92,2.6-1.15a.33.33,0,0,0,.25.1M56.2,55.8c0-.23.7-.65,2.1-1.25l.05,0-.35,0a2.42,2.42,0,0,1-1.4-.3c-.2-.23-.35-.4-.45-.5V53.3a7.25,7.25,0,0,1,2,.1,4.32,4.32,0,0,0,1.45-.35,2.28,2.28,0,0,1,1-.25l.2.3a5.24,5.24,0,0,1-1,.85,4.14,4.14,0,0,1,1.15-.3l.05-.1s0,.1,0,.3c0,.4-.43.92-1.3,1.55a4.64,4.64,0,0,1-2.7,1l-.7-.1c-.07,0-.1-.17-.1-.5m3.6,1.5a2.11,2.11,0,0,0,.65-.45,2,2,0,0,1-.6.9,2.08,2.08,0,0,1-1.3.6H57.1a.79.79,0,0,1-.45-.4l.45-.35a9.19,9.19,0,0,0,2.7-.3"/><g class="cls-8"><g class="cls-9"><path class="cls-4" d="M101.6,30c.83.57,1.25,1.15,1.25,1.75A2.94,2.94,0,0,1,101.6,34a5.32,5.32,0,0,1-3.7,1.3,2.85,2.85,0,0,1-2.45-1.15,2.51,2.51,0,0,1-.55-1.5c0-2.77,1.33-4,4-3.65A5.89,5.89,0,0,1,101.6,30m21.5,13.35c.63.1,1,.3,1,.6s-.35.65-1,.65-.9-.22-.9-.65.33-.67,1-.6m-18.45,2.1c0-.73.58-1.27,1.75-1.6s1.7,0,1.7,1a1.38,1.38,0,0,1-.6,1.05,2.6,2.6,0,0,1-1.75.6,1,1,0,0,1-1-.55,5.11,5.11,0,0,1-.15-.55m18.2.65c0-.13.15-.32.45-.55a.81.81,0,0,1,1-.1s0,.13,0,.3a1,1,0,0,1-.3.6.68.68,0,0,1-.5.3l-.6-.1c-.07,0-.1-.18-.1-.45M85.05,42c.6,0,.9.28.9.85s-.3.95-.9.95a.85.85,0,0,1-.8-.45l-.15-.45c0-.6.32-.9,1-.9m39.7.75c-.07,0-.18-.27-.35-.7a3.76,3.76,0,0,1-.2-.75l.1-.3c.6,0,.9.37.9,1.1,0,.13-.15.35-.45.65m3,.9c0,.3-.43.57-1.3.8a2,2,0,0,1-.6-.15l0-.35a1.43,1.43,0,0,1,1.8-.7l.1.1a.78.78,0,0,1,0,.3m-1.15,2.5a2.55,2.55,0,0,1,0,.35q0,.15-.3.15a1,1,0,0,1-.9-.6,1.32,1.32,0,0,1-.25-.6l.1-.3a1.52,1.52,0,0,1,1,.4q.45.35.45.6M82.6,23.7A1.41,1.41,0,0,1,82,24.8a2.52,2.52,0,0,1-1.7.55,1.68,1.68,0,0,1-1.5-.6l-.15-.65a2.3,2.3,0,0,1,2-2.6c1.33-.27,2,.47,2,2.2M82,35.55c0,1.3-.72,2-2.15,2a1.87,1.87,0,0,1-1.75-.75A1.93,1.93,0,0,1,78,35.9c0-1.23.68-1.87,2-1.9s2,.45,2,1.55m-5.55,12c0,.63-.3,1-.9,1A1,1,0,0,1,74.7,48a.92.92,0,0,1-.15-.45c0-.57.32-.87,1-.9s1,.25,1,.85"/></g></g></g></svg>