<svg xmlns="http://www.w3.org/2000/svg" viewBox="0 0 300 300"><defs><style>.cls-1{fill:#e3e6e8;}.cls-1,.cls-2{fill-rule:evenodd;}.cls-2{fill:#acb6bc;}</style></defs><title>Plan de travail 63</title><g id="objet06"><path class="cls-1" d="M71.7,116.45a6.2,6.2,0,0,1,1.55-.35c.56,0,1.26,1.17,2.1,3.5A15.14,15.14,0,0,1,77.72,121a7.42,7.42,0,0,1,1.86,1.85,5.58,5.58,0,0,1,1.72-.73,7.24,7.24,0,0,1,1.85-.3q1.35,0,2,9.9.52,7.11.88,20.55c.06,2.66.11,5.5.17,8.53-.3.15-.65.31-1,.47a17.84,17.84,0,0,1-2.12.78c.08,2.28.14,4.75.2,7.4a7.31,7.31,0,0,1-1.23.17,7.94,7.94,0,0,1-4.2-1.15l-.1-.07a16.57,16.57,0,0,1-2.53-2.15c-.29.35-1,.52-2,.52l-.35,0V129.35q0-4.06,0-6.52,0-2.67,0-3.48a3.24,3.24,0,0,0-2-2.65l.75-.25"/><path class="cls-2" d="M75.55,120.15c-.07-.19-.13-.37-.2-.55A15.14,15.14,0,0,1,77.72,121a40.35,40.35,0,0,1,.73,7.07,35.12,35.12,0,0,1-.5,6.15,58.33,58.33,0,0,0-2.4-14m6.8,7.85a18.6,18.6,0,0,1-.2,2.55,4.63,4.63,0,0,1-.4,1.6c-1-5.2-1.53-8-1.7-8.45a5.35,5.35,0,0,0-.45-.85,2.7,2.7,0,0,1,2.25,1.85,9.63,9.63,0,0,1,.5,3.3m-4.6,40.37a15.85,15.85,0,0,1-2.53-2.14.65.65,0,0,0,.13-.23,26.79,26.79,0,0,0,.2-4.65V160c-.1-2.13-.17-3.65-.2-4.55q-.19-3.47-.2-7.35.8,3,2.6,20.32m7.1-13s.43-1.07,1.23-3.1q.08,4,.17,8.53c-.3.15-.65.31-1,.47a17.84,17.84,0,0,1-2.12.78Q82.71,151.32,82,145.9c.31,1,.73,2.42,1.28,4.15,1,3.07,1.5,4.83,1.6,5.3"/><path class="cls-2" d="M72.92,122.83c0,1.64,0,3.81,0,6.52v26.4c-1.77,1.07-2.78,1-3.05-.3a15.4,15.4,0,0,0-.38-2.9c-1.83.76-3,1.28-3.57,1.55q.55-4.15,2.1-19.6,1.36-13.92,1.55-15.15a40.81,40.81,0,0,1,3.37,3.48"/></g></svg>