<svg xmlns="http://www.w3.org/2000/svg" xmlns:xlink="http://www.w3.org/1999/xlink" viewBox="0 0 300 300"><defs><style>.cls-1{fill:none;}.cls-2{clip-path:url(#clip-path);}.cls-3{fill:#bc823c;}.cls-3,.cls-4,.cls-5{fill-rule:evenodd;}.cls-4{fill:#e9edf4;}.cls-5{fill:#7f5e3b;}</style><clipPath id="clip-path"><path class="cls-1" d="M154,157.65l-4.4-3.33a19.33,19.33,0,0,1,7.83-2.5l10.17-.69a1.28,1.28,0,0,1-.65,1.22l-.35.1a25,25,0,0,1,4.95.8,7.78,7.78,0,0,1,3.1,2.05,6.91,6.91,0,0,1,1,2.15,35.56,35.56,0,0,1,.65,4.2c.19,1.66.3,3.11.32,4.33a15.79,15.79,0,0,0,.78,4.27,28.14,28.14,0,0,1,1,5.5c.2,2,.22,3.14.05,3.3-.47,1-1.68,1.55-3.65,1.55a11.71,11.71,0,0,1-1.24-.07c.25.77.26,1.3,0,1.57s-.68.38-1.35.33-1.46-.08-2.4-.08a8.08,8.08,0,0,0-3.8,1,10.34,10.34,0,0,1-2.22.88,2.69,2.69,0,0,1-1.38-.46,3.2,3.2,0,0,1-.65-1.72v-.45c0-.1,0-.18,0-.28a2.33,2.33,0,0,1-1.52-.84c-.38-.54-.54-2.28-.5-5.23a35.7,35.7,0,0,1,.43-6,1.62,1.62,0,0,1,1.8-1.53l3.9.28c1.61.11,3,.22,4.1.32a2.33,2.33,0,0,0,2.42-1.15,11.3,11.3,0,0,0,.42-4.72,6.76,6.76,0,0,0-2.14-5c-1-.88-3.54-1.44-6.76-1.66.31.24.63.47.93.73a10.09,10.09,0,0,1,2,1.8,3,3,0,0,1-.25,2A37.79,37.79,0,0,0,156,157.3a7.15,7.15,0,0,0-.65,1.25.49.49,0,0,1-.28.09c-.33,0-.68-.33-1.07-1m-30.7,27.25h83V150.15h-83Z"/></clipPath></defs><title>Plan de travail 22</title><g id="objet02"><g class="cls-2"><path class="cls-3" d="M196.8,160c-.27-1.11.26-2.18,1.57-3.23s3.51-1,6.58.2q-3.4.11-4.3,2.1a5.23,5.23,0,0,0-.4,3.7c.3,1.13.53,1.92.7,2.35a5.62,5.62,0,0,1,.2,1.6q0,5.51-11.3,9a86.9,86.9,0,0,1-25.15,3.5q-13.84,0-21.15-.75t-8.35-3.05a9.09,9.09,0,0,1-.6-3.7,15.28,15.28,0,0,0-.6-4.2q-.6-1.8-4.1-2.55c2.84-1.57,4.68-1.75,5.5-.55a9.52,9.52,0,0,1,1.52,4.4,17.68,17.68,0,0,0,1.05,4.48c.51,1.25,2.85,2,7,2.35s10.5.47,19,.47a71.68,71.68,0,0,0,22.42-3.27q9.65-3.21,10.68-4.95a5.39,5.39,0,0,0,.57-4q-.46-2.23-.87-3.87"/><path class="cls-4" d="M199.4,160.35a2,2,0,0,1-1.55,0,1.6,1.6,0,0,0,1.42.48,4.84,4.84,0,0,0,1.08-.4,2,2,0,0,1,.3-.15,1.93,1.93,0,0,1-1.58,1.05,2.35,2.35,0,0,1-1.67-.58,1.33,1.33,0,0,1-.55-.85.47.47,0,0,1,0-.17l-60.48,6.7v.12c-.33,1.33-.8,2-1.4,2a1.17,1.17,0,0,1-.9-.5,1.19,1.19,0,0,1-.35-.5l.27.2a1.73,1.73,0,0,0,1,.28c.39,0,.63-.33.73-.93,0-.13.05-.26.07-.37a2.11,2.11,0,0,1-.22.17,2.5,2.5,0,0,1-1.3.55.82.82,0,0,1-.6-.2l0,0a6.09,6.09,0,0,1-.37.87,3,3,0,0,1-.65.88c-1.08.18-1.28-.29-.6-1.43l0-.05c-.62.4-1.08.48-1.38.23a1.41,1.41,0,0,1-.32-.6c-.13-.45.6-.89,2.2-1.33a3,3,0,0,0,.75.45l.05,0,67.42-7.68c.21-.52.73-.7,1.58-.55,1.1.17,1.65.58,1.65,1.25,0,.37-.22.55-.65.55a1.61,1.61,0,0,1-1.25-.4,2.86,2.86,0,0,1,.45,1.53c0,.57-.18.85-.58.85s-.71-.48-1-1.38l-.2-.82a7.08,7.08,0,0,1-1.45.72m1.15-1-3.05.32a1.11,1.11,0,0,1,.4.2,6.22,6.22,0,0,0,2.3-.35l.35-.17m1.35,1.77a2.13,2.13,0,0,0-.7-1.95,3.85,3.85,0,0,0,.6,1.9Zm0-2.45-.2,0a4,4,0,0,0,1.65.5,2,2,0,0,0-1.45-.55m-68.13,8a.75.75,0,0,0-.07-.12,1.08,1.08,0,0,1,.05.27,1,1,0,0,0,.5.15,2.49,2.49,0,0,0,1.4-.5Zm-1.17,1.05a5.21,5.21,0,0,0-.1.6,3.48,3.48,0,0,0,.6-1.25l0,.05a1.17,1.17,0,0,0-.45.6m-1.35-.5a1.81,1.81,0,0,0,1.27-.82c-.86.1-1.33.38-1.42.82Z"/><path class="cls-5" d="M178.45,178.8a55.12,55.12,0,0,1-8.82,1.07c-3.39.19-6.5.31-9.33.38l-1.7.5a21.53,21.53,0,0,1-.25-3.1q0-1.44.15-3l1.4.47c2-.13,4.64-.24,7.95-.35s6.61-.27,9.9-.5a11.19,11.19,0,0,1,1.8-1.05c.17.84.36,1.77.55,2.8s.4,2.28.55,3.35a3.49,3.49,0,0,1-2.2-.6"/></g></g></svg>