<svg xmlns="http://www.w3.org/2000/svg" viewBox="0 0 300 300"><defs><style>.cls-1{fill:#fc3;}.cls-1,.cls-2,.cls-3{fill-rule:evenodd;}.cls-2{fill:#f90;}.cls-3{fill:#65b77e;}</style></defs><title>Plan de travail 43</title><g id="objet04"><path class="cls-1" d="M179,111c-2.12.31-4.57.77-7.33,1.37a50.49,50.49,0,0,0-9,2.63c-.13-.13-.23-.26-.33-.38a24.22,24.22,0,0,1-4.6-2.05,6.42,6.42,0,0,1-2.55-2.45,20.35,20.35,0,0,1-3.88-1.5c-1.16-.6-1.82-1.2-2-1.8a15.51,15.51,0,0,1-3.78-2c-.77-.59-1.27-1-1.47-1.1,0-.19,0-.39,0-.58a20.23,20.23,0,0,1,2.53.18,16.09,16.09,0,0,1,4.45,1,6.25,6.25,0,0,1,2.8-.12,7.74,7.74,0,0,1,2.5.82,23.19,23.19,0,0,1,6.15.18,21.4,21.4,0,0,1,6.65,1.82,10.46,10.46,0,0,1,4.52.48c3,1,4.78,2.14,5.33,3.55"/><path class="cls-2" d="M164.9,112.05l.73-.85a7,7,0,0,1-1.53,2.25q-1.54,1.65-2.25,1.65s-.08,0-.15-.1a4.18,4.18,0,0,1,.3-.3,12.36,12.36,0,0,0,2.9-2.65m4.8-5.15a4.8,4.8,0,0,1,.25,1.45,7,7,0,0,1-1.65,4.6l-.1,0c.12-.24.23-.51.35-.8a11.13,11.13,0,0,0,.9-3.65c0-.17-.1-1-.3-2.35a.84.84,0,0,0-.05-.17q.36,0,.6.87m-18.3-2.3a1.81,1.81,0,0,1-.45,1,2.16,2.16,0,0,1-.8.8l.2-.35a5.63,5.63,0,0,0,.8-2c.17,0,.25.23.25.55m5.25,2.25a4.9,4.9,0,0,1-.55,2.1,6.24,6.24,0,0,1-1.35,2q-.15,0-.15-.15,1-.87,2.05-4.22Z"/><path class="cls-3" d="M172.6,129.15a1.76,1.76,0,0,1,.65-1.3,4,4,0,0,1,2.85-.8,1.06,1.06,0,0,1,0-.55c0-.3.27-.45.7-.45a.81.81,0,0,1,.47.23c.05-.35.13-.79.23-1.33.17-1,.25-1.63.25-1.8.3-1.87.47-3.07.52-3.6l.48-.35v.1c0,.27-.17,1.47-.5,3.6-.24,1.65-.45,2.9-.62,3.75l.12.15.1.13c.08-.54.26-.78.55-.73a.38.38,0,0,1,.2.1c.08-1.09.13-1.76.15-2,.15-2.5.25-4.27.27-5.3l.31-.22,1.32-1a2.89,2.89,0,0,0,.1.62l-.15,7.93a2.21,2.21,0,0,1,.95-.18c.83,0,1.3.23,1.4.7a1.81,1.81,0,0,1-.15,1.05,2.72,2.72,0,0,1,3.3,1.1,4,4,0,0,1,.55,2.05,5.07,5.07,0,0,1-.3,1.8,1.47,1.47,0,0,1-2.05.9,2.92,2.92,0,0,1,.25,1.15c0,1.43-.85,2.15-2.55,2.15a2.21,2.21,0,0,1-1.1-.25,2.53,2.53,0,0,0-.55-.35c-.63,1.43-1.53,2.15-2.7,2.15a2.09,2.09,0,0,1-2-1.4c-.23-1-.35-1.47-.35-1.5l.2-2v-.1l-1.15.85a1.81,1.81,0,0,1-1.05.35.77.77,0,0,1-.8-.55l-.1-.55a5.31,5.31,0,0,1,1.45-2.65,10.14,10.14,0,0,1-.85-1,1.48,1.48,0,0,1-.3-.9m7.23-2.4q-.09-1.43-.18-2.82c-.05.73-.12,1.51-.2,2.32,0,.19,0,.39,0,.58a.7.7,0,0,1,.2-.08.88.88,0,0,1,.23,0"/></g></svg>