<svg xmlns="http://www.w3.org/2000/svg" xmlns:xlink="http://www.w3.org/1999/xlink" viewBox="0 0 300 300"><defs><style>.cls-1{fill:none;}.cls-2{fill:#8e5c25;}.cls-2,.cls-3,.cls-7{fill-rule:evenodd;}.cls-3{fill:#d7dfe2;}.cls-4{clip-path:url(#clip-path);}.cls-5{opacity:0.5;}.cls-6{clip-path:url(#clip-path-2);}.cls-7{fill:#fff;}</style><clipPath id="clip-path"><path class="cls-1" d="M131.15,188.45c-.5.5-1,1-1.4,1.45a48.5,48.5,0,0,0,3.45,4.65c0,.07.5.6,1.4,1.6,1.67-1.53,2.78-2.62,3.35-3.25l2-2.15-1.5-1.8c-1.43-1.63-2.65-3.07-3.65-4.3-1.07,1.13-2.28,2.4-3.65,3.8"/></clipPath><clipPath id="clip-path-2"><rect class="cls-1" x="129.85" y="184.74" width="8.3" height="9.26"/></clipPath></defs><title>Plan de travail 62</title><g id="objet06"><path class="cls-2" d="M121.67,173.9q.57-4,.75-5.35a17.09,17.09,0,0,1,2.13,3q2.6,4.54,2.9,5a97.67,97.67,0,0,0,6.9,9.75q3,3.64,4.25,5a50.23,50.23,0,0,0,4.75,4.8q1,.94,6,5,.66.55,1.2,1c-.27.79-.61,1.74-1,2.85-.14.41-.3.84-.47,1.3a39.79,39.79,0,0,1-4.48-3.2q-3.65-2.9-6.6-5.65a70.94,70.94,0,0,1-8.65-9.85q-2-3-5.15-8.75c-1-1.84-1.82-3.47-2.48-4.9"/><path class="cls-3" d="M138.45,189l1.5,1.8-2,2.15c-.57.63-1.68,1.72-3.35,3.25-.9-1-1.37-1.53-1.4-1.6a48.5,48.5,0,0,1-3.45-4.65c.43-.47.9-1,1.4-1.45,1.37-1.4,2.58-2.67,3.65-3.8,1,1.23,2.22,2.67,3.65,4.3"/><g class="cls-4"><g class="cls-5"><g class="cls-6"><path class="cls-7" d="M137.78,185.05a7.55,7.55,0,0,1,.37,2.25v1.2a4.55,4.55,0,0,1-.45,2.05,1.21,1.21,0,0,1-1.2.68,5,5,0,0,0-1,0l-2.15,0q-1.24-.15-1.8,1.95c-.07.25-.12.52-.17.8-.21-.23-.35-.4-.43-.5l-1.07-1.63,0-.07a4.64,4.64,0,0,1,.3-1.65c.33-1,.9-1.45,1.7-1.45a5.2,5.2,0,0,1,1.55.42,4.25,4.25,0,0,0,1.85.36,1.6,1.6,0,0,0,1.22-1,6.86,6.86,0,0,0,.61-2.6c.08-1.1.3-1.38.67-.85l0,.05"/></g></g></g></g></svg>