<svg xmlns="http://www.w3.org/2000/svg" xmlns:xlink="http://www.w3.org/1999/xlink" viewBox="0 0 300 300"><defs><style>.cls-1{fill:none;}.cls-2{clip-path:url(#clip-path);}.cls-3{opacity:0.5;}.cls-4{clip-path:url(#clip-path-2);}.cls-5{fill:#cae0ea;}.cls-10,.cls-12,.cls-14,.cls-17,.cls-5,.cls-8{fill-rule:evenodd;}.cls-6{opacity:0.75;}.cls-7{clip-path:url(#clip-path-3);}.cls-8{fill:#e1de5c;}.cls-9{clip-path:url(#clip-path-4);}.cls-10{fill:#79cd8e;}.cls-11{clip-path:url(#clip-path-5);}.cls-12{fill:#fff;}.cls-13{clip-path:url(#clip-path-6);}.cls-14{fill:#d2e877;}.cls-15{clip-path:url(#clip-path-7);}.cls-16{clip-path:url(#clip-path-8);}.cls-17{fill:#94e877;}</style><clipPath id="clip-path"><path class="cls-1" d="M30,70.4v79.5H79.5V129.69l-1.9-2q-6.6-6.95-12.82-13.46l-.58-.07a.65.65,0,0,1-.7-.45l0-.45v0a8,8,0,0,1-2-1.26q-2.91,1.45-10.47,1.46c-1.1,0-1.83-.92-2.2-2.75a11.62,11.62,0,0,1-.15-4.15,2.28,2.28,0,0,1-3.2-1.5,7.61,7.61,0,0,1-.4-2.7c0-.53.53-1.35,1.6-2.45.19-.2.38-.38.57-.55a1.55,1.55,0,0,1-.87-.8,7.79,7.79,0,0,1,0-3c.18-1.65,1.8-2.85,4.87-3.57a25.1,25.1,0,0,1,5.54-1,10.89,10.89,0,0,1-.09-1.22,3.77,3.77,0,0,1,.15-1.3,1.79,1.79,0,0,1,1.9-1,13.31,13.31,0,0,1,5,1.15c1,.37,2.08.83,3.25,1.4a4.84,4.84,0,0,1,2.5,1.75,3.58,3.58,0,0,1,.65,2,1.43,1.43,0,0,1-.1.5c0,.37-.4,2.33-1.2,5.9a45,45,0,0,0-1.2,9.65c0,.5.18,2,.55,4.4v.15q5.05,4,10.75,8.3l.6.46V70.4Z"/></clipPath><clipPath id="clip-path-2"><rect class="cls-1" x="33.65" y="73.56" width="43.83" height="72.49"/></clipPath><clipPath id="clip-path-3"><rect class="cls-1" x="34.3" y="125.65" width="41.6" height="19.4"/></clipPath><clipPath id="clip-path-4"><rect class="cls-1" x="43.8" y="83.25" width="23.85" height="57.8"/></clipPath><clipPath id="clip-path-5"><rect class="cls-1" x="37.5" y="120.47" width="16.3" height="21.33"/></clipPath><clipPath id="clip-path-6"><rect class="cls-1" x="41.1" y="18.94" width="36.4" height="53.11"/></clipPath><clipPath id="clip-path-7"><rect class="cls-1" x="28.3" y="19.9" width="58.8" height="46.15"/></clipPath><clipPath id="clip-path-8"><rect class="cls-1" x="42.6" y="20.17" width="31.3" height="49.63"/></clipPath></defs><title>Plan de travail 17</title><g id="objet01"><g class="cls-2"><g class="cls-3"><g class="cls-4"><path class="cls-5" d="M48.25,78.65c0-1.6,1.61-2.81,4.85-3.65a42.9,42.9,0,0,1,9.12-1.42q4.29-.17,3.85,1.27A7.09,7.09,0,0,1,63.22,78q.16,4.23.43,17.22v8q.06,9.15.82,11.13a18.85,18.85,0,0,0,4,7,93.34,93.34,0,0,1,6.2,8.5c1.91,3,2.83,5.23,2.77,6.8s-1.93,2.86-5.65,3.88-6.93,1.77-9.65,2.27L51.7,144.7a70.58,70.58,0,0,1-12.55,1.35q-3.94,0-5.1-1.9a4.81,4.81,0,0,1-.4-2.35c0-1.77,1.22-4.28,3.65-7.55q2-2.66,5.4-7a40.8,40.8,0,0,1,3-3.7,43.07,43.07,0,0,0,2.9-3.65c.45-.76.93-1.52,1.45-2.27a14.29,14.29,0,0,0,2.12-8c-.08-2.21-.19-5.9-.32-11Q51.4,81,51.5,80.25c-1.19-.56-2.26-1-3.2-1.35,0-.15,0-.23,0-.25"/></g></g></g><g class="cls-6"><g class="cls-7"><path class="cls-8" d="M43.5,128h0l-.18.17.15-.17m29.7,2.07c1.8,2.33,2.7,4.07,2.7,5.2q0,2.55-3.1,3.55c-3.13.63-5.77,1.18-7.9,1.65q-9.2,2.1-12.9,2.85a73.09,73.09,0,0,1-12.45,1.75,7.56,7.56,0,0,1-1.72-.15h0a3.6,3.6,0,0,1-2.95-1.15,2.25,2.25,0,0,1-.55-1.4q0-2.25,3.75-7.4c1-1.36,2.71-3.57,5.15-6.63q8.7-.82,27.4-2.67c.72,1.12,1.08,1.7,1.1,1.75a16.07,16.07,0,0,0,1.5,2.65"/></g></g><g class="cls-3"><g class="cls-9"><path class="cls-10" d="M55.9,83.25c.8,0,1.2.38,1.2,1.15a1,1,0,0,1-.25.65,1,1,0,0,1-.9.45,1.14,1.14,0,0,1-1.1-.55,5.11,5.11,0,0,1-.15-.55c0-.77.4-1.15,1.2-1.15m.35,33.65c0,.5-.27.75-.8.75a.69.69,0,0,1-.65-.35l-.1-.4c0-.5.27-.75.8-.75a.66.66,0,0,1,.75.75m.6,3.5a1.1,1.1,0,0,1-.2-.6c0-.7.38-1.1,1.15-1.2s1.1.33,1.1,1.2A1,1,0,0,1,57.75,121a.91.91,0,0,1-.9-.55m-.4,7.75a25.33,25.33,0,0,1-3.2.1c-1,0-1.55-.35-1.55-1,0-2,.9-2.92,2.7-2.65s2.7,1.15,2.7,2.65a.85.85,0,0,1-.65,1m10.75.75c0,.47-.22.7-.65.7a.79.79,0,0,1-.75-.35.85.85,0,0,1-.1-.4c0-.37.25-.58.75-.65s.75.2.75.7m.45,6.9c0,.47-.22.7-.65.7a.67.67,0,0,1-.65-.45l0-.3c0-.43.23-.65.7-.65s.65.23.65.7m-8.1-.9a.79.79,0,0,1-.75-.35l0-.4a.8.8,0,0,1,.85-.9c.57,0,.85.23.85.8s-.3.85-.9.85m-2.85-1.55-.05-.4c0-.33.18-.5.55-.5s.55.2.55.6-.17.65-.5.65a.5.5,0,0,1-.55-.35m-11.55-.9c.87,0,1.3.4,1.3,1.2a1.57,1.57,0,0,1-.35.75,1.36,1.36,0,0,1-1,.65,1.2,1.2,0,0,1-1.1-.55,1.76,1.76,0,0,1-.2-.75c0-.83.45-1.27,1.35-1.3m7.2,7.75a.77.77,0,0,1-.3.6.82.82,0,0,1-.6.25.92.92,0,0,1-.85-.4.68.68,0,0,1-.1-.4c0-.57.32-.85,1-.85s.9.27.9.8"/></g></g><g class="cls-3"><g class="cls-11"><path class="cls-12" d="M50.65,122.75a14,14,0,0,1,2.3-2.2c.57-.3.85.22.85,1.55q-9.45,15.94-12.55,16c-1.13,0-1.7-.4-1.7-1.2s1-2.62,3.05-5q1.6-1.91,3.85-4.3,1.2-1.5,4.2-4.75M37.5,140.6c0-.9.55-1.33,1.65-1.3s1.65.53,1.65,1.4-.55,1.1-1.65,1.1-1.65-.4-1.65-1.2"/></g></g><g class="cls-3"><g class="cls-13"><path class="cls-14" d="M61,28.35q2.14-1.91,7-1.9,5.8,0,8.25,5.65a16.23,16.23,0,0,1,1.35,6.45,18.48,18.48,0,0,1-1,6.6q-2.15,5.7-8.45,5.7l-4.5-.45a3.76,3.76,0,0,1-1.35-.25,5.39,5.39,0,0,0-1.55-.3,2.34,2.34,0,0,0-2,1,2.2,2.2,0,0,0-.45,1.25c0,.83.83,1.57,2.5,2.2a3.3,3.3,0,0,1,2.45,3.2q0,1.91-3.35,2.7c-2.23.53-3.37,1.87-3.4,4,0,1.77-.23,4.33-.6,7.7l-.15.15a2.51,2.51,0,0,1-.45-1.85,14.7,14.7,0,0,0,.2-2c0-1.47-.3-2.4-.9-2.8a2.66,2.66,0,0,1-1-2.35,8.83,8.83,0,0,1,.3-1.85,8.57,8.57,0,0,0,.3-2c0-1.67-.85-4.23-2.55-7.7-2-3.67-3.2-6-3.7-7.1q-.41-.9-4.55-7.65a12.87,12.87,0,0,1-2.2-6.9,10,10,0,0,1,3-7.45,12.76,12.76,0,0,1,6.75-3.25,11,11,0,0,1,6.75.75,5,5,0,0,1,3.05,4.65,3.6,3.6,0,0,1-1.4,2.8,3.36,3.36,0,0,0-1.4,2.2c0,.43.15.65.45.65s1.2-.62,2.6-1.85"/></g></g><g class="cls-3"><g class="cls-15"><path class="cls-10" d="M87.1,37.6c0,.83-.4,1.25-1.2,1.25a1.08,1.08,0,0,1-1-.5,5.11,5.11,0,0,1-.15-.55A1.06,1.06,0,0,1,86,36.6c.77,0,1.15.33,1.15,1m-17.7-14a.62.62,0,0,1-.7-.7c0-.47.22-.7.65-.7s.65.18.65.65-.2.75-.6.75m10-2.55q0,1.65-1.2,1.65a1.09,1.09,0,0,1-1-.55q-.15-.55-.15-.6A1.45,1.45,0,0,1,78.25,20q1.2-.3,1.2,1.05M30.05,34.45c1.13.13,1.7.7,1.7,1.7a1.45,1.45,0,0,1-.5,1,2,2,0,0,1-1.4.5A1.41,1.41,0,0,1,28.6,37a1.46,1.46,0,0,1-.3-.75c0-1.27.58-1.85,1.75-1.75M46.35,61.7c1.17-.23,1.75.2,1.75,1.3,0,2-.57,3-1.7,3a1.65,1.65,0,0,1-1.65-1c-.13-.63-.2-1-.2-1a2.1,2.1,0,0,1,1.8-2.35m18.5.2c-.07-.33-.1-.52-.1-.55q0-1.1,1.2-1.2c.8-.07,1.2.32,1.2,1.15s-.45,1.15-1.35,1.15a.88.88,0,0,1-1-.55"/></g></g><g class="cls-3"><g class="cls-16"><path class="cls-17" d="M51.7,24.65a1.07,1.07,0,0,1,.95-1.15,19,19,0,0,1,2.7-.1c.77,0,1.1-.2,1-.6,0-.23-.28-.5-.85-.8a5.7,5.7,0,0,0-2.45-.5,7.39,7.39,0,0,0-6.45,3.65A7.85,7.85,0,0,0,45,29.2q0,5.7,6.35,16.05t5.25,13.5A2.07,2.07,0,0,1,58,57.93a12.37,12.37,0,0,0,2.12-.43c.87-.24.93-.73.18-1.45-.4-.4-1-1-1.9-1.8q-2.65-2.36-2.65-4.9a2.58,2.58,0,0,1,.6-1.65,3.65,3.65,0,0,1,3-1.15,6.85,6.85,0,0,1,3,.75,12.43,12.43,0,0,0,4.85.7,5,5,0,0,0,4.6-3.1,10.46,10.46,0,0,0,1-3.2l-.15-.25a3,3,0,0,1-.45,1c-.37.57-.67.85-.9.85-.47,0-.75-.15-.85-.45s0-.47,0-.5a1.5,1.5,0,0,1,.8-1.15,2.19,2.19,0,0,0,1-1.65,17,17,0,0,0,.25-2.85,5.25,5.25,0,0,0-.35-1.9,2.56,2.56,0,0,0-2.5-1.65,1.67,1.67,0,0,0-.9.2c-.2.17-.35.28-.45.35a.42.42,0,0,0-.25,0s0-.08,0-.25c0-1.13.88-1.35,2.65-.65a3.91,3.91,0,0,1,2.6,4l-.3,3.5a1.64,1.64,0,0,0,.45.8,1.62,1.62,0,0,1,.45,1,8.51,8.51,0,0,1-1.5,4.45c-1.63,2.54-3.66,3.7-6.1,3.5a23.86,23.86,0,0,1-4.8-.72,6.73,6.73,0,0,0-2.5-.38,2.17,2.17,0,0,0-1.9.9l-.1.8q0,2.6,2.85,3.8c1.9.8,2.85,1.63,2.85,2.5,0,1.37-1,2.3-3,2.8-2.13.54-3.46,1.31-4,2.33a2.23,2.23,0,0,0,0,2.55c.53.68.55,2.43,0,5.27q.44-4.11-.73-5A3,3,0,0,1,53.9,62.3a2.4,2.4,0,0,0,.05-.9,9.22,9.22,0,0,1,.52-1.8,6.38,6.38,0,0,0,.4-2.57c0-1.09-.87-3.36-2.57-6.83q-2.85-5.4-3.45-6.8C48.42,42.43,47,40,44.7,36a13,13,0,0,1-2.1-6.75q0-7,7.35-8.75a9.82,9.82,0,0,1,5,0c1.53.47,2.3,1.23,2.3,2.3s-.45,1.5-1.35,1.5L54.6,24H53.4c-.73.43-1.1.72-1.1.85s.05.37.15.4h1V25.2a.4.4,0,0,1,.1-.3l.1-.1.4.1q0,.15-.15.3a1.25,1.25,0,0,0,.7.65,7,7,0,0,1,.8.4q0,.15-.45.15a1.42,1.42,0,0,1-1.35-.6.88.88,0,0,0,0-.15H52.3a1,1,0,0,1-.6-1m5,1.4c.37-.07.55.15.55.65l0,.5a.53.53,0,0,1-.45.15c-.4,0-.6-.17-.6-.5s.18-.73.55-.8M65.4,34a.57.57,0,0,1,.1.4.79.79,0,0,1-.1.45h-.05a.66.66,0,0,1-.15-.4l0-.45Zm1.9.6c.1.1,0,.15-.25.15s-.37-.13-.5-.4a.92.92,0,0,1-.15-.45c0-.3.17-.4.5-.3a.56.56,0,0,1,.45.55Z"/></g></g></g></svg>