<svg xmlns="http://www.w3.org/2000/svg" xmlns:xlink="http://www.w3.org/1999/xlink" viewBox="0 0 300 300"><defs><style>.cls-1{fill:none;}.cls-2{clip-path:url(#clip-path);}.cls-3{opacity:0.5;}.cls-4{clip-path:url(#clip-path-2);}.cls-5{fill:#cae0ea;}.cls-5,.cls-6{fill-rule:evenodd;}.cls-6{fill:#c0e852;}.cls-7{clip-path:url(#clip-path-3);}</style><clipPath id="clip-path"><path class="cls-1" d="M176.35,163.15c.1,1,.16,2,.17,2.83a15.79,15.79,0,0,0,.78,4.27,28.14,28.14,0,0,1,1,5.5c.2,2,.22,3.14.05,3.3-.47,1-1.68,1.55-3.65,1.55a11.71,11.71,0,0,1-1.24-.07c.25.77.26,1.3,0,1.57s-.68.38-1.35.33-1.46-.08-2.4-.08a8.08,8.08,0,0,0-3.8,1,10.34,10.34,0,0,1-2.22.88,2.69,2.69,0,0,1-1.38-.46,3.2,3.2,0,0,1-.65-1.72v-.45c0-.1,0-.18,0-.28a2.33,2.33,0,0,1-1.52-.84c-.38-.54-.54-2.28-.5-5.23a35.7,35.7,0,0,1,.43-6,1.62,1.62,0,0,1,1.8-1.53l3.9.28c1.61.11,3,.22,4.1.32a2.33,2.33,0,0,0,2.42-1.15,10,10,0,0,0,.46-3.95H146.25v22.91c.2.8.41,1.58.6,2.39.5,3.78.89,6.84,1.15,9.2h52.75v-34.5Z"/></clipPath><clipPath id="clip-path-2"><rect class="cls-1" x="152.55" y="168.7" width="47.11" height="10.73"/></clipPath><clipPath id="clip-path-3"><rect class="cls-1" x="150.3" y="168.94" width="4.2" height="12.94"/></clipPath></defs><title>Plan de travail 27</title><g id="objet02"><g class="cls-2"><g class="cls-3"><g class="cls-4"><path class="cls-5" d="M199.58,175.78q-.53,3-2.8,3.32a32.05,32.05,0,0,1-6.25,0q-4-.28-14.43-.1t-16.55.35c-2.79.07-4.63.1-5.5.08-.29-1.53-.47-2.51-.55-2.93-.5-2.43-.78-3.93-.85-4.5s-.06-.94-.1-1.35c.73-.12,1.92-.27,3.58-.47q7-.84,20.87-1.48h9.5c5.78.14,9.49.84,11.13,2.13a4.86,4.86,0,0,1,2,4.95"/></g></g><path class="cls-6" d="M152.7,179.13s23.93-1.51,34.08-1.06,1.28-1.65-4.51-1.73-10.76,1.36-14.37,1.36-10.46,1.05-12.19.67-2.93.08-3.46.76.45,0,.45,0"/><path class="cls-6" d="M152.8,178.7l.45.15.05.25-.5.3c-.27.17-.4.28-.4.35l.3,7.95a8.31,8.31,0,0,0,.3,1.9q0,.75-.9.75a1,1,0,0,1-.85-.35.85.85,0,0,1-.1-.4,10.68,10.68,0,0,0,.9-3.55,21,21,0,0,0-.25-2.45,17.16,17.16,0,0,1-.3-2.65,9.68,9.68,0,0,1,.05-1.2,1.24,1.24,0,0,1,1.25-1.05m-1.15,13.65c0-.1.08-.17.25-.2s.25,0,.25.25a.22.22,0,0,1-.25.25c-.07,0-.13-.05-.2-.15Zm1.1,1.9c0,.37-.12.55-.35.55s-.28-.1-.35-.3a1.23,1.23,0,0,1-.05-.35c0-.33.13-.52.4-.55s.35.18.35.65"/><g class="cls-3"><g class="cls-7"><path class="cls-5" d="M153.65,173.75c0,.23.32,2.32.85,6.25,0,1-.36,1.65-1.08,1.85s-1.21-.58-1.47-2.35-.6-3.65-1-5.65a25.77,25.77,0,0,1-.62-3.75c0-.7.3-1.08.9-1.15s1.22.45,1.65,1.65a25,25,0,0,1,.8,3.15"/></g></g></g></g></svg>