<svg xmlns="http://www.w3.org/2000/svg" viewBox="0 0 300 300"><defs><style>.cls-1{fill:#6d6154;}.cls-1,.cls-2,.cls-3{fill-rule:evenodd;}.cls-2{fill:#d7dee2;}.cls-3{fill:#b6c5d3;}</style></defs><title>Plan de travail 30</title><g id="objet02"><path class="cls-1" d="M146.15,209.1a143.83,143.83,0,0,1-21.4-1.7q-6-.92-10-1.87l-.07-4.75q11.53.67,18,.67a154.79,154.79,0,0,0,20-1.35c-.2.83-.42,1.73-.65,2.7-.49,2.2-.93,4.25-1.33,6.18-1.52.08-3,.12-4.52.12"/><path class="cls-1" d="M125.25,202.05c1.17,0,2.85-.13,5.05-.3a3.29,3.29,0,0,1,1.1.1,1,1,0,0,1,.52.7,2.47,2.47,0,0,1,.1.43,19.34,19.34,0,0,0-.07,3.07c-.07,1.17-.57,1.75-1.5,1.75a15.8,15.8,0,0,1-2-.2l-2-.25a9,9,0,0,1-2.55-.3c-.3-.17-.45-.73-.45-1.7a7.38,7.38,0,0,1,.2-2,1.68,1.68,0,0,1,1.65-1.25"/><path class="cls-2" d="M125.25,202.05a1.68,1.68,0,0,0-1.65,1.25,7.38,7.38,0,0,0-.2,2c0,1,.15,1.53.45,1.7a9,9,0,0,0,2.55.3l2,.25a15.8,15.8,0,0,0,2,.2c.93,0,1.43-.58,1.5-1.75A18.05,18.05,0,0,1,132,203a3.83,3.83,0,0,0-.11-.43,1,1,0,0,0-.52-.7,3.29,3.29,0,0,0-1.1-.1c-2.2.17-3.88.27-5.05.3m7.65-2.25c.8-.1,1.28.55,1.45,1.95-.27,3.63-.53,6.2-.8,7.7-.27,1-.78,1.5-1.55,1.5a28.82,28.82,0,0,1-3.15-.45c-1.7-.3-2.6-.47-2.7-.5a30.57,30.57,0,0,1-3.1-.8,1.93,1.93,0,0,1-1.45-2c.16-3,.27-5.21.32-6.7v-.15c1,0,2.76-.09,5.38-.25s4.6-.25,5.6-.25"/><path class="cls-3" d="M130.05,205.35c0-.77.55-1.15,1.65-1.15a3.45,3.45,0,0,1,.75.05.32.32,0,0,1,.3.4c.3.3.45.52.45.65,0,.53-.43.8-1.3.8-1.23,0-1.85-.25-1.85-.75"/></g></svg>