<svg xmlns="http://www.w3.org/2000/svg" viewBox="0 0 300 300"><defs><style>.cls-1{fill:#d2d3db;}.cls-1,.cls-2,.cls-3,.cls-4,.cls-5,.cls-6{fill-rule:evenodd;}.cls-2{fill:#b8bfe0;}.cls-3{fill:#7680a5;}.cls-4{fill:#516089;}.cls-5{fill:#3b4c72;}.cls-6{fill:#8e9abc;}</style></defs><title>Plan de travail 68</title><g id="objet06"><path class="cls-1" d="M93.78,136.88a21.31,21.31,0,0,1,2.69-2.3q13.38,11.6,17.23,15.17,3.38,3.18,6.47,6.28a.6.6,0,0,0-.14.3,5.9,5.9,0,0,0-.31.92c-.13.53.24,1.19,1.13,2s1.61,1.48,2.15,2c.62.77,1.19,1.5,1.72,2.18-.22.47-.48,1-.77,1.47a18.78,18.78,0,0,1-2,2.85,130.69,130.69,0,0,0-10-9.25q-4.56-3.85-9.4-7.37a117.36,117.36,0,0,0-11.75-6l-1.7-.83q2.31-5.25,4.68-7.42"/><path class="cls-2" d="M118.85,155l.12-.17,1.2,1.2a.6.6,0,0,0-.14.3,5.9,5.9,0,0,0-.31.92c-.13.53.24,1.19,1.13,2s1.61,1.48,2.15,2c.62.77,1.19,1.5,1.72,2.18-.22.47-.48,1-.77,1.47a4.92,4.92,0,0,1-.28.45c-.17.29-.34.57-.52.85a16.83,16.83,0,0,1-1.15,1.55,132.58,132.58,0,0,0-10-9.25q-4.56-3.85-9.4-7.37-3.4-2-7.7-4.1c-1.29-.63-2.64-1.27-4-1.9l-1.7-.83c.5-1.13,1-2.15,1.5-3.07a16.65,16.65,0,0,1,3.18-4.35,21.31,21.31,0,0,1,2.69-2.3l2.2,1.9c-.48,1.28-1,2.74-1.62,4.37-.47,1.3-.9,2.48-1.27,3.55q2.48,1.53,5.82,3.55A183.37,183.37,0,0,1,122,163.83a23.3,23.3,0,0,0-2.45-3.68c-1.13-1.37-1.7-2.38-1.7-3.05a5.23,5.23,0,0,1,1-2.1"/><path class="cls-3" d="M86.6,144.1c-1.33-1-2.48-1.83-3.45-2.6a3.54,3.54,0,0,1-.05-.45,16,16,0,0,1,2.45-9,34.71,34.71,0,0,1,4-4.5q2.36,1.65,7.65,5.85c.63.53,1.2,1,1.7,1.35a63.55,63.55,0,0,1-4.15,4.9,58.71,58.71,0,0,1-6,6L86.6,144.1"/><path class="cls-4" d="M89.72,127.65a27.38,27.38,0,0,0-1.82,3.4q-2.3,5-2.25,7.83l.6.72a24.06,24.06,0,0,0,2.85,2.8,51.41,51.41,0,0,1,6.75-5.05L98,136q-1.16,1.44-3.17,3.65a58.71,58.71,0,0,1-6,6l-1.67-1.2-.48-.35c-1.33-1-2.48-1.83-3.45-2.6a3.54,3.54,0,0,1-.05-.45,16,16,0,0,1,2.45-9,34.71,34.71,0,0,1,4-4.5l.12.1"/><path class="cls-3" d="M120,173.05q.77-5,1.15-8.15c.8-1.56,1.66-2.46,2.6-2.7.48.54,1.14,1.33,2,2.35s1.56,1.92,2,2.45a27,27,0,0,0,4.43-5.52,28.11,28.11,0,0,1,3.79-2,19.46,19.46,0,0,1,3-1.08,73.17,73.17,0,0,1,8.45,14.05c.38.8.76,1.6,1.12,2.4q-4.19,2.28-15.82,3.13t-13.48.3c.31-2,.57-3.74.78-5.18"/><path class="cls-4" d="M119.22,178.23c.11-.7.21-1.36.31-2q2.85-.3,6.07-.7,10.43-1.28,15.27-3.12a56.23,56.23,0,0,0,.53-7.83c0-1,0-2.06-.12-3.07a82,82,0,0,1,6.12,10.87c.38.8.76,1.6,1.13,2.4a27.45,27.45,0,0,1-8.61,2.35q-3.15.48-7.22.78-11.62.84-13.48.3m3.63-13.13c-.47-.34-.9-.65-1.3-.92a4,4,0,0,1,2.2-2c.48.54,1.14,1.33,2,2.35s1.56,1.92,2,2.45a26.71,26.71,0,0,0,4.42-5.52,28.78,28.78,0,0,1,3.8-2l.33-.13a18.58,18.58,0,0,1-3.3,5c-2.07,2.37-3.93,3.55-5.6,3.55q-.64,0-4.5-2.75"/><path class="cls-5" d="M122.8,170.25a1.63,1.63,0,0,1,.9-1.05.45.45,0,0,1,.35.3,3.24,3.24,0,0,1-.4.55,1,1,0,0,1-.55.35.43.43,0,0,1-.3-.15m10-4.05a.13.13,0,0,1-.15.15,8.63,8.63,0,0,1-1.35-1.65c.3,0,.63.17,1,.6a2.06,2.06,0,0,1,.5.9m-1.2-.25a1.9,1.9,0,0,0,.75,1.45c0,.1,0,.15-.05.15s-.08,0-.25,0a.8.8,0,0,1-.8-.65,3.1,3.1,0,0,0-.25-1q.1-.1.6,0m-5.9,3.8s0,.07,0,.2a.39.39,0,0,1-.3.4,3,3,0,0,0-.6.2l-.32-.22a10.9,10.9,0,0,1-1,1.42l-.2-.15a.4.4,0,0,1-.1-.3c0-.17.18-.45.55-.85a2.48,2.48,0,0,1,.65-.6,2,2,0,0,1,.1.23.9.9,0,0,1,1.1-.38Zm-1.15,2.75a2.86,2.86,0,0,1-.45-.5,1.58,1.58,0,0,1,.35-.8c.23-.37.42-.53.55-.5l.15.45a3.43,3.43,0,0,1-.3,1.1Zm15.3,1.05a.51.51,0,0,1-.1.3q.1.15-.3.15a.74.74,0,0,1-.65-.4c-.3.77-.63,1.15-1,1.15l-.3-.1a4.8,4.8,0,0,1-.15-1.4l-.05-.15a7.62,7.62,0,0,1-.7.7,1.3,1.3,0,0,1-1,.35c-.17.13-.25.08-.25-.15s.32-.52,1-1.05a8.66,8.66,0,0,1,1.3-.9,1.45,1.45,0,0,1-.15.8v1.3c.6-.23,1-1,1.15-2.2a1.14,1.14,0,0,1,.9.75,2,2,0,0,1,.3.85m-6.45,1.35q-.3.19-.3-.15a1.3,1.3,0,0,1,.45-.9,1.53,1.53,0,0,1,.2.9.61.61,0,0,1-.35.15"/><path class="cls-1" d="M158.22,150.55a15.76,15.76,0,0,1,1.18,6.25,8.89,8.89,0,0,1-.15,1.43,40.07,40.07,0,0,0-8.28,3.62,31,31,0,0,0-7.35,5.47,9.24,9.24,0,0,1-1.82.38,3.39,3.39,0,0,1-3-1.65,4,4,0,0,1-.15-4.75c.22-.38.5-.87.85-1.45l3.62-2.82a43.31,43.31,0,0,1,10.11-5.41A32,32,0,0,1,158,150l.08.14.09.23.1.2"/><path class="cls-2" d="M158,150l.08.14a2.29,2.29,0,0,0,.1.23l.09.2a14.13,14.13,0,0,1,1,3.57,17.87,17.87,0,0,1,.2,2.68,8.89,8.89,0,0,1-.15,1.43c-.83.24-1.7.54-2.6.89a47.27,47.27,0,0,0-5.68,2.73,34.26,34.26,0,0,0-5.14,3.45,20.66,20.66,0,0,0-2.2,2,9.13,9.13,0,0,1-1.83.37,3.39,3.39,0,0,1-3-1.65,4,4,0,0,1-.15-4.75c.22-.38.5-.87.85-1.45l.3-.23a6.15,6.15,0,0,0,.65,3.13,2.38,2.38,0,0,0,2.7,1.05q3-3.42,12.7-8.12a39,39,0,0,1-.68-4.83A19,19,0,0,1,158,150"/><path class="cls-3" d="M166.75,148.25c-.05.25-.1.47-.15.68a12.78,12.78,0,0,0-3.78-.85,9.33,9.33,0,0,1,.93-2c.83-1.4,1.65-2.1,2.45-2.1.23,0,.43.18.6.55a2.86,2.86,0,0,1,.3,1.3,13.41,13.41,0,0,1-.35,2.4"/><path class="cls-3" d="M170.33,151c-1,5.94-2.63,9.48-5,10.62l-2.85-1-2.47-.93a12.51,12.51,0,0,1-1.88-4.42,17.29,17.29,0,0,1-.7-4.55,8.59,8.59,0,0,1,.15-1.57c0-.18.06-.36.1-.53s.07-.43.1-.6q9.69-3.09,12.55,2.92a.43.43,0,0,0,0,.11"/><path class="cls-5" d="M164.8,146.1a1.38,1.38,0,0,1-.45-.45l.45,0,0,.25Zm1.65,7.5c-.07.1-.1,0-.1-.25s.25-.28.75-.35l.1.3-.45.45Zm.4-1a.69.69,0,0,1-.5-.2,2.54,2.54,0,0,1,.75-.25l.1.25c0,.1-.07.15-.1.15s-.08,0-.25,0M94.9,134.9c-.07,0-.1-.12-.1-.25a.63.63,0,0,1,.55-.7.23.23,0,0,0,.2,0c.07,0,.1.13.1.3a1.16,1.16,0,0,1-.15.6l-.3.15a1.73,1.73,0,0,1-.3-.1m.6.8-.15-.1a2.07,2.07,0,0,1,.9-1.35.23.23,0,0,0,.2,0c.07,0,.1.13.1.3a2.25,2.25,0,0,1-.3.7c-.2.33-.35.5-.45.5a.54.54,0,0,1-.3-.05m-5.85,2.15a.4.4,0,0,1,.1-.3.52.52,0,0,1,.2-.1.88.88,0,0,1,.35.4.64.64,0,0,1-.35.45.78.78,0,0,0-.25-.1.92.92,0,0,1,0-.35m70.95,11.9s.05.08.05.25-.1.18-.3.35a1.42,1.42,0,0,0-.35.45h-.2c-.07,0-.1-.07-.1-.2a.83.83,0,0,1,.3-.5,2.92,2.92,0,0,1,.5-.35Zm.1.95s.05.08.05.25-.15.42-.45.45a.21.21,0,0,1-.15-.05v-.25c0-.17.15-.33.45-.5,0,0,0,.07.1.1m-1.45-.8a.28.28,0,0,0-.15-.15,1.34,1.34,0,0,1,1.1-.6l.1.25q-.45.6-.75.6a.4.4,0,0,1-.3-.1"/><path class="cls-4" d="M165.88,144a1.73,1.73,0,0,1,.32,0c.23,0,.43.18.6.55a2.86,2.86,0,0,1,.3,1.3,10.3,10.3,0,0,1-.25,1.88,5.37,5.37,0,0,0-2.3-.48h-.13c.48-1,1-2.05,1.46-3.22"/><path class="cls-4" d="M170.35,150.88a.3.3,0,0,0,0,.1c-1,5.94-2.63,9.48-5,10.62l-2.85-1-2.47-.92a12.65,12.65,0,0,1-1.88-4.43,17.29,17.29,0,0,1-.7-4.55,8.59,8.59,0,0,1,.15-1.57c0-.18.06-.36.1-.53s.07-.42.1-.6l.12,0c.25.94.58,2.06,1,3.35,1,3.17,2,5.14,2.95,5.9a4.46,4.46,0,0,0,3.05.95c1.47,0,2.73-2,3.8-6,.27-1,.5-1.91.67-2.72a7.06,7.06,0,0,1,1,1.55"/><path class="cls-3" d="M134.4,164.75a11.6,11.6,0,0,1-.7-1.15c0-3.37.83-6,2.5-7.85a5.66,5.66,0,0,1,4.15-2.1,8.09,8.09,0,0,1,4.1,1,5.29,5.29,0,0,1,2.15,2.3c-.07.3-.13.62-.2,1s-.13.73-.2,1.1a12.23,12.23,0,0,1-5.25,4.15,14.29,14.29,0,0,1-6.1,1.6Z"/><path class="cls-5" d="M142.6,155.85l-.25,0a.42.42,0,0,1,0-.25q0-.3.6-.45c.07,0,.13.13.2.3Zm.15.6c-.07.1-.1,0-.1-.2a.59.59,0,0,1,.2-.4c.2-.2.57-.23,1.1-.1a3.73,3.73,0,0,0,.05.4c0,.33-.22.5-.65.5a.82.82,0,0,1-.6-.2m-2.85,3.15h-.55c0,.07,0,0,0-.3s0-.2.15-.2l.15,0,.3.1,0,.2Zm-1.05-.55c-.17,0-.27-.1-.3-.2a.77.77,0,0,1,.75-.45l.15.2Z"/><path class="cls-4" d="M136.5,155.45a6.47,6.47,0,0,0-1.25,3.65c0,.07.05.53.15,1.4.37.8,1.3,1.2,2.8,1.2a9.91,9.91,0,0,0,6.85-2.5,9.24,9.24,0,0,0,1.4-1.55c0,.09,0,.17,0,.25-.07.37-.13.73-.2,1.1a12.23,12.23,0,0,1-5.25,4.15,14.29,14.29,0,0,1-6.1,1.6h-.45a11.6,11.6,0,0,1-.7-1.15c0-3.37.83-6,2.5-7.85l.3-.3"/><path class="cls-6" d="M104.85,148.55l.15.25a.21.21,0,0,1,0,.15.34.34,0,0,1-.3.15h-.45c0-.27.22-.45.65-.55m1.15,1.3-.85.45-.35-.1c-.1.1-.15,0-.15-.2s.25-.32.75-.55a3,3,0,0,1,.8-.3.49.49,0,0,0,.2.1s0,.07,0,.2a4.28,4.28,0,0,1-.3,1l.65-.55a2.38,2.38,0,0,1,.1.9q0,.1.15-.15a2.33,2.33,0,0,1,.65,1,.92.92,0,0,1,0,.25l-.25.15a.37.37,0,0,1-.3-.35c0-.13-.2-.15-.5-.05-.07-.07-.08-.18,0-.35l0-.4v0l-.6.2-.3,0q-.15.19-.15-.15a1.13,1.13,0,0,1,.25-.45,1.27,1.27,0,0,0,.2-.55Zm8.15,3.75c.27,0,.4.12.4.35s0,.37-.15.3a1.57,1.57,0,0,1-.6.1c-.1.07-.15,0-.15-.25a.61.61,0,0,1,.15-.35c.1-.2.22-.25.35-.15m-.1-.55s0,.08,0,.25-.23.25-.7.45a.62.62,0,0,1-.25-.1c-.07,0-.1-.12-.1-.25a.52.52,0,0,1,.3-.5.55.55,0,0,1,.65.15Zm-12.15-10.7a.69.69,0,0,1,0,.35.84.84,0,0,1-.45.7.81.81,0,0,1-.3-.65.74.74,0,0,1,.45-.65c.17.13.25.22.25.25m-1.55,1.8a1.16,1.16,0,0,1,.15.6l-.35.2H99.9a.54.54,0,0,1-.05-.3l.1-.2a1.74,1.74,0,0,1,.4-.3m-1.25-.45h.1a.54.54,0,0,1,0,.3.73.73,0,0,1-.15.25,1.27,1.27,0,0,1-.3.25l-.4-.05c-.1,0-.15-.08-.15-.35,0-.1.1-.18.3-.25a1.23,1.23,0,0,1,.55-.15M153,153.6l.05.3q0,.25-.45.6a.49.49,0,0,0-.2-.1.4.4,0,0,1-.1-.3c0-.43.23-.6.7-.5m.15.9a.69.69,0,0,1,.05-.35c.1-.13.33-.15.7-.05v.75a.48.48,0,0,1-.15.1l-.25.05c-.23-.23-.35-.4-.35-.5m-2.7,2.25c-.07,0-.1-.12-.1-.35s.15-.35.45-.55h.4v.2a2.18,2.18,0,0,1-.25.6.91.91,0,0,1-.5.1"/></g></svg>