<svg xmlns="http://www.w3.org/2000/svg" xmlns:xlink="http://www.w3.org/1999/xlink" viewBox="0 0 300 300"><defs><style>.cls-1{fill:none;}.cls-2{fill:#65b77e;}.cls-2,.cls-3,.cls-4{fill-rule:evenodd;}.cls-3{fill:#ffb566;}.cls-4{fill:#da8370;}.cls-5{opacity:0.5;}.cls-6{clip-path:url(#clip-path);}</style><clipPath id="clip-path"><rect class="cls-1" x="177.8" y="170.85" width="15.2" height="17.15"/></clipPath></defs><title>Plan de travail 23</title><g id="objet02"><path class="cls-2" d="M151.9,168.15q.25-2.1,2.7-.15a7.72,7.72,0,0,1,3.05,6.15h1.1l1,0c0,.34,0,.69,0,1.07s0,1,0,1.38c-.57.24-1.21.51-1.9.82a5.82,5.82,0,0,1,1.5,2.7c0,.5-.27.75-.8.75h-.15a12.92,12.92,0,0,1,.6,1.53,33.31,33.31,0,0,1,1.08,5.62,7.56,7.56,0,0,1-.58,2.5,4,4,0,0,1-3.95,2.65,3.54,3.54,0,0,1-3.35-2,7.21,7.21,0,0,1-.75-3.45,7.79,7.79,0,0,1,.1-1.25q0-.09,0-.15a3.49,3.49,0,0,1-1.28.65c-.67,0-1-.48-1-1.45,0-.13.13-1,.4-2.6a7.1,7.1,0,0,1,.15-.75l-.45.3a7,7,0,0,1-3.6,1.15,1.18,1.18,0,0,1-.5-.1,1.29,1.29,0,0,1-.85-.5,4.8,4.8,0,0,1-.2-.55c0-.55,0-1.08.05-1.57a.33.33,0,0,1,0-.15v-.05a12.17,12.17,0,0,1,.27-1.83c0-.19.06-.39.1-.6a2.72,2.72,0,0,1,.3-.8,6.9,6.9,0,0,1,.6-1.25,1.39,1.39,0,0,1-1.2-.42,2.4,2.4,0,0,1-.4-.38,1.52,1.52,0,0,1-.4-.95,2.36,2.36,0,0,1,.65-1.2c0-.1.33-.27.9-.5l.5-.25.2-.05h.32l-.37-.3a.42.42,0,0,1-.25-.35c0-.23.17-.35.5-.35a2.41,2.41,0,0,1,.4,0c-.09-.22-.18-.41-.25-.58a4.3,4.3,0,0,1-.45-1.7c0-.73.35-1.1,1.05-1.1s2.47,1,5.1,3.15a16.19,16.19,0,0,1,0-3.15"/><path class="cls-3" d="M178.4,176.33c0-.19,0-.38-.05-.58a31.42,31.42,0,0,0-.57-3.65,6,6,0,0,1,3.67-2,12.09,12.09,0,0,1,4.65.8,1.47,1.47,0,0,1,.7.6,4.81,4.81,0,0,1,2.55,1.3,27.4,27.4,0,0,1,2.15,2.6,6.49,6.49,0,0,1,.45,1.4,4.81,4.81,0,0,1,.15,1,11.2,11.2,0,0,0,1.1,1.35,12.23,12.23,0,0,1,1.8,4.6,22.8,22.8,0,0,1,2,2.15c.5.7.92,1.25,1.25,1.65a5.07,5.07,0,0,1,.6,1.35c.33-.1,1.3.52,2.9,1.85a12.68,12.68,0,0,1-2.3-.25,2.28,2.28,0,0,1-1.2-.6,5.48,5.48,0,0,1-3-.55,13.08,13.08,0,0,1-3.15-2,10.93,10.93,0,0,1-3-1.35,18.54,18.54,0,0,1-2.9-3.1c-2.93-1.33-4.87-2.92-5.8-4.75a2.46,2.46,0,0,1-1.1-.6,14.37,14.37,0,0,1-.85-1.17"/><path class="cls-4" d="M180.65,171.9l0,.3a.42.42,0,0,1,0,.25q-.1.11-.3,0l-.15-.15c-.13-.17-.12-.3.05-.4s.27-.17.4,0m.75.55c.1-.13.2-.12.3.05s.17.32,0,.45-.27.07-.4-.1-.07-.23.1-.4m2.5-.8.15-.05.1.1-.1.15a.21.21,0,0,1-.15,0s0-.08,0-.15M183,178a.24.24,0,0,1,0,.35c-.1.07-.17.07-.2,0l-.1-.1c-.1-.13,0-.25.25-.35Zm-.55-1.65a12.23,12.23,0,0,1,1.1-1.25c.7-.77,1.12-1.23,1.25-1.4.8-1.23,1.35-2,1.65-2.45-.1.23-.52,1.05-1.25,2.45l-2.45,2.45,0,0Zm4.55-.95-.05.3-.2.1-.1-.15c-.07-.17,0-.27.25-.3Zm.5.8-.25,0c-.1-.13,0-.27.25-.4l.1.1c.1.13.07.25-.1.35m4.2.8a6.22,6.22,0,0,1-1.6,4c.2-.4.42-.83.65-1.3.1-.3.2-.57.3-.8a0,0,0,0,0,0-.05,1.55,1.55,0,0,0,.1-.35,5.16,5.16,0,0,0,.45-1.55Zm-.75.35.1.05c.1.1.08.22-.05.35h-.15l0-.15a.3.3,0,0,1,.15-.25m7.6,12a1.2,1.2,0,0,1-.2.45l-.2.15-.2,0,.6-1.15a.86.86,0,0,1,0,.6m-3.35-.8s0-.08,0-.15a.29.29,0,0,1,.2-.2l0,0a.55.55,0,0,1-.1.45.21.21,0,0,1-.15,0m.8.3-.1.05a1.08,1.08,0,0,1,0-.2.52.52,0,0,1,.1-.2l.15.15Zm-2.5-7.45.1.1s0,.1,0,.2a.28.28,0,0,1-.15.15l-.2-.1c-.07-.13,0-.25.25-.35m-4.35,2.25-.25-.05a.5.5,0,0,1,0-.45l.3.1Zm4.1,1-.2.1c-.17-.17-.12-.28.15-.35l.15.15Zm-.6-.7-.15.15h-.2l-.05-.1a.48.48,0,0,0,.1-.15s.1,0,.2,0Zm-4.8-2.75c-.13-.13-.07-.25.2-.35l.1,0-.2.45s-.07,0-.1-.05m-.5.2a.74.74,0,0,1,.2-.55c.1-.13.25-.32.45-.55,0,.07-.13.23-.3.5s-.27.43-.3.5Zm.1-1a9.44,9.44,0,0,1-1.4,2.35l-.45.1a9.12,9.12,0,0,0,.75-1,.65.65,0,0,0,.15-.2.48.48,0,0,1,.1-.15,5.93,5.93,0,0,1,.85-1m-3.3.25-.15-.2.3-.2.1.1.1.15-.1.15s-.12,0-.25,0m6.95,6.75.1-.25.8-.45a8.74,8.74,0,0,0,1.35-1.15,4,4,0,0,1-1.2,1.45,1.52,1.52,0,0,1-.7.3,1.85,1.85,0,0,1-.35.1"/><g class="cls-5"><g class="cls-6"><path class="cls-4" d="M179.25,170.85h2.2a12.1,12.1,0,0,1,4,1.1,10.22,10.22,0,0,1,2.95,1.9c.07.1.32.68.75,1.75a8.43,8.43,0,0,1,.7,2.1,1,1,0,0,1-.2.55,1.1,1.1,0,0,0-.2.6,3.35,3.35,0,0,0,.4,1.25,1.24,1.24,0,0,1,0,.65,1.54,1.54,0,0,0,.15.7c.6,1.5.93,2.35,1,2.55a12.51,12.51,0,0,0,1.2,2.55c.2.4.47.88.8,1.45-.27-.23-.55-.47-.85-.7A10.93,10.93,0,0,1,189.1,186a18.54,18.54,0,0,1-2.9-3.1c-2.93-1.33-4.87-2.92-5.8-4.75a2.46,2.46,0,0,1-1.1-.6,12.38,12.38,0,0,1-.9-1.27c0-.16,0-.32-.05-.48a33.85,33.85,0,0,0-.55-3.63,5.66,5.66,0,0,1,1.45-1.27"/></g></g><path class="cls-3" d="M183,172.55a13.89,13.89,0,0,1,3.8,4,1.37,1.37,0,0,1,.15,1,5.46,5.46,0,0,1,1.45,3,28.21,28.21,0,0,1,.2,3.95,8.1,8.1,0,0,1-.55,1.57,4,4,0,0,1-.55,1c0,.84,0,1.51.05,2a15,15,0,0,1-1.6,5.53,20.71,20.71,0,0,1,.32,3.33c0,1,0,1.81,0,2.42a6.11,6.11,0,0,1-.35,1.7c.41.1.87,1.34,1.4,3.72A16.18,16.18,0,0,1,185.3,204a2.67,2.67,0,0,1-.7-1.4,6.63,6.63,0,0,1-2.38-2.62,13.48,13.48,0,0,1-1.47-4,10.6,10.6,0,0,1-1.8-3.4,17.32,17.32,0,0,1-.6-4.85,14.76,14.76,0,0,1-2.13-7.17,2.72,2.72,0,0,0,2.18-1.43c.17-.17.15-1.27-.05-3.3a30,30,0,0,0-.6-3.82l.15,0a6.86,6.86,0,0,1,5,.65"/><path class="cls-4" d="M181.35,173.9a1.2,1.2,0,0,1-.15.3c-.1.13-.17.2-.2.2a.33.33,0,0,1-.3-.2l0-.2a.37.37,0,0,1,.35-.4c.23,0,.35.07.35.3m.55,1.3c0,.27-.12.4-.35.4s-.25-.12-.25-.35.1-.27.3-.3.3.05.3.25m-1.55,4.15-.45,0a10,10,0,0,1,1.85-.4c1.2-.2,1.92-.33,2.15-.4,1.6-.57,2.68-.93,3.25-1.1-.23.13-1.2.58-2.9,1.35l-1.5.35-2.45.2s0,0,0,0m4.2-3.4.15.1v.15l-.15.05q-.15,0-.15-.15t.15-.15m.15,5.5.05.15-.25.25-.25,0v-.25c.07-.2.22-.23.45-.1m0,1.3-.2-.3c0-.2.17-.27.5-.2l.05.2a.32.32,0,0,1-.35.3m2.4,3.45,0,.1c0,.13-.1.22-.3.25l-.15-.1,0-.2c.07-.07.18-.08.35-.05m-.6,1.2a10.87,10.87,0,0,0,1.5-1.1v0c-1.55,1.62-3,2.48-4.28,2.6.49-.24,1-.5,1.53-.8l.8-.47.1,0a3.19,3.19,0,0,0,.35-.25m.05,4.3.05.1a.28.28,0,0,1-.1.2.33.33,0,0,1-.3.05l-.05-.2c0-.17.13-.22.4-.15m-2.5,2.8-.25-.05c0-.27.13-.35.4-.25v.25Zm2,7.5a.81.81,0,0,1-.35.55,1.05,1.05,0,0,1-.55.25h-.3l-.1-.15Zm-7-20.55c-.13,0-.2,0-.2-.1v-.15c0-.2.13-.25.4-.15l.05.15a.22.22,0,0,1-.25.25m-.55,3v-.3h.4l.05.15-.05.25-.2,0s-.1,0-.2-.15m-.2,3.05a9.22,9.22,0,0,0,1.45-.47L180,187l.2-.1a9.59,9.59,0,0,1,1.45-.35,8.63,8.63,0,0,1-2.9,1.15Zm3.35-.45a1.8,1.8,0,0,0-.6.25l-.1,0a.94.94,0,0,1,.55-.35,7.4,7.4,0,0,0,.75-.2,3.07,3.07,0,0,1-.6.25m-.1.65a.15.15,0,0,1-.1-.15c0-.2.17-.27.5-.2l.1.05Zm-.55,3-.2-.2a.45.45,0,0,1,.3-.4l.2.25Zm2.6,2.5.2,0s.1,0,.2.1v.15l-.2,0-.2-.1Zm-2.15,2.3a11.78,11.78,0,0,0,2.1-.15,4.74,4.74,0,0,1-2.15.55,2,2,0,0,1-.9-.2,1.61,1.61,0,0,0-.35-.2l.25-.1Zm2.55,4.75-.35.05-.1-.05s.05-.08.15-.15a.45.45,0,0,1,.25-.1Zm-.45-1,.1.05a.68.68,0,0,1-.4.3.16.16,0,0,1,0-.3.33.33,0,0,1,.3-.05"/></g></svg>