<svg xmlns="http://www.w3.org/2000/svg" viewBox="0 0 300 300"><defs><style>.cls-1{fill:#edeeef;}.cls-1,.cls-3,.cls-4{fill-rule:evenodd;}.cls-2,.cls-4{fill:#ed3e21;}.cls-3{fill:#b2cad8;}</style></defs><title>Plan de travail 66</title><g id="objet06"><path class="cls-1" d="M75.3,117.5a1.49,1.49,0,0,0,.5-.15,2.42,2.42,0,0,1,1-.2c.67,0,1.15.73,1.45,2.2a9.89,9.89,0,0,1,.25,2.25,10.4,10.4,0,0,1-1.9,5.6q-2,3-3.65,3c-.6,0-1-.42-1.2-1.25a7.72,7.72,0,0,0-.35-1.7,6.5,6.5,0,0,0-1.75-1.7,4.85,4.85,0,0,0-1.7-1,2,2,0,0,0-.6.15,2.05,2.05,0,0,1-.7.15c-.6,0-1-.37-1.2-1.1s-.15-1.12-.15-1.15a12.25,12.25,0,0,1,1.3-4.75c.11-.27.28-.62.5-1a6.29,6.29,0,0,0,1.47,1.2c.47-.89.77-1.52.93-1.9,0-.14.1-.26.15-.37l-1.3-1.13A8.16,8.16,0,0,1,69,113.2a5.49,5.49,0,0,1,1.7-2.35c.47-.37.85-.25,1.15.35.13.33.32.87.55,1.6a9.8,9.8,0,0,0,1.1,2.9c.63,1.2,1.25,1.8,1.85,1.8"/><path class="cls-2" d="M76.25,122.05a.69.69,0,0,1,.25.45.44.44,0,0,1-.5.5h0a1,1,0,0,1,0,.25,5.36,5.36,0,0,1-1.08,1.8.4.4,0,0,1,0,.15,15.29,15.29,0,0,1-2.35,2.35l-.2,0v.12q0,.75-.6.75l-.08,0a5.43,5.43,0,0,0-.27-1.18,2.16,2.16,0,0,0-.32-.43,1.08,1.08,0,0,1,.47-.07.64.64,0,0,1,.2,0v-.28a1.53,1.53,0,0,1,.8-1.2,1.65,1.65,0,0,0,.75-1.45.91.91,0,0,1,.4.1,1.47,1.47,0,0,1,1.15-1.5s0,0,.07,0a2.57,2.57,0,0,1-.17-1l.2,0c0-.36,0-.55,0-.58a1.58,1.58,0,0,1,.25-.65,2.4,2.4,0,0,0,.2-.7.49.49,0,0,0-.15-.35.43.43,0,0,1-.15-.3c0-.17.07-.27.2-.3s.25-.07.25-.1a1.82,1.82,0,0,1-.25-.2.54.54,0,0,1-.15-.4.5.5,0,0,1,.1-.26h0a1.49,1.49,0,0,0,.5-.15,2.42,2.42,0,0,1,1-.2l.15,0c.33.23.5.45.5.68a1.06,1.06,0,0,1-.2.4.86.86,0,0,0-.25.5,3.79,3.79,0,0,1-.3,1v1.4c-.08.51-.24.82-.5,1m-5.2,1.3c0-.07.13-.18.4-.35s.35-.32.35-.45a4.34,4.34,0,0,1,1.1-2,4.72,4.72,0,0,0,1-2.7c.11-.45.19-.81.24-1.09a6.45,6.45,0,0,1-.74-1.11c-.17-.31-.32-.62-.45-.92a2.28,2.28,0,0,1-.4.17c-.1,0-.15.08-.15.25l.4.75q-.45-.15-.6.15l.45.9c-.47.1-.88.6-1.25,1.5a4.89,4.89,0,0,0-.4,1.45,1.7,1.7,0,0,0,.3.8.88.88,0,0,1-.4-.25,1,1,0,0,0-.3-.35l-.3.15,0,.3a1.77,1.77,0,0,0,.3.9,1.65,1.65,0,0,0-.6-.45l-.3.15a.16.16,0,0,1,0,.1c-.07,0-.1.08-.1.25a.66.66,0,0,0,.15.4c-.5.23-1.08,1.08-1.75,2.55h0a4.65,4.65,0,0,1,1.61.94c1-.86,1.44-1.55,1.44-2.09"/><path class="cls-3" d="M73,113.1v.1c0,.17-.2.4-.6.7a.3.3,0,0,1-.05-.2.8.8,0,0,1,.2-.35.88.88,0,0,1,.4-.25Zm.9.8h0s0,0,0,.15a4,4,0,0,1-1.65,1.3l-.1-.2q0-.34.6-.75a4.5,4.5,0,0,1,1.05-.5m2.75,3.85a.66.66,0,0,1-.25-.55,2,2,0,0,1,.1-.55c.1-.3.2-.47.3-.5a1.49,1.49,0,0,1,.1.65l-.1.85Zm1.95.15.05.1a1.87,1.87,0,0,0-.5.2,1.63,1.63,0,0,1-.6.2A1,1,0,0,1,78,118a.66.66,0,0,1,.65,0m-7.9,7.85s0,0,0,.15-.08.23-.25.4a1.11,1.11,0,0,0-.35.4H69.9a1,1,0,0,1,.7-1Zm.35,1.15a2.19,2.19,0,0,1,.45-.25c.1.07.15.13.15.2s-.23.27-.7.6l-.15,0-.1-.1a3.14,3.14,0,0,1,.35-.4m7.15-4.4a2.57,2.57,0,0,1,1,.15c0,.17-.12.25-.35.25a1.54,1.54,0,0,1-.7-.15Z"/><path class="cls-1" d="M180.15,161.25a3.67,3.67,0,0,0,.4,1.7c.1.1.27.25.5.45a5.15,5.15,0,0,1,.55.45,1,1,0,0,1,0,1.4,6.91,6.91,0,0,1-.8.6,10.54,10.54,0,0,1-4.25,1c0-.71,0-1.27,0-1.68l-3.38.25h-.35l-.3,1.6-1.1.1a7.17,7.17,0,0,1-2.9-.3c-.57-.2-.73-.55-.5-1,.17-.23.45-.58.85-1.05a6.49,6.49,0,0,0,1.45-2.15c.47-1,.5-1.73.1-2.2a2.06,2.06,0,0,0-.5-.3,5.76,5.76,0,0,1-.8-.75c-.43-.5-.22-1.18.65-2a6.29,6.29,0,0,1,1.5-1.2,9.6,9.6,0,0,1,5.5-.9q3.5.15,4.65,1.5c.4.43.37.92-.1,1.45a6,6,0,0,0-1.05,1,3.94,3.94,0,0,0-.1,2.1"/><path class="cls-4" d="M181,163.31l-.6,0a6,6,0,0,1-3.1-.25.49.49,0,0,1-.2.3c-.13.07-.22.08-.25,0h-.1l-.3-.15a1.05,1.05,0,0,1-.1-.7,1,1,0,0,1-.45.65l-.3.1-.3-.15a3.73,3.73,0,0,1,.05-.4.52.52,0,0,0-.05-.4,1,1,0,0,1-.4.55,5.49,5.49,0,0,1-1.35.3,2.43,2.43,0,0,1-1.95-.3l-.35.75c-.23,0-.42-.1-.55-.4l-.3.65q-.19.11-.3,0a1.08,1.08,0,0,0-.37-.21,7.66,7.66,0,0,0,.62-1.14,4.51,4.51,0,0,0,.28-.76l.82-.24a4.9,4.9,0,0,1,2.7-.35,4.35,4.35,0,0,0,2.2,0,1.38,1.38,0,0,1,.6.05c.3.13.47.18.5.15.42-.24,1.37-.13,2.81.31a2.61,2.61,0,0,0,.34,1.19c.08.08.22.21.4.36m-11.85-4a5.76,5.76,0,0,0,.8.75,2.06,2.06,0,0,1,.5.3,1.08,1.08,0,0,1,.16.3.37.37,0,0,0,.09-.25.36.36,0,0,0,0-.25s.12,0,.25.15a.32.32,0,0,0,.35,0,.29.29,0,0,0,.15-.2.34.34,0,0,1,.15-.3l.6-.15a1.3,1.3,0,0,0,.7,0l.4-.3.15.15a1.67,1.67,0,0,0,.65-.6l0,0a1.73,1.73,0,0,0,1.9.25.75.75,0,0,0,.2.3,1.56,1.56,0,0,1,1.55,0,1.88,1.88,0,0,0,1.45.1,1.53,1.53,0,0,1,.25-.15.15.15,0,0,0,.1.15.87.87,0,0,0,.53.41,1.89,1.89,0,0,1,.17-.86,3.3,3.3,0,0,1,.41-.44.76.76,0,0,0-1-.11,0,0,0,0,1,0,.05.28.28,0,0,0-.15-.15,27.09,27.09,0,0,0-3.3-.8.48.48,0,0,1-.15.1,4.92,4.92,0,0,0-2-.05.49.49,0,0,1-.2.1.53.53,0,0,0-.75-.15c-.1,0-.15.17-.15.4a1.13,1.13,0,0,0-1,0l-1.05.6a2.39,2.39,0,0,0-.9.15.87.87,0,0,1-.55.05.88.88,0,0,0-.4,0l-.08.08a.93.93,0,0,0,.18.32"/><path class="cls-3" d="M181.05,159.8V160a2,2,0,0,1-.55-.1l-.5-.2a.42.42,0,0,1,.05-.25,2.49,2.49,0,0,1,.9.3Zm-1.15.85s0-.08,0-.15a.79.79,0,0,1,.45.05,1.15,1.15,0,0,0,.55,0l.15.2a1,1,0,0,1-1.15-.1Zm-7.5-4.35a2.34,2.34,0,0,1-.55-.9c.1-.07.23,0,.4.15a1.79,1.79,0,0,1,.35.65Zm-2.5,3.25a.42.42,0,0,1-.25.35,2,2,0,0,1-.45.2.83.83,0,0,1-.6,0,1.42,1.42,0,0,1,.45-.35l.7-.3Zm-.1-1a2.08,2.08,0,0,1-.6-.1.7.7,0,0,1-.45-.5v0a5.1,5.1,0,0,0,.5.3,2.09,2.09,0,0,1,.55.35m-.9,4.6a4.86,4.86,0,0,1,2.1.7l-.1.15c-.17.1-.48.07-1-.1a6.11,6.11,0,0,1-1-.6l-.05-.05s0-.07.05-.1m0,1.2,0,0c.13-.07.45,0,1,.15,0,0,0,.08-.1.15a.79.79,0,0,1-.45,0,1.11,1.11,0,0,1-.4-.2Z"/></g></svg>