<svg xmlns="http://www.w3.org/2000/svg" viewBox="0 0 300 300"><defs><style>.cls-1{isolation:isolate;}.cls-2,.cls-4{fill:#333;}.cls-2,.cls-3,.cls-4,.cls-5{fill-rule:evenodd;}.cls-3{fill:#f8b334;}.cls-4{opacity:0.5;mix-blend-mode:multiply;}.cls-5{fill:#fc3;}</style></defs><title>Plan de travail 51</title><g class="cls-1"><g id="objet05"><path class="cls-2" d="M150.5,198.9a31.11,31.11,0,0,0-.25,4.35,37.87,37.87,0,0,0,.7,6.6q-4,1.14-11.82.9a99.42,99.42,0,0,1-16-1.78q-7.76-1.5-11-3.65a23.22,23.22,0,0,0,.47-4.12c0-.23-.17-1.85-.5-4.85l-.22-1.1q2.41.47,7.92,1.45a115.13,115.13,0,0,0,21.93,2.12q6.8-.13,8.92-.25C150.52,198.71,150.51,198.82,150.5,198.9Z"/><path class="cls-3" d="M138.45,200.1q.51,9.24-.82,12.5a1.91,1.91,0,0,1-1.28,1.1q-1.54.3-7.17-1.25t-6.4-2.57a3.78,3.78,0,0,1-.78-2.33,62.52,62.52,0,0,1,1-8.2q.31-1.86.6-3c.2-.68,1.48-1,3.85-1.08h3.25q5.4,0,7,1.7A5.65,5.65,0,0,1,138.45,200.1Z"/><path class="cls-2" d="M130.1,199q4.6.19,5.28.93c.44.48.59,2,.45,4.64s-.36,4.14-.63,4.58a1.19,1.19,0,0,1-.8.4h-1.65l-.25-.05-1.45-.05a30,30,0,0,1-5-.85,1.52,1.52,0,0,1-1-1.55,36.86,36.86,0,0,1,.48-5.08c.32-2.15,1.09-3.14,2.32-3Z"/><path class="cls-4" d="M134.25,204.05a.9.9,0,0,1-.15.55.39.39,0,0,0,.15.35,1,1,0,0,0,.3-.55A.32.32,0,0,0,134.25,204.05Zm1.25.3c0,1.17-.48,1.75-1.45,1.75s-1.35-.48-1.35-1.45.47-1.65,1.4-1.65A1.19,1.19,0,0,1,135.5,204.35Z"/><path class="cls-5" d="M135.3,203.5a5.73,5.73,0,0,1,1.7.35.81.81,0,0,1,.4.8q0,1.35-1.65,1.35-2.4,0-2.4-1.35a1.34,1.34,0,0,1,.33-.87C133.9,203.5,134.45,203.41,135.3,203.5Z"/></g></g></svg>