<svg xmlns="http://www.w3.org/2000/svg" xmlns:xlink="http://www.w3.org/1999/xlink" viewBox="0 0 300 300"><defs><style>.cls-1{fill:none;}.cls-2{clip-path:url(#clip-path);}.cls-3{opacity:0.5;}.cls-4{clip-path:url(#clip-path-2);}.cls-5{fill:#9fad6c;}.cls-5,.cls-6,.cls-7{fill-rule:evenodd;}.cls-6{fill:#ad8151;}.cls-7{fill:#936c3a;}</style><clipPath id="clip-path"><path class="cls-1" d="M116.88,76q-7.57,1.24-10.18,7.18-3.65,8.35-5.6,12.1-6.69,12.8-9.53,18.2c-1.88,3.61-2.85,6-2.89,7.3a10.2,10.2,0,0,0,.22,3c.2.75,1.58,2.5,4.15,5.23a86.09,86.09,0,0,0,8.42,7.15,94.45,94.45,0,0,0,14.33,9q8.17,4.24,9.75,4.6a20,20,0,0,0,4.65.2q3.08-.14,15.6-4.53t14.3-5.95a13.08,13.08,0,0,0,2.92-3.2,16.93,16.93,0,0,0,2.13-4.65q.65-2.34,1.78-10.38a152.88,152.88,0,0,0,1.12-20.52,71.18,71.18,0,0,0-.7-10.65A16.29,16.29,0,0,0,165.5,85c-.54-1.39-2-3.22-4.45-5.5s-7.64-3.76-15.65-4.43c-3-.2-6-.31-9.09-.31A153.77,153.77,0,0,0,116.88,76"/></clipPath><clipPath id="clip-path-2"><rect class="cls-1" x="89.56" y="81.61" width="79.35" height="63.21"/></clipPath></defs><title>Plan de travail 50</title><g id="objet04"><g class="cls-2"><g class="cls-3"><g class="cls-4"><path class="cls-5" d="M94.13,92.77c31.15-21.76,75.14-5,74.79-5s-8.21,56.71-8.21,56.71c-10.57,5.12-7.37-51.12-7.37-51.12a16.19,16.19,0,0,1-11.87,4.21c-7-.64-4.66-4.45-4.66-4.45s-2.11,12.06-15,10.58S114,96.94,114,96.94s-6.35,7.83-18.62,1.06-1.22-5.23-1.22-5.23"/></g></g></g><path class="cls-6" d="M114.85,69.9a37.81,37.81,0,0,0,5.9.4v-.15s2.62-.12,7.85-.25a98,98,0,0,0,15.65-1.85,41.7,41.7,0,0,0,6.3-1.8q2.85-.6,10.7,0a13,13,0,0,1,7.45,5.15,11,11,0,0,1,2.35,6.3,3.12,3.12,0,0,1-.05.55q3.56-.73,5.55,3.4a7.17,7.17,0,0,1,.75,2.95,33,33,0,0,1,.2,3.45l-.45,20.3c.08.56.19,1.62.35,3.18-2.51.61-4.4,1.07-5.68,1.4.33,4.1.59,7.49.81,10.17a14.24,14.24,0,0,1,3.57-2.1q5.51-2.35,5.5,1a9.7,9.7,0,0,1-.23,2.38,15.21,15.21,0,0,1,3.53-.88,9.33,9.33,0,0,1,6.1.8q2.81,1.55,2.8,5.3a9.31,9.31,0,0,1-2.1,5.6,9.78,9.78,0,0,1-8.4,3.95,9.11,9.11,0,0,1-4.93-1.27,11.75,11.75,0,0,1-1.27,3.47,7.53,7.53,0,0,1-7,4.15q-9.95,0-13.4-9.65a26.25,26.25,0,0,1-1.4-6.8c-.07-2.17-.1-3.33-.1-3.5,0-.53,0-1.82.15-3.85q.19-3.75.45-5.85V101.65q.1-9.8.25-14.4c0-1.18.11-2.25.2-3.2q-5.87,9-12.9,9a7.83,7.83,0,0,1-6.45-3.4c-.22-.27-.42-.54-.6-.8a35.88,35.88,0,0,1-1.65,3.9q-4,8.25-11.1,8.25a7.4,7.4,0,0,1-6-3.3,12,12,0,0,1-2.2-4.75V92.8a29.88,29.88,0,0,1-4.35,3.25,13.22,13.22,0,0,1-6.6,1.6,4.19,4.19,0,0,1-3.55-1.5c-.47-1-.7-1.57-.7-1.6a7.56,7.56,0,0,1,1.1-3.2c.37-.73.92-1.7,1.65-2.9q-6.15,1-8.4-1.75a5.2,5.2,0,0,1-1.15-3.5,13.23,13.23,0,0,1,2.25-7.55q4.16-6.15,14.4-6.15a29.19,29.19,0,0,1,4.95.4"/><path class="cls-7" d="M131,119.13l-.12-.23a10.36,10.36,0,0,1-.65-1.5l1.3-.22q5.37-.9,15.8-2.28v-.1l.85.25c-.83.37-3.43,1.13-7.8,2.3a56.86,56.86,0,0,1-8.1,1.85c-.48,0-.9,0-1.28-.07m-10.15,25.72a7.63,7.63,0,0,0-.07,1.1c0,1.57,0,3.19-.21,6a6.83,6.83,0,0,1-1-.16,9.79,9.79,0,0,1-1.18-2.1c-.15.57-.31,1.26-.47,2a1.55,1.55,0,0,1-.5-.95c-.07-.37-.1-.57-.1-.6a3.81,3.81,0,0,1,1.13-2.92,3.08,3.08,0,0,1,.37-.53l.22-.15c-.62.32-1.36.69-2.22,1.1l-.4-.25a13.28,13.28,0,0,1,2.35-1.55,11.72,11.72,0,0,1,2.12-1m-4.44-26Q112.14,116,104.1,111q7.13,2.88,13.15,5.17c-.08.27-.17.55-.25.85s-.25.73-.62,1.75"/></g></svg>