<svg xmlns="http://www.w3.org/2000/svg" viewBox="0 0 300 300"><defs><style>.cls-1{fill:#e7eff2;}.cls-1,.cls-2,.cls-3,.cls-4{fill-rule:evenodd;}.cls-2{fill:#b9cfd6;}.cls-3{fill:#9aadb2;}.cls-4{fill:#d3dfe2;}</style></defs><title>Plan de travail 57</title><g id="objet05"><path class="cls-1" d="M123,161.25c-.54-.52-1.26-1.19-2.15-2s-1.26-1.46-1.13-2c-2.59-2.44-6-5.85-10.3-10.26q-13.42-13.84-14-14.57c-.34-.49-.69-.93-1-1.33-.57-.7-1.23-.73-2-.1a2.54,2.54,0,0,0-.53.65,6.42,6.42,0,0,0-2-3.6q-.48,3.69-2.42,11.55c-.13.53-.26,1-.4,1.53.65.09,1,.15,1,.17a3.28,3.28,0,0,0,.75.35c.32,1.91.59,3.58.83,5a80.35,80.35,0,0,1,13.47,6.4,77.6,77.6,0,0,1,8,5.9q3.26,2.82,11.4,11.38l.12.12a35.86,35.86,0,0,0,1.53-4.3c.25-.93.46-1.77.64-2.53L123,161.25"/><path class="cls-2" d="M110.65,154.8l2.25,2.1c.13.1.85.73,2.15,1.9.8.73,1.43,1.35,1.9,1.85s.77.89,1.13,1.33L111.7,151.8h.15a82.36,82.36,0,0,1,8.4,12.9,32,32,0,0,1,2.4,3.6l-.3.3q-9.15-9.34-13.9-14.85a3.62,3.62,0,0,1,2.2,1.05m-16.43-19a5.12,5.12,0,0,1-4,4.75,21.76,21.76,0,0,0,1.25-2.85,10.94,10.94,0,0,0,.75-3.3l-.3-2.8c0-.57.3-.75.9-.55a2,2,0,0,1,1.23.95,10.81,10.81,0,0,1,1.32,3.45,19.12,19.12,0,0,1,.4,3.9V141a6.69,6.69,0,0,1-.45,1.7h-.3a44.65,44.65,0,0,0-.7-6.05c0-.28-.09-.54-.13-.8"/><path class="cls-1" d="M164.33,161c-1.26-.41-4-1.35-8.28-2.8q-.26.41-.6.9a10.92,10.92,0,0,1-1.55,2.1.76.76,0,0,1-.8-.65,1.75,1.75,0,0,1,0-.85l-.1-.1q-9.7,6.69-13.65,12.1c-.93,0-1.82-.7-2.65-2.1a13.47,13.47,0,0,1-1.17-3.92,4.09,4.09,0,0,1,.1-1.6q6.76-6.48,19.5-13.58c2-.72,5-.77,9.05-.17s6.37,1.27,6.95,2q-1.15,2.94-1.83,4.32a12.78,12.78,0,0,1-1.15,1.85l-.1.1a9.24,9.24,0,0,1-3.72,2.4"/><path class="cls-2" d="M167.8,155.25a9,9,0,0,1-3.45,1.05,2.68,2.68,0,0,1-.85-.15c.47-.23,1.83-.77,4.1-1.6.87-.3,1.57-.57,2.1-.8a8.23,8.23,0,0,1,1.4-.85q0,1-2.9,3.3-3.3,2.66-6.15,2.65l-1.1-.1-.2-.35a17.89,17.89,0,0,1,2.8-1,12.44,12.44,0,0,0,3.25-1.4c.18-.12.51-.37,1-.75M155.4,152a14.48,14.48,0,0,0-1.07,6.68,14.55,14.55,0,0,1,1.72-3.53c1.43-2.3,2.77-3.38,4-3.25l.1.3q-3.75,6.25-5.85,7.9a.48.48,0,0,1-.15-.1v-.2q-.63-.09-1.05-1.35c-.17-.87-.25-1.32-.25-1.35a9,9,0,0,1,.6-2.9c.5-1.47,1.15-2.2,2-2.2M140.28,168.7l-.08-.25c0-.63,1.1-2.37,3.3-5.2a28.54,28.54,0,0,1,4.25-4.85c-.81,1.3-2,3.12-3.67,5.48a37.75,37.75,0,0,1,5.32-4.73q-1.5,1.5-5.5,6.15a36.88,36.88,0,0,1-4.3,4.5c.22-.37.45-.73.68-1.1"/><path class="cls-2" d="M173.72,148.15c1.45,1.4,3,2.82,4.56,4.28q-1.12,1.51-5.38,6.07c-3.6,3.85-5.71,5.9-6.32,6.18a52.07,52.07,0,0,0-5.68-2.13q2.44-2.62,5.6-6.15,4.47-5,7.22-8.25M79.1,140.28a28.6,28.6,0,0,0,2.15-6.58c1-5.4,1.48-8.32,1.55-8.75.25-1.74.43-3.45.53-5.15,1.19.27,3,.77,5.44,1.48,0,2.56,1.63,4.54,2.77,6,0,.31,0,.62,0,.93a33.12,33.12,0,0,1-1,7.6,29.16,29.16,0,0,1-2.6,7.3c-.45.86-1,1.81-1.65,2.83q-4.06-3.36-7.25-5.7"/><path class="cls-3" d="M150.15,220.35c-.2-.42-.47-1-.8-1.63a37.49,37.49,0,0,0-5.6-5.39l-.52-.37a9.07,9.07,0,0,1-1.56,1.09,20.14,20.14,0,0,1-10.52,2.18A14.34,14.34,0,0,1,120.6,211c-.23-.26-.44-.54-.65-.81q-6.39,6.31-11.75,11,3.78,5.61,16,8.85c1.53-1.22,3.48-2.76,5.85-4.6v.15c.36,1.71.69,3.31,1,4.8q15.57-1.17,20.78-6.32c-.69-1.68-1.23-2.92-1.63-3.73"/><path class="cls-1" d="M144.17,168.75q4.28,11.88,6.4,36.88c.1.15-.06.54-.47,1.17a1.62,1.62,0,0,1,1.3.4.92.92,0,0,1,.25.6,1.31,1.31,0,0,1-.85,1.15c-.57.27-.85.5-.85.7v.2a4.16,4.16,0,0,1,3.45,2c1.73,2.53,2.88,4,3.45,4.3a47.78,47.78,0,0,1,3.75,4,33.12,33.12,0,0,1,3,3.7,8.71,8.71,0,0,1,.6.7,10,10,0,0,1,.92,1.38s0,0-.07,0a16,16,0,0,0-7.4.9,15.16,15.16,0,0,0-5.05,2.85,43.65,43.65,0,0,1-3.75,3.25,23.61,23.61,0,0,0-3.1,2.85,1,1,0,0,1-.3-.2h-.13c-1.3-2.86-2.1-4.68-2.42-5.45q-1.5-3.65-5.55-12.2c-1.27-2.83-2.18-4.87-2.75-6.1a6.27,6.27,0,0,0-.43-.9,2.77,2.77,0,0,0-.22-.37c-.07-.81-.1-1.72-.1-2.73l.5-14.1,0-.45q0-3.82,0-8.12.1-26,.1-26c.67-.29,1.45-.59,2.35-.9s2.06-.67,3.15-1q.75,1.89,4.22,11.55"/><path class="cls-2" d="M143.05,208.2l5.25-.15-.65.3c-.17.07-1.83.17-5,.3l-.05-.1ZM141.7,211c0-.53,1.28-1.1,3.85-1.7s4.1-.65,4.6-.15q-3.35,2.7-5.4,4.1l-.5-.45c0-.3.35-.77,1.05-1.4a16.69,16.69,0,0,1,2-1.45l.1-.05a10,10,0,0,0-2.75.7,23.52,23.52,0,0,1-2.5.85Z"/><path class="cls-4" d="M137.5,163.58c-1.37-2-2.46-3.7-3.25-5.13a.84.84,0,0,1,.05-.2q3.63-1,7.2-5.45h.17l1.23,1.85a4.93,4.93,0,0,1,.1,1q-5.15,7.91-5.4,7.9l-.1,0"/><path class="cls-4" d="M151.22,197.7l.43.5a62.22,62.22,0,0,0,4.95,4.9l1,.88q-3.63.51-11.95,1.37h-4.9c-.18-.8-.32-1.38-.4-1.75-.14-.57-.26-1.12-.38-1.62-.05-.89-.07-1.68-.07-2.38v-.7h.15l.67-.1,0,0,.3-.1q3.38-.41,10.17-1.05"/><path class="cls-1" d="M126.2,176.3c-.33-6.17-.5-10-.5-11.45,0-.08,0-.15,0-.23-.79-1-1.68-2.11-2.69-3.37l-.37-.35q-1.48.36-2.18,4.35c-.7,4-1.14,7-1.32,8.95s-.54,4.75-1.08,8.48-1.13,7-1.77,9.94-1.4,4.8-2.25,5.68a7.6,7.6,0,0,0-1.73,2.45,6.72,6.72,0,0,0,1.4,2.55,2.81,2.81,0,0,0-1.9.35c-.07.07-.1.23-.1.5a5.7,5.7,0,0,0,.8,1.9q0,1-7.55,5.6t-7.55,5c0,.17,1.75,1.48,5.25,3.95s5.25,3.65,5.35,3.65q1.6,0,7-4.8,4.2-3.7,7.4-6.67t3.65-17.58q.45-14.58.33-15.8c-.09-.81-.16-1.84-.23-3.1"/><path class="cls-2" d="M117.75,203.1c2.07.6,3.2,1.15,3.4,1.65a1.26,1.26,0,0,1-.85.45,18.15,18.15,0,0,0-2.75-.6c.27.23,1,.8,2.1,1.7v.4a.47.47,0,0,1-.45.2,5.65,5.65,0,0,1-2.6-1.45,9.18,9.18,0,0,1-2.5-2.65c.37-.4,1.58-.3,3.65.3m-2.45,7.25v.75l-.45.15c-.07.13-.1.07-.1-.2-.2-1.33-.32-2.32-.35-3l.15,0a3.58,3.58,0,0,1,.5,1.15,5,5,0,0,1,.25,1.15m1.35.2a1.93,1.93,0,0,1-.45.7,21.59,21.59,0,0,1-1.2-2.5,6.59,6.59,0,0,0-1.9-2.6c1-.2,1.87.33,2.6,1.6a5.52,5.52,0,0,1,1,2.8m-3.3.2a1,1,0,0,1-.3-.65.46.46,0,0,1,.3-.5.73.73,0,0,1,.2.6.65.65,0,0,1-.2.55"/><path class="cls-4" d="M123,161.25c-.47-.45-1.07-1-1.79-1.67a3.07,3.07,0,0,0-.69-.2l-1,1.32-.58.78,0,.07q.8,1.35,1.35,2.4c.55,1.11,1.22,2.39,2,3.85a10,10,0,0,0,1.45-2.1,22.27,22.27,0,0,0,1.12-2l-1.92-2.4"/><path class="cls-4" d="M109.47,197c.86-.43,1.77-.91,2.73-1.45,1.44-.81,2.64-1.55,3.63-2.22.71.64,1.54,1.36,2.47,2.17s1.92,1.62,2.78,2.28a1.93,1.93,0,0,1-.13.32c-1,1.07-1.63,1.75-2,2l-2,1.8a3,3,0,0,1-.92-.3,64.5,64.5,0,0,0-5.6-3.8c-.42-.25-.82-.49-1.2-.7l.22-.15"/><path class="cls-4" d="M164.65,150.45a.88.88,0,0,1,.35-.4l.15-.05-.35.65h-.15Zm-59.95,3-.5.5-.3,0a1.42,1.42,0,0,1,.8-.45m.4,1.65v-.2a1.93,1.93,0,0,1,.9-1c0,.1.08.23.15.4a.66.66,0,0,1-.15.4,2.7,2.7,0,0,0-.3.35l-.25.05Zm-7-17.7-.3-.1a2.7,2.7,0,0,1,.65-1.15c.33-.43.57-.67.7-.7a.71.71,0,0,1,.25.5c0,.17-.17.43-.5.8a1.86,1.86,0,0,1-.8.65m49.5,16.65a.82.82,0,0,1,.75.6c.07.23.15.53.25.9,0,.1-.13.15-.4.15s-.32-.18-.45-.55a2,2,0,0,1-.2-.65Zm2.2-.1c0,.27,0,.4-.1.4l-.15.15a3.1,3.1,0,0,1-.35-.9,3.79,3.79,0,0,0,.15-.7h.15a7.24,7.24,0,0,0,.3,1m-.9,31a3.3,3.3,0,0,1-.6.35,1.81,1.81,0,0,1-.55.25l-.05-.1a2.15,2.15,0,0,1,.55-.45,1.67,1.67,0,0,1,.55-.2Zm-1.3,2.1a3.73,3.73,0,0,1,1.3-.75l.3.2-.5.4a2.14,2.14,0,0,1-1,.3Zm13.15,31.5a4.36,4.36,0,0,1-.8.4l-.6.2a.54.54,0,0,1-.3-.05L159,219c0,.13-.05.08-.05-.15s.22-.3.65-.4a2.27,2.27,0,0,1,1.05,0Zm-2.05-.6-.3-.15a1.11,1.11,0,0,1,.35-.4.8.8,0,0,1,.35-.2l.15.2Zm-40.35-32.4-.35.15h-.7a.87.87,0,0,1-.15-.6c.17-.1.55,0,1.15.3Zm-.65,1.65,0,.15c0,.1-.13.17-.3.2s-.5,0-.6-.1a1.53,1.53,0,0,0-.15-.25,2,2,0,0,1,.45-.1l.55.1m-15,26.9a2.28,2.28,0,0,1-1.2-.4,1.71,1.71,0,0,1-.75-.7,3.37,3.37,0,0,1,2,1.1m2.4,8.55a.61.61,0,0,0,.15-.3c.07-.07.23-.08.5,0a1.42,1.42,0,0,1-.5.45l-.15.05Zm.9.75-.4-.05a1.74,1.74,0,0,1,.7-.7l0,.25Zm12.7,4.8a.68.68,0,0,1,1-.2,5.33,5.33,0,0,1-.45.55,2.22,2.22,0,0,1-.85.5c.23-.53.35-.82.35-.85m30.35,4q0-.15-.3-.45a1.53,1.53,0,0,1,1.2.35.21.21,0,0,1,0,.15c0,.07-.08.1-.25.1Z"/></g></svg>