<svg xmlns="http://www.w3.org/2000/svg" xmlns:xlink="http://www.w3.org/1999/xlink" viewBox="0 0 300 300"><defs><style>.cls-1{fill:none;}.cls-2{clip-path:url(#clip-path);}.cls-3{opacity:0.5;}.cls-4{clip-path:url(#clip-path-2);}.cls-5{fill:#9fad6c;}.cls-5,.cls-6,.cls-7,.cls-8{fill-rule:evenodd;}.cls-6{fill:#ad8151;}.cls-7{fill:#936c3a;}.cls-8{fill:#635e59;}</style><clipPath id="clip-path"><path class="cls-1" d="M116.88,76q-7.57,1.24-10.18,7.18-3.65,8.35-5.6,12.1-6.69,12.8-9.53,18.2c-1.88,3.61-2.85,6-2.89,7.3a10.2,10.2,0,0,0,.22,3c.2.75,1.58,2.5,4.15,5.23a86.09,86.09,0,0,0,8.42,7.15,94.45,94.45,0,0,0,14.33,9q8.17,4.24,9.75,4.6a20,20,0,0,0,4.65.2q3.08-.14,15.6-4.53t14.3-5.95a13.08,13.08,0,0,0,2.92-3.2,16.93,16.93,0,0,0,2.13-4.65q.65-2.34,1.78-10.38a152.88,152.88,0,0,0,1.12-20.52,71.18,71.18,0,0,0-.7-10.65A16.29,16.29,0,0,0,165.5,85c-.54-1.39-2-3.22-4.45-5.5s-7.64-3.76-15.65-4.43c-3-.2-6-.31-9.09-.31A153.77,153.77,0,0,0,116.88,76"/></clipPath><clipPath id="clip-path-2"><rect class="cls-1" x="103.29" y="78.36" width="69.88" height="34.12"/></clipPath></defs><title>Plan de travail 35</title><g id="objet03"><g class="cls-2"><g class="cls-3"><g class="cls-4"><path class="cls-5" d="M103.29,82.62s1.18,12.78,15.52,16.56,43.81,8.74,50.46,13.3l3.91-17.73s-64.67-26.47-69.89-12.13"/></g></g></g><path class="cls-6" d="M119.9,70.7q1.91-2.28,9.3-8,5-3.86,13.4-9.45,6.56-4.39,17.6-6.77t11.05,3.62q0,1.69-2.75,5.85t-2.75,5.7v.1h.15s1.58-.58,4.65-1.75q5-1.8,7.2-1.75a4.86,4.86,0,0,1,3.7,2.9,7.47,7.47,0,0,1,.7,3.3q0,3-2.8,8c-2.17,3.57-3.58,6-4.25,7.15q-2.35,5.25-3.9,8.5A24,24,0,0,1,168,93.7a1.68,1.68,0,0,1-.62,1.15,2.6,2.6,0,0,1-1.6.45q-18.45-9-23.95-11.55l-12.45-5.7q-10.25-5-10.25-6.1a1.22,1.22,0,0,1,.8-1.25"/><path class="cls-7" d="M165.75,63.05a5.43,5.43,0,0,1,.13-1.22c.36-.11.72-.24,1.07-.38q.21.51.6,1.5a4,4,0,0,0,2.7,1.9,2,2,0,0,1-.25.4,1.4,1.4,0,0,1-1.15.5,2.9,2.9,0,0,1-2.4-1.25,2.64,2.64,0,0,1-.7-1.45"/><path class="cls-8" d="M112.35,74.3c.5-.76,2.12-3.09,4.87-7l.28.07q6.15,2,13.75,5.3,14.5,6.45,15.35,6.85a102.82,102.82,0,0,1,12.65,6.6q3.31,2.17,13.85,9.13a2.34,2.34,0,0,1-2.15.87q-9,0-36-7.45Q114.2,83,109.2,80q1.44-2.57,3.15-5.68"/><path class="cls-6" d="M90.3,67.9q6,.15,20.35,8.5,17.58,10.36,34,13a54.11,54.11,0,0,0,9.1.8A33.77,33.77,0,0,0,167.1,87.5q6.45-2.75,10.25-2.75,4.65,0,9.5,8.5a58.8,58.8,0,0,1,4.15,8.8,60.91,60.91,0,0,0,7.3,9.9q4,4.8,4,7.45a4.84,4.84,0,0,1-1.6,3.6q-2.2,2.06-6.55,2-5.67,0-17.4-4.5,10.09-8,10.1-9.15a.39.39,0,0,0-.25-.4,7.75,7.75,0,0,0-2.55-.25,14.51,14.51,0,0,0-2.75.2,10.45,10.45,0,0,1-1.65.2c-2.43.3-5.66.89-9.67,1.78l-2.63.57c0-.27,0-.55.07-.85q.53-6.53.6-7.32c0-1-.11-2-.17-3.15q-15.09-3.39-21-4.93-16.46-4.25-25.15-7.4a98.67,98.67,0,0,1-14.68-6.65,39.93,39.93,0,0,1-2.42,5.3q-1.38,2.77-3.8,7.2c-.77-.5-1.53-1-2.3-1.55A58,58,0,0,1,89.75,87a26.2,26.2,0,0,1-3.6-5.7,15.08,15.08,0,0,1-1.85-6.1q0-7.45,6-7.3"/><path class="cls-7" d="M87.65,75.15a4.43,4.43,0,0,1,1.1-1.5h1.78q5.2,1.29,12.52,6.3c1.57,1.07,3.08,2.15,4.55,3.23a2.94,2.94,0,0,1,.05.35l-.57-.33a42,42,0,0,1-2.43,5.3q-1.14,2.28-3,5.68c-.58-.74-1.26-1.56-2-2.48q-5.36-6.35-5.9-7.8c-.1-.23-.38-1.5-.85-3.8a6.84,6.84,0,0,0-1.8-3.6q-2.68-1-4,.85c0-.32,0-.64,0-.95a4.88,4.88,0,0,1,.6-1.25m80.25,27q.32,0,13.93,4.3a45.87,45.87,0,0,1,8.57,4.15c1.57,1.1,3.32,2.44,5.22,4a45.22,45.22,0,0,1,4.41,4.28c.44.84.18,1.95-.78,3.32a2.19,2.19,0,0,0-.1-1c-.2-.43-.78-.65-1.75-.65a35,35,0,0,0-3.7.45c-2.1.33-3.43.52-4,.55h-4.8a36.78,36.78,0,0,1-6.55-1q-.63-.24-1.2-.42,9.75-7.78,9.75-8.88a.39.39,0,0,0-.25-.4,7.75,7.75,0,0,0-2.55-.25,14.51,14.51,0,0,0-2.75.2,10.45,10.45,0,0,1-1.65.2c-2.43.3-5.66.89-9.67,1.78l-2.63.57c0-.27,0-.55.07-.85q.53-6.53.61-7.32-.09-1.45-.18-3.15M128.22,91.55l.75.68-.82-.25a1.61,1.61,0,0,0,.07-.43"/><path class="cls-7" d="M99.9,69.85a3.8,3.8,0,0,1-.55,1,8.43,8.43,0,0,1-.75,1.05c-.17,0-.25-.15-.25-.55a2.32,2.32,0,0,1,.45-1,2.87,2.87,0,0,1,.85-1,.65.65,0,0,0,.2.15,1,1,0,0,1,.05.45M146.75,52.5c.13.13,0,.2-.45.2-.23,0-.5-.35-.8-1.05a4.35,4.35,0,0,1-.4-1.1V50.2q.1,0,.15-.15a1.4,1.4,0,0,1,1.05.75c.07.13.25.52.55,1.15Zm-4.6.85a2.07,2.07,0,0,1-.35-.6l.1-.45a1.67,1.67,0,0,1,.85.45,1,1,0,0,1,.3.9l-.4.3c-.1,0-.27-.23-.5-.6m33.5,5.7a1,1,0,0,1-.1.55c0,.07-.13.13-.3.2-.33.23-.5.13-.5-.3a5.49,5.49,0,0,1,.05-.7,1,1,0,0,1,.6-.85,3.87,3.87,0,0,1,.25,1.1m5.6,8.35c1,.07,1.52.23,1.65.5l-1.85-.25a.28.28,0,0,1,.1-.2Zm-17,1a1.26,1.26,0,0,1,.3.15c.07.07.1.23.1.5a1,1,0,0,1-.05.45s0,.08-.1.15l-.25.15a2.18,2.18,0,0,1-.4-.2c-.07-.07-.1-.23-.1-.5s0-.48.1-.55a1.63,1.63,0,0,1,.4-.15m5.65,1.5a1.64,1.64,0,0,1,.65.55c0,.5-.33.87-1,1.1a3.06,3.06,0,0,1-.65-.75c0-.1.13-.28.4-.55s.47-.38.6-.35M191.4,99a6.81,6.81,0,0,1-1,1c-.63.5-1.07.72-1.3.65-.07.17-.1,0-.1-.4a1.6,1.6,0,0,1,.75-1.15,1.47,1.47,0,0,1,1.5-.45Zm-2.05-1.4a1.46,1.46,0,0,1-.4.85A1.25,1.25,0,0,1,188,99c-.17.3-.25.23-.25-.2a2.29,2.29,0,0,1,1.35-1.65c0,.07.1.1.2.1s0,.12,0,.35m-22-5.2a1.07,1.07,0,0,1-.35-.2.77.77,0,0,1-.15-.55c0-.57.17-.9.5-1a1.76,1.76,0,0,1,.5,1.5Zm13.7,8,.05-.4a3.06,3.06,0,0,1,.75,0l.1.4a.57.57,0,0,1-.4.35h-.4c-.07,0-.1-.13-.1-.4m-28.7-7a1.81,1.81,0,0,1-.5.5c-.33,0-.52-.08-.55-.25a1.42,1.42,0,0,1,.9-.45Zm.3,1a2,2,0,0,1,1.15-1s.07.08.2.15a.88.88,0,0,1,.05.4c0,.43-.07.7-.2.8.13.13,0,.2-.45.2a.65.65,0,0,1-.55-.2,3.63,3.63,0,0,0-.2-.35M88.75,84.05c0,.23-.48.7-1.45,1.4a.69.69,0,0,1-.3-.1c-.07,0-.1-.18-.1-.45s.22-.33.65-.6a3.09,3.09,0,0,1,1-.55l.1,0c.07,0,.1.12.1.35m-1.15-2.5a.88.88,0,0,1,.05.4,1.11,1.11,0,0,1-.35.8,1.55,1.55,0,0,1-1.15.4.91.91,0,0,1-.5-.1L85.6,83a.48.48,0,0,1-.15-.1c-.07,0-.1-.18-.1-.45s.28-.52.85-.75a1.53,1.53,0,0,1,1.3-.1Z"/></g></svg>