<svg xmlns="http://www.w3.org/2000/svg" viewBox="0 0 300 300"><defs><style>.cls-1{fill:#c9edf4;}.cls-1,.cls-2,.cls-3,.cls-4,.cls-5,.cls-6{fill-rule:evenodd;}.cls-2{fill:#88cfe2;}.cls-3{fill:#ffba00;}.cls-4{fill:#fff;}.cls-5{fill:#ffce00;}.cls-6{fill:#333;}</style></defs><title>Plan de travail 29</title><g id="objet02"><path class="cls-1" d="M154.9,201.75c.19-2.24.39-3.91.6-5L167.1,195q4-.56,14.9-1.4l2.63-.27.07,0h.05v0a2.28,2.28,0,0,1,.3.17,6.87,6.87,0,0,1,1.95,1.8c.2.33.63,1,1.3,2a14.88,14.88,0,0,1,1.25,1.95A19.6,19.6,0,0,1,191,203.2a15.8,15.8,0,0,1,.4,3.75,17.41,17.41,0,0,1-2.65,9.5q-4.8,7.8-16.9,7.8-12.56,0-16.1-6.85-1.31-2.44-1.3-8.85.15-3.5.45-6.8"/><path class="cls-2" d="M178,172.93c.17.89.3,1.83.4,2.82,0,.16,0,.31,0,.46,3.3,2,5,6.56,5,13.84a11.81,11.81,0,0,1-.3,2.15v.08l1.5-.2a25.51,25.51,0,0,0,.7-3.48,36.9,36.9,0,0,0,.4-4.85,11.29,11.29,0,0,0-2-6.55,11.74,11.74,0,0,0-5.7-4.27"/><path class="cls-2" d="M159.76,174.8a13.43,13.43,0,0,0-2.11,2.15,12.8,12.8,0,0,0-2.85,7.85,29.26,29.26,0,0,0,.8,6.45,23.75,23.75,0,0,0,1.18,3.8l2.25-.2a2.11,2.11,0,0,1,0-.25,32.69,32.69,0,0,0-.8-4,26.14,26.14,0,0,1-.85-6.07c0-1.4.87-3,2.59-4.78a22.59,22.59,0,0,1-.24-4.5c0-.14,0-.26,0-.4"/><path class="cls-3" d="M154.33,197.88c-.07-.26-.12-.5-.18-.73-.17-.67-.42-1.51-.72-2.52l14.07-1.33-.3-.9c0-1.07.4-1.43,1.2-1.1a1.69,1.69,0,0,1,1.15,1.65,1.41,1.41,0,0,1,0,.18l.19,0a3,3,0,0,1,1.43-1.9c1-.63,1.45-.43,1.45.6a2.83,2.83,0,0,1-.63,1.08l15.68-1.5c-.05.77-.09,1.63-.12,2.57q-6.36.93-20.18,2.5l-13,1.43"/><path class="cls-2" d="M173.6,203.6c-.49-.19-1-.34-1.43-.48a9.47,9.47,0,0,1-.67-.72.27.27,0,0,0-.08-.07c-.13-.55-.22-1-.27-1.18s-.19-.82-.37-1.47a3.78,3.78,0,0,1,1.82-.48q7.65,0,9.65,5.1a15,15,0,0,1,.53,1.8l-.18.18,0,0a33.31,33.31,0,0,0-2.7,2.07c-.82-1.9-2.91-3.49-6.25-4.77"/><path class="cls-4" d="M175.6,203.15a15.26,15.26,0,0,1,4.3,5c1.53,2.47,2.3,4.38,2.3,5.75a1.31,1.31,0,0,1-.33.73,4.13,4.13,0,0,1-1.37,1.92,5.05,5.05,0,0,1-3.45,1.45c-1.33,0-2.2-.38-2.6-1.15a8.63,8.63,0,0,0-.45-1.75,13.67,13.67,0,0,1-.9-2.67,9,9,0,0,1-5.35,1.82,3.88,3.88,0,0,1-3.55-1.65,3.31,3.31,0,0,1-.55-1.85q0-4.35,4.8-7t7.15-.6"/><path class="cls-5" d="M171,203.55c0,.73-.38,1.1-1.15,1.1a.89.89,0,0,1-.9-.8v-.07c-.69-.82-1.93-2.34-3.7-4.58,0-1,.9-.82,2.7.65a9.93,9.93,0,0,1,2.22,2.35,1.23,1.23,0,0,1,.83,1.35"/><path class="cls-6" d="M171.1,208c-.5,0-.75-.28-.75-.85a1,1,0,0,1,1-1.15c.63-.1.95.12.95.65a1.67,1.67,0,0,1-.25.8,1,1,0,0,1-.9.55m-2.2-1.6a1,1,0,0,1-.8.4.58.58,0,0,1-.5-.3.61.61,0,0,1-.15-.35,1,1,0,0,1,.2-.55.92.92,0,0,1,.8-.45.58.58,0,0,1,.65.65,1.1,1.1,0,0,1-.2.6"/><path class="cls-4" d="M171.45,207.9a.28.28,0,0,1-.2-.1l-.05-.15c0-.27.13-.33.4-.2v.4Zm-.4-1.85c.33,0,.5,0,.5.25s-.2.45-.6.45a.36.36,0,0,1-.35-.2l0-.2c0-.17.17-.27.5-.3m-.45.9c.17,0,.23.07.2.2a.49.49,0,0,1-.1.2c-.1.1-.17.15-.2.15l-.2-.05-.05-.15a.31.31,0,0,1,.35-.35m-2.1-.8.15.2-.1.3c-.2-.07-.3-.15-.3-.25a.22.22,0,0,1,.25-.25m-.85.25-.2-.05v-.25c.07-.07.23-.1.5-.1v.25Zm-.05-.9c0-.23.15-.37.45-.4s.4.07.4.3a.35.35,0,0,1-.4.4q-.45,0-.45-.3"/></g></svg>