<svg xmlns="http://www.w3.org/2000/svg" viewBox="0 0 300 300"><defs><style>.cls-1{fill:#39f;}.cls-1,.cls-2{fill-rule:evenodd;}.cls-2{fill:#2075ba;}</style></defs><title>Plan de travail 64</title><g id="objet06"><path class="cls-1" d="M55,247.08a6.93,6.93,0,0,1,.27-.93l1.62-.15q6.77-.6,16.93-1.8,9.42-1.11,12.9-1.65,7.14-6.66,12.85-7.25c1.84.93,3.13,3.48,3.85,7.65.94-.19,1.93-.36,3-.5,1.2-.25,2.22-.48,3-.67a16.54,16.54,0,0,0,.75-1.5,4.52,4.52,0,0,1,1.55-2c.57-.37.82-.49.75-.38a30.66,30.66,0,0,1,.78,3.8c.21,1.47.32,2.23.35,2.28a32,32,0,0,1-3.58.67c-3.52.55-7.27,1.24-11.25,2.1q-2.7.66-12.75,3.9a161.77,161.77,0,0,0-19.72,7.78l-.7-.33c2.88-2.25,4.17-4,3.87-5.15q0-2.05-10.8.5l-.35-.3.4-.15q5.89-2.25,5.78-3.55t-4.56-2a24.53,24.53,0,0,0-4.94-.35"/><path class="cls-2" d="M66.6,245.8c.93-.07,2.82-.18,5.65-.35h2l-2.2.3q-5.89.6-7.8.6l-.55,0a7.85,7.85,0,0,1,2.85-.5m-1.1,4.95a51.9,51.9,0,0,1,8-2.1,47.3,47.3,0,0,1,6.7-1.3q-8.2,2.06-14.55,3.45Zm14.2.55q4.65-1.7,5.7-2l-10.45,4,0-.15a37,37,0,0,1,4.8-1.9M88,243.15a1.85,1.85,0,0,0,1,1,11.34,11.34,0,0,0,4.25.85h2.22l.93.1a6,6,0,0,1-3,.55,12.57,12.57,0,0,1-4-.55c-1.1-.4-1.65-.92-1.65-1.55a.33.33,0,0,1,.2-.3.46.46,0,0,1,.2-.1m-.15-.6a2.14,2.14,0,0,0,.07.38.41.41,0,0,1-.27.07l-.25-.05,0-.15c0-.17.13-.25.4-.25Z"/><path class="cls-1" d="M153.2,250.25q3.7-5.4,7.35-6.6,6.15.49,11.6,6.25,3.75.49,13.9,1.45Q197,252.4,204.4,252.9c.63.07,1.22.12,1.75.15a3.13,3.13,0,0,1-.1.8,35.09,35.09,0,0,0-5.7.3q-5.21.6-5.85,1.75t5.1,3a1.63,1.63,0,0,0,.4.15,1.77,1.77,0,0,1-.55.25q-11.14-2.21-11.95-.45-1.2,1.61,2.35,4.5a7.88,7.88,0,0,0-.9.3A148.53,148.53,0,0,0,169.8,257q-10.05-2.85-12.8-3.4-6.19-1.1-11.85-1.8c-2.53-.37-3.8-.57-3.8-.6a17.67,17.67,0,0,0,1.25-2,36.55,36.55,0,0,1,2.4-3.3c0-.1.2,0,.7.35a2.14,2.14,0,0,1,1,1.7l.25,1.3,3.2.6c1.13.1,2.17.23,3.1.4"/><path class="cls-2" d="M160.4,252.15l1-.1H164a20.48,20.48,0,0,0,5.1-.75,3.62,3.62,0,0,0,1.45-.85.21.21,0,0,1,.15.05.25.25,0,0,1,.15.3c-.27.53-1.08,1-2.45,1.35a21.89,21.89,0,0,1-4.75.45,7.43,7.43,0,0,1-3.25-.45m24.25,3a57.23,57.23,0,0,1,8.15,1.8l-.15.05q-6.65-1.2-15.05-3a59.06,59.06,0,0,1,7.05,1.15m-3.45,4.05L171,255.8c.73.13,2.62.7,5.65,1.7a29.31,29.31,0,0,1,4.65,1.65ZM171,250.3a.54.54,0,0,1-.3-.05,1.48,1.48,0,0,0,.25-.35h.15c.27,0,.37.08.3.25l-.1.1Zm22.5,2.45a9.64,9.64,0,0,1,3.05.4l-.7,0q-2.1,0-8.5-.5l-2.35-.25h2.3q4.65.2,6.2.3"/></g></svg>