<svg xmlns="http://www.w3.org/2000/svg" xmlns:xlink="http://www.w3.org/1999/xlink" viewBox="0 0 300 300"><defs><style>.cls-1{fill:none;}.cls-2{clip-path:url(#clip-path);}.cls-3{opacity:0.5;}.cls-4{clip-path:url(#clip-path-2);}.cls-5{fill:#9fad6c;}.cls-10,.cls-13,.cls-5,.cls-6,.cls-7,.cls-8,.cls-9{fill-rule:evenodd;}.cls-6{fill:#ffac00;}.cls-7{fill:#fcd842;}.cls-8{fill:#ce3b28;}.cls-9{fill:#e29814;}.cls-10{fill:#b5cff4;}.cls-11{clip-path:url(#clip-path-3);}.cls-12{clip-path:url(#clip-path-4);}.cls-13{fill:#fff;}</style><clipPath id="clip-path"><path class="cls-1" d="M116.88,76q-7.57,1.24-10.18,7.18-3.65,8.35-5.6,12.1-6.69,12.8-9.53,18.2c-1.88,3.61-2.85,6-2.89,7.3a10.2,10.2,0,0,0,.22,3c.2.75,1.58,2.5,4.15,5.23a86.09,86.09,0,0,0,8.42,7.15,94.45,94.45,0,0,0,14.33,9q8.17,4.24,9.75,4.6a20,20,0,0,0,4.65.2q3.08-.14,15.6-4.53t14.3-5.95a13.08,13.08,0,0,0,2.92-3.2,16.93,16.93,0,0,0,2.13-4.65q.65-2.34,1.78-10.38a152.88,152.88,0,0,0,1.12-20.52,71.18,71.18,0,0,0-.7-10.65A16.29,16.29,0,0,0,165.5,85c-.54-1.39-2-3.22-4.45-5.5s-7.64-3.76-15.65-4.43c-3-.2-6-.31-9.09-.31A153.77,153.77,0,0,0,116.88,76"/></clipPath><clipPath id="clip-path-2"><rect class="cls-1" x="85.55" y="75.25" width="87.55" height="45.39"/></clipPath><clipPath id="clip-path-3"><path class="cls-1" d="M113.9,76q-11,4.35-11,11.2a7.82,7.82,0,0,0,2,5.7,6,6,0,0,0,1.7,1.25,11.35,11.35,0,0,0,1.9.15c1.47,0,4.53-.73,9.2-2.2s7.4-2.2,8.3-2.2A15.86,15.86,0,0,1,131.1,91a42.15,42.15,0,0,1,7.5,3,55,55,0,0,0,5.53,2.4,10.1,10.1,0,0,0,2.57.4,7.72,7.72,0,0,0,6.45-3.35,9.49,9.49,0,0,0,2-5.65,12.07,12.07,0,0,0-2.85-7.5q-2.67-3.42-10.3-6.23a43.71,43.71,0,0,0-4.65-.82c-4-.47-6.52-.7-7.45-.7a43.5,43.5,0,0,0-16,3.4"/></clipPath><clipPath id="clip-path-4"><rect class="cls-1" x="113.35" y="68.21" width="35.55" height="32.41"/></clipPath></defs><title>Plan de travail 34</title><g id="objet03"><g class="cls-2"><g class="cls-3"><g class="cls-4"><path class="cls-5" d="M85.55,118.38s2.51,3.7,5.91,1.63,10.64-17.29,10.64-17.29.3,4.58,5.47,4,14.33-6.06,19.8-5.76,10.64,8.72,21.87,9.6,10.49-4.73,10.49-4.73l9,6.65,1.33-8s11.38-19.5-10-27S97.37,84.1,97.37,84.1Z"/></g></g></g><path class="cls-6" d="M102.28,100.08l0,0c-.18-.15-.71-.6-1.58-1.37a9.4,9.4,0,0,1-2.27-4.2c-.12-.34-.37-1.34-.75-3s-.36-4.61,0-8.87a12,12,0,0,1,6-9.63,40.93,40.93,0,0,1,10.13-4.52A27.9,27.9,0,0,1,118,67.3c1-.19,1.91-.37,2.91-.55,3.22-.54,6.74-1,10.54-1.32A34.7,34.7,0,0,1,146,67.18q7.09,2.43,7.55,2.72a18.21,18.21,0,0,1,2.12,1.53,28,28,0,0,1,4.83,5.42q3.75,5.36,3.75,9.9A18.42,18.42,0,0,1,163.5,92l-1.6-1.45a59.17,59.17,0,0,1-3.9,6q-1.47,2.08-2.6,3.58,1,.7,2.1,1.47-4.49,4.45-9.3,4.45a14.57,14.57,0,0,1-2.75-.4,35.81,35.81,0,0,1-12.32-5.32,19.9,19.9,0,0,0-7.78-2.78,20.45,20.45,0,0,0-7.55,1.18c-2.92.93-5.66,1.79-8.2,2.57a6.88,6.88,0,0,1-5-.35,3.75,3.75,0,0,1-2.3-.87"/><path class="cls-7" d="M122.33,51.15q1.48.21,3.12.6a20.84,20.84,0,0,1,3.88,1.35q-2,3-4.08,6.35-1.78,2.86-4.37,7.3c-1,.18-2,.36-2.91.55a27.9,27.9,0,0,0-4.09,1.18q3.08-6.83,7.62-15.73c.28-.55.56-1.08.83-1.6M98.45,94.48a9.4,9.4,0,0,0,2.27,4.2l1.58,1.37,0,0c-.1.17-.19.35-.28.52a118.65,118.65,0,0,1-8.2,13.7q-4.6,6.15-10.15,6.15a12.62,12.62,0,0,1-6.75-1.7,6.66,6.66,0,0,1-3.3-6c0-.43.13-1.62.4-3.55.2-1.32.35-2.44.47-3.35a28,28,0,0,0,5.58-.5,10.51,10.51,0,0,0-.9,2.55,8.38,8.38,0,0,0-.25,1.85,7.3,7.3,0,0,0,.7,3.4,2.86,2.86,0,0,0,2.65,1.7q3,0,7.85-6.65a118.83,118.83,0,0,0,8.35-13.77"/><path class="cls-8" d="M129.32,53.1a20.46,20.46,0,0,0-3.87-1.35c-1.09-.26-2.13-.46-3.13-.6q5-9.63,8.1-14.72a10.39,10.39,0,0,1,5.63,3,10.58,10.58,0,0,1,1.73,2.13,139.4,139.4,0,0,0-8.46,11.57M80.05,105.4a28,28,0,0,1-5.58.5H74.4c-1.57,0-2.45,0-2.65-.05a2.19,2.19,0,0,1-1.15-1,4.34,4.34,0,0,1-.28-.42,1.13,1.13,0,0,1-.12-.43,1.4,1.4,0,0,1,.65-1.2,2.77,2.77,0,0,1,1.4-.35,2.48,2.48,0,0,1,1.25.55,3.54,3.54,0,0,0,1.9.5,10.69,10.69,0,0,0,3.9-1,10.14,10.14,0,0,1,3.55-1H84c.37.1.55.45.55,1q0,1.8-3.6,2.7l-.9.2"/><path class="cls-9" d="M165.75,94l-2.25-2a18.42,18.42,0,0,0,.75-5.23q0-4.55-3.75-9.9a28.29,28.29,0,0,0-4.82-5.42l.22.12a24.59,24.59,0,0,1,6.95,7q3.75,5.35,3.75,9.9a18.51,18.51,0,0,1-.75,5.25c0,.12-.07.23-.1.35m-61.17,7a6.88,6.88,0,0,0,5,.35c2.54-.78,5.28-1.64,8.2-2.57a20.45,20.45,0,0,1,7.55-1.18,19.9,19.9,0,0,1,7.78,2.78,35.81,35.81,0,0,0,12.32,5.32,14.57,14.57,0,0,0,2.75.4q4.81,0,9.3-4.45l2.33,1.68q-4.5,4.43-9.28,4.42a14.9,14.9,0,0,1-2.75-.4,37.56,37.56,0,0,1-12.3-5.2l-.05,0a19.32,19.32,0,0,0-7.75-2.78,19.57,19.57,0,0,0-7.55,1.2c-2.93.93-5.67,1.78-8.2,2.55s-5,.07-7.37-2.1"/><path class="cls-7" d="M163.5,92l2.25,2,3.6,3.25q3,2.76,5.65,5.28l-2.1,5c-.61,1.58-1.18,3.09-1.7,4.55q-4.6-3.81-7.6-6c-1.3-1-2.56-1.9-3.78-2.77-.79-.58-1.56-1.14-2.32-1.68l-2.1-1.48q1.13-1.49,2.6-3.57a59.17,59.17,0,0,0,3.9-6c.51.45,1,.94,1.6,1.45"/><path class="cls-9" d="M106.6,94.1a6.55,6.55,0,0,1-3.75-1.9,7.82,7.82,0,0,1-1.95-5.7q0-6.85,10.95-11.2a43.5,43.5,0,0,1,16.05-3.4c.93,0,3.42.23,7.45.7a30.77,30.77,0,0,1,5.75,1.15l1,.33a39,39,0,0,0-4.65-.83c-4-.47-6.52-.7-7.45-.7a43.5,43.5,0,0,0-16,3.4q-11,4.35-11,11.2a7.82,7.82,0,0,0,2,5.7,6,6,0,0,0,1.7,1.25"/><path class="cls-10" d="M106.6,94.1a6,6,0,0,1-1.7-1.25,7.82,7.82,0,0,1-2-5.7q0-6.86,11-11.2a43.5,43.5,0,0,1,16-3.4c.93,0,3.42.23,7.45.7a39,39,0,0,1,4.65.83q7.62,2.79,10.3,6.22a12.07,12.07,0,0,1,2.85,7.5,9.49,9.49,0,0,1-2,5.65,7.72,7.72,0,0,1-6.45,3.35,10.23,10.23,0,0,1-2.58-.4A56,56,0,0,1,138.6,94a42.15,42.15,0,0,0-7.5-3,15.86,15.86,0,0,0-5.1-1.13q-1.35,0-8.3,2.2c-4.67,1.47-7.73,2.2-9.2,2.2a11.35,11.35,0,0,1-1.9-.15"/><g class="cls-11"><g class="cls-3"><g class="cls-12"><path class="cls-13" d="M131.85,78.6q3.75,2.06,5.4,2.05,3.3,0,4.7-2.2a5.94,5.94,0,0,0,.8-3.15A12.69,12.69,0,0,0,141.4,70l-.25-.55a2.79,2.79,0,0,1,.45-.75,1.51,1.51,0,0,1,1.37-.47c.55.71,1.21,1.54,2,2.47q3.95,5.74,4,11.25a7.78,7.78,0,0,1-.57,3.15l-.18.3a4.82,4.82,0,0,1-2.43,2,34.42,34.42,0,0,1-4.5,1.2c-2,.44-4.23-.17-6.67-1.85s-4-2.75-4.8-3.22a9.83,9.83,0,0,0-3.8-1,5.07,5.07,0,0,0-4.55,1.7q-1.92,2-.6,6.42c.88,2.92,1.57,4.64,2,5.18a8.94,8.94,0,0,1-2.6,2.57,10.62,10.62,0,0,1-5.38,2.22,21.47,21.47,0,0,1-1.52-8.32,24.57,24.57,0,0,1,1.2-8.3q2.81-7.45,10.8-7.45a13.81,13.81,0,0,1,6.5,2"/></g></g></g></g></svg>