<svg xmlns="http://www.w3.org/2000/svg" xmlns:xlink="http://www.w3.org/1999/xlink" viewBox="0 0 300 300"><defs><style>.cls-1{fill:none;}.cls-2{fill:#d36629;}.cls-11,.cls-2,.cls-3,.cls-4,.cls-5,.cls-6,.cls-7,.cls-8{fill-rule:evenodd;}.cls-3{fill:#b8bfe0;}.cls-4{fill:#d2d3db;}.cls-5{fill:#564937;}.cls-6{fill:#3d3224;}.cls-7{fill:#8e9abc;}.cls-8{fill:#ededef;}.cls-9{opacity:0.5;}.cls-10{clip-path:url(#clip-path);}.cls-11{fill:#fff;}.cls-12{clip-path:url(#clip-path-2);}</style><clipPath id="clip-path"><rect class="cls-1" x="33.65" y="33.54" width="24.75" height="99.11"/></clipPath><clipPath id="clip-path-2"><rect class="cls-1" x="39.59" y="59.73" width="13.66" height="5.8"/></clipPath></defs><title>Plan de travail 18</title><g id="objet01"><path class="cls-2" d="M59.8,125.2c.36,0,.7,0,1,0,2.91.85,4.47,2.59,4.68,5.2s-.43,4.6-1.9,6a7.67,7.67,0,0,1-5.4,2,6.74,6.74,0,0,1-4.4-1.6,4.88,4.88,0,0,1-2-3.9,7.36,7.36,0,0,1,2.3-5.45,7.09,7.09,0,0,1,1.48-1.15,7.87,7.87,0,0,1,4.27-1.15"/><path class="cls-3" d="M57.15,20.65q5.35,5,10.05,9.5-.49,9.75-2.32,47.15-5.8.86-12.88,2L41.42,80.88q-.49-9.12-2-20.58l.45-.4a10.67,10.67,0,0,0,2.28-2.37c.11-.34.14-.54.1-.6s-.07-.13-.1-.13a.66.66,0,0,0-.4-.1,4.4,4.4,0,0,0-1.15.2,8.14,8.14,0,0,0,1-1.65,8.22,8.22,0,0,0,.9-2.45,1.56,1.56,0,0,0,0-.5A1.32,1.32,0,0,0,41.4,52a4.68,4.68,0,0,0-2.87,1.28c-.12-.89-.25-1.78-.38-2.68q-1.44-9.67-2.23-14.92l5-7,9.93-13.8q2.86,2.64,6.27,5.8"/><path class="cls-4" d="M50.9,14.88,54,79l-2,.3L41.42,80.88q-.49-9.12-2-20.58l.45-.4a10.67,10.67,0,0,0,2.28-2.37c.11-.34.14-.54.1-.6s-.07-.13-.1-.13a.66.66,0,0,0-.4-.1,4.4,4.4,0,0,0-1.15.2,8.14,8.14,0,0,0,1-1.65,8.22,8.22,0,0,0,.9-2.45,1.56,1.56,0,0,0,0-.5A1.32,1.32,0,0,0,41.4,52a4.68,4.68,0,0,0-2.87,1.28c-.12-.89-.25-1.78-.38-2.68q-1.44-9.67-2.23-14.92l5-7,9.93-13.8Z"/><path class="cls-2" d="M75.8,75.68c.06.66.13,1.35.2,2.07.16,1.62.32,3.2.47,4.73q-6,1.08-12,2.37c-2,.45-4,.91-6,1.4-3.09.74-6.15,1.52-9.2,2.35l-.9.25q-6.6,1.83-14.25,4.3c-.07-.52-.13-1.05-.2-1.6q-.66-5.47-1-9.32l8.52-1.36L52,79.25q7.08-1.09,12.87-2,6.21-.94,10.93-1.62"/><path class="cls-5" d="M53.55,113.4a26.65,26.65,0,0,0,6.65-.92q.33,6.19.62,12.77c-.32,0-.66,0-1,0a7.87,7.87,0,0,0-4.27,1.15q-.83-5.8-2-12.95m5-25.95a1.72,1.72,0,0,0-1.75,1,3.77,3.77,0,0,0-.15,1.3c0,.3,0,.71.07,1.23a24.63,24.63,0,0,0-5.52,1,11.75,11.75,0,0,0-1.25.35c-.25-1.38-.49-2.62-.7-3.73,3-.83,6.11-1.61,9.2-2.35,0,.37.07.77.1,1.2"/><path class="cls-6" d="M55.22,91.15c-.5.07-1.11.18-1.82.33a52.21,52.21,0,0,0,4.67-5.13l.38-.1c0,.27,0,.55.07.85l-.27.38a1.62,1.62,0,0,0-1.45,1,3.14,3.14,0,0,0-.15,1c-.47.56-.95,1.11-1.43,1.62m-1.37,24.18c1-.73,1.89-1.44,2.75-2.15a22.39,22.39,0,0,0,2.62-.43c-.46.37-.95.75-1.47,1.15-1.29,1-2.52,1.84-3.7,2.6-.07-.39-.14-.78-.2-1.17m6.6,2.15a34.54,34.54,0,0,1-4.05,3.82c-.5.4-1,.79-1.45,1.15l-.18-1.25a47.83,47.83,0,0,0,3.68-3.1,13.76,13.76,0,0,0,1.93-2.2c0,.53,0,1,.07,1.58m.3,6.12a5.9,5.9,0,0,1-3.2,1.55l-.4-.05c-.13,0-.2,0-.2-.15.89-.64,2.13-1.59,3.72-2.83,0,.5,0,1,.08,1.48"/><path class="cls-7" d="M51.7,79.25q-5.3.8-9.9,1.55,3.9-9.7,13.2-9.7,6.26,0,9.6,6.15v0q-5.8.86-12.9,2"/><path class="cls-8" d="M57.15,20.65q5.35,5,10.05,9.5Q66,31.53,56.28,42.83,54,45.41,52.65,47.05,43.19,40.53,36,35.6c1.54-2.14,3.2-4.46,5-7l9.93-13.8q2.86,2.64,6.27,5.8"/><g class="cls-9"><g class="cls-10"><path class="cls-11" d="M39.3,33.55c2-.13,3,.63,3,2.3a3.55,3.55,0,0,1-.65,1.9,2.92,2.92,0,0,1-2.6,1.4A2.62,2.62,0,0,1,36.75,38a2.25,2.25,0,0,1-.5-1.2,2.94,2.94,0,0,1,3-3.25m19.1,96a3.63,3.63,0,0,1-.65,1.8,2.54,2.54,0,0,1-2.2,1.3A2.06,2.06,0,0,1,53.9,132a1.63,1.63,0,0,1-.4-1.05,2.83,2.83,0,0,1,2.45-3.1c1.63-.3,2.45.27,2.45,1.7M33.75,84.25c-.07-.7-.1-1.07-.1-1.1,0-1.13.7-1.85,2.1-2.15s2,.27,2,1.7a2.56,2.56,0,0,1-.55,1.4,2.35,2.35,0,0,1-2.1,1.2,1.33,1.33,0,0,1-1.4-1"/></g></g><g class="cls-9"><g class="cls-12"><path class="cls-11" d="M53.25,63l-.16-3.31a9.19,9.19,0,0,1-.89.87c-1.27,1-3.12,1-5.55-.05s-4.45-1.07-6,0a7.4,7.4,0,0,0-1,.71c.18,1.45.35,2.88.51,4.28l.45-.59c1.33-1.7,3.27-2.22,5.8-1.55q4.24,1,5.6.6a3.88,3.88,0,0,0,1.3-1"/></g></g></g></svg>