<svg xmlns="http://www.w3.org/2000/svg" xmlns:xlink="http://www.w3.org/1999/xlink" viewBox="0 0 300 300"><defs><style>.cls-1{fill:none;}.cls-2{opacity:0.5;}.cls-3{clip-path:url(#clip-path);}.cls-4{fill:#9fad6c;}.cls-10,.cls-4,.cls-5,.cls-6,.cls-7,.cls-8,.cls-9{fill-rule:evenodd;}.cls-5{fill:#eab2b2;}.cls-6{fill:#b7afa7;}.cls-7{fill:#87827e;}.cls-8{fill:#e5dfd6;}.cls-9{fill:#e24324;}.cls-10{fill:#cec5ba;}</style><clipPath id="clip-path"><rect class="cls-1" x="112.45" y="74.54" width="39.23" height="6.47"/></clipPath></defs><title>Plan de travail 37</title><g id="objet03"><g class="cls-2"><g class="cls-3"><path class="cls-4" d="M117.65,76.6c-.36.14-3.6,1.61-4.89,3.68s1.65-.77,5.18-2.06,8.94-2.75,12.54-2.29c13.71,1.75,12.9.29,15.5.62,4.23.53,7.08,1.23,5,.46s-8.74-1.56-10.46-1.73-13.39-2.21-22.88,1.32"/></g></g><path class="cls-5" d="M140.5,75.55c.3-.63.6-1.35.9-2.15a8.59,8.59,0,0,1,1.45-.1q3.71-.1,4.8-1.5a8.93,8.93,0,0,0,1.5-2.6c.53-1.73.93-3,1.2-3.7a.16.16,0,0,1,.05-.1,3.74,3.74,0,0,1,.65-2c.33-.43,1.47-.8,3.4-1.1a33.68,33.68,0,0,1,7.1-.2q4.2.26,7,5.5a7.62,7.62,0,0,1,.85,3.65,15.65,15.65,0,0,1-1.95,7q-3,6-8.9,6A51.5,51.5,0,0,1,150,82.8a53.37,53.37,0,0,0-8.15-1.45,2.83,2.83,0,0,0-1.95.7q-.6.49-.6.75a6.14,6.14,0,0,0,1,1.9,5.68,5.68,0,0,1,.95,2.75,1.22,1.22,0,0,1-1.1,1.35,4.28,4.28,0,0,0-1.3.35c-.13.07-.42-.1-.85-.5s-.73-.6-.9-.6a.88.88,0,0,0-.85.5,3.64,3.64,0,0,1-.05-.5.9.9,0,0,1,.25-.75,1.33,1.33,0,0,1,.6-.1.68.68,0,0,1,.6.2,1.61,1.61,0,0,0,.75.45,2.18,2.18,0,0,0,1,.15,1.22,1.22,0,0,0,.75-.55,1.54,1.54,0,0,0,.3-.85,1,1,0,0,0-.4-.8,2.77,2.77,0,0,0-.7-.65c-1.13-.73-1.7-1.35-1.7-1.85a3.11,3.11,0,0,1,.75-2A4,4,0,0,1,141.6,80c1,0,2.35.08,4.15.25q10.69,3.34,15.05,2.25a6.92,6.92,0,0,0,5.4-5,15.49,15.49,0,0,0,.75-6.1,10.08,10.08,0,0,0-1.7-3.95c-.9-1.23-2.55-2.12-4.95-2.65a10.12,10.12,0,0,0-6.55.55,9,9,0,0,0-1,2.1c-.77,2.07-1.25,3.33-1.45,3.8q-2.25,5-6.45,5c-2.47,0-3.88-.13-4.25-.4,0-.07-.07-.13-.1-.2"/><path class="cls-6" d="M114,71.55c-.7,0-1.35-.57-2-1.7l-.7-1.75q0-3.6,2.75-2.55c1.83.7,2.75,1.78,2.75,3.25-1,1.83-2,2.75-2.85,2.75"/><path class="cls-7" d="M105.75,77a.48.48,0,0,0-.1-.15,17.55,17.55,0,0,0,1.75-.9c.67-.37,1.2-.63,1.6-.8v.15q-.34.2-1.2.75a7.06,7.06,0,0,1-2,1m3-2.65a.49.49,0,0,0,0,.2,9.51,9.51,0,0,1-1.25.5,9.64,9.64,0,0,1-2.1.6.16.16,0,0,1,0-.1c.63-.27,1.75-.67,3.35-1.2m-.3-.5,0,.05-3,.9c0-.07,0-.1,0-.1a21,21,0,0,1,2.85-.85"/><path class="cls-8" d="M107.65,75.6a3.77,3.77,0,0,1-1.5-2.35c0-1.27.6-1.9,1.8-1.9a12.59,12.59,0,0,1,1.85.3,13.25,13.25,0,0,0,1.8.3q4.8,0,5.7-6.35,0-6.49,0-6.95,0-6.49,4.55-9.2,4-2.4,10-1.1a20.39,20.39,0,0,1,10,5.2,13.08,13.08,0,0,1,4.55,9.7q0,.3-.45,6.5-1.2,6-5.3,6l-9.1-.6a33.66,33.66,0,0,0-10.6,1.3,21.83,21.83,0,0,1-6.8,1.25,9,9,0,0,1-6.45-2.15"/><path class="cls-5" d="M109.3,71.75a6,6,0,0,1-.15,1.45l-.15.3a2.37,2.37,0,0,1-1.45.85l-.75.2a2.24,2.24,0,0,1-.7-1,4.38,4.38,0,0,1-.45-2.15q0-1.35,1-1.35a17,17,0,0,0,2.6,1.45Z"/><path class="cls-9" d="M114.3,71.4a.48.48,0,0,1,.45.55.92.92,0,0,1-.15.45.53.53,0,0,1-.4.25c-.13-.4-.25-.73-.35-1a.37.37,0,0,1,.45-.25m1.3,1.75a.16.16,0,0,0,.05-.1,2.07,2.07,0,0,1,1.8-1.1h.3a.21.21,0,0,1,0,.15.62.62,0,0,1-.2.45,5.05,5.05,0,0,0-.5.35,3.69,3.69,0,0,1-1.45.25Z"/><path class="cls-10" d="M121.8,66.5q3.3-1.45,3.3,2a4.62,4.62,0,0,1-1.2,3,4.39,4.39,0,0,1-3.5,1.75,1.76,1.76,0,0,1-1.75-.9l-.2-.9a5,5,0,0,1,3.35-4.85"/><path class="cls-10" d="M123.1,48.8a9.14,9.14,0,0,1,.15,1.35l-.1.15a1.81,1.81,0,0,1-.7-1.1,3.84,3.84,0,0,1-.2-1l.1-.25c.4,0,.65.25.75.85m-2.8.7v0h.1c.3.07.47.37.5.9l-.15.15c-.1,0-.22-.2-.35-.5l-.15-.4c0-.13,0-.2,0-.2m24.75,5v.2c0,.2-.67.85-2,2l-.3-.15a2.56,2.56,0,0,1,.8-1.05,3.58,3.58,0,0,1,1.45-.9Zm-15.4.8a.52.52,0,0,1,.2-.1,1.15,1.15,0,0,1,.15.45.77.77,0,0,1-.15.55.86.86,0,0,1-.3-.6.4.4,0,0,1,.1-.3m12.65.15-.25-.15a1.82,1.82,0,0,1,.45-.65.79.79,0,0,1,.7-.4v.1c0,.33-.3.7-.9,1.1m-10.75,2.1-.05-.15c-.07.13-.1.08-.1-.15,0-.07.15-.18.45-.35a1.67,1.67,0,0,1,.7-.2l0,.25c0,.17-.27.37-.8.6Zm2.5,13.3a1.63,1.63,0,0,0,.35-.35c.13-.1.32-.07.55.1v.1a.54.54,0,0,1-.4.5l-.45-.1Z"/><path class="cls-7" d="M110.6,75.6l.1-.1a32.09,32.09,0,0,1,3.15,2.85.16.16,0,0,0-.1.05,17.65,17.65,0,0,1-3.15-2.8m1.25-.15V75.3a9.75,9.75,0,0,1,1.75.9l2.1,1.3a.16.16,0,0,0,0,.1,20.08,20.08,0,0,1-2.25-1.15c-.63-.4-1.15-.73-1.55-1m-.4-1a.5.5,0,0,1,0-.15,21.33,21.33,0,0,1,5,1.25.49.49,0,0,0,0,.2q-2.55-.75-5-1.3"/></g></svg>