<svg xmlns="http://www.w3.org/2000/svg" viewBox="0 0 300 300"><defs><style>.cls-1{fill:#d2d3db;}.cls-1,.cls-2,.cls-3,.cls-4,.cls-5,.cls-6{fill-rule:evenodd;}.cls-2{fill:#b8bfe0;}.cls-3{fill:#8e9abc;}.cls-4{fill:#7680a5;}.cls-5{fill:#516089;}.cls-6{fill:#3b4c72;}</style></defs><title>Plan de travail 58</title><g id="objet05"><path class="cls-1" d="M107.9,222.1a54.11,54.11,0,0,1,1.65,7.1,94.68,94.68,0,0,0,3.75,12.1c-2.73-.77-5.23-1.48-7.5-2.15q-3.94-1.25-6.45-2-3.3-4.35-5.85-8.05c-.93-1.43-1.68-2.6-2.25-3.5q6.34-1.24,13-2.6c1.4-.37,2.63-.67,3.7-.9"/><path class="cls-2" d="M99.35,237.35c-.83-1.2-1.53-2.17-2.1-2.9a7.32,7.32,0,0,1,4.3-.2q3.49.56,11.55,6.55a3.07,3.07,0,0,0,.25.55q-3.9-1-7.45-2-4-1.16-6.55-2m-8.1-11.75q5.85-1,12.15-2.5A2.34,2.34,0,0,0,104,223c1.57-.33,2.88-.65,4-.95.43,1.23,1.12,4.05,2,8.45.3,1.43.77,3.17,1.4,5.2-1.3-2.33-2.82-4.82-4.55-7.45-.4-.67-.8-1.28-1.2-1.85-1,.27-2,.52-3.1.75q-3.15,2.85-5.8,2.55a6.09,6.09,0,0,1-2.1-.7,14.63,14.63,0,0,1-1.35-.75l-.65-.85c-.5-.63-.95-1.22-1.35-1.75"/><path class="cls-3" d="M97.85,230.05a.07.07,0,0,0,.1,0,1.22,1.22,0,0,1,.8.45l-.25.25-.25-.05a.86.86,0,0,1-.5-.2Zm10.25,6.7c0-.23.23-.37.6-.4s.47.12.4.45c0,.1-.07.18-.2.25a.44.44,0,0,1-.45.2c-.3,0-.42-.2-.35-.5m-4.7-3.55H103a2.31,2.31,0,0,1-.7-.45l.2-.25q.6,0,.75.15l.15.35Zm-.35-1.85,0,.35-.1.25a.92.92,0,0,1-.55-.2l0-.35Zm4-1.3,0,.3-.4.2-.4-.35V230c.23-.3.42-.42.55-.35s.17.13.3.4m1,.15-.35.7-.4-.2a2,2,0,0,1,.55-.75Zm.65.5,0,.25c0,.23-.25.43-.65.6l0-.1a9.08,9.08,0,0,1,.6-.75Zm-8.7-2c-.07.4-.33.57-.8.5a.74.74,0,0,1-.4-.35.92.92,0,0,1-.15-.45q.1-.5.75-.45t.6.75"/><path class="cls-4" d="M94.15,246.4a12.93,12.93,0,0,1-5.2-4.25q3.64-2,9.15-5.05h.1A60.35,60.35,0,0,1,107,239q6.45,1.7,8.3,3.2-3.64.9-10.15,2.15t-11,2.1"/><path class="cls-5" d="M112.4,242.8q-3,.64-7.25,1.5c-1.4.3-2.73.57-4,.8l-7,1.3a17.62,17.62,0,0,1-3.25-2.15,8.74,8.74,0,0,1-2-2.1l1.75-1a33.74,33.74,0,0,1,4.75,1.3c.37.13.7.27,1,.4,1.63-.43,3.33-.87,5.1-1.3l4.9-1.2c-1.2-.47-2.53-1-4-1.45q-2.74-.94-4.85-1.55l.5-.3h.1A60.35,60.35,0,0,1,107,239c.87.23,1.67.47,2.4.7,3,.83,4.93,1.67,5.9,2.5-.83.2-1.8.42-2.9.65"/><path class="cls-6" d="M98.9,241.55a1.66,1.66,0,0,1,1,.45l-.3.2a1.61,1.61,0,0,1-.35-.2,2.44,2.44,0,0,1-.5-.35Zm.2-1.3.25-.05a.4.4,0,0,1-.1.3H99.1Zm-1.85-.35q-.15,0-.15-.15a1.05,1.05,0,0,1,1-.55,2.51,2.51,0,0,1-.8.7m0,1.95v-.2a.07.07,0,0,0,.1,0,7.17,7.17,0,0,1,1.35.35c.6.17.9.38.9.65s0,.32-.1.15c-1.5-.27-2.25-.58-2.25-1m12.3-.15a.88.88,0,0,1-.65,0,.58.58,0,0,1,.3-.5,3.5,3.5,0,0,0,.35.55m-3.15-.5c0,.27,0,.32,0,.15a1.16,1.16,0,0,1-.6.15.38.38,0,0,1-.45-.3l.05-.15a1.06,1.06,0,0,1,.8-.15c.17.07.25.17.25.3"/><path class="cls-4" d="M77.55,247c0-.43,1.75-1.27,5.25-2.5q6.15-1.95,8-2.7l.7-.05a1.05,1.05,0,0,1,.3.15,23.6,23.6,0,0,1,2.45,1.3,19.67,19.67,0,0,1,3.1,2.6q-8.05,1.25-14.4,2l-3.7.25q-1.65,0-1.65-1.05"/><path class="cls-5" d="M78.15,247.8c0-.07-.07-.13-.1-.2q7.24-1.2,11.45-2.1A33.18,33.18,0,0,0,95.25,244a14.12,14.12,0,0,1,2,1.8q-8.05,1.25-14.4,2l-3.7.25a2.42,2.42,0,0,1-1-.2"/><path class="cls-6" d="M83.65,245.9h-.6v-.25a3.08,3.08,0,0,1,.7-.05Zm.6-1.2.1,0a2.46,2.46,0,0,1,1.45.25,5.48,5.48,0,0,0,1,.65v.15l-.6-.15,0,0a1.18,1.18,0,0,1,.35.7.44.44,0,0,1-.25.4,10.78,10.78,0,0,1-.9-1.45v-.05a6.45,6.45,0,0,0-1.2-.5m1.8,0,.1-.15a2.88,2.88,0,0,1,.6.4,7.37,7.37,0,0,1,.5.6c-.1,0-.27-.13-.5-.4a1.73,1.73,0,0,0-.7-.45m3-.15.1.15-.15.15-.25-.15a.43.43,0,0,1,.3-.15m3.75.35a1.54,1.54,0,0,1-1-.85c.7.1,1.05.33,1.05.7s0,.32-.1.15m-2-.1a1.53,1.53,0,0,0,0-.3.4.4,0,0,1,.4.2l.15.25c0,.27,0,.33-.1.2-.33-.07-.5-.18-.5-.35m-9.4,1.95-.3.2-.3-.3.3-.3c.2.17.3.3.3.4"/><path class="cls-4" d="M108.15,240.5a2.31,2.31,0,0,1-.55-1.45c0-1.73.93-2.55,2.8-2.45s2.8,1,2.8,2.8a3.12,3.12,0,0,1-.15,1.2c-.37.63-1.17,1-2.4,1a2.94,2.94,0,0,1-2.5-1.05"/><path class="cls-5" d="M109.7,236.6h.7c1.87.1,2.8,1,2.8,2.8a3.12,3.12,0,0,1-.15,1.2c-.37.63-1.17,1-2.4,1a4,4,0,0,1-1.75-.35c.3,0,.6.05.9.05a2,2,0,0,0,1.9-.9,2,2,0,0,0,.3-1,2.65,2.65,0,0,0-2.3-2.7"/><path class="cls-6" d="M110.75,240.2l0-.3a.86.86,0,0,1,.6.3l-.05.15a1.55,1.55,0,0,1-.6-.15m-.3.5a3,3,0,0,1-.55-.6,1.15,1.15,0,0,1,1,.4l0,.15Zm.2-2.1c.3,0,.45.08.45.25s-.18.15-.45.15l-.15-.15Z"/><path class="cls-1" d="M105.25,210.4q6-6,8.65-8.25a3.71,3.71,0,0,1,1.25,0c1.77.23,3.68,1.4,5.75,3.5a10.31,10.31,0,0,1,2.5,3.35q-2.7,1.8-8.3,6.35-6.15,5.06-8.5,6.75a58.76,58.76,0,0,1-9.75-3.45q1.7-1.54,8.4-8.25"/><path class="cls-2" d="M113.9,202.15a3.71,3.71,0,0,1,1.25,0c1.77.23,3.68,1.4,5.75,3.5a10.31,10.31,0,0,1,2.5,3.35q-2.33,1.55-6.8,5.15l-1.5,1.2q-3,2.42-5,4.08c-1.51,1.19-2.66,2.08-3.48,2.67a58.76,58.76,0,0,1-9.75-3.45c.56-.51,1.51-1.42,2.87-2.75.76.17,1.58.37,2.48.6,1.3.33,2.49.68,3.58,1.05q1.83-1.17,4.62-3.15t4.65-3.45a15.27,15.27,0,0,1-2.52-7.57c.51-.48,1-.89,1.37-1.23"/><path class="cls-3" d="M101.05,216.55c0-.1.13-.25.4-.45a1.53,1.53,0,0,1,.55-.35l.1.05c-.07.1-.38.43-.95,1a.33.33,0,0,1-.1-.25m1.85-.15-.1.1-.1-.05v-.25h.15Zm-1,.5-.05-.3c0-.4.17-.62.5-.65l.05.1a1.46,1.46,0,0,1-.4.85Zm12.45-6.1,0-.25.4-.05.1.15-.1.15Zm-1-3.65a1.48,1.48,0,0,1-.5.25c-.2,0-.3-.07-.3-.2s.17-.28.5-.45a.85.85,0,0,1,.8-.15l0,.1a1.42,1.42,0,0,1-.55.45m-.7-.6,0-.15c0-.27.17-.37.5-.3l0,.1a.62.62,0,0,1-.5.35m-6.2,6.85c-.1.13-.18.2-.25.2h-.5l-.05-.15a.45.45,0,0,1,.2-.35v0l-.25.2h-.15s-.05,0-.05-.1a1,1,0,0,0,.15-.5l-.15-.05c-.17,0-.35.13-.55.4l0-.1q0-.41.45-.45c.3,0,.43.13.4.5l.1-.1.3.05,0,.35.4.05Zm4.2-1,0-.25.25,0h.3a.5.5,0,0,0,.05.15l-.05.15-.25.05Zm.45.85h-.35l-.1-.15q0-.19.45-.15l0,.15Zm-1.9,2.75a.69.69,0,0,1,.2.5.61.61,0,0,1-.4.35l0-.1v-.75Zm.75.85c0,.1-.1.22-.3.35l-.2-.05s.07-.12.2-.25.22-.2.25-.2Zm-.05.65c0-.2.12-.33.35-.4a.21.21,0,0,1,0,.15c0,.13-.13.22-.4.25"/><path class="cls-4" d="M153.88,203.8q-3.62,5.44-11.48,11.6c-1.74,1.36-3.4,2.6-5,3.7a84.84,84.84,0,0,1-12.67-2c-1.65-.4-3.16-.81-4.53-1.25l-.47-.7q-6.59-9.82-8.25-17.92,14.3,1.55,31.8,4.72l10.58,1.9"/><path class="cls-5" d="M140.42,216.93c-1,.77-2,1.49-3,2.17a84.84,84.84,0,0,1-12.67-2c-1.65-.4-3.16-.81-4.53-1.25l-.47-.7a73.71,73.71,0,0,1-4.28-7.2l2.68,1.15q8.49,3.58,17.63,6.48a64.76,64.76,0,0,0,8.82-8.08q2.18-2.34,3.93-4.63l5.34,1q-3.6,5.44-11.47,11.6-1,.79-2,1.53"/><path class="cls-6" d="M125.1,198.8a1.46,1.46,0,0,0,.1.4.92.92,0,0,1,0,.35.65.65,0,0,0-.2.15c-.33-.17-.5-.33-.5-.5s.22-.43.65-.4m-1.7.7a.55.55,0,0,1-.3-.45v-.3h.6v.6a.43.43,0,0,1-.3.15m11.8,4.95a.54.54,0,0,1,0-.3c0-.3.18-.48.55-.55l.15.05a.42.42,0,0,1,.05.25c0,.27-.17.45-.5.55Zm7.05,3.3a.64.64,0,0,1,.1.75c.07,0,0,.05-.3.05s-.5-.27-.5-.8c.27-.27.5-.27.7,0m-1.1-.25a2.53,2.53,0,0,1-.05.4l-.25.15-.3-.25a.92.92,0,0,1-.05-.35,1,1,0,0,1,.05-.3h.55a1.63,1.63,0,0,0,.05.35m1.43-.65a.06.06,0,0,1,0,.05l1.65,2.33v0a.54.54,0,0,1-.3.05c-.3,0-.63-.37-1-1.1a3.77,3.77,0,0,1-.45-1.15c0-.13,0-.2.05-.2Zm-15.13,8.9q0,.3.15.75a1.39,1.39,0,0,0,.45.75q0,.1-.15.15l-.6-.8v-.85Zm-.75-.5a21.75,21.75,0,0,1,.6,2.15l-.15.1a1.73,1.73,0,0,1-.4-.8,2.81,2.81,0,0,1-.2-.8l0-.65Zm1.6.35a.16.16,0,0,1,0,.1.88.88,0,0,1,.55.55c0,.13.07.3.1.5s-.07.15-.2.15a1.57,1.57,0,0,1-.55-1.1c0-.13,0-.2.05-.2m-12.55-14.75-.15-.1c.53-.53.85-.7,1-.5ZM115,203a.42.42,0,0,1,0,.25,6.91,6.91,0,0,1-.6.8q-.15.19-.15-.15c0-.07.08-.2.25-.4s.3-.42.4-.45Zm-.25-.15v.2a3.53,3.53,0,0,1-.55.15l-.05-.05a2.5,2.5,0,0,0,.35-.25.25.25,0,0,1,.25,0m-.15,1.65c.5-.9,1-1.25,1.55-1a3.86,3.86,0,0,1-1.4,1.1Zm4.8,3.35v.2a3,3,0,0,1-.3,1,3.35,3.35,0,0,1-.45.85c-.1-.07-.15-.23-.15-.5a2.55,2.55,0,0,1,.25-.85,1.79,1.79,0,0,1,.5-.75.21.21,0,0,0,.15.05m1.05,1.45s0,.07,0,.2a1,1,0,0,1-.2.7l-.1,0a.69.69,0,0,1-.05-.35,2.45,2.45,0,0,0,.15-.6Zm-.7-.15a2.5,2.5,0,0,1-.2.9h-.25a4.23,4.23,0,0,1,.25-1.35h0a.92.92,0,0,1,.15.45"/><path class="cls-1" d="M142.45,211.6q3.5-2.65,6.2-2.65a4.4,4.4,0,0,1,1.25.15q12.3,14,16.35,18.8a66.62,66.62,0,0,1-10.15,2.15q-12.56-11.9-16.55-15.4a10.77,10.77,0,0,1,2.9-3.05"/><path class="cls-2" d="M142.5,213.55q3.31,4.92,16.9,16c-1.07.19-2.17.37-3.3.52q-10.11-9.59-14.68-13.73c-.73-.66-1.35-1.22-1.87-1.67a10.77,10.77,0,0,1,2.9-3.05l.18-.12c.4-.31.79-.58,1.17-.83a18.24,18.24,0,0,0-1.3,2.9"/><path class="cls-3" d="M143.35,215.25a.8.8,0,0,1,1.35-.45,1.63,1.63,0,0,1-1,.6.42.42,0,0,1-.25-.05c0-.07-.07-.1-.1-.1m2.45-1a.47.47,0,0,1-.1.35.93.93,0,0,1-.25.2.35.35,0,0,1-.4-.4c0-.17.15-.33.45-.5.2.07.3.18.3.35m3.25,3c0,.07,0,.1-.05.1s-.08.05-.25.05h-.2c-.07,0-.1,0-.1-.25s.12-.4.35-.4h.2a.54.54,0,0,1,.05.3Zm2.4-2.55c.1.07,0,.1-.25.1l-.5-.15c.3-.6.57-.65.8-.15Zm-2.2,4.45q0-.9.6-1.05c.37-.13.55.12.55.75a1.17,1.17,0,0,1-.9,1.1,1.87,1.87,0,0,1-.25-.8m6.65,3.7,0,0c0-.13.15-.2.45-.2l.15.15a.48.48,0,0,1-.1.15h-.3a.42.42,0,0,1-.25-.05m.5,1.1a.48.48,0,0,1,.1-.5c.17-.2.48-.18.95.05l.05.15a3.54,3.54,0,0,1-.3.25,1.61,1.61,0,0,1-.35.2.54.54,0,0,1-.3,0Z"/><path class="cls-1" d="M152.25,247.05c-2.28.41-4.68.82-7.2,1.25a81.88,81.88,0,0,0,5.5-10.05,77.71,77.71,0,0,1,3.65-7.8c1.11.39,2.45.84,4,1.35q6.8,2.26,13.07,4-1.64,1.5-4,3.43-4.06,3.31-8.6,6.6-2.49.51-6.4,1.2"/><path class="cls-2" d="M158.8,232c4.32,1.43,8.47,2.7,12.48,3.82-.53.48-1.1,1-1.73,1.53l-.85.72a11.44,11.44,0,0,1-1.55.63,8,8,0,0,1-2.35.4c-2,0-3.87-1.07-5.77-3.23-1.12-.3-2.17-.63-3.16-1-.51.5-1.05,1-1.62,1.63q-3.39,3.47-6.1,6.55a53.23,53.23,0,0,0,2.4-4.8,77.71,77.71,0,0,1,3.65-7.8c1.11.39,2.45.84,4,1.35l.6.2m-13.75,16.3.3-.5q8.44-4.94,11.82-5.15c2.26-.14,3.73.2,4.4,1-.95.72-1.93,1.45-2.92,2.17q-2.49.51-6.4,1.2c-2.28.41-4.68.82-7.2,1.25"/><path class="cls-3" d="M154.45,237.65l-.45.3-.45-.2v-.3c.17-.23.3-.35.4-.35s.33.08.5.35Zm3.75,1.65v.3a1.17,1.17,0,0,1-.6.1l-.1-.25.1-.3Zm-1.2,1.4a1.07,1.07,0,0,0,.2-.35,1.25,1.25,0,0,1,.85,0l.15.3a3,3,0,0,1-.85.35l-.35,0Zm6.35-2.2a.07.07,0,0,0,.1,0V239a.77.77,0,0,1-.55.15h-.3l-.2-.25a1.29,1.29,0,0,1,.95-.35m-.75-1.25a.69.69,0,0,1-.45.25c-.5,0-.75-.18-.75-.55s.25-.65.75-.65.7.22.7.55a.53.53,0,0,1-.25.4M152,237.9c.07.1.22.37.45.8l-.05.1c-.4-.2-.6-.42-.6-.65v-.25Zm.55-.45.3-.15a2.34,2.34,0,0,1,.45.75l-.45.15Zm-1.15,6.3c0,.3-.17.45-.5.45a.48.48,0,0,1-.45-.25.43.43,0,0,1-.15-.3c0-.3.18-.42.55-.35s.55.22.55.45"/><path class="cls-4" d="M152.6,252.1q-6.51-.9-10.15-1.6c1.22-1.07,4-2.28,8.3-3.65a66.68,66.68,0,0,1,8.8-2.35h.1l9.13,4.5a13.87,13.87,0,0,1-5.18,4.53q-4.35-.5-11-1.43"/><path class="cls-5" d="M145.33,251c-1.08-.17-2-.34-2.88-.5a19.63,19.63,0,0,1,5.88-2.82c.74-.28,1.54-.55,2.42-.83a66.68,66.68,0,0,1,8.8-2.35h.1l.48.23q-2.08.78-4.83,1.87-2.19.85-4,1.65l4.92.95,5.08,1c.32-.15.67-.29,1-.43a39.66,39.66,0,0,1,4.75-1.6l1.73.85a10.8,10.8,0,0,1-1.93,2.25,17.52,17.52,0,0,1-3.25,2.28c-2-.23-4.33-.52-7-.88l-4-.55q-4.24-.58-7.27-1.1"/><path class="cls-6" d="M148.5,249.15a.58.58,0,0,1,.3.5,1.18,1.18,0,0,1-.65.1,4.74,4.74,0,0,0,.35-.6m2.85,0c0,.17,0,.12,0-.15s.08-.23.25-.3a1.2,1.2,0,0,1,.8.1l.05.15a.44.44,0,0,1-.45.35,1.16,1.16,0,0,1-.6-.15m9.15-1.95a2.69,2.69,0,0,1-.8-.65,1,1,0,0,1,1,.5q0,.1-.15.15m-2,.7a.4.4,0,0,1-.1-.3l.25,0V248Zm-.7,1.55a1.5,1.5,0,0,1,1-.5l.1.1a2.44,2.44,0,0,1-.5.35,1.61,1.61,0,0,1-.35.2Zm.3.6c0-.27.3-.5.9-.7a9.56,9.56,0,0,1,1.35-.4.07.07,0,0,0,.1,0v.2q0,.56-2.25,1.05c-.07.17-.1.12-.1-.15"/><path class="cls-4" d="M160.45,253.1a22.16,22.16,0,0,1,3.1-2.8c.77-.5,1.58-1,2.45-1.45a1.05,1.05,0,0,1,.3-.15h.7q1.8.65,7.95,2.25c3.5,1,5.25,1.77,5.25,2.2,0,.67-.55,1-1.65,1.15l-3.7-.05q-6.34-.34-14.4-1.15"/><path class="cls-5" d="M160.45,253.1c.71-.75,1.39-1.41,2.05-2a32.32,32.32,0,0,0,5.75,1.28q4.2.65,11.45,1.45l-.1.2a3,3,0,0,1-1,.25l-3.7-.05q-6.34-.34-14.4-1.15"/><path class="cls-6" d="M164.85,251.85q0-.56,1.05-.75a1.71,1.71,0,0,1-1,.9c-.07.17-.1.12-.1-.15m3.75-.25.1-.2a.43.43,0,0,1,.3.15l-.25.15Zm-1.65.15c0,.17-.17.3-.5.4-.07.13-.1.07-.1-.2l.15-.25a.53.53,0,0,1,.4-.25,1.53,1.53,0,0,0,0,.3m6.55-.45a4.78,4.78,0,0,0-1.2.55v.05a11.33,11.33,0,0,1-.9,1.5.35.35,0,0,1-.25-.35,1.37,1.37,0,0,1,.35-.75l0-.05a1.9,1.9,0,0,1-.58.2v-.15a9.82,9.82,0,0,0,1-.7,2.54,2.54,0,0,1,1.45-.35Zm-3,1a7.37,7.37,0,0,1,.5-.6,2.38,2.38,0,0,1,.6-.45l.1.15a1.53,1.53,0,0,0-.7.5c-.23.27-.4.4-.5.4m6.15,1-.3-.15q0-.15.3-.45l.3.3Zm-2.55-.9-.1-.3a3.08,3.08,0,0,1,.7,0v.25Z"/><path class="cls-4" d="M150.15,247.4a2.31,2.31,0,0,1-.55,1.45,2.94,2.94,0,0,1-2.5,1.05c-1.23,0-2-.32-2.4-1a3.12,3.12,0,0,1-.15-1.2c0-1.77.93-2.7,2.8-2.8s2.8.72,2.8,2.45"/><path class="cls-5" d="M148.05,245a2.66,2.66,0,0,0-2.3,2.7,2,2,0,0,0,.3,1,2,2,0,0,0,1.9.9,4.79,4.79,0,0,0,.87-.07,3.59,3.59,0,0,1-1.72.37c-1.23,0-2-.32-2.4-1a3.12,3.12,0,0,1-.15-1.2c0-1.77.93-2.7,2.8-2.8h.7"/><path class="cls-6" d="M147.1,247.35q-.4,0-.45-.15c0-.17.15-.25.45-.25l.15.25Zm-.1,1.2a1.55,1.55,0,0,1-.6.15l-.05-.15a.86.86,0,0,1,.6-.3Zm.85-.1a3,3,0,0,1-.55.6l-.45-.05,0-.15a1.15,1.15,0,0,1,1-.4"/><path class="cls-4" d="M160.2,235.5q-5-1.2-5-3.75,0-2.7,2.85-5.4a8.67,8.67,0,0,1,6.1-2.85h.4A8.08,8.08,0,0,1,171,226a7.68,7.68,0,0,1,2.4,5.5c0,1.93-.67,3.25-2,3.95a9.4,9.4,0,0,1-4.45.8,30,30,0,0,1-6.75-.75"/><path class="cls-5" d="M170.4,229.25c.49,0,.86.73,1.1,2.2,0,.17.05.33.07.48-.33.2-.64.41-.94.62l-.36.13a12.43,12.43,0,0,1-.85-1.78c0-.17,0-.47,0-.92a1.22,1.22,0,0,1,.6-1.08c-.06.23.08.35.4.35m1.23,3-.66.2.63-.42a1.46,1.46,0,0,0,0,.22m0,.25q-.56.28-1.08.6s0,0-.05,0a1.19,1.19,0,0,1-.12-.22l.12-.08.45-.15.68-.22a.24.24,0,0,0,0,.12m-.88.83.88-.53V233l-.5.57a1.37,1.37,0,0,1-.38-.22"/><path class="cls-4" d="M170,231.18a1.41,1.41,0,0,1-.38-.93,2.18,2.18,0,0,1,.4-1.32q4.83-.44,5.55.92a7.07,7.07,0,0,1-2.75,1.1,10.48,10.48,0,0,1-2.82.23"/><path class="cls-5" d="M169.88,229.2c0,.1.08.19.12.3.27.67.6,1,1,1A16,16,0,0,0,175,230c.33-.1.15.09-.55.55a13,13,0,0,1-1.55.45,10.52,10.52,0,0,1-2.83.23,1.4,1.4,0,0,1-.37-.93,2.25,2.25,0,0,1,.23-1.05"/><path class="cls-5" d="M158.3,228.78q-.6,1.77,1.2,3.8t8.37,3.65l-.92,0a30,30,0,0,1-6.75-.75q-5-1.2-5-3.75,0-2.7,2.85-5.4a9,9,0,0,1,5.4-2.82,9.34,9.34,0,0,0-2.78,1.9,7.87,7.87,0,0,0-2.37,3.35"/><path class="cls-6" d="M163.2,226.85l0-.15.2,0,.05.2Zm-.85.3.05,0-.65.25-.1,0c0-.07.13-.13.3-.2a.6.6,0,0,1,.4,0m-.65.75a.6.6,0,0,1,.45-.3q.3,0,.3.15a.4.4,0,0,1-.15.25c0,.07,0,.1.1.1a.77.77,0,0,1-.2.4.59.59,0,0,1-.4.2l-.1-.35c0-.1.08-.23.25-.4h-.2Zm2,1.55.15.05v.1l-.25.05-.05-.15a.21.21,0,0,1,.15-.05M159,232s-.15.12-.45.25l-.05-.15c0-.13.15-.2.45-.2Zm.05.3c.17,0,.25.07.25.2s-.12.3-.35.3-.2-.08-.2-.25.1-.25.3-.25m4.6,2.55-.5.4L163,235a.71.71,0,0,1,.5-.25Zm-.65-.2.1,0-.15.3h-.1l-.05-.15Zm5.85-9c.23-.17.35-.07.35.3l-.15.05a.28.28,0,0,1-.2-.1Zm-4.3-.55s0-.08.1-.15l.2.35-.1.1c-.13-.13-.2-.23-.2-.3m-.6.4-.2-.35.3.15v.15Zm1.95-.15v.1l-.1.05a1,1,0,0,1-.65-.35c0-.07.13-.1.3-.1s.25.1.45.3m4.25.9c0,.23-.1.35-.3.35s-.4-.15-.4-.45.12-.33.35-.3a.37.37,0,0,1,.35.4m-1.15.45h-.1l0-.25H169l.05.2Zm3,2.7,0,0c0-.13.08-.2.25-.2l0,.05Zm.55-.1a.54.54,0,0,0-.25.2l-.05-.05a.24.24,0,0,1,.25-.2Zm.55.85.1.1-.05.1-.1,0-.1-.25Zm-1.05,0-.1.05-.15-.1c0-.13.08-.2.25-.2l.05.15Zm0-.4-.5.15-.1,0c0-.07,0-.15.1-.25a.45.45,0,0,1,.5,0Zm-2.8,4.25c0,.2-.13.3-.4.3l-.2,0,0-.2c0-.17.12-.27.35-.3s.3,0,.3.25m-5.45-4a.19.19,0,0,1-.15-.2c0-.13.08-.22.25-.25s.15.12.15.15-.08.17-.25.3m1.3,2.85h-.15l-.05,0,.15-.2.15.1Zm3.3.5a.27.27,0,0,1,.35,0c.07.07.1.12.1.15s-.17.2-.5.3l-.05-.2a.28.28,0,0,1,.1-.2"/><path class="cls-4" d="M89,223.85a7.68,7.68,0,0,1,2.4-5.5,8.08,8.08,0,0,1,6.45-2.5h.4a8.67,8.67,0,0,1,6.1,2.85q2.85,2.7,2.85,5.4t-5,3.75a30,30,0,0,1-6.75.75,9.4,9.4,0,0,1-4.45-.8c-1.33-.7-2-2-2-4"/><path class="cls-5" d="M91.2,225.9a2.57,2.57,0,0,0-.5-.55v-.2c.3.17.6.35.9.55a1.07,1.07,0,0,1-.4.2m.15-1.1-.65-.2a.49.49,0,0,0,0-.2,5.2,5.2,0,0,1,.6.4m-.65,0a.07.07,0,0,0,0-.1l.7.2a3,3,0,0,0,.45.15l.1.1c0,.07-.07.13-.1.2a0,0,0,0,1,0,0l-1.1-.6M92,221.6c.33,0,.47-.12.4-.35a1.25,1.25,0,0,1,.6,1.1,5.83,5.83,0,0,1,0,.9,10.31,10.31,0,0,1-.85,1.8,1,1,0,0,0-.35-.15c-.3-.2-.62-.4-1-.6,0-.17.07-.33.1-.5.23-1.47.6-2.2,1.1-2.2"/><path class="cls-4" d="M92.3,223.55a10.12,10.12,0,0,1-2.8-.25,7.07,7.07,0,0,1-2.75-1.1q.7-1.35,5.55-.9a2.14,2.14,0,0,1,.4,1.3,1.4,1.4,0,0,1-.4,1"/><path class="cls-5" d="M92.7,222.6a1.4,1.4,0,0,1-.4,1,11.46,11.46,0,0,1-4.35-.7c-.7-.47-.88-.65-.55-.55a15.86,15.86,0,0,0,3.95.55c.4,0,.73-.33,1-1l.1-.3a2.09,2.09,0,0,1,.25,1"/><path class="cls-5" d="M94.45,228.6q6.6-1.65,8.4-3.65c1.2-1.37,1.6-2.63,1.2-3.8a7.67,7.67,0,0,0-2.4-3.35,8.36,8.36,0,0,0-2.75-1.9,8.89,8.89,0,0,1,5.4,2.8q2.85,2.7,2.85,5.4t-5,3.75a30,30,0,0,1-6.75.75Z"/><path class="cls-6" d="M103.45,225.15c-.23,0-.35-.1-.35-.3s.08-.2.25-.2.3.08.3.25-.07.25-.2.25m0-.9c.3,0,.45.07.45.2l-.05.15c-.3-.13-.45-.22-.45-.25Zm-4.15,2.8.1-.05.2.2,0,.15h-.1Zm0,.3-.1.25-.5-.4.1-.1a.71.71,0,0,1,.5.25m-6.2-.95c0-.2.1-.28.3-.25s.35.13.35.3l0,.2-.2,0c-.27,0-.4-.1-.4-.3m.4-.5s0-.08.1-.15a.31.31,0,0,1,.45.25l0,.2c-.33-.1-.5-.2-.5-.3m3.75-.6-.1-.15.15-.1.15.2,0,.05Zm-4-6.25.05-.2h.15l0,.25h-.1Zm0-.65-.15-.05c0-.37.12-.47.35-.3v.25a.28.28,0,0,1-.2.1m3.6-1c.17,0,.27,0,.3.1a1,1,0,0,1-.65.35l-.1-.05v-.1q.3-.3.45-.3m.7.35-.1-.1.2-.35c.07.07.1.12.1.15s-.07.17-.2.3m.7,4.35s.05-.08.15-.15.25.12.25.25a.19.19,0,0,1-.15.2c-.17-.13-.25-.23-.25-.3m.35-.35a.21.21,0,0,1,.15,0l0,.15-.25-.05v-.1Zm.5-2.75,0,.15H99l0-.2Zm-.55-1.5-.2.35-.1-.05v-.15Zm2,2.7-.05.05h-.2c.17.17.25.3.25.4l-.1.35a.59.59,0,0,1-.4-.2.77.77,0,0,1-.2-.4c.07,0,.1,0,.1-.1a.4.4,0,0,1-.15-.25q0-.19.3-.15a.6.6,0,0,1,.45.3m0-.5-.1.05-.65-.25,0-.05a.6.6,0,0,1,.4.05c.17.07.27.13.3.2M90.35,222.3c.17,0,.25.07.25.2l-.15.1-.1,0,0-.1Zm.6-.05-.1.05-.5-.15V222a.45.45,0,0,1,.5,0c.1.1.13.18.1.25m-1.65.3h.15l-.1.25-.1-.05,0-.1Zm.85-1,0,0c.17,0,.25.07.25.2l0,.05Zm-.3.1.05,0a.24.24,0,0,1,.25.2l-.05.05a.54.54,0,0,0-.25-.2m2.7-2.7c-.2,0-.3-.12-.3-.35a.37.37,0,0,1,.35-.4c.23,0,.35.07.35.3s-.13.45-.4.45"/></g></svg>