<svg xmlns="http://www.w3.org/2000/svg" xmlns:xlink="http://www.w3.org/1999/xlink" viewBox="0 0 300 300"><defs><style>.cls-1{fill:none;}.cls-2{clip-path:url(#clip-path);}.cls-3{fill:#d3a759;}.cls-10,.cls-3,.cls-4,.cls-5,.cls-6,.cls-9{fill-rule:evenodd;}.cls-4{fill:#7f5e3b;}.cls-5{fill:#bc823c;}.cls-6{fill:#d7dfe2;}.cls-7{opacity:0.5;}.cls-8{clip-path:url(#clip-path-2);}.cls-9{fill:#fff;}.cls-10{fill:#c7d0d3;}</style><clipPath id="clip-path"><path class="cls-1" d="M118.6,210.3a14.76,14.76,0,0,0-2.35,1.11V235.9h39.46q.94-1.85,2.14-4.15a1.59,1.59,0,0,1-.85-.6c-.13-.23.19-.48.95-.75q-.25-1.89-5.88-8.55t-8.32-8.52l-.52-.37a9.07,9.07,0,0,1-1.56,1.09,20,20,0,0,1-10.52,2.17A14.3,14.3,0,0,1,120.6,211c-.31-.36-.6-.72-.88-1.09l-1.12.39M147,189.9c.72,5.44,1.16,9.28,1.31,11.45v5.1l-1.72.1a13.16,13.16,0,0,1-.41,1.67c.46,0,.68.1.63.21a1.52,1.52,0,0,1-.33.42c-.15.13-.21.23-.19.3l5.1,5.3q9.8,10.2,11.07,12.1a6,6,0,0,1,1.25,2.75c0,.47-1.12,2.68-3.31,6.6h17.31v-46Z"/></clipPath><clipPath id="clip-path-2"><rect class="cls-1" x="150.1" y="193.95" width="20.35" height="24.62"/></clipPath></defs><title>Plan de travail 52</title><g id="objet05"><g class="cls-2"><path class="cls-3" d="M155,203.16l-.5.51a48.92,48.92,0,0,1,2.64,4.61c1.33,2.66,2,4.43,1.87,5.29q-.18,2.1-12.18,9.57-12.31,7.61-18.28,7.43l-1.59-3.18q-2.39-4.68-4.13-7.51a68.23,68.23,0,0,1,6.59-3.41l9.72-4.63q2.58-1.32,8-4.44,5.57-3.19,7.78-4.35Z"/><path class="cls-4" d="M157.83,208.27c-1.16-1.24-.84-2.7,1-4.4,1.57-1,3.39-2.15,5.45-3.52a44,44,0,0,0,4.35-3.64,1,1,0,0,1,.35.11,7.06,7.06,0,0,1,1.44,2.24l1.27,2.13c.18.33.33.63.44.89-1.87,1.53-3.15,2.53-3.87,3q-2.7,1.6-5.16,3.14c-1.25.8-2.26,1.48-3,2.05a13.7,13.7,0,0,1-2.23-2"/><path class="cls-5" d="M161.66,209a.19.19,0,0,0,.16-.19,11.7,11.7,0,0,1-.86-3.19c0-.25-.14-1.23-.32-2.91l-.3.2a10.36,10.36,0,0,0-.2,1.28,7.83,7.83,0,0,0,.31,2.59,3.39,3.39,0,0,0,1.21,2.22"/><path class="cls-5" d="M166.88,198.25l-.14.13a1.05,1.05,0,0,0-.06.29s.07,1.06.21,3.08c.31,2.07.82,3.14,1.51,3.2h0a1.77,1.77,0,0,0,.17-.12l.08-.15a19.54,19.54,0,0,1-1.8-6.43"/><path class="cls-5" d="M169.34,200.27a6,6,0,0,0,1.26,2.17l.1,0a17.63,17.63,0,0,1-1-2.3c-.41-1.07-.69-1.82-.85-2.24h-.15V198a6.78,6.78,0,0,0,.64,2.27"/><path class="cls-5" d="M165.28,203.51a15,15,0,0,1-.54-3.47h-.05a.1.1,0,0,0-.05,0l-.15,1a9.9,9.9,0,0,0,.22,3.09,8,8,0,0,0,.93,2.44l.34-.2c-.14-.67-.37-1.64-.7-2.94"/><path class="cls-5" d="M163.52,208a11.57,11.57,0,0,1-.42-3.75c.07-1.35.11-2.39.1-3.16-.12.09-.26.17-.38.25l-.41,2.75s0,.72.11,2.07c.16,1.18.38,1.86.68,2l.32-.19"/><path class="cls-6" d="M151.6,196.1l1-.72q3.38,5.16,9.4,14.9,2.63,4.25,4.58,7.46c-1.92,1.11-3,1.75-3.33,1.9-.84.4-1.64.8-2.4,1.18q-1.31-2.41-2.93-5.54-4-7.86-8.68-17.42c.32-.25.66-.5,1-.76l1.19-.87.2-.06,0-.07"/><path class="cls-6" d="M175.41,205.75a4.92,4.92,0,0,1-1.7,1q-.45,0-7.56-12.2-.06-3.59,5.13,1.85t5.2,7a2.71,2.71,0,0,1-1.07,2.36"/><g class="cls-7"><g class="cls-8"><path class="cls-9" d="M150.09,198.24a.49.49,0,0,1,.44-.31c.19,0,.28.14.26.38l-.07.24c.06,0,0,0-.15,0Zm1.37-.12c-.24-.19-.48-.36-.7-.52l1.37-1.28c.68,1.22,1.55,2.78,2.63,4.66a2,2,0,0,1,.11.21q-3-2.73-3.41-3.07m16.48-2.3a9.32,9.32,0,0,0-.7-1.07c.09-1,.66-1.06,1.72-.19s1.52,1.48,1.48,1.94-.27.58-.7.54a2.75,2.75,0,0,1-1.8-1.22m-4.46,22.49-.34.22-.06,0a4.78,4.78,0,0,0,.32-.5.68.68,0,0,1,.08.24m.73-1.59a1.53,1.53,0,0,0,0-.36,12.88,12.88,0,0,0-1.74-3.7,29,29,0,0,1,3,4.37l-.88.55a.92.92,0,0,1-.47-.37l-.09-.16.19-.33m-.54,1.45c0-.09-.08-.2-.12-.33.12-.19.23-.38.36-.57l0,.07a3.73,3.73,0,0,1,.2.52,5.66,5.66,0,0,1-.48.31"/></g></g><path class="cls-4" d="M145.52,208.3l-.27.16q3.23,5.58,7.07,11.09l.54-.36-.91-1.35q-4-6-6.43-9.54"/><path class="cls-4" d="M153.45,216.88c-1.73-3.11-3.14-5.51-4.26-7.22-.61-1-1.12-1.87-1.56-2.57l-.54.31-.06,0q2,3.51,5.34,9.64l1,1.75.84-.6-.76-1.35"/><path class="cls-4" d="M129.56,222.13v0c-.26-2.21-.48-4-.64-5.43l-.74.36c.05,1.24.13,2.72.25,4.46-1.57-.9-3-1.68-4.37-2.37l-.91.52q2.3,1.44,5.38,3.24.08.78.15,1.65c.2,2.39.41,4.39.63,6,.31,0,.64-.05,1-.1-.11-1.72-.3-4-.59-6.88q3.56,2,8,4.49l1.17-.56c-4-2.23-6.19-3.47-6.51-3.68-1-.6-1.94-1.16-2.86-1.7"/><path class="cls-4" d="M152.75,213.05c1,1.48,1.95,2.83,2.87,4.13.65-.51,1.21-1,1.68-1.4l-5.6-9.86-.48-.87-.68.38c1.64,3.4,2.78,5.73,3.43,6.93.54,1,1.09,2,1.66,2.94l-.38-.57c-2-3.1-4-6-5.89-8.63l-.87.5c1.1,1.71,2.51,3.85,4.26,6.45"/><path class="cls-10" d="M123.22,218.46q4.5,7.29,7.79,12.52a1.51,1.51,0,0,1-.67.74c-.54.35-2,.49-4.26.41a5.49,5.49,0,0,1-5-3.58,8.74,8.74,0,0,1-.86-4.3,10.06,10.06,0,0,1,1.73-4.66,2.31,2.31,0,0,1,1.31-1.13"/></g><path class="cls-5" d="M150.3,203.72q-.11.78-.15,1.5c0,.32-.08.83-.15,1.52l-.25.08q-2.3.65-13.4,1.5l-21.95-.63-.05-.12c-.44-1.25-1-2.76-1.67-4.53l6.5.3a86.27,86.27,0,0,0,9.22.58l1.7.15,5.85.05a17.18,17.18,0,0,0,3,.15,106.89,106.89,0,0,0,11.35-.55"/><path class="cls-6" d="M135.75,205.07v3.82q-3.5.09-10.07.18c-.07-.75-.14-1.57-.23-2.45l-.4-3.48q3.46.09,10.55.23c.05.48.1,1,.15,1.7"/><path class="cls-5" d="M127,207.12a10,10,0,0,1-.1-2.15c0-.27.08-.42.25-.45a27.41,27.41,0,0,1,3.35-.1,20.71,20.71,0,0,1,4,.2c.13,0,.2.2.2.5a10.14,10.14,0,0,1-.1,1.7c-.1.46-1.9.7-5.4.7-1.3,0-2-.14-2.2-.4"/><path class="cls-6" d="M135.3,206.22c0,.33-.33.5-1,.5a1.18,1.18,0,0,1-.9-.25.4.4,0,0,1-.1-.3c0-.4.33-.59,1-.55s1,.23,1,.6"/></g></svg>