<svg xmlns="http://www.w3.org/2000/svg" viewBox="0 0 300 300"><defs><style>.cls-1{fill:#936c3a;}.cls-1,.cls-2,.cls-3,.cls-4,.cls-5,.cls-6{fill-rule:evenodd;}.cls-2{fill:#f4bf19;}.cls-3{fill:#ad8151;}.cls-4{fill:#754e25;}.cls-5{fill:#e8e9ed;}.cls-6{fill:#f9cd50;}</style></defs><title>Plan de travail 65</title><g id="objet06"><path class="cls-1" d="M148.3,210.5q-8.25-.47-16.25-1.3-10.38-1.09-16.77-2.37c0-1.71-.19-3.49-.41-5.33q5.14.93,9.43,1.55,12.45,1.78,25.3,2.48c-.33,1.31-.77,3-1.3,5"/><path class="cls-2" d="M135,203.69c.22,0,.43.08.65.12l-.6,4.57c-.11.84-.21,1.62-.3,2.36l-7.35-.68c.08-1.12.19-2.33.3-3.62.13-1.6.25-2.94.35-4l7,1.28"/><path class="cls-3" d="M121.83,213.58a3.45,3.45,0,0,0,0,.6,12.28,12.28,0,0,1-.78-2q.3,0,.6.75a5.65,5.65,0,0,1,.23.63m-.63-.43c.06.15.24.7.55,1.68l0,.85a4.86,4.86,0,0,1-.43-1.13l-.3-1.15a.3.3,0,0,1,.15-.25m.4,2.35q.11.25.18.48l0,1.05a10,10,0,0,1-.85-2.33c.13-.17.35.1.65.8m-.15,1.3c.1.38.2.92.33,1.6v.13a.31.31,0,0,1-.13,0c-.1,0-.25-.38-.45-1.15-.27-1-.45-1.62-.55-1.85a2,2,0,0,1,.8,1.25m.27,2.68c0,.19,0,.38,0,.57-.2-.45-.54-1.32-1-2.6a6.82,6.82,0,0,1,1.07,2m-1.07-.58c.07.1.23.43.5,1a9.51,9.51,0,0,1,.43,1l0,.2,0,.1a8.87,8.87,0,0,1-1-2.3Zm-1.4,4.4a2.91,2.91,0,0,1,1,1c.08.16.18.37.3.65-.08.14-.15.28-.22.43a6.66,6.66,0,0,1-.48-.78,10.5,10.5,0,0,0-.7-1.2Zm1.2.1a4.79,4.79,0,0,1,.42.58c-.05.16-.11.33-.17.5a5.21,5.21,0,0,1-.55-.68l-.6-1.1c.13-.13.43.1.9.7m-.5-1.75a3.83,3.83,0,0,1,1.2,1.4l-.12.5a4.86,4.86,0,0,1-.53-.75c-.3-.53-.52-.9-.65-1.1Zm1.47.18c0,.13,0,.26-.07.4a5.61,5.61,0,0,1-.6-.78c-.33-.47-.57-.78-.7-.95v-.25a2.12,2.12,0,0,1,1,.85,3,3,0,0,1,.42.73m-3.27,3.57h.1a11.1,11.1,0,0,1,1,1.75l-.3.48c-.37-.76-.65-1.38-.85-1.88Zm.4-.6a5.67,5.67,0,0,1,.85,1.1,5.82,5.82,0,0,1,.32.55q-.12.24-.27.48l-1.1-2Zm.4-.5a3.61,3.61,0,0,1,1.2,1.38c-.09.18-.2.37-.3.55l-.35-.58a4.83,4.83,0,0,1-.65-1.25s0-.05.1-.05Zm-.1,3.53c-.13.16-.25.32-.38.47l-.82-2.25c.27,0,.57.3.9,1a6.73,6.73,0,0,1,.3.78"/><path class="cls-4" d="M119.65,209.85c.27.32.61.7,1.16,1.36a4.33,4.33,0,0,0,.61.64,66.4,66.4,0,0,1-.37,7.08q-.47,5.65-3.27,8.62a4.23,4.23,0,0,0-1.68-.25h-.25c0-.49.07-.91.1-1.25q.26-3.15.25-6.7c0-2.5,0-4.28-.1-5.35l-.27-2.38c.58-.3,1.28-.67,2.07-1.12l1.75-.65"/><path class="cls-1" d="M116.9,214.45a6.46,6.46,0,0,1-.15-1.45v-.3h0a20.55,20.55,0,0,1,.45,4.65,14.38,14.38,0,0,1-.15,2.5l-.15-.2.1-3.2a9.67,9.67,0,0,0-.15-2m.4,5.8c.07.13,0,.2-.35.2l-.1,0v-.2Zm-.15.75h-.3l0-.1c0-.1.15-.18.45-.25l0,.1Zm-.35,1.6,0-.7H117l0,.3-.1.65h-.1Z"/><path class="cls-5" d="M138,209.81a.55.55,0,0,1,.46.21c-.07,0-.1,0-.1,0a2.07,2.07,0,0,1-.69,1.22h-.15a2.12,2.12,0,0,1-.46-1.22v0a1.15,1.15,0,0,1,.55,0Z"/><path class="cls-3" d="M139.3,204.92a14.78,14.78,0,0,1-.48,3.12c-.19,1-.34,1.81-.46,2.43l-.08.05a.5.5,0,0,0,0-.12l-.32,0a2.63,2.63,0,0,1-1.14-.25s.22-1.75.72-5.13c0-.22.06-.43.1-.63a.79.79,0,0,1,.49-.13c.73,0,1.12.22,1.15.64"/><path class="cls-6" d="M139.19,204c.3.17.46.34.47.51a.68.68,0,0,1-.77.55,2.07,2.07,0,0,1-1.22-.3.73.73,0,0,1-.32-.51c0-.37.21-.56.67-.56a2.3,2.3,0,0,1,1.17.31"/><path class="cls-5" d="M139,204.33c0,.21-.15.31-.48.31s-.61-.15-.62-.46c0-.13.1-.2.34-.2.5,0,.75.12.76.35"/><path class="cls-5" d="M126,208.21a.55.55,0,0,1,.47.16q-.09,0-.09.06a2,2,0,0,1-.58,1.28h-.15a2.14,2.14,0,0,1-.56-1.17v-.05a1.46,1.46,0,0,1,.55-.05Z"/><path class="cls-3" d="M126.86,203.21a15.66,15.66,0,0,1-.19,3.15c-.1,1-.18,1.84-.24,2.47l-.07.06a.57.57,0,0,0,0-.13,1.65,1.65,0,0,1-.32.06,2.48,2.48,0,0,1-1.15-.15s0-1.76.23-5.17c0-.23,0-.44,0-.64a.75.75,0,0,1,.48-.17c.73-.07,1.13.11,1.21.52"/><path class="cls-6" d="M126.65,202.29c.32.14.5.29.52.46a.7.7,0,0,1-.72.63,2.1,2.1,0,0,1-1.24-.19.77.77,0,0,1-.37-.48c0-.37.16-.57.62-.62a2.26,2.26,0,0,1,1.19.2"/><path class="cls-5" d="M126.5,202.66c0,.2-.12.32-.46.35s-.61-.1-.66-.4c0-.13.09-.21.32-.23.5,0,.77,0,.8.28"/><path class="cls-5" d="M122.79,207.71a.56.56,0,0,1,.48.13c-.06,0-.09,0-.08.07a2.09,2.09,0,0,1-.52,1.3l-.15,0a2.15,2.15,0,0,1-.62-1.14V208a1.39,1.39,0,0,1,.54-.08Z"/><path class="cls-3" d="M123.45,202.67a14.84,14.84,0,0,1,0,3.16c0,1-.09,1.84-.12,2.47l-.07.06v-.12l-.32.07a2.69,2.69,0,0,1-1.16-.1s0-1.76,0-5.17c0-.23,0-.44,0-.64a.82.82,0,0,1,.47-.2c.72-.1,1.13.06,1.23.47"/><path class="cls-6" d="M123.2,201.76c.33.12.51.27.54.43a.69.69,0,0,1-.68.66,2,2,0,0,1-1.25-.13.73.73,0,0,1-.39-.46c-.07-.36.13-.58.59-.64a2.15,2.15,0,0,1,1.19.14"/><path class="cls-5" d="M123.07,202.13c0,.2-.11.32-.44.37s-.62-.06-.68-.36c0-.14.08-.22.31-.25q.75-.1.81.24"/><path class="cls-5" d="M119.9,207.24a.55.55,0,0,1,.49.11c-.06,0-.09,0-.08.07a2,2,0,0,1-.46,1.33l-.14,0a2.14,2.14,0,0,1-.68-1.11v0a1.37,1.37,0,0,1,.54-.11Z"/><path class="cls-3" d="M120.31,202.18a14.65,14.65,0,0,1,.11,3.15c0,1,0,1.84,0,2.48l-.07.06v-.12l-.32.08a2.52,2.52,0,0,1-1.16,0s-.11-1.76-.26-5.17c0-.23,0-.44,0-.64a.83.83,0,0,1,.46-.22c.72-.14,1.14,0,1.25.41"/><path class="cls-6" d="M120,201.28c.33.1.52.24.56.41a.69.69,0,0,1-.65.69,2,2,0,0,1-1.25-.07.74.74,0,0,1-.42-.44c-.08-.36.1-.59.56-.67a2.2,2.2,0,0,1,1.2.08"/><path class="cls-5" d="M119.91,201.66q.06.3-.42.39c-.4.08-.63,0-.7-.33,0-.13.07-.22.3-.26.49-.1.76,0,.82.2"/><path class="cls-5" d="M117.29,206.76a.55.55,0,0,1,.49.08c-.06,0-.09,0-.08.08a2.06,2.06,0,0,1-.36,1.35l-.15,0a2.12,2.12,0,0,1-.75-1.06v-.05a1.23,1.23,0,0,1,.53-.14Z"/><path class="cls-3" d="M117.36,201.68a15,15,0,0,1,.32,3.15c.07,1,.12,1.83.16,2.47l0,.07c0-.05,0-.09,0-.13a2.09,2.09,0,0,1-.3.11,2.72,2.72,0,0,1-1.17,0s-.23-1.75-.6-5.14c0-.23,0-.44-.07-.64a.82.82,0,0,1,.45-.25c.71-.18,1.13-.07,1.28.32"/><path class="cls-6" d="M117,200.8c.34.09.53.21.58.38a.68.68,0,0,1-.6.73,2,2,0,0,1-1.26,0,.72.72,0,0,1-.44-.41c-.11-.35.06-.59.51-.71a2.36,2.36,0,0,1,1.21,0"/><path class="cls-5" d="M116.92,201.2c.06.19-.07.33-.4.41s-.62,0-.71-.28c0-.13,0-.23.28-.28.48-.13.76-.08.83.15"/><path class="cls-5" d="M140.89,210a.51.51,0,0,1,.45.2c-.06,0-.1,0-.1.05a2,2,0,0,1-.71,1.19h-.15a2,2,0,0,1-.43-1.19v-.05a1.15,1.15,0,0,1,.55,0Z"/><path class="cls-3" d="M142.33,205.17a14.65,14.65,0,0,1-.54,3.07l-.51,2.39s-.05,0-.07.06a.51.51,0,0,1,0-.13,1.69,1.69,0,0,1-.33,0,2.7,2.7,0,0,1-1.13-.25c0-.05.25-1.73.82-5,0-.22.07-.43.1-.63a.93.93,0,0,1,.5-.12c.73,0,1.11.21,1.14.62"/><path class="cls-6" d="M142.23,204.25c.31.17.46.33.47.5a.71.71,0,0,1-.79.55,2,2,0,0,1-1.21-.3.7.7,0,0,1-.31-.5c0-.37.22-.55.68-.55a2.23,2.23,0,0,1,1.16.3"/><path class="cls-5" d="M142,204.6c0,.2-.16.3-.49.3s-.61-.15-.61-.45c0-.13.11-.2.34-.2.5,0,.75.12.76.35"/><path class="cls-5" d="M143.69,210.25a.54.54,0,0,1,.46.2c-.07,0-.1,0-.1.05a2.11,2.11,0,0,1-.73,1.2h-.15a2,2,0,0,1-.42-1.2v-.05a1.14,1.14,0,0,1,.55,0Z"/><path class="cls-3" d="M145.19,205.41a15.24,15.24,0,0,1-.58,3.08c-.21,1-.39,1.79-.53,2.41l-.08,0,0-.13a1.76,1.76,0,0,1-.33,0,2.7,2.7,0,0,1-1.13-.25s.27-1.73.87-5.06c0-.22.08-.43.11-.63a.84.84,0,0,1,.5-.13q1.09,0,1.14.63"/><path class="cls-6" d="M145.09,204.48c.31.17.46.34.46.5a.71.71,0,0,1-.79.56,1.93,1.93,0,0,1-1.2-.31.65.65,0,0,1-.31-.5c0-.36.22-.55.69-.55a2.19,2.19,0,0,1,1.15.3"/><path class="cls-5" d="M144.9,204.83c0,.2-.16.31-.49.31s-.61-.16-.61-.46c0-.13.11-.2.34-.2.5,0,.76.12.76.35"/><path class="cls-5" d="M146.65,210.43a.54.54,0,0,1,.46.2c-.07,0-.11,0-.1.05a2.1,2.1,0,0,1-.72,1.2h-.15a2,2,0,0,1-.43-1.2v-.05a1.1,1.1,0,0,1,.54,0Z"/><path class="cls-3" d="M148.11,205.59a15,15,0,0,1-.55,3.08c-.21,1-.38,1.79-.52,2.41l-.07,0a.51.51,0,0,1,0-.13,1.66,1.66,0,0,1-.32,0,2.72,2.72,0,0,1-1.14-.25c0-.05.26-1.73.83-5.06,0-.22.08-.43.11-.63a.93.93,0,0,1,.5-.12c.73,0,1.11.21,1.14.62"/><path class="cls-6" d="M148,204.67c.3.16.46.33.46.5a.7.7,0,0,1-.78.55,2,2,0,0,1-1.21-.3.68.68,0,0,1-.31-.5c0-.37.22-.55.68-.55a2.23,2.23,0,0,1,1.16.3"/><path class="cls-5" d="M147.82,205c0,.2-.16.3-.49.3s-.61-.15-.62-.45c0-.14.12-.2.35-.2.5,0,.75.11.76.35"/></g></svg>