<svg xmlns="http://www.w3.org/2000/svg" xmlns:xlink="http://www.w3.org/1999/xlink" viewBox="0 0 300 300"><defs><style>.cls-1{fill:none;}.cls-2{fill:#ad8151;}.cls-11,.cls-12,.cls-13,.cls-14,.cls-15,.cls-2,.cls-3,.cls-4,.cls-5,.cls-6,.cls-7,.cls-8{fill-rule:evenodd;}.cls-3{fill:#936c3a;}.cls-4{fill:#b2865f;}.cls-5{fill:#996a47;}.cls-6{fill:#ffb7b3;}.cls-7{fill:#e88d8b;}.cls-8{fill:#ddb083;}.cls-9{opacity:0.5;}.cls-10{clip-path:url(#clip-path);}.cls-11{fill:#333;}.cls-12{fill:#edc9b7;}.cls-13{fill:#cca392;}.cls-14{fill:#ad8476;}.cls-15{fill:#c69161;}</style><clipPath id="clip-path"><rect class="cls-1" x="55.28" y="153.55" width="56.85" height="39.95"/></clipPath></defs><title>Plan de travail 48</title><g id="objet04"><path class="cls-2" d="M100.5,190.58c.88-.63,1.65-1.22,2.32-1.78q15.77,20.44,39.6,58.48a5.71,5.71,0,0,1-2.42,2.37,10.12,10.12,0,0,1-3.08,1.08Q110,205.87,100.5,190.58"/><path class="cls-3" d="M139.5,249.9c-.31.15-.63.28-.95.4-.52-1.18-1-2.13-1.3-2.85-1.42-3-2.75-5.73-4-8,1.19,1.88,2.45,4,3.77,6.22.94,1.63,1.76,3,2.45,4.25m-30-46.62a3.16,3.16,0,0,1,.18.27,34.86,34.86,0,0,1,1.55,4c.08.25.18.55.27.9l-1.09-1.82c-.09-.35-.18-.72-.28-1.13-.24-1-.45-1.73-.63-2.27m-3-9.66a27.33,27.33,0,0,1-2,3.43l-4-6.48c.88-.62,1.65-1.21,2.33-1.77,1.18,1.53,2.4,3.14,3.64,4.82m22.31,32.31-1.88-2.13q-2.5-2.7-6.35-7.4l-.8-1q1.74,1.83,4.1,4.18c.49.51,1.32,1.4,2.5,2.68q1.2,1.82,2.43,3.7"/><path class="cls-3" d="M65,145.8c-1.14-2-2.06-3.6-2.75-4.87l.6-.56c1.58,2.35,3,4.59,4.3,6.73-.05-.15-.1-.28-.15-.4q-1.08-2.34-3-6.6,8.07-6.27,20.45-2.85a18.38,18.38,0,0,1,9.8,7.45,19.64,19.64,0,0,1,3.8,11.15,45,45,0,0,1-.25,5.85,16.48,16.48,0,0,1-1,3.58q-.25-.41-2.85-3.48a71.54,71.54,0,0,0-9.6-8.52q-7-5.49-11.5-5.08t-5.63,1.37q-1-1.69-2.27-3.77"/><path class="cls-2" d="M68.55,136c.2.72.45,1.76.75,3.1.2.67.52,1.77,1,3.3a18.42,18.42,0,0,1,.65,3.25l-.25.15c-.3-.91-.7-2.33-1.23-4.25a12.89,12.89,0,0,1-.87-5.55m10.78,15.6-.3-.17a30.51,30.51,0,0,1,1.57-5.68A45.37,45.37,0,0,1,82.3,141ZM78,146.83c-.19,1.46-.34,2.72-.47,3.77l-.5-.25.45-4.3q.76-7.47,1.2-11.2a68.53,68.53,0,0,1-.68,12m-3.67,2.35a9.32,9.32,0,0,0-1-.23c0-.95-.07-2,0-3.12a46,46,0,0,1,.25-5.78c.13,1.57.38,4.62.75,9.13m14.6-11.73-2.7,5.7q-2,4.09-2.7,4.65,1.84-3.9,2.85-5.9a28.23,28.23,0,0,1,2.55-4.45m-4,17.8-.09-.07q7.19-7.67,11.77-9.83c-.87.63-2.68,2.17-5.45,4.6-3.24,2.77-5.31,4.54-6.23,5.3m-1.59-1.17-.16-.1c.55-.84,1.6-2.47,3.13-4.88a39,39,0,0,1,4-5.35c-1.53,2.47-2.72,4.35-3.55,5.65a31,31,0,0,1-3.42,4.68m14.32,1.22a68.57,68.57,0,0,0-6.25,3.85l-1.07.75-.38-.35,1-.65a34.14,34.14,0,0,1,6.7-3.65Zm-.3-6.05q-6.24,5-10,7.93c-.15-.13-.3-.26-.46-.38a32.76,32.76,0,0,1,2.93-2.45l3.8-2.85a18.31,18.31,0,0,1,3.75-2.25M99,160.33q-1.58.31-6.83,1.45l0,0-.13-.12a25.43,25.43,0,0,1,7.43-1.38Zm-2.6-.83q-3.09,1.26-4.63,1.83l-.12-.13a65.82,65.82,0,0,1,7.9-3.15c-1.47.72-2.52,1.2-3.15,1.45"/><path class="cls-4" d="M60.45,144.05A15.63,15.63,0,0,1,63,146.2a58.13,58.13,0,0,0,4.25,4.1,3.63,3.63,0,0,0,.35.3c-.63.67-1.13,1.18-1.5,1.55a8.58,8.58,0,0,1-1.2-1.25c-1.87,1.13-3.08,1.53-3.65,1.2s-1-1.85-1.25-4.55-.15-3.83.45-3.5"/><path class="cls-5" d="M63.65,150.35a1.54,1.54,0,0,1-1.85-.1c-.47-.37-.83-1.83-1.1-4.4h0q.45,2.66,1.2,3.3a2.37,2.37,0,0,0,1.8.35,4.78,4.78,0,0,0,1.2-.35c.33.37.77.82,1.3,1.35l.1.1c0,.17-.23.15-.7,0a1.82,1.82,0,0,1-.9-.7,6.42,6.42,0,0,1-1.1.5"/><path class="cls-6" d="M52.42,196.53c-1-.19-1.42-1.15-1.17-2.9a7.09,7.09,0,0,1,1.62-4c.84-.9,1.22-1.23,1.13-1q1.38,1.4,3.3,3.4c-1.3,2-2.17,3.29-2.63,3.88a2.23,2.23,0,0,1-2.25.6"/><path class="cls-7" d="M55.65,189.55v0h0Zm-1.7,1.3a10.47,10.47,0,0,1,.7-.85l.5.5c-.27.4-.75,1.15-1.45,2.25,0,0-.27.43-.7,1.2a6.38,6.38,0,0,1,1-3.1"/><path class="cls-8" d="M90.2,147.45q4,.11,3.45.9a15.92,15.92,0,0,1-2.5,2.2q-2,1.39-4.7,3.65l-.3.3c-.57-.7-1-1.27-1.35-1.7a16.52,16.52,0,0,1,1.4-1c-.87-2-1.08-3.25-.65-3.75s2-.7,4.65-.6"/><path class="cls-4" d="M91.9,148.3c-1.77.07-2.9.33-3.4.8a2.11,2.11,0,0,0-.65,1.7,5.7,5.7,0,0,0,.2,1.25c-.43.27-1,.62-1.55,1l-.1.1c-.17,0-.12-.25.15-.65a1.87,1.87,0,0,1,.8-.8A7.94,7.94,0,0,1,87,150.6a1.65,1.65,0,0,1,.4-1.85c.4-.4,1.9-.57,4.5-.5Z"/><path class="cls-8" d="M47.47,171.9q4.22-5.27,10-12,6-7,9.83-11.15,7.16-4.94,13.92-1.12c.2.17.48.42.85.72A188.41,188.41,0,0,1,95.7,161.7q5.2,5.55,15.25,17.4c.39.46.78.92,1.17,1.4q-3.83,7.81-14.07,16.05-2.88,2.34-5.93,4.38A161.58,161.58,0,0,0,80.4,178.4l-.57-.9a21.25,21.25,0,0,1-2.63,1.23l-4.87,4.62-1.48,1.4-.5.48c-.11.1-.22.21-.32.32-.48.44-.94.87-1.38,1.3L62,193.13a21.37,21.37,0,0,1-3.85.37c-.73,0-1.4,0-2-.05a43.8,43.8,0,0,1-4.48-6.6q-4.62-8.13-5.43-13.32c.42-.54.86-1.08,1.3-1.63"/><g class="cls-9"><g class="cls-10"><path class="cls-4" d="M95.7,161.7q2,2.09,4.58,5.05,3.47,3.92,8.12,9.35l2.55,3,1.18,1.4a34.29,34.29,0,0,1-2.45,4.15q-4.07-6.63-6.53-10.2-9-12.69-15.5-20.9,4,3.85,8,8.15M79.83,177.5a21.25,21.25,0,0,1-2.63,1.23l-4.87,4.62-1.48,1.4-.5.48c-.11.1-.22.21-.32.32-.48.44-.94.88-1.38,1.3L62,193.13a21.37,21.37,0,0,1-3.85.37c-.73,0-1.4,0-2-.05-.27-.32-.54-.66-.8-1q2.89-.09,9.12-4.8A58.7,58.7,0,0,0,72,181.2q1.1-1.09,3-3.35a10.92,10.92,0,0,1,3.75-2.6,18.28,18.28,0,0,0,4.7-2.65q1.71-1.35,3.15-5.85c-.14,3.69-.48,6.11-1,7.25a25.42,25.42,0,0,1,.7,3.15,38.34,38.34,0,0,1,.55,6.25,31.53,31.53,0,0,1-.5,5.35q-2.88-5.52-5.95-10.35l-.57-.9"/></g></g><path class="cls-4" d="M80.4,178.4l-.57-.9a16.1,16.1,0,0,0,2.42-1.65,10.52,10.52,0,0,0,4.1-8.3,13.76,13.76,0,0,0-.07-1.52,10.9,10.9,0,0,1,.37,3,9,9,0,0,1-1.9,5.95,17.32,17.32,0,0,1-4.35,3.4"/><path class="cls-11" d="M60.15,163.2c-.6-1-.4-1.72.6-2.15a1.56,1.56,0,0,1,2.15.6,1.37,1.37,0,0,1,.1.95,1.69,1.69,0,0,1-.85,1.25,1.26,1.26,0,0,1-1.4,0,4.46,4.46,0,0,1-.6-.6m1-.55c.13.27.3.4.5.4l0-.05a.49.49,0,0,0,.2-.05.6.6,0,0,0,.3-.9.56.56,0,0,0-.85-.2.52.52,0,0,0-.2.8m7.05-.45a.8.8,0,0,1,0,.5.76.76,0,0,1-.4.6.81.81,0,0,1-.9,0l-.25-.3a.86.86,0,0,1,1.5-.85"/><path class="cls-12" d="M53.25,170.6q6,0,11.8,5.3,5.45,5,5,9.65c-.47.44-.93.87-1.37,1.3q-3.95,3.71-6.7,6.27a21.42,21.42,0,0,1-3.85.38c-.73,0-1.4,0-2-.05a44.54,44.54,0,0,1-4.47-6.6q-4.62-8.13-5.43-13.32c.42-.54.86-1.08,1.3-1.63a12.9,12.9,0,0,1,5.78-1.3"/><path class="cls-13" d="M51.2,179.85c-.2-.09-.28.14-.25.7a7.15,7.15,0,0,0,1,2.8,5.24,5.24,0,0,0,2,2.4,1.71,1.71,0,0,1-.65.1c-.87,0-1.68-.68-2.45-2a5.47,5.47,0,0,1-1.05-3,2.09,2.09,0,0,1,.3-1,.44.44,0,0,1,.45-.15,1.61,1.61,0,0,1,.65.2m10.1,4.75a3.12,3.12,0,0,1-.55.05c-.9,0-1.78-.7-2.65-2.1a6.51,6.51,0,0,1-1.2-3.35,2,2,0,0,1,.3-1,1.32,1.32,0,0,1,1.25-.8,2.26,2.26,0,0,1,1,.25c-.63.23-1,.92-1,2.05a6,6,0,0,0,1,3,5,5,0,0,0,1.8,1.9"/><path class="cls-14" d="M51.2,179.85a6.35,6.35,0,0,1,2.45,3c.83,1.63.93,2.62.3,2.95a5.24,5.24,0,0,1-2-2.4,7.15,7.15,0,0,1-1-2.8c0-.56,0-.79.25-.7m8.3-2.25c1,.43,1.83,1.57,2.5,3.4q1.2,3.19-.7,3.6a5,5,0,0,1-1.8-1.9,6,6,0,0,1-1-3c0-1.13.32-1.82,1-2.05"/><path class="cls-15" d="M62.7,153.15l.9.35c.37.1.58.25.65.45v.1a.3.3,0,0,1-.2,0,1.93,1.93,0,0,1-.7-.4,5.69,5.69,0,0,1-.7-.55Zm.35,1-.3.05A2.1,2.1,0,0,1,62,154l-.45-.3c.1-.17.35-.18.75-.05a2.19,2.19,0,0,1,.75.45Zm18.35-5.95c0-.07.08-.18.25-.35a1.15,1.15,0,0,1,.4-.3l0,.1a1.48,1.48,0,0,1-.65.7c0,.07,0,0,0-.15m.85.5c-.27.3-.48.43-.65.4a4.69,4.69,0,0,0,.4-.55.92.92,0,0,1,.65-.4,1.45,1.45,0,0,1-.4.55M62,155.15a1.07,1.07,0,0,1,.65.4v.25s0,0-.2,0a.79.79,0,0,1-.45-.2,4.51,4.51,0,0,0-.55-.35c.1-.17.28-.22.55-.15m-15.9,19.1a.82.82,0,0,1,.45-.15,1.29,1.29,0,0,1,.6,0c0,.07-.3.15-.8.25Zm.8,1a1.22,1.22,0,0,1-.75.2l-.25,0a1,1,0,0,1,.45-.45,1.25,1.25,0,0,1,.7-.2l.25.05,0,.15a1,1,0,0,0-.45.3m13-3.5,0,.1-.55.4-.05-.05a.4.4,0,0,1,.15-.25.59.59,0,0,1,.4-.2m.6.55v.15c0,.07-.12.22-.35.45l-.15-.1c0-.3.13-.47.4-.5Zm21.2-12.05a.68.68,0,0,1-.45.05l.55-.6a.3.3,0,0,1,.15.25c0,.13-.08.23-.25.3m.2.65a.49.49,0,0,1-.2-.05.76.76,0,0,1,1-.4,1.25,1.25,0,0,1-.8.45M65.5,174.05c-.1.3-.25.38-.45.25l.35-.4h0s0,0,0,.15m16,.35a1,1,0,0,1-.55.1l-.5-.05-.1-.15.25-.2h.7l.3.15a.48.48,0,0,1-.1.15m-1,.9a.71.71,0,0,1-.5-.25c.37-.13.62-.1.75.1a.4.4,0,0,1-.25.15m-4.15,6.15c0,.07-.1.1-.2.1s-.3-.15-.6-.45-.4-.43-.4-.5l.05-.1a3.32,3.32,0,0,1,1.2.85c0,.07,0,.1,0,.1m-.8.5c-.07,0-.23-.12-.5-.35s-.4-.48-.4-.65l.15,0a4.27,4.27,0,0,0,.9.75v.25c.07,0,0,0-.15,0M64.85,191.1a6.44,6.44,0,0,1,.45.75l0,.15a1.45,1.45,0,0,1-.75-.6,3.16,3.16,0,0,0-.35-.7l.1,0a.92.92,0,0,1,.6.45m-1.65.4-.1-.6c.37-.17.63.15.8.95-.07.13-.15.2-.25.2s-.35-.18-.45-.55m-11.9-6.2.1.15a1.13,1.13,0,0,1-.45.4,1.15,1.15,0,0,1-.45.15l-.1-.05a1,1,0,0,1,.9-.65m49.2-17.85a1,1,0,0,1,.45-.6c.27-.2.4-.15.4.15,0,.13-.28.28-.85.45m1.55,0-1.1.7a.33.33,0,0,1-.2-.3c0-.13.13-.25.4-.35a2.64,2.64,0,0,1,.9,0M83.4,172l.75.05,0,.1-.15.1h-.6Zm6.8,5.9c0-.1,0-.17.1-.2l.1,0c.23,0,.35.1.35.3s0,.25-.1.25c.1,0,.07.05-.1.05a.34.34,0,0,1-.3-.15Zm1.1-.5a.23.23,0,0,1-.15.25.45.45,0,0,1-.3-.4l.05-.1Zm12.45,11.85,0,.15-.3.15c-.1,0-.15-.15-.15-.35Zm.3,2.05-.35,0-.35,0,0-.25a1.08,1.08,0,0,1,0-.2,2.71,2.71,0,0,1,.7.05l0,.15Zm-16.5-1.15,0-.05v.15c0,.17-.12.3-.45.4L87,190.5a1,1,0,0,1,.55-.35m-.4-.6a3.79,3.79,0,0,1-1.25.7l-.05-.15s.22-.15.55-.35a1.76,1.76,0,0,1,.55-.3Zm14,6c-.2,0-.43-.22-.7-.65a2.1,2.1,0,0,1-.3-.75c.2,0,.58.4,1.15,1.2v.15c.07,0,0,.05-.15.05m-1.4-.65a2.35,2.35,0,0,0,.3.75l-.2.2a9,9,0,0,1-.65-1.45c0-.1,0-.15.1-.15l0-.05a1.05,1.05,0,0,1,.4.7"/></g></svg>