<svg xmlns="http://www.w3.org/2000/svg" viewBox="0 0 300 300"><defs><style>.cls-1{fill:#333;fill-rule:evenodd;}</style></defs><title>Plan de travail 41</title><g id="objet04"><path class="cls-1" d="M108.38,80.6c-.17-.43-.36.22-.58,2a16.11,16.11,0,0,0,1.9,6.75,34.13,34.13,0,0,0,6.1,8.5,27.43,27.43,0,0,0,7.9,6.25,20,20,0,0,0,5.9,1.85h-.35c1.17,0,2.13.07,2.9.1.53,0,3.73.06,9.6.35q5.83,0,12.9.13c4.71.07,7,.1,7,.07a6.18,6.18,0,0,1,1.07,0c2.28,0,4.33,0,6.18.07l-.58.85q-.56.89-4.5.93c-.84,0-1.8,0-2.87,0h-.25q-14.31-.19-17.6-.28.33,4,.8,9.25-4.65.54-16.63,1.83.36-6,.65-11.6a23.61,23.61,0,0,1-8.55-3.9,40.39,40.39,0,0,1-6.2-5.7,33.44,33.44,0,0,1-4.6-7.4q-2.3-4.75-2.3-6.7,0-4.15,2-3.55A1.27,1.27,0,0,0,108.38,80.6Z"/></g></svg>