<svg xmlns="http://www.w3.org/2000/svg" xmlns:xlink="http://www.w3.org/1999/xlink" viewBox="0 0 300 300"><defs><style>.cls-1{fill:none;clip-rule:evenodd;}.cls-2{fill:#f8b334;}.cls-10,.cls-2,.cls-3,.cls-6,.cls-7,.cls-8,.cls-9{fill-rule:evenodd;}.cls-3{fill:#bdc7d6;}.cls-4{clip-path:url(#clip-path);}.cls-10,.cls-5{opacity:0.5;}.cls-10,.cls-6{fill:#fff;}.cls-7{fill:#e4eaef;}.cls-8{fill:#939fb2;}.cls-9{fill:#917b5d;}</style><clipPath id="clip-path"><path class="cls-1" d="M79.25,14.7l1.15-.13q-2.27,16.68-8.62,64.06c-.63.16-1.27.32-1.93.47-1,.27-2.12.6-3.25,1q-9.4,2.55-13.3,3.35a42.27,42.27,0,0,1-9.15-13.1,35,35,0,0,1-1.75-4.7A6.35,6.35,0,0,0,44.3,64a6.09,6.09,0,0,0,1.8-4.1c0-.73-.25-1.15-.65-1.25a10.17,10.17,0,0,1-1.05-.1,5.49,5.49,0,0,0-.7,0,7.51,7.51,0,0,0,.75-4,2.83,2.83,0,0,0-.5-1.7,2.88,2.88,0,0,0-1.3-.4,4.15,4.15,0,0,0-2.5.65V53q.9-13.09,5.45-20.65Q54.19,17.5,79.25,14.7Z"/></clipPath></defs><title>Plan de travail 11</title><g id="objet01"><path class="cls-2" d="M46,93.27l-.9.78q-8.29,7.35-8.3,15a13.48,13.48,0,0,0,2.25,7.7A12.39,12.39,0,0,0,47.75,122a16,16,0,0,0,3.43.62l3.32-.35v3.38a11,11,0,0,1-3.15.92,13,13,0,0,1-2.2.25q-10.55,0-15.1-7.4a19.66,19.66,0,0,1-2.82-9.6q-.27-5.51,6.1-12.23Q43.44,91.14,46.6,90a20,20,0,0,1,.9,1.88Z"/><path class="cls-3" d="M79.25,14.7l1.15-.13q-2.27,16.68-8.62,64.06c-.63.16-1.27.32-1.93.47-1,.27-2.12.6-3.25,1q-9.4,2.55-13.3,3.35a42.27,42.27,0,0,1-9.15-13.1,35,35,0,0,1-1.75-4.7A6.35,6.35,0,0,0,44.3,64a6.09,6.09,0,0,0,1.8-4.1c0-.73-.25-1.15-.65-1.25a10.17,10.17,0,0,1-1.05-.1,5.49,5.49,0,0,0-.7,0,7.51,7.51,0,0,0,.75-4,2.83,2.83,0,0,0-.5-1.7,2.88,2.88,0,0,0-1.3-.4,4.15,4.15,0,0,0-2.5.65V53q.9-13.09,5.45-20.65Q54.19,17.5,79.25,14.7Z"/><g class="cls-4"><g class="cls-5"><path class="cls-6" d="M83,23.38q.27,2.16.45,3.87v.05c.17,1.67.33,3,.5,3.9,0,.32.09.71.13,1.18l-.55,1.12Q75.74,49.09,71,52.07T56.35,53q-9.93-2.08-14,5.37T37.75,68Q35.05,54.14,35,46.25q6-10.89,15.7-12.18a9.53,9.53,0,0,1,6.15,3.08A10.06,10.06,0,0,0,62,40a2.32,2.32,0,0,0,1.07.33,3.45,3.45,0,0,0,.95-.15Q72.86,40.05,83,23.38Z"/></g></g><path class="cls-7" d="M61.8,21.15a30.1,30.1,0,0,0-6.22,4.77,40.71,40.71,0,0,0-4.75,5.9c-1.47,2.2-2.57,5.48-3.33,9.85A70.55,70.55,0,0,0,46.35,53.6,49.54,49.54,0,0,0,49.2,69.25a114,114,0,0,0,5.93,13.8l-1.83.4a42.27,42.27,0,0,1-9.15-13.1,35,35,0,0,1-1.75-4.7A6.35,6.35,0,0,0,44.3,64a6.09,6.09,0,0,0,1.8-4.1c0-.73-.25-1.15-.65-1.25a10.17,10.17,0,0,1-1.05-.1,5.49,5.49,0,0,0-.7,0,7.51,7.51,0,0,0,.75-4,2.83,2.83,0,0,0-.5-1.7,2.88,2.88,0,0,0-1.3-.4,4.15,4.15,0,0,0-2.5.65V53q.9-13.09,5.45-20.65,8.53-14.73,33.28-17.6c-1.39.37-2.88.81-4.48,1.3A59.12,59.12,0,0,0,61.8,21.15Z"/><path class="cls-8" d="M69.35,68.15q0-8.21.23-18.45.3-14.65,4.67-21.85c-.33,2.5-.77,5.93-1.3,10.28Q70.12,61.34,69.35,68.15Z"/><path class="cls-2" d="M74.48,80.07q2.46,5.13,1,12.18-5.45,0-8.53,0-4.5,0-19.17,1.4c-1.9.18-3.46.34-4.68.47a16.05,16.05,0,0,1,3.78-11.75c2.75-3.11,7.93-5,14.29-5.88S72.84,76.67,74.48,80.07Z"/><path class="cls-9" d="M54,113.38q5.13-.24,7.42-1.36a4.87,4.87,0,0,0,.43.33l.22,6.05q0,2.64.3,8l-.25.07a48.79,48.79,0,0,1-5.2.7l-3.47-.2c0-1.4.09-3,.17-4.9q.3-6,.35-7.4C54,114.21,54,113.79,54,113.38Z"/><path class="cls-2" d="M53.23,128.3a8,8,0,0,1-.83-2.25,53.08,53.08,0,0,0,11.55-.6,21.6,21.6,0,0,1-1,2.35q-1.12,2-5,2.25C55.39,130.2,53.81,129.62,53.23,128.3Z"/><path class="cls-10" d="M52.49,80.32c-1.12.14-4.2,1-5.18,3.36s3.5,2.81,5.46.14S53.61,80.18,52.49,80.32Z"/><path class="cls-10" d="M47.93,84a2.1,2.1,0,0,0-2.57,1.15c-.61,1.39,1.52,2.61,2.74,1.22S48.62,84.11,47.93,84Z"/><path class="cls-10" d="M34.81,103.3c-.55-.1-1.82.07-2.35,2.3-.42,1.72.83,2.68,1.81,1.56S35.37,103.4,34.81,103.3Z"/></g></svg>