<svg xmlns="http://www.w3.org/2000/svg" xmlns:xlink="http://www.w3.org/1999/xlink" viewBox="0 0 300 300"><defs><style>.cls-1{fill:none;}.cls-2{clip-path:url(#clip-path);}.cls-3{fill:#936c3a;}.cls-3,.cls-4{fill-rule:evenodd;}.cls-4{fill:#ad8151;}</style><clipPath id="clip-path"><path class="cls-1" d="M176.46,164.48q0,.79.06,1.5a15.79,15.79,0,0,0,.78,4.27,28.14,28.14,0,0,1,1,5.5c.2,2,.22,3.14.05,3.3-.47,1-1.68,1.55-3.65,1.55a11.71,11.71,0,0,1-1.24-.07c.25.77.26,1.3,0,1.57s-.68.38-1.35.33-1.46-.08-2.4-.08a8.08,8.08,0,0,0-3.8,1,10.34,10.34,0,0,1-2.22.88,2.69,2.69,0,0,1-1.38-.46,3.2,3.2,0,0,1-.65-1.72v-.45c0-.1,0-.18,0-.28a2.33,2.33,0,0,1-1.52-.84c-.38-.54-.54-2.28-.5-5.23a35.7,35.7,0,0,1,.43-6,1.62,1.62,0,0,1,1.8-1.53l3.9.28c1.61.11,3,.22,4.1.32a2.33,2.33,0,0,0,2.42-1.15,7.66,7.66,0,0,0,.46-2.62H145.08v61.67h51.34V164.48Z"/></clipPath></defs><title>Plan de travail 25</title><g id="objet02"><g class="cls-2"><path class="cls-3" d="M183.2,179.05q5.75,5.7,5.75,16.4a20,20,0,0,1-3.4,10.8Q180,214.91,168,214.9a20,20,0,0,1-6.8-1.2l-2.8-1.3c0,.08,0,.17,0,.28s0,.82,0,2a8.41,8.41,0,0,1-.27,2.5,32.61,32.61,0,0,0-.83,3.4,11.63,11.63,0,0,0-.4,3.35l-.3,0a4.92,4.92,0,0,1-.25-1.2,10.38,10.38,0,0,1,.18-2,4.45,4.45,0,0,0-1.53,2.67c-.27,0-.4-.23-.4-.7a6.89,6.89,0,0,1,1.35-3.4s.19-.29.58-.82a7.54,7.54,0,0,0,.5-3.33,15.49,15.49,0,0,0-.38-3.6q-3-3.49-4.1-5.1a25.57,25.57,0,0,1-4.9-12.85,22.16,22.16,0,0,1,2.75-12.32q3.19-5.88,6.28-6.53c2-.44,3.21-.45,3.5-.05a1.89,1.89,0,0,1,.42.95c0,.39-.59,1-1.77,1.9l-.33.23-.05,0c-.12.08-.66.52-1.62,1.33a16.66,16.66,0,0,0-3.18,4.07c-.33.74-.61,1.45-.85,2.15a34.16,34.16,0,0,0-.9,4.45,39.61,39.61,0,0,0-.7,5.35,21.38,21.38,0,0,0,1.4,6.6,15.18,15.18,0,0,0,3.55,6.32c0-.32-.06-.71-.1-1.17q-.15.2-2.05-4.15a21.74,21.74,0,0,1-1.9-8.8,19.24,19.24,0,0,1,18.45-19.55,16.06,16.06,0,0,1,12.65,4.6M156,192.45a30.89,30.89,0,0,0,.75,8.25q2.25,7.2,10.15,7.2,10.46,0,14.3-6.15a15,15,0,0,0,2-8.15q0-8.81-4.25-13a10.65,10.65,0,0,0-9.35-3,15.79,15.79,0,0,0-9.4,4.75,14,14,0,0,0-4.25,10.1m2.13,16.78a10.83,10.83,0,0,0,3.22,2,17.36,17.36,0,0,0,6.8,1.25q10.54,0,15.5-7.85a17.49,17.49,0,0,0,3-9.25,22.66,22.66,0,0,0-.95-5.55,14.61,14.61,0,0,0-1.9-4.85V185c.4,2.3.72,4,.95,5.05,0,.27.05,1.43.05,3.5q0,6.6-1.9,10.1-4,7.29-13,7.45T158,208.2c.06.43.1.77.13,1"/><path class="cls-4" d="M182,177.8l-3.95,0q-13.25.75-18.3,1.1l-1.6.12-.85,0q-.65-.15-1.35-3a17.35,17.35,0,0,1-.65-3.8q7.06-.78,25.3-2.2a103.16,103.16,0,0,0,11.72-1.75c.87,0,1.36.2,1.48.5a5.21,5.21,0,0,1,.4.6,1.28,1.28,0,0,1,.4.45,10,10,0,0,1,.35,2.55,7.46,7.46,0,0,1-.4,2.4,3.37,3.37,0,0,1-1.35,1.9,3.17,3.17,0,0,1-1,.55H192a4.06,4.06,0,0,1-1.75.07l-7.75.33Z"/><path class="cls-3" d="M187.65,177.48l-.45,0a17.38,17.38,0,0,0,2.2-8.2h.2l.15,1.45a33.19,33.19,0,0,1-.9,4.15,11.31,11.31,0,0,1-1.2,2.58m3-4.63c0,1.13,0,1.92,0,2.35-.09.79-.15,1.51-.21,2.19l.3,0a19.77,19.77,0,0,0,.51-4.61,20.32,20.32,0,0,0-.37-4.15l-.49.1a23.22,23.22,0,0,1,.31,4.1m-12.29-2.58c-.09.39-.18.82-.26,1.33a14.21,14.21,0,0,1-.7,3,18.2,18.2,0,0,1-2.07,3.4l.74,0a13,13,0,0,0,1.63-2.61,12,12,0,0,0,1.29-5.13l-.63.05m6.94,4a11.84,11.84,0,0,0,1.15-4.9v0l-.5.07a17.1,17.1,0,0,1-1,4,17.61,17.61,0,0,1-2.35,4.29l.47,0a11.24,11.24,0,0,0,2.23-3.37m6.9.15a19.82,19.82,0,0,1-1.05,3,5.44,5.44,0,0,0,.75-.11H192c.1-.26.2-.52.3-.8a20.33,20.33,0,0,0,1.2-6.3c0-.6,0-1.14,0-1.64a2.34,2.34,0,0,0-.52-.15,24.65,24.65,0,0,1-.69,6m-10.6-2.3a19.52,19.52,0,0,1-.94,5.67h.58a13.81,13.81,0,0,0,.81-4.56,10.83,10.83,0,0,0-.46-3.26l-.43,0Zm-12.6,4a9.67,9.67,0,0,0,1.8-4.45l-.07-.81-.27,0c-.21,2.47-1.55,5-4,7.61l.82-.05a12.57,12.57,0,0,0,1.75-2.32m5-1.8a15.42,15.42,0,0,0,2-3.89l-.76.06a15.11,15.11,0,0,1-6,7.84l1.05-.06a13.85,13.85,0,0,0,3.72-4m-11.3,2.3a14.34,14.34,0,0,0,.6-2.2,13.7,13.7,0,0,0,.4-2.4c0-.2,0-.38,0-.56l-.72.06a12.65,12.65,0,0,1-.72,4.1,15.28,15.28,0,0,1-2,3.26l.91-.06a15.83,15.83,0,0,0,1.51-2.2m-2.95-3a6.42,6.42,0,0,0-.25-1.83l-.47,0,.12.29a5.53,5.53,0,0,1,.15,1.55A11.54,11.54,0,0,1,158,179l-.07.13h.27l.3,0c.15-.34.31-.71.45-1.1a12.34,12.34,0,0,0,.9-4.25m6.3,2.45a9.71,9.71,0,0,0,1.3-4.65,2.12,2.12,0,0,0,0-.33l-.49,0a11.28,11.28,0,0,1-1.23,4.39,12.08,12.08,0,0,1-2.12,3.1l.75,0a9.08,9.08,0,0,0,1.82-2.51"/></g></g></svg>