<svg xmlns="http://www.w3.org/2000/svg" viewBox="0 0 300 300"><defs><style>.cls-1{fill:#f4ec5b;}.cls-1,.cls-2{fill-rule:evenodd;}.cls-2{fill:#f4bf5b;}</style></defs><title>Plan de travail 26</title><g id="objet02"><path class="cls-1" d="M177.9,173.15a5,5,0,0,0-.2-1.37q8.7,1.31,8.7,9.17a11.8,11.8,0,0,1-1.6,6.4q-3.2,5-11.9,5-6.26,0-9.2-4.8a12.46,12.46,0,0,1-1.9-6.15c1.86.3,3.14-1.59,3.85-5.65a9.58,9.58,0,0,0,.68,3.1,2.54,2.54,0,0,0,2.45,2c1.18,0,1.81-.49,1.87-1.57a15.32,15.32,0,0,1,.6-3.48q4.35.15,5.5-.52a2.28,2.28,0,0,0,1.15-2.08"/><path class="cls-2" d="M185.65,181.85c-1.23,0-2.77,1.15-4.6,3.45s-3.58,3.45-5.25,3.45-2.65-.47-3.15-1.4a4.15,4.15,0,0,1-.35-1.9,10.8,10.8,0,0,1,1.75-5.45,11.87,11.87,0,0,0,1.64-4.43,12.43,12.43,0,0,1-1.48.17,15.82,15.82,0,0,1-1.56,3.71,12.4,12.4,0,0,0-1.8,6.05,6,6,0,0,0,.45,2.4,3.36,3.36,0,0,0,3.4,2.1,8.17,8.17,0,0,0,6.75-3.55q2.7-3.6,4-3.6a1.2,1.2,0,0,1,.81.45c.06-.43.11-.87.13-1.32a1.88,1.88,0,0,0-.69-.13"/><path class="cls-2" d="M183.35,174.4c-.13-.07-.2-.15-.2-.25a4.64,4.64,0,0,1,.6-.7H184a1.08,1.08,0,0,0,.05.2.77.77,0,0,1-.2.4.91.91,0,0,1-.5.35m-2.65,4.85.05.15q0,.15-.45.6c-.07,0-.1,0-.1-.2l.1-.25a.75.75,0,0,1,.4-.3m1.2.45q0,.2-.3.45a.85.85,0,0,1-.45.25l-.25-.05a.49.49,0,0,1-.05-.2c0-.13.1-.27.3-.4a1.57,1.57,0,0,1,.65-.25.28.28,0,0,1,.1.2m3.1-4.5a5.35,5.35,0,0,0-.85.55.23.23,0,0,1-.15-.25c0-.2.48-.53,1.45-1l.25.1a2.43,2.43,0,0,1-.7.6M163.3,189q0-.25.9-.6c.57-.23.93-.32,1.1-.25a.49.49,0,0,0,.1.2c0,.27-.62.58-1.85,1a.27.27,0,0,1-.25-.3m21,.6a1.47,1.47,0,0,1-1.15-.6,1.16,1.16,0,0,1-.35-.65,1.87,1.87,0,0,1,1,.3,10.93,10.93,0,0,1,1,.55c0,.27-.15.4-.45.4m-8.25-7.55a1,1,0,0,1-.2-.5,1.08,1.08,0,0,1,0-.2.78.78,0,0,1,.9.25.87.87,0,0,1,.25.55c0,.23-.1.35-.3.35a.77.77,0,0,1-.7-.45M169,184.4l-.5-.05-.05-.3c0-.4.42-.42,1.25-.05a.85.85,0,0,1-.7.4m-1.95,5.65c.13,0,.2.1.2.2a2.6,2.6,0,0,1-.35.65,3.21,3.21,0,0,1-.55.65.23.23,0,0,1-.15-.25,1.53,1.53,0,0,1,.85-1.25m4.5-2.9-.25-.05a.78.78,0,0,1-.1-.25.33.33,0,0,1,.1-.25.72.72,0,0,1,.7,0,1.08,1.08,0,0,0,.05.2.41.41,0,0,1-.2.3.69.69,0,0,1-.3.1m.95,2.35c0-.1.13-.17.4-.2l.1.35a.19.19,0,0,1-.2.15l-.25-.05Z"/></g></svg>