<svg xmlns="http://www.w3.org/2000/svg" xmlns:xlink="http://www.w3.org/1999/xlink" viewBox="0 0 300 300"><defs><style>.cls-1{fill:none;}.cls-2{fill:#f24827;}.cls-2,.cls-3,.cls-4,.cls-7,.cls-8{fill-rule:evenodd;}.cls-3{fill:#d32c16;}.cls-4{fill:#6d6154;}.cls-5{opacity:0.5;}.cls-6{clip-path:url(#clip-path);}.cls-7{fill:#514439;}.cls-8{fill:#3f3e3d;}.cls-9{clip-path:url(#clip-path-2);}</style><clipPath id="clip-path"><rect class="cls-1" x="151.86" y="44.27" width="22.74" height="26.66"/></clipPath><clipPath id="clip-path-2"><rect class="cls-1" x="105.05" y="60.95" width="86.2" height="43.66"/></clipPath></defs><title>Plan de travail 40</title><g id="objet03"><path class="cls-2" d="M191.47,49.83A18.4,18.4,0,0,1,195,49.4q8.1-.3,8.1,5.2,0,1.55-2,4c-.13.17-.26.34-.4.5l.35.05c4,.77,6,2.48,6,5.15,0,.8-.63,1.93-1.9,3.4l-.27.33c.42.19.86.42,1.32.67q8.1,4.5,8.1,9a3.69,3.69,0,0,1-.4,2c-.67.87-2.18,1.3-4.55,1.3-.7,0-1.35,0-2-.05a7,7,0,0,1,2.15,4.45q0,3.61-4.78,3.75,4.42,5.64,4.43,10.45a13.37,13.37,0,0,1-.4,4.2q-1.45,3.26-7,3.25a10.28,10.28,0,0,1-2.33-.25,3.42,3.42,0,0,1,.08.7,3.09,3.09,0,0,1-.3,1.55,2.28,2.28,0,0,1-2.15,1c-.9,0-1.93-.8-3.1-2.4-.27-.37-.49-.71-.67-1-.23.32-.49.65-.78,1a6.3,6.3,0,0,1-4.95,2.4q-3.86,0-5.65-2.15a4.15,4.15,0,0,1-1-2,5.22,5.22,0,0,1-1.3.15,1.84,1.84,0,0,1-1.68-.9c.11-.35.22-.72.33-1.1q2-7,2-10.3a76.58,76.58,0,0,0-.7-11.25,38.52,38.52,0,0,0-3.3-11.2q-1.69-3.75-2.6-5.7A43,43,0,0,0,170.6,60c-.57-.91-1.2-1.89-1.9-2.92l0,0a2.25,2.25,0,0,1-.07-.6,13.34,13.34,0,0,1,3.2-8.45,19.71,19.71,0,0,1,7.1-5.55q4.1-2,7.1-1.35c2.13.43,3.2,1.82,3.2,4.15a5.62,5.62,0,0,1-.63,2c2.19-.83,3.28-.33,3.28,1.47a2,2,0,0,1-.43,1.08"/><path class="cls-3" d="M171.35,55.19s5.29-10.71,9-9.35,3.79,6.1,3.79,6.1,1.77-1.49,3.12-.68-.95,2.31-.95,2.31,7.87-1.36,9.9,2.71-3.12,7.59-3.12,7.59,5.29-.13,5.29,2.85a3,3,0,0,1-2.84,3.12s11.66,2.58,10.84,6.24-10,2.85-10,2.85,8.41,3.12,5.83,6.91-4.88,2.58-4.88,2.58,9,6.31,2.44,11.53c-3.26,2.57-4.75.68-4.75.68s1.76,4.61-.27,4.88-3.25-2-3.25-2-7.06,5.84-9.5.55c0,0-3.27,3.28-4,1.23s1-4.76,1-4.76Z"/><path class="cls-4" d="M126.35,64.2a35.72,35.72,0,0,0,9.1-5.3q1.85-1.4,8.85-7.95a51.73,51.73,0,0,0,5.67-6.6,27.43,27.43,0,0,1,8.93-3.6,9.89,9.89,0,0,1,7,.5,7.48,7.48,0,0,1,1.4,1c.81,1.63,1.77,3.48,2.9,5.55a75.73,75.73,0,0,1,4.3,14V63.9c0,.43.07,1.33.2,2.7a7.88,7.88,0,0,1-.5,3.5q-1.8,4.35-9.95,4.35-6,0-20.25-4.9t-15.45-4.9a4.26,4.26,0,0,1-2.25-.45"/><g class="cls-5"><g class="cls-6"><path class="cls-7" d="M174.6,68.22s-2.83-19.76-7.06-23.52S165,63.05,151.86,67.6c0,0,16,7.05,22.74.62"/></g></g><path class="cls-8" d="M154.9,73q-14.61-3.84-19.7-5A80.09,80.09,0,0,1,126,65.5q3.53-3.41,5.35-5.25,17.12,1.66,47.07,12.2a1.19,1.19,0,0,1,.27.43q-9.19,3.93-23.82.1"/><path class="cls-4" d="M121.65,59.15q7.3,2.6,14.65,4.5a108.46,108.46,0,0,0,15.8,3.1H159q1.5-.25,10.1-2.6a74.27,74.27,0,0,1,9-2.15q7.39,0,12.3,16.9A110.24,110.24,0,0,1,193,90.75c.23,1.35.49,3.63.8,6.85a44.17,44.17,0,0,1-5,4.4,20.08,20.08,0,0,1-9.63,2.58c-.86,0-1.52,0-2,0,0-.54.06-1.18.08-1.93V93.43Q166.5,90.88,151.2,84,133.73,76.14,127,70.53l-1.5,0H114.65c-.47-.08-.91-.16-1.3-.25.19.22-.95.09-3.43-.37-.48-.37-1-.8-1.57-1.28a44.08,44.08,0,0,1-4.2-3.9q-3-3-3.9-4.05A5.33,5.33,0,0,1,99,57.15q0-4.95,9.15-2.5,4.91,1.31,13.5,4.5"/><g class="cls-5"><g class="cls-9"><path class="cls-7" d="M181.15,94.55q5.43,1.36,10.1,2.1a16.29,16.29,0,0,1-4.75,5.7c-.53.44-1,.84-1.47,1.23a21,21,0,0,1-7.08,1h-.78c0-.57.05-1.22.08-1.95v-9.2l3.9,1.1M109.92,69.88c-.48-.37-1-.8-1.57-1.28l-.07,0c-2.16-2.65-3.23-4.56-3.23-5.75s1-1.85,3.15-1.85q2.7,0,14,6.5,2,1.17,4,2.35c.23.24.45.49.67.73l-1.37,0H114.65c-.47-.08-.91-.16-1.3-.25.19.22-.95.09-3.43-.37"/></g></g></g></svg>