<svg xmlns="http://www.w3.org/2000/svg" xmlns:xlink="http://www.w3.org/1999/xlink" viewBox="0 0 300 300"><defs><style>.cls-1{fill:none;}.cls-2{fill:#fcd842;}.cls-12,.cls-2,.cls-3,.cls-4,.cls-5,.cls-6,.cls-7,.cls-8,.cls-9{fill-rule:evenodd;}.cls-3{fill:#d1b22f;}.cls-4{fill:#333;}.cls-5{fill:#d3e7f2;}.cls-6{fill:#a7c6d3;}.cls-7{fill:#e8f2f7;}.cls-8{fill:#fcac42;}.cls-9{fill:#ce8125;}.cls-10{opacity:0.5;}.cls-11{clip-path:url(#clip-path);}.cls-12{fill:#fff;}.cls-13{clip-path:url(#clip-path-2);}.cls-14{clip-path:url(#clip-path-3);}.cls-15{clip-path:url(#clip-path-4);}</style><clipPath id="clip-path"><rect class="cls-1" x="90.6" y="153.84" width="21.1" height="32.51"/></clipPath><clipPath id="clip-path-2"><rect class="cls-1" x="102.72" y="184.88" width="2.64" height="2.77"/></clipPath><clipPath id="clip-path-3"><rect class="cls-1" x="104.89" y="157.44" width="2.64" height="2.77"/></clipPath><clipPath id="clip-path-4"><rect class="cls-1" x="123.96" y="180.6" width="9.1" height="3.01"/></clipPath></defs><title>Plan de travail 54</title><g id="objet05"><path class="cls-2" d="M118.4,150.8q9.3,1.8,9.3,11a11.76,11.76,0,0,1-5.15,9.8q-2.6,1.69-3.6,2.4c-1.07.8-1.6,1.53-1.6,2.2a9.18,9.18,0,0,0,.75,2.25h2.25A127.53,127.53,0,0,1,136,180.7q3.5.86,11.35,2.9a36.32,36.32,0,0,1,10.8,4.3,6.58,6.58,0,0,1,2.85,3,6.41,6.41,0,0,1,.55,2.8q0,6.6-6.45,7.9h-2.8c-4-.73-7.07-1.23-9.1-1.5-.83-.13-2-.38-3.5-.75l-2.8-.75q-5-1.09-6.65-1.4c-2.87-.53-5.93-.95-9.2-1.25q-8.8-.9-13.85-3.15-5.36-2.4-5.35-5.9a8.77,8.77,0,0,1,2-5.8,12.5,12.5,0,0,1,4-3.15,2.59,2.59,0,0,0,1.45-1.85c-.39-1.06-.7-1.91-1-2.55a14.72,14.72,0,0,0-2.3-3.9,11.56,11.56,0,0,1-3-7.65,9.77,9.77,0,0,1,2.6-6.4,14.63,14.63,0,0,1,9.35-4.75v0Z"/><path class="cls-3" d="M118.15,179.15c0,1.07-.75,2.33-2.25,3.8a1.8,1.8,0,0,1,.2.5l-.15.15a2.94,2.94,0,0,1-.4-.32,11,11,0,0,1-1.3,1v.27l-.15.15a1.92,1.92,0,0,1-.18-.22,9.3,9.3,0,0,1-3.29,1.25l0,.22-.1.05,0-.05v-.2a9.9,9.9,0,0,1-1.45.1,4.08,4.08,0,0,1-3.3-1.2,2.34,2.34,0,0,1-.6-1.45,4.26,4.26,0,0,1,.4-1.95,4.91,4.91,0,0,1,1.8-1.85,5,5,0,0,0-1.7,3.5,2.06,2.06,0,0,0,.65,1.5,3,3,0,0,0,1.3.73.56.56,0,0,1,.2,0v.08a6.32,6.32,0,0,0,1.3.12,8.76,8.76,0,0,0,4.68-1.25.64.64,0,0,1,0-.2.4.4,0,0,1,.15-.25l.23.23a8.21,8.21,0,0,0,1.22-1v-.18a.33.33,0,0,1,.15,0l.3-.33a22.59,22.59,0,0,0,2.2-3.6.54.54,0,0,1,.15.4"/><path class="cls-4" d="M113.45,165.05l-.15-.45c0-.53.28-.8.85-.8s.85.27.85.8-.28.9-.85.9a.77.77,0,0,1-.7-.45m-2.2-.55c0-.23.15-.37.45-.4s.45.1.45.4-.12.5-.35.5-.55-.17-.55-.5"/><path class="cls-5" d="M143.25,187.3c0-.8-.07-1.42-.1-1.85v-2.2c.77.2,1.68.45,2.75.75l1.6.55v3.55a.61.61,0,0,1-.3.15Z"/><path class="cls-6" d="M152.05,182.9a2.39,2.39,0,0,1-1.85,1.8,2.22,2.22,0,0,1-2-.35,1.71,1.71,0,0,1-.75-.85.56.56,0,0,1,.15-.6,4.77,4.77,0,0,1,.85.7,1.76,1.76,0,0,0,1.6.3,1.45,1.45,0,0,0,1.2-1.8,1.34,1.34,0,0,0-1.15-.95,3.25,3.25,0,0,1-1-.4c-.13-.53.3-.7,1.3-.5s1.47.5,1.6,1a3.5,3.5,0,0,1,.1,1.65"/><path class="cls-7" d="M146.5,181.5a4,4,0,0,0,.5-1,.76.76,0,0,1,1.05-.45,8.76,8.76,0,0,1,.65.8,3.57,3.57,0,0,1,.4.65,5.6,5.6,0,0,1-.85,2.65c-.73,1.57-1.43,2.43-2.1,2.6a1.38,1.38,0,0,1-1.45-.5,7.65,7.65,0,0,1-.5-.8,1.72,1.72,0,0,1,.35-1.65,16.66,16.66,0,0,0,1.95-2.3"/><path class="cls-5" d="M148.6,178.65a1.79,1.79,0,0,1,1.6.8,1.7,1.7,0,0,1,0,1.55c-.3.6-.55.92-.75.95a2.06,2.06,0,0,1-2-.45l-.85-.85a4.83,4.83,0,0,1,0-.6c.2-.33.4-.7.6-1.1a.73.73,0,0,1,.15-.25c.07-.13.5-.15,1.3,0"/><path class="cls-7" d="M150.17,179.18a2.34,2.34,0,0,1,.2.65.78.78,0,0,1-.5.35,1.66,1.66,0,0,1-1.6-.5,2.55,2.55,0,0,1-.75-1,.39.39,0,0,1,0-.35,4.12,4.12,0,0,1,1,0,1.91,1.91,0,0,1,1.6.8"/><path class="cls-8" d="M99.25,164.05q2.84,2.41,7.92,2.55c3.5-1,5.37-1.19,5.63-.42a5.64,5.64,0,0,0,2.1,2.42c1.13.85,1.67,1.69,1.6,2.52a6.21,6.21,0,0,1-.58,2.23c-.31.66-1.3,1-3,1a9.71,9.71,0,0,1-3.25-.8,22.8,22.8,0,0,0-2.3-1c-.83-.3-1.57-.53-2.2-.7a30.5,30.5,0,0,0-5.4-.55H95.6c-3.53-.47-5.83-1.28-6.9-2.45-.32-.35-.16-.8.5-1.35a2.44,2.44,0,0,1-1.4-2,5.93,5.93,0,0,1,.45-2.65q1.09-2.2,4.65-2.2a5.88,5.88,0,0,1,2.9.6,29.6,29.6,0,0,1,3.45,2.7"/><path class="cls-9" d="M109,167.05l0-.25c0-.17.13-.28.4-.35s.4,0,.4.2a.41.41,0,0,1-.2.3.73.73,0,0,1-.25.15Zm1,.45s0,0,0-.2a.5.5,0,0,0,0-.15,1,1,0,0,1,.6.15v.15a.47.47,0,0,1-.35.1Z"/><path class="cls-9" d="M90,168c.13-.4.1-.68-.1-.85.3-.4.57-.43.8-.1a1.48,1.48,0,0,1,.35.9c0,.33-.18.5-.55.5s-.57-.15-.5-.45"/><g class="cls-10"><g class="cls-11"><path class="cls-12" d="M91.75,164.4a1,1,0,0,1-1-.6,1.44,1.44,0,0,1-.15-.65c0-.87.47-1.28,1.4-1.25s1.4.38,1.4,1.15a1.21,1.21,0,0,1-.6.9,1.71,1.71,0,0,1-1,.45m18.75-6.6a3.66,3.66,0,0,1-2.55,1.55,1.64,1.64,0,0,1-1.65-1c-.1-.73-.15-1.12-.15-1.15,0-1.4.93-2.42,2.8-3.05s2.75-.1,2.75,1.6a3.82,3.82,0,0,1-1.2,2.1m-5,28.55c-.93,0-1.53-.28-1.8-.85-.1-.6-.15-.92-.15-.95a2.68,2.68,0,0,1,2.25-2.8c1.5-.37,2.25.1,2.25,1.4a3.79,3.79,0,0,1-.65,1.95,2.37,2.37,0,0,1-1.9,1.25"/></g></g><g class="cls-10"><g class="cls-13"><path class="cls-12" d="M103.86,187.65c-.54,0-.9-.16-1-.5s-.09-.53-.09-.55A1.59,1.59,0,0,1,104,185c.88-.21,1.32.06,1.32.82a2.23,2.23,0,0,1-.38,1.15,1.38,1.38,0,0,1-1.12.73"/></g></g><g class="cls-10"><g class="cls-14"><path class="cls-12" d="M106,160.21a1.05,1.05,0,0,1-1-.5c-.06-.35-.09-.54-.09-.56a1.57,1.57,0,0,1,1.32-1.64c.88-.21,1.32.06,1.32.82a2.26,2.26,0,0,1-.38,1.15,1.37,1.37,0,0,1-1.12.73"/></g></g><g class="cls-10"><g class="cls-15"><path class="cls-12" d="M127.59,183.34a8.43,8.43,0,0,1-3.46-1.31c-.12-.39-.17-.59-.17-.61q.29-1.26,4.81-.58c3,.47,4.44,1.08,4.28,1.82-.08.34-.6.62-1.54.82a9.87,9.87,0,0,1-3.92-.14"/></g></g></g></svg>