<svg xmlns="http://www.w3.org/2000/svg" viewBox="0 0 300 300"><defs><style>.cls-1{fill:#edeeef;}.cls-1,.cls-2{fill-rule:evenodd;}.cls-2{fill:#c6d2db;}.cls-3{fill:#ed3e21;}</style></defs><title>Plan de travail 56</title><g id="objet05"><path class="cls-1" d="M154.4,213.55l-6-3.7a1.77,1.77,0,0,0,.5-.95.6.6,0,0,0-.25-.5,1.45,1.45,0,0,0-1.3,0c-.14-.79-.28-1.41-.4-1.87a72.52,72.52,0,0,1-13.34-.4l-.24,0A60.69,60.69,0,0,1,116,201.18a.69.69,0,0,0-.3.07,1,1,0,0,0-.1-.15c-.38.25-.58,1.26-.6,3q-.28-.24-.75-.57c-.83-.57-1.25-.48-1.25.25l0,.55q-7.2,2.6-8.85,3.25-2.86,1.1-7,3.08l0,0c.12,0,.19.05.22.12.36.22.72.44,1.08.68a16.76,16.76,0,0,1,3.4,2.15c.6.47,1.48,1.22,2.65,2.25a44.79,44.79,0,0,1,4.15,4c.57.62,1.06,1.19,1.47,1.7h0a.83.83,0,0,0,.65-.28,97.4,97.4,0,0,0,8.07-6.5l.48.38q6.19,4.84,8.15,4.85.49,0,7.7-1.15c1.55-.23,3.82-.43,6.8-.63,2.68,5.35,4.37,8.31,5,8.91,1.56-1.34,3.56-2.91,6-4.73a43.08,43.08,0,0,1,6.55-4.25.72.72,0,0,0,.1-.35q0-.85-5.35-4.35"/><path class="cls-2" d="M127,206.85a.15.15,0,0,1-.1.15.61.61,0,0,1-.5-.2,1.3,1.3,0,0,0-.35-.25q0,1.9-.75,8.95c0,.37.27.58.8.65a7.17,7.17,0,0,1,2.15.5l.05.1a3.19,3.19,0,0,1-2.25.6,2.12,2.12,0,0,1-1.5-.55c-.3-.27-.45-.48-.45-.65q1.31-7.8,1.5-10.15a4.43,4.43,0,0,1,1.4.85"/><path class="cls-2" d="M140.7,210.25c1.87-.37,3.48-.73,4.85-1.1a12.86,12.86,0,0,1-4.05,1.5c-1.87.23-3.47.45-4.8.65l-.7-.15c.27-.07,1.83-.37,4.7-.9m-.45,2.7c.1-.2.62-.48,1.55-.85a16.34,16.34,0,0,1,1.95-.65s.63-.25,1.8-.75a4.36,4.36,0,0,1,1.75-.45,2.1,2.1,0,0,1-.7,1.35c-.47.43-.82.65-1,.65a.69.69,0,0,1-.3-.1c.19-.46.3-.75.35-.87a22.37,22.37,0,0,1-4.95,1.82,1.18,1.18,0,0,1-.4-.15M131,219.2q6.41-.9,10.5-1.85,2.75-.6,8.75-2.4a41.15,41.15,0,0,1-7.45,2.65l-.92.27c4.9-.58,7.65-.92,8.22-1l.05.05q-1.8.94-7.65,1.35l-3.8.45a25.11,25.11,0,0,1-5.4.8,4.81,4.81,0,0,1-2.3-.3m-17.25-14.7c.44,0,.69.28.75.83a6.34,6.34,0,0,1,.7,1.17c.23.5.53,1.23.9,2.2l-.1.15-.25.05-1.28-2.85a.77.77,0,0,1,0,.15q0,.15-.3,1.8a10.79,10.79,0,0,1-.45-3.3.49.49,0,0,1,0-.2m6.55,5.4c.1,0,.07,0-.1,0-.33,0-1.23-.73-2.7-2.2l-3.2-3.3a10.73,10.73,0,0,1,3.6,2.3,11,11,0,0,1,2.45,3Zm-5.6-.05q2.7,2.55,8.5,8.4a35.31,35.31,0,0,1-3.37-2.63A39.83,39.83,0,0,1,113.6,211a14.18,14.18,0,0,1,3.05,1.63,23,23,0,0,1-2.1-2.68Z"/><path class="cls-3" d="M147.1,227.23a8.56,8.56,0,0,1-1.2-1.68l1-.85,1.5-1.17,1.27-1c.58-.43,1.15-.85,1.73-1.25l.22-.15q5.4-3.66,6-4l.55-.4.37-.23c.78.65,1.18,1.12,1.18,1.38a.72.72,0,0,1-.1.35,43.38,43.38,0,0,0-6.55,4.25c-2.44,1.82-4.44,3.39-6,4.73m9.8-11.18.6-.36c-.16-.12-.33-.25-.51-.37-1.4.86-3,1.88-4.89,3.08a76.39,76.39,0,0,0-7.34,5.15l.45.8q2.61-2,6.44-5,1.2-.9,5.25-3.25m-47.35-2a72.55,72.55,0,0,0-7.07-5.81l-1.23.52a68.17,68.17,0,0,1,12,10.74l1-.8c-1.3-1.39-2.87-2.94-4.74-4.65m-2.7.8a36.17,36.17,0,0,0-7.52-5.24c-.69.32-1.42.65-2.18,1l0,0c.12,0,.19.05.22.13.36.21.72.43,1.08.67a16.76,16.76,0,0,1,3.4,2.15c.6.47,1.48,1.22,2.65,2.25a44.79,44.79,0,0,1,4.15,4c.57.62,1.06,1.19,1.47,1.7h0a.86.86,0,0,0,.65-.27,18.35,18.35,0,0,0,1.57-1.14c-.51-.52-1.1-1.07-1.75-1.64a45.5,45.5,0,0,0-3.82-3.7"/></g></svg>