<svg xmlns="http://www.w3.org/2000/svg" xmlns:xlink="http://www.w3.org/1999/xlink" viewBox="0 0 300 300"><defs><style>.cls-1{fill:none;}.cls-2{fill:#aacde2;}.cls-2,.cls-3,.cls-6,.cls-8,.cls-9{fill-rule:evenodd;}.cls-3{fill:#e4f1f9;}.cls-4{opacity:0.5;}.cls-5{clip-path:url(#clip-path);}.cls-6{fill:#fff;}.cls-7{clip-path:url(#clip-path-2);}.cls-8{fill:#686766;}.cls-9{fill:#333;}</style><clipPath id="clip-path"><rect class="cls-1" x="91.28" y="94.92" width="31.67" height="20.55"/></clipPath><clipPath id="clip-path-2"><rect class="cls-1" x="123.79" y="97.45" width="30.35" height="19.2"/></clipPath></defs><title>Plan de travail 47</title><g id="objet04"><path class="cls-2" d="M124.35,113.4q-3.5,8.14-11.2,8.85-10.61.9-15.75-4.5a11.88,11.88,0,0,1-3.5-7.25,15.3,15.3,0,0,1,4.1-12,19.07,19.07,0,0,1,10.8-6.1q6.56-1.45,11.4,1.5,5.4,3.25,6.1,11c.2,2.27-.45,5.13-2,8.6"/><path class="cls-3" d="M106.25,91.55q6.6-1.45,11.4,1.5,5.44,3.3,6.1,11c.2,2.27-.43,5.13-1.9,8.6q-3.55,8.15-11.25,8.85-10.6.9-15.75-4.5a11.88,11.88,0,0,1-3.5-7.25,15.3,15.3,0,0,1,4.1-12,19.27,19.27,0,0,1,10.8-6.1"/><g class="cls-4"><g class="cls-5"><path class="cls-6" d="M120,94.92q-5.1,6.1-9.71,6.2a2.8,2.8,0,0,1-.72.11,1.82,1.82,0,0,1-.81-.24,7.66,7.66,0,0,1-3.9-2.17,7.12,7.12,0,0,0-4.64-2.32,13.5,13.5,0,0,0-5.54,2.06,15.12,15.12,0,0,0-3.35,11.14,11.28,11.28,0,0,0,2.26,5.77l.35-.66q3.06-5.62,10.54-4.06t11.07-.68q2.93-1.84,7.38-10.13a12.45,12.45,0,0,0-2.93-5"/></g></g><path class="cls-2" d="M140.5,95.1q6.34-1.35,11,1.4,5.15,3.19,5.75,10.55c.2,2.13-.42,4.87-1.85,8.2q-3.3,7.75-10.7,8.4-10.15.9-15-4.2a11.66,11.66,0,0,1-3.35-7,14.67,14.67,0,0,1,3.9-11.5,18,18,0,0,1,10.3-5.85"/><path class="cls-3" d="M127.75,100.15a18.79,18.79,0,0,1,10.35-5.8q6.35-1.35,11,1.4,5.1,3.15,5.75,10.55c.17,2.13-.42,4.87-1.75,8.2q-3.4,7.75-10.75,8.4-10.2.9-15.1-4.2a11.59,11.59,0,0,1-3.4-7,14.76,14.76,0,0,1,3.9-11.5"/><g class="cls-4"><g class="cls-7"><path class="cls-6" d="M151.21,97.45q-5,6-9.59,6a2.45,2.45,0,0,1-.71.12,1.73,1.73,0,0,1-.81-.25,7.65,7.65,0,0,1-3.91-2.17,7.19,7.19,0,0,0-4.63-2.32,14,14,0,0,0-3.48.94l-.33.34a14.76,14.76,0,0,0-3.9,11.5,10.89,10.89,0,0,0,1.77,5c2.08-3.31,5.46-4.5,10.2-3.51q7.5,1.56,11.07-.68,2.87-1.83,7.25-9.89a12,12,0,0,0-2.93-5.11"/></g></g><path class="cls-8" d="M165.55,113.9l-.9.35-.43.18c-1-.57-2.06-1.16-3.22-1.78q-3-1.5-5.7-2.7c.33-.43.7-1,1.1-1.55q2.1,1.2,4.75,2.55a47.06,47.06,0,0,1,4.3,2.65,1.5,1.5,0,0,1,.1.3"/><path class="cls-9" d="M141.82,108.91a17.89,17.89,0,0,1-.74,6.35,62,62,0,0,1,8.55-.65q-6.47,2-7.76,2.23a92.36,92.36,0,0,0-10,3l-.73.26-.81.2a1.17,1.17,0,0,1-1.29-1.29q0-1.78,6.46-2.86a39.27,39.27,0,0,1,0-4.36,5.72,5.72,0,0,1,3.22-5.37c1.91-1.26,2.92-.45,3.06,2.44"/><path class="cls-6" d="M139.56,108.51a4.44,4.44,0,0,1-.62,2.1c-.54,1.1-1.25,1.65-2.12,1.63a1.35,1.35,0,0,1-1.5-1.55q0-3.47,2.85-3.43c.94,0,1.4.41,1.39,1.25"/><path class="cls-9" d="M110.66,107.25a17.08,17.08,0,0,1-.15,6.4,3.26,3.26,0,0,0-.05,1,7.56,7.56,0,0,1,3.35.65,2,2,0,0,1,1.2,1c.27.44,0,1.2-.8,2.3-1-.4-3.12-1.11-6.45-2.15s-7.15-2.11-11.25-3a3.44,3.44,0,0,1,1.15-.3,38.37,38.37,0,0,1,7.3.4c-.1-.83-.18-1.78-.25-2.85a5.66,5.66,0,0,1,2.6-5.6q2.75-2.1,3.35,2.15"/><path class="cls-6" d="M108.11,109.25c-.43,1.14-1.07,1.74-1.9,1.8a1.33,1.33,0,0,1-1.65-1.35q-.3-3.45,2.45-3.7c.93-.06,1.43.32,1.5,1.15a4.31,4.31,0,0,1-.4,2.1"/></g></svg>