<svg xmlns="http://www.w3.org/2000/svg" xmlns:xlink="http://www.w3.org/1999/xlink" viewBox="0 0 300 300"><defs><style>.cls-1{fill:none;}.cls-2{clip-path:url(#clip-path);}.cls-3{opacity:0.5;}.cls-4{clip-path:url(#clip-path-2);}.cls-5{fill:#9fad6c;}.cls-10,.cls-11,.cls-13,.cls-14,.cls-5,.cls-6,.cls-7,.cls-8,.cls-9{fill-rule:evenodd;}.cls-6{fill:#dd4040;}.cls-7{fill:#af4141;}.cls-8{fill:#d2d3db;}.cls-9{fill:#ededef;}.cls-10{fill:#7680a5;}.cls-11{fill:#b8bfe0;}.cls-12{clip-path:url(#clip-path-3);}.cls-13{fill:#fff;}.cls-14{fill:#8e9abc;}</style><clipPath id="clip-path"><path class="cls-1" d="M116.88,76q-7.57,1.24-10.18,7.18-3.65,8.35-5.6,12.1-6.69,12.8-9.53,18.2c-1.88,3.61-2.85,6-2.89,7.3a10.2,10.2,0,0,0,.22,3c.2.75,1.58,2.5,4.15,5.23a86.09,86.09,0,0,0,8.42,7.15,94.45,94.45,0,0,0,14.33,9q8.17,4.24,9.75,4.6a20,20,0,0,0,4.65.2q3.08-.14,15.6-4.53t14.3-5.95a13.08,13.08,0,0,0,2.92-3.2,16.93,16.93,0,0,0,2.13-4.65q.65-2.34,1.78-10.38a152.88,152.88,0,0,0,1.12-20.52,71.18,71.18,0,0,0-.7-10.65A16.29,16.29,0,0,0,165.5,85c-.54-1.39-2-3.22-4.45-5.5s-7.64-3.76-15.65-4.43c-3-.2-6-.31-9.09-.31A153.77,153.77,0,0,0,116.88,76"/></clipPath><clipPath id="clip-path-2"><rect class="cls-1" x="84.12" y="81.61" width="84.8" height="62.88"/></clipPath><clipPath id="clip-path-3"><rect class="cls-1" x="87.3" y="71.02" width="37.3" height="49.73"/></clipPath></defs><title>Plan de travail 38</title><g id="objet03"><g class="cls-2"><g class="cls-3"><g class="cls-4"><path class="cls-5" d="M94.13,92.77c31.15-21.76,75.14-5,74.79-5s-8.21,56.71-8.21,56.71c-14.61-4.07-6.41-26.62-6-30.95s.22-10.07-7.74-10.71c-11.17-.92-15.73,4.55-15.73,4.55l-3,12.54-6.83-.23,4.78-12.31s-2.72-8.77-10-8.66c-14.35.23-13.67,13.45-19.59,20.51-4.15,5-6.38,6.84-9.57,7.52l-3-8.43Z"/></g></g></g><path class="cls-6" d="M143.9,50.5q0-5.25,4.75-10.55a28.51,28.51,0,0,1,10.45-7.4q6.26-2.59,10.4-.9,4.75,2,4.75,9c0,.94-.11,1.79-.2,2.55a9.35,9.35,0,0,1,2.7-1.3q5.81-1.69,5.8,5.9c0,.22,0,.44,0,.65a21.38,21.38,0,0,1,4.57-2.7q6-2.52,6.23,4.53a13.45,13.45,0,0,1,4.07-.88Q210.15,50,210.15,65a19.34,19.34,0,0,1-2.5,9.65q-4.2,7.53-14,8.1c0,.41.07.81.07,1.2a12.72,12.72,0,0,1-.75,5q-1.69,3.85-7,3.85a11,11,0,0,1-8.25-3.85c-.5-.53-1-1.05-1.35-1.55l-25.7-20.2a26.48,26.48,0,0,1-3.5-5.75q-3.19-6.8-3.2-10.9"/><path class="cls-7" d="M186.25,78.23l.1.07a5.68,5.68,0,0,0,3.75,1.25c1.57,0,2.35-.62,2.35-1.85a4.77,4.77,0,0,0-1.8-2.8q4.95-2.43,4.95-5a.93.93,0,0,0-.15-.8c-.3-.5-1-.75-2-.75A13.19,13.19,0,0,0,188,69.78q.68-1.74,4.55-2.48,4.69-.94,4.7,2.7a4.14,4.14,0,0,1-.65,2.45,16.63,16.63,0,0,1-3.35,2.85,3.83,3.83,0,0,1,.6,1.3,6.38,6.38,0,0,1,.3,1.55,2.88,2.88,0,0,1-.65,1.75,3.41,3.41,0,0,1-2.9,1.25,5.55,5.55,0,0,1-3.25-1.05c-.83-.6-1.25-1-1.25-1.3a.74.74,0,0,1,.2-.57M154.4,50.45c0,.1.08,1.18.25,3.25a15.2,15.2,0,0,1-.8-2.65,20.63,20.63,0,0,1-.6-3.8,4.45,4.45,0,0,1,3.4-4.6q3.4-1.09,3.4,3.1v.55a6.63,6.63,0,0,1,.95-1,7.08,7.08,0,0,1,3.6-1.8q5.25-.9,5.25,5.95a3.64,3.64,0,0,1,0,.5,5.71,5.71,0,0,1,3.5-1.35q4.15-.49,4.15,3.1a23.36,23.36,0,0,1-.5,4.1,9.22,9.22,0,0,1-.9,3c0-.73,0-1.6,0-2.6q0-7.1-5.3-4.8a7.21,7.21,0,0,0-1.6.9q-.45-8.5-5.65-6.3A10,10,0,0,0,160,48.85c-.33-2.37-1.25-3.63-2.75-3.8q-2.85-.3-2.85,5.4"/><path class="cls-8" d="M174.67,111.78a6,6,0,0,0-.55-3,2.32,2.32,0,0,0-1.8-1,4.68,4.68,0,0,0-.67,0q-4.11,0-6.4,6.3c0,.1-.07.2-.1.3a27.8,27.8,0,0,0-1.55,8.85,7.63,7.63,0,0,0,.52,3.08,2.45,2.45,0,0,0,.93,1.1,4,4,0,0,0,2.25.57,5,5,0,0,0,4.57-2.92c.28-.52.54-1,.78-1.55q1.31-.86,2.85-2,0,6.66.15,9.07c0,.7.09,1.48.15,2.33a46.17,46.17,0,0,1-4.2,3.92q-2.81,2.21-4.9,2.2-5.35,0-8.2-3.57t-2.75-9.55a58,58,0,0,1,.78-9.6,45.67,45.67,0,0,0,.72-8.18,7.68,7.68,0,0,0-3.3-6.85q-2.85-2-9.8-2a24.39,24.39,0,0,0-9.7,2.35,27.43,27.43,0,0,0-3.58,1.83q-1.31,4.35-2.92,10.67l-.9,3.58c-2.42-.07-4.67-.12-6.73-.15l.63-1.33q2.22-4.74,3.9-8.52a9.07,9.07,0,0,0,.25-2.73c0-3-1-5.22-3-6.55q-2.6-1.7-7.7-1.7a14.27,14.27,0,0,0-10.95,4.65q-2.66,2.8-6.15,10.2t-6,10.2a13.61,13.61,0,0,1-9,4.58c.63-1.07,1.25-2.18,1.85-3.33a128.4,128.4,0,0,0,7.65-18.45,66.7,66.7,0,0,0,3.6-9.1q1.44-4.66,2.7-8.12a42.39,42.39,0,0,1,4.5-8.38,35.85,35.85,0,0,1,9.23-9.22q6-4.32,18.54-8.5T164,55.93q9.24,9.95,11.9,15,3.3,6.25,3.3,18.35a107.56,107.56,0,0,1-1.85,12.25q-1,5.3-1.43,10l-1.25.25"/><path class="cls-9" d="M173.33,112.05a7.46,7.46,0,0,0-.53-3.75,2,2,0,0,0-.47-.5,2.31,2.31,0,0,1,1.79,1,6,6,0,0,1,.55,3l-1.34.27m-3,12.83c.69-.39,1.45-.86,2.3-1.4-.24.52-.5,1-.78,1.55A5,5,0,0,1,167.3,128a4,4,0,0,1-2.25-.57,5.14,5.14,0,0,0,.9.07,5,5,0,0,0,4.4-2.57"/><path class="cls-10" d="M170.35,124.87a5,5,0,0,1-4.4,2.58,4.31,4.31,0,0,1-.9-.08,2.62,2.62,0,0,1-.7-.67,2.1,2.1,0,0,1-.22-.42,10,10,0,0,0,2.8,0,10.27,10.27,0,0,0,3.42-1.45m2-17.07a2,2,0,0,1,.47.5,7.46,7.46,0,0,1,.53,3.75l-1.65.35q-3.88.85-6.43,1.65,2.3-6.3,6.4-6.3a4.94,4.94,0,0,1,.68,0"/><path class="cls-11" d="M157.75,59.15l.3.4A45.89,45.89,0,0,0,140.6,73.9a67.44,67.44,0,0,0-7.9,15.65h-.15a30.21,30.21,0,0,1,5.8-16.3q6.6-9.3,19.4-14.1"/><path class="cls-11" d="M163.75,108.4q0-7.84-3.65-13a12.57,12.57,0,0,0-10.9-5.65q-4.55,0-11.6,2.9a37.37,37.37,0,0,0-7.1,3.7,22.05,22.05,0,0,0-5.25-5.15,14.42,14.42,0,0,0-7.8-2q-8.74,0-17,7.15A63.57,63.57,0,0,0,91,106.69a127,127,0,0,1-6.93,16.36c-.6,1.15-1.22,2.26-1.85,3.33a13.61,13.61,0,0,0,9-4.58q2.44-2.74,6-10.2t6.15-10.2a14.27,14.27,0,0,1,10.95-4.65q5.1,0,7.7,1.7c2,1.33,3,3.52,3,6.55a9.07,9.07,0,0,1-.25,2.73q-1.68,3.78-3.9,8.52l-.63,1.33c2.06,0,4.31.08,6.73.15l.9-3.58q1.61-6.32,2.93-10.67a26.62,26.62,0,0,1,3.57-1.83,24.39,24.39,0,0,1,9.7-2.35q6.94,0,9.8,2a7.68,7.68,0,0,1,3.3,6.85,44.72,44.72,0,0,1-.73,8.18,58.14,58.14,0,0,0-.77,9.6q-.09,6,2.75,9.55a10,10,0,0,0,1,1.05c1.4-6.14,2.48-11.55,3.2-16.23a76.48,76.48,0,0,0,1.05-11.9"/><g class="cls-3"><g class="cls-12"><path class="cls-13" d="M108.45,80.6a2.21,2.21,0,0,1-2,1,1.21,1.21,0,0,1-1.15-.65l-.25-.7c0-.93.63-1.53,1.9-1.8s1.9.08,1.9,1a1.93,1.93,0,0,1-.45,1.15m1.1-5.3q0-3,4.2-4t4.15,2q0,.9-2.1,2.55a6.68,6.68,0,0,1-3.65,1.65,2.62,2.62,0,0,1-2.2-.9,2.13,2.13,0,0,1-.4-1.2M112,79.8a1.06,1.06,0,0,1,.45-1,2,2,0,0,1,1.9-.1.49.49,0,0,0,.1.2,1.35,1.35,0,0,1,0,.45,1.08,1.08,0,0,1-.4.85,1.29,1.29,0,0,1-.95.4l-1.05-.2c-.07,0-.1-.22-.1-.65m12.6,36.05a1.54,1.54,0,0,1-.45,1.05,1.5,1.5,0,0,1-1.2.6,1.6,1.6,0,0,1-1.4-.65l-.2-.7a1.32,1.32,0,0,1,.65-1.1,2.56,2.56,0,0,1,1.3-.35,1.26,1.26,0,0,1,1.3,1.15M95.6,102q-6,18.75-7.2,18.75a1,1,0,0,1-1-.6,1.71,1.71,0,0,1-.1-.65,40.17,40.17,0,0,1,2-4.75q2.25-5.06,2.9-6.55c.13-.3.82-2.2,2-5.7A19.22,19.22,0,0,1,97,97.05q-1.4,4.76-1.4,5"/></g></g><path class="cls-14" d="M133.9,65.4a.81.81,0,0,1-.65.2,1.83,1.83,0,0,1-.55,0v-.1l-.2,0c-.07,0-.1-.15-.1-.45a.66.66,0,0,1,.55-.7,1.29,1.29,0,0,1,.85.1,1.06,1.06,0,0,0,.25.6,3.29,3.29,0,0,0-.15.45m-3.2-.3.35-.15a1.78,1.78,0,0,1,.6,1.25,1.33,1.33,0,0,1-.6.6,1.08,1.08,0,0,1-.75-1.15.5.5,0,0,1,.4-.55m41.75,12.25V76.6l.05-1c1-.47,1.5-.13,1.5,1a6.41,6.41,0,0,1-.2,1c.1.27-.1.4-.6.4a.69.69,0,0,1-.75-.65M171,79.4s.15-.1.45-.2a1.27,1.27,0,0,1,.55.4.77.77,0,0,1,.2.4l-.15.7a1.63,1.63,0,0,1-.6.3,1,1,0,0,1-.6-1q0-.5.15-.6m2.7-.05c0-1.2.47-1.87,1.4-2s1.35.22,1.35,1.15c-.27,1.47-.83,2.2-1.7,2.2a1.17,1.17,0,0,1-.6-.1,1.1,1.1,0,0,0-.3-.35,1.56,1.56,0,0,1-.15-.9m-9.45,17.4a1.28,1.28,0,0,1-.45.35L163.3,97v-.8h.6a.86.86,0,0,1,.3.6m4.05,5.1q0-.55,1.65-1.65l.75.35a3.1,3.1,0,0,1-1.6,1.75h-.65q-.15.3-.15-.45m.8,1.35a7.91,7.91,0,0,0,1-1,3,3,0,0,1,1.6-.7,11.23,11.23,0,0,1-1,1,4.51,4.51,0,0,1-1.45.85Zm-3,31.2-.75-.3a2.2,2.2,0,0,1,1.2-.85l.3.4a1.6,1.6,0,0,1-.75.75m-1.45-3.3c.07,0,.1.15.1.45a3.77,3.77,0,0,1-.45,1.15c-.33.67-.6,1-.8,1.1l-.3-.15c.1-.6.18-1.08.25-1.45.17-.73.53-1,1.1-.95Zm-9.4-37.6c-.1.27-.15.15-.15-.35,0-.27.17-.47.5-.6l.85-.15.15.2a1.36,1.36,0,0,1-1.35.9m-.5-2.4a3.43,3.43,0,0,1-.95,1.3h-.3l0-.35s.23-.38.6-1a1.91,1.91,0,0,1,.9-1,1.49,1.49,0,0,1-.2,1.1m-.85-1.25a12.6,12.6,0,0,1-.9,2.6l-.45.1a1.46,1.46,0,0,1-.3-1,6.1,6.1,0,0,1,.5-1.5,5.38,5.38,0,0,1,.75-1.35,2.84,2.84,0,0,1,.3.5,1.66,1.66,0,0,1,.1.7m-24.1-7.6V83a2.9,2.9,0,0,1-1.55.2,5.07,5.07,0,0,0,.85-.65.94.94,0,0,1,.7-.25m-1.75.4a1.27,1.27,0,0,1,0-.5c0-.17.13-.37.4-.6a1.88,1.88,0,0,1,.75-.5,2.59,2.59,0,0,1-.15.8,1.23,1.23,0,0,1-.75.85l-.2,0m-1.45-1.45a1.52,1.52,0,0,1,1-.8,7.85,7.85,0,0,1-.9,2.15h-.2c-.07.07-.1-.15-.1-.65a1.35,1.35,0,0,1,.25-.7M123.4,84q-.15.3-.15-.45v-.4a.89.89,0,0,1,.75.15.87.87,0,0,1-.3.7Zm6.8,14.75.15.45a4.35,4.35,0,0,1-.3.55.81.81,0,0,1-.65.2,1.83,1.83,0,0,1-.55,0v-.1c-.1.27-.15.15-.15-.35,0-.33.2-.55.6-.65a2.73,2.73,0,0,1,.9,0m-1.55,6.85-.45-.15a1.28,1.28,0,0,1,.45-.35c.23-.07.38,0,.45.05Zm-.7,1.05a2.85,2.85,0,0,1,1.75-.9l.2.45c-.07.23-.48.48-1.25.75a1.17,1.17,0,0,1-.7-.3m30.85,19a1.49,1.49,0,0,1,.5-.6.92.92,0,0,1,.6-.15,3.47,3.47,0,0,1-.65.75Zm1.7.75c0,.17-.22.47-.65.9a1.14,1.14,0,0,1-.55-.3,4.48,4.48,0,0,1,1.2-.6m-.8,2v-.35h.8l.1.2a1.2,1.2,0,0,1-.45.2c-.23,0-.38,0-.45-.05m3.5,2c.07.07.1.25.1.55a2.18,2.18,0,0,1-.25,1,1.18,1.18,0,0,1-.8.65,2.08,2.08,0,0,1-.65,0c-.07,0-.1-.17-.1-.5a2,2,0,0,1,.3-.9,1.78,1.78,0,0,1,1.2-.9.28.28,0,0,0,.2.1m-57.6-38,0-.35q.4-.64.75-.3c0,.13-.15.35-.45.65Zm-1.25-.3a3.93,3.93,0,0,1,.35.9c-.13.63-.35.37-.65-.8Zm6-2a.94.94,0,0,1-.45.3.64.64,0,0,1-.35-.15c-.07-.07-.1-.27-.1-.6a1,1,0,0,1,.15-.65,1.35,1.35,0,0,1,.45,0,.48.48,0,0,0,.25.2,1.17,1.17,0,0,1,.1.6c0,.5,0,.62-.05.35m-7.6,2.4c.1-.2.4-.28.9-.25a5.67,5.67,0,0,0-.75,1.8l-.3.1-.15-.9a2.35,2.35,0,0,0,.3-.75m-13,24.1a2.62,2.62,0,0,1,1.25.65c-.13.3-.47.45-1,.45l-.65-.1c-.1.27-.15.15-.15-.35s.18-.72.55-.65m.65-1.15c.17-.27.67-.4,1.5-.4a1.43,1.43,0,0,0,.3.7v.2c.2.17,0,.25-.45.25a1.64,1.64,0,0,1-1.35-.75"/></g></svg>