<svg xmlns="http://www.w3.org/2000/svg" viewBox="0 0 300 300"><defs><style>.cls-1{fill:#f7d2a6;}.cls-1,.cls-10,.cls-2,.cls-3,.cls-4,.cls-5,.cls-6,.cls-7,.cls-8,.cls-9{fill-rule:evenodd;}.cls-2{fill:#515151;}.cls-3{fill:#ffadae;}.cls-4{fill:#efbd33;}.cls-5{fill:#d6a221;}.cls-6{fill:#f7cb5e;}.cls-7{fill:#cecece;}.cls-8{fill:#9b9b9b;}.cls-9{fill:#cad8a4;}.cls-10{fill:#9fad6c;}</style></defs><title>Plan de travail 67</title><g id="objet06"><path class="cls-1" d="M163.74,92.84a4.59,4.59,0,0,1,.54,1.52,9.68,9.68,0,0,1-1.06,3.71,4,4,0,0,1-4.22,2.25,5.51,5.51,0,0,1-3.07-1.06c0-.91-.1-2.2-.18-3.89q-.45-8.62-2.24-10.61a1.51,1.51,0,0,1,.77-2.05q3.39,9.24,9.46,10.11Z"/><path class="cls-2" d="M154.8,87.7a7.13,7.13,0,0,0-1.29-2.94,1.51,1.51,0,0,1,.77-2.05,30.48,30.48,0,0,0,1.8,4,1.19,1.19,0,0,1-1.28,1"/><path class="cls-3" d="M191.11,131.13c-1.39,1.63-2.77,2.36-4.16,2.21a3.46,3.46,0,0,1-1.46-.51c-.72-.83-1.49-1.74-2.29-2.74a20.52,20.52,0,0,0,2-1.76,13.61,13.61,0,0,0,3.39-5c.21.16.43.32.67.48.76.51,1.67,1.11,2.73,1.78a3.66,3.66,0,0,1,.88,2.54,6.91,6.91,0,0,1-1.79,3"/><path class="cls-4" d="M180.34,128.68c-3.27-4.19-5.52-7-6.75-8.46q-7.38-8.5-11.12-12.93t-6.64-8a2.93,2.93,0,0,0,2.32-2.41A3.3,3.3,0,0,0,160,98.17a1.85,1.85,0,0,0,1.85-.8,2.66,2.66,0,0,0-.12-3.28A2.5,2.5,0,0,0,163.83,93q6.49,8.51,17.41,20.68c1.46,1.63,3.14,3.49,5,5.6,0,.51,0,1.19.08,2a14.39,14.39,0,0,1,0,2.31c-.24,2.25-1.73,3.77-4.46,4.54-.57.17-1.08.34-1.54.52"/><path class="cls-5" d="M180.34,128.68c-3.27-4.19-5.52-7-6.75-8.46q-7.38-8.5-11.12-12.93t-6.64-8a2.93,2.93,0,0,0,2.32-2.41q17.15,20.16,26,30.36a8.22,8.22,0,0,1-2.24,1c-.57.17-1.08.34-1.54.52"/><path class="cls-6" d="M186.34,121.31a19.24,19.24,0,0,1,0,2.09q-8-9.6-24.6-29.31A2.5,2.5,0,0,0,163.83,93q6.49,8.51,17.41,20.68c1.46,1.63,3.14,3.49,5,5.6,0,.51,0,1.19.08,2"/><path class="cls-7" d="M182.41,131.09c-1.53-1.85-2.85-3.35-4-4.51,1.66-.35,3.1-1.56,4.32-3.65a13.4,13.4,0,0,0,1.86-5.13c0-.35.07-.66.1-.92l.57.59,0,.18a3,3,0,0,1,.4.24c.56.56,1.17,1.17,1.84,1.81.29.31.59.66.92,1s1.22,1.23,2.6,2.45a16.41,16.41,0,0,1-.45,1.81,21.88,21.88,0,0,1-.85,2.27c-.36.87-1.79,2-4.29,3.56l-1.3.21c-.62,0-1.21,0-1.77.06"/><path class="cls-8" d="M184.34,128.11l2.89-2.1a15.62,15.62,0,0,1-2.29,2.56,8.52,8.52,0,0,1-3.29,1.61l-.23-.28a19,19,0,0,0,2.92-1.79M188,126a.78.78,0,0,0,.12-.19l-.09-.16a.5.5,0,0,0-.8,0V126l.4,0A.49.49,0,0,0,188,126m1-1.25a.92.92,0,0,0-.69-.17c-.24,0-.37.14-.38.31l0,.2h.1l.29.13c.5.06.76,0,.79-.32s0-.2,0-.2Zm-3.45.23a23.24,23.24,0,0,1-5.48,3.42l.56.64a21.39,21.39,0,0,0,4.81-3,16.84,16.84,0,0,0,3.93-4.36l-.59-.56a15.59,15.59,0,0,1-3.23,3.87M179,127.13l.47.51a13.2,13.2,0,0,0,5.38-3.36,12.36,12.36,0,0,0,3-4.34c-.07-.08-.14-.17-.21-.24l-.28-.27a12.45,12.45,0,0,1-2.94,4.1,19.07,19.07,0,0,1-5.38,3.6"/><path class="cls-9" d="M166.92,126.33a9.17,9.17,0,0,1-5-.75,11.76,11.76,0,0,1-2-1.08c.13-.73.27-1.53.4-2.4q.65-4.06,1-6.37,2.28-1.56,10.35-3.33,10.88-2.39,15.15-1.77,2.07.91-7.54,8.15t-12.36,7.55"/><path class="cls-10" d="M183.9,112.5a73.89,73.89,0,0,0-14.68,5.6c1,.54,1.32,1.25.91,2.15a4.39,4.39,0,0,1-2.78,2,3.58,3.58,0,0,0,.5-1.87A2.88,2.88,0,0,0,166,118.1c.93-1,3.69-2.2,8.27-3.5a58.4,58.4,0,0,1,9.55-2.2Z"/></g></svg>