<svg xmlns="http://www.w3.org/2000/svg" xmlns:xlink="http://www.w3.org/1999/xlink" viewBox="0 0 300 300"><defs><style>.cls-1{fill:none;}.cls-2{clip-path:url(#clip-path);}.cls-3{fill:#39f;}.cls-3,.cls-4{fill-rule:evenodd;}.cls-4{fill:#99d1ff;}</style><clipPath id="clip-path"><path class="cls-1" d="M41.75,44.48v90h37v-5.57l-1.15-1.19q-6.6-6.95-12.82-13.46l-.58-.07a.65.65,0,0,1-.7-.45l0-.45v0a8,8,0,0,1-2-1.26q-2.91,1.45-10.47,1.46c-1.1,0-1.83-.92-2.2-2.75a11.62,11.62,0,0,1-.15-4.15,2.28,2.28,0,0,1-3.2-1.5,7.61,7.61,0,0,1-.4-2.7c0-.53.53-1.35,1.6-2.45.19-.2.38-.38.57-.55a1.55,1.55,0,0,1-.87-.8,7.79,7.79,0,0,1,0-3Q46.6,93.06,51.2,92a25.1,25.1,0,0,1,5.54-1,10.89,10.89,0,0,1-.09-1.22,3.77,3.77,0,0,1,.15-1.3,1.79,1.79,0,0,1,1.9-1,13.31,13.31,0,0,1,5,1.15c1,.37,2.08.83,3.25,1.4a4.84,4.84,0,0,1,2.5,1.75,3.58,3.58,0,0,1,.65,2,1.43,1.43,0,0,1-.1.5c0,.37-.4,2.33-1.2,5.9a45,45,0,0,0-1.2,9.65c0,.5.18,2,.55,4.4v.15q5,3.91,10.6,8.19V44.48Z"/></clipPath></defs><title>Plan de travail 14</title><g id="objet01"><g class="cls-2"><path class="cls-3" d="M66.2,55.33c0-.59-.91-1.56-2.73-2.93a15.47,15.47,0,0,1-2.42-2.1,1,1,0,0,1-.3-.55,1,1,0,0,1,.7-.9,4,4,0,0,1,2-.27,5,5,0,0,1,2.28.6,17,17,0,0,1,1.75,1.15c.58.43,1.85,1.39,3.83,2.9s3,3.11,3.12,4.82a61.09,61.09,0,0,1-.25,7.8l0,3.35a3.42,3.42,0,0,1-3.45,3l-2,0c-1.51,0-3.12,0-4.83,0a1.24,1.24,0,0,0-1.19,1.3q.22,11.94.47,31.35,0,3.19,0,6.45c0,4.27-.12,7.35-.25,9.25q-.3,5.4-1,6.7a6.62,6.62,0,0,1-1.42,1.75c-.61.16-1.61.39-3,.68s-2.6-.42-3.61-2.13a9.31,9.31,0,0,1-1.12-5.92q.39-3.37,1.75-22.48t1.58-22.45c.13-2.22,0-3.45-.43-3.7a5.76,5.76,0,0,0-2.82-.22,23.21,23.21,0,0,1-3.08.07,2.61,2.61,0,0,1-1.9-.82q-.4-.63.45-4.23a27,27,0,0,0,.85-4.65,4.64,4.64,0,0,0-.05-.9,2.42,2.42,0,0,0-.07-.32,8.48,8.48,0,0,0-.66-1.2,6.15,6.15,0,0,0-2.39-2q-1.81-1-1.68-2.25a1.23,1.23,0,0,1,.15-.5c.3-.5,1-.73,2-.68a8.46,8.46,0,0,1,4.5,2c1.62,1.2,2.91,1.75,3.85,1.65h.07a2.33,2.33,0,0,0,1.33-.55,1.47,1.47,0,0,0,.42-.67A1.57,1.57,0,0,0,55.92,56c-.71-.52-1.7-1.29-3-2.3s-1.15-1.72.15-2.3l.25-.1a4.25,4.25,0,0,1,4.35.68q2,1.55,3.85,3a19.17,19.17,0,0,0,2.17,1.67,2.05,2.05,0,0,0,.5.18l.45,0h0c1-.39,1.48-.87,1.48-1.45M57.9,121.4c-.47,0-.93.38-1.4,1.15A3.08,3.08,0,0,0,56,123.8c0,1.2.52,1.8,1.55,1.8a2,2,0,0,0,1.6-1.1,3,3,0,0,0,.55-1.4,2,2,0,0,0-.6-1.45,2.16,2.16,0,0,0-1.15-.25"/><path class="cls-4" d="M53.1,51.35l.25-.1a4.25,4.25,0,0,1,4.35.68q2,1.55,3.85,3a19.17,19.17,0,0,0,2.17,1.67,2.05,2.05,0,0,0,.5.18l.45,0-.52.27a5.53,5.53,0,0,1-2.7-.45A29.25,29.25,0,0,0,59,54.55c-1.77-1.33-2.73-2-2.9-2.1a4.49,4.49,0,0,0-2.3-1Zm-8.6,4.73c.3-.5,1-.73,2-.68a8.46,8.46,0,0,1,4.5,2c1.62,1.2,2.91,1.75,3.85,1.65a3.18,3.18,0,0,1-2.23.9A10.76,10.76,0,0,1,49,58c-1.87-1.33-3.08-2-3.65-2a2.13,2.13,0,0,0-.85.13m19-7.5a5,5,0,0,1,2.28.6,17,17,0,0,1,1.75,1.15c.58.43,1.85,1.39,3.83,2.9s3,3.11,3.12,4.82a61.09,61.09,0,0,1-.25,7.8l0,3.35a3.42,3.42,0,0,1-3.45,3l-2,0a5.86,5.86,0,0,0,2.5-2.9q.56-1.55.55-8.6V58.3a2.89,2.89,0,0,0-.45-1.5,18.29,18.29,0,0,0-2.5-3.15,25.44,25.44,0,0,0-3.5-2.9,6,6,0,0,0-3.25-.9c-.63,0-1,.15-1.1.45a1,1,0,0,1-.3-.55,1,1,0,0,1,.7-.9,4,4,0,0,1,2-.27"/></g></g></svg>