<svg xmlns="http://www.w3.org/2000/svg" xmlns:xlink="http://www.w3.org/1999/xlink" viewBox="0 0 300 300"><defs><style>.cls-1{fill:none;}.cls-2{fill:#cad6dd;}.cls-2,.cls-3,.cls-5{fill-rule:evenodd;}.cls-3{fill:#7daadb;}.cls-4{clip-path:url(#clip-path);}.cls-5{fill:#514d47;}</style><clipPath id="clip-path"><path class="cls-1" d="M44.07,82v48H68.75V118.44l-4-4.17-.58-.07a.65.65,0,0,1-.7-.45l0-.45v0a8,8,0,0,1-2-1.26q-2.91,1.45-10.47,1.46c-1.1,0-1.83-.92-2.2-2.75a11.62,11.62,0,0,1-.15-4.15,2.28,2.28,0,0,1-3.2-1.5,7.61,7.61,0,0,1-.4-2.7c0-.53.53-1.35,1.6-2.45.19-.2.38-.38.57-.55a1.55,1.55,0,0,1-.87-.8,7.79,7.79,0,0,1,0-3c.18-1.65,1.8-2.85,4.87-3.57a25.1,25.1,0,0,1,5.54-1,10.89,10.89,0,0,1-.09-1.22,3.77,3.77,0,0,1,.15-1.3,1.79,1.79,0,0,1,1.9-1,13.31,13.31,0,0,1,5,1.15c1,.37,2.08.83,3.25,1.4a5.29,5.29,0,0,1,1.8,1V82Z"/></clipPath></defs><title>Plan de travail 16</title><g id="objet01"><path class="cls-2" d="M86,28.65l-.15,0a.35.35,0,0,1,0-.08ZM51,28a25.43,25.43,0,0,0,2.95-.35q1.26-.12,6.3-.25c.21-1.3.39-2.4.55-3.3-.07,1-.2,2.14-.37,3.3l2.27-.05q.32-2.61.45-3.9h.15c-.09,1.2-.21,2.5-.35,3.9h4.6c.45-2.85.68-4.35.7-4.5h.15a21.84,21.84,0,0,1-.35,3q-.1.76-.15,1.5h3.5q6,.32,10.42.73a3.22,3.22,0,0,1,.2.37l-.77,0q-5.1-.3-9.1-.45H67.82c0,.22,0,.44,0,.65a29.48,29.48,0,0,1-.23,3.08l3.43.2c.17-1.26.29-2.1.35-2.53h.05c-.07.81-.14,1.65-.23,2.53L73.3,32q6.9.45,6.9.7v.1c-3.15-.06-6.18-.16-9.07-.32-.13,1.22-.27,2.52-.43,3.9l1.75.12,1.7.13c0-.18.07-.36.1-.53a.61.61,0,0,1,.15.45v.1c1.47.12,2.89.22,4.25.3.14-.66.28-1.26.4-1.8a.52.52,0,0,0,.2.1s0,.07,0,.2a12.25,12.25,0,0,1-.13,1.53l2.28.12.1.2a4,4,0,0,1-1.3.1l-1.12-.07q-.48,4-2.58,14.87h0c3,.17,6,.43,9,.8-2.41-.09-5.46-.22-9.13-.4-.17,1-.37,2-.57,3l-.15.1c0,.1,0,0,0-.2s.12-1.25.37-2.92l-7.52-.4c-.12.72-.23,1.46-.35,2.22h-.15c-.1.07-.15,0-.15-.25s.07-.89.2-2l-3.8-.22v0l-.15.05v-.07l-4.25-.25c-.19,1.67-.31,2.68-.35,3l-.2.25c-.1.07-.15,0-.15-.25s.11-1.24.32-3h-.17v-.1h.2q.29-2.37.83-6.5l-1.88-.07c-.07.51-.14,1-.2,1.57-.49,4.11-.89,7.57-1.2,10.35l14.7,1.2.35.15q-3.7,0-14.6-.6H57c-.21,2-.38,3.6-.5,4.85,1.22,0,1.83,0,1.83-.05q3.6.41,6.35.6l5.3.3v.05l-13.53-.42q-.07.87-.12,1.47l-.3.15a4.14,4.14,0,0,1-.28-1.65l-4.47-.15c-3,0-4.55-.07-4.55-.2l4.55-.1h4.45V61.8c0-.61.13-2,.38-4.2H51.67c-.08.64-.18,1.29-.27,1.95h-.15a8,8,0,0,0,.15-1.8V57.6H48.67c-.2,1.52-.4,2.89-.57,4.1L48,62c-.17.1-.25,0-.25-.25,0-.55.13-1.92.4-4.1l-3.8,0c-.23,1.09-.46,2.13-.7,3.12h-.1c0,.1,0,0,0-.2a20.42,20.42,0,0,0,.3-2.1,7.31,7.31,0,0,1,.07-.82l-8.35,0-.17-.72.7-.08q1.95-.15,6.4-.15h1.52q.33-2.49,1.23-8.3c.19-1.24.37-2.41.55-3.52l-5,0c-1.9.07-3,.1-3.25.1-.63,0-1-.08-1-.25l9.25-.45q.39-2.37.75-4.32L41.1,40c-.55.06-2,.09-4.38.1,0-.08.07-.17.11-.25,1.56,0,3-.09,4.27-.2h5.53q.28-1.74.57-3.15H42.1l-.45.15a1.23,1.23,0,0,1-.35-.05c-.27-.07-.4-.13-.4-.2l1.35-.15,5-.1c.13-.64.26-1.22.38-1.75l.05.15c-.06.5-.13,1-.2,1.6l3.57-.05,0-.15h.15l0,.15,2.68,0q.3-2.32.57-4.05H50.8a52.11,52.11,0,0,1-5.95.05l-.05-.2,6.5-.3v-.1h3.25l.1,0,0,0H59.6c.19-1.29.36-2.45.53-3.5H58.75c-1.5,0-3,.08-4.45.15l-1.95.15c-.93,0-1.4-.08-1.4-.25M62.13,31.4c.17-1.3.31-2.47.44-3.5H60.3c0,.23-.06.46-.1.7A23.31,23.31,0,0,0,60,31.4Zm5.27-3.5H62.85c-.11,1.11-.24,2.27-.38,3.5H64.3c.42.05,1.26.1,2.52.18.23-1.39.42-2.62.58-3.68m7,9a135.5,135.5,0,0,1-2.4,15c1.46.07,2.84.14,4.13.23.17-1.28.41-2.9.72-4.88q1-6.27,1.72-10-2.47-.19-4.17-.3m-3.75-.23q-.77,6.48-2.05,15.08c1.07,0,2.09,0,3.07.1q1.55-10.2,2.43-15l-1.55-.1-1.9-.1m.27-4.3c-1.15-.06-2.29-.14-3.4-.22-.13,1.11-.3,2.42-.52,3.92l3.38.2q.32-2.31.54-3.9m-4.17-.27-2-.18H62.42c-.14,1.24-.3,2.55-.47,3.93l4.18.17c.23-1.42.43-2.73.62-3.92m-.68,4.37-4.17-.15c-.12.84-.23,1.71-.35,2.6,0,.34-.08.66-.13,1l4,.42c.16-1,.32-2,.48-3.1l.12-.75m1.08,4.15-.85,0c-.22,1.33-.46,2.75-.73,4.28l.58,0,.1.15a2.91,2.91,0,0,1-.73.08q-.52,3-1.17,6.5c1.32,0,2.59.07,3.8.12q.38-2.79,1.25-8.7c.35-2.44.66-4.57.92-6.37l-3.4-.15c-.17,1.19-.37,2.49-.6,3.92l.88.1c0,.27,0,.3,0,.1m-4.6-.15c-.28,0-.68,0-1.2-.07-.2,1.53-.38,2.94-.55,4.22.93.06,2.29.12,4.08.2.16-1.36.36-2.79.57-4.3-.85,0-1.81,0-2.9,0m.75,4.65L60.75,45c-.35,2.73-.62,4.89-.83,6.47l4.25.13q.22-2.88.68-6.48ZM60,32.15c0,.26-.13,1.51-.38,3.75l2,0c.18-1.41.35-2.71.5-3.9H60Zm-.43,4.2-.39,3.35,1.92.2c.16-1.25.31-2.43.45-3.55Zm0-4.4H54.7c0,.94-.11,2.29-.28,4.05L59,35.9c.2-1.42.4-2.73.57-3.95M53.65,36.3l-2.48.1A21.11,21.11,0,0,0,51,39c0,.11,0,.32,0,.65h2.47c.15-1.18.29-2.28.43-3.3Zm5.42,3.88c-.16,1.29-.33,2.75-.52,4.37l1.87.1c.14-1,.28-2.09.43-3.25,0-.34.09-.67.12-1l-1-.1-.93-.12m-.65-.53q.26-1.73.48-3.3l-4.5-.05c-.1,1-.21,2.08-.35,3.3h4l.42,0m-.42.4-4,0c-.15,1.28-.33,2.69-.53,4.22h1c1.16.1,2.27.18,3.32.25l0-.15c.2-1.49.39-2.92.58-4.27l-.38,0m-10.55-3.6c-.12.95-.25,2-.4,3.15h3.47c.2-1.28.36-2.35.5-3.2-1.37,0-2.56.06-3.57.05M47,40c-.16,1.29-.34,2.72-.53,4.27h3.41c.21-1.6.41-3,.59-4.25Zm-.6,4.9c-.12.87-.23,1.78-.35,2.72q-.72,5-1.55,9.1h3.7q.34-2.85.95-7.25c.22-1.66.43-3.18.62-4.57Zm3.45,3.87q-.59,4.47-1.05,8h2.67c.15-1.59.51-4.83,1.08-9.7.08-.73.17-1.45.25-2.15l-2.45,0c-.15,1.12-.31,2.42-.5,3.87m3.55-3.9q-.65,5.06-1.6,11.85h.05l.95.15h3.4q.49-4.26,1.52-12l-2.57,0Zm0-4.82-2.46,0c-.09.89-.26,2.31-.5,4.25h2.46c.16-1.51.33-2.92.5-4.22"/><path class="cls-3" d="M85.05,60.05q-6,11.08-16.3,14.68a30.42,30.42,0,0,0-3.65,3,20.63,20.63,0,0,0-2.57,3c-.19.38-.37.77-.53,1.17q-.48,1.16-1,2.7c-.24.91-.29.93-.65,2.42,0,.15-3.71,0-3.74.17-1.38.26.76,1.89-.36,2l-.57.05A20,20,0,0,0,50.8,77.4c-1.08-.87-2-1.63-2.7-2.27A22.49,22.49,0,0,1,34.7,64.45a29.53,29.53,0,0,1-4-14.9,36.78,36.78,0,0,1,4-17.4q5.7-10.69,18.55-14.6Q70.4,12.4,81.55,22.7a25.13,25.13,0,0,1,6.5,9.6,23.85,23.85,0,0,1,2,9.45,56,56,0,0,1-1.13,8.38,35.4,35.4,0,0,1-3.87,9.92M84.3,41.3a19,19,0,0,0-1.72-6.62,19.26,19.26,0,0,0-5.23-7.33Q67.85,19,53,24.55,44.8,27.45,40.2,36.4a29.28,29.28,0,0,0-3.55,13.35A22.16,22.16,0,0,0,39.9,61.4q5.45,9,18,9.05,14.3,0,21.85-13.45a33.82,33.82,0,0,0,3.53-8.9,34.37,34.37,0,0,0,1-6.8M62.65,76.15a36.59,36.59,0,0,1-4.75.3c-1.26,0-2.48,0-3.65-.15A20.29,20.29,0,0,1,57,79.55a22.75,22.75,0,0,1,1.47,3.35A15.94,15.94,0,0,1,60,79.55a22.43,22.43,0,0,1,2.7-3.4"/><g class="cls-4"><path class="cls-5" d="M63.5,86.48c-.09.19-.5.88-1.25,2.07a9.91,9.91,0,0,0-.2,2.8v9.9q-.79,9.41-1,12.6c-.22,3.4-.34,7-.35,10.88q-2.78,2.11-10.43.62.45-3.36.83-7.45,1.4-22.65,1.4-23c0-1.87,0-3,0-3.4a8.72,8.72,0,0,0-.7-3.3l-.12-.38q.33-2.64,6-3.17t5.85.48a3,3,0,0,1,0,1.3"/></g></g></svg>