<svg xmlns="http://www.w3.org/2000/svg" xmlns:xlink="http://www.w3.org/1999/xlink" viewBox="0 0 300 300"><defs><style>.cls-1{fill:none;clip-rule:evenodd;}.cls-2{isolation:isolate;}.cls-3{clip-path:url(#clip-path);}.cls-4{fill:#9fad6c;}.cls-10,.cls-4,.cls-5,.cls-6,.cls-9{fill-rule:evenodd;}.cls-4,.cls-8{opacity:0.5;}.cls-5{fill:#232220;}.cls-6{fill:#f0670b;}.cls-7{clip-path:url(#clip-path-2);}.cls-8{mix-blend-mode:multiply;}.cls-9{fill:#333;}.cls-10{fill:#595959;}</style><clipPath id="clip-path"><path class="cls-1" d="M161.05,79.48q3.64,3.42,4.45,5.5a16.37,16.37,0,0,1,1.85,5.12,71.18,71.18,0,0,1,.7,10.65,152.88,152.88,0,0,1-1.12,20.52q-1.14,8-1.78,10.38A17.19,17.19,0,0,1,163,136.3a13.33,13.33,0,0,1-2.93,3.2q-1.78,1.55-14.3,5.95T130.2,150a19.37,19.37,0,0,1-4.65-.21q-1.56-.35-9.75-4.6a93,93,0,0,1-14.32-9A85.31,85.31,0,0,1,93.05,129c-2.57-2.73-4-4.48-4.15-5.23a10.2,10.2,0,0,1-.22-3c0-1.25,1-3.69,2.9-7.3s5.06-9.67,9.52-18.2q2-3.75,5.6-12.1,2.61-5.94,10.18-7.18a146.25,146.25,0,0,1,28.52-1Q157.42,76.06,161.05,79.48Z"/></clipPath><clipPath id="clip-path-2"><path class="cls-1" d="M180.85,70.45a7.66,7.66,0,0,1,3,2.55,7,7,0,0,1,.88,1.63c.35-.34.77-.72,1.27-1.13a23.26,23.26,0,0,1,5.7-3.5q8.3-3.5,8.3,5.2c-.44,1.85-.88,3.49-1.32,4.9q3.81-.73,10.87.65A5.7,5.7,0,0,1,213,84.1a9.06,9.06,0,0,1,.8,3.7c0,1.87-.8,4.43-2.4,7.7l-.2.42a4.42,4.42,0,0,1,.9.38,1.9,1.9,0,0,1,1,1.65,2.75,2.75,0,0,1-1,2l-.25.22a14.73,14.73,0,0,1,2.55,1.58,9.37,9.37,0,0,1,2.45,2.45,20.8,20.8,0,0,1,2.35,5,19.2,19.2,0,0,1,.45,4.7q0,5.7-1,8-2.59,6.4-11.6,6.4a14.93,14.93,0,0,1-5.5-1v.25a6.64,6.64,0,0,1-.2,1.9,1.9,1.9,0,0,1-2,1.4,3,3,0,0,1-2.8-1.85c-.09-.18-.17-.37-.25-.55a20.38,20.38,0,0,1-1.15,1.85,11.4,11.4,0,0,1-9.9,5.5q-8.4,0-11.4-6.3a14.55,14.55,0,0,1-1-3.05c-.21.27-.44.56-.7.85a8,8,0,0,1-6.1,3.1,4.21,4.21,0,0,1-.62-.05c.2-1,.44-2.26.7-3.85l.75-.08q2.73-.31,12.35-7.55t7.55-8.14q-4.29-.61-15.15,1.77c-1.47.32-2.8.64-4,.95q.36-5.59.35-12.6a71.18,71.18,0,0,0-.7-10.65A16.37,16.37,0,0,0,165.5,85a7.34,7.34,0,0,0-.62-1.21q1.5-7.33,4.67-10.12Q175.81,68.15,180.85,70.45Z"/></clipPath></defs><title>Plan de travail 31</title><g class="cls-2"><g id="objet03"><g class="cls-3"><path class="cls-4" d="M111.87,72.46s-8.72,3.77,10.59,12.48,34.86,29.2,51.58,25.43-2.36-20-2.36-20Z"/></g><path class="cls-5" d="M123.2,68.7c-.23-.83-.41-1.6-.55-2.3a25.42,25.42,0,0,1-.1-2.55q0-1.86,4.25-4.6c2.8-1.83,4.67-2.1,5.6-.83s3.2,2.24,6.8,2.88a35.09,35.09,0,0,1,6.05,1.35,9.46,9.46,0,0,1,2.3,2.65c-2,1.23-3.22,1.93-3.55,2.1a49.57,49.57,0,0,1-7.3,2.85c-3.87,1.23-6.47,2-7.8,2.35s-2.47.37-3.47.57a3.4,3.4,0,0,1-.88-.65A15.61,15.61,0,0,1,123.2,68.7Z"/><path class="cls-6" d="M180.85,70.45a7.66,7.66,0,0,1,3,2.55,7,7,0,0,1,.88,1.63c.35-.34.77-.72,1.27-1.13a23.26,23.26,0,0,1,5.7-3.5q8.3-3.5,8.3,5.2c-.44,1.85-.88,3.49-1.32,4.9q3.81-.73,10.87.65A5.7,5.7,0,0,1,213,84.1a9.06,9.06,0,0,1,.8,3.7c0,1.87-.8,4.43-2.4,7.7l-.2.42a4.42,4.42,0,0,1,.9.38,1.9,1.9,0,0,1,1,1.65,2.75,2.75,0,0,1-1,2l-.25.22a14.73,14.73,0,0,1,2.55,1.58,9.37,9.37,0,0,1,2.45,2.45,20.8,20.8,0,0,1,2.35,5,19.2,19.2,0,0,1,.45,4.7q0,5.7-1,8-2.59,6.4-11.6,6.4a14.93,14.93,0,0,1-5.5-1v.25a6.64,6.64,0,0,1-.2,1.9,1.9,1.9,0,0,1-2,1.4,3,3,0,0,1-2.8-1.85c-.09-.18-.17-.37-.25-.55a20.38,20.38,0,0,1-1.15,1.85,11.4,11.4,0,0,1-9.9,5.5q-8.4,0-11.4-6.3a14.55,14.55,0,0,1-1-3.05c-.21.27-.44.56-.7.85a8,8,0,0,1-6.1,3.1,4.21,4.21,0,0,1-.62-.05c.2-1,.44-2.26.7-3.85l.75-.08q2.73-.31,12.35-7.55t7.55-8.14q-4.29-.61-15.15,1.77c-1.47.32-2.8.64-4,.95q.36-5.59.35-12.6a71.18,71.18,0,0,0-.7-10.65A16.37,16.37,0,0,0,165.5,85a7.34,7.34,0,0,0-.62-1.21q1.5-7.33,4.67-10.12Q175.81,68.15,180.85,70.45Z"/><g class="cls-7"><g class="cls-8"><path class="cls-6" d="M177.34,73.35a7.64,7.64,0,0,1,2.41,3.2,7.74,7.74,0,0,1,.56,1.89c.39-.32.85-.67,1.39-1a22.14,22.14,0,0,1,5.94-3q8.38-2.64,7,6.82c-.72,2-1.39,3.67-2,5.15,2.47-.18,5.86.57,10.14,2.23a5.88,5.88,0,0,1,2.66,4.12,11.33,11.33,0,0,1,.16,4.14q-.47,3-3.52,8l-.25.43a3.69,3.69,0,0,1,.79.54,2.14,2.14,0,0,1,.72,1.94,3.25,3.25,0,0,1-1.27,2,2.47,2.47,0,0,1-.27.21,13.47,13.47,0,0,1,2.15,2.08,9.91,9.91,0,0,1,1.91,3,24.53,24.53,0,0,1,1.41,5.72,23.82,23.82,0,0,1-.34,5.17c-.62,4.14-1.34,7-2.19,8.52q-3.48,6.58-12,5.32a12.42,12.42,0,0,1-5-1.86,2.51,2.51,0,0,0,0,.27,8.06,8.06,0,0,1-.5,2,1.84,1.84,0,0,1-2.11,1.24,2.86,2.86,0,0,1-2.34-2.4q-.09-.33-.15-.63c-.4.6-.87,1.22-1.38,1.84-2.93,3.65-6.33,5.17-10.23,4.59q-7.92-1.19-9.72-8.45a16.93,16.93,0,0,1-.45-3.46c-.25.27-.51.54-.8.82-2,2-4.12,2.84-6.25,2.52a3.63,3.63,0,0,1-.59-.14c.36-1,.79-2.4,1.29-4.09.23,0,5.17-22.56,5.93-27.63a90.25,90.25,0,0,0,1.07-11.69,20.21,20.21,0,0,0-.91-5.83,8.61,8.61,0,0,0-.4-1.39q2.61-7.78,6-10.36Q173,70.14,177.34,73.35Z"/></g></g><path class="cls-9" d="M140.1,60.8q11-8.31,20.43-8.9t15.67,2.25a37,37,0,0,1,8.45,5.9q4.26,4.5,4.45,14.4.17,9.17-7.37,17.82-17.41-6.45-54.13-19.79Q130.07,68.72,140.1,60.8Z"/><path class="cls-10" d="M120.63,59.38q6.28-1.73,7.55-2a6.3,6.3,0,0,1,2.1-.13,2.63,2.63,0,0,1,1.22.48,16.69,16.69,0,0,0-5.62,6.4q-1.57,3.45,3.6,6.6t9,3.15q3.84,0,7.05-7.75c.19-.13.39-.27.6-.4q8.35.75,13.27,1.45Q172.2,69,178.35,73a24,24,0,0,1,6.7,6.5,51.06,51.06,0,0,1,3.7,6.65,59.12,59.12,0,0,1,4.4,13,61,61,0,0,1,1.65,13.35c0,.51-.1,1.83-.3,4q-8.2-4.62-13.7-7.82a371.45,371.45,0,0,0-33.45-17.55Q130.4,83.54,108.4,75.52l-.82-.29A22,22,0,0,1,107,71.9a17.78,17.78,0,0,1,.55-5.4,6.71,6.71,0,0,1,4-4.33C113.41,61.46,116.44,60.52,120.63,59.38Z"/></g></g></svg>