<svg xmlns="http://www.w3.org/2000/svg" xmlns:xlink="http://www.w3.org/1999/xlink" viewBox="0 0 300 300"><defs><style>.cls-1{fill:none;}.cls-2{clip-path:url(#clip-path);}.cls-3{fill:#bcc8cc;}.cls-3,.cls-4,.cls-5,.cls-6,.cls-7,.cls-8,.cls-9{fill-rule:evenodd;}.cls-4{fill:#c7d0d3;}.cls-5{fill:#d7dfe2;}.cls-6{fill:#ffd7c4;}.cls-7{fill:#e5eff9;}.cls-8{fill:#fff;}.cls-9{fill:#ff3700;}</style><clipPath id="clip-path"><path class="cls-1" d="M26.6,57.75V197H70.92v-76.3l-6.14-6.44-.58-.07a.65.65,0,0,1-.7-.45l0-.45v0a8,8,0,0,1-2-1.26q-2.91,1.45-10.47,1.46c-1.1,0-1.83-.92-2.2-2.75a11.62,11.62,0,0,1-.15-4.15,2.28,2.28,0,0,1-3.2-1.5,7.61,7.61,0,0,1-.4-2.7c0-.53.53-1.35,1.6-2.45.19-.2.38-.38.57-.55a1.55,1.55,0,0,1-.87-.8,7.79,7.79,0,0,1,0-3Q46.6,93.06,51.2,92a25.1,25.1,0,0,1,5.54-1,10.89,10.89,0,0,1-.09-1.22,3.77,3.77,0,0,1,.15-1.3,1.79,1.79,0,0,1,1.9-1,13.31,13.31,0,0,1,5,1.15c1,.37,2.08.83,3.25,1.4a4.84,4.84,0,0,1,2.5,1.75,3.58,3.58,0,0,1,.65,2,1.43,1.43,0,0,1-.1.5c0,.37-.4,2.33-1.2,5.9a45,45,0,0,0-1.2,9.65c0,.5.18,2,.55,4.4v.15l2.77,2.16V57.75Z"/></clipPath></defs><title>Plan de travail 12</title><g id="objet01"><g class="cls-2"><path class="cls-3" d="M55,179a5.17,5.17,0,0,1-2.67,1.36c-1,0-1.48-.35-1.53-1.22a5.28,5.28,0,0,1,.88-3.05c-.43.16-.7.1-.81-.15s-.08-.42-.08-.45a4,4,0,0,1,1.08-2.17,4.14,4.14,0,0,1,3-1.88q6.49-.37,6.69,1.77c.13,1.43,0,2.35-.36,2.75a2,2,0,0,1-1.52.61,22.82,22.82,0,0,1,.14,2.4,2.31,2.31,0,0,1-2.14,1.17,3.32,3.32,0,0,1-2-.48A1.68,1.68,0,0,1,55,179"/><path class="cls-4" d="M60.27,173.3c0-.2-.12-.64-.23-1.31a1.31,1.31,0,0,0,.44-.25,19.85,19.85,0,0,1,1.93,2.11,21.63,21.63,0,0,1,3.93,8.67q1.35,5.5.22,8.52c-.87,2.32-2,3.53-3.5,3.61a1.64,1.64,0,0,1-1.83-1.4c0-.81.21-2.57.59-5.26s-.13-7.59-1.55-14.69M49.7,171.56a.2.2,0,0,0,.06.07,5.2,5.2,0,0,0,.44.38l0,.1s0,.09.12.19a10.54,10.54,0,0,0-1.76,2.61,19.81,19.81,0,0,0-2.16,7.68q-.1,1.51-.29,6.13c-.12,2.58-.41,3.88-.88,3.91h-.07l-.07.11a1.68,1.68,0,0,1-1.27.62c-1.46.09-2.41-.69-2.84-2.34-.16-1.69-.25-2.57-.25-2.64a17.09,17.09,0,0,1,.54-4.44A18.18,18.18,0,0,1,43.17,179a28.53,28.53,0,0,1,4-5.09,18.84,18.84,0,0,1,2.52-2.38"/><path class="cls-5" d="M32.37,73.17c1.37-1.74,2.7-2.66,4-2.73a10.49,10.49,0,0,1,4,.77c.36.13.74.27,1.13.43a14.55,14.55,0,0,1,4.91,3q-.63-1-1-1.62a11.35,11.35,0,0,1-1.74-4.86Q43.44,64.57,47,62a12,12,0,0,1,6.71-2.49q3.86-.22,7,5.35a31,31,0,0,1,3.75,13.86A40.29,40.29,0,0,1,64.12,86a28.17,28.17,0,0,1-1.3,6L49,98q-2.47-6.56-6.46-8.56a79,79,0,0,1-7.43-4.23,8.56,8.56,0,0,1-4-5.88,7.58,7.58,0,0,1,1.32-6.19"/><path class="cls-6" d="M53.19,78.13q-1.94-3.34-2.72-4.6a7.35,7.35,0,0,1-1.17-3.77,4.51,4.51,0,0,1,1.5-3.06q1.44-1.42,4.37-.66t3.67,9.31a117.09,117.09,0,0,1,.53,14.19c-.11,2.21-.2,3.8-.28,4.77h-.2a3.47,3.47,0,0,1-1.18.35,41.29,41.29,0,0,0-4.52-16.54m-17,.88a3.2,3.2,0,0,1,.62-2.14,2.38,2.38,0,0,1,1.85-1q3.84-.23,6.92,3.65,3.33,4.26,6.53,14.15c-.51.27-1.14.63-1.89,1.06l-.39.22A17.17,17.17,0,0,0,48,91.4a50.51,50.51,0,0,0-4.2-5.16,41.65,41.65,0,0,0-4.72-3.64Q36.26,80.67,36.17,79"/><path class="cls-3" d="M40.27,72.07a2.13,2.13,0,0,1,.1-.86c.36.13.74.27,1.13.43a14.55,14.55,0,0,1,4.91,3c.65,1,1.51,2.37,2.56,4a41.39,41.39,0,0,1,5.59,17L53.8,96a33.34,33.34,0,0,0-7.32-16.23c-.18-.22-1.67-1.87-4.45-5-1.14-1.31-1.73-2.21-1.76-2.7"/><path class="cls-5" d="M63.13,138.4q.69-.26,2.5,9.93,2.18,11.86.83,19-2.84,5.35-10,5.76t-9.84-3.78a14.85,14.85,0,0,1-1.88-6.65q-.45-4.54,4.06-10.16a27.68,27.68,0,0,0,5.76-13.1,13.82,13.82,0,0,1,3.17-.49,33.86,33.86,0,0,0,5.36-.51"/><path class="cls-6" d="M55.46,153.42c1.83-.1,3.11.39,3.84,1.48a5.25,5.25,0,0,1,.65,2.52,39.63,39.63,0,0,1,0,4.06,40.47,40.47,0,0,0,0,4.66,23.77,23.77,0,0,0,.38,3.08c.12.53.36,1.52.73,3a14.67,14.67,0,0,1-4.51.91,12.47,12.47,0,0,1-7.45-1.47l-.28-2.18a35.73,35.73,0,0,1,.74-8.06q1.6-7.71,6-8"/><path class="cls-4" d="M68.64,153.18a6.59,6.59,0,0,1-.14,3.22c-.28.71-1.51,1-3.68.86s-3.46.61-3.9,2.21-.9,2.4-1.36,2.43c-.77,0-1.38-1-1.84-3.1s-.48-3.19-.48-3.23q-.18-2.94,3.72-3.12t3.77-2.32a18.64,18.64,0,0,0-.4-2.63,20.44,20.44,0,0,1-.39-2.38,2.11,2.11,0,0,1,.06-.36l.18-.76c.08-.34.28-.38.59-.13a20.62,20.62,0,0,1,2.28,4.22,20.34,20.34,0,0,1,1.59,5.09"/><path class="cls-4" d="M55.35,153.33a10,10,0,0,1,0,4,5.59,5.59,0,0,1-1.81,2.51q-1.42,1.24-1.59-1.41t-3.11-2a9.94,9.94,0,0,0-1.39.38c-1.46.12-2.18-.47-2.15-1.78s.9-2.91,2.63-4.71q4-4,5.1-5.3a22.86,22.86,0,0,1-2,4.57l-.81,1.5,1.09-.16q3.48-.41,4,2.37"/><path class="cls-5" d="M65.05,112.4a45,45,0,0,1,1.1,5.19,66.57,66.57,0,0,1,.27,15.91q-.84,7-6.86,7.66a65.82,65.82,0,0,1-14.39-.26q-8.13-1-10.83-4.53a11.7,11.7,0,0,1-2.77-7.15,14.45,14.45,0,0,1,1.46-6.8,9.41,9.41,0,0,1,5.39-4.52l10-3.79a40.69,40.69,0,0,0,8.92-4.32,9.27,9.27,0,0,1,7.66,2.61"/><path class="cls-7" d="M62,122.64a14,14,0,0,1,.09,1.55,1.84,1.84,0,0,1-1.45,1.74q-1.34.33-2-2.34a25.74,25.74,0,0,1,.67-3.14c.43-1.66.78-2.87,1-3.62A20.89,20.89,0,0,1,62,122.64"/><path class="cls-8" d="M59.52,124.82s1.1,0,1.08-.62-.17-2.53-.88-2.26-1.08,2.81-.2,2.88"/><path class="cls-6" d="M52.18,127.07c0,.33-.47.78-1.58,1.34a8.72,8.72,0,0,1-2.35.94,4.49,4.49,0,0,1-4-1.42,5.32,5.32,0,0,1-1.52-3c-.11-.79.24-1.09,1.05-.91.54.14,1.69.41,3.45.8,3.26,1,4.93,1.75,5,2.22"/><path class="cls-9" d="M49.72,120.05c.33,0,.52.14.58.57.11.66-.11,1-.64,1.08a.57.57,0,0,1-.61-.21.81.81,0,0,1-.07-.35.73.73,0,0,1,.16-.61.65.65,0,0,1,.58-.48m2.8,2.59a2.66,2.66,0,0,1-.12-.39,1.27,1.27,0,0,1,.77-1.3c.62-.37,1-.19,1.09.54a1.82,1.82,0,0,1-.2.86,1.13,1.13,0,0,1-.77.5.78.78,0,0,1-.77-.21"/><path class="cls-8" d="M53.11,121.56a.32.32,0,0,1-.42-.33c0-.27.09-.44.42-.53s.47,0,.52.32a.54.54,0,0,1-.18.37.72.72,0,0,1-.34.17M49.37,121c-.23,0-.36-.13-.38-.43s.08-.42.38-.47a.39.39,0,0,1,.47.32.6.6,0,0,1-.14.31.93.93,0,0,1-.33.27"/><path class="cls-3" d="M44.21,136.45a.78.78,0,0,0-.39-.63c0-.44.19-.48.64-.14a3.45,3.45,0,0,1,1,1.29,4.27,4.27,0,0,1,.37,1.23c0,.24-.62,0-1.79-.64a4.47,4.47,0,0,0,.14-1.11"/><path class="cls-3" d="M59.25,128.06c-5,1.89-7.77,2.86-8.4,2.89l-.15,0-.06,0c3.81-1.82,6.65-2.79,8.55-2.9ZM31,122.94a25.5,25.5,0,0,1,2.64,1.6l1.36.95-1.16-.56a57,57,0,0,1-5.42-2.84,6.13,6.13,0,0,1,2.58.85M29.2,126.4a22.17,22.17,0,0,1,3,.52c1.62.31,2.61.52,3,.63l.12,0a10.67,10.67,0,0,1-3.29-.16,8.92,8.92,0,0,1-3.26-1Zm8.89-1.32a88.78,88.78,0,0,1-7.25-6.59c1.08.16,2.44,1.14,4.06,3s2.68,3,3.19,3.64m19.33,12v.1a32.72,32.72,0,0,1-3.28-1.31,30.25,30.25,0,0,1-3.3-1.61v0a14.66,14.66,0,0,1,3.57,1.14,7.82,7.82,0,0,1,3,1.73m1.64-3.6q-.45,0-8-.89a20.72,20.72,0,0,1,2.85-.11,15.18,15.18,0,0,1,5.43.89v0Z"/><path class="cls-4" d="M33.68,72.5c-.19,0-.53-.22-1-.7a3.3,3.3,0,0,1-.64-.76l.14-.06c.11.1.7.51,1.78,1.25v.15q.21.09-.3.12m-2-.14a2.93,2.93,0,0,1,1,.19,1.86,1.86,0,0,1,.88.6.46.46,0,0,1-.18.26,14.52,14.52,0,0,1-1.64-.55l-.11-.2Zm25.63-11.6a2,2,0,0,1,1.14-.92l.1-.06c.07,0,.11.15.12.35S58.23,61,57.22,62c-.1.14-.15,0-.17-.29a1.53,1.53,0,0,1,.3-.92m-1.86,0a5.6,5.6,0,0,0,.3-.91c.17-.48.36-.71.56-.69l.06.2a3,3,0,0,1-.71,1.49ZM44.44,67.12l0-.31a2.79,2.79,0,0,1,1.26.13l.06.15a2,2,0,0,1-1.23.32c-.06.14-.1,0-.12-.29M45.6,69a.63.63,0,0,1-.68-.46c0-.13.28-.22.74-.24l.22.38,0,.16c.18.09.1.14-.24.16m-2.35,47.52a.84.84,0,0,1-.5-.82.66.66,0,0,1,0-.31l.3,0a3,3,0,0,1,.3,1ZM35.53,86.11a.81.81,0,0,1-.51-.17,1.66,1.66,0,0,1,.66-.59.79.79,0,0,1,.65-.13l.15.09Zm6.9,31c0,.1-.12.17-.29.21a3,3,0,0,1-.44-.67,3,3,0,0,1-.29-.69c0-.2,0-.3,0-.3v.1l.3-.07a2.4,2.4,0,0,1,.68,1.42m-5.56,21.5-.16-.14c.31-.48.57-.73.81-.74l0-.11s.06.1.07.3a.7.7,0,0,1-.76.69m1.7-.09a1.72,1.72,0,0,1-.38.47,1.26,1.26,0,0,1-.53.33l-.11-.09a2,2,0,0,1,.42-.58,2.06,2.06,0,0,1,.43-.42Zm6.29,16.16a2.94,2.94,0,0,0,.53-.43l.35,0c.27,0,.42.06.46.12l-.93.45a.58.58,0,0,1-.41-.17m-.25,12-.35,0c-.07,0-.11-.14-.12-.34s.19-.46.62-.59a2,2,0,0,1,1-.1l.06.09a6.16,6.16,0,0,1-1.2.92m21.64-34.41.19-.21.35,0c.24,0,.37.06.41.13s-.18.11-.44.12a.79.79,0,0,1-.51-.07m.19,1.59a7.57,7.57,0,0,1,1,0l.1.09c.08.17,0,.26-.38.27s-.56,0-.66-.16Zm-21,21.51a1.7,1.7,0,0,1,1.19-.33l0,.1c-.45.2-.75.33-.87.4s-.33-.08-.37-.17m8.75-3.72.11.15a11.72,11.72,0,0,1-1.4.88,1.82,1.82,0,0,1,.47-.53,2,2,0,0,1,.82-.5M68.73,156a.93.93,0,0,1-.49.23,4.05,4.05,0,0,1-.59-.72c0-.14.14-.21.34-.22l.63.56ZM69,155a2.79,2.79,0,0,1-.86-.1c.16-.11.22-.21.18-.31s.35,0,1,.14l0,.15Zm-1.3,33.83a.59.59,0,0,1-.13.31q-.13.25-1,.21c-.18.24-.29.2-.31-.14s.43-.47,1.32-.52Zm0,1.86.12.29c-.12.21-.25.31-.38.32l-1.07-.24c-.06.18-.09.09-.11-.24s.14-.38.47-.43a1.39,1.39,0,0,1,1,.3m-25.14-6.81c-1,.59-1.51.89-1.55.89q-.3,0-.3,0l0-.05a1.77,1.77,0,0,1,1.7-.95Zm-.17-1.24a.71.71,0,0,1-.25,0,1.07,1.07,0,0,1-.58.31,1,1,0,0,1-.4,0l-.21-.19a1.49,1.49,0,0,1,1.52-.44l-.26.29Z"/></g></g></svg>