<svg xmlns="http://www.w3.org/2000/svg" xmlns:xlink="http://www.w3.org/1999/xlink" viewBox="0 0 300 300"><defs><style>.cls-1{fill:none;}.cls-2{fill:#7680a5;}.cls-2,.cls-3,.cls-6,.cls-8{fill-rule:evenodd;}.cls-3{fill:#ededef;}.cls-4{opacity:0.25;}.cls-5{clip-path:url(#clip-path);}.cls-6{fill:#fff;}.cls-7{clip-path:url(#clip-path-2);}.cls-8{fill:#8e9abc;}.cls-9{opacity:0.5;}.cls-10{clip-path:url(#clip-path-3);}</style><clipPath id="clip-path"><rect class="cls-1" x="141.25" y="135.18" width="50.55" height="67.48"/></clipPath><clipPath id="clip-path-2"><path class="cls-1" d="M157.2,138.15q-7.74,3.21-15.95,6.92,1.65,5.82,6,21.23,3.56,12.55,6.9,18.7a28,28,0,0,0,11.5,11.9q7.8,4.15,20.8,4.15a9.81,9.81,0,0,1,5.33,1.6A10.39,10.39,0,0,1,194,197.3c.47-.63,2.1-2.47,4.9-5.5q7.15-7.65,7.15-15.7,0-8.7-5.55-23.65a176.57,176.57,0,0,0-11.93-25.38,255.12,255.12,0,0,0-31.37,11.08"/></clipPath><clipPath id="clip-path-3"><rect class="cls-1" x="158.01" y="125.1" width="35.78" height="80.2"/></clipPath></defs><title>Plan de travail 28</title><g id="objet02"><path class="cls-2" d="M200.5,152.45q5.55,15,5.55,23.65,0,8.06-7.15,15.7c-2.8,3-4.43,4.87-4.9,5.5a10.5,10.5,0,0,0-2.23,5.35,9.76,9.76,0,0,0-5.32-1.6q-13,0-20.8-4.15a28,28,0,0,1-11.5-11.9q-3.35-6.15-6.9-18.7-4.35-15.42-6-21.22,8.22-3.74,15.95-6.93a253.15,253.15,0,0,1,31.37-11.07,176,176,0,0,1,11.93,25.37"/><path class="cls-3" d="M194.35,155.55q4.4,11.25,4.6,17.75.11,6-5.1,11.8-3.1,3.45-3.6,4.15a7.66,7.66,0,0,0-1.55,4,7.62,7.62,0,0,0-4-1.2q-9.79,0-15.75-3.1a22,22,0,0,1-8.85-8.95A77.28,77.28,0,0,1,154.5,166Q151,154.4,149.6,150q6.15-2.81,12-5.2a180.15,180.15,0,0,1,23.35-8.3,147.71,147.71,0,0,1,9.45,19.05"/><g class="cls-4"><g class="cls-5"><path class="cls-6" d="M179.9,170.3q6.91,16.68,11.9,32.35h0a9.81,9.81,0,0,0-5.33-1.6q-13,0-20.8-4.15a28,28,0,0,1-11.5-11.9q-3.35-6.15-6.9-18.7-4.35-15.42-6-21.23,8.22-3.72,15.95-6.92c2.55-1.05,5-2.05,7.38-3q9.18,20.37,15.32,35.12"/></g></g><g class="cls-7"><path class="cls-8" d="M180,130.45a1.37,1.37,0,0,1-1,.65l-.55-.45q0-.56,1.05-1.35c.67-.57,1-.5,1,.2a1.62,1.62,0,0,1-.45.95m14,21.25a.87.87,0,0,1-.35.65,1.36,1.36,0,0,1-.9.35,1.28,1.28,0,0,1-.8-.4c-.23-.2-.35-.33-.35-.4q0-1,1.2-.75c.8.17,1.2.35,1.2.55m-3.9-.3-.3-.05a.47.47,0,0,1-.1-.35.52.52,0,0,1,.4-.5c.07,0,.17.22.3.55a1,1,0,0,1-.3.35m.8-.35a1.73,1.73,0,0,1,.7-.45q.19.5-.6,1.5l-.4-.6q0-.15.3-.45m6.1-5.7a4.62,4.62,0,0,1-.45,1.15,3.86,3.86,0,0,1-.55.95c-.3-.27-.45-.45-.45-.55a3.68,3.68,0,0,1,.45-1,2.84,2.84,0,0,1,.7-1l.2.1c.07,0,.1.13.1.3m-2.55,0c0-.23.2-.47.6-.7a.67.67,0,0,1,.3.6v.25a1,1,0,0,1-.7.2.48.48,0,0,1-.15-.1.42.42,0,0,1-.05-.25m-16-12.85a.54.54,0,0,1,0-.3c0-.07.13-.23.4-.5a3.91,3.91,0,0,1,.5-.4l.45.55c0,.2-.25.47-.75.8l-.45-.15Zm-.8,31.05c0-.33.4-.6,1.2-.8h.1a.54.54,0,0,1,.05.3q0,.6-1.05.9l-.25-.1a.54.54,0,0,1,0-.3m4.4.7,0,.5v.1l-.3.05a.77.77,0,0,1-.3-.6c0-.37.1-.58.3-.65a.65.65,0,0,1,.35.6M179.8,163a1.74,1.74,0,0,1,.3.7,1.19,1.19,0,0,1-.1.45.43.43,0,0,1-.3.15,1,1,0,0,1-.35-.6.77.77,0,0,1,.45-.7m-15,17.1.1.1c-.23.37-.48.53-.75.5l-.45-.15v-.15a1,1,0,0,0,.4-.5c.1-.1.33,0,.7.2m38.3-9.65c-.63.77-1.12,1.17-1.45,1.2.17-.27.93-1.17,2.3-2.7.07.27-.22.77-.85,1.5m-3.05,1.15a.67.67,0,0,1,.45-.55,3.88,3.88,0,0,0-.05.75.55.55,0,0,1-.6.45,1.59,1.59,0,0,0,.2-.65m2.5-2.2c-.37.77-.65,1.37-.85,1.8a3.56,3.56,0,0,1-1.05,1.35,6.12,6.12,0,0,0,.9-1.65,3.86,3.86,0,0,1,1-1.5m5.4-3.6q-1,1.63-5.7,5.65.94-.87,2.85-2.85a38.18,38.18,0,0,1,2.85-2.8M156.9,143a36.71,36.71,0,0,1-7.4-6h.15q.3.26,3.6,2.8a45.22,45.22,0,0,1,3.65,3.05ZM152.6,140a42.43,42.43,0,0,1,5.3,4.95l-.1.1a139.85,139.85,0,0,1-11.15-9.15,38.62,38.62,0,0,1,5.95,4.1m-2.95,14.45a1.54,1.54,0,0,1,.65-.55.87.87,0,0,1,.15.35,1.72,1.72,0,0,1-.75,1.45c-.23-.27-.35-.45-.35-.55a1.24,1.24,0,0,1,.3-.7m1.95.45a10.24,10.24,0,0,1-.9,1.4.63.63,0,0,1-.3-.55,2.41,2.41,0,0,1,.15-.85.59.59,0,0,1,.9-.35c.07.07.12.1.15.1Zm.3,2.35a1.2,1.2,0,0,1-.45-.9.81.81,0,0,1,.45-.75,11.5,11.5,0,0,0,.45,1.35q0,.15-.45.3m.75,15.9a8.35,8.35,0,0,0-.45.95.52.52,0,0,1-.5.35l-.4-.1-.1-.3a1.33,1.33,0,0,1,1.3-1.1Zm.6,1.85a1.05,1.05,0,0,1-.1.35l-.35.2-.3-.05c-.07,0-.1-.13-.1-.3,0-.4.15-.63.45-.7s.4.1.4.5m.45,1.85q0-.15.3-.15a.83.83,0,0,1,.3.5l-.3.3a1.78,1.78,0,0,1-.3-.65M201.1,186a.88.88,0,0,0-.35.4.46.46,0,0,1-.5.2c0,.07-.05,0-.05-.25s.25-.37.75-.6Zm.35.95c0,.5-.32.78-.95.85a.52.52,0,0,1-.4-.5c0-.17.35-.43,1.05-.8a.43.43,0,0,1,.3.45m-.65,1.45c-.07.07-.1,0-.1-.25s.17-.22.5-.35a1.42,1.42,0,0,1,1-.15c-.37.53-.68.8-1,.8Zm-10.15,7.8v.25c0,.37-.22.55-.65.55l-.3-.05c.17-.5.43-.75.8-.75q.1,0,.15,0m-24-15.4a.92.92,0,0,1,.05.35c0,.23-.18.48-.55.75a1.84,1.84,0,0,1-.75.4.42.42,0,0,1-.25-.05c-.07,0-.1-.12-.1-.25s.2-.42.6-.75a5.06,5.06,0,0,1,.75-.5l.25.05m-1.25.15c0,.33-.27.57-.8.7l-.3-.25a1.35,1.35,0,0,1,.4-.5,2,2,0,0,0,.4-.4.43.43,0,0,1,.3.45m5.05,23.4A40.16,40.16,0,0,0,175,193.2h.15a20.16,20.16,0,0,1-4.5,11.3.13.13,0,0,1-.15-.15m.45-5.55a1.5,1.5,0,0,1,.5-.2c0,.5-.25.75-.65.75-.1.13-.15.07-.15-.2,0-.1.1-.22.3-.35m-.85,3.55c.4-.53,1-1.37,1.65-2.5a10,10,0,0,1,1.75-2c-.6,1-1.07,1.77-1.4,2.3a8.94,8.94,0,0,1-1.9,2.25Z"/><g class="cls-9"><g class="cls-10"><path class="cls-6" d="M192.05,128.4c0,.23-.44-.59-1.4-2.47.1.19.22.39.35.62a9.19,9.19,0,0,1,1.05,1.85m-1.85-3.3a36.29,36.29,0,0,1,3.45,10.7,15.84,15.84,0,0,1-1.15,8.4,6.7,6.7,0,0,1-5.65,4.3,9.77,9.77,0,0,0-6.1,2.4q-2.2,2.06-1.45,6.45a61.15,61.15,0,0,0,2.95,10.3,48.42,48.42,0,0,1,2.4,7.95,5.48,5.48,0,0,1-1,3.5,9.56,9.56,0,0,1-2.4,3,28.14,28.14,0,0,1-6.5,2.5q-5.2,1.5-6.75,3.65t-1.9,6.8a43.76,43.76,0,0,0,0,7.6,3.27,3.27,0,0,1-.25,1.2,1.77,1.77,0,0,0,.2,1.5,22.9,22.9,0,0,1-3.65-3.55,6.74,6.74,0,0,1-.25-1.05,3.73,3.73,0,0,1-1.25-1.2.94.94,0,0,1-.55.25c-.63.1-1.12-.48-1.45-1.75s-.35-1.92-.35-1.95a58.13,58.13,0,0,1-.6-9.5,8.82,8.82,0,0,1,1.7-4.85A4.81,4.81,0,0,1,163,180q9.85-2.1,12.15-8.35,1-2.9-.35-8.45Q169.9,144,178,144.1c1.13-.2,2.75-.53,4.85-1q6.94-1.5,7.65-6.25a42.42,42.42,0,0,0,0-10.25c-.07-.5-.15-1-.25-1.5Z"/></g></g></g></g></svg>