<svg xmlns="http://www.w3.org/2000/svg" viewBox="0 0 300 300"><defs><style>.cls-1{fill:#5a94bf;}.cls-1,.cls-2,.cls-3{fill-rule:evenodd;}.cls-2{fill:#ce9f1b;}.cls-3{fill:#f4bf19;}</style></defs><title>Plan de travail 55</title><g id="objet05"><path class="cls-1" d="M128,178.48a2.43,2.43,0,0,1,0-.41c0-.59.3-.85.79-.78a.72.72,0,0,1,.71.82c0,.58-.33.85-.86.82a.61.61,0,0,1-.62-.45m1.68-.46a.47.47,0,0,1,.26-.14l4.51.74a25.86,25.86,0,0,1,1.28-3.74c.57-1.11,1.1-1.31,1.6-.6.18,2.27.26,4,.23,5.08,3,1.09,4.42,1.94,4.33,2.53-.19.39-1.71.7-4.54.93,1,2.13,1.48,3.65,1.42,4.58,0,.75-.3,1.12-.77,1.09s-1.15-.76-2.27-2.21l-1.56-2.21c-3.25,1.24-4.94,1.61-5.08,1.13v-.1c0-.41.5-1.07,1.43-2,.49-.48,1.15-1.09,2-1.84a16.7,16.7,0,0,0-1.81-1.4c-.77-.56-1.14-1-1.11-1.46a.59.59,0,0,1,.12-.4m7.43-4.29a.8.8,0,0,1-.77-.46.77.77,0,0,1-.08-.42q0-.72,1-.66c.57,0,.84.29.81.77s-.35.81-1,.77m5,8.87a.72.72,0,0,1-.07-.41c0-.48.35-.77,1-.87s.84.2.8.82a1,1,0,0,1-.28.55.89.89,0,0,1-.72.37.73.73,0,0,1-.68-.46m-4.19,7.07c0-.52.35-.75.94-.72s.79.31.75.82-.3.86-.8.83a.85.85,0,0,1-.77-.46.91.91,0,0,1-.12-.47m-10.35-3.58-.07-.47c0-.65.3-.91.8-.77a.78.78,0,0,1,.69.91c0,.59-.3.86-.8.83a.66.66,0,0,1-.62-.5"/><path class="cls-2" d="M127.94,177.81c0-.23,0-.37,0-.4,0-.57.31-.82.8-.75s.73.32.7.79-.31.83-.85.8a.62.62,0,0,1-.62-.44m1.68-.45a.53.53,0,0,1,.26-.13l4.51.73a23.17,23.17,0,0,1,1.28-3.63c.56-1.08,1.09-1.27,1.59-.58.18,2.21.26,3.85.24,4.93,3,1.07,4.42,1.89,4.34,2.47-.2.37-1.71.67-4.54.9,1,2.06,1.48,3.54,1.42,4.44,0,.73-.3,1.09-.76,1.06s-1.16-.74-2.27-2.15l-1.57-2.15c-3.25,1.19-4.94,1.56-5.08,1.09v-.1c0-.4.5-1,1.43-1.92.49-.47,1.15-1.06,2-1.78a16.79,16.79,0,0,0-1.82-1.36c-.77-.55-1.14-1-1.11-1.42a.61.61,0,0,1,.12-.4m7.42-4.15a.78.78,0,0,1-.77-.45.68.68,0,0,1-.08-.4c0-.47.36-.68,1-.64s.84.28.81.75-.35.78-1,.74m5,8.63a.72.72,0,0,1-.08-.41q0-.69,1-.84c.57-.06.84.2.8.8a1.11,1.11,0,0,1-.28.54.87.87,0,0,1-.73.35.71.71,0,0,1-.67-.44m-4.18,6.85c0-.49.34-.72.94-.69s.79.3.75.8-.3.83-.8.8a.9.9,0,0,1-.89-.91m-10.36-3.49-.07-.46c0-.63.31-.88.8-.75a.78.78,0,0,1,.7.9c0,.56-.31.83-.81.8a.68.68,0,0,1-.62-.49"/><path class="cls-3" d="M127.76,177.4c0-.23,0-.37,0-.4,0-.56.3-.82.8-.75a.69.69,0,0,1,.7.79c0,.57-.32.84-.85.8a.63.63,0,0,1-.63-.44m1.69-.44a.5.5,0,0,1,.25-.14l4.52.73a23.58,23.58,0,0,1,1.27-3.63c.57-1.08,1.1-1.27,1.59-.58.19,2.21.27,3.85.25,4.93,3,1.07,4.42,1.89,4.33,2.47-.19.37-1.7.67-4.54.9a10.54,10.54,0,0,1,1.43,4.44c-.05.74-.3,1.09-.77,1.06s-1.15-.74-2.27-2.15l-1.57-2.15q-4.86,1.8-5.08,1.09v-.1c0-.4.5-1,1.42-1.91.5-.47,1.15-1.07,2-1.78a14.47,14.47,0,0,0-1.81-1.37c-.77-.55-1.14-1-1.12-1.42a.55.55,0,0,1,.13-.39m7.42-4.15a.84.84,0,0,1-.78-.45A.74.74,0,0,1,136,172c0-.47.36-.68,1-.64s.83.29.8.75-.35.78-.94.75m5,8.62a.7.7,0,0,1-.07-.4c0-.47.35-.75,1-.85s.84.21.8.8a1,1,0,0,1-.28.54.85.85,0,0,1-.72.35.71.71,0,0,1-.68-.44m-4.18,6.86c0-.5.35-.73.95-.7s.78.3.75.8-.3.84-.8.8a.88.88,0,0,1-.78-.44,1,1,0,0,1-.12-.46m-10.35-3.5-.07-.45c0-.64.3-.89.79-.76a.78.78,0,0,1,.7.9c0,.56-.3.83-.8.8a.67.67,0,0,1-.62-.49"/></g></svg>