<?xml version="1.0" encoding="utf-8"?>
<!-- Generator: Adobe Illustrator 24.0.1, SVG Export Plug-In . SVG Version: 6.00 Build 0)  -->
<svg version="1.1" id="Calque_1" xmlns="http://www.w3.org/2000/svg" xmlns:xlink="http://www.w3.org/1999/xlink" x="0px" y="0px"
	 viewBox="0 0 150 150" style="enable-background:new 0 0 150 150;" xml:space="preserve">
<style type="text/css">
	.st0{fill:#FF4E5E;}
	.st1{fill:#B0B0B0;}
	.st2{fill:#D6D6D6;}
	.st3{opacity:0.5;fill:#696969;enable-background:new    ;}
	.st4{fill:#404040;}
	.st5{opacity:0.5;fill:#B0B0B0;enable-background:new    ;}
	.st6{opacity:0.5;fill:#545454;enable-background:new    ;}
	.st7{opacity:0.5;}
	.st8{fill:#545454;}
	.st9{fill-rule:evenodd;clip-rule:evenodd;fill:#BEC7E4;}
	.st10{fill-rule:evenodd;clip-rule:evenodd;fill:#E09E28;}
	.st11{fill-rule:evenodd;clip-rule:evenodd;fill:#C18442;}
	.st12{clip-path:url(#SVGID_2_);}
	.st13{fill-rule:evenodd;clip-rule:evenodd;fill:#935C25;}
	.st14{opacity:0.5;fill-rule:evenodd;clip-rule:evenodd;fill:#935C25;}
	.st15{fill-rule:evenodd;clip-rule:evenodd;fill:#F7D239;}
	.st16{fill-rule:evenodd;clip-rule:evenodd;fill:#FF6666;}
	.st17{fill-rule:evenodd;clip-rule:evenodd;fill:#966318;}
	.st18{fill-rule:evenodd;clip-rule:evenodd;fill:#A5692D;}
	.st19{clip-path:url(#SVGID_4_);fill-rule:evenodd;clip-rule:evenodd;fill:#935C25;}
	.st20{fill-rule:evenodd;clip-rule:evenodd;fill:#C4831C;}
	.st21{fill-rule:evenodd;clip-rule:evenodd;fill:#FFE164;}
	.st22{opacity:0.5;fill-rule:evenodd;clip-rule:evenodd;fill:#E09E28;}
	.st23{fill-rule:evenodd;clip-rule:evenodd;fill:#FFFFFF;}
	.st24{opacity:0.5;fill-rule:evenodd;clip-rule:evenodd;fill:#FFFFFF;}
	.st25{fill-rule:evenodd;clip-rule:evenodd;fill:#89622E;}
	.st26{fill-rule:evenodd;clip-rule:evenodd;fill:#B6853C;}
	.st27{clip-path:url(#SVGID_6_);}
	.st28{clip-path:url(#SVGID_8_);fill-rule:evenodd;clip-rule:evenodd;fill:#935C25;}
	.st29{opacity:0.5;fill:#E09E28;}
	.st30{clip-path:url(#SVGID_10_);}
	.st31{fill-rule:evenodd;clip-rule:evenodd;fill:#D7A354;}
	.st32{fill-rule:evenodd;clip-rule:evenodd;fill:#EED37C;}
	.st33{fill-rule:evenodd;clip-rule:evenodd;fill:#C99444;}
	.st34{opacity:0.5;fill:#C4831C;}
	.st35{clip-path:url(#SVGID_12_);fill-rule:evenodd;clip-rule:evenodd;fill:#D7A354;}
	.st36{clip-path:url(#SVGID_14_);}
	.st37{clip-path:url(#SVGID_16_);}
	.st38{fill-rule:evenodd;clip-rule:evenodd;fill:#F3C93C;}
	.st39{fill-rule:evenodd;clip-rule:evenodd;fill:#FCD961;}
	.st40{clip-path:url(#SVGID_18_);}
	.st41{fill-rule:evenodd;clip-rule:evenodd;fill:#FFE9A1;}
	.st42{fill-rule:evenodd;clip-rule:evenodd;fill:#E9AB35;}
	.st43{clip-path:url(#SVGID_20_);}
	.st44{clip-path:url(#SVGID_22_);}
	.st45{clip-path:url(#SVGID_24_);}
	.st46{fill:#ABB8DB;}
	.st47{fill:#E5D2C6;}
	.st48{fill:#BCADA2;}
	.st49{fill:#9FAD6C;}
	.st50{fill:#CAD8A4;}
	.st51{fill:url(#SVGID_25_);}
	.st52{opacity:0.5;clip-path:url(#SVGID_27_);}
	.st53{fill:#66AFCF;}
	.st54{opacity:0.5;clip-path:url(#SVGID_27_);fill:#9FAD6C;}
	.st55{fill:#D9C7BB;}
	.st56{fill-rule:evenodd;clip-rule:evenodd;fill:#9FAD6C;}
	.st57{fill:#333333;}
	.st58{fill:#FFFFFF;}
	.st59{fill:#E4EAEF;}
	.st60{fill:#F8B334;}
	.st61{clip-path:url(#SVGID_29_);}
	.st62{fill:#BEC7E4;}
	.st63{fill:#D8D2CE;}
	
		.st64{fill:none;stroke:#CFD9F3;stroke-width:0.8412;stroke-linecap:round;stroke-linejoin:round;stroke-miterlimit:3.9999;stroke-opacity:0.2;}
	
		.st65{fill:none;stroke:#FF4E5E;stroke-width:0.7628;stroke-linecap:round;stroke-linejoin:round;stroke-miterlimit:3.9999;stroke-opacity:0.2;}
	.st66{fill:none;stroke:#CFD9F3;stroke-width:0.3814;stroke-linecap:round;stroke-linejoin:round;stroke-opacity:0.2;}
	.st67{fill:none;stroke:#FF4E5E;stroke-width:0.7628;stroke-linecap:round;stroke-linejoin:round;stroke-opacity:0.2;}
	.st68{fill:#333333;fill-opacity:0.2;}
	.st69{fill:#FFC261;}
</style>
<path class="st0" d="M120.6,123.5c4.8,0,8.7-3.9,8.7-8.6c0-4.8-3.9-8.7-8.6-8.7l-1.4,0c-4.8,0-8.7-3.9-8.6-8.7
	c0-4.8,3.9-8.7,8.7-8.6l7.9,0c4.8,0,8.7-3.9,8.7-8.6c0-4.8-3.9-8.7-8.6-8.7l-14.8-0.1c-4.8,0-8.7-3.9-8.6-8.7c0-4.8,3.9-8.7,8.7-8.6
	l5.6,0c4.8,0,8.7-3.9,8.7-8.6c0-4.8-3.9-8.7-8.6-8.7l-77.8-0.4c-4.8,0-8.7,3.9-8.7,8.6c0,4.8,3.9,8.7,8.6,8.7l5.2,0
	c4.8,0,8.7,3.9,8.6,8.7c0,4.8-3.9,8.7-8.7,8.6l-28.8-0.1c-4.8,0-8.7,3.9-8.7,8.6c0,4.8,3.9,8.7,8.6,8.7l6.6,0c4.8,0,8.7,3.9,8.6,8.7
	c0,4.8-2.9,8.7-6.5,8.6c-3.6,0-6.5,3.9-6.5,8.6c0,4.8,3.9,8.7,8.6,8.7L120.6,123.5L120.6,123.5z"/>
<g>
	<path class="st1" d="M-629.4,123.5c4.8,0,8.7-3.9,8.7-8.6c0-4.8-3.9-8.7-8.6-8.7l-1.4,0c-4.8,0-8.7-3.9-8.6-8.7
		c0-4.8,3.9-8.7,8.7-8.6l7.9,0c4.8,0,8.7-3.9,8.7-8.6c0-4.8-3.9-8.7-8.6-8.7l-14.8-0.1c-4.8,0-8.7-3.9-8.6-8.7
		c0-4.8,3.9-8.7,8.7-8.6l5.6,0c4.8,0,8.7-3.9,8.7-8.6c0-4.8-3.9-8.7-8.6-8.7l-77.8-0.4c-4.8,0-8.7,3.9-8.7,8.6
		c0,4.8,3.9,8.7,8.6,8.7l5.2,0c4.8,0,8.7,3.9,8.6,8.7c0,4.8-3.9,8.7-8.7,8.6l-28.8-0.1c-4.8,0-8.7,3.9-8.7,8.6
		c0,4.8,3.9,8.7,8.6,8.7l6.6,0c4.8,0,8.7,3.9,8.6,8.7c0,4.8-2.9,8.7-6.5,8.6c-3.6,0-6.5,3.9-6.5,8.6c0,4.8,3.9,8.7,8.6,8.7
		L-629.4,123.5L-629.4,123.5z"/>
	<g>
		<path class="st2" d="M-694.1,64.4c0,0-7.5-14-7.2-17.4c0.3-3.3-0.2-16.7,21.4-19.6c21.6-2.9,23.4,2.2,25.2,5
			c1.8,2.7,7.5,14.9,5.3,32.2l-7.9-0.3c0,0,5-24.9-19.9-24.1c-24.9,0.8-5.6,26.4-5.6,26.4L-694.1,64.4z"/>
		<path class="st3" d="M-657,61.9c2.4-0.7,6.3-1.9,8-2.5c0-1.1,0.1-2.2,0-3.3c-1.2,0-4.2-0.1-5.9,0.5c0,0,2.3-3.6,0.9-3.6
			c-1.4,0-1.9,1.2-1.9,1.2s0-3.9-0.9-3.9c-1,0-0.7,0.9-0.7,0.9s-2.9-8.4-8.2-8.9C-656.9,46.8-656.6,57.1-657,61.9z"/>
		<path class="st3" d="M-687.8,58.1c-1.3,0.3-2.8,0.6-3.5,1c0,0,1.1-2.8-0.7-2c-1.9,0.8-3.4,1.9-3.4,1.9s2.5-5,0.6-4.3
			c-2,0.7-2.5,1.5-2.5,1.5s-2.8-7.4-2.5-5.2c0.1,0.6,0.5,2,1,3.7c2.1,4.7,4.8,9.8,4.8,9.8l10.2,2c0.3,0,0.5,0,0.8-0.1
			C-683.7,65.4-686,62-687.8,58.1z"/>
		<path class="st2" d="M-708.1,64.2c0,0,6.2,30.1,7.1,38.6c0.9,8.5,1.1,16.1,1.1,16.1l67.8-6.4c0,0-2.9-33.1-7-55
			c0,0-56.5,4.6-63.5,4.9L-708.1,64.2z"/>
		<path class="st3" d="M-699.9,118.9c0,0-0.3-7.6-1.1-16.1c-0.9-8.5-7.1-38.6-7.1-38.6l5.5-1.8c0,0,5.7,32.1,6.3,38.7
			c0.6,6.6,1.4,17.4,1.4,17.4L-699.9,118.9z"/>
		<path class="st4" d="M-668.2,73.7c-4.5,0.3-9.8,2.8-9.4,7.6c0.3,4.7,2.1,8.2,7.2,8.5c0,0-2,9.4-2,11.2l14.5-1.9c0,0-3-8-5.6-10.7
			c4.7-2,5.5-4.5,4.4-9C-660.2,74.9-663.3,73.4-668.2,73.7z"/>
		<path class="st5" d="M-661.9,79.3c1.1,4.7,0.3,7.4-4.4,9.4c2.2,2.5,4.7,9,5.4,10.8l2.9-0.4c0,0-3-8-5.6-10.7c4.7-2,5.5-4.5,4.4-9
			c-1-4.1-3.5-5.7-7.6-5.7C-664.3,74.4-662.6,76.1-661.9,79.3z"/>
		<path class="st6" d="M-701.1,83.5c0.2-0.8,0.7-1.4,1.6-1.8c0.3,0.1,0.5,0.2,0.6,0.5c-0.1,0.2-0.4,0.5-0.7,1
			c-0.4,0.4-0.7,0.6-1,0.6C-700.7,83.7-700.9,83.7-701.1,83.5z M-637.7,88.5c0,0.2-0.1,0.3-0.3,0.3c-0.6-0.5-1.4-1.4-2.3-2.9
			c0.5-0.1,1.1,0.3,1.7,1.1C-638,87.6-637.8,88.1-637.7,88.5z M-639.8,88c0,0.9,0.4,1.8,1.3,2.5c0,0.2,0,0.3-0.1,0.3
			c0,0.1-0.1,0.1-0.4,0.1c-0.7,0-1.2-0.4-1.4-1.1c-0.1-0.9-0.3-1.5-0.4-1.7C-640.7,87.9-640.4,87.9-639.8,88z M-695.9,82.6
			c0.1,0,0.1,0.1,0.1,0.3c0,0.3-0.2,0.6-0.5,0.7c-0.5,0.1-0.8,0.2-1,0.3l-0.6-0.4c-1,1.5-1.6,2.4-1.8,2.5c-0.2-0.1-0.3-0.2-0.3-0.3
			c-0.1-0.1-0.2-0.3-0.2-0.5c0-0.3,0.3-0.8,1-1.5c0.6-0.6,1-1,1.1-1c0.1,0.2,0.1,0.3,0.2,0.4c0.5-0.7,1.1-0.9,1.9-0.6L-695.9,82.6z
			 M-697.9,87.4c-0.5-0.5-0.8-0.8-0.8-0.9c0-0.3,0.2-0.8,0.6-1.4c0.4-0.6,0.7-0.9,1-0.9l0.3,0.8c0,0.4-0.2,1-0.5,1.9L-697.9,87.4z
			 M-655.4,105.1c0,0.2-0.1,0.3-0.2,0.5c0.1,0.2-0.1,0.3-0.5,0.3c-0.5,0-0.8-0.2-1.1-0.7c-0.5,1.3-1.1,2-1.7,2l-0.5-0.2
			c-0.2-0.5-0.3-1.3-0.2-2.4l-0.1-0.3c-0.5,0.5-0.9,0.9-1.2,1.2c-0.6,0.5-1.1,0.7-1.7,0.6c-0.3,0.2-0.4,0.1-0.4-0.3
			c0-0.3,0.6-0.9,1.7-1.8c1-0.8,1.8-1.3,2.3-1.6c0,0.7-0.1,1.2-0.3,1.4l0,2.3c1-0.4,1.7-1.7,2-3.8c0.6,0.1,1.2,0.5,1.6,1.3
			C-655.6,104.2-655.4,104.7-655.4,105.1z M-666.6,107.4c-0.3,0.2-0.5,0.1-0.5-0.3c0-0.5,0.3-1,0.8-1.6c0.2,0.3,0.3,0.8,0.3,1.6
			C-666.3,107.3-666.5,107.4-666.6,107.4z"/>
		<g class="st7">
			<path class="st8" d="M-696.1,42.7c-0.6-1.3,0.2-2.8,2.4-4.4c0.2,1.3-0.4,2.9-1.8,4.8C-695.4,43.7-695.6,43.6-696.1,42.7z
				 M-683.4,35.3l0-0.9c0.4-0.2,0.8-0.2,1.3,0l-0.6,1L-683.4,35.3z M-688.9,38.7c0.3,0.6-0.1,1.3-1.1,2.3c0,0.6-0.2,0.4-0.7-0.5
				l0.1-1.1c0.2-0.8,0.5-1.3,1-1.6C-689.5,38-689.3,38.3-688.9,38.7z M-656.5,72.2c-0.6,0.4-1.4,1.2-2.3,2.4l0,0.1
				c0.1,0.2-0.1,1.6-0.6,4.4c-0.5,0-0.8-0.2-0.9-0.6c-0.2-0.5-0.2-1.2,0.1-2.1c0,0,0-0.1,0-0.1c-0.4,0.5-0.8,0.8-1.1,1l-0.1-0.3
				c0.4-0.5,1-1.4,1.7-2.6c0.8-1.1,1.8-1.8,3-2.2L-656.5,72.2z M-662.5,77.4c0.1-0.3,0.3-0.9,0.6-1.9c0.4-0.9,0.8-1.5,1-1.6l0.4,0.3
				c-0.5,0.4-0.9,1-1.1,1.8C-662,76.9-662.2,77.3-662.5,77.4z M-652.7,49.2l-0.7-0.5c0.1-0.2,0.4-0.6,1-0.9l0.6,0.9L-652.7,49.2z
				 M-658.4,45.5l-0.1-0.8c0.9,0.2,1.5,0.4,1.7,0.5l-0.1,0.6L-658.4,45.5z"/>
		</g>
	</g>
</g>
<g>
	<path class="st0" d="M-379.4,123.5c4.8,0,8.7-3.9,8.7-8.6c0-4.8-3.9-8.7-8.6-8.7l-1.4,0c-4.8,0-8.7-3.9-8.6-8.7
		c0-4.8,3.9-8.7,8.7-8.6l7.9,0c4.8,0,8.7-3.9,8.7-8.6c0-4.8-3.9-8.7-8.6-8.7l-14.8-0.1c-4.8,0-8.7-3.9-8.6-8.7
		c0-4.8,3.9-8.7,8.7-8.6l5.6,0c4.8,0,8.7-3.9,8.7-8.6c0-4.8-3.9-8.7-8.6-8.7l-77.8-0.4c-4.8,0-8.7,3.9-8.7,8.6
		c0,4.8,3.9,8.7,8.6,8.7l5.2,0c4.8,0,8.7,3.9,8.6,8.7c0,4.8-3.9,8.7-8.7,8.6l-28.8-0.1c-4.8,0-8.7,3.9-8.7,8.6
		c0,4.8,3.9,8.7,8.6,8.7l6.6,0c4.8,0,8.7,3.9,8.6,8.7c0,4.8-2.9,8.7-6.5,8.6c-3.6,0-6.5,3.9-6.5,8.6c0,4.8,3.9,8.7,8.6,8.7
		L-379.4,123.5L-379.4,123.5z"/>
	<g>
		<path class="st9" d="M-463.2,107.4c-1.1,0-8.8,3.1-6.9,4.2c1.9,1,67.4,16.5,76.7,17c9.4,0.5,47.6-11.9,33.4-14.7
			C-374.2,111.1-433.6,107.4-463.2,107.4z"/>
		<g>
			<path class="st9" d="M-416.1,125.3c0-0.4,1-0.8,2.9-1.1c1.9-0.3,3.5-0.1,4.8,0.6c0.3,0.1,0.5,0.3,0.6,0.4
				c0.1,0.2,0.2,0.4,0.2,0.6c0,0.2-0.1,0.4-0.4,0.5c-0.8,0.5-1.7,0.8-2.7,0.9c-1.1,0.1-2.2,0-3.5-0.3c-0.7-0.2-1.2-0.4-1.5-0.7
				C-416,125.8-416.1,125.5-416.1,125.3z"/>
		</g>
		<g>
			<path class="st9" d="M-427.9,124.6c0-0.4,1-0.8,2.9-1.1c1.9-0.3,3.5-0.1,4.8,0.6c0.3,0.1,0.5,0.3,0.6,0.4
				c0.1,0.2,0.2,0.4,0.2,0.6c0,0.2-0.1,0.4-0.4,0.5c-0.8,0.5-1.7,0.8-2.7,0.9c-1.1,0.1-2.2,0-3.5-0.3c-0.7-0.2-1.2-0.4-1.5-0.7
				C-427.7,125.1-427.9,124.9-427.9,124.6z"/>
		</g>
		<g>
			<path class="st9" d="M-412.1,126.4c0-0.4,1-0.8,2.9-1.1c1.9-0.3,3.5-0.1,4.8,0.6c0.3,0.1,0.5,0.3,0.6,0.4
				c0.1,0.2,0.2,0.4,0.2,0.6c0,0.2-0.1,0.4-0.4,0.5c-0.8,0.5-1.7,0.8-2.7,0.9c-1.1,0.1-2.2,0-3.5-0.3c-0.7-0.2-1.2-0.4-1.5-0.7
				C-412,126.9-412.1,126.7-412.1,126.4z"/>
		</g>
		<g>
			<path class="st9" d="M-380.6,126.1c0-0.4,1-0.8,2.9-1.1c1.9-0.3,3.5-0.1,4.8,0.6c0.3,0.1,0.5,0.3,0.6,0.4
				c0.1,0.2,0.2,0.4,0.2,0.6c0,0.2-0.1,0.4-0.4,0.5c-0.8,0.5-1.7,0.8-2.7,0.9c-1.1,0.1-2.2,0-3.5-0.3c-0.7-0.2-1.2-0.4-1.5-0.7
				C-380.5,126.6-380.6,126.3-380.6,126.1z"/>
		</g>
		<g>
			<g>
				<g>
					<g>
						<path class="st10" d="M-435.4,40.4l-2-0.2c1.3-1.2,2.7-2.9,4.2-5.2c1.9-2.9,3-4.6,3.4-5.1c0,0,0-0.1,0.1-0.1
							c1.3-1.5,2.6-2.3,4-2.3l0.5,0c0.9,0.1,1.7,0.7,2.5,1.6c0.4,0.5,0.7,1,0.9,1.5c-1.7-0.1-2.6-0.2-2.8-0.2
							c-1.4,0-2.4,0.2-2.9,0.6c-0.5,0.4-1.4,1.5-2.5,3.5C-431.1,36.6-432.9,38.5-435.4,40.4z"/>
						<path class="st11" d="M-421.8,30.7l36.7,2.3h0l-1.2,1c-0.7,0.7-1.2,1.4-1.5,2.3c-1.4,3.4-3.6,5.8-6.5,7.4l-41.1-3.2
							c2.5-1.9,4.3-3.8,5.5-5.8c1.1-2,1.9-3.1,2.5-3.5c0.5-0.4,1.5-0.6,2.9-0.6C-424.4,30.6-423.4,30.6-421.8,30.7z"/>
						<g>
							<defs>
								<path id="SVGID_1_" d="M-421.8,30.7l36.7,2.3h0l-1.2,1c-0.7,0.7-1.2,1.4-1.5,2.3c-1.4,3.4-3.6,5.8-6.5,7.4l-41.1-3.2
									c2.5-1.9,4.3-3.8,5.5-5.8c1.1-2,1.9-3.1,2.5-3.5c0.5-0.4,1.5-0.6,2.9-0.6C-424.4,30.6-423.4,30.6-421.8,30.7z"/>
							</defs>
							<clipPath id="SVGID_2_">
								<use xlink:href="#SVGID_1_"  style="overflow:visible;"/>
							</clipPath>
							<g class="st12">
								<path class="st13" d="M-385.1,37.8c0.5-0.1-34.3-1.9-38.6-1.9C-423.7,35.9-390.8,38.8-385.1,37.8z"/>
								<path class="st14" d="M-419.1,30.3c0,0-4.5-1-7.5,1.9c-2.9,2.9-3,6.7-8.4,9.2l-3.9-0.3C-438.9,41.1-430.3,26.7-419.1,30.3z"
									/>
								<path class="st13" d="M-417.9,42.1c0,0-1.4-1.4-3.3-1.4C-421.2,40.7-418.5,39.8-417.9,42.1z"/>
							</g>
						</g>
						<path class="st15" d="M-387,50.1l-72.6-5.7v0c3.9-1.2,7.1-2.5,9.5-4.1c2.5-1.6,4.6-3.5,6.3-5.9c1.7-2.4,3.2-4.2,4.5-5.3
							c1.3-1.2,3.2-1.9,5.8-2l7.8,0.6c-1.4,0-2.7,0.8-4,2.3c0,0,0,0-0.1,0.1c-0.4,0.5-1.5,2.2-3.4,5.1c-1.5,2.3-2.9,4-4.2,5.2l2,0.2
							l41.1,3.2c2.9-1.6,5.1-4,6.5-7.4c0.3-0.9,0.8-1.6,1.5-2.3l1.2-1h0c1-0.7,2.1-1.2,3.5-1.6l12.5,0.5c-2.6,0-4.8,0.9-6.4,2.7
							c-0.1,0.1-0.2,0.2-0.3,0.3c-0.9,1.1-1.9,3.1-3,5.9c-1.1,2.8-2.2,4.9-3.3,6.2c-1.1,1.3-2.7,2.2-4.7,2.9
							C-386.9,50-387,50-387,50.1z"/>
						<path class="st10" d="M-360.1,63.3l-27.4-10.6l0.6-2.7l0-0.1c2-0.7,3.6-1.6,4.7-2.9c1.1-1.3,2.2-3.3,3.3-6.2
							c1.1-2.8,2.1-4.8,3-5.9c0.1-0.1,0.2-0.2,0.3-0.3c1.6-1.8,3.8-2.7,6.4-2.7l0.8,0.1c2.5,0.4,4.3,1.1,5.3,2.3
							c1,1.1,1.8,2.3,2.3,3.4c0.5,1.1,0.8,2.9,0.8,5.4c0,1.2-0.4,3-1.1,5.6c-0.8,2.5-1.1,4.8-1.1,6.7c0,0,0,0.1,0,0.1
							c0,0.9,0.5,2,1.3,3.3c0.4,0.7,0.9,1.4,1.5,2L-360.1,63.3z"/>
						<path class="st16" d="M-369.7,39.3c-1,0.2-1.7,0.8-2.2,1.6c-0.3,0.5-0.7,1.8-1.2,4c-0.5,2-1.1,3.5-1.9,4.6
							c-0.1,0.2-0.2,0.3-0.4,0.4l8,3.3l1.8,0.7c0-0.1,0-0.2,0-0.3c0-1.2,0.3-2.7,0.9-4.3c0.6-1.7,0.9-3.3,0.9-4.9
							c0-1.2-0.5-2.4-1.6-3.5c-1.1-1.2-2.1-1.8-3.1-1.8C-369.1,39.2-369.4,39.2-369.7,39.3z"/>
						<path class="st17" d="M-431.1,49.1c-0.1,1.2-0.2,2-0.2,2.1c0,1.7,0.2,3.2,0.5,4.4h0l-29.2-8.9L-431.1,49.1z"/>
						<path class="st18" d="M-367.5,53.2l-8-3.3c0.1-0.1,0.2-0.3,0.4-0.4c0.8-1.1,1.4-2.6,1.9-4.6c0.5-2.2,0.9-3.5,1.2-4
							c0.5-0.9,1.2-1.4,2.2-1.6c0.8,0.2,1.6,0.8,2.4,1.7c1.1,1.2,1.6,2.4,1.6,3.5c0,1.6-0.3,3.2-0.9,4.9
							C-367.1,50.8-367.4,52.1-367.5,53.2z"/>
						<g>
							<defs>
								<path id="SVGID_3_" d="M-367.5,53.2l-8-3.3c0.1-0.1,0.2-0.3,0.4-0.4c0.8-1.1,1.4-2.6,1.9-4.6c0.5-2.2,0.9-3.5,1.2-4
									c0.5-0.9,1.2-1.4,2.2-1.6c0.8,0.2,1.6,0.8,2.4,1.7c1.1,1.2,1.6,2.4,1.6,3.5c0,1.6-0.3,3.2-0.9,4.9
									C-367.1,50.8-367.4,52.1-367.5,53.2z"/>
							</defs>
							<clipPath id="SVGID_4_">
								<use xlink:href="#SVGID_3_"  style="overflow:visible;"/>
							</clipPath>
							<path class="st19" d="M-375.5,43.7l11.3,4.9l-0.9-1.3c0,0-5.9-1.9-9-4L-375.5,43.7z"/>
						</g>
						<path class="st20" d="M-367.5,53.2c0.1-1.1,0.4-2.4,0.9-3.9c0.6-1.7,0.9-3.3,0.9-4.9c0-1.2-0.5-2.4-1.6-3.5
							c-0.8-0.9-1.6-1.5-2.4-1.7c0.3-0.1,0.7-0.1,1-0.1c1,0,2.1,0.6,3.1,1.8c1.1,1.2,1.6,2.4,1.6,3.5c0,1.6-0.3,3.2-0.9,4.9
							c-0.6,1.7-0.9,3.1-0.9,4.3c0,0.1,0,0.2,0,0.3L-367.5,53.2z"/>
						<polygon class="st21" points="-387.5,52.7 -431.1,49.1 -460,46.7 -459.7,44.3 -387,50.1 -386.8,50.1 						"/>
						<path class="st13" d="M-360.1,63.3L-360.1,63.3l-70.7-7.7c-0.3-1.2-0.5-2.7-0.5-4.4c0-0.2,0.1-0.9,0.2-2.1l43.6,3.6
							L-360.1,63.3z"/>
					</g>
				</g>
				<path class="st22" d="M-396.9,45.9c-2.8,0.8-4.4,1.8-6.1,2.9l16,1.3c0.1,0,0.2-0.1,0.2-0.1c2-0.7,3.6-1.6,4.7-2.9
					c0.8-1,1.7-2.4,2.5-4.2C-385.1,47.5-390.6,44.1-396.9,45.9z"/>
				<g class="st7">
					<path class="st23" d="M-419.1,45.3c7,0.7,10.9-0.8,14-2.5l-30.3-2.4l-2-0.2c1.3-1.2,2.7-2.9,4.2-5.2c0.1-0.2,0.2-0.3,0.3-0.5
						c-1.6-0.8-3.1-1.5-4.3-2.2c-1.2-0.7-2.9-0.8-4.7-0.7c-0.6,0.8-1.3,1.6-2,2.6c-1.7,2.4-3.9,4.3-6.3,5.9
						c-2.5,1.6-5.7,2.9-9.5,4.1v0l8.6,0.7C-438.7,40.3-432.5,43.9-419.1,45.3z"/>
					<path class="st23" d="M-387.9,36.4c-0.7,1.6-1.6,3-2.6,4.2c6.4,0.8,10.6-1.9,14-4.6c0.2-0.4,0.5-0.7,0.7-1
						c0.1-0.1,0.2-0.2,0.3-0.3c1.6-1.8,3.8-2.7,6.4-2.7l-5.6-0.2c-2.2,0.7-4.4,1.7-6.3,3C-383.6,36.5-385.5,36.6-387.9,36.4z"/>
				</g>
				<path class="st24" d="M-459.7,44.3l72.6,5.7C-387,50.1-452.3,46.4-459.7,44.3z"/>
			</g>
			<g>
				<g>
					<g>
						<g>
							<polygon class="st18" points="-360.6,64.7 -430.8,56.4 -430.9,56.4 -430.9,55.6 -360.2,63.3 							"/>
							<polygon class="st10" points="-430.9,56.4 -470.6,61.5 -471.2,60.2 -430.9,55.6 							"/>
							<path class="st25" d="M-430.9,56.4L-430.9,56.4l0,0.1L-430.9,56.4z M-430.8,56.4l70.3,8.3l-5.3,17.9l-63.9,6.5L-430.8,56.4z"
								/>
							<polygon class="st25" points="-470.6,61.5 -430.9,56.4 -430.8,56.5 -430.8,56.4 -429.8,89.1 -460.9,82 							"/>
							<g>
								<path class="st26" d="M-426.2,58.2c0,0.1,0.4,0.6,1.3,1.6c0.2,0.3,0.4,0.5,0.5,0.7c0.5-0.7,1.2-1.2,1.9-1.5
									c0.5-0.2,1.6-0.9,3.4-2c0.5-0.3,1-0.6,1.3-0.8c-0.3-0.2-0.6-0.4-0.8-0.5c-1.1-0.5-1.7-0.8-1.9-0.8c-0.3-0.2-0.4-0.4-0.4-0.8
									c0.1-0.1,0.3-0.4,0.6-0.6c0.3,0,0.7,0.1,1,0.1c1.4,0.1,3,0.2,5,0.2c0.5,0,0.9,0,1.3-0.1c0.6,0.2,0.9,0.4,0.9,0.7
									c0,0.3-0.6,0.8-1.7,1.6c-0.5,0.3-0.8,0.6-1.2,0.8c0.3,0.4,0.6,1,0.9,1.6c0.4,1,0.7,2,0.8,2.8c0.1-0.1,0.2-0.2,0.4-0.3
									c0.5-0.5,1.4-0.9,2.9-1.1c0.8-0.1,2.2-0.3,4.1-0.5c-0.6-0.4-1.1-0.9-1.5-1.4c-0.4-0.5-0.6-1-0.6-1.5c0-0.6,0.4-0.9,1.2-0.8
									c0.4,0,1.4,0.2,3,0.7c0.4,0.1,1.9,0.1,4.6,0.2c1.5,0,2.3,0.3,2.3,0.9c0,0.2-0.4,0.7-1.3,1.5c-0.2,0.2-0.5,0.5-0.8,0.7
									c-0.8,0.6-1.4,1.1-1.8,1.5c-0.4,0.3-0.6,0.4-0.8,0.5c0.1,0.2,0.2,0.6,0.3,1.2c0.1,0.3,0.1,0.5,0.2,0.7
									c0.9-0.4,1.6-0.6,2.1-0.9c-0.5-0.3-0.8-0.5-0.9-0.6c-0.1-0.1-0.2-0.3-0.2-0.6c0-0.4,0.4-0.7,1.3-1.1
									c0.8-0.4,1.7-0.7,2.8-0.9c1.1-0.2,2.1-0.3,2.8-0.3c0.9,0.1,1.3,0.3,1.3,0.7c0,0,0,0.1,0,0.2c0.1-0.1,0.2-0.3,0.4-0.4
									c0.3-0.2,0.7-0.4,1.2-0.5c3.6,0.8,5.9,1.1,6.7,1c0.8-0.1,1.2,0.1,1.2,0.6c0,0.2-0.2,0.6-0.7,1.2c-0.4,0.5-0.7,0.9-1,1.2
									c0.6,0.3,1.4,0.8,2.4,1.5c0.2,0.2,0.4,0.3,0.5,0.4c0.2-0.3,0.5-0.7,0.9-1.2c0.9-1,1.5-1.7,1.9-1.8c0.4-0.2,0.8-0.5,1.3-1
									c-0.3,0.1-1,0-2.1-0.3c-1.1-0.3-1.7-0.6-1.7-0.7c0-0.2,0-0.3,0-0.3c0.1-0.1,0.2-0.2,0.5-0.2c0.1,0,0.2,0,0.4,0
									c1.6-0.5,2.5-0.9,2.8-1.2c0.3-0.4,0.8-0.7,1.6-1c0.8-0.3,1.5-0.5,2.3-0.5c0.9,0,1.3,0.2,1.3,0.7c-0.3,0.9-0.6,1.6-0.9,2.1
									c0.5,0.1,0.8,0.4,0.8,0.8c0,0.3-0.1,0.7-0.3,1.4c-0.2,0.6-0.3,1-0.3,1.2c0,0.1,0,0.1,0.1,0.3c0.8,0.8,1.3,1.6,1.5,2.1
									c-1.4,0.3-3.1,0.8-5,1.3c-5.1,1.4-7.9,2.1-8.3,2.2c-2,0.2-3.9,0.5-5.8,0.8c-1.6,0.3-3.5,0.5-5.7,0.7h-3.1
									c-1.4-0.2-2.2-0.3-2.4-0.4c-0.8-0.3-1.3-0.8-1.4-1.7c-0.1,0-0.1,0-0.2-0.1c-10.3-1.6-17.9-2.8-22.9-3.5c0,0,0-0.1,0-0.1
									c0-0.7,0-1.1,0-1.4c0-0.2,0-0.3,0.1-0.5c-0.2-0.3-0.5-0.7-0.8-1.2c-0.8-1.3-1.2-1.9-1.4-1.9c-0.1,0-0.2,0-0.4,0.1
									c-0.2,0.1-0.3,0.1-0.4,0.1c-0.3,0-0.7-0.2-1.3-0.6c-0.6-0.4-0.8-0.8-0.8-1c0-0.6,0.3-1.2,0.9-1.8c0.6-0.6,1.2-1.1,2-1.4
									c0.8-0.4,1.4-0.5,1.9-0.3c0.6,0.2,0.9,0.8,0.9,1.7C-425.8,56.6-425.9,57.2-426.2,58.2z M-441.1,52.9c0,0.4-0.1,1.1-0.2,2.2
									c3.4,0.6,5.7,1.7,6.9,3.5c0,0.1,0.1,0.3,0.1,0.4c0.1,0.5,0.1,1.1,0,1.7c0,0.9,0,1.5-0.1,1.8c-0.2,1-0.5,1.6-1.1,1.8h-4.3
									c-3-0.6-4.7-0.9-5.1-1.1c-0.8-0.3-1.3-0.7-1.5-1.2c0.5-0.9,1.2-2.3,2.1-4.2c0.1-0.1,0.1-0.2,0.2-0.3c0,0,0,0,0,0
									c-1.4,0.6-2.6,0.9-3.7,0.9c-0.8,0-1.3-0.1-1.5-0.3c-0.1-0.1-0.1-0.3-0.1-0.6c0-0.5,0.4-1.3,1.3-2.5c0.9-1.2,1.8-2.1,2.8-3
									c1.2-1,2.1-1.4,2.8-1.4C-441.6,50.6-441.1,51.4-441.1,52.9z M-392.1,61.3c-0.1-0.1-0.1-0.3-0.2-0.5
									c-0.1,0.2-0.1,0.4-0.2,0.6c-0.3,0.6-0.6,1.1-1,1.4c0.6,0.3,1.2,0.7,1.7,1.2c0,0,0,0,0.1,0.1c0.3-0.2,0.7-0.4,1.2-0.5
									c0.2-0.1,0.3-0.1,0.5-0.2c-0.5-0.3-0.8-0.7-1.1-1.1C-391.8,61.8-392.1,61.4-392.1,61.3z"/>
							</g>
						</g>
					</g>
					<g>
						<g>
							<path class="st15" d="M-471.2,60.2c5,0.6,10,1.1,15.1,1.8c8.7,1,17.3,2.1,25.6,3.3c10.4,1.4,20.5,2.9,30.2,4.4
								c1.6,0.2,3.1,0.5,4.6,0.7v56c-0.1,0-0.2,0-0.3-0.1c-14.9-3.4-30.4-6.7-46.5-10c-10.2-2.1-18.6-3.8-25.2-5.3
								c-0.1-1.1-0.1-2.3-0.2-3.4c-0.5-11.4-0.7-17.7-0.8-19C-469.1,78.9-470,69.4-471.2,60.2z"/>
							<path class="st10" d="M-360.2,63.3c-5.4,1-10.7,2.1-15.9,3.1c-6.1,1.2-11.5,2.3-16.3,3.3c-1.2,0.2-2.3,0.5-3.4,0.7
								c-1.5-0.2-3.1-0.5-4.6-0.7c-9.7-1.5-19.8-3-30.2-4.4c-8.3-1.1-16.9-2.2-25.6-3.3c-5.1-0.6-10.1-1.2-15.1-1.8l4-0.5
								c24,2.6,47.7,5.8,70.9,9.4l32.5-6.2L-360.2,63.3z"/>
							<path class="st10" d="M-395.7,70.4c1.1-0.2,2.2-0.5,3.4-0.7c4.7-1,10.2-2.1,16.3-3.3c5.2-1,10.5-2.1,15.9-3.1
								c-0.3,5.7-0.6,13.5-0.8,23.2c-0.2,9.9-0.4,19.2-0.5,27.8c-2.6,0.9-21.5,6.6-34.3,12h0V70.4z"/>
						</g>
					</g>
					<g>
						<g>
							<polygon class="st20" points="-387.1,108.5 -371.1,104.3 -369.8,75.3 -368.4,75 -369.4,105.6 -387.1,110.7 							"/>
							<polygon class="st18" points="-387.1,108.5 -386.5,78.6 -369.8,75.3 -371.1,104.3 							"/>
							<g>
								<defs>
									<polygon id="SVGID_5_" points="-387.1,108.5 -386.5,78.6 -369.8,75.3 -371.1,104.3 									"/>
								</defs>
								<clipPath id="SVGID_6_">
									<use xlink:href="#SVGID_5_"  style="overflow:visible;"/>
								</clipPath>
								<g class="st27">
									<path class="st13" d="M-390.6,89.7c0,0,11.7-3.5,14.9-4.5l-3,1.7c0,0,9.7-1.4,11.9-1.9l-0.6,0.9c0,0-16.6,2.2-22.3,3.9
										L-390.6,89.7z"/>
									<path class="st13" d="M-391.6,101.5c0,0,19.5-4.3,23.7-5.8l-0.9-0.4c0,0-19.9,5.3-22.5,5.3L-391.6,101.5z"/>
								</g>
							</g>
						</g>
					</g>
					<g>
						<g>
							<path class="st11" d="M-429.7,82.7c1.7-0.3,3-0.8,3.6-1.4c0.7-0.6,1.1-2.4,1.3-5.4l20.3,2.2l-0.4,29.3l-52.4-8.6l-1.5-26.4
								l17.1,1.8c0,0.5-0.1,1.1-0.1,1.7c0,2.9,0.6,4.8,1.9,5.8c1.2,0.9,2.8,1.5,5,1.5c2.2,0.1,4-0.1,5.4-0.4L-429.7,82.7
								L-429.7,82.7z"/>
							<path class="st14" d="M-424.8,75.9l20.3,2.2l0,2l-18.4-2.6l-0.4,3.5c0,0-1.8,3.5-6.5,3.3c-4.7-0.1-5.2-1.1-5.2-1.1
								c2.2,0.1,4-0.1,5.4-0.4h-0.2l0,0c1.7-0.3,3-0.8,3.6-1.4C-425.4,80.7-425,78.9-424.8,75.9z M-456.8,74.4l14.9,1.4c0,0,0,0,0,0
								c0-0.6,0.1-1.2,0.1-1.7l-17.1-1.8l1.5,26.4l2.1,0.3L-456.8,74.4z"/>
							<g>
								<defs>
									<path id="SVGID_7_" d="M-429.7,82.7c1.7-0.3,3-0.8,3.6-1.4c0.7-0.6,1.1-2.4,1.3-5.4l20.3,2.2l-0.4,29.3l-52.4-8.6
										l-1.5-26.4l17.1,1.8c0,0.5-0.1,1.1-0.1,1.7c0,2.9,0.6,4.8,1.9,5.8c1.2,0.9,2.8,1.5,5,1.5c2.2,0.1,4-0.1,5.4-0.4
										L-429.7,82.7L-429.7,82.7z"/>
								</defs>
								<clipPath id="SVGID_8_">
									<use xlink:href="#SVGID_7_"  style="overflow:visible;"/>
								</clipPath>
								<path class="st28" d="M-412,88.1c-13.2-1.8-34.6-4.8-40.3-6.3c0,0,17.6,2.2,25.1,3.2c7.5,1,19.1,2.7,19.1,2.7
									s-6.7-1.4-9.3-2.5c0,0,10.4,2,13.8,3.2c3.4,1.2,2.5,1.1,2.5,1.1S-405.7,89-412,88.1"/>
								<path class="st28" d="M-403.2,97.7l-54.9-7.9l-0.3,0.8c0,0,7.3,0.9,12.3,1.7c5,0.8,34.7,4.7,38.5,5.2
									C-403.7,98-403.2,97.7-403.2,97.7z"/>
								<path class="st28" d="M-454.1,101.7c0,0,13.2-1.4,16.1-1.3C-438,100.4-446.7,102.6-454.1,101.7z"/>
								<path class="st28" d="M-408.4,108.3c0,0-3.6-4.3-9.6-3.2L-408.4,108.3z"/>
							</g>
							<path class="st10" d="M-424.8,75.9c-0.2,2.9-0.6,4.7-1.3,5.4c-0.7,0.6-1.9,1.1-3.6,1.4c0.3-0.1,0.6-0.3,0.8-0.5
								c1.2-1,1.8-3.1,1.8-6.6L-424.8,75.9z M-458.8,72.3l1.5,26.4l52.4,8.6l0,1.8l-54.1-9.3l-1.8-27.8L-458.8,72.3z"/>
						</g>
					</g>
				</g>
				<g class="st7">
					<path class="st23" d="M-463.2,90.5c1.2,0.1,2.5,0.1,3.7,0.2l-0.8-12.6c-3.1-0.6-6.1-0.8-8.9,0.3c0.3,3.4,0.5,6.8,0.7,10.3
						c0,0.4,0.1,1.4,0.1,2.9C-467,90.8-465.3,90.4-463.2,90.5z"/>
					<path class="st23" d="M-440,81.7c1.2,0.9,2.8,1.5,5,1.5c0.1,0,0.2,0,0.4,0c2.3-2.8,4.8-4.1,7.3-4.9c0.1-0.8,0.2-1.6,0.2-2.6
						l2.3,0.2l5.6,0.6c3.3-0.9,6.2-2.8,7.9-8.5c-1-0.1-1.9-0.3-2.9-0.4c-0.7,2.8-2.7,7-8.5,7c-8.1,0-13.2,0.3-18.5,5.5
						C-440.8,80.8-440.5,81.3-440,81.7z"/>
				</g>
				<g>
					<path class="st10" d="M-433.9,71.7c-1.7-0.7-3.3,1.7-2.7,2.8c0.6,1.1,2.2,1.7,3.3,0.6C-432.3,74.1-432.4,72.3-433.9,71.7z"/>
					<polygon class="st10" points="-435.2,74.6 -436,78.5 -433.8,79 -433.2,78.7 -434.5,74.6 					"/>
					<path class="st17" d="M-433.5,71.7c-1.8-0.7-3.1,1.7-2.4,2.8c0.7,1.1,2.4,1.6,3.4,0.6C-431.6,74-431.9,72.3-433.5,71.7z"/>
					<polygon class="st17" points="-434.6,74.8 -435.4,78.3 -433.2,78.7 -433.9,74.7 					"/>
				</g>
				<g class="st7">
					<path class="st10" d="M-423.1,108.9c4,0.3,7.3-0.2,10.1-1.1l-23.1-4c-5.1,2.8-9.4,8.1-11.7,11.4c1.7,0.4,3.5,0.7,5.4,1.1
						c2.1,0.4,4.1,0.9,6.2,1.3C-435,112.6-431.6,108.3-423.1,108.9z"/>
					<path class="st10" d="M-395.7,85.1c-1.4,0.5-3.2,1.9-5.4,5.1c-0.9,1.2-2.1,2.4-3.6,3.4l-0.1,9.3c4-3.9,5.5-8.5,6.4-9.8
						c0.7-1,1.8-1,2.7-0.6V85.1z"/>
				</g>
			</g>
			<g>
				<path class="st24" d="M-386.8,49.2c-2.2-0.1-3.1,2.7-0.8,2.7C-385.3,51.9-384,49.3-386.8,49.2z"/>
				<path class="st24" d="M-388.6,49.2c-1.5-0.1-2.1,1.8-0.5,1.8S-386.7,49.2-388.6,49.2z"/>
				<path class="st24" d="M-436,26.8c-2.1,0.5-2.3,3.4-0.1,2.8C-433.9,29-433.3,26.2-436,26.8z"/>
				<path class="st24" d="M-437.8,27.2c-1.4,0.3-1.5,2.3,0,1.9C-436.3,28.7-435.9,26.8-437.8,27.2z"/>
				<path class="st24" d="M-469,61.6c-2.6,1.2-1.9,5,0.7,3.6C-465.6,63.8-465.6,60.1-469,61.6z"/>
				<path class="st24" d="M-471.1,62.6c-1.7,0.8-1.3,3.3,0.5,2.4C-468.8,64.1-468.8,61.6-471.1,62.6z"/>
				<path class="st24" d="M-440.3,77.1c-2.6,1.2-1.9,5,0.7,3.6C-436.9,79.3-437,75.6-440.3,77.1z"/>
				<path class="st24" d="M-442.4,78.1c-1.7,0.8-1.3,3.3,0.5,2.4C-440.1,79.6-440.2,77-442.4,78.1z"/>
			</g>
			<g>
				<g>
					<path class="st29" d="M-455.9,62c0,0-0.2,5,1.3,5.1c1.5,0.1,2.2-4.9,2.2-4.9L-455.9,62z"/>
					<g>
						<defs>
							<path id="SVGID_9_" d="M-467.3,59.8c24,2.6,47.7,5.8,70.9,9.4l32.5-6.2l-34-27.9l-65.2,10.9L-467.3,59.8z"/>
						</defs>
						<clipPath id="SVGID_10_">
							<use xlink:href="#SVGID_9_"  style="overflow:visible;"/>
						</clipPath>
						<g class="st30">
							<path class="st31" d="M-444.5,62.9l-3,0l-0.4-0.1h-6.4c0.3-0.6,1.1-1.4,2.2-2.6c1.6-1.6,2.4-2.5,2.6-2.5
								c1.2-0.1,2.4,0.7,3.6,2.3C-445.1,61.1-444.6,62.1-444.5,62.9z"/>
						</g>
					</g>
					<g>
						<path class="st32" d="M-448.4,58.5c0,0.3-0.2,0.7-0.7,1.2c-0.5,0.6-1.1,0.9-1.7,0.9c-0.6,0-0.8-0.1-0.8-0.4c0-0.2,0.3-0.5,1-1
							c0.7-0.5,1.1-0.8,1.1-1c0.1-0.8,0.3-1,0.7-0.7C-448.5,57.7-448.4,58.1-448.4,58.5z"/>
					</g>
					<g>
						<path class="st31" d="M-454.2,54.9c1.4,0.4,2.5,0.9,3.5,1.5c1.1,0.6,1.6,1.1,1.7,1.3c0,0.3,0,0.6-0.2,0.9
							c-0.2,0.3-0.8,0.8-1.8,1.3c-0.6,0.9-1.2,1.6-1.8,2c-2.6,2.4-4.5,3.6-5.6,3.6c-0.6,0-1-0.1-1.2-0.3c-0.1-0.1-0.2-0.3-0.2-0.4
							c0-0.3,0.2-1,0.7-2.1c0.5-1.1,0.7-1.9,0.7-2.3c0-0.7-0.2-1.6-0.5-2.7c-0.3-1.2-0.5-1.9-0.5-2.1c0-0.7,0.5-1,1.6-1
							C-456.8,54.3-455.6,54.5-454.2,54.9z"/>
						<g>
							<path class="st33" d="M-457.6,56c0-0.1,0.1-0.1,0.2-0.1c0.7,0.6,1,2.3,1,5.1c0,0.3-0.1,0.9-0.4,1.5c-0.3,0.9-0.7,1.4-1.2,1.4
								c-0.2,0-0.3-0.1-0.4-0.2c0-0.1-0.1-0.2-0.1-0.2c0.2-0.5,0.4-1.1,0.6-1.7c0.4-1.1,0.6-2.3,0.6-3.4c0-0.5,0-0.8-0.1-1
								C-457.4,56.9-457.5,56.5-457.6,56z"/>
						</g>
					</g>
				</g>
				<g>
					<g>
						<path class="st34" d="M-393.2,68c0,0,0,0.9,1.3,1.3c0,0,0.3,2.2,1.2,3.2c0.9,1,0.9,9.4,1.7,7.9c0.8-1.4,1.2-8.4,1.2-8.4
							S-389.7,66.4-393.2,68z"/>
						<g>
							<defs>
								<path id="SVGID_11_" d="M-467.3,59.8c24,2.6,47.7,5.8,70.9,9.4l4.2-0.8l0.7,6.6l27.6-12l-34-27.9l-65.2,10.9L-467.3,59.8z"
									/>
							</defs>
							<clipPath id="SVGID_12_">
								<use xlink:href="#SVGID_11_"  style="overflow:visible;"/>
							</clipPath>
							<path class="st35" d="M-386.9,72.7c0,0-0.1,0-0.1,0.1c-0.1,0.1-0.2,0.1-0.3,0.2c-0.1,0-0.4-0.1-0.8-0.4
								c-0.5-0.3-1.3-1.4-2.5-3.3c-0.1,0-0.2,0-0.3,0c-0.4,0-0.8-0.1-1.1-0.3c-0.2,0.4-0.5,0.7-1.1,1c-0.8,0.5-1.8,0.7-2.9,0.7
								c-1,0-1.9-0.2-2.5-0.5c-0.5-0.3-0.8-0.5-0.8-0.8c0-0.2,0.3-0.9,0.9-1.9c0.3-0.5,0.6-1,0.9-1.5c0.3-0.5,1-1.1,2-1.7
								c1.1-0.6,2-1,2.8-1.1c2-0.2,3.7,0.6,4.9,2.3c0.9,1.3,1.3,3,1.2,5C-386.8,71.5-386.8,72.2-386.9,72.7z"/>
						</g>
						<g>
							<path class="st33" d="M-393.2,66.6c0.5,0.5,1,1.2,1.6,1.9c0,0,0-0.1-0.1-0.1c-0.3-1-0.4-1.5-0.4-1.5c0-0.1,0-0.3,0.1-0.5
								c0.5,0.4,1.1,1.5,1.7,3.2c0,0.2,0,0.2,0,0.2l-0.1,0.1c-0.1,0-0.1,0.1-0.2,0.1c-0.2,0-0.5-0.3-0.8-0.8c0,0-0.1,0-0.1,0
								c-0.4,0-0.8-0.4-1.3-1.1c-0.4-0.8-0.6-1.1-0.6-1.2c0-0.1,0-0.2,0-0.2c0,0,0,0,0,0C-393.3,66.7-393.2,66.7-393.2,66.6z"/>
						</g>
					</g>
					<g>
						<path class="st32" d="M-386.4,71.9c0,0.2,0,0.3-0.1,0.4c-0.1,0.2-0.3,0.2-0.7,0.1c-0.1,0.1-0.1,0.4-0.1,0.8
							c-0.1,0.4-0.3,0.5-0.6,0.5c-0.3,0-0.5-0.2-0.5-0.6c0-0.4,0-0.6,0-0.6c0-0.6,0.3-1,1-1.2C-386.7,71.2-386.4,71.4-386.4,71.9z"
							/>
					</g>
					<g>
						<path class="st31" d="M-385.6,71.7c0.6,0.2,1,0.4,1.3,0.8c0.3,0.3,0.4,0.8,0.4,1.4c0,0.6-0.2,1.3-0.5,1.9
							c-0.6,1.1-1,1.8-1.1,2.2c-0.1,0.2-0.2,0.9-0.3,2.2c0.2,1.6-0.2,1.9-1.1,1.2c-0.9-0.8-1.4-2.5-1.4-5c0-2.5,0.3-4,1-4.4
							C-386.8,71.6-386.1,71.5-385.6,71.7z"/>
						<g>
							<path class="st33" d="M-387.4,74.3c0-0.2,0.1-0.5,0.2-0.8c0.1-0.3,0.3-0.4,0.6-0.4l0.1,0.1c-0.2,0.3-0.4,0.6-0.4,1
								c-0.1,0.3-0.1,0.6-0.1,1.1c0,0.1,0,0.3,0.1,0.7c0,0.4,0.1,0.7,0.1,0.9c0,0.3,0.2,0.6,0.5,0.7c0.3,0.1,0.5,0.3,0.5,0.6
								c0,0.1-0.1,0.3-0.2,0.6c-0.1,0.2-0.2,0.4-0.2,0.5c-0.6-0.1-0.9-1-0.9-2.6c-0.1-0.9-0.1-1.4-0.1-1.5
								C-387.5,74.9-387.5,74.5-387.4,74.3z"/>
						</g>
					</g>
				</g>
				<g>
					<g>
						<defs>
							<path id="SVGID_13_" d="M-467.3,59.8c24,2.6,47.7,5.8,70.9,9.4l32.5-6.2l-34-27.9l-65.2,10.9L-467.3,59.8z"/>
						</defs>
						<clipPath id="SVGID_14_">
							<use xlink:href="#SVGID_13_"  style="overflow:visible;"/>
						</clipPath>
						<g class="st36">
							<path class="st31" d="M-435.3,59.9c1.7-2.4,3.4-3,5.1-1.8c1.6,1.1,3,2.2,4.2,3.5c1.3,1.5,2,2.7,2,3.7c0,0.1,0,0.1,0,0.2
								c-0.7,0-3.3-0.2-8-0.5c-2.4-0.1-4.3-0.3-5.6-0.3c0.2-0.5,0.4-1.1,0.7-1.9C-436.4,61.7-435.9,60.7-435.3,59.9z"/>
						</g>
					</g>
					<g>
						<path class="st32" d="M-430.1,57.5c0.2,0.1,0.3,0.4,0.3,0.9c0,0.4-0.3,0.9-1,1.4c-0.7,0.6-1.5,0.9-2.3,0.9
							c-0.5,0-0.8-0.1-1-0.3c-0.1-0.1-0.2-0.3-0.2-0.4c0-0.3,0.4-0.6,1.3-0.7c1-0.2,1.6-0.5,1.8-0.9
							C-430.8,57.6-430.4,57.3-430.1,57.5z"/>
					</g>
					<g>
						<path class="st31" d="M-430.2,54.6c0.2,0.7,0.4,1.3,0.4,1.7c0,0.8-0.1,1.4-0.2,1.7c-0.3,0.6-0.9,1.2-1.8,1.8
							c-0.3,0.2-1.3,0.6-2.8,1.2c-1.7,0.7-2.8,1-3.2,1c-0.3,0-0.5-0.1-0.7-0.4c-0.1-0.2-0.2-0.4-0.2-0.5c0-0.2,0.2-1.1,0.7-2.7
							c0.5-1.7,0.9-2.8,1.2-3.4c0.5-1,1.5-1.7,3.1-1.9c1.1-0.2,2-0.1,2.7,0.1C-430.8,53.3-430.5,53.8-430.2,54.6z"/>
						<g>
							<path class="st33" d="M-437,59.1c0.1-0.3,0.3-0.5,0.3-0.7c0.2,0,0.4,0,0.7,0c0.9,0,1.8-0.5,2.7-1.5c0.8-0.8,1.2-1.4,1.2-1.6
								c0-0.1-0.1-0.2-0.2-0.4c-0.2-0.2-0.3-0.4-0.4-0.5c0.5,0,0.9,0.2,1.1,0.4c0.1,0.1,0.2,0.4,0.2,0.7c0,0.6-0.6,1.4-1.9,2.7
								c-1.3,1.2-2.3,1.9-3.1,2c-0.8,0.1-1.1,0-0.9-0.4C-437.1,59.4-437,59.2-437,59.1L-437,59.1z"/>
						</g>
					</g>
				</g>
				<g>
					<g>
						<defs>
							<path id="SVGID_15_" d="M-467.3,59.8c24,2.6,47.7,5.8,70.9,9.4l32.5-6.2l-34-27.9l-65.2,10.9L-467.3,59.8z"/>
						</defs>
						<clipPath id="SVGID_16_">
							<use xlink:href="#SVGID_15_"  style="overflow:visible;"/>
						</clipPath>
						<g class="st37">
							<path class="st31" d="M-408.4,69.1c0-0.5-0.1-1.1-0.2-1.8c-0.2-1.1-0.4-2-0.7-2.9c-0.9-2.4-2.3-3.3-4-2.7
								c-1.6,0.5-3.1,1.2-4.4,2.1c-1.5,0.9-2.3,1.8-2.5,2.7c0,0.1,0,0.1,0,0.2c0.6,0.1,2.9,0.6,6.9,1.4
								C-411.2,68.6-409.6,68.9-408.4,69.1z"/>
						</g>
					</g>
					<g>
						<path class="st32" d="M-413.4,63c0,0.4,0.3,0.8,0.9,1.3c0.6,0.5,1.3,0.8,2,0.8c0.4,0,0.7-0.1,0.9-0.3c0.1-0.1,0.2-0.2,0.2-0.4
							c0-0.3-0.4-0.5-1.1-0.6c-0.9-0.2-1.4-0.4-1.6-0.8c-0.4-0.7-0.7-0.9-1-0.7C-413.3,62.4-413.4,62.6-413.4,63z"/>
					</g>
					<g>
						<path class="st31" d="M-413.3,61.1c0,0.7,0.1,1.2,0.2,1.5c0.2,0.6,0.8,1.1,1.6,1.6c0.3,0.2,1.1,0.5,2.5,1.1
							c1.5,0.6,2.5,0.9,2.9,0.9c0.3,0,0.5-0.1,0.6-0.4c0.1-0.2,0.1-0.3,0.1-0.4c0-0.2-0.2-1-0.6-2.4c-0.5-1.5-0.8-2.5-1-3
							c-0.4-0.9-1.3-1.5-2.7-1.7c-1-0.1-1.8-0.1-2.4,0.1c-0.3,0.1-0.5,0.5-0.8,1.3C-413.2,60.3-413.3,60.8-413.3,61.1z"/>
						<g>
							<path class="st33" d="M-407,63.6c-0.1-0.2-0.2-0.5-0.3-0.6c-0.1,0-0.3,0-0.6,0c-0.8,0-1.6-0.4-2.4-1.3
								c-0.7-0.7-1.1-1.2-1.1-1.4c0-0.1,0-0.2,0.1-0.3c0.1-0.2,0.3-0.3,0.4-0.4c-0.5,0-0.8,0.1-0.9,0.4c-0.1,0.1-0.1,0.3-0.1,0.6
								c0,0.5,0.6,1.3,1.7,2.4c1.1,1.1,2.1,1.7,2.8,1.8c0.7,0.1,1,0,0.8-0.4C-406.9,63.9-407,63.7-407,63.6L-407,63.6z"/>
						</g>
					</g>
				</g>
			</g>
		</g>
		<g>
			<g>
				<path class="st38" d="M-415.6,123.9l0-0.1c0.3,0.1,0.6,0,1-0.1c0.6-0.3,1.5-0.4,2.4-0.5c1,0,1.9,0.1,2.6,0.4
					c0.7,0.3,1.3,0.5,1.6,0.6l0,0.1c-0.1,0.2-0.1,0.6-0.1,1.2c-0.1,0.2-0.2,0.3-0.4,0.5c-0.4,0.4-1.2,0.7-2.3,0.9
					c-1.1,0.2-2.2,0.1-3.2-0.4c-0.9-0.4-1.5-0.9-1.6-1.5C-415.6,124.7-415.6,124.4-415.6,123.9z"/>
			</g>
			<g>
				<path class="st39" d="M-410.9,125.8c-1.1,0.2-2.2,0.1-3.2-0.4c-1-0.4-1.5-0.9-1.6-1.5c-0.1-0.5,0.3-0.9,1-1.3
					c0.6-0.3,1.5-0.4,2.4-0.5c1,0,1.8,0.1,2.6,0.4c0.8,0.3,1.3,0.7,1.5,1.1c0.2,0.4,0.1,0.8-0.4,1.2
					C-409,125.4-409.7,125.7-410.9,125.8z"/>
			</g>
			<g>
				<defs>
					<path id="SVGID_17_" d="M-410.9,125.8c-1.1,0.2-2.2,0.1-3.2-0.4c-1-0.4-1.5-0.9-1.6-1.5c-0.1-0.5,0.3-0.9,1-1.3
						c0.6-0.3,1.5-0.4,2.4-0.5c1,0,1.8,0.1,2.6,0.4c0.8,0.3,1.3,0.7,1.5,1.1c0.2,0.4,0.1,0.8-0.4,1.2
						C-409,125.4-409.7,125.7-410.9,125.8z"/>
				</defs>
				<clipPath id="SVGID_18_">
					<use xlink:href="#SVGID_17_"  style="overflow:visible;"/>
				</clipPath>
				<g class="st40">
					<path class="st41" d="M-415.8,124.2c0.2-0.1,0.3-0.1,0.5-0.2c0.1,0,0.3,0,0.6,0.1c0.3,0.1,0.6,0.1,0.8,0c0.3,0,0.5-0.2,0.6-0.5
						c0.1-0.1,0.1-0.3,0.1-0.3c0-0.1,0.1-0.2,0.2-0.3c0.2-0.2,0.5-0.4,0.9-0.4c0.1,0,0.4,0,0.7,0c0.4,0,0.6,0,0.8,0
						c0.5-0.1,0.9-0.3,1.3-0.6c0,0,0,0,0.1-0.1c0.1,0,0.1,0.1,0.1,0.1c0,0,0,0,0,0.1c0,0,0,0,0.1,0c0,0.2,0,0.4,0,0.5
						c-0.1,0.4-0.5,0.6-1,0.8l-0.7,0.1c-0.4,0-0.6,0.1-0.7,0.3c-0.1,0.1-0.1,0.3-0.1,0.5l0.1,0.4c0,0.1,0,0.3-0.1,0.4
						c-0.1,0.2-0.3,0.3-0.5,0.3l-0.5,0.1c-0.2,0-0.4-0.1-0.5-0.1c-0.3,0-0.7,0-1,0c-0.4,0.1-0.7,0.2-0.9,0.6l-0.2-0.3
						c-0.4-0.5-0.6-0.9-0.8-1.2C-416.1,124.4-416,124.3-415.8,124.2z"/>
				</g>
			</g>
			<g class="st7">
				<path class="st42" d="M-411.8,122.5c-0.4,0-0.8,0-1.3,0.2c-0.5,0.1-0.9,0.3-1.3,0.5c-0.3,0.2-0.5,0.4-0.4,0.6
					c0.1,0.2,0.2,0.4,0.3,0.6c-0.2,0-0.3-0.1-0.5-0.3c-0.1-0.2-0.2-0.4-0.2-0.6c0.1-0.3,0.4-0.5,1.1-0.8
					C-413.4,122.6-412.6,122.4-411.8,122.5L-411.8,122.5C-411.8,122.5-411.8,122.5-411.8,122.5z"/>
			</g>
			<g class="st7">
				<path class="st42" d="M-410.6,125.4c-0.5,0.1-0.8,0.1-1.1,0c1.4-0.2,2.3-0.5,2.8-0.9c0.1-0.1,0.2-0.2,0.3-0.3
					c0,0.2,0,0.3-0.1,0.5c-0.1,0.1-0.4,0.3-0.7,0.4C-409.8,125.2-410.2,125.3-410.6,125.4z"/>
			</g>
		</g>
		<g>
			<g>
				<path class="st38" d="M-427.4,123.2l0-0.1c0.3,0.1,0.6,0,1-0.1c0.6-0.3,1.5-0.4,2.4-0.5c1,0,1.9,0.1,2.6,0.4
					c0.7,0.3,1.3,0.5,1.6,0.6l0,0.1c-0.1,0.2-0.1,0.6-0.1,1.2c-0.1,0.2-0.2,0.3-0.4,0.5c-0.4,0.4-1.2,0.7-2.3,0.9
					c-1.1,0.2-2.2,0.1-3.2-0.4c-0.9-0.4-1.5-0.9-1.6-1.5C-427.4,124.1-427.4,123.8-427.4,123.2z"/>
			</g>
			<g>
				<path class="st39" d="M-422.6,125.2c-1.1,0.2-2.2,0.1-3.2-0.4c-1-0.4-1.5-0.9-1.6-1.5c-0.1-0.5,0.3-0.9,1-1.3
					c0.6-0.3,1.5-0.4,2.4-0.5c1,0,1.8,0.1,2.6,0.4c0.8,0.3,1.3,0.7,1.5,1.1c0.2,0.4,0.1,0.8-0.4,1.2
					C-420.8,124.7-421.5,125-422.6,125.2z"/>
			</g>
			<g>
				<defs>
					<path id="SVGID_19_" d="M-422.6,125.2c-1.1,0.2-2.2,0.1-3.2-0.4c-1-0.4-1.5-0.9-1.6-1.5c-0.1-0.5,0.3-0.9,1-1.3
						c0.6-0.3,1.5-0.4,2.4-0.5c1,0,1.8,0.1,2.6,0.4c0.8,0.3,1.3,0.7,1.5,1.1c0.2,0.4,0.1,0.8-0.4,1.2
						C-420.8,124.7-421.5,125-422.6,125.2z"/>
				</defs>
				<clipPath id="SVGID_20_">
					<use xlink:href="#SVGID_19_"  style="overflow:visible;"/>
				</clipPath>
				<g class="st43">
					<path class="st41" d="M-427.6,123.6c0.2-0.1,0.3-0.1,0.5-0.2c0.1,0,0.3,0,0.6,0.1c0.3,0.1,0.6,0.1,0.8,0c0.3,0,0.5-0.2,0.6-0.5
						c0.1-0.1,0.1-0.3,0.1-0.3c0-0.1,0.1-0.2,0.2-0.3c0.2-0.2,0.5-0.4,0.9-0.4c0.1,0,0.4,0,0.7,0c0.4,0,0.6,0,0.8,0
						c0.5-0.1,0.9-0.3,1.3-0.6c0,0,0,0,0.1-0.1c0.1,0,0.1,0.1,0.1,0.1c0,0,0,0,0,0.1c0,0,0,0,0.1,0c0,0.2,0,0.4,0,0.5
						c-0.1,0.4-0.5,0.6-1,0.8l-0.7,0.1c-0.4,0-0.6,0.1-0.7,0.3c-0.1,0.1-0.1,0.3-0.1,0.5l0.1,0.4c0,0.1,0,0.3-0.1,0.4
						c-0.1,0.2-0.3,0.3-0.5,0.3l-0.5,0.1c-0.2,0-0.4-0.1-0.5-0.1c-0.3,0-0.7,0-1,0c-0.4,0.1-0.7,0.2-0.9,0.6l-0.2-0.3
						c-0.4-0.5-0.6-0.9-0.8-1.2C-427.9,123.8-427.7,123.7-427.6,123.6z"/>
				</g>
			</g>
			<g class="st7">
				<path class="st42" d="M-423.6,121.9c-0.4,0-0.8,0-1.3,0.2c-0.5,0.1-0.9,0.3-1.3,0.5c-0.3,0.2-0.5,0.4-0.4,0.6
					c0.1,0.2,0.2,0.4,0.3,0.6c-0.2,0-0.3-0.1-0.5-0.3c-0.1-0.2-0.2-0.4-0.2-0.6c0.1-0.3,0.4-0.5,1.1-0.8
					C-425.2,121.9-424.4,121.8-423.6,121.9L-423.6,121.9C-423.6,121.9-423.6,121.9-423.6,121.9z"/>
			</g>
			<g class="st7">
				<path class="st42" d="M-422.4,124.7c-0.5,0.1-0.8,0.1-1.1,0c1.4-0.2,2.3-0.5,2.8-0.9c0.1-0.1,0.2-0.2,0.3-0.3
					c0,0.2,0,0.3-0.1,0.5c-0.1,0.1-0.4,0.3-0.7,0.4C-421.6,124.6-422,124.7-422.4,124.7z"/>
			</g>
		</g>
		<g>
			<g>
				<path class="st38" d="M-410.7,122.8l0-0.1c0.3,0.2,0.6,0.2,1,0.2c0.7,0,1.5,0.1,2.4,0.5c0.9,0.4,1.7,0.8,2.2,1.4
					c0.6,0.6,1,1,1.2,1.2l0,0c-0.1,0.2-0.3,0.5-0.5,1c-0.1,0.1-0.3,0.2-0.5,0.3c-0.6,0.2-1.4,0.2-2.5-0.1c-1.1-0.3-2-0.8-2.8-1.6
					c-0.7-0.7-1-1.4-0.9-2C-411,123.6-410.9,123.3-410.7,122.8z"/>
			</g>
			<g>
				<path class="st39" d="M-407.1,126.4c-1.1-0.3-2-0.8-2.8-1.6c-0.8-0.8-1.1-1.5-0.9-2c0.1-0.5,0.6-0.8,1.4-0.8
					c0.7,0,1.5,0.1,2.4,0.5c0.9,0.4,1.6,0.8,2.2,1.4c0.6,0.6,0.9,1.1,0.9,1.6c0,0.5-0.3,0.8-0.8,1
					C-405.2,126.7-406,126.7-407.1,126.4z"/>
			</g>
			<g>
				<defs>
					<path id="SVGID_21_" d="M-407.1,126.4c-1.1-0.3-2-0.8-2.8-1.6c-0.8-0.8-1.1-1.5-0.9-2c0.1-0.5,0.6-0.8,1.4-0.8
						c0.7,0,1.5,0.1,2.4,0.5c0.9,0.4,1.6,0.8,2.2,1.4c0.6,0.6,0.9,1.1,0.9,1.6c0,0.5-0.3,0.8-0.8,1
						C-405.2,126.7-406,126.7-407.1,126.4z"/>
				</defs>
				<clipPath id="SVGID_22_">
					<use xlink:href="#SVGID_21_"  style="overflow:visible;"/>
				</clipPath>
				<g class="st44">
					<path class="st41" d="M-411,123c0.2,0,0.4,0,0.5,0c0.1,0,0.3,0.1,0.5,0.3c0.3,0.2,0.5,0.3,0.7,0.3c0.2,0.1,0.5,0,0.7-0.2
						c0.1-0.1,0.2-0.2,0.3-0.3c0.1-0.1,0.2-0.1,0.2-0.2c0.3-0.1,0.6-0.1,1,0c0.1,0,0.4,0.1,0.7,0.3c0.3,0.2,0.6,0.3,0.8,0.3
						c0.4,0.1,0.9,0.1,1.4-0.1c0,0,0.1,0,0.1,0c0,0.1,0,0.1,0,0.1c0,0,0,0,0,0c0,0,0,0,0.1,0c-0.1,0.2-0.1,0.4-0.2,0.5
						c-0.3,0.3-0.7,0.4-1.2,0.3l-0.7-0.2c-0.3-0.1-0.6-0.1-0.8,0c-0.1,0.1-0.2,0.2-0.3,0.4l-0.1,0.4c0,0.1-0.1,0.2-0.3,0.4
						c-0.2,0.1-0.4,0.2-0.6,0.1l-0.5-0.1c-0.2-0.1-0.3-0.2-0.5-0.3c-0.3-0.2-0.6-0.3-1-0.4c-0.4-0.1-0.8-0.1-1.1,0.2l-0.1-0.4
						c-0.1-0.6-0.2-1.1-0.3-1.4C-411.4,123.1-411.2,123-411,123z"/>
				</g>
			</g>
			<g class="st7">
				<path class="st42" d="M-406.7,123c-0.3-0.2-0.7-0.3-1.3-0.3c-0.5-0.1-1-0.1-1.4,0c-0.4,0.1-0.6,0.2-0.6,0.4c0,0.2,0,0.5,0.1,0.7
					c-0.2-0.1-0.3-0.2-0.3-0.4c-0.1-0.2,0-0.4,0.1-0.6c0.1-0.2,0.6-0.3,1.3-0.3C-408.2,122.4-407.4,122.6-406.7,123L-406.7,123
					C-406.7,123-406.7,123-406.7,123z"/>
			</g>
			<g class="st7">
				<path class="st42" d="M-406.7,126.1c-0.5-0.1-0.8-0.2-1-0.4c1.4,0.4,2.3,0.5,2.9,0.3c0.1-0.1,0.3-0.1,0.4-0.2
					c0,0.2-0.1,0.3-0.3,0.4c-0.2,0.1-0.4,0.1-0.8,0.1C-405.9,126.2-406.2,126.2-406.7,126.1z"/>
			</g>
		</g>
		<g>
			<g>
				<path class="st38" d="M-380.2,124.7l0-0.1c0.3,0.1,0.6,0,1-0.1c0.6-0.3,1.5-0.4,2.4-0.5c1,0,1.9,0.1,2.6,0.4
					c0.7,0.3,1.3,0.5,1.6,0.6l0,0.1c-0.1,0.2-0.1,0.6-0.1,1.2c-0.1,0.2-0.2,0.3-0.4,0.5c-0.4,0.4-1.2,0.7-2.3,0.9
					c-1.1,0.2-2.2,0.1-3.2-0.4c-0.9-0.4-1.5-0.9-1.6-1.5C-380.2,125.5-380.1,125.2-380.2,124.7z"/>
			</g>
			<g>
				<path class="st39" d="M-375.4,126.7c-1.1,0.2-2.2,0.1-3.2-0.4c-1-0.4-1.5-0.9-1.6-1.5c-0.1-0.5,0.3-0.9,1-1.3
					c0.6-0.3,1.5-0.4,2.4-0.5c1,0,1.8,0.1,2.6,0.4c0.8,0.3,1.3,0.7,1.5,1.1c0.2,0.4,0.1,0.8-0.4,1.2
					C-373.5,126.2-374.3,126.5-375.4,126.7z"/>
			</g>
			<g>
				<defs>
					<path id="SVGID_23_" d="M-375.4,126.7c-1.1,0.2-2.2,0.1-3.2-0.4c-1-0.4-1.5-0.9-1.6-1.5c-0.1-0.5,0.3-0.9,1-1.3
						c0.6-0.3,1.5-0.4,2.4-0.5c1,0,1.8,0.1,2.6,0.4c0.8,0.3,1.3,0.7,1.5,1.1c0.2,0.4,0.1,0.8-0.4,1.2
						C-373.5,126.2-374.3,126.5-375.4,126.7z"/>
				</defs>
				<clipPath id="SVGID_24_">
					<use xlink:href="#SVGID_23_"  style="overflow:visible;"/>
				</clipPath>
				<g class="st45">
					<path class="st41" d="M-380.3,125c0.2-0.1,0.3-0.1,0.5-0.2c0.1,0,0.3,0,0.6,0.1c0.3,0.1,0.6,0.1,0.8,0c0.3,0,0.5-0.2,0.6-0.5
						c0.1-0.1,0.1-0.3,0.1-0.3c0-0.1,0.1-0.2,0.2-0.3c0.2-0.2,0.5-0.4,0.9-0.4c0.1,0,0.4,0,0.7,0c0.4,0,0.6,0,0.8,0
						c0.5-0.1,0.9-0.3,1.3-0.6c0,0,0,0,0.1-0.1c0.1,0,0.1,0.1,0.1,0.1c0,0,0,0,0,0.1c0,0,0,0,0.1,0c0,0.2,0,0.4,0,0.5
						c-0.1,0.4-0.5,0.6-1,0.8l-0.7,0.1c-0.4,0-0.6,0.1-0.7,0.3c-0.1,0.1-0.1,0.3-0.1,0.5l0.1,0.4c0,0.1,0,0.3-0.1,0.4
						c-0.1,0.2-0.3,0.3-0.5,0.3l-0.5,0.1c-0.2,0-0.4-0.1-0.5-0.1c-0.3,0-0.7,0-1,0c-0.4,0.1-0.7,0.2-0.9,0.6l-0.2-0.3
						c-0.4-0.5-0.6-0.9-0.8-1.2C-380.6,125.2-380.5,125.1-380.3,125z"/>
				</g>
			</g>
			<g class="st7">
				<path class="st42" d="M-376.4,123.3c-0.4,0-0.8,0-1.3,0.2c-0.5,0.1-0.9,0.3-1.3,0.5c-0.3,0.2-0.5,0.4-0.4,0.6
					c0.1,0.2,0.2,0.4,0.3,0.6c-0.2,0-0.3-0.1-0.5-0.3c-0.1-0.2-0.2-0.4-0.2-0.6c0.1-0.3,0.4-0.5,1.1-0.8
					C-377.9,123.4-377.2,123.3-376.4,123.3L-376.4,123.3C-376.3,123.3-376.3,123.3-376.4,123.3z"/>
			</g>
			<g class="st7">
				<path class="st42" d="M-375.2,126.2c-0.5,0.1-0.8,0.1-1.1,0c1.4-0.2,2.3-0.5,2.8-0.9c0.1-0.1,0.2-0.2,0.3-0.3
					c0,0.2,0,0.3-0.1,0.5c-0.1,0.1-0.4,0.3-0.7,0.4C-374.3,126-374.7,126.1-375.2,126.2z"/>
			</g>
		</g>
	</g>
</g>
<g>
	<g>
		<path class="st46" d="M-129.4,123.5c4.8,0,8.7-3.9,8.7-8.6c0-4.8-3.9-8.7-8.6-8.7l-1.4,0c-4.8,0-8.7-3.9-8.6-8.7
			c0-4.8,3.9-8.7,8.7-8.6l7.9,0c4.8,0,8.7-3.9,8.7-8.6c0-4.8-3.9-8.7-8.6-8.7l-14.8-0.1c-4.8,0-8.7-3.9-8.6-8.7
			c0-4.8,3.9-8.7,8.7-8.6l5.6,0c4.8,0,8.7-3.9,8.7-8.6c0-4.8-3.9-8.7-8.6-8.7l-77.8-0.4c-4.8,0-8.7,3.9-8.7,8.6
			c0,4.8,3.9,8.7,8.6,8.7l5.2,0c4.8,0,8.7,3.9,8.6,8.7c0,4.8-3.9,8.7-8.7,8.6l-28.8-0.1c-4.8,0-8.7,3.9-8.7,8.6
			c0,4.8,3.9,8.7,8.6,8.7l6.6,0c4.8,0,8.7,3.9,8.6,8.7c0,4.8-2.9,8.7-6.5,8.6c-3.6,0-6.5,3.9-6.5,8.6c0,4.8,3.9,8.7,8.6,8.7
			L-129.4,123.5L-129.4,123.5z"/>
	</g>
	<g>
		<g>
			<g transform="matrix( 1, 0, 0, 1, 0,0) ">
				<g>
					<g id="Layer0_5_MEMBER_0_FILL">
						<path class="st47" d="M-190,47.7c0.4,1.1,0.6,1.8,0.6,1.9c0.2,0.6,0.4,1.2,0.7,1.8c-0.1,0.2-0.2,0.3-0.2,0.5
							c-1.5,3.3-2.8,6.2-3.7,8.5c-1.2,3.1-2.2,6-2.8,8.8c-0.6,2.5-1.1,5.3-1.4,8.3c-0.2,2.4-0.4,5.2-0.5,8.4c0,0.9,0,1.6,0,2.1
							c0,0.3,0.1,0.5,0.1,0.7c0,0.1,0,0.3,0,0.4c0.1,0.8,0.7,1.6,2,2.2c1.1,0.5,2.7,1.1,4.8,1.7c10.9,3.1,21.8,5.3,33,6.6
							c1.9,0.2,5.3,0.6,10.2,1.3c4.9,0.6,7.7,0.5,8.5-0.3c0.2-0.4,0.3-0.8,0.1-1.4c-0.1-0.4-0.4-0.9-0.8-1.3
							c-0.5-0.6-1.1-1.3-1.9-2.1c2.8-2.7,5.3-6.1,7.5-10c2.2-3.8,4.1-8.3,5.9-13.5c0.9-2.8,1.6-5.3,2.1-7.4c0.6-2.7,0.8-5.2,0.7-7.6
							c0-0.4-0.1-0.8-0.1-1.2c0.6-0.6,1.3-1.4,2-2.3l1.9-2.3c0.4-0.5,0.7-0.9,0.9-1.1c0.3-0.5,0.5-0.9,0.6-1.3
							c0.1-0.5,0.1-1-0.1-1.4c-0.2-0.5-0.5-0.8-0.9-1c-0.4-0.2-0.9-0.2-1.5,0c-0.3,0.1-0.7,0.3-1.4,0.6c-0.5,0.3-1.3,0.6-2.3,1.1
							c-1.1,0.5-1.9,0.8-2.3,1.1c-0.2,0.1-0.5,0.2-1,0.5c-0.1-0.1-0.3-0.1-0.4-0.2c-5.1-2.3-10.9-3.7-17.6-4.1
							c-2.8-0.2-5.8-0.2-9.1-0.1c-2.7,0.1-5.7,0.4-9,0.7c-3,0.3-5.6,0.7-7.7,1.1c-1.1,0.2-2.1,0.4-3.1,0.6c-0.1-0.2-0.3-0.3-0.5-0.5
							c-2.8-2.7-6.1-4.7-9.8-6c-1.5-0.5-2.6-0.5-3.4,0c-0.3,0.2-0.6,0.5-0.8,1c-0.2,0.4-0.2,0.8-0.3,1.2c0,0.6,0.2,1.4,0.5,2.5
							L-190,47.7z"/>
					</g>
				</g>
			</g>
			<g transform="matrix( 1, 0, 0, 1, 0,0) ">
				<g>
					<g id="Layer0_5_MEMBER_1_FILL">
						<path class="st48" d="M-130.5,63.7c0-0.7,0.1-1.6,0.1-2.8c-0.2,0.6-0.5,1.3-0.7,2c-0.3,0.7-1.6,3.5-4,8.6
							c-1.3,2.8-3.2,7-5.6,12.8c-1.6,3.6-3.3,6.8-4.9,9.4c0,0,0,0,0,0c1.2-1,2.2-2,3.1-3c1.1-1.2,2.2-2.7,3.2-4.4
							c0.8-1.2,1.7-2.8,2.7-4.7c1.8-3.4,3.2-6.3,4.1-8.6C-131.4,69.6-130.7,66.6-130.5,63.7z"/>
					</g>
				</g>
			</g>
		</g>
		<g>
			<g transform="matrix( 1, 0, 0, 1, 0,0) ">
				<g>
					<g id="Layer0_5_MEMBER_5_FILL">
						<path class="st49" d="M-189.9,80.3c0.1,0,0.2,0,0.3,0c0.6-1.2,1.2-2.5,1.6-3.7c-0.8-1.1-3.4-2.8-7.7-5c-0.7-0.2-1-0.1-0.9,0.4
							C-195.4,73.9-193.2,76.7-189.9,80.3z"/>
					</g>
				</g>
			</g>
			<g transform="matrix( 1, 0, 0, 1, 0,0) ">
				<g>
					<g id="Layer0_5_MEMBER_3_FILL">
						<path class="st50" d="M-162.5,45.6c-3.8-1-7.8-1-11.8,0c-4,1-7.5,2.7-10.7,5.3c-2,1.6-3.4,3.3-4.1,5c-0.3,0.7-0.5,1.6-0.7,2.6
							c-0.1,0.7-0.2,1.6-0.2,2.7c-0.1,2.5-0.1,5.4,0,8.6c0.1,1.6,0.2,4.5,0.4,8.6c0.1,1.4,0.2,2.4,0.3,3.1c0.2,1.1,0.5,2.1,1,2.9
							c0.9,1.5,2.4,2.7,4.4,3.5c0.8,0.3,1.7,0.6,2.7,0.8c0.7,0.1,1.7,0.3,2.8,0.4c4.1,0.5,8.2,0.8,12.3,0.9c1.6,0,2.9,0,3.9-0.1
							c1.4-0.1,2.7-0.4,3.7-0.9c0.2-0.1,0.4-0.2,0.6-0.3c0.6-0.2,1.1-0.5,1.6-0.7c1.4-0.8,2.9-2.1,4.4-3.9c3.5-4.1,6.3-9.1,8.5-15
							c0.5-1.2,0.8-2.3,0.9-3.1c0.1-0.6,0.2-1.2,0.1-1.7c0.1-0.3,0.1-0.6,0.1-0.8c0-1.1-0.4-2.4-1.4-3.9c-2-3.2-5-6.1-8.9-8.9
							C-156,48.1-159.3,46.4-162.5,45.6z"/>
					</g>
				</g>
			</g>
			<g transform="matrix( 1, 0, 0, 1, 0,0) ">
				<g>
					<g id="Layer0_5_MEMBER_3_FILL_2_">
						<linearGradient id="SVGID_25_" gradientUnits="userSpaceOnUse" x1="-167.596" y1="72.6732" x2="-163.471" y2="43.0482">
							<stop  offset="0" style="stop-color:#CAD8A4"/>
							<stop  offset="1" style="stop-color:#66AFCF"/>
						</linearGradient>
						<path class="st51" d="M-162.5,45.6c-3.8-1-7.8-1-11.8,0c-4,1-7.5,2.7-10.7,5.3c-2,1.6-3.4,3.3-4.1,5c-0.3,0.7-0.5,1.6-0.7,2.6
							c-0.1,0.7-0.2,1.6-0.2,2.7c-0.1,2.5-0.1,5.4,0,8.6c0.1,1.6,0.2,4.5,0.4,8.6c0.1,1.4,0.2,2.4,0.3,3.1c0.2,1.1,0.5,2.1,1,2.9
							c0.9,1.5,2.4,2.7,4.4,3.5c0.8,0.3,1.7,0.6,2.7,0.8c0.7,0.1,1.7,0.3,2.8,0.4c4.1,0.5,8.2,0.8,12.3,0.9c1.6,0,2.9,0,3.9-0.1
							c1.4-0.1,2.7-0.4,3.7-0.9c0.2-0.1,0.4-0.2,0.6-0.3c0.6-0.2,1.1-0.5,1.6-0.7c1.4-0.8,2.9-2.1,4.4-3.9c3.5-4.1,6.3-9.1,8.5-15
							c0.5-1.2,0.8-2.3,0.9-3.1c0.1-0.6,0.2-1.2,0.1-1.7c0.1-0.3,0.1-0.6,0.1-0.8c0-1.1-0.4-2.4-1.4-3.9c-2-3.2-5-6.1-8.9-8.9
							C-156,48.1-159.3,46.4-162.5,45.6z"/>
					</g>
				</g>
			</g>
			<g>
				<defs>
					<path id="SVGID_26_" d="M-162.5,45.6c-3.8-1-7.8-1-11.8,0c-4,1-7.5,2.7-10.7,5.3c-2,1.6-3.4,3.3-4.1,5
						c-0.3,0.7-0.5,1.6-0.7,2.6c-0.1,0.7-0.2,1.6-0.2,2.7c-0.1,2.5-0.1,5.4,0,8.6c0.1,1.6,0.2,4.5,0.4,8.6c0.1,1.4,0.2,2.4,0.3,3.1
						c0.2,1.1,0.5,2.1,1,2.9c0.9,1.5,2.4,2.7,4.4,3.5c0.8,0.3,1.7,0.6,2.7,0.8c0.7,0.1,1.7,0.3,2.8,0.4c4.1,0.5,8.2,0.8,12.3,0.9
						c1.6,0,2.9,0,3.9-0.1c1.4-0.1,2.7-0.4,3.7-0.9c0.2-0.1,0.4-0.2,0.6-0.3c0.6-0.2,1.1-0.5,1.6-0.7c1.4-0.8,2.9-2.1,4.4-3.9
						c3.5-4.1,6.3-9.1,8.5-15c0.5-1.2,0.8-2.3,0.9-3.1c0.1-0.6,0.2-1.2,0.1-1.7c0.1-0.3,0.1-0.6,0.1-0.8c0-1.1-0.4-2.4-1.4-3.9
						c-2-3.2-5-6.1-8.9-8.9C-156,48.1-159.3,46.4-162.5,45.6z"/>
				</defs>
				<clipPath id="SVGID_27_">
					<use xlink:href="#SVGID_26_"  style="overflow:visible;"/>
				</clipPath>
				<g transform="matrix( 1, 0, 0, 1, 0,0) " class="st52">
					<path class="st53" d="M-187.9,47.3c-0.1,0.1-0.1,0.3-0.2,0.5c-0.3,2-0.7,5.1-1.1,9.3c-0.3,2.7-0.4,4.7-0.5,6.1
						c-0.1,2.2-0.1,4.3,0.1,6.1c0,0.3,0.1,0.5,0.3,0.5c1.1-6.6,1.8-13.2,2.1-19.8c0-1.2,0.1-1.9,0-2.4c0-0.3-0.1-0.5-0.3-0.6
						C-187.6,47.1-187.8,47.1-187.9,47.3 M-185,46.8c0-0.2-0.1-0.4-0.2-0.4c-0.2,0-0.3,0.1-0.4,0.4c-0.1,0.4-0.2,0.9-0.3,1.7
						c-0.5,4.4-0.8,7.7-1,9.9c-0.3,3.7-0.5,6.9-0.5,9.9c0,0.2,0.1,0.3,0.2,0.4c0.1,0,0.2-0.1,0.2-0.3c0.4-2.2,0.7-4.6,1-7.3
						c0.2-1.7,0.4-4.2,0.7-7.4C-185,50.6-184.9,48.3-185,46.8 M-182.5,44.6c-0.1,0-0.2,0.1-0.3,0.3c-0.1,0.3-0.2,0.8-0.3,1.4
						c-0.3,2-0.6,4.2-0.8,6.7c-0.1,1.6-0.3,3.8-0.4,6.7c-0.1,1.5-0.1,2.7-0.1,3.5c0,1.3,0.1,2.4,0.2,3.5c0,0.1,0.1,0.2,0.1,0.3
						c0.1,0.1,0.1,0.1,0.2,0c0.4-1.3,0.6-2.8,0.8-4.6c0.1-1,0.2-2.5,0.3-4.6l0.5-9c0.1-1.6,0.1-2.9,0.1-3.7
						C-182.1,44.8-182.2,44.6-182.5,44.6 M-180.1,43.3c-0.3,0.1-0.4,0.5-0.5,1c-0.2,1.7-0.5,4.8-1,9.3l-0.5,5.3
						c-0.2,1.7-0.3,3.3-0.3,4.7c-0.1,1.8,0.1,3.1,0.5,4.1c0,0.1,0.1,0.2,0.1,0.2c0.1,0,0.2-0.1,0.2-0.2c0.2-0.5,0.3-1.1,0.4-1.7
						c0-0.3,0.1-0.9,0.2-1.7l0.6-7.4c0.2-2.4,0.3-4.1,0.4-5.1c0.1-1.9,0.2-3.6,0.2-5.1C-179.8,45.2-179.9,44.1-180.1,43.3
						 M-176.7,47.6c0.2-1.8,0.3-3.1,0.3-4.1c0-0.3-0.1-0.6-0.3-0.6c-0.2-0.1-0.4,0-0.5,0.2c-0.1,0.1-0.1,0.3-0.2,0.6
						c-0.5,3.5-1.2,8.6-2.1,15.2c-0.3,2.3-0.5,4.1-0.6,5.3c-0.1,1.3,0,2.6,0.1,3.9c0,0.2,0.1,0.2,0.1,0.3c0.1,0,0.2-0.1,0.3-0.3
						c0.6-3,1.2-6.3,1.7-10.1C-177.6,55.5-177.2,52.1-176.7,47.6 M-173.7,42c-0.2,0-0.3,0.2-0.4,0.5c-0.4,1.1-0.7,2.3-1,3.7
						c-0.2,0.9-0.4,2.2-0.6,3.8l-1.7,11.3c-0.2,1.5-0.4,2.6-0.4,3.4c-0.1,1.3,0,2.4,0.1,3.4c0.2,0.1,0.4-0.1,0.5-0.5
						c0.8-3.6,1.6-7.7,2.3-12.4c0.4-2.8,0.9-6.9,1.6-12.5c0-0.2,0-0.4-0.1-0.5C-173.4,42.1-173.5,42-173.7,42 M-170,40.8
						c-0.1,0.1-0.2,0.3-0.3,0.5c-0.3,0.8-0.6,1.7-0.9,2.7c-0.2,0.6-0.4,1.5-0.7,2.8l-1.9,7.9c-0.4,1.7-0.7,3-0.8,3.9
						c-0.2,1.5-0.4,2.8-0.4,4c0,0.2,0,0.3,0.1,0.4c0.1,0,0.2,0,0.3-0.1c0.1-0.1,0.1-0.2,0.2-0.3c1.1-3,2.1-6.5,3-10.5
						c0.5-2.3,1.3-5.9,2.2-10.7c0.1-0.4,0-0.7-0.2-0.8C-169.7,40.7-169.8,40.7-170,40.8 M-166.3,44.4c0.2-1,0.4-1.9,0.5-2.6
						c0-0.3,0-0.5-0.2-0.7c-0.1-0.1-0.2-0.1-0.3-0.1c-0.1,0-0.2,0.1-0.3,0.2c-0.1,0.1-0.2,0.3-0.3,0.6l-5.6,17.3
						c-0.6,1.8-0.9,3.1-1.1,3.9c-0.2,1.1-0.4,2.2-0.4,3.5c0.3,0,0.5-0.3,0.7-0.8C-170.4,58.8-168.1,51.7-166.3,44.4 M-162.7,41.2
						c-0.5,0.8-1,1.9-1.5,3.3c-0.9,2.2-2.1,5.6-3.8,10c-1.5,4.1-2.5,7.3-3,9.5c-0.1,0.6-0.2,1-0.1,1.3c0.2,0,0.3-0.2,0.4-0.5
						c1.5-3.4,3.1-7.2,4.6-11.5c1.1-2.9,2.4-6.8,4.1-11.7c0.2-0.4,0.1-0.7-0.2-0.8C-162.3,40.7-162.5,40.8-162.7,41.2 M-158.8,42
						c0.1-0.4,0-0.6-0.2-0.7c-0.2-0.1-0.5,0-0.7,0.4c-0.3,0.6-0.7,1.4-1.1,2.4c-1.6,3.7-3.2,7.6-5,11.7c-0.8,2-1.4,3.5-1.8,4.5
						c-0.7,1.8-1,3.3-1,4.4c0,0.1,0,0.2,0.1,0.2c0.1,0.1,0.2,0,0.3-0.2c0.6-1.1,1.3-2.3,1.9-3.8c0.4-0.8,0.9-2.1,1.7-3.9
						c2.3-5.4,4-9.7,5.1-12.7C-159.1,43.4-158.9,42.6-158.8,42 M-156.1,44c0.1-0.3,0.1-0.4,0-0.6c-0.1-0.2-0.3-0.2-0.5-0.1
						c-0.1,0.1-0.2,0.2-0.4,0.5c-0.8,1.4-1.6,3-2.5,4.8c-0.5,1-1.2,2.6-2.3,4.9l-2.8,6.1c-0.7,1.6-1.4,3.1-2,4.5
						c-0.5,1.2-0.8,2.1-0.8,2.7c0.2,0,0.3-0.1,0.5-0.4c1.8-2.8,3.6-6,5.3-9.7c1-2.2,2.5-5.6,4.4-10.2
						C-156.6,45.3-156.2,44.4-156.1,44 M-155.9,46.9c-0.6,1-1.4,2.8-2.5,5.2l-5.2,11c-0.8,1.8-1.4,3-1.6,3.6
						c-0.4,0.9-0.5,1.7-0.5,2.2c1.2-1.6,2.4-3.4,3.6-5.5c0.9-1.6,1.8-3.5,2.9-5.9c1.7-3.6,3.2-7.2,4.7-10.9c0.4-1,0.7-1.8,0.7-2.4
						c-0.4,0.3-0.8,0.7-1.2,1.3C-155.2,45.8-155.5,46.3-155.9,46.9 M-154.1,52.6c1-2.5,1.7-4.8,2.3-7c0.2-0.5,0.1-0.8-0.2-1
						c-0.4,0.6-0.8,1.2-1.2,2.1c-0.2,0.4-0.5,1.1-0.9,2.2c-1.1,3-2.8,6.8-5.1,11.3c-2.9,5.9-4.7,9.6-5.4,11.2
						c-0.1,0.3-0.1,0.5-0.1,0.6c1.5-1.7,2.9-3.7,4.2-6.1c1-1.7,2.1-3.9,3.4-6.6C-155.8,56.8-154.8,54.5-154.1,52.6 M-151.2,49.4
						c-0.3,0.6-0.8,1.5-1.3,2.8c-1,2.3-1.9,4.4-2.9,6.4c-0.9,1.9-1.8,3.6-2.6,5.1c-1.4,2.6-2.3,4.3-2.7,5.1
						c-0.5,0.9-0.8,1.8-0.9,2.5c0.2,0.1,0.5,0,0.7-0.4c1.1-1.3,2.1-2.8,3.1-4.5c0.7-1.2,1.6-2.9,2.5-4.9c2-4.1,3.7-8,5-11.7
						c0.2-0.5,0.1-0.8-0.1-0.9c-0.1-0.1-0.3-0.1-0.5,0.1C-151,49.1-151.1,49.2-151.2,49.4 M-146.8,47.7c0.1-0.4,0-0.6-0.2-0.7
						c-0.2,0-0.3,0.1-0.5,0.4c-0.8,1.6-1.9,4.1-3.2,7.3c-1.4,3.3-2.4,5.8-3.2,7.3c-0.5,1.1-1.4,2.8-2.5,4.9c-1.2,2.2-2,3.8-2.5,4.9
						c-0.3,0.6-0.5,1-0.6,1.4c-0.2,0.5-0.2,1-0.2,1.4c2.5-3.1,4.7-6.8,6.8-11.2c1.5-3.1,3.1-7.2,5-12.2
						C-147.3,49.7-147,48.5-146.8,47.7 M-145.1,50.3c-0.1,0-0.3,0.1-0.5,0.3c-0.5,0.8-1.2,2.2-2,4.1c-2.1,4.9-4.5,9.5-7.2,14.1
						c-0.5,0.8-1.5,2.5-3.1,5.1c-0.4,0.6-0.6,1-0.7,1.4c-0.2,0.5-0.3,1-0.3,1.5c0.8-0.7,1.7-1.6,2.5-2.7c0.6-0.8,1.3-1.8,2-3
						c3.9-6.3,7.1-12.9,9.5-19.9c0-0.1,0.1-0.3,0.1-0.4C-144.9,50.4-145,50.3-145.1,50.3 M-143.1,51.2c-0.1,0-0.3,0.1-0.4,0.3
						c-0.4,0.8-0.9,1.8-1.5,3c-0.3,0.7-0.8,1.7-1.4,3c-1.2,2.7-2.8,5.7-4.6,8.9c-1.1,1.9-2.8,4.8-5.2,8.6c-0.7,1.2-1.2,2.2-1.4,2.8
						c0.3,0,0.7-0.2,1.1-0.7c2-2.2,4.1-5.2,6.2-9.1c3.2-5.7,5.6-11.1,7.2-16.2c0-0.1,0.1-0.3,0-0.4C-142.9,51.3-143,51.2-143.1,51.2
						 M-142.4,54.9c-0.8,1.4-1.9,3.3-3.1,5.7c-1.5,3-2.5,4.9-3,5.7c-0.8,1.4-1.9,3.4-3.5,6.1c-1.4,2.4-2.5,4.5-3.2,6.2
						c-0.2,0.5-0.3,0.9-0.3,1.2c0.3-0.1,0.7-0.4,1-1c4.6-6.6,8.9-14.4,12.8-23.3c0.3-0.6,0.4-1.1,0.3-1.5
						C-141.7,54.1-142.1,54.4-142.4,54.9 M-144.3,63.5c-1.1,2.3-1.9,3.9-2.5,4.9c-0.4,0.8-1.6,2.7-3.5,5.9c-1.5,2.4-2.6,4.4-3.3,6
						c-0.1,0.2-0.1,0.3,0,0.4c0.1,0.1,0.2,0.1,0.4-0.1c0.8-0.8,1.8-2,2.8-3.7c3.6-5.5,6.6-11.2,9-17.3c0.2-0.4,0.3-0.8,0.3-1
						c0-0.2,0-0.4-0.2-0.4c-0.2-0.1-0.4,0-0.5,0.3C-142.4,59.7-143.2,61.3-144.3,63.5 M-139.3,59.7c-0.4,0.1-0.8,0.5-1.2,1.3
						c-3.4,6.6-7,13.2-11,19.7c-0.6,0.9-1,1.6-1.2,2.1c-0.4,0.8-0.6,1.5-0.7,2.2c0.5-0.5,1-1,1.4-1.7c0.3-0.4,0.7-1,1.2-1.9
						c4.1-6.6,7.8-13.3,11.1-20C-139.2,60.7-139.1,60.1-139.3,59.7z"/>
				</g>
				<path class="st54" d="M-202.4,83.7c0.3-0.2,0.9-0.4,1.8-0.6c3.5-1.5,6.7-2.3,9.8-2.6c0-0.1,0-0.2,0-0.3c0.1-0.6,0.2-1.1,0.4-1.5
					c0.3-0.4,0.7-0.8,1.2-1c0.5-0.2,1-0.4,1.5-0.4c0.7-0.1,1.3,0,1.7,0.1c0.6,0.2,1,0.6,1.3,1.1c0.1,0.2,0.2,0.5,0.2,0.8
					c0.1,0.3,0.1,0.6,0.1,0.8c0,0.2,0,0.5-0.1,0.7c3.1,0.4,7.8,1.9,10.3,2.8c0.2,0.1,0.4,0.1,0.6,0.2c0.1-0.2,0.3-0.4,0.4-0.6
					c0.5-0.7,0.9-1.2,1.3-1.5c0.4-0.3,0.8-0.4,1.2-0.5c0.5-0.1,0.9,0,1.3,0.2c0.3,0.2,0.6,0.4,0.8,0.6c0.2,0.2,0.3,0.5,0.4,0.8
					c0.2,0.5,0.3,1,0.3,1.5c0.2-0.2,0.4-0.3,0.6-0.5c0.6-0.4,1.3-0.7,2-0.9c0.8-0.2,1.5-0.2,2.3-0.2c0.6,0.1,1.1,0.2,1.5,0.4
					c0.3,0.2,0.6,0.5,0.8,0.8c0.4,0.5,0.6,1,0.7,1.6c0.4-0.1,0.9-0.1,1.3-0.1c0.5,0.1,0.9,0.2,1.3,0.4c0.3,0.2,0.5,0.5,0.7,0.8
					c0.5,0.8,0.7,1.8,0.6,2.8c-0.1,1-0.4,1.8-1,2.7c-0.1,0.1-0.1,0.2-0.2,0.3c1.6,1.3,3.1,2.7,4.4,4.2c1.4,1.6,2,3.1,1.8,4.4
					c-0.1,0.9-0.6,1.7-1.4,2.3c0,0-0.1,0.1-0.1,0.1c-0.3,0.4-0.6,0.9-1,1.3L-202.4,83.7z"/>
			</g>
			<g transform="matrix( 1, 0, 0, 1, 0,0) ">
				<g>
					<g id="Layer0_5_MEMBER_2_FILL">
						<path class="st55" d="M-135.9,55.2c0-0.1-0.1-0.2-0.2-0.3c-0.9,0.6-1.8,1.6-2.7,3c-3.4,5-5.6,10.6-6.7,16.6
							c-0.4,1.9-0.5,3.5-0.4,4.9c0.1,1.2,0.3,2.4,0.7,3.3c0.4-2.8,1.1-5.7,1.9-8.7c1.2-4.4,2.9-9.2,5.2-14.4
							c0.5-1.1,0.8-1.9,1.2-2.6C-136.7,56.3-136.3,55.7-135.9,55.2z"/>
					</g>
				</g>
			</g>
			<g transform="matrix( 1, 0, 0, 1, 0,0) ">
				<g>
					<g id="Layer0_5_MEMBER_4_FILL">
						<path class="st50" d="M-135.8,79.1c0-0.1,0-0.2-0.1-0.4c-4.2,0.1-7.8,0.4-10.7,0.9c-2.9,0.5-4.6,0.7-4.9,0.8
							c-0.3,0.1-0.6,0.3-0.9,0.6c-0.1,0.1-0.2,0.2-0.2,0.3c0,0.1,0,0.2,0.1,0.3l-2.6,1.5c-0.6,0.3-0.9,0.6-1.1,0.9
							c-0.1,0.3-0.2,0.6-0.1,0.9c2,2.8,5.9,2.7,11.8-0.5C-138.6,81.3-135.7,79.5-135.8,79.1z"/>
					</g>
				</g>
			</g>
			<g>
				<path class="st56" d="M-139.3,80.4c-4.3,0.7-7.5,1.6-9.7,2.5c0.6,0.4,0.7,0.9,0.4,1.4c-0.3,0.5-1,0.9-1.9,1.1
					c0.3-0.5,0.5-0.9,0.4-1.2c-0.1-0.8-0.4-1.3-1-1.6c0.7-0.6,2.5-1.1,5.5-1.6C-142.5,80.5-140.4,80.3-139.3,80.4L-139.3,80.4z"/>
			</g>
			<g transform="matrix( 1, 0, 0, 1, 0,0) ">
				<g>
					<g id="Layer0_5_MEMBER_6_FILL">
						<path class="st49" d="M-177.7,53.3c0,0,0,0.1,0,0.1c0,0.2,0.2,0.3,0.5,0.4c0.3,0.1,0.7,0.1,1.4,0c-0.1,0.1-0.3,0.3-0.4,0.4
							c-0.6,0.6-0.9,1.2-0.9,1.8c0,0.2,0,0.3,0.1,0.4c0.1,0.3,0.4,0.6,0.8,0.7c0.9,0.4,2.1,0.5,3.4,0.1c0.1,0,0.1,0,0.2-0.1
							c-0.1,0.2-0.2,0.5-0.2,0.6c0,0.2,0,0.6,0,1c0,0.4,0.3,0.8,0.8,1c0.5,0.3,1.3,0.3,2.3,0c1-0.2,2-1,3.1-2.1c1-1.2,2-2.7,2.9-4.5
							c-1.6,1.4-2.4,2.1-2.5,2.2c-2.4,2-4.1,2.9-5.2,2.9c0-0.2,0-0.6,0.2-1c0.1-0.3,0.9-1.3,2.3-3.1c0,0,0-0.1-0.1-0.1
							c-0.1-0.1-0.2-0.2-0.3-0.2c-0.1,0-0.3,0-0.4,0c-0.1,0-0.3,0.1-0.7,0.4c-0.2,0.1-0.4,0.3-0.8,0.4c-1.5,0.7-2.7,1.1-3.7,1.1
							c-0.3,0-0.5,0-0.7-0.1c0-0.2,0.1-0.5,0.4-0.7c0.2-0.2,0.5-0.5,0.8-0.7c0.4-0.3,0.7-0.5,0.9-0.6c0.2-0.1,0.3-0.3,0.4-0.4
							c0.1-0.2,0.1-0.3,0-0.5c0,0,0-0.1,0-0.1c0-0.1-0.1-0.2-0.3-0.2C-174.7,52.9-176,53.1-177.7,53.3z"/>
					</g>
				</g>
			</g>
			<g transform="matrix( 1, 0, 0, 1, 0,0) ">
				<g>
					<g id="Layer0_5_MEMBER_7_FILL">
						<path class="st49" d="M-171.8,60.4c0,0-0.1-0.1-0.2-0.1c-0.8,1.1-1.2,1.8-1.2,1.9c0,0.2,0,0.2,0,0.2c-0.1,0.1-0.8,0.7-2,1.8
							c-1.3,1.3-3.8,2.8-7.2,4.7c4.5-1.1,7.4-2.5,8.8-4.3c-0.2,1.1-0.1,2.1,0.3,2.9c0,0,0.1,0,0.1,0c0.1-0.1,0.2-0.2,0.3-0.3
							c0.5-2.2,0.8-4.3,1-6.5C-171.8,60.7-171.8,60.6-171.8,60.4 M-167.9,60.1c0.1-0.2,0.2-0.5,0.3-0.7c-0.3,0-0.5,0.3-0.8,0.6
							c-0.3,0.4-0.7,1.2-1.2,2.2c-0.3,0.6-0.5,1.2-0.7,1.6c-0.2,0.5-0.3,0.9-0.3,1.2c0,0.5,0,0.9,0.2,1.2c0.1,0.2,0.2,0.3,0.3,0.3
							c0.1-0.3,0.2-0.7,0.3-1.1c0.2-0.7,0.4-1.4,0.6-2c0.1,0.4,0.2,0.8,0.5,1.3c0.3,0.7,0.6,1.2,0.9,1.7c0.4,0.5,0.9,1.1,1.6,1.8
							c0.7,0.7,1.3,1.2,1.8,1.6c0.6,0.5,1.3,0.9,1.9,1.2c-3.5-4.7-5.3-7.2-5.5-7.6c-0.1-0.3-0.3-0.8-0.5-1.4
							C-168.1,60.8-168,60.2-167.9,60.1z"/>
					</g>
				</g>
			</g>
			<g transform="matrix( 1, 0, 0, 1, 0,0) ">
				<g>
					<g id="Layer0_5_MEMBER_8_FILL">
						<path class="st57" d="M-176.5,71.5c-0.1,0.1-0.1,0.2-0.2,0.3c-0.1,0.2-0.1,0.4-0.1,0.5c0,0.1,0.1,0.2,0.2,0.3
							c0.1,0.1,0.2,0.1,0.4,0.1c0.2,0,0.4-0.1,0.5-0.3c0.1-0.2,0.1-0.4,0.1-0.6c0-0.1,0-0.2-0.1-0.3c-0.1-0.1-0.2-0.2-0.3-0.2
							C-176.3,71.4-176.4,71.4-176.5,71.5 M-166.1,72.7c0.1-0.4,0.1-0.7-0.1-0.9c-0.1-0.3-0.4-0.5-0.7-0.5s-0.6,0.1-0.8,0.4
							c-0.1,0.1-0.1,0.3-0.2,0.5c-0.2,0.5-0.2,0.8-0.2,1c0,0.3,0.2,0.5,0.4,0.6c0.3,0.1,0.5,0.1,0.8,0
							C-166.5,73.7-166.3,73.3-166.1,72.7z"/>
					</g>
				</g>
			</g>
			<g transform="matrix( 1, 0, 0, 1, 0,0) ">
				<g>
					<g id="Layer0_5_MEMBER_9_FILL">
						<path class="st58" d="M-177.2,71.5c-0.1,0.2-0.1,0.3,0,0.5c0.1,0.2,0.2,0.3,0.3,0.4c0.1,0.1,0.3,0.1,0.5,0
							c0.2-0.1,0.3-0.2,0.3-0.4c0.1-0.2,0.1-0.3,0-0.5c-0.1-0.1-0.2-0.2-0.3-0.3c-0.1,0-0.3-0.1-0.4,0
							C-177,71.3-177.1,71.4-177.2,71.5 M-166.9,71.8c-0.1-0.3-0.3-0.5-0.7-0.5c-0.2,0-0.4,0-0.6,0.2c-0.2,0.2-0.3,0.3-0.3,0.6
							c0,0.3,0.2,0.6,0.5,0.8c0.1,0.1,0.3,0.1,0.4,0.1c0.2,0,0.4-0.1,0.5-0.2c0.1-0.1,0.2-0.2,0.2-0.4
							C-166.8,72.1-166.8,71.9-166.9,71.8z"/>
					</g>
				</g>
			</g>
			<g transform="matrix( 1, 0, 0, 1, 0,0) ">
				<g>
					<g id="Layer0_5_MEMBER_10_FILL">
						<path class="st49" d="M-174.6,72.7C-174.6,72.7-174.6,72.6-174.6,72.7c-1-0.1-1.8-0.1-2.3-0.1c-0.8,0-1.5,0-2.1,0
							c0,0,0,0.1-0.1,0.1c-0.1,0.2,0,0.3,0.1,0.5c0.1,0.2,0.4,0.2,0.9,0.2c0.2,0,0.7,0,1.5,0c0.2,0,0.3,0,0.5,0c0,0,0,0,0,0
							c-0.3,0.3-0.5,0.4-0.6,0.5c-0.1,0-0.2,0.1-0.4,0.2c-1,0.5-1.7,0.7-2.3,0.6c-0.3,0-0.5-0.2-0.6-0.4c-0.1-0.3-0.2-0.5-0.3-0.5
							c-0.1-0.1-0.2,0-0.4,0c0,0.1,0,0.3,0.1,0.4c0.1,0.3,0.3,0.6,0.6,0.9c0.2,0.2,0.5,0.3,0.8,0.4c0.3,0,0.6,0,1-0.1
							c0.2,0,0.3-0.1,0.4-0.1c0.5-0.2,1-0.6,1.4-1.1c0.3-0.4,0.6-0.7,0.8-0.9C-175.3,73-175,72.8-174.6,72.7z"/>
					</g>
				</g>
			</g>
			<g transform="matrix( 1, 0, 0, 1, 0,0) ">
				<g>
					<g id="Layer0_5_MEMBER_11_FILL">
						<path class="st49" d="M-163.4,73.7c0,0-0.1,0-0.1-0.1l0.2,1c0,0,0,0-0.1,0l-0.6-1.2c-1.3-0.4-2.9-0.7-4.8-0.9
							c-0.7-0.1-1.3-0.1-1.8-0.1c0,0,0,0,0,0c0.4,0.4,0.8,1,1.2,1.6c0.2,0.3,0.4,0.7,0.7,1.3c0.3,0.5,0.5,0.9,0.8,1.3
							c0.2,0.3,0.4,0.5,0.6,0.7c0.5,0.3,1,0.5,1.6,0.6c0.6,0.1,1.2,0,1.7-0.2c0.2-0.1,0.4-0.2,0.6-0.3c0.2-0.2,0.3-0.3,0.3-0.5
							c0-0.1,0-0.1-0.1-0.2c-0.1,0-0.1,0-0.2,0c-0.4,0.1-0.7,0.2-0.9,0.3c-0.5,0.2-1,0.2-1.5,0.1c-0.5-0.1-1-0.3-1.4-0.7
							c-0.3-0.3-0.6-0.6-0.9-1.1c0-0.1-0.3-0.5-0.7-1.3c-0.1-0.1-0.1-0.2-0.2-0.3c0.7,0.1,1.5,0.3,2.3,0.5c0.5,0.1,1.5,0.4,3.1,0.8
							c0.2,0,0.4,0.1,0.5,0.1c0,0,0,0,0.1,0c0,0,0-0.1,0-0.1C-163.2,74.4-163.3,74-163.4,73.7z"/>
					</g>
				</g>
			</g>
			<g transform="matrix( 1, 0, 0, 1, 0,0) ">
				<g>
					<g id="Layer0_5_MEMBER_13_FILL">
						<path class="st59" d="M-195.9,62.5c-0.4,0-0.9,0.2-1.5,0.5c-0.4,0.2-0.7,0.4-0.9,0.7c-0.2,0.2-0.3,0.4-0.4,0.6
							c-0.1,0.1-0.1,0.3-0.2,0.5c-0.1,0.5-0.1,0.9,0,1.3c0.1,0.5,0.3,0.8,0.7,1.1c0.2,0.1,0.5,0.3,1,0.5c0.3,0.1,0.5,0.1,0.6,0.1
							c0.4,0.1,0.8,0,1.3-0.2c4.7,3.6,9.1,7.5,13.3,11.6c0.3,0.3,0.5,0.4,0.7,0.6c0,0,0,0,0,0.1c0.1,0.2,0.3,0.3,0.5,0.3
							c0,0,0,0,0,0c0.1,0,0.1,0,0.2,0c0.1,0,0.2,0,0.4,0l0.3-0.1l0.3-0.1l0.3-0.2c0.1-0.1,0.2-0.2,0.3-0.2c0.1-0.1,0.3-0.4,0.4-0.6
							c0.1-0.1,0.1-0.3,0.1-0.4c0-0.1,0-0.1-0.1-0.2c-0.1-0.1-0.2-0.2-0.3-0.3c0,0-0.1-0.1-0.2-0.1c0,0,0-0.1-0.1-0.1
							c-0.9-0.9-2.3-2.2-4-3.7c-3.8-3.3-7.4-6.2-10.7-8.6c0-0.1,0.1-0.3,0.1-0.4c0-0.2,0-0.5-0.1-0.8c-0.1-0.3-0.1-0.5-0.2-0.6
							c-0.2-0.4-0.6-0.7-1.2-0.8C-195.5,62.5-195.7,62.5-195.9,62.5z"/>
					</g>
				</g>
			</g>
			<g transform="matrix( 1, 0, 0, 1, 0,0) ">
				<g>
					<g id="Layer0_5_MEMBER_14_FILL">
						<path class="st0" d="M-196.2,63.7l-0.3,0.1l-0.3,0.1c-0.1,0-0.2,0.1-0.4,0.3c-0.1,0.1-0.2,0.2-0.2,0.3l-0.1,0.3
							c0,0.4,0,0.6,0,0.8c0.1,0.3,0.2,0.5,0.5,0.6l0.3,0.1c0.2,0.1,0.4,0.1,0.5,0.1c0.1,0,0.2,0,0.4-0.1c0.1,0,0.2,0,0.3-0.1
							c0,0,0.1,0,0.1-0.1c0.2,0.2,0.4,0.3,0.6,0.5c5.2,4.1,10.2,8.5,15,13c0.2-0.1,0.3-0.3,0.5-0.5c0.1-0.1,0.2-0.2,0.2-0.3
							c-0.5-0.5-1-1-1.6-1.5c-0.8-0.7-2-1.8-3.6-3.2c-2.2-2-4-3.4-5.2-4.4c-1.9-1.6-3.7-2.9-5.4-4.1l0.2-0.3c0-0.1,0.1-0.2,0.1-0.3
							c0-0.2,0-0.3,0-0.4c0-0.2-0.2-0.4-0.4-0.6c-0.2-0.1-0.4-0.2-0.7-0.2C-195.9,63.7-196.1,63.7-196.2,63.7z"/>
					</g>
				</g>
			</g>
			<g transform="matrix( 1, 0, 0, 1, 0,0) ">
				<g>
					<g id="Layer0_5_MEMBER_12_FILL">
						<path class="st49" d="M-178.8,77.7l-0.2-0.1l0,0c0,0.1,0.1,0.2,0.1,0.4c0,0.1,0,0.3,0,0.5c0,0.2-0.1,0.3-0.2,0.5c0,0,0,0,0,0
							c0,0.1-0.1,0.2-0.2,0.2c0,0-0.1,0.1-0.2,0.1c0,0,0,0,0,0.1c-0.1,0.1-0.2,0.2-0.4,0.2c-0.2,0.1-0.4,0.1-0.7,0.1
							c-0.3,0-0.5,0-0.6-0.1c-0.1,0-0.1-0.1-0.3-0.1c0,0,0,0,0,0c0.3,0.6,0.4,1.2,0.4,1.8c0,0.3-0.1,0.6-0.1,0.8
							c0,0.1-0.1,0.2-0.1,0.2c0.1,0.2,0.3,0.2,0.5,0.1c0.1-0.1,0.3-0.2,0.4-0.4c0.2-0.4,0.2-0.8,0.2-1.2c0-0.2-0.1-0.5-0.1-0.7
							c0.2,0,0.4,0,0.7-0.1c0.1,0,0.2-0.1,0.4-0.1c0.2,0,0.3-0.1,0.4-0.2c0.2-0.2,0.3-0.5,0.4-0.9c0.5,0.2,0.9,0.2,1.3,0.1
							c0.2,0,0.3-0.1,0.6-0.3c0.4-0.2,0.6-0.4,0.7-0.6c0.1-0.1,0.1-0.2,0-0.3c0,0-0.1-0.1-0.1-0.1c-0.3,0.2-0.6,0.3-1.1,0.4
							c-0.4,0-0.6,0-0.8,0l-0.5-0.2C-178.6,77.8-178.8,77.7-178.8,77.7z"/>
					</g>
				</g>
			</g>
			<g transform="matrix( 1, 0, 0, 1, 0,0) ">
				<g>
					<g id="Layer0_5_MEMBER_15_FILL">
						<path class="st0" d="M-204.9,56.8c-0.2,0.4-0.5,0.9-0.7,1.3c-0.1,0.2-0.2,0.4-0.4,0.6c3,1.1,4.6,1.6,4.8,1.7
							C-201.5,60.2-202.7,59-204.9,56.8 M-207.5,65.1c0.1,0.6,0.1,1.2,0.2,1.8c0,0.3,0,0.6,0.1,0.9c3.1-1.2,4.7-1.9,4.9-1.9
							C-202.8,65.7-204.5,65.5-207.5,65.1 M-199.8,70.3c-0.2,0.3-1.1,1.7-2.8,4.3c0.5,0.1,1,0.3,1.5,0.5c0.2,0.1,0.5,0.2,0.7,0.3
							C-200.1,72.1-199.8,70.5-199.8,70.3 M-196.3,58.7c0.1-0.3,0.7-1.9,1.7-4.9c-0.6,0-1.2-0.1-1.8-0.2c-0.3,0-0.6-0.1-0.8-0.1
							C-196.7,56.8-196.3,58.5-196.3,58.7z"/>
					</g>
				</g>
			</g>
			<g transform="matrix( 1, 0, 0, 1, 0,0) " class="st7">
				<g id="Layer0_5_MEMBER_16_FILL">
					<path class="st0" d="M-169,29.7c0-0.4-0.1-0.7-0.2-1c-0.1,0-0.1,0-0.2,0l-0.6,0.1c0,0.3,0.1,0.6,0.1,0.9c0,0.8-0.2,1.6-0.5,2.3
						c-0.1,0.2-0.2,0.5-0.4,0.8c-0.2,0.4-0.3,0.7-0.4,0.8c-0.3,0.7-0.5,1.3-0.4,1.8c0.1,0.5,0.4,1.1,0.9,1.8c0.6,0.8,0.9,1.3,1,1.7
						c0.2,0.6,0.2,1.3-0.1,2c0.3,0.1,0.6,0.2,1,0.3c0.2-0.6,0.3-1.2,0.2-1.9c-0.1-0.9-0.3-1.7-0.8-2.3c-0.3-0.4-0.6-0.7-0.7-0.9
						c-0.3-0.4-0.4-0.7-0.5-1c-0.1-0.5,0-1.1,0.4-1.8c0.4-0.7,0.7-1.2,0.9-1.6C-169,31.1-168.9,30.4-169,29.7 M-163.5,28.7l-0.6,0.1
						c0,0.3,0.1,0.6,0.1,0.9c0,0.8-0.2,1.6-0.5,2.3c-0.1,0.2-0.2,0.5-0.4,0.8c-0.2,0.4-0.3,0.7-0.4,0.8c-0.3,0.7-0.5,1.3-0.4,1.8
						c0.1,0.5,0.4,1.1,0.9,1.8c0.6,0.8,0.9,1.3,1,1.7c0.2,0.6,0.2,1.3-0.1,2c0.3,0.1,0.6,0.2,1,0.3c0.2-0.6,0.3-1.2,0.2-1.9
						c-0.1-0.9-0.3-1.7-0.8-2.3c-0.3-0.4-0.6-0.7-0.7-0.9c-0.3-0.4-0.4-0.7-0.5-1c-0.1-0.5,0-1.1,0.4-1.8c0.4-0.7,0.7-1.2,0.9-1.6
						c0.3-0.6,0.4-1.3,0.3-2c0-0.4-0.1-0.7-0.2-1C-163.4,28.7-163.4,28.7-163.5,28.7 M-157.4,28.7c-0.1,0-0.1,0-0.2,0l-0.6,0.1
						c0,0.3,0.1,0.6,0.1,0.9c0,0.8-0.2,1.6-0.5,2.3c-0.1,0.2-0.2,0.5-0.4,0.8c-0.2,0.4-0.3,0.7-0.4,0.8c-0.3,0.7-0.5,1.3-0.4,1.8
						c0.1,0.5,0.4,1.1,0.9,1.8c0.6,0.8,0.9,1.3,1,1.7c0.2,0.6,0.2,1.3-0.1,2c0.3,0.1,0.6,0.2,1,0.3c0.2-0.6,0.3-1.2,0.3-1.8
						c-0.1-0.9-0.3-1.7-0.8-2.3c-0.3-0.4-0.6-0.7-0.7-0.9c-0.3-0.4-0.4-0.7-0.5-1c-0.1-0.5,0-1.1,0.4-1.8c0.4-0.7,0.7-1.2,0.9-1.6
						c0.3-0.6,0.4-1.3,0.3-2C-157.2,29.4-157.3,29-157.4,28.7z"/>
				</g>
			</g>
		</g>
		<g>
			<g transform="matrix( 1, 0, 0, 1, 0,0) ">
				<g>
					<g id="Layer0_5_MEMBER_22_FILL">
						<path class="st60" d="M-180.6,83.7c-1.4-0.4-4.2-0.9-8.4-1.5c-4.2-0.6-8.9,0.3-14.1,2.5c-0.9,0.3-1.5,0.5-1.8,0.6
							c-1.8,0.9-3.9,2.2-6.3,4.1c-2.6,2-5.2,4.1-7.7,6.4c-1.6,1.4-4,3.7-7.1,6.7c-1.6,1.6-2.8,2.8-3.6,3.7c-0.3,0.2-0.6,0.5-0.9,0.8
							c-0.5,0.5-0.9,1-1.4,1.7c-0.1,0.2-0.6,0.8-1.3,1.8c-1,1.4-1.7,2.5-2,3c-0.6,1.2-0.9,2.3-0.8,3.3c0.1,2,1.5,3.9,4.1,5.7
							c3.7,2.6,8.4,4.8,14.3,6.4c5.7,1.6,10.6,2.3,14.9,1.9c3.4-0.3,7.1-1.2,11.1-2.7c2.5-1,6-2.6,10.5-4.9l20.6-10.5
							c1.9-1,3.4-1.8,4.3-2.3c1.5-1,2.8-2,3.8-3c0.4-0.4,0.8-0.9,1-1.3c0,0,0.1-0.1,0.1-0.1c0.8-0.6,1.3-1.4,1.4-2.3
							c0.2-1.3-0.5-2.7-1.8-4.4c-2.5-2.9-5.8-5.6-9.7-7.9c-3.1-1.8-6.9-3.5-11.6-5.3C-175.7,85.4-178.1,84.5-180.6,83.7z"/>
					</g>
				</g>
			</g>
			<g>
				<defs>
					<path id="SVGID_28_" d="M-180.6,83.7c-1.4-0.4-4.2-0.9-8.4-1.5c-4.2-0.6-8.9,0.3-14.1,2.5c-0.9,0.3-1.5,0.5-1.8,0.6
						c-1.8,0.9-3.9,2.2-6.3,4.1c-2.6,2-5.2,4.1-7.7,6.4c-1.6,1.4-4,3.7-7.1,6.7c-1.6,1.6-2.8,2.8-3.6,3.7c-0.3,0.2-0.6,0.5-0.9,0.8
						c-0.5,0.5-0.9,1-1.4,1.7c-0.1,0.2-0.6,0.8-1.3,1.8c-1,1.4-1.7,2.5-2,3c-0.6,1.2-0.9,2.3-0.8,3.3c0.1,2,1.5,3.9,4.1,5.7
						c3.7,2.6,8.4,4.8,14.3,6.4c5.7,1.6,10.6,2.3,14.9,1.9c3.4-0.3,7.1-1.2,11.1-2.7c2.5-1,6-2.6,10.5-4.9l20.6-10.5
						c1.9-1,3.4-1.8,4.3-2.3c1.5-1,2.8-2,3.8-3c0.4-0.4,0.8-0.9,1-1.3c0,0,0.1-0.1,0.1-0.1c0.8-0.6,1.3-1.4,1.4-2.3
						c0.2-1.3-0.5-2.7-1.8-4.4c-2.5-2.9-5.8-5.6-9.7-7.9c-3.1-1.8-6.9-3.5-11.6-5.3C-175.7,85.4-178.1,84.5-180.6,83.7z"/>
				</defs>
				<clipPath id="SVGID_29_">
					<use xlink:href="#SVGID_28_"  style="overflow:visible;"/>
				</clipPath>
				<g transform="matrix( 1, 0, 0, 1, 0,0) " class="st61">
					<g>
						<g id="Layer0_5_MEMBER_23_FILL">
							<path class="st47" d="M-235.4,111c-0.5,0.9-1,1.8-1.5,2.7c5.4,1,10.8,2.5,16,4.4c7.4,2.7,14.3,6.3,20.7,10.6
								c1.4,1,2.6,1.8,3.6,2.6c0.9-0.2,1.9-0.6,3.2-0.9c0.2-0.1,0.3-0.1,0.5-0.2c0,0-0.1-0.1-0.1-0.1c0.1,0,0.1,0,0.2-0.1
								c1.5-0.4,3.2-1.2,5.1-2.3c0.3-0.2,0.5-0.3,0.6-0.4c0.1,0.2,0.3,0.3,0.4,0.4c0.1,0.1,0.2,0.2,0.3,0.3c0.1,0,0.2-0.1,0.3-0.1
								c0.7-0.3,1.5-0.6,2.3-0.9c-1-1.5-2.4-3.1-4.2-4.8c-6.2-5.8-13.4-10.4-21.6-13.9c-6.4-2.7-13.1-4.7-20.1-5.8
								C-232.2,106.1-234.1,108.9-235.4,111 M-238.4,117c-0.2,0.5-0.4,1-0.6,1.6c0.5,0.1,0.9,0.3,1.4,0.4c3.9,1.2,7.4,2.4,10.6,3.8
								c6.9,2.9,12.8,6.4,17.6,10.4c0.5,0,1.1-0.1,1.7-0.1c-2.7-2.8-6.1-5.4-10.1-7.6c-3.6-2-8.1-4.1-13.6-6.1
								C-234.1,118.4-236.4,117.6-238.4,117 M-153,109.1c0.2-0.1,0.4-0.3,0.6-0.5c-0.7-1.2-1.5-2.4-2.6-3.6
								c-1.4-1.6-3.1-3.2-5.2-4.8c-9.9-7.8-22.9-13.3-38.8-16.5c-3.4-0.7-6.7-1.2-9.8-1.6c-0.6,0.5-1.2,1-2,1.5
								c2.1,0.3,4,0.6,5.8,0.8c6.3,1,12.1,2.3,17.2,3.8c12.6,3.7,22.9,9.3,30.7,16.7C-156,105.9-154.7,107.2-153,109.1
								 M-192.9,102.4c5.6,1.9,10.8,4.2,15.6,6.9c4.3,2.4,8.2,5.2,11.7,8.2c0.3-0.2,0.5-0.3,0.8-0.5c0.7-0.4,1.3-0.8,1.9-1.2
								c-0.1-0.1-0.2-0.2-0.3-0.3c0.6-0.2,1.2-0.4,1.7-0.6c1.9-1.2,3.5-2.2,4.7-3c-0.2-0.3-0.4-0.6-0.6-0.9c-1.2-1.5-2.7-3-4.7-4.7
								c-9.1-7.7-20.7-13.6-34.9-17.5c-6.1-1.7-11.6-2.7-16.5-3c-0.4,0.3-0.8,0.7-1.3,1c-1.5,1.2-2.6,2-3.1,2.4c0.1,0,0.2,0,0.3,0
								c-0.3,0.3-0.6,0.6-1.1,1.1c-0.6,0.6-1.5,1.4-2.7,2.4c-0.1,0-0.1,0-0.2,0c-0.7,0.8-1.5,1.6-2.2,2.5c-0.2,0.3-0.5,0.6-0.7,0.9
								c5.5,0.6,10.6,1.3,15.2,2.1C-203.5,99.3-198,100.7-192.9,102.4 M-200.7,108c5,1.9,9.7,4.4,14.2,7.4c3.7,2.4,7.1,5.2,10.2,8.2
								c0.3-0.2,0.7-0.4,1.1-0.6c0,0,0.1,0,0.1-0.1c-1.1-1.2-2.3-2.5-3.7-3.7c-6.5-5.9-14.8-10.6-24.7-14c-4.2-1.4-8.8-2.7-13.8-3.8
								c-3-0.7-6.3-1.3-10-1.9c-0.3,0.4-0.7,0.9-1.1,1.4c3.2,0.7,7.5,1.6,12.9,2.7C-209.7,105-204.8,106.4-200.7,108z"/>
						</g>
					</g>
				</g>
			</g>
		</g>
		<g>
			<g transform="matrix( 1, 0, 0, 1, 0,0) ">
				<g>
					<g id="Layer0_5_MEMBER_20_FILL">
						<path class="st50" d="M-199.2,80c-0.2,0.4-0.2,0.9-0.2,1.5c0,0.5,0.2,1,0.4,1.6c0.1,0.4,0.3,0.9,0.6,1.5
							c0.3,0.7,0.6,1.2,0.8,1.6c0.3,0.6,0.7,1,1.2,1.3c0.4,0.3,0.8,0.5,1.3,0.5c0.3,0,0.7-0.1,1.1-0.3c0.5-0.3,0.8-0.6,1.1-1.1
							c0.3-0.5,0.4-1,0.3-1.5c0-0.1,0-0.3-0.1-0.5c-0.1-0.3-0.1-0.5-0.1-0.5c-0.1-0.5-0.1-0.9-0.1-1.1c-0.1-1.3-0.6-2.4-1.3-3.4
							c-0.3-0.5-0.7-0.8-1-0.9c-0.5-0.3-1-0.4-1.6-0.3c-0.5,0.1-1,0.3-1.5,0.7C-198.7,79.2-199,79.6-199.2,80z"/>
					</g>
				</g>
			</g>
			<g transform="matrix( 1, 0, 0, 1, 0,0) ">
				<g>
					<g id="Layer0_5_MEMBER_21_FILL">
						<path class="st50" d="M-199.5,83.2c-0.6-0.3-1.3-0.5-2-0.5c-0.5,0-0.9,0.1-1.2,0.3c-0.3,0.2-0.6,0.5-0.7,1
							c-0.3,0.8-0.3,1.7,0.1,2.6c0.1,0.3,0.3,0.5,0.4,0.8c0.3,0.4,0.6,0.8,0.9,1c0.6,0.5,1.3,0.8,2.1,1c0.5,0.1,1,0.1,1.5,0
							c0.5-0.1,0.9-0.4,1.2-0.8c0.1-0.2,0.2-0.4,0.3-0.8c0.1-0.4,0.1-0.7,0.1-0.8c0-0.2-0.1-0.6-0.4-1.1l-0.3-0.6
							c-0.2-0.3-0.3-0.6-0.5-0.8C-198.4,83.9-198.9,83.5-199.5,83.2z"/>
					</g>
				</g>
			</g>
			<g transform="matrix( 0.675048828125, 0.1773834228515625, -0.0756683349609375, 0.88934326171875, 132,34.45) ">
				<g>
					<g id="Layer0_5_MEMBER_18_MEMBER_0_FILL">
						<path class="st50" d="M-430.9,141.6c-0.6,0.2-1.2,0.5-1.7,0.9c-0.5,0.4-1.1,1.1-1.8,2.1c-0.3,0.5-0.7,1-1.1,1.8
							c-0.3,0.5-0.5,0.9-0.6,1.2c-0.2,0.7-0.4,1.5-0.3,2.5c0,0.6,0.1,1.1,0.4,1.3c0.1,0.1,0.2,0.2,0.4,0.3c0.1,0.1,0.2,0.1,0.4,0.3
							c0.1,0.1,0.2,0.2,0.4,0.4c0.2,0.1,0.3,0.2,0.5,0.3c0.3,0.1,0.8,0,1.4-0.3c1-0.5,1.9-1,2.8-1.6c1.2-0.8,2.1-1.7,2.7-2.5
							c0.6-0.8,0.9-1.7,1-2.7c0.1-1-0.1-2-0.6-2.8c-0.2-0.3-0.4-0.6-0.7-0.8c-0.3-0.2-0.7-0.4-1.3-0.4
							C-429.6,141.4-430.3,141.4-430.9,141.6z"/>
					</g>
				</g>
			</g>
			<g transform="matrix( 1.1644287109375, 0, 0, 1, -61.2,-8.1) ">
				<g>
					<g id="Layer0_5_MEMBER_18_MEMBER_1_FILL">
						<path class="st50" d="M-88.4,93.8c-0.6,0.2-1.2,0.5-1.7,0.9c-0.5,0.4-1.1,1.1-1.8,2.1c-0.3,0.5-0.7,1-1.1,1.8
							c-0.3,0.5-0.5,0.9-0.6,1.2c-0.2,0.7-0.4,1.5-0.3,2.5c0,0.6,0.1,1,0.4,1.3c0.1,0.1,0.2,0.2,0.4,0.3c0.1,0.1,0.2,0.1,0.4,0.3
							c0.1,0.1,0.2,0.2,0.4,0.4c0.2,0.1,0.3,0.2,0.5,0.3c0.3,0.1,0.8,0,1.4-0.3c1-0.5,1.9-1,2.8-1.6c1.2-0.8,2.1-1.7,2.7-2.5
							c0.6-0.8,0.9-1.7,1-2.7c0.1-1-0.1-2-0.6-2.8c-0.2-0.3-0.4-0.6-0.7-0.8c-0.3-0.2-0.7-0.4-1.3-0.4
							C-87.1,93.6-87.8,93.6-88.4,93.8z"/>
					</g>
				</g>
			</g>
			<g transform="matrix( 1, 0, 0, 1, 0,0) ">
				<g>
					<g id="Layer0_5_MEMBER_18_MEMBER_2_FILL">
						<path class="st50" d="M-159.5,88.5c-0.6,0.2-1.2,0.5-1.7,0.9c-0.5,0.4-1.1,1.1-1.8,2.1c-0.3,0.5-0.7,1-1.1,1.8
							c-0.3,0.5-0.5,0.9-0.6,1.2c-0.2,0.7-0.4,1.5-0.3,2.5c0,0.6,0.1,1.1,0.4,1.3c0.1,0.1,0.2,0.2,0.4,0.3c0.1,0.1,0.2,0.1,0.4,0.3
							c0.1,0.1,0.2,0.2,0.4,0.4c0.2,0.1,0.3,0.2,0.5,0.3c0.3,0.1,0.8,0,1.4-0.3c1-0.5,1.9-1,2.8-1.6c1.2-0.8,2.1-1.7,2.7-2.5
							c0.6-0.8,0.9-1.7,1-2.7c0.1-1-0.1-2-0.6-2.8c-0.2-0.3-0.4-0.6-0.7-0.8c-0.3-0.2-0.7-0.4-1.3-0.4
							C-158.2,88.2-158.9,88.3-159.5,88.5z"/>
					</g>
				</g>
			</g>
			<g transform="matrix( 1, 0, 0, 1, 0,0) ">
				<g>
					<g id="Layer0_5_MEMBER_19_FILL">
						<path class="st50" d="M-193.4,84.3c0,0.5,0,0.8,0.1,1.1c0,0.2,0.1,0.5,0.3,1c0.4,0.8,0.7,1.3,1.2,1.6c0.3,0.1,0.7,0.2,1.2,0.2
							c0.4,0,0.6-0.1,0.9-0.2c0.4-0.2,0.8-0.5,1.2-1.1c0.2-0.4,0.4-0.7,0.5-1c0.1-0.4,0.2-0.8,0.3-1c0.3-0.7,0.5-1.2,0.6-1.6
							c0.2-0.6,0.3-1.1,0.3-1.6c0-0.2,0-0.4-0.1-0.8c0-0.3-0.1-0.6-0.2-0.8c-0.2-0.5-0.7-0.9-1.3-1.1c-0.4-0.1-1-0.2-1.7-0.1
							c-0.5,0.1-1.1,0.2-1.5,0.4c-0.5,0.3-0.9,0.6-1.2,1.1c-0.2,0.4-0.3,0.8-0.4,1.5C-193.4,82.6-193.4,83.4-193.4,84.3z"/>
					</g>
				</g>
			</g>
		</g>
	</g>
</g>
<g>
	<path class="st62" d="M106.1,46.5l0-2.8l-53.9-1.1c-2.6,22.1-6,43.9-10.3,65.5l0.7,0c-0.3,1.3-0.6,2.6-0.9,3.9l62.4,5.8l6-71.4
		C108.6,46.5,107.7,46.5,106.1,46.5z"/>
	<g transform="matrix( 0.999542236328125, 0.027099609375, -0.027099609375, 0.999542236328125, 1012.3,495.45) ">
		<g>
			<g id="Layer0_0_MEMBER_1_FILL">
				<path class="st63" d="M-969.6-424.3c-2.6,22.1-6,43.9-10.3,65.5l59.7,4l4.5-68.4C-933.8-422.4-951.8-422.8-969.6-424.3z"/>
			</g>
		</g>
	</g>
	<g transform="matrix( 0.9995269775390625, 0.0270843505859375, -0.0270843505859375, 0.9995269775390625, 1012.3,495.45) ">
		<g transform="matrix( 0.999725341796875, -0.0270843505859375, 0.0270843505859375, 0.999725341796875, -1025.45,-467.85) ">
			<path id="Layer0_0_MEMBER_1_MEMBER_0_1_STROKES" class="st64" d="M-970.9-406.3l52.4,1.5 M-970.6-408.8l52.2,1.4 M-970.2-411.2
				l52,1.3 M-969.9-413.6l51.9,1.3 M-969.6-416.1l51.7,1.2 M-969.2-418.5l51.5,1.2 M-971.3-403.8l52.6,1.5 M-971.6-401.3l52.7,1.6
				 M-972-398.8l52.9,1.6 M-972.3-396.3l53.1,1.7 M-972.7-393.7l53.3,1.7 M-973-391.1l53.4,1.8 M-973.4-388.6l53.6,1.9
				 M-973.8-385.9l53.8,1.9 M-974.1-383.3l54,2 M-974.5-380.7l54.2,2 M-974.9-378l54.3,2.1 M-975.3-375.3l54.5,2.2 M-975.6-372.6
				l54.7,2.2 M-976-369.9l54.9,2.3 M-976.4-367.2l55.1,2.4 M-976.8-364.5l55.3,2.5"/>
		</g>
	</g>
	<g transform="matrix( 0.99951171875, 0.0270843505859375, -0.1514892578125, 0.9961090087890625, 1002.7,495.15) ">
		<g transform="matrix( 0.996368408203125, -0.0270843505859375, 0.151519775390625, 0.9997711181640625, -1074.1,-467.85) ">
			<path id="Layer0_0_MEMBER_1_MEMBER_0_MEMBER_0_1_STROKES" class="st65" d="M-1006.6-422l0,61.9"/>
		</g>
	</g>
	<g transform="matrix( 1, 0, 0, 1, 988.7,463.85) ">
		<g>
			<g id="Layer0_0_MEMBER_3_FILL">
				<path class="st58" d="M-889-353.8l4.5-68.4l-53.9-1.1c-2.6,22.1-6,43.9-10.3,65.5L-889-353.8z"/>
			</g>
		</g>
	</g>
	<g transform="matrix( 1, 0, 0, 1, 988.7,463.85) ">
		<g>
			<path id="Layer0_0_MEMBER_3_MEMBER_0_1_STROKES" class="st66" d="M-945.6-363.4l55.3,2.5 M-945.3-366.2l55.1,2.4 M-944.9-368.9
				l54.9,2.3 M-944.5-371.6l54.7,2.2 M-944.1-374.3l54.5,2.2 M-943.8-377l54.3,2.1 M-943.4-379.6l54.2,2 M-943-382.3l54,2
				 M-942.7-384.9l53.8,1.9 M-942.3-387.5l53.6,1.9 M-941.9-390.1l53.4,1.8 M-941.6-392.6l53.3,1.7 M-941.2-395.2l53.1,1.7
				 M-940.8-397.7l52.9,1.6 M-940.5-400.3l52.7,1.6 M-940.2-402.7l52.6,1.5 M-938.1-417.4l51.5,1.2 M-938.4-415l51.7,1.2
				 M-938.8-412.6l51.9,1.3 M-939.1-410.1l52,1.3 M-939.5-407.7l52.2,1.4 M-939.8-405.2l52.4,1.5"/>
		</g>
	</g>
	<g transform="matrix( 1, 0, -0.124481201171875, 1, 979,463.85) ">
		<g>
			<path id="Layer0_0_MEMBER_3_MEMBER_0_MEMBER_0_1_STROKES" class="st67" d="M-975.2-420.9v61.9"/>
		</g>
	</g>
	<g transform="matrix( 1, 0, 0, 1, 0,0) ">
		<g>
			<g id="Layer0_1_MEMBER_0_FILL">
				<path class="st68" d="M40,78.3l-1.2,2l4.1,3l3.7-0.9L70.4,61c1.1-2.5,2.5-5.1,4.2-7.8c0.5-0.7,1-1.6,1.6-2.5l-1.5-0.1
					c-0.3,0.2-0.7,0.6-1.3,0.9c-1.5,1.1-2.8,2-3.7,2.6c-1.8,1.1-3.5,1.9-5,2.3L40,78.3z"/>
			</g>
		</g>
	</g>
	<g transform="matrix( 2.14617919921875, 1.5845489501953125, -1.5845489501953125, 2.14617919921875, 1457.45,1141) ">
		<g>
			<g id="Layer0_1_MEMBER_1_FILL">
				<path class="st47" d="M-662.3-6.8l-1.5-0.2l-1.1,0.9l0.8,1.1l0,0l1.9,0l0.5-0.8L-662.3-6.8 M-663.6-6.1c0.1-0.1,0.2-0.1,0.3-0.1
					c0.1,0,0.2,0,0.3,0.1c0.1,0.1,0.2,0.2,0.2,0.3c0,0.1,0,0.2-0.1,0.3c-0.1,0.1-0.2,0.1-0.3,0.1c-0.1,0-0.2,0-0.3-0.1
					c-0.1-0.1-0.2-0.1-0.2-0.2C-663.7-5.9-663.7-6-663.6-6.1 M-659.2-17.4c-0.2-1-0.4-2.1-0.5-3.3c-0.2,0.1-0.5,0-0.7-0.3
					c-0.3,0.8-0.9,1.8-1.8,2.9c0.3,0.1,0.6-0.2,0.9-0.8c0.3,0.7,0.8,0.8,1.4,0.4C-659.8-17.7-659.5-17.4-659.2-17.4z"/>
				<path class="st57" d="M-663.3-6.2c-0.1,0-0.2,0-0.3,0.1c-0.1,0.1-0.1,0.2-0.1,0.3c0,0.1,0.1,0.2,0.2,0.2
					c0.1,0.1,0.2,0.1,0.3,0.1c0.1,0,0.2,0,0.3-0.1c0.1-0.1,0.1-0.2,0.1-0.3c0-0.1-0.1-0.2-0.2-0.3C-663.1-6.2-663.2-6.2-663.3-6.2
					 M-659.8-21.9l-0.5,0.3c0,0.2-0.1,0.4-0.2,0.6c0.2,0.3,0.5,0.4,0.7,0.3C-659.7-21.1-659.8-21.5-659.8-21.9z"/>
				<path class="st60" d="M-661.3-18.9c-0.3,0.6-0.7,0.9-0.9,0.8l-2.7,12l1.1-0.9L-661.3-18.9z"/>
				<path class="st69" d="M-659.9-18.5c-0.6,0.4-1.1,0.3-1.4-0.4l-2.5,12l1.5,0.2L-659.9-18.5z"/>
				<path class="st60" d="M-659.2-17.4c-0.3,0-0.5-0.3-0.6-1l-2.4,11.7l0.6,1.1L-659.2-17.4z"/>
			</g>
		</g>
	</g>
</g>
</svg>
