<svg id="Calque_1" data-name="Calque 1" xmlns="http://www.w3.org/2000/svg" viewBox="0 0 400 400"><defs><style>.cls-1{opacity:0.5;}.cls-2{fill:#f0f4fb;}.cls-3{fill:#e6d3cb;}.cls-4{fill:#c2a89d;}</style></defs><title>Plan de travail 21</title><g class="cls-1"><g id="Layer0_12_MEMBER_6_FILL" data-name="Layer0 12 MEMBER 6 FILL"><path class="cls-2" d="M109.18,239.48a20.12,20.12,0,0,0-2.72-3.48q-6.72-7.32-13.84-8.19a23.82,23.82,0,0,0-7.65.6,25.66,25.66,0,0,0-8.08,2.93A26.75,26.75,0,0,0,70.54,237a24.58,24.58,0,0,0-4.67,7.65,16.88,16.88,0,0,0,4.18,17.1q4.73,4.5,14.76,6.24a31.42,31.42,0,0,0,6.46.6,16.56,16.56,0,0,0,6.56-1.74,18.35,18.35,0,0,0,5.38-4.07,26.7,26.7,0,0,0,3.47-5.05,29.08,29.08,0,0,0,3.64-8.9A13.38,13.38,0,0,0,109.18,239.48Z"/></g></g><g id="Layer0_0_FILL" data-name="Layer0 0 FILL"><path class="cls-3" d="M98.22,240.47a27.62,27.62,0,0,0-8.08-4.58,6.31,6.31,0,0,0-2.42-.44,4.36,4.36,0,0,0-1.27,0,12.12,12.12,0,0,0-3.6,1.1,48.82,48.82,0,0,0-7.64,4.42,4.16,4.16,0,0,0-2.09,4.42c0,.2,0,.41,0,.62s0,.38,0,.59a52.52,52.52,0,0,0,.24,6.18,16.64,16.64,0,0,0,.34,2.33,7.19,7.19,0,0,0,.89,2.16,6.36,6.36,0,0,0,2.25,2,9.67,9.67,0,0,0,2.89,1,20.9,20.9,0,0,0,3.06.31l3.06.09c.62,0,1.52.1,2.72.2a24.91,24.91,0,0,0,2.71,0,7.45,7.45,0,0,0,5-1.94,10.21,10.21,0,0,0,1.93-3.17,26.9,26.9,0,0,0,2.43-10.34,6.47,6.47,0,0,0-.65-3.19A7.48,7.48,0,0,0,98.22,240.47Z"/></g><g class="cls-1"><g id="Layer0_0_MEMBER_0_FILL" data-name="Layer0 0 MEMBER 0 FILL"><path class="cls-4" d="M95.21,244.82a27.69,27.69,0,0,0-4.36-2.38,8.3,8.3,0,0,0-3.31-.58c-1.12,0-2.86.88-5.2,2.52a49.13,49.13,0,0,0-4.62,3.53,16,16,0,0,0-2.3,2.72c-.77,1.5-1,3.82-.59,6.93a6.6,6.6,0,0,0,2,1.69,9.67,9.67,0,0,0,2.89,1,20.9,20.9,0,0,0,3.06.31l3.06.09c.62,0,1.52.1,2.72.2a24.91,24.91,0,0,0,2.71,0,7.45,7.45,0,0,0,5-1.94,10.21,10.21,0,0,0,1.93-3.17,31.79,31.79,0,0,0,2-6.28A18.62,18.62,0,0,0,95.21,244.82Z"/></g></g><g id="Layer0_0_MEMBER_1_FILL" data-name="Layer0 0 MEMBER 1 FILL"><path class="cls-4" d="M75.73,248.89a6.63,6.63,0,0,0-.42,1.68,6.44,6.44,0,0,0,.6,3.57,3.27,3.27,0,0,0,.67,1,3.14,3.14,0,0,0,2,.81,5.33,5.33,0,0,0,2.1-.32,4.76,4.76,0,0,0,2.06-1.31,5.12,5.12,0,0,0,1.11-3.34,3.41,3.41,0,0,0-.09-.93,5.44,5.44,0,0,0-.48-.94l-.63-.94A4.73,4.73,0,0,0,81,246.55a3.77,3.77,0,0,0-3.06,0,3.23,3.23,0,0,0-1,.51,3.68,3.68,0,0,0-.49.6,6,6,0,0,0-.74,1.23M82.65,252a5.73,5.73,0,0,0,.29-1.07,6.35,6.35,0,0,0,.07-.85,4.56,4.56,0,0,1,.23.51,2.5,2.5,0,0,1,0,1.21c-.1.41-.18.71-.25.91a2.72,2.72,0,0,1-.26.63,3.93,3.93,0,0,1-.78.83,5.47,5.47,0,0,1-1.32.89,5.81,5.81,0,0,1-.85.22,2.94,2.94,0,0,1-1.67-.09.22.22,0,0,1-.12-.11l0,0,.36,0a4.59,4.59,0,0,0,1.12-.17,4.7,4.7,0,0,0,1.09-.43,3.17,3.17,0,0,0,.62-.38,5.31,5.31,0,0,0,.78-.87,1.65,1.65,0,0,0,.21-.27.28.28,0,0,0,0-.11,6.17,6.17,0,0,0,.49-.85m11.82-.74a4.09,4.09,0,0,0-2.57-.17,3.43,3.43,0,0,0-1.43.53,2.83,2.83,0,0,0-.56.58A4.72,4.72,0,0,0,89,254a2.58,2.58,0,0,0,0,1,1.87,1.87,0,0,0,.09.56,1.92,1.92,0,0,0,.4.67A3.52,3.52,0,0,0,91,257.31a2.66,2.66,0,0,0,1,.16,2.93,2.93,0,0,0,.79-.13,4,4,0,0,0,.91-.3,3.5,3.5,0,0,0,.72-.46,4.52,4.52,0,0,0,.6-.47,3.94,3.94,0,0,0,.69-.77,4.45,4.45,0,0,0,.36-1,3.16,3.16,0,0,0,.16-1,1.89,1.89,0,0,0-.34-.91,1.47,1.47,0,0,0-.47-.69,2.66,2.66,0,0,0-.78-.45l-.11,0m.51,1.25a.9.9,0,0,1,.43.5,1.68,1.68,0,0,1,.07.89l0,.31-.13.38a2.86,2.86,0,0,1-.32.51,4.85,4.85,0,0,1-.35.43,3.84,3.84,0,0,1-1.48,1,3.76,3.76,0,0,1-1.78.26,1.06,1.06,0,0,1-.41-.11h.2a4.42,4.42,0,0,0,2.1-.76,4.47,4.47,0,0,0,1.26-1.09,3.84,3.84,0,0,0,.33-.52,2.6,2.6,0,0,0,.27-1.09,1.7,1.7,0,0,0-.16-.74m-4.8-12.41a3.76,3.76,0,0,0-1.85.35,2.14,2.14,0,0,0-.67.67,1.54,1.54,0,0,0-.27.56,3.29,3.29,0,0,0-.13.65,3.84,3.84,0,0,0,.77,1.74,3.29,3.29,0,0,0,2.39,1.57,3,3,0,0,0,1.91-.32,2.47,2.47,0,0,0,1.29-1.58,2.5,2.5,0,0,0-.2-2,6.41,6.41,0,0,0-.36-.56,2.91,2.91,0,0,0-.73-.65,3.33,3.33,0,0,0-.79-.31,9.68,9.68,0,0,0-1.36-.11m2.1,1.25a2.61,2.61,0,0,1,.31.27l.29.37a1.89,1.89,0,0,1,.34.85,1.86,1.86,0,0,1-.14,1.05,2.6,2.6,0,0,1-.67.85,2.63,2.63,0,0,1-.47.27,2.2,2.2,0,0,1-.66.16h-.09l.09,0a3.35,3.35,0,0,0,.71-.56,2.68,2.68,0,0,0,.58-.78c0-.05.08-.24.16-.56a3.25,3.25,0,0,0,.08-.58,2.23,2.23,0,0,0-.15-.56A3.76,3.76,0,0,0,92.28,241.39Z"/></g></svg>