<svg id="Calque_1" data-name="Calque 1" xmlns="http://www.w3.org/2000/svg" viewBox="0 0 400 400"><defs><style>.cls-1{opacity:0.5;}.cls-2{fill:#f0f4fb;}.cls-3{fill:#e6d3cb;}.cls-4{fill:#c2a89d;}</style></defs><title>Plan de travail 22</title><g class="cls-1"><g id="Layer0_12_MEMBER_6_FILL" data-name="Layer0 12 MEMBER 6 FILL"><path class="cls-2" d="M191.58,185.07a23.74,23.74,0,0,0-3.15-4q-7.81-8.5-16.07-9.51a27.77,27.77,0,0,0-8.88.69,30.23,30.23,0,0,0-9.39,3.41,31.31,31.31,0,0,0-7.37,6.55,28.56,28.56,0,0,0-5.42,8.88,19.55,19.55,0,0,0,4.85,19.85q5.49,5.22,17.14,7.24a35.5,35.5,0,0,0,7.5.69,19.12,19.12,0,0,0,7.62-2,21.39,21.39,0,0,0,6.24-4.73,30.78,30.78,0,0,0,4-5.86,33.59,33.59,0,0,0,4.22-10.33A15.49,15.49,0,0,0,191.58,185.07Z"/></g></g><g id="Layer0_1_FILL" data-name="Layer0 1 FILL"><path class="cls-3" d="M155.71,182.67a7.64,7.64,0,0,0-1.76,2.92,41.05,41.05,0,0,0-2.78,10.6,7.35,7.35,0,0,0,.2,3.16,6.94,6.94,0,0,0,2.29,2.76,20,20,0,0,0,7.1,3.87,19.74,19.74,0,0,0,4.07.67c.87.07,2.24.11,4.14.12a11.87,11.87,0,0,0,3.2-.32,11.12,11.12,0,0,0,2.84-1.68,12.6,12.6,0,0,0,2.55-2.4,8.93,8.93,0,0,0,1.17-2.29,22.78,22.78,0,0,0,.69-2.53,38.71,38.71,0,0,0,1.12-7.07,4.73,4.73,0,0,0-.51-2.86A4.87,4.87,0,0,0,178,186a32.93,32.93,0,0,0-7.31-2.48L163,182c-1-.2-1.67-.31-1.89-.34a9.35,9.35,0,0,0-1.88-.16A5.33,5.33,0,0,0,155.71,182.67Z"/></g><g class="cls-1"><g id="Layer0_1_MEMBER_0_FILL" data-name="Layer0 1 MEMBER 0 FILL"><path class="cls-4" d="M162.56,187.48a8,8,0,0,0-3,.65,8.64,8.64,0,0,0-3.89,4.23,15,15,0,0,0-1.66,8.51,12.26,12.26,0,0,0,.3,1.73,19.39,19.39,0,0,0,6.49,3.38,19.74,19.74,0,0,0,4.07.67c.87.07,2.24.11,4.14.12a11.87,11.87,0,0,0,3.2-.32,11.12,11.12,0,0,0,2.84-1.68,12.6,12.6,0,0,0,2.55-2.4,8.93,8.93,0,0,0,1.17-2.29,22.78,22.78,0,0,0,.69-2.53c.19-.81.35-1.58.49-2.31a6.42,6.42,0,0,0-1.4-1.74,15.91,15.91,0,0,0-3.08-2.09,35.44,35.44,0,0,0-6.22-2.88A18,18,0,0,0,162.56,187.48Z"/></g></g><g id="Layer0_1_MEMBER_1_FILL" data-name="Layer0 1 MEMBER 1 FILL"><path class="cls-4" d="M155.12,194.31a1.4,1.4,0,0,0-.22.42,3.17,3.17,0,0,0-.08.53,2.79,2.79,0,0,0,.59,1.34,2.55,2.55,0,0,0,1.86,1.21,2.37,2.37,0,0,0,1.48-.26,1.9,1.9,0,0,0,1-1.22,1.94,1.94,0,0,0-.16-1.56,3.12,3.12,0,0,0-.28-.42,2.44,2.44,0,0,0-.55-.51,2.78,2.78,0,0,0-.63-.24,4.93,4.93,0,0,0-1-.08,2.86,2.86,0,0,0-1.46.26,1.85,1.85,0,0,0-.51.53m3.81.38.23.29a1.68,1.68,0,0,1,.28.65,1.44,1.44,0,0,1-.12.81,1.87,1.87,0,0,1-.53.66,1.14,1.14,0,0,1-.36.21,2.36,2.36,0,0,1-.51.14h-.06l.06,0a2.25,2.25,0,0,0,.55-.43,2.15,2.15,0,0,0,.46-.61,3.39,3.39,0,0,0,.12-.42,2.4,2.4,0,0,0,.06-.47,1.36,1.36,0,0,0-.12-.42,2.52,2.52,0,0,0-.28-.57,1,1,0,0,1,.22.2m15.47.19a6.77,6.77,0,0,0-2.48-1.77,7.74,7.74,0,0,0-4.68,0,5.51,5.51,0,0,0-1.46.57,4,4,0,0,0-.75.67,6.67,6.67,0,0,0-1.13,1.38,5.2,5.2,0,0,0-.63,1.88,5.49,5.49,0,0,0,.91,4,3.57,3.57,0,0,0,1,1.08,5.81,5.81,0,0,0,3,.91,11.19,11.19,0,0,0,3.21-.36,8,8,0,0,0,3.14-1.46,4.93,4.93,0,0,0,1.7-3.75,2.9,2.9,0,0,0-.14-1,5.76,5.76,0,0,0-.73-1l-1-1.05m.63,2.22a4.41,4.41,0,0,1,.34.57,2.13,2.13,0,0,1,0,1.36,5.12,5.12,0,0,1-.41,1,2,2,0,0,1-.38.71,5.44,5.44,0,0,1-1.18.94,6.56,6.56,0,0,1-3.32,1.23,6,6,0,0,1-2.55-.1.39.39,0,0,1-.19-.12v0l.53,0a10.53,10.53,0,0,0,1.7-.18,8.43,8.43,0,0,0,1.66-.49,5.2,5.2,0,0,0,1-.43,7.2,7.2,0,0,0,1.17-.95l.35-.32a.31.31,0,0,1,.08-.1,6.5,6.5,0,0,0,.71-1,4.22,4.22,0,0,0,.44-1.19,5.56,5.56,0,0,0,.13-1m-14.44-10.54a4.47,4.47,0,0,0-.79,1.55,2.61,2.61,0,0,0,0,.87,1.59,1.59,0,0,0,.43,1.07,3,3,0,0,0,1.36.95,2.22,2.22,0,0,0,.83.15,2.86,2.86,0,0,0,.69-.11,3.59,3.59,0,0,0,.79-.28,2.69,2.69,0,0,0,.65-.38,4.31,4.31,0,0,0,.5-.41,3.11,3.11,0,0,0,.61-.69,3.35,3.35,0,0,0,.33-.83,3.27,3.27,0,0,0,.14-.87,1.7,1.7,0,0,0-.29-.77,1.43,1.43,0,0,0-.42-.63,2.88,2.88,0,0,0-.67-.39l-.12,0a3.49,3.49,0,0,0-2.25-.14,3.41,3.41,0,0,0-1.26.45,3.9,3.9,0,0,0-.49.5m4.46.29a.74.74,0,0,1,.37.42,1.64,1.64,0,0,1,.06.79l0,.27-.12.32a2.28,2.28,0,0,1-.29.45c-.16.21-.26.34-.3.38a3.28,3.28,0,0,1-1.3.92,3.35,3.35,0,0,1-1.56.22,1.07,1.07,0,0,1-.36-.08l.18,0a4,4,0,0,0,1.84-.67,3.93,3.93,0,0,0,1.1-.95,3.52,3.52,0,0,0,.3-.45,2.44,2.44,0,0,0,.22-.95A1.64,1.64,0,0,0,165.05,186.85Z"/></g></svg>