<svg id="Calque_1" data-name="Calque 1" xmlns="http://www.w3.org/2000/svg" viewBox="0 0 400 400"><defs><style>.cls-1{opacity:0.5;}.cls-2{fill:#f0f4fb;}.cls-3{fill:#e6d3cb;}.cls-4{fill:#c2a89d;}</style></defs><title>Plan de travail 23</title><g class="cls-1"><g id="Layer0_12_MEMBER_6_FILL" data-name="Layer0 12 MEMBER 6 FILL"><path class="cls-2" d="M231.07,242.74a17.9,17.9,0,0,0-2.32-3q-5.75-6.26-11.82-7a20.06,20.06,0,0,0-6.54.51,22,22,0,0,0-6.9,2.5,23,23,0,0,0-5.43,4.82,21.11,21.11,0,0,0-4,6.54,13.78,13.78,0,0,0-.28,7.78,14,14,0,0,0,3.85,6.82c2.68,2.56,6.89,4.34,12.6,5.33a26.93,26.93,0,0,0,5.52.51,14.21,14.21,0,0,0,5.61-1.49,15.64,15.64,0,0,0,4.59-3.47,23.2,23.2,0,0,0,3-4.31,25,25,0,0,0,3.1-7.61A11.37,11.37,0,0,0,231.07,242.74Z"/></g></g><g id="Layer0_2_FILL" data-name="Layer0 2 FILL"><path class="cls-3" d="M204.94,242.92c-.55.84-1.33,2.13-2.32,3.87a14.12,14.12,0,0,0-1.24,2.55,5.87,5.87,0,0,0-.09,3.44q.77,2.66,4.14,4.53a11.51,11.51,0,0,0,7.74,1.53,14.35,14.35,0,0,0,4.48-1.85,9.69,9.69,0,0,0,2.19-1.68,9.19,9.19,0,0,0,1.34-2.26,13.22,13.22,0,0,0,1.22-4.27,6.94,6.94,0,0,0-.88-4.3,9.28,9.28,0,0,0-2.68-2.61,15.49,15.49,0,0,0-2.62-1.42,16.47,16.47,0,0,0-2.91-.87,8.16,8.16,0,0,0-5.3.26A8.65,8.65,0,0,0,204.94,242.92Z"/></g><g class="cls-1"><g id="Layer0_2_MEMBER_0_FILL" data-name="Layer0 2 MEMBER 0 FILL"><path class="cls-4" d="M202.38,249.93a9.76,9.76,0,0,0-.82,3.6,8.62,8.62,0,0,0,3.87,3.78,11.51,11.51,0,0,0,7.74,1.53,14.35,14.35,0,0,0,4.48-1.85,9.69,9.69,0,0,0,2.19-1.68,9.19,9.19,0,0,0,1.34-2.26l0-.12a12.11,12.11,0,0,0,0-1.81,11.17,11.17,0,0,0-1.84-5.52,3.87,3.87,0,0,0-1-1.12,4.87,4.87,0,0,0-1.55-.57,28.12,28.12,0,0,0-8.07-.54,6.29,6.29,0,0,0-2.41.57,4.17,4.17,0,0,0-.44.29Q204.3,245.36,202.38,249.93Z"/></g></g><g id="Layer0_2_MEMBER_1_FILL" data-name="Layer0 2 MEMBER 1 FILL"><path class="cls-4" d="M214.43,254.9a2.45,2.45,0,0,0,1.12.78,2.15,2.15,0,0,0,.66.12,1.9,1.9,0,0,0,.57-.1,2.73,2.73,0,0,0,.65-.22,2.29,2.29,0,0,0,.51-.32,2.75,2.75,0,0,0,.42-.32,2.71,2.71,0,0,0,.49-.56,2.76,2.76,0,0,0,.26-.68,2.33,2.33,0,0,0,.12-.7,1.21,1.21,0,0,0-.24-.64,1,1,0,0,0-.34-.5,1.8,1.8,0,0,0-.54-.32.26.26,0,0,1-.09-.05,3,3,0,0,0-1.83-.1,2.2,2.2,0,0,0-1,.37,2.24,2.24,0,0,0-.4.41,3.5,3.5,0,0,0-.65,1.25,1.78,1.78,0,0,0,0,.72,1.43,1.43,0,0,0,.06.39,1.3,1.3,0,0,0,.28.47m1.39.46a.68.68,0,0,1-.29-.07h.13a3.29,3.29,0,0,0,1.51-.55,3.16,3.16,0,0,0,.9-.76,2.26,2.26,0,0,0,.22-.37,1.83,1.83,0,0,0,.21-.78,1.47,1.47,0,0,0-.1-.53.66.66,0,0,1,.28.36,1.23,1.23,0,0,1,.06.62l0,.22-.1.28a3,3,0,0,1-.22.37,2.92,2.92,0,0,1-.26.3,2.82,2.82,0,0,1-2.32.92m1.13-12a2.06,2.06,0,0,0-.57-.22,6.5,6.5,0,0,0-1-.09,2.88,2.88,0,0,0-1.35.26,1.47,1.47,0,0,0-.5.49,1.21,1.21,0,0,0-.2.41,2.57,2.57,0,0,0-.08.49,2.65,2.65,0,0,0,.54,1.27,2.5,2.5,0,0,0,1.76,1.14,2.16,2.16,0,0,0,1.39-.24,1.8,1.8,0,0,0,.94-1.15,1.87,1.87,0,0,0-.14-1.48c0-.06-.12-.19-.27-.41a2.15,2.15,0,0,0-.53-.47m.24,1.15a3.4,3.4,0,0,0-.27-.54,1.37,1.37,0,0,1,.22.2l.2.26a1.53,1.53,0,0,1,.26.63,1.37,1.37,0,0,1-.1.76,1.89,1.89,0,0,1-.5.63,2.57,2.57,0,0,1-.33.18,1.31,1.31,0,0,1-.48.12l-.07,0,.07,0a2.33,2.33,0,0,0,.51-.41,1.84,1.84,0,0,0,.42-.58,1.34,1.34,0,0,0,.12-.41,1.93,1.93,0,0,0,0-.42,1.43,1.43,0,0,0-.1-.41m-10.48,2.56a2.83,2.83,0,0,0-.9.48,3.13,3.13,0,0,0-.46.56,5.53,5.53,0,0,0-.7,1.15,6,6,0,0,0-.39,1.58,6.11,6.11,0,0,0,.56,3.34,3.06,3.06,0,0,0,.63.9,2.93,2.93,0,0,0,1.83.77,5,5,0,0,0,2-.31,4.47,4.47,0,0,0,1.94-1.22,4.87,4.87,0,0,0,1-3.14,3.49,3.49,0,0,0-.08-.86,5.5,5.5,0,0,0-.45-.89l-.59-.88a4.43,4.43,0,0,0-1.53-1.48,3.54,3.54,0,0,0-2.86,0m.15,8.13a.18.18,0,0,1-.12-.1v0l.32,0a4.59,4.59,0,0,0,1.05-.15,4.46,4.46,0,0,0,1-.41,2.41,2.41,0,0,0,.58-.36,4.6,4.6,0,0,0,.73-.79l.2-.27a.41.41,0,0,1,.05-.09,5.17,5.17,0,0,0,.44-.81,4.73,4.73,0,0,0,.28-1,7,7,0,0,0,.06-.79,3.8,3.8,0,0,1,.22.47,2.47,2.47,0,0,1,0,1.14,7.21,7.21,0,0,1-.24.85,2.18,2.18,0,0,1-.23.59,3.74,3.74,0,0,1-.73.78,5.34,5.34,0,0,1-1.24.83,4.61,4.61,0,0,1-.8.21A2.73,2.73,0,0,1,206.86,255.24Z"/></g></svg>