<svg id="Calque_1" data-name="Calque 1" xmlns="http://www.w3.org/2000/svg" viewBox="0 0 140 140"><defs><style>.cls-1{fill:#947ab0;}.cls-2{fill:#d2def0;}.cls-2,.cls-3,.cls-4,.cls-8{fill-opacity:0.5;}.cls-3{fill:#faf7dc;}.cls-13,.cls-17,.cls-20,.cls-21,.cls-22,.cls-23,.cls-3,.cls-4,.cls-5,.cls-6,.cls-7,.cls-8,.cls-9{fill-rule:evenodd;}.cls-4{fill:#fffdee;}.cls-5{fill:#f7f4d3;}.cls-6{fill:#ece8ba;}.cls-7{fill:#dbd595;}.cls-8{fill:#f1f5fc;}.cls-9{fill:#69a3e2;}.cls-10{fill:#adce5b;}.cls-11,.cls-17,.cls-22{opacity:0.5;}.cls-12{fill:#3d72ab;}.cls-13,.cls-22,.cls-23{fill:#fff;}.cls-13{fill-opacity:0.75;}.cls-14{fill:#ff4e5e;}.cls-15{fill:#5c676d;}.cls-16{fill:#344e59;opacity:0.25;}.cls-17,.cls-24{fill:none;stroke-linecap:round;stroke-linejoin:round;}.cls-17{stroke:#fff;stroke-width:3.01px;}.cls-18,.cls-20{fill:#bcada2;}.cls-19{fill:#e5d2c6;}.cls-21{fill:#cbd0ec;}.cls-24{stroke:#f8b334;stroke-width:1.5px;}</style></defs><title>Plan de travail 1</title><path class="cls-1" d="M115.39,120.4a8.68,8.68,0,1,0,.08-17.35h-1.39a8.68,8.68,0,1,1,.08-17.36l7.87,0a8.68,8.68,0,1,0,.08-17.35l-14.8-.07A8.68,8.68,0,1,1,107.39,51L113,51a8.68,8.68,0,1,0,.09-17.35l-77.85-.37a8.68,8.68,0,1,0-.08,17.35l5.24,0A8.68,8.68,0,1,1,40.32,68l-28.84-.13a8.68,8.68,0,1,0-.08,17.35l6.57,0A8.71,8.71,0,0,1,26.62,94c0,4.77-2.95,8.66-6.51,8.64s-6.48,3.88-6.5,8.65A8.71,8.71,0,0,0,22.25,120l93.14.43Z"/><path class="cls-2" d="M104.71,35.85A86.32,86.32,0,0,0,66.9,32c-14.72,1.82-40.22,17.08-43.74,40.3S39.84,125.14,77,124s48.38-25.75,51.18-42.46S118.55,40.2,104.71,35.85Z"/><path class="cls-3" d="M137.11,95.15a10.83,10.83,0,0,1,.23,7.69,12.38,12.38,0,0,1-5.1,6.77q-3.83,2.61-10.07,1.85t-8-5.52a13.13,13.13,0,0,1-.2-9.13,11.45,11.45,0,0,1,5.82-6.59,14.17,14.17,0,0,1,8-1.82,12.6,12.6,0,0,1,5.77,1.79A11.16,11.16,0,0,1,137.11,95.15Z"/><path class="cls-4" d="M126.71,90.84A11.36,11.36,0,0,1,133,92.78a9.84,9.84,0,0,1,3.25,3.54,8.87,8.87,0,0,1,.49,4.84,8.57,8.57,0,0,1-2.91,5.39,10,10,0,0,1-6.22,2.66q-3.69.26-7.69-2.75t-3.33-7a10.51,10.51,0,0,1,3.5-6.39A9.21,9.21,0,0,1,126.71,90.84Z"/><path class="cls-5" d="M134.05,95.33a6.47,6.47,0,0,1,1.16,5.61,9.41,9.41,0,0,1-3.31,4.91A9.09,9.09,0,0,1,125,107.5c-2.86-.35-4.89-1.5-6.07-3.45a7.06,7.06,0,0,1-.28-6.53,8.94,8.94,0,0,1,4.47-5,9.75,9.75,0,0,1,6.42-.69A6.28,6.28,0,0,1,132,93.08,9.21,9.21,0,0,1,134.05,95.33Z"/><path class="cls-6" d="M135.21,100.94a6.47,6.47,0,0,0-1.16-5.61c-.11-.17-.25-.32-.37-.48a6.73,6.73,0,0,0-4.83-1c-9.32,1.55-10.35,9.31-8.53,11.83A8.7,8.7,0,0,0,125,107.5a9.09,9.09,0,0,0,6.86-1.65A9.41,9.41,0,0,0,135.21,100.94Z"/><path class="cls-6" d="M129.11,96.24a.26.26,0,0,1-.27-.17c0-.12-.05-.18-.05-.19a.88.88,0,0,1,.21-.42.73.73,0,0,1,.62-.34q.38,0,.39.33,0,.15-.36.48A1,1,0,0,1,129.11,96.24Zm-9.81,4.05c0-1.66.6-2.64,1.81-3a1.75,1.75,0,0,1,1.37.19c.45.26.62.92.52,2a4.69,4.69,0,0,1-.41,1.24c-.41.94-1,1.4-1.66,1.4a1.44,1.44,0,0,1-1.47-.83A2.58,2.58,0,0,1,119.3,100.29Zm4.87-1.81a3.82,3.82,0,0,1-.25,2.11,4.06,4.06,0,0,1-1.66,2.26c0,.05,0,0,0,0,.26-.36.51-.74.76-1.14a4.19,4.19,0,0,0,.77-2.3,3.29,3.29,0,0,0-.42-1.5,8.05,8.05,0,0,1-.42-.71,1.45,1.45,0,0,1,.47.16,1,1,0,0,1,.35.28A2.87,2.87,0,0,1,124.17,98.48Z"/><path class="cls-7" d="M129.46,94.81l.09,0q-.93.67-.93,1.11a.73.73,0,0,0,.15.33.64.64,0,0,1-.15.23c-.1.13-.19.19-.24.19h0V96.6s0-.13,0-.24,0-.1,0-.15a1.69,1.69,0,0,0,0-.23,3.46,3.46,0,0,1,.26-.5C128.91,95,129.19,94.75,129.46,94.81Zm.59.73a.82.82,0,0,1-.23.43.79.79,0,0,1-.59.32.49.49,0,0,1-.35-.1.16.16,0,0,1,0-.12s.14-.13.42-.29.42-.29.42-.42a.14.14,0,0,0-.05-.1l0,0c.17-.17.3-.17.39,0A.74.74,0,0,1,130.05,95.54Zm-.73,4.44a.7.7,0,0,1,.37-.09q.5,0,.45.33a.48.48,0,0,1-.17.32,1,1,0,0,1-.61.17c-.2,0-.31-.1-.31-.29,0,0,0,0,0-.07H129a.27.27,0,0,1-.26-.13.87.87,0,0,1,0-.13c0-.18.1-.28.31-.29S129.3,99.87,129.32,100Zm-.34.66c.08,0,.13,0,.16.14l0,.12-.12,0c-.08-.07-.13-.12-.13-.16S128.9,100.64,129,100.64Zm3.34-3.28a.52.52,0,0,1-.13-.28q0-.42.45-.3c.3.09.45.24.45.48a.42.42,0,0,1-.06.21.29.29,0,0,1-.25.12A.59.59,0,0,1,132.32,97.36Zm-8.16-3v0a.52.52,0,0,1-.38.15.27.27,0,0,1-.26-.13c0-.09-.05-.14-.05-.15,0-.23.14-.36.41-.39s.33,0,.37.17a1,1,0,0,1,.23-.11c.23-.07.35,0,.35.19a.41.41,0,0,1-.12.24.38.38,0,0,1-.33.18A.21.21,0,0,1,124.16,94.35Zm-4.38,6.79a1.36,1.36,0,0,0,1,.71,2.08,2.08,0,0,0,1.34-.42.31.31,0,0,1,0,.13c0,.16-.17.35-.52.59a2.28,2.28,0,0,1-1.27.41,1.3,1.3,0,0,1-1.3-.84,3.25,3.25,0,0,1,.1-2.6,3.52,3.52,0,0,1,.86-1.29,2,2,0,0,1,2.09-.5A2.17,2.17,0,0,0,119.79,99,3,3,0,0,0,119.78,101.14Zm3.71-3a1.81,1.81,0,0,0-.81-.93c.46-.22.83,0,1.1.75a1.84,1.84,0,0,1,.17.65v.61a5.4,5.4,0,0,1-.53,2.17,2.58,2.58,0,0,1-2.37,1.85.73.73,0,0,1-.39-.09s0,0,0-.06l.61-.18a4.09,4.09,0,0,0,1.13-.61,2.7,2.7,0,0,0,.75-1,5.19,5.19,0,0,0,.4-1.06,3.91,3.91,0,0,0,.12-1A2.77,2.77,0,0,0,123.49,98.11Zm-1.18-1-.08,0a.13.13,0,0,1,0-.1s0-.07.08-.11a.31.31,0,0,1,.23-.12.57.57,0,0,0,0,.12.29.29,0,0,1-.08.14A.64.64,0,0,1,122.31,97.1Zm3.81,6V103c0-.13.09-.21.29-.24s.27,0,.27.21a.19.19,0,0,1-.09.16.25.25,0,0,1-.2.09C126.25,103.18,126.16,103.15,126.12,103.08Zm-2.17.58a.78.78,0,0,1-.62.34.52.52,0,0,1-.45-.17c0-.12,0-.18,0-.19a.77.77,0,0,1,.68-.85c.44-.09.66.07.66.46A.74.74,0,0,1,124,103.66Zm-1,1.57c0-.12.09-.19.26-.19s.22,0,.22.13-.11.22-.32.22-.13,0-.15-.07A.22.22,0,0,1,122.9,105.23Zm-2.65-1.8-.15-.05,0-.14c0-.19.07-.3.2-.32s.21.07.21.25S120.42,103.43,120.25,103.43ZM120,103s0,.12-.16.26c-.09-.07-.14-.12-.14-.16s0,0,.08-.1l.1-.09.09,0S120,102.91,120,103Z"/><path class="cls-7" d="M131.71,102.33a4.85,4.85,0,0,1,.35,1.83c0,.13,0,.24,0,.34a2.26,2.26,0,0,1,.16-.26,9.9,9.9,0,0,0,.91-4s0,.1.07.16a3.66,3.66,0,0,1,.24,1.28,5.23,5.23,0,0,1-.49,2.1l.23-.34a6.28,6.28,0,0,0,.91-2h.09l0,0s0,0,0,.08A5.41,5.41,0,0,1,134,103a6.11,6.11,0,0,1-.88,1.72,4.23,4.23,0,0,1-1.84,1.44,11.54,11.54,0,0,1-3.54.75H127a10.71,10.71,0,0,0,1.61-.57,4.27,4.27,0,0,0,.94-.47h-.26a2,2,0,0,1-1.63-.52h1.63c.55,0,1,0,1.4,0a3.07,3.07,0,0,1-1.21-1.91,6.12,6.12,0,0,0,2,1.48c0-.36.06-.61.06-.73,0-1,0-1.71,0-2.2C131.53,102,131.61,102.07,131.71,102.33Zm2.63-1.88a.24.24,0,0,1-.16.1l-.08,0a.2.2,0,0,1,.2-.09Zm.08.46s0,0,0,.09-.06.08-.17.19l-.18,0V101c0-.14.1-.2.31-.16T134.42,100.91Zm-7.48,4.26a.07.07,0,0,1,.06-.07.12.12,0,0,1,.12.07l-.12.06Zm.35.26c-.07,0-.11,0-.13-.05v-.06c0-.08,0-.12.16-.13s.14,0,.14.1S127.4,105.43,127.29,105.43Zm-.72,1.57,0-.06c0-.08.07-.12.19-.12a.08.08,0,0,1,.09.09c0,.09-.06.13-.17.13A.13.13,0,0,1,126.57,107Z"/><path class="cls-8" d="M110.74,53.87q7.28,10,8.57,18.48t-3.47,20.77a37.09,37.09,0,0,1-7.32,11.82,42.06,42.06,0,0,1-9.68,7.47,43.09,43.09,0,0,1-29.7,4.53C58,114.77,51.4,110.82,48,106.59s-6.36-10-9-17.31a35.95,35.95,0,0,1,9.08-38.53A52.76,52.76,0,0,1,66.29,40.23a37.09,37.09,0,0,1,23-.53q12,3.34,19.14,11.22C109.25,51.88,110,52.86,110.74,53.87Z"/><path class="cls-9" d="M100.1,48.31a42.41,42.41,0,0,1,8.61,9.92q8.24,13.11,4.87,24.42-4,13.34-14,20.92-11.87,9-28.82,6.52-18-2.67-25.49-15.5Q38.07,82.11,44.16,66.3q5.76-15,18.77-21.2,12.2-5.85,26.93-2.38A27.2,27.2,0,0,1,100.1,48.31Z"/><path class="cls-10" d="M70.8,110.09a48.8,48.8,0,0,1-5.76-1.2,89.9,89.9,0,0,1-6.91-7.18q-8.28-10.18-8.28-12.62a26.81,26.81,0,0,1,.22-4c-.61-.5-1.54-2.55-2.77-6.15a48.45,48.45,0,0,1-1.92-6.32,33.63,33.63,0,0,1,1.33-8.76c.46-1.68,1.19-3.89,2.17-6.63a35,35,0,0,1,14-12.11,39.54,39.54,0,0,1,4.12-1.68c-.08.3-.15.62-.24,1q-1,4-1.15,5.49l0,.3v0L67,50.14c3.13.07,5.12.36,6,.89A2.12,2.12,0,0,1,73.76,53c0,.15,0,1.17,0,3.08-.12,1.69-.43,2.61-.92,2.75a34.12,34.12,0,0,1-2.33,4.67,38.68,38.68,0,0,1-2.85,4.69L67.14,68s-.07-.09-.07-.35a.24.24,0,0,1,0-.11.41.41,0,0,1-.37-.27,2.3,2.3,0,0,1,0-.27,8.27,8.27,0,0,1,.44-1.86,8.64,8.64,0,0,0,.45-1.62,16,16,0,0,0-1.19-2.46c-2.16,0-4.94.83-8.31,2.63a27.62,27.62,0,0,0-5.43,3.54c-.54.47-1,1.82-1.52,4.07A22.1,22.1,0,0,0,50.59,75,5.35,5.35,0,0,0,51.74,77l1.44,2c.41-.19,2.32-1.27,5.72-3.22a25.67,25.67,0,0,1,11.46-2.64,6.85,6.85,0,0,1,2.69.44c.32-.15.67.1,1,.74l.44,2c.15.71.32,2,.52,3.89,0,.36.29,1.59.74,3.71a22.58,22.58,0,0,1,.59,3.89,4,4,0,0,1-1.44,2.93,27.79,27.79,0,0,0-3.25,3l-3,3.32a21,21,0,0,0-2.1,2.5v.15a.13.13,0,0,1,0,.08c1.75,3.69,2.8,5.85,3.15,6.5.25.44,1.14,1.8,2.65,4.07C71.88,110.23,71.34,110.17,70.8,110.09Zm43.69-32.51q-3.46,1-6.26,1.64l0-.08c.12-.86.18-1.36.18-1.52,0-.76-.24-1.14-.73-1.15l-1.3.12-1.77-.19a20.39,20.39,0,0,0-3.1.16,9.3,9.3,0,0,0-1,.21c-1.21,0-2.36,2-3.47,5.78a28.52,28.52,0,0,0-1.37,6.17q0,.69,1.44,1.44.81.44,2.4,1.08a13.38,13.38,0,0,0,2.7.86l4,.5.45,4a42.66,42.66,0,0,0,7-14A23.07,23.07,0,0,0,114.49,77.58ZM81.07,54.82c.47,0,1.39-.94,2.77-2.83s2-2.9,2-3.23a17.31,17.31,0,0,0-1.26-5.28,17.83,17.83,0,0,0-.73-1.79,40.61,40.61,0,0,0-9,0,25.07,25.07,0,0,1-.59,2.68c-.37,1.46-.56,2.21-.56,2.23,0,.26,1,1.63,2.92,4.14C78.72,53.43,80.21,54.8,81.07,54.82Zm17.48,6.92q0,.76.66.78a8.57,8.57,0,0,0,2.55-1.05c1.41-.73,2.11-1.25,2.11-1.55a15.81,15.81,0,0,0-.56-1.58c-.42-1-.67-1.74-.77-2.07-.32-.82-.58-1.43-.78-1.84A2.46,2.46,0,0,0,100.62,53c0,.41.13.91.25,1.53a11.3,11.3,0,0,1-1.14,4.8C99.33,60.16,98.94,61,98.55,61.74Zm12.67,5.33a5.55,5.55,0,0,1,1.7,1l.5.35a40.57,40.57,0,0,0-4.71-10.18,45.9,45.9,0,0,0-3.23-4.44,7.49,7.49,0,0,0-.69.93,5.31,5.31,0,0,0-.89,1.77l.78,1a2.73,2.73,0,0,0,1.77,1,1,1,0,0,0,1-.74,4.61,4.61,0,0,1,.18-.95c.18.33.53.91,1.07,1.74a1.92,1.92,0,0,0-1.07.54,1.23,1.23,0,0,0-.26.38,1.39,1.39,0,0,0-.22.64c-.17,1.19-1,1.77-2.36,1.74a1.34,1.34,0,0,0-.41,0,.41.41,0,0,0-.22-.09c-.12,0-.39.29-.81.86a8.81,8.81,0,0,1-.89,1.12,12.47,12.47,0,0,1-1.7.69c-.81.31-1.22.58-1.22.81a.63.63,0,0,0,0,.23c0,.23.09.35.26.38a8.91,8.91,0,0,1,1.19.3l.62.16a.45.45,0,0,1,.11.19A3.62,3.62,0,0,1,102,69.5l-.29.07a7.88,7.88,0,0,0-1.41.42L99,70c-.19.14-.32,1.22-.37,3.22a2.25,2.25,0,0,0,.71,2q.84.78,5.28-.11a1.09,1.09,0,0,0,.41-.94q0-1.22-.15-3.09a3,3,0,0,1,2-1.17,14.75,14.75,0,0,1,2.18-.52c.4-.07,1,.3,1.7,1.1s1.06,1.26,1,1.47a2.82,2.82,0,0,1-.22.75,5.28,5.28,0,0,0-.3.68c-.1.2-.14.33-.11.38a.36.36,0,0,0,.37.24c.1,0,.45-.46,1.07-1.39a2.1,2.1,0,0,1,.37-.45l.52-.21c.44.46.67.63.7.51s0-.22,0-.27a19.74,19.74,0,0,0-1.37-2,26.63,26.63,0,0,0-2.14-2.59l0-.12Z"/><g class="cls-11"><g id="Layer0_5_MEMBER_3_FILL" data-name="Layer0 5 MEMBER 3 FILL"><path class="cls-12" d="M92.67,54.21a29.52,29.52,0,0,0-20.82,3.16A43,43,0,0,0,65.53,62,46.8,46.8,0,0,0,55.47,73.26a24.44,24.44,0,0,0-3.73,14.51,28.12,28.12,0,0,0,1.9,7.71,63.33,63.33,0,0,0,6.11,11.68,45.25,45.25,0,0,0,11,3q16.92,2.55,28.81-6.52,9.95-7.55,14-21v0l.17-4.68a25.36,25.36,0,0,0-.24-5.44,17.31,17.31,0,0,0-3.16-6.69,30,30,0,0,0-7.78-7.37A29,29,0,0,0,92.67,54.21Z"/></g></g><path class="cls-13" d="M115.43,62.3a3.72,3.72,0,0,1,2.85-1.2,1.89,1.89,0,0,1,1.88,1.38,4,4,0,0,1,.22,1.45,13.64,13.64,0,0,1-1.55,5.4q-.56,1.22-1.62,3.12l-.19-.19,0,0A66.76,66.76,0,0,0,99.06,59.62c2.34-1.17,4.36-1.08,6.06.25a9.41,9.41,0,0,1,.74-2.92q1.26-3,3.81-2.92a5.26,5.26,0,0,1,5,3.57,9.79,9.79,0,0,1,.82,3.9A6.57,6.57,0,0,1,115.43,62.3Zm-58.63-6c1.11.51,1.66,1.12,1.66,1.83a9.8,9.8,0,0,1-1.59,5.17c4.71-1.06,8.1-.77,10.2.87Q52.58,68.08,46.19,71c-4.63,2.14-6.94,4.25-6.94,6.36q0,.91,1.11,1-2.55,1.15-4.25-.4c-1.06-.93-1.33-2.35-.82-4.24a3.55,3.55,0,0,1,.89-1.58,4.57,4.57,0,0,1,1.33-.77,7.18,7.18,0,0,1-1.92-3.54c-.12-1.14-.19-1.73-.19-1.75,0-1.85.46-3.12,1.37-3.81a3.61,3.61,0,0,1,3.11-.51A5.85,5.85,0,0,1,44,64.85a11.3,11.3,0,0,1,.7-1.24,21.56,21.56,0,0,1,2.47-3.52A23.49,23.49,0,0,1,49,58.23a10.58,10.58,0,0,1,3.18-1.8A6,6,0,0,1,56.8,56.34ZM110.41,94.6A4.49,4.49,0,0,1,109,98.44q-5.14-.52-13.9-6.65a5.09,5.09,0,0,1,3.33.34A3.16,3.16,0,0,1,99.58,90a3.5,3.5,0,0,1,2.66-.74,3.89,3.89,0,0,1,2.66,1.23,4.31,4.31,0,0,1,1.22,2.73,3.71,3.71,0,0,1,2-.49A2.16,2.16,0,0,1,110.41,94.6Z"/><polygon class="cls-14" points="62.63 9.98 82.09 12.45 66.52 25.49 62.63 9.98"/><polygon class="cls-15" points="69.47 43.04 60.85 9.76 62.99 8.85 71.13 42.65 69.47 43.04"/><path class="cls-16" d="M88.82,43.43c-6.22-1.82-13.3-1.73-13.55-1.29-.51.9,3.2,2.9,12,5.76C98.21,51.45,100,51,100.73,50.38S97.81,46.06,88.82,43.43Z"/><path class="cls-17" d="M103.62,40.84c-.6-.51-2.12.88-3.48,2.69a8.65,8.65,0,0,1-1.3-2.45,24.42,24.42,0,0,0,2.88-6.44c1-3.4.66-8.07-.32-11.87h0l-.12-.41-.06-.23c0-.12-.07-.25-.11-.37s0-.17-.08-.25l-.11-.35-.09-.25c0-.11-.08-.22-.11-.32s-.07-.18-.1-.26l-.12-.3-.11-.26-.12-.27a2.72,2.72,0,0,0-.11-.25L100,19l-.12-.24-.13-.23a1.71,1.71,0,0,0-.13-.23l-.12-.21-.14-.21-.12-.19-.14-.19L99,17.33l-.15-.18L98.73,17l-.16-.15-.12-.12-.17-.14-.11-.09-.2-.12-.1-.06a1.48,1.48,0,0,0-.29-.12l-.3-.07H96.8l-.23,0-.15,0a1.14,1.14,0,0,0-.25.06l-.16,0-.28.1-.15.05-.44.18-.11.06-.36.17-.2.11-.29.16-.23.13-.28.18-.23.15a2.9,2.9,0,0,0-.29.19l-.24.16-.3.21-.24.18-.51.38-.25.2-.3.24-.27.22-.19.16h0c-3.63,3.08-7.38,7.62-8.39,10.87a21.64,21.64,0,0,0-1,5.06,8.49,8.49,0,0,1-2.41,1.14c0-2.26-.41-4.28-1.2-4.23-2.35.13-5.36,9.45-.62,10.34,1,.18,1.57-2,1.76-4.33l2.55.09c0,.11,0,.23,0,.33A1.66,1.66,0,0,0,82.49,40c.41.22,1,.53,1.73.87L84,43.52a1.2,1.2,0,0,0,.75,1.23,32.06,32.06,0,0,0,6.21,1.84A1.18,1.18,0,0,0,92.1,46l1.29-2.1c.64.12,1.3.24,2,.33a1.71,1.71,0,0,0,1.52-.56l.13-.16L99.13,45c-1.26,2-2,4.09-1.15,4.52C102.32,51.62,105.43,42.34,103.62,40.84Z"/><path class="cls-15" d="M84.36,39.47,84,43.52a1.2,1.2,0,0,0,.75,1.23,32.06,32.06,0,0,0,6.21,1.84A1.18,1.18,0,0,0,92.1,46l2.17-3.53Z"/><path class="cls-18" d="M78.46,38.36l4.73.17L83,34.35s-2.58,2.3-4.72,2.38Z"/><path class="cls-18" d="M99.6,45.32l-3.9-2.67,2.65-3.25s.7,3.38,2.38,4.72Z"/><path class="cls-14" d="M103.62,40.84c1.81,1.5-1.3,10.78-5.64,8.68C96,48.56,102.23,39.67,103.62,40.84Z"/><path class="cls-19" d="M82.49,40a40.14,40.14,0,0,0,12.88,4.26,1.71,1.71,0,0,0,1.52-.56,23.6,23.6,0,0,0,4.83-9.07c1.83-6.41-.89-17.36-4.14-18.43S84.21,24.73,82.46,30.4a18.68,18.68,0,0,0-.83,8.4A1.66,1.66,0,0,0,82.49,40Z"/><path class="cls-15" d="M97.58,16.21c-1.39-.46-4,1-6.73,3.32A15.4,15.4,0,0,0,95.56,22a14.64,14.64,0,0,0,5.84.77C100.52,19.4,99.11,16.71,97.58,16.21Z"/><path class="cls-14" d="M77.89,32.37c-2.35.13-5.36,9.45-.62,10.34C79.44,43.11,79.7,32.26,77.89,32.37Z"/><path class="cls-20" d="M92.52,24.29a3,3,0,0,1,2.2.1,4,4,0,0,1,1.7,1.41,3.46,3.46,0,0,1,.22,3q-1,2.88-3.42,2.06a3.79,3.79,0,0,1-1.76-1.09,3.18,3.18,0,0,1-.73-3.32A2.84,2.84,0,0,1,92.52,24.29Z"/><path class="cls-21" d="M93.21,30a2.89,2.89,0,0,1-1.32-.84,2.16,2.16,0,0,1-.42-2.36,2.29,2.29,0,0,1,3-1.59,2.72,2.72,0,0,1,1.36.9,2.33,2.33,0,0,1,.29,2.27Q95.32,30.69,93.21,30Z"/><path class="cls-22" d="M93.48,28.32A2.13,2.13,0,0,0,94,25.87c-.14-.24-.26-.45-.38-.63a2.14,2.14,0,0,0-.74.16h0A1.71,1.71,0,0,1,93,26.66,5,5,0,0,1,92.15,28a4.29,4.29,0,0,0-.5.63A2.12,2.12,0,0,0,92,29a2.48,2.48,0,0,0,.9.65A2.56,2.56,0,0,1,93.48,28.32Z"/><g class="cls-11"><path class="cls-23" d="M82.7,31.84l0,0c4.86-11.58,13.67-14.48,14-14.51s.29.74.48,1S88.68,20.58,82.7,31.84Z"/><path class="cls-23" d="M96.81,19.39a1.3,1.3,0,0,1-.84,0,.78.78,0,0,1-.34-1.2,1.35,1.35,0,0,1,1.8-.72.82.82,0,0,1,.42,1.24A1.44,1.44,0,0,1,96.81,19.39Z"/></g><line class="cls-24" x1="86.02" y1="17.31" x2="81.87" y2="14.73"/><line class="cls-24" x1="94.45" y1="12.31" x2="93.91" y2="7.45"/><line class="cls-24" x1="103.4" y1="14.73" x2="106.58" y2="11.02"/><line class="cls-24" x1="106.58" y1="24.14" x2="111.38" y2="23.19"/></svg>