<svg id="Calque_1" data-name="Calque 1" xmlns="http://www.w3.org/2000/svg" viewBox="0 0 140 140"><defs><style>.cls-1{fill:#947ab0;}.cls-2{fill:#d2def0;}.cls-2,.cls-3,.cls-4,.cls-8{fill-opacity:0.5;}.cls-3{fill:#faf7dc;}.cls-13,.cls-14,.cls-21,.cls-22,.cls-23,.cls-24,.cls-3,.cls-4,.cls-5,.cls-6,.cls-7,.cls-8,.cls-9{fill-rule:evenodd;}.cls-4{fill:#fffdee;}.cls-5{fill:#f7f4d3;}.cls-6{fill:#ece8ba;}.cls-7{fill:#dbd595;}.cls-8{fill:#f1f5fc;}.cls-9{fill:#69a3e2;}.cls-10{fill:#adce5b;}.cls-11,.cls-23{opacity:0.5;}.cls-12{fill:#3d72ab;}.cls-13,.cls-23,.cls-24{fill:#fff;}.cls-13{fill-opacity:0.75;}.cls-14{fill:none;stroke:#fff;stroke-linecap:round;stroke-linejoin:round;stroke-width:4px;}.cls-15{fill:#f8b334;}.cls-16{fill:#f9edc7;}.cls-17{fill:#5c676d;}.cls-18,.cls-21{fill:#bcada2;}.cls-19{fill:#ff4e5e;}.cls-20{fill:#e5d2c6;}.cls-22{fill:#cbd0ec;}</style></defs><title>Plan de travail 10</title><path class="cls-1" d="M115.39,120.4a8.68,8.68,0,1,0,.08-17.35h-1.39a8.68,8.68,0,1,1,.08-17.36l7.87,0a8.68,8.68,0,1,0,.08-17.35l-14.8-.07A8.68,8.68,0,1,1,107.39,51L113,51a8.68,8.68,0,1,0,.09-17.35l-77.85-.37a8.68,8.68,0,1,0-.08,17.35l5.24,0A8.68,8.68,0,1,1,40.32,68l-28.84-.13a8.68,8.68,0,1,0-.08,17.35l6.57,0A8.71,8.71,0,0,1,26.62,94c0,4.77-2.95,8.66-6.51,8.64s-6.48,3.88-6.5,8.65A8.71,8.71,0,0,0,22.25,120l93.14.43Z"/><path class="cls-2" d="M104.71,35.85A86.32,86.32,0,0,0,66.9,32c-14.72,1.82-40.22,17.08-43.74,40.3S39.84,125.14,77,124s48.38-25.75,51.18-42.46S118.55,40.2,104.71,35.85Z"/><path class="cls-3" d="M137.11,95.15a10.83,10.83,0,0,1,.23,7.69,12.38,12.38,0,0,1-5.1,6.77q-3.83,2.61-10.07,1.85t-8-5.52a13.13,13.13,0,0,1-.2-9.13,11.45,11.45,0,0,1,5.82-6.59,14.17,14.17,0,0,1,8-1.82,12.6,12.6,0,0,1,5.77,1.79A11.16,11.16,0,0,1,137.11,95.15Z"/><path class="cls-4" d="M126.71,90.84A11.36,11.36,0,0,1,133,92.78a9.84,9.84,0,0,1,3.25,3.54,8.87,8.87,0,0,1,.49,4.84,8.57,8.57,0,0,1-2.91,5.39,10,10,0,0,1-6.22,2.66q-3.69.26-7.69-2.75t-3.33-7a10.51,10.51,0,0,1,3.5-6.39A9.21,9.21,0,0,1,126.71,90.84Z"/><path class="cls-5" d="M134.05,95.33a6.47,6.47,0,0,1,1.16,5.61,9.41,9.41,0,0,1-3.31,4.91A9.09,9.09,0,0,1,125,107.5c-2.86-.35-4.89-1.5-6.07-3.45a7.06,7.06,0,0,1-.28-6.53,8.94,8.94,0,0,1,4.47-5,9.75,9.75,0,0,1,6.42-.69A6.28,6.28,0,0,1,132,93.08,9.21,9.21,0,0,1,134.05,95.33Z"/><path class="cls-6" d="M135.21,100.94a6.47,6.47,0,0,0-1.16-5.61c-.11-.17-.25-.32-.37-.48a6.73,6.73,0,0,0-4.83-1c-9.32,1.55-10.35,9.31-8.53,11.83A8.7,8.7,0,0,0,125,107.5a9.09,9.09,0,0,0,6.86-1.65A9.41,9.41,0,0,0,135.21,100.94Z"/><path class="cls-6" d="M129.11,96.24a.26.26,0,0,1-.27-.17c0-.12-.05-.18-.05-.19a.88.88,0,0,1,.21-.42.73.73,0,0,1,.62-.34q.38,0,.39.33,0,.15-.36.48A1,1,0,0,1,129.11,96.24Zm-9.81,4.05c0-1.66.6-2.64,1.81-3a1.75,1.75,0,0,1,1.37.19c.45.26.62.92.52,2a4.69,4.69,0,0,1-.41,1.24c-.41.94-1,1.4-1.66,1.4a1.44,1.44,0,0,1-1.47-.83A2.58,2.58,0,0,1,119.3,100.29Zm4.87-1.81a3.82,3.82,0,0,1-.25,2.11,4.06,4.06,0,0,1-1.66,2.26c0,.05,0,0,0,0,.26-.36.51-.74.76-1.14a4.19,4.19,0,0,0,.77-2.3,3.29,3.29,0,0,0-.42-1.5,8.05,8.05,0,0,1-.42-.71,1.45,1.45,0,0,1,.47.16,1,1,0,0,1,.35.28A2.87,2.87,0,0,1,124.17,98.48Z"/><path class="cls-7" d="M129.46,94.81l.09,0q-.93.67-.93,1.11a.73.73,0,0,0,.15.33.64.64,0,0,1-.15.23c-.1.13-.19.19-.24.19h0V96.6s0-.13,0-.24,0-.1,0-.15a1.69,1.69,0,0,0,0-.23,3.46,3.46,0,0,1,.26-.5C128.91,95,129.19,94.75,129.46,94.81Zm.59.73a.82.82,0,0,1-.23.43.79.79,0,0,1-.59.32.49.49,0,0,1-.35-.1.16.16,0,0,1,0-.12s.14-.13.42-.29.42-.29.42-.42a.14.14,0,0,0-.05-.1l0,0c.17-.17.3-.17.39,0A.74.74,0,0,1,130.05,95.54Zm-.73,4.44a.7.7,0,0,1,.37-.09q.5,0,.45.33a.48.48,0,0,1-.17.32,1,1,0,0,1-.61.17c-.2,0-.31-.1-.31-.29,0,0,0,0,0-.07H129a.27.27,0,0,1-.26-.13.87.87,0,0,1,0-.13c0-.18.1-.28.31-.29S129.3,99.87,129.32,100Zm-.34.66c.08,0,.13,0,.16.14l0,.12-.12,0c-.08-.07-.13-.12-.13-.16S128.9,100.64,129,100.64Zm3.34-3.28a.52.52,0,0,1-.13-.28q0-.42.45-.3c.3.09.45.24.45.48a.42.42,0,0,1-.06.21.29.29,0,0,1-.25.12A.59.59,0,0,1,132.32,97.36Zm-8.16-3v0a.52.52,0,0,1-.38.15.27.27,0,0,1-.26-.13c0-.09-.05-.14-.05-.15,0-.23.14-.36.41-.39s.33,0,.37.17a1,1,0,0,1,.23-.11c.23-.07.35,0,.35.19a.41.41,0,0,1-.12.24.38.38,0,0,1-.33.18A.21.21,0,0,1,124.16,94.35Zm-4.38,6.79a1.36,1.36,0,0,0,1,.71,2.08,2.08,0,0,0,1.34-.42.31.31,0,0,1,0,.13c0,.16-.17.35-.52.59a2.28,2.28,0,0,1-1.27.41,1.3,1.3,0,0,1-1.3-.84,3.25,3.25,0,0,1,.1-2.6,3.52,3.52,0,0,1,.86-1.29,2,2,0,0,1,2.09-.5A2.17,2.17,0,0,0,119.79,99,3,3,0,0,0,119.78,101.14Zm3.71-3a1.81,1.81,0,0,0-.81-.93c.46-.22.83,0,1.1.75a1.84,1.84,0,0,1,.17.65v.61a5.4,5.4,0,0,1-.53,2.17,2.58,2.58,0,0,1-2.37,1.85.73.73,0,0,1-.39-.09s0,0,0-.06l.61-.18a4.09,4.09,0,0,0,1.13-.61,2.7,2.7,0,0,0,.75-1,5.19,5.19,0,0,0,.4-1.06,3.91,3.91,0,0,0,.12-1A2.77,2.77,0,0,0,123.49,98.11Zm-1.18-1-.08,0a.13.13,0,0,1,0-.1s0-.07.08-.11a.31.31,0,0,1,.23-.12.57.57,0,0,0,0,.12.29.29,0,0,1-.08.14A.64.64,0,0,1,122.31,97.1Zm3.81,6V103c0-.13.09-.21.29-.24s.27,0,.27.21a.19.19,0,0,1-.09.16.25.25,0,0,1-.2.09C126.25,103.18,126.16,103.15,126.12,103.08Zm-2.17.58a.78.78,0,0,1-.62.34.52.52,0,0,1-.45-.17c0-.12,0-.18,0-.19a.77.77,0,0,1,.68-.85c.44-.09.66.07.66.46A.74.74,0,0,1,124,103.66Zm-1,1.57c0-.12.09-.19.26-.19s.22,0,.22.13-.11.22-.32.22-.13,0-.15-.07A.22.22,0,0,1,122.9,105.23Zm-2.65-1.8-.15-.05,0-.14c0-.19.07-.3.2-.32s.21.07.21.25S120.42,103.43,120.25,103.43ZM120,103s0,.12-.16.26c-.09-.07-.14-.12-.14-.16s0,0,.08-.1l.1-.09.09,0S120,102.91,120,103Z"/><path class="cls-7" d="M131.71,102.33a4.85,4.85,0,0,1,.35,1.83c0,.13,0,.24,0,.34a2.26,2.26,0,0,1,.16-.26,9.9,9.9,0,0,0,.91-4s0,.1.07.16a3.66,3.66,0,0,1,.24,1.28,5.23,5.23,0,0,1-.49,2.1l.23-.34a6.28,6.28,0,0,0,.91-2h.09l0,0s0,0,0,.08A5.41,5.41,0,0,1,134,103a6.11,6.11,0,0,1-.88,1.72,4.23,4.23,0,0,1-1.84,1.44,11.54,11.54,0,0,1-3.54.75H127a10.71,10.71,0,0,0,1.61-.57,4.27,4.27,0,0,0,.94-.47h-.26a2,2,0,0,1-1.63-.52h1.63c.55,0,1,0,1.4,0a3.07,3.07,0,0,1-1.21-1.91,6.12,6.12,0,0,0,2,1.48c0-.36.06-.61.06-.73,0-1,0-1.71,0-2.2C131.53,102,131.61,102.07,131.71,102.33Zm2.63-1.88a.24.24,0,0,1-.16.1l-.08,0a.2.2,0,0,1,.2-.09Zm.08.46s0,0,0,.09-.06.08-.17.19l-.18,0V101c0-.14.1-.2.31-.16T134.42,100.91Zm-7.48,4.26a.07.07,0,0,1,.06-.07.12.12,0,0,1,.12.07l-.12.06Zm.35.26c-.07,0-.11,0-.13-.05v-.06c0-.08,0-.12.16-.13s.14,0,.14.1S127.4,105.43,127.29,105.43Zm-.72,1.57,0-.06c0-.08.07-.12.19-.12a.08.08,0,0,1,.09.09c0,.09-.06.13-.17.13A.13.13,0,0,1,126.57,107Z"/><path class="cls-8" d="M110.74,53.87q7.28,10,8.57,18.48t-3.47,20.77a37.09,37.09,0,0,1-7.32,11.82,42.06,42.06,0,0,1-9.68,7.47,43.09,43.09,0,0,1-29.7,4.53C58,114.77,51.4,110.82,48,106.59s-6.36-10-9-17.31a35.95,35.95,0,0,1,9.08-38.53A52.76,52.76,0,0,1,66.29,40.23a37.09,37.09,0,0,1,23-.53q12,3.34,19.14,11.22C109.25,51.88,110,52.86,110.74,53.87Z"/><path class="cls-9" d="M100.1,48.31a42.41,42.41,0,0,1,8.61,9.92q8.24,13.11,4.87,24.42-4,13.34-14,20.92-11.87,9-28.82,6.52-18-2.67-25.49-15.5Q38.07,82.11,44.16,66.3q5.76-15,18.77-21.2,12.2-5.85,26.93-2.38A27.2,27.2,0,0,1,100.1,48.31Z"/><path class="cls-10" d="M70.8,110.09a48.8,48.8,0,0,1-5.76-1.2,89.9,89.9,0,0,1-6.91-7.18q-8.28-10.18-8.28-12.62a26.81,26.81,0,0,1,.22-4c-.61-.5-1.54-2.55-2.77-6.15a48.45,48.45,0,0,1-1.92-6.32,33.63,33.63,0,0,1,1.33-8.76c.46-1.68,1.19-3.89,2.17-6.63a35,35,0,0,1,14-12.11,39.54,39.54,0,0,1,4.12-1.68c-.08.3-.15.62-.24,1q-1,4-1.15,5.49l0,.3v0L67,50.14c3.13.07,5.12.36,6,.89A2.12,2.12,0,0,1,73.76,53c0,.15,0,1.17,0,3.08-.12,1.69-.43,2.61-.92,2.75a34.12,34.12,0,0,1-2.33,4.67,38.68,38.68,0,0,1-2.85,4.69L67.14,68s-.07-.09-.07-.35a.24.24,0,0,1,0-.11.41.41,0,0,1-.37-.27,2.3,2.3,0,0,1,0-.27,8.27,8.27,0,0,1,.44-1.86,8.64,8.64,0,0,0,.45-1.62,16,16,0,0,0-1.19-2.46c-2.16,0-4.94.83-8.31,2.63a27.62,27.62,0,0,0-5.43,3.54c-.54.47-1,1.82-1.52,4.07A22.1,22.1,0,0,0,50.59,75,5.35,5.35,0,0,0,51.74,77l1.44,2c.41-.19,2.32-1.27,5.72-3.22a25.67,25.67,0,0,1,11.46-2.64,6.85,6.85,0,0,1,2.69.44c.32-.15.67.1,1,.74l.44,2c.15.71.32,2,.52,3.89,0,.36.29,1.59.74,3.71a22.58,22.58,0,0,1,.59,3.89,4,4,0,0,1-1.44,2.93,27.79,27.79,0,0,0-3.25,3l-3,3.32a21,21,0,0,0-2.1,2.5v.15a.13.13,0,0,1,0,.08c1.75,3.69,2.8,5.85,3.15,6.5.25.44,1.14,1.8,2.65,4.07C71.88,110.23,71.34,110.17,70.8,110.09Zm43.69-32.51q-3.46,1-6.26,1.64l0-.08c.12-.86.18-1.36.18-1.52,0-.76-.24-1.14-.73-1.15l-1.3.12-1.77-.19a20.39,20.39,0,0,0-3.1.16,9.3,9.3,0,0,0-1,.21c-1.21,0-2.36,2-3.47,5.78a28.52,28.52,0,0,0-1.37,6.17q0,.69,1.44,1.44.81.44,2.4,1.08a13.38,13.38,0,0,0,2.7.86l4,.5.45,4a42.66,42.66,0,0,0,7-14A23.07,23.07,0,0,0,114.49,77.58ZM81.07,54.82c.47,0,1.39-.94,2.77-2.83s2-2.9,2-3.23a17.31,17.31,0,0,0-1.26-5.28,17.83,17.83,0,0,0-.73-1.79,40.61,40.61,0,0,0-9,0,25.07,25.07,0,0,1-.59,2.68c-.37,1.46-.56,2.21-.56,2.23,0,.26,1,1.63,2.92,4.14C78.72,53.43,80.21,54.8,81.07,54.82Zm17.48,6.92q0,.76.66.78a8.57,8.57,0,0,0,2.55-1.05c1.41-.73,2.11-1.25,2.11-1.55a15.81,15.81,0,0,0-.56-1.58c-.42-1-.67-1.74-.77-2.07-.32-.82-.58-1.43-.78-1.84A2.46,2.46,0,0,0,100.62,53c0,.41.13.91.25,1.53a11.3,11.3,0,0,1-1.14,4.8C99.33,60.16,98.94,61,98.55,61.74Zm12.67,5.33a5.55,5.55,0,0,1,1.7,1l.5.35a40.57,40.57,0,0,0-4.71-10.18,45.9,45.9,0,0,0-3.23-4.44,7.49,7.49,0,0,0-.69.93,5.31,5.31,0,0,0-.89,1.77l.78,1a2.73,2.73,0,0,0,1.77,1,1,1,0,0,0,1-.74,4.61,4.61,0,0,1,.18-.95c.18.33.53.91,1.07,1.74a1.92,1.92,0,0,0-1.07.54,1.23,1.23,0,0,0-.26.38,1.39,1.39,0,0,0-.22.64c-.17,1.19-1,1.77-2.36,1.74a1.34,1.34,0,0,0-.41,0,.41.41,0,0,0-.22-.09c-.12,0-.39.29-.81.86a8.81,8.81,0,0,1-.89,1.12,12.47,12.47,0,0,1-1.7.69c-.81.31-1.22.58-1.22.81a.63.63,0,0,0,0,.23c0,.23.09.35.26.38a8.91,8.91,0,0,1,1.19.3l.62.16a.45.45,0,0,1,.11.19A3.62,3.62,0,0,1,102,69.5l-.29.07a7.88,7.88,0,0,0-1.41.42L99,70c-.19.14-.32,1.22-.37,3.22a2.25,2.25,0,0,0,.71,2q.84.78,5.28-.11a1.09,1.09,0,0,0,.41-.94q0-1.22-.15-3.09a3,3,0,0,1,2-1.17,14.75,14.75,0,0,1,2.18-.52c.4-.07,1,.3,1.7,1.1s1.06,1.26,1,1.47a2.82,2.82,0,0,1-.22.75,5.28,5.28,0,0,0-.3.68c-.1.2-.14.33-.11.38a.36.36,0,0,0,.37.24c.1,0,.45-.46,1.07-1.39a2.1,2.1,0,0,1,.37-.45l.52-.21c.44.46.67.63.7.51s0-.22,0-.27a19.74,19.74,0,0,0-1.37-2,26.63,26.63,0,0,0-2.14-2.59l0-.12Z"/><g class="cls-11"><g id="Layer0_5_MEMBER_3_FILL" data-name="Layer0 5 MEMBER 3 FILL"><path class="cls-12" d="M92.67,54.21a29.52,29.52,0,0,0-20.82,3.16A43,43,0,0,0,65.53,62,46.8,46.8,0,0,0,55.47,73.26a24.44,24.44,0,0,0-3.73,14.51,28.12,28.12,0,0,0,1.9,7.71,63.33,63.33,0,0,0,6.11,11.68,45.25,45.25,0,0,0,11,3q16.92,2.55,28.81-6.52,9.95-7.55,14-21v0l.17-4.68a25.36,25.36,0,0,0-.24-5.44,17.31,17.31,0,0,0-3.16-6.69,30,30,0,0,0-7.78-7.37A29,29,0,0,0,92.67,54.21Z"/></g></g><path class="cls-13" d="M115.43,62.3a3.72,3.72,0,0,1,2.85-1.2,1.89,1.89,0,0,1,1.88,1.38,4,4,0,0,1,.22,1.45,13.64,13.64,0,0,1-1.55,5.4q-.56,1.22-1.62,3.12l-.19-.19,0,0A66.76,66.76,0,0,0,99.06,59.62c2.34-1.17,4.36-1.08,6.06.25a9.41,9.41,0,0,1,.74-2.92q1.26-3,3.81-2.92a5.26,5.26,0,0,1,5,3.57,9.79,9.79,0,0,1,.82,3.9A6.57,6.57,0,0,1,115.43,62.3Zm-58.63-6c1.11.51,1.66,1.12,1.66,1.83a9.8,9.8,0,0,1-1.59,5.17c4.71-1.06,8.1-.77,10.2.87Q52.58,68.08,46.19,71c-4.63,2.14-6.94,4.25-6.94,6.36q0,.91,1.11,1-2.55,1.15-4.25-.4c-1.06-.93-1.33-2.35-.82-4.24a3.55,3.55,0,0,1,.89-1.58,4.57,4.57,0,0,1,1.33-.77,7.18,7.18,0,0,1-1.92-3.54c-.12-1.14-.19-1.73-.19-1.75,0-1.85.46-3.12,1.37-3.81a3.61,3.61,0,0,1,3.11-.51A5.85,5.85,0,0,1,44,64.85a11.3,11.3,0,0,1,.7-1.24,21.56,21.56,0,0,1,2.47-3.52A23.49,23.49,0,0,1,49,58.23a10.58,10.58,0,0,1,3.18-1.8A6,6,0,0,1,56.8,56.34ZM110.41,94.6A4.49,4.49,0,0,1,109,98.44q-5.14-.52-13.9-6.65a5.09,5.09,0,0,1,3.33.34A3.16,3.16,0,0,1,99.58,90a3.5,3.5,0,0,1,2.66-.74,3.89,3.89,0,0,1,2.66,1.23,4.31,4.31,0,0,1,1.22,2.73,3.71,3.71,0,0,1,2-.49A2.16,2.16,0,0,1,110.41,94.6Z"/><g class="cls-11"><path class="cls-14" d="M2.41,118.64a1,1,0,1,0,1.42.1A1,1,0,0,0,2.41,118.64Z"/><path class="cls-14" d="M9.63,130.93a.93.93,0,0,0-.09,1.3.91.91,0,0,0,1.3.09h0a.92.92,0,1,0-1.21-1.39Z"/><path class="cls-14" d="M55,91.66c0-.11.06-.23.08-.34s.07-.31.11-.46.05-.25.07-.36l.09-.44c0-.12,0-.25.07-.37l.06-.41.06-.37c0-.13,0-.26,0-.39s0-.25,0-.37l0-.37c0-.12,0-.23,0-.35s0-.23,0-.35,0-.23,0-.35v-.32c0-.11,0-.22,0-.33s0-.21,0-.3a3.16,3.16,0,0,0,0-.32l0-.28c0-.1,0-.2,0-.3a2.21,2.21,0,0,0-.05-.25c0-.1,0-.19-.07-.29l-.06-.21c0-.1-.07-.18-.1-.27l-.07-.19c0-.09-.09-.17-.14-.26L55,83.27a2.85,2.85,0,0,0-.25-.33h0a2.68,2.68,0,0,0-.3-.28l-.12-.08a2.26,2.26,0,0,0-.26-.16l-.16-.09-.28-.12-.2-.07L53.08,82l-.21,0-.39-.09-.2,0c-.2,0-.41-.07-.63-.09h-.17l-.53,0h-1.9l-.45,0-.39,0-.49,0-.38,0q-.42,0-.84.09l-.43.06-.49.06-.47.08-.32,0h0c-6.24,1-13.61,3.65-17,6.66a29.36,29.36,0,0,0-4.53,5.12,11.48,11.48,0,0,1-3.53-.34c1.52-2.59,2.44-5.16,1.51-5.65-2.76-1.44-12.54,7.13-7.74,11.37,1,.87,3.12-1.15,4.94-3.73l2.85,1.84c-.05.13-.12.28-.17.4a2.24,2.24,0,0,0,.16,2c.32.53.78,1.28,1.38,2.16l-2.1,2.83a1.51,1.51,0,0,0-.26.63A10,10,0,0,0,11,107.46l-7.46,6.47a2.08,2.08,0,0,0,2.73,3.15l.81-.71a1.14,1.14,0,0,1,1.6.11h0a1.13,1.13,0,0,1-.12,1.59L5.29,120.9a3.28,3.28,0,0,0,4.3,5l3.35-2.9a1,1,0,0,1,1.33,1.54l-1.8,1.56a2.53,2.53,0,0,0,3.31,3.82l8.36-7.25a10,10,0,0,0,3.31-9.28,1.6,1.6,0,0,0,.71-.16l2.9-1.52c.65.59,1.32,1.17,2,1.73a2.28,2.28,0,0,0,2.12.4l.26-.08,1.42,3.08c-2.81,1.44-5.12,3.26-4.39,4.37,3.51,5.35,13.38-3.11,12.34-6.06-.34-1-3-.44-5.8.7a11.2,11.2,0,0,1,.19-3.67,32.74,32.74,0,0,0,7.67-5.39c3.54-3.32,6.45-9.14,7.86-14.29,0-.1.06-.2.08-.3S54.92,91.83,55,91.66Z"/></g><path class="cls-15" d="M3.53,113.93a2.08,2.08,0,0,0-.21,2.94h0a2.09,2.09,0,0,0,2.94.21l.81-.71a1.14,1.14,0,0,1,1.6.11h0a1.13,1.13,0,0,1-.12,1.59L5.29,120.9A3.28,3.28,0,0,0,5,125.53H5a3.28,3.28,0,0,0,4.63.33l3.35-2.9a1,1,0,0,1,1.43.11h0a1,1,0,0,1-.1,1.43l-1.8,1.56a2.53,2.53,0,0,0-.25,3.57h0a2.53,2.53,0,0,0,3.56.25l8.36-7.25a10,10,0,0,0,1-14.16h0a10,10,0,0,0-14.16-1Z"/><rect class="cls-15" x="2.07" y="118.39" width="2.01" height="2.01" rx="1.01" transform="translate(-77.46 31.19) rotate(-40.92)"/><rect class="cls-15" x="9.31" y="130.71" width="1.84" height="1.84" rx="0.92" transform="translate(-83.72 38.87) rotate(-40.92)"/><circle class="cls-16" cx="19.24" cy="113.59" r="7.51"/><path class="cls-17" d="M23.81,100.44l-3.22,4.33a1.58,1.58,0,0,0,0,1.91A42.68,42.68,0,0,0,26.42,113a1.58,1.58,0,0,0,1.74.18L33,110.65Z"/><path class="cls-18" d="M17.84,95.16l5.28,3.41,2.62-4.91s-4.5.87-7-.5Z"/><path class="cls-18" d="M37.2,117.49l-2.63-5.71,5.23-1.9s-1.5,4.33-.5,7Z"/><path class="cls-19" d="M44.83,115.11c1,3-8.83,11.41-12.34,6.06C30.88,118.72,44,112.84,44.83,115.11Z"/><path class="cls-20" d="M21.31,99.78A53.32,53.32,0,0,0,33.08,113.4a2.28,2.28,0,0,0,2.12.4,31.27,31.27,0,0,0,11.69-7c6.45-6,10.8-20.39,7.83-23.82s-21,.61-26.9,5.87a25,25,0,0,0-6.67,9A2.24,2.24,0,0,0,21.31,99.78Z"/><path class="cls-17" d="M54.72,82.93c-1.27-1.46-5.29-1.57-9.93-.79a20.32,20.32,0,0,0,3.68,6A19.74,19.74,0,0,0,54.6,93C55.9,88.57,56.12,84.55,54.72,82.93Z"/><path class="cls-19" d="M21.27,87.93c-2.76-1.44-12.54,7.13-7.74,11.37C15.72,101.23,23.41,89.05,21.27,87.93Z"/><path class="cls-21" d="M43.45,88.7a3.89,3.89,0,0,1,2.43,1.6,5.22,5.22,0,0,1,1,2.77,4.59,4.59,0,0,1-1.78,3.55q-3,2.64-5.31,0a5.06,5.06,0,0,1-1.25-2.44,4.21,4.21,0,0,1,1.42-4.28A3.75,3.75,0,0,1,43.45,88.7Z"/><path class="cls-22" d="M40.35,95.67a3.94,3.94,0,0,1-.94-1.85,2.9,2.9,0,0,1,1.13-3,3,3,0,0,1,4.47.22A3.63,3.63,0,0,1,46,93a3.06,3.06,0,0,1-1.22,2.77C43.1,97.19,41.64,97.16,40.35,95.67Z"/><path class="cls-23" d="M41.8,93.94q2.14-.8,2.22-2.46c0-.37,0-.69,0-1a3.06,3.06,0,0,0-1-.33h0a2.25,2.25,0,0,1-.72,1.52,6.77,6.77,0,0,1-1.83,1,5.67,5.67,0,0,0-1,.38,2.41,2.41,0,0,0,.07.7,3.51,3.51,0,0,0,.59,1.35A3.4,3.4,0,0,1,41.8,93.94Z"/><g class="cls-11"><path class="cls-24" d="M27.12,90.61l0,0c13.42-9.88,25.44-7.2,25.79-7s-.18,1-.12,1.44S41.6,81.85,27.12,90.61Z"/><path class="cls-24" d="M51.68,86a1.75,1.75,0,0,1-.94-.62,1,1,0,0,1,.44-1.6,1.8,1.8,0,0,1,2.54.41,1.08,1.08,0,0,1-.37,1.69A1.88,1.88,0,0,1,51.68,86Z"/></g></svg>