<svg id="Calque_1" data-name="Calque 1" xmlns="http://www.w3.org/2000/svg" viewBox="0 0 140 140"><defs><style>.cls-1{fill:#947ab0;}.cls-2{fill:#d2def0;fill-opacity:0.5;}.cls-3{fill:#f0f4fb;fill-opacity:0.5;}.cls-4{fill:#9fe0ad;}.cls-5{fill:#c7eddf;}.cls-17,.cls-18,.cls-6{fill:#fff;}.cls-12,.cls-17,.cls-7{opacity:0.5;}.cls-8{fill:#7bad86;}.cls-9{fill:#ff4e5e;}.cls-10{fill:#5c676d;}.cls-11{fill:#344e59;opacity:0.25;}.cls-12,.cls-19{fill:none;stroke-linecap:round;stroke-linejoin:round;}.cls-12{stroke:#fff;stroke-width:3.01px;}.cls-12,.cls-15,.cls-16,.cls-17,.cls-18{fill-rule:evenodd;}.cls-13,.cls-15{fill:#bcada2;}.cls-14{fill:#e5d2c6;}.cls-16{fill:#cbd0ec;}.cls-19{stroke:#f8b334;stroke-width:1.5px;}</style></defs><title>Plan de travail 5</title><path class="cls-1" d="M115.39,120.4a8.68,8.68,0,1,0,.08-17.35h-1.39a8.68,8.68,0,1,1,.08-17.36l7.87,0a8.68,8.68,0,1,0,.08-17.35l-14.8-.07A8.68,8.68,0,1,1,107.39,51L113,51a8.68,8.68,0,1,0,.09-17.35l-77.85-.37a8.68,8.68,0,1,0-.08,17.35l5.24,0A8.68,8.68,0,1,1,40.32,68l-28.84-.13a8.68,8.68,0,1,0-.08,17.35l6.57,0A8.71,8.71,0,0,1,26.62,94c0,4.77-2.95,8.66-6.51,8.64s-6.48,3.88-6.5,8.65A8.71,8.71,0,0,0,22.25,120l93.14.43Z"/><path class="cls-2" d="M104.71,35.85A86.32,86.32,0,0,0,66.9,32c-14.72,1.82-40.22,17.08-43.74,40.3S39.84,125.14,77,124s48.38-25.75,51.18-42.46S118.55,40.2,104.71,35.85Z"/><g id="Layer0_9_MEMBER_0_FILL" data-name="Layer0 9 MEMBER 0 FILL"><path class="cls-3" d="M110.76,53.89c-1-1.33-1.78-2.31-2.35-3Q101.26,43,89.25,39.74a36.84,36.84,0,0,0-23,.5A51.57,51.57,0,0,0,48.09,50.79,34.32,34.32,0,0,0,38,67.85,36.47,36.47,0,0,0,39,89.3q3.9,10.9,9,17.31Q53.95,114,69.1,117a46.37,46.37,0,0,0,16,.3,40.45,40.45,0,0,0,13.76-4.8,43.75,43.75,0,0,0,9.65-7.5,37.82,37.82,0,0,0,7.35-11.81q4.69-12.45,3.45-20.8T110.76,53.89Z"/></g><g id="Layer0_9_MEMBER_1_FILL" data-name="Layer0 9 MEMBER 1 FILL"><path class="cls-4" d="M100.11,48.34a26.4,26.4,0,0,0-10.26-5.6Q75,39.29,62.9,45.14q-13,6.26-18.76,21.21Q38,82.21,45.29,94.6q7.45,12.91,25.51,15.51,16.9,2.55,28.81-6.5,9.94-7.56,14-21,3.41-11.31-4.85-24.41A43.31,43.31,0,0,0,100.11,48.34Z"/></g><path class="cls-5" d="M61.35,107.77a47,47,0,0,0,9.45,2.34q16.9,2.55,28.81-6.5,9.94-7.56,14-21a23.61,23.61,0,0,0,1-7.19c-.53.92-1.15,2-1.91,3.14a28.22,28.22,0,0,1-10.53,10A24.8,24.8,0,0,1,90.67,91a54.64,54.64,0,0,1-15.22-2.48Q66.92,86,61.62,86.68a21.86,21.86,0,0,0-9.41,3.43A28.83,28.83,0,0,0,46.14,96a28.67,28.67,0,0,0,9.47,9.08,38.51,38.51,0,0,1,3.26-2.61q5.84-4.16,15.46-2.41c-.82.36-1.41.65-1.77.85Q65,105.35,61.35,107.77Zm15.56-6.52v0a1.26,1.26,0,0,1-.44.51C76.31,101.89,76.45,101.71,76.91,101.25ZM98,59.34a23.77,23.77,0,0,0,9.64-2.73c.38.53.74,1.08,1.1,1.63.64,1,1.22,2,1.76,3q-2.13,4.75-8.66,8.39a12.17,12.17,0,0,0,10.71-3.93,29.61,29.61,0,0,1,1.91,7.86q-1.82,3.76-8.21,8.54A19.38,19.38,0,0,1,90.9,85.8a120.65,120.65,0,0,1-16-3.6A33,33,0,0,0,60,81.14q-7.45,1.23-11,6.19-.66-.14.14-5a24.52,24.52,0,0,1,3.05-8.6,29.42,29.42,0,0,1,5.37-6.59A36.94,36.94,0,0,1,65.29,62a29.93,29.93,0,0,1,10.77-3.12,51.7,51.7,0,0,1,11.41,0A72.24,72.24,0,0,0,98,59.34ZM41.91,74.18c.22-1.25.52-2.52.88-3.81a64.08,64.08,0,0,1,10-9.61A30.25,30.25,0,0,0,45.11,64Q50.93,50.91,62.9,45.14t26.95-2.4a26.4,26.4,0,0,1,10.26,5.6A41.3,41.3,0,0,1,105.62,54c-.58.31-1.26.65-2.05,1.06a20.65,20.65,0,0,1-9,2.28,57.26,57.26,0,0,1-13.32-1.5Q73,54.14,60,59.3a61.83,61.83,0,0,0-11.86,8.53A69.76,69.76,0,0,0,41.91,74.18Z"/><path class="cls-6" d="M62.9,45.14q12.1-5.85,26.95-2.4a24.5,24.5,0,0,1,7.73,3.66,9.33,9.33,0,0,1-2.23,2.2Q89.35,53,80,52.13a9.34,9.34,0,0,1-.65,3,3.54,3.54,0,0,1-1,1.19,2.32,2.32,0,0,1-1.43.44,3.88,3.88,0,0,1-2.1-1.12,16.5,16.5,0,0,1-2.89-3.43c-.74,1.1-1.55,2.21-2.41,3.33a15.39,15.39,0,0,1-2.75,2.88,4.46,4.46,0,0,1-1.84.89,2.09,2.09,0,0,1-1.9-.45,3.47,3.47,0,0,1-.92-2.24A28,28,0,0,1,61.93,52a52.76,52.76,0,0,1-7.07,3.47,6.54,6.54,0,0,1-1.8.44,1.85,1.85,0,0,1-1.7-.68,1.77,1.77,0,0,1-.34-.8A35,35,0,0,1,62.9,45.14ZM99.5,100.4l-5.74,2.69a1.32,1.32,0,0,0-.75-1.22,2,2,0,0,0-1.56-.24,5.25,5.25,0,0,0-2.41,2l-2.25,2.92a11.62,11.62,0,0,0-3-4.66,6.86,6.86,0,0,0-3.23-1.86,5,5,0,0,0-2.41,0,5.85,5.85,0,0,0-2.24,1,7.37,7.37,0,0,0-2.62,4.11,29.08,29.08,0,0,0-6.52-1.9,4.51,4.51,0,0,0-2.58.13,2.82,2.82,0,0,0-1.33,1.46,9.74,9.74,0,0,0-.64,2c-.09.4-.16.76-.21,1.1a48,48,0,0,0,8.74,2.08q16.9,2.55,28.81-6.5a37.52,37.52,0,0,0,3.9-3.43,2.33,2.33,0,0,0-1.8-.52A7.83,7.83,0,0,0,99.5,100.4Zm-38.63,5.88a1.74,1.74,0,0,0-1.12-1.66,3.28,3.28,0,0,0-1.42-.14,4.19,4.19,0,0,0-1.23.31,2.31,2.31,0,0,0-.78.66,34.33,34.33,0,0,0,4.27,2A2.07,2.07,0,0,0,60.87,106.28Zm20-50.85a1.77,1.77,0,0,0-.41,1.19,1.87,1.87,0,0,0,.41,1.19,2.15,2.15,0,0,0,1.9.74A2.32,2.32,0,0,0,84.14,58a1.71,1.71,0,0,0,.68-1.26,1.81,1.81,0,0,0-.57-1.49,2.28,2.28,0,0,0-1.5-.65A2.09,2.09,0,0,0,80.88,55.43Z"/><g class="cls-7"><g id="Layer0_5_MEMBER_3_FILL" data-name="Layer0 5 MEMBER 3 FILL"><path class="cls-8" d="M92.67,54.21a29.52,29.52,0,0,0-20.82,3.16A43,43,0,0,0,65.53,62,46.8,46.8,0,0,0,55.47,73.26a24.44,24.44,0,0,0-3.73,14.51,28.12,28.12,0,0,0,1.9,7.71,63.33,63.33,0,0,0,6.11,11.68,45.25,45.25,0,0,0,11,3q16.92,2.55,28.81-6.52,9.95-7.55,14-21v0l.17-4.68a25.36,25.36,0,0,0-.24-5.44,17.31,17.31,0,0,0-3.16-6.69,30,30,0,0,0-7.78-7.37A29,29,0,0,0,92.67,54.21Z"/></g></g><polygon class="cls-9" points="62.63 9.98 82.09 12.45 66.52 25.49 62.63 9.98"/><polygon class="cls-10" points="69.47 43.04 60.85 9.76 62.99 8.85 71.13 42.65 69.47 43.04"/><path class="cls-11" d="M88.82,43.43c-6.22-1.82-13.3-1.73-13.55-1.29-.51.9,3.2,2.9,12,5.76C98.21,51.45,100,51,100.73,50.38S97.81,46.06,88.82,43.43Z"/><path class="cls-12" d="M103.62,40.84c-.6-.51-2.12.88-3.48,2.69a8.65,8.65,0,0,1-1.3-2.45,24.42,24.42,0,0,0,2.88-6.44c1-3.4.66-8.07-.32-11.87h0l-.12-.41-.06-.23c0-.12-.07-.25-.11-.37s0-.17-.08-.25l-.11-.35-.09-.25c0-.11-.08-.22-.11-.32s-.07-.18-.1-.26l-.12-.3-.11-.26-.12-.27a2.72,2.72,0,0,0-.11-.25L100,19l-.12-.24-.13-.23a1.71,1.71,0,0,0-.13-.23l-.12-.21-.14-.21-.12-.19-.14-.19L99,17.33l-.15-.18L98.73,17l-.16-.15-.12-.12-.17-.14-.11-.09-.2-.12-.1-.06a1.48,1.48,0,0,0-.29-.12l-.3-.07H96.8l-.23,0-.15,0a1.14,1.14,0,0,0-.25.06l-.16,0-.28.1-.15.05-.44.18-.11.06-.36.17-.2.11-.29.16-.23.13-.28.18-.23.15a2.9,2.9,0,0,0-.29.19l-.24.16-.3.21-.24.18-.51.38-.25.2-.3.24-.27.22-.19.16h0c-3.63,3.08-7.38,7.62-8.39,10.87a21.64,21.64,0,0,0-1,5.06,8.49,8.49,0,0,1-2.41,1.14c0-2.26-.41-4.28-1.2-4.23-2.35.13-5.36,9.45-.62,10.34,1,.18,1.57-2,1.76-4.33l2.55.09c0,.11,0,.23,0,.33A1.66,1.66,0,0,0,82.49,40c.41.22,1,.53,1.73.87L84,43.52a1.2,1.2,0,0,0,.75,1.23,32.06,32.06,0,0,0,6.21,1.84A1.18,1.18,0,0,0,92.1,46l1.29-2.1c.64.12,1.3.24,2,.33a1.71,1.71,0,0,0,1.52-.56l.13-.16L99.13,45c-1.26,2-2,4.09-1.15,4.52C102.32,51.62,105.43,42.34,103.62,40.84Z"/><path class="cls-10" d="M84.36,39.47,84,43.52a1.2,1.2,0,0,0,.75,1.23,32.06,32.06,0,0,0,6.21,1.84A1.18,1.18,0,0,0,92.1,46l2.17-3.53Z"/><path class="cls-13" d="M78.46,38.36l4.73.17L83,34.35s-2.58,2.3-4.72,2.38Z"/><path class="cls-13" d="M99.6,45.32l-3.9-2.67,2.65-3.25s.7,3.38,2.38,4.72Z"/><path class="cls-9" d="M103.62,40.84c1.81,1.5-1.3,10.78-5.64,8.68C96,48.56,102.23,39.67,103.62,40.84Z"/><path class="cls-14" d="M82.49,40a40.14,40.14,0,0,0,12.88,4.26,1.71,1.71,0,0,0,1.52-.56,23.6,23.6,0,0,0,4.83-9.07c1.83-6.41-.89-17.36-4.14-18.43S84.21,24.73,82.46,30.4a18.68,18.68,0,0,0-.83,8.4A1.66,1.66,0,0,0,82.49,40Z"/><path class="cls-10" d="M97.58,16.21c-1.39-.46-4,1-6.73,3.32A15.4,15.4,0,0,0,95.56,22a14.64,14.64,0,0,0,5.84.77C100.52,19.4,99.11,16.71,97.58,16.21Z"/><path class="cls-9" d="M77.89,32.37c-2.35.13-5.36,9.45-.62,10.34C79.44,43.11,79.7,32.26,77.89,32.37Z"/><path class="cls-15" d="M92.52,24.29a3,3,0,0,1,2.2.1,4,4,0,0,1,1.7,1.41,3.46,3.46,0,0,1,.22,3q-1,2.88-3.42,2.06a3.79,3.79,0,0,1-1.76-1.09,3.18,3.18,0,0,1-.73-3.32A2.84,2.84,0,0,1,92.52,24.29Z"/><path class="cls-16" d="M93.21,30a2.89,2.89,0,0,1-1.32-.84,2.16,2.16,0,0,1-.42-2.36,2.29,2.29,0,0,1,3-1.59,2.72,2.72,0,0,1,1.36.9,2.33,2.33,0,0,1,.29,2.27Q95.32,30.69,93.21,30Z"/><path class="cls-17" d="M93.48,28.32A2.13,2.13,0,0,0,94,25.87c-.14-.24-.26-.45-.38-.63a2.14,2.14,0,0,0-.74.16h0A1.71,1.71,0,0,1,93,26.66,5,5,0,0,1,92.15,28a4.29,4.29,0,0,0-.5.63A2.12,2.12,0,0,0,92,29a2.48,2.48,0,0,0,.9.65A2.56,2.56,0,0,1,93.48,28.32Z"/><g class="cls-7"><path class="cls-18" d="M82.7,31.84l0,0c4.86-11.58,13.67-14.48,14-14.51s.29.74.48,1S88.68,20.58,82.7,31.84Z"/><path class="cls-18" d="M96.81,19.39a1.3,1.3,0,0,1-.84,0,.78.78,0,0,1-.34-1.2,1.35,1.35,0,0,1,1.8-.72.82.82,0,0,1,.42,1.24A1.44,1.44,0,0,1,96.81,19.39Z"/></g><line class="cls-19" x1="86.02" y1="17.31" x2="81.87" y2="14.73"/><line class="cls-19" x1="94.45" y1="12.31" x2="93.91" y2="7.45"/><line class="cls-19" x1="103.4" y1="14.73" x2="106.58" y2="11.02"/><line class="cls-19" x1="106.58" y1="24.14" x2="111.38" y2="23.19"/></svg>