<svg id="Calque_1" data-name="Calque 1" xmlns="http://www.w3.org/2000/svg" viewBox="0 0 140 140"><defs><style>.cls-1{fill:#947ab0;}.cls-2{fill:#d2def0;fill-opacity:0.5;}.cls-11,.cls-24,.cls-3{opacity:0.5;}.cls-4,.cls-7{fill:#f0f4fb;}.cls-5{fill:#c4edff;}.cls-6{fill:#81b5cc;}.cls-7{fill-opacity:0.5;}.cls-8{fill:#cc5c8d;}.cls-9{fill:#e8a0bf;}.cls-10{fill:#a84c74;}.cls-11{fill:#e86da2;}.cls-12{fill:#b952cc;}.cls-13{fill:#ffe4c9;}.cls-14{fill:#d6b089;}.cls-15{fill:none;stroke:#fff;stroke-linecap:round;stroke-linejoin:round;stroke-width:4px;}.cls-15,.cls-22,.cls-23,.cls-24,.cls-25{fill-rule:evenodd;}.cls-16{fill:#f8b334;}.cls-17{fill:#f9edc7;}.cls-18{fill:#5c676d;}.cls-19,.cls-22{fill:#bcada2;}.cls-20{fill:#ff4e5e;}.cls-21{fill:#e5d2c6;}.cls-23{fill:#cbd0ec;}.cls-24,.cls-25{fill:#fff;}</style></defs><title>Plan de travail 11</title><path class="cls-1" d="M115.39,120.4a8.68,8.68,0,1,0,.08-17.35h-1.39a8.68,8.68,0,1,1,.08-17.36l7.87,0a8.68,8.68,0,1,0,.08-17.35l-14.8-.07A8.68,8.68,0,1,1,107.39,51L113,51a8.68,8.68,0,1,0,.09-17.35l-77.85-.37a8.68,8.68,0,1,0-.08,17.35l5.24,0A8.68,8.68,0,1,1,40.32,68l-28.84-.13a8.68,8.68,0,1,0-.08,17.35l6.57,0A8.71,8.71,0,0,1,26.62,94c0,4.77-2.95,8.66-6.51,8.64s-6.48,3.88-6.5,8.65A8.71,8.71,0,0,0,22.25,120l93.14.43Z"/><path class="cls-2" d="M104.71,35.85A86.32,86.32,0,0,0,66.9,32c-14.72,1.82-40.22,17.08-43.74,40.3S39.84,125.14,77,124s48.38-25.75,51.18-42.46S118.55,40.2,104.71,35.85Z"/><g class="cls-3"><g id="Layer0_12_MEMBER_6_FILL" data-name="Layer0 12 MEMBER 6 FILL"><path class="cls-4" d="M49.89,61.39a10.2,10.2,0,0,0-1.37-1.75c-2.27-2.46-4.59-3.84-7-4.13a11.84,11.84,0,0,0-3.86.3,13.16,13.16,0,0,0-4.08,1.48,13.75,13.75,0,0,0-3.2,2.84A12.4,12.4,0,0,0,28.05,64a8.45,8.45,0,0,0,2.11,8.62c1.58,1.52,4.06,2.56,7.44,3.15a15.26,15.26,0,0,0,3.26.3,8.46,8.46,0,0,0,3.31-.88,9.29,9.29,0,0,0,2.71-2.05,13.59,13.59,0,0,0,1.75-2.54,15,15,0,0,0,1.83-4.49A6.81,6.81,0,0,0,49.89,61.39Z"/></g></g><g id="Layer0_12_MEMBER_1_FILL" data-name="Layer0 12 MEMBER 1 FILL"><path class="cls-5" d="M43.82,60.14a5.72,5.72,0,0,0-2.26-1.24,8.78,8.78,0,0,0-5.94.53,8.18,8.18,0,0,0-4.13,4.68,6.85,6.85,0,0,0,.25,6.22,7.23,7.23,0,0,0,5.62,3.42,8,8,0,0,0,6.35-1.43,8.77,8.77,0,0,0,3.08-4.62,6.44,6.44,0,0,0-1.07-5.38A9.58,9.58,0,0,0,43.82,60.14Z"/></g><g class="cls-3"><g id="Layer0_5_MEMBER_3_FILL" data-name="Layer0 5 MEMBER 3 FILL"><path class="cls-6" d="M42.18,61.43a6.55,6.55,0,0,0-4.59.7,9.09,9.09,0,0,0-1.39,1A10.37,10.37,0,0,0,34,65.63a5.45,5.45,0,0,0-.82,3.2,6.27,6.27,0,0,0,.42,1.7,14.31,14.31,0,0,0,1.35,2.57,9.6,9.6,0,0,0,2.43.65,8,8,0,0,0,6.35-1.43,8.77,8.77,0,0,0,3.08-4.62h0l0-1a5.32,5.32,0,0,0,0-1.2,3.73,3.73,0,0,0-.7-1.48,6.44,6.44,0,0,0-1.71-1.62A6.36,6.36,0,0,0,42.18,61.43Z"/></g></g><g id="Layer0_12_MEMBER_0_FILL" data-name="Layer0 12 MEMBER 0 FILL"><path class="cls-7" d="M110.76,53.89c-1-1.33-1.78-2.31-2.35-3Q101.26,43,89.25,39.74a36.84,36.84,0,0,0-23,.5A51.57,51.57,0,0,0,48.09,50.79,34.32,34.32,0,0,0,38,67.85,36.47,36.47,0,0,0,39,89.3q3.9,10.9,9,17.31Q53.95,114,69.1,117a46.37,46.37,0,0,0,16,.3,40.45,40.45,0,0,0,13.76-4.8,43.75,43.75,0,0,0,9.65-7.5,37.82,37.82,0,0,0,7.35-11.81q4.69-12.45,3.45-20.8T110.76,53.89Z"/></g><g id="Layer0_12_MEMBER_1_FILL-2" data-name="Layer0 12 MEMBER 1 FILL"><path class="cls-8" d="M100.11,48.34a26.4,26.4,0,0,0-10.26-5.6Q75,39.29,62.9,45.14q-13,6.26-18.76,21.21Q38,82.21,45.29,94.6q7.45,12.91,25.51,15.51,16.9,2.55,28.81-6.5,9.94-7.56,14-21,3.41-11.31-4.85-24.41A43.31,43.31,0,0,0,100.11,48.34Z"/></g><path class="cls-9" d="M95.5,106.29a34,34,0,0,1-7.75,3.14A238.39,238.39,0,0,1,49.49,88.72q-4.71-3.14-8-5.67a29.55,29.55,0,0,1-.06-5.16q12.78,7.9,23.34,13.68a294.54,294.54,0,0,0,30.37,14.58ZM42.92,89.47c1.46,1.24,3.09,2.58,4.91,4a199.42,199.42,0,0,0,20.31,14.3c1.47.89,2.94,1.72,4.39,2.52a45.56,45.56,0,0,0,5.88.33A229.29,229.29,0,0,1,41.8,85.17,28,28,0,0,0,42.92,89.47Zm70.64-6.82c.2-.65.35-1.31.49-2a236.84,236.84,0,0,1-29.4-15.3q-11-6.64-26.52-17.48-9.35,6.39-14,18.45a45,45,0,0,0-1.83,5.89c.47.25,1,.5,1.48.75a265.22,265.22,0,0,0,34.58,14.3q7.77,2.63,24.08,7.24c1.74.49,3.32.92,4.75,1.31A43.21,43.21,0,0,0,113.56,82.65ZM71.47,48q2.36,1.83,5.91,4.08a137.8,137.8,0,0,0,36.05,16.37,37.57,37.57,0,0,0-3.34-7.85l-2.2-.78q-7.17-2.61-18.38-8-7-3.28-12-6.11A46.93,46.93,0,0,1,72,42.14a35.82,35.82,0,0,0-5.19,1.4A33.55,33.55,0,0,0,71.47,48Z"/><g class="cls-3"><g id="Layer0_5_MEMBER_3_FILL-2" data-name="Layer0 5 MEMBER 3 FILL"><path class="cls-10" d="M92.67,54.21a29.52,29.52,0,0,0-20.82,3.16A43,43,0,0,0,65.53,62,46.8,46.8,0,0,0,55.47,73.26a24.44,24.44,0,0,0-3.73,14.51,28.12,28.12,0,0,0,1.9,7.71,63.33,63.33,0,0,0,6.11,11.68,45.25,45.25,0,0,0,11,3q16.92,2.55,28.81-6.52,9.95-7.55,14-21v0l.17-4.68a25.36,25.36,0,0,0-.24-5.44,17.31,17.31,0,0,0-3.16-6.69,30,30,0,0,0-7.78-7.37A29,29,0,0,0,92.67,54.21Z"/></g></g><path class="cls-11" d="M117.16,96.43a42.32,42.32,0,0,0-6.36-6.65,37.3,37.3,0,0,1-2.15,3.89,41.25,41.25,0,0,1,4.3,4.76c.7,1.12.91,1.94.61,2.45s-1,.86-2.31,1c-.9.08-3.35-.63-7.31-2.13q-2.37-.88-5.46-2.15Q87.59,93.17,62.1,74q-10-7.55-15.76-12.55-8.81-7.69-7.41-9.39,2.31-2.79,11,1.93c.33.19.65.36,1,.52.6-.72,1.21-1.41,1.85-2.07q-3.22-1.94-5.8-3.17a24.77,24.77,0,0,0-8.26-2.21c-1.81-.13-3,.22-3.67,1.06-.81,1.08-.88,2.75-.2,5S37.47,58.34,40.7,62c1,1.09,2.2,2.33,3.7,3.73q5.31,4.94,15.05,12.43A223,223,0,0,0,83.63,94.8,123.37,123.37,0,0,0,100.35,103c.71.27,1.41.54,2.1.78,5.7,2,9.7,3,12,3s3.79-.46,4.38-1.23a5.64,5.64,0,0,0,1-3.26Q119.93,100.17,117.16,96.43Z"/><g id="Layer0_12_MEMBER_3_MEMBER_0_FILL" data-name="Layer0 12 MEMBER 3 MEMBER 0 FILL"><path class="cls-12" d="M121.1,104.14a.93.93,0,0,0-.44-1,1.09,1.09,0,0,0-.58-.17,1.1,1.1,0,0,0-.64.14,1,1,0,0,0-.38.34,1.25,1.25,0,0,0-.1.88,1.33,1.33,0,0,0,.48.54,1.21,1.21,0,0,0,1,.07,1.1,1.1,0,0,0,.61-.85M45.89,68.34l-.06.24a.8.8,0,0,0,.51.91.88.88,0,0,0,1-.17,1.11,1.11,0,0,0,.27-.71.77.77,0,0,0-.34-.68.79.79,0,0,0-1.15,0,.77.77,0,0,0-.28.38m14.85,3.12a.7.7,0,0,0-.78.44l-.1.34c.06.3.1.46.1.48a.68.68,0,0,0,.41.37.76.76,0,0,0,.54.07,1.14,1.14,0,0,0,.44-.24.8.8,0,0,0,.17-1,.83.83,0,0,0-.82-.54l0,0m1.53,3.81,0-.27c-.06-.12-.23-.22-.51-.31a0,0,0,0,1,0,0,.91.91,0,0,0-.37.17l-.14.38s.07.09.07.2l.07.14a.6.6,0,0,0,.68.1l.17-.1a1.9,1.9,0,0,0,.1-.34m-1.53,6.59a.79.79,0,0,0-.07.44.53.53,0,0,0,.58.41h.17l.17-.11.17-.23a.48.48,0,0,0,0-.41l-.13-.34a1.8,1.8,0,0,1-.38-.17l-.13,0c-.18,0-.32.13-.41.38M77,81.69a.65.65,0,0,0,.47.2.57.57,0,0,0,.61-.3.58.58,0,0,0,0-.72.6.6,0,0,0-.58-.37l-.1,0a.39.39,0,0,0-.44.17.58.58,0,0,0-.17.44.74.74,0,0,0,.17.55m23,22.89a.63.63,0,0,0-.55.24,1,1,0,0,0-.27,1,1,1,0,0,0,.72.75.76.76,0,0,0,.91-.31,1.1,1.1,0,0,0,.27-.68,2,2,0,0,0-.3-.74,1.13,1.13,0,0,0-.68-.27s0,0,0,.06H100m8.52-4.68a.55.55,0,0,0,.38.17.63.63,0,0,0,.68-.28.67.67,0,0,0,0-.74.6.6,0,0,0-.58-.38l-.06,0a.42.42,0,0,0-.48.17.8.8,0,0,0-.17.47.77.77,0,0,0,.2.55m3.74,9.23a.53.53,0,0,0-.14-.71.82.82,0,0,0-.44-.2v.07a.41.41,0,0,0-.51.23.55.55,0,0,0-.1.48.64.64,0,0,0,.54.47.53.53,0,0,0,.65-.34m4.45-15a.8.8,0,0,0,.41.34l.27.06.24,0a.75.75,0,0,0,.47-.85.68.68,0,0,0-.71-.61.1.1,0,0,1-.14,0,.59.59,0,0,0-.4.2l-.17.21,0,.3a.81.81,0,0,0,.07.38M41.34,45a.6.6,0,0,0,.1.4l.17.14.21.1H42a.68.68,0,0,0,.37-.2A.79.79,0,0,0,42.5,45a.58.58,0,0,0-.21-.38.51.51,0,0,0-.37-.17c0,.07,0,.07-.1,0a.7.7,0,0,0-.31.14l-.1.13a.39.39,0,0,0-.07.28m-.91,9a.76.76,0,0,0,.23.65.67.67,0,0,0,.89.07.77.77,0,0,0,.3-.82.67.67,0,0,0-.71-.57v.06c-.25-.06-.47.06-.65.38l-.06.23m-6.87,2.93a.54.54,0,0,0,.75.2.78.78,0,0,0,.48-.78.59.59,0,0,0-.14-.44.87.87,0,0,0-.51-.24s0,.07-.14.07a.62.62,0,0,0-.44.3.87.87,0,0,0-.13.55A.66.66,0,0,0,33.56,56.86Z"/></g><g class="cls-3"><g id="Layer0_12_MEMBER_5_FILL" data-name="Layer0 12 MEMBER 5 FILL"><path class="cls-4" d="M127,55.5a12.15,12.15,0,0,0-3.6-2.52,20,20,0,0,0-8.63-1.53,15.87,15.87,0,0,0-6.9,1.43,16.19,16.19,0,0,0-3.39,2.52,16.49,16.49,0,0,0-4.79,7,16.35,16.35,0,0,0-.61,3A12.53,12.53,0,0,0,99.67,72a12.71,12.71,0,0,0,3.5,4.25A19.51,19.51,0,0,0,108,79.41a14.66,14.66,0,0,0,9.34.82,17.14,17.14,0,0,0,8.26-4.56A13.58,13.58,0,0,0,130,67.11a31.35,31.35,0,0,0-.11-4.07,23,23,0,0,0-.64-3.84A9.51,9.51,0,0,0,127,55.5Z"/></g></g><g id="Layer0_12_MEMBER_1_FILL-3" data-name="Layer0 12 MEMBER 1 FILL"><path class="cls-13" d="M121.88,56.75a8.78,8.78,0,0,0-3.43-1.87,13.3,13.3,0,0,0-9,.8,12.46,12.46,0,0,0-6.28,7.11q-2.05,5.31.38,9.47,2.51,4.32,8.55,5.19a12.23,12.23,0,0,0,9.65-2.18,13.18,13.18,0,0,0,4.68-7q1.14-3.78-1.63-8.18A14.27,14.27,0,0,0,121.88,56.75Z"/></g><g class="cls-3"><g id="Layer0_5_MEMBER_3_FILL-3" data-name="Layer0 5 MEMBER 3 FILL"><path class="cls-14" d="M119.39,58.72a9.8,9.8,0,0,0-7,1.06,15.25,15.25,0,0,0-2.12,1.53,15.8,15.8,0,0,0-3.37,3.8A8.17,8.17,0,0,0,105.67,70a9.31,9.31,0,0,0,.64,2.58,21.3,21.3,0,0,0,2,3.92,15.27,15.27,0,0,0,3.7,1,12.22,12.22,0,0,0,9.65-2.19,13.27,13.27,0,0,0,4.68-7h0l.06-1.58a8.76,8.76,0,0,0-.08-1.82,5.87,5.87,0,0,0-1.06-2.24,10.08,10.08,0,0,0-2.61-2.47A9.78,9.78,0,0,0,119.39,58.72Z"/></g></g><g class="cls-3"><path class="cls-15" d="M2.41,118.64a1,1,0,1,0,1.42.1A1,1,0,0,0,2.41,118.64Z"/><path class="cls-15" d="M9.63,130.93a.93.93,0,0,0-.09,1.3.91.91,0,0,0,1.3.09h0a.92.92,0,1,0-1.21-1.39Z"/><path class="cls-15" d="M55,91.66c0-.11.06-.23.08-.34s.07-.31.11-.46.05-.25.07-.36l.09-.44c0-.12,0-.25.07-.37l.06-.41.06-.37c0-.13,0-.26,0-.39s0-.25,0-.37l0-.37c0-.12,0-.23,0-.35s0-.23,0-.35,0-.23,0-.35v-.32c0-.11,0-.22,0-.33s0-.21,0-.3a3.16,3.16,0,0,0,0-.32l0-.28c0-.1,0-.2,0-.3a2.21,2.21,0,0,0-.05-.25c0-.1,0-.19-.07-.29l-.06-.21c0-.1-.07-.18-.1-.27l-.07-.19c0-.09-.09-.17-.14-.26L55,83.27a2.85,2.85,0,0,0-.25-.33h0a2.68,2.68,0,0,0-.3-.28l-.12-.08a2.26,2.26,0,0,0-.26-.16l-.16-.09-.28-.12-.2-.07L53.08,82l-.21,0-.39-.09-.2,0c-.2,0-.41-.07-.63-.09h-.17l-.53,0h-1.9l-.45,0-.39,0-.49,0-.38,0q-.42,0-.84.09l-.43.06-.49.06-.47.08-.32,0h0c-6.24,1-13.61,3.65-17,6.66a29.36,29.36,0,0,0-4.53,5.12,11.48,11.48,0,0,1-3.53-.34c1.52-2.59,2.44-5.16,1.51-5.65-2.76-1.44-12.54,7.13-7.74,11.37,1,.87,3.12-1.15,4.94-3.73l2.85,1.84c-.05.13-.12.28-.17.4a2.24,2.24,0,0,0,.16,2c.32.53.78,1.28,1.38,2.16l-2.1,2.83a1.51,1.51,0,0,0-.26.63A10,10,0,0,0,11,107.46l-7.46,6.47a2.08,2.08,0,0,0,2.73,3.15l.81-.71a1.14,1.14,0,0,1,1.6.11h0a1.13,1.13,0,0,1-.12,1.59L5.29,120.9a3.28,3.28,0,0,0,4.3,5l3.35-2.9a1,1,0,0,1,1.33,1.54l-1.8,1.56a2.53,2.53,0,0,0,3.31,3.82l8.36-7.25a10,10,0,0,0,3.31-9.28,1.6,1.6,0,0,0,.71-.16l2.9-1.52c.65.59,1.32,1.17,2,1.73a2.28,2.28,0,0,0,2.12.4l.26-.08,1.42,3.08c-2.81,1.44-5.12,3.26-4.39,4.37,3.51,5.35,13.38-3.11,12.34-6.06-.34-1-3-.44-5.8.7a11.2,11.2,0,0,1,.19-3.67,32.74,32.74,0,0,0,7.67-5.39c3.54-3.32,6.45-9.14,7.86-14.29,0-.1.06-.2.08-.3S54.92,91.83,55,91.66Z"/></g><path class="cls-16" d="M3.53,113.93a2.08,2.08,0,0,0-.21,2.94h0a2.09,2.09,0,0,0,2.94.21l.81-.71a1.14,1.14,0,0,1,1.6.11h0a1.13,1.13,0,0,1-.12,1.59L5.29,120.9A3.28,3.28,0,0,0,5,125.53H5a3.28,3.28,0,0,0,4.63.33l3.35-2.9a1,1,0,0,1,1.43.11h0a1,1,0,0,1-.1,1.43l-1.8,1.56a2.53,2.53,0,0,0-.25,3.57h0a2.53,2.53,0,0,0,3.56.25l8.36-7.25a10,10,0,0,0,1-14.16h0a10,10,0,0,0-14.16-1Z"/><rect class="cls-16" x="2.07" y="118.39" width="2.01" height="2.01" rx="1.01" transform="translate(-77.46 31.19) rotate(-40.92)"/><rect class="cls-16" x="9.31" y="130.71" width="1.84" height="1.84" rx="0.92" transform="translate(-83.72 38.87) rotate(-40.92)"/><circle class="cls-17" cx="19.24" cy="113.59" r="7.51"/><path class="cls-18" d="M23.81,100.44l-3.22,4.33a1.58,1.58,0,0,0,0,1.91A42.68,42.68,0,0,0,26.42,113a1.58,1.58,0,0,0,1.74.18L33,110.65Z"/><path class="cls-19" d="M17.84,95.16l5.28,3.41,2.62-4.91s-4.5.87-7-.5Z"/><path class="cls-19" d="M37.2,117.49l-2.63-5.71,5.23-1.9s-1.5,4.33-.5,7Z"/><path class="cls-20" d="M44.83,115.11c1,3-8.83,11.41-12.34,6.06C30.88,118.72,44,112.84,44.83,115.11Z"/><path class="cls-21" d="M21.31,99.78A53.32,53.32,0,0,0,33.08,113.4a2.28,2.28,0,0,0,2.12.4,31.27,31.27,0,0,0,11.69-7c6.45-6,10.8-20.39,7.83-23.82s-21,.61-26.9,5.87a25,25,0,0,0-6.67,9A2.24,2.24,0,0,0,21.31,99.78Z"/><path class="cls-18" d="M54.72,82.93c-1.27-1.46-5.29-1.57-9.93-.79a20.32,20.32,0,0,0,3.68,6A19.74,19.74,0,0,0,54.6,93C55.9,88.57,56.12,84.55,54.72,82.93Z"/><path class="cls-20" d="M21.27,87.93c-2.76-1.44-12.54,7.13-7.74,11.37C15.72,101.23,23.41,89.05,21.27,87.93Z"/><path class="cls-22" d="M43.45,88.7a3.89,3.89,0,0,1,2.43,1.6,5.22,5.22,0,0,1,1,2.77,4.59,4.59,0,0,1-1.78,3.55q-3,2.64-5.31,0a5.06,5.06,0,0,1-1.25-2.44,4.21,4.21,0,0,1,1.42-4.28A3.75,3.75,0,0,1,43.45,88.7Z"/><path class="cls-23" d="M40.35,95.67a3.94,3.94,0,0,1-.94-1.85,2.9,2.9,0,0,1,1.13-3,3,3,0,0,1,4.47.22A3.63,3.63,0,0,1,46,93a3.06,3.06,0,0,1-1.22,2.77C43.1,97.19,41.64,97.16,40.35,95.67Z"/><path class="cls-24" d="M41.8,93.94q2.14-.8,2.22-2.46c0-.37,0-.69,0-1a3.06,3.06,0,0,0-1-.33h0a2.25,2.25,0,0,1-.72,1.52,6.77,6.77,0,0,1-1.83,1,5.67,5.67,0,0,0-1,.38,2.41,2.41,0,0,0,.07.7,3.51,3.51,0,0,0,.59,1.35A3.4,3.4,0,0,1,41.8,93.94Z"/><g class="cls-3"><path class="cls-25" d="M27.12,90.61l0,0c13.42-9.88,25.44-7.2,25.79-7s-.18,1-.12,1.44S41.6,81.85,27.12,90.61Z"/><path class="cls-25" d="M51.68,86a1.75,1.75,0,0,1-.94-.62,1,1,0,0,1,.44-1.6,1.8,1.8,0,0,1,2.54.41,1.08,1.08,0,0,1-.37,1.69A1.88,1.88,0,0,1,51.68,86Z"/></g></svg>