<svg id="Calque_1" data-name="Calque 1" xmlns="http://www.w3.org/2000/svg" viewBox="0 0 140 140"><defs><style>.cls-1{fill:#947ab0;}.cls-2{fill:#d2def0;fill-opacity:0.5;}.cls-3{fill:#f0f4fb;fill-opacity:0.5;}.cls-4{fill:#e07569;}.cls-5{fill:#eb9c7d;}.cls-13,.cls-18,.cls-6,.cls-8{opacity:0.5;}.cls-7{fill:#ba6157;}.cls-8{fill:#f2b5ae;}.cls-9{fill:#f0bc64;}.cls-10{fill:#ff4e5e;}.cls-11{fill:#5c676d;}.cls-12{fill:#344e59;opacity:0.25;}.cls-13,.cls-20{fill:none;stroke-linecap:round;stroke-linejoin:round;}.cls-13{stroke:#fff;stroke-width:3.01px;}.cls-13,.cls-16,.cls-17,.cls-18,.cls-19{fill-rule:evenodd;}.cls-14,.cls-16{fill:#bcada2;}.cls-15{fill:#e5d2c6;}.cls-17{fill:#cbd0ec;}.cls-18,.cls-19{fill:#fff;}.cls-20{stroke:#f8b334;stroke-width:1.5px;}</style></defs><title>Plan de travail 4</title><path class="cls-1" d="M115.39,120.4a8.68,8.68,0,1,0,.08-17.35h-1.39a8.68,8.68,0,1,1,.08-17.36l7.87,0a8.68,8.68,0,1,0,.08-17.35l-14.8-.07A8.68,8.68,0,1,1,107.39,51L113,51a8.68,8.68,0,1,0,.09-17.35l-77.85-.37a8.68,8.68,0,1,0-.08,17.35l5.24,0A8.68,8.68,0,1,1,40.32,68l-28.84-.13a8.68,8.68,0,1,0-.08,17.35l6.57,0A8.71,8.71,0,0,1,26.62,94c0,4.77-2.95,8.66-6.51,8.64s-6.48,3.88-6.5,8.65A8.71,8.71,0,0,0,22.25,120l93.14.43Z"/><path class="cls-2" d="M104.71,35.85A86.32,86.32,0,0,0,66.9,32c-14.72,1.82-40.22,17.08-43.74,40.3S39.84,125.14,77,124s48.38-25.75,51.18-42.46S118.55,40.2,104.71,35.85Z"/><g id="Layer0_10_MEMBER_0_FILL" data-name="Layer0 10 MEMBER 0 FILL"><path class="cls-3" d="M110.76,53.89c-1-1.33-1.79-2.31-2.35-3Q101.26,43,89.25,39.74a36.84,36.84,0,0,0-23,.5A51.57,51.57,0,0,0,48.09,50.79,34.32,34.32,0,0,0,38,67.85,36.47,36.47,0,0,0,39,89.3q3.9,10.9,9,17.31Q53.95,114,69.1,117a46.37,46.37,0,0,0,16,.3,40.4,40.4,0,0,0,13.75-4.8,43.58,43.58,0,0,0,9.66-7.5,37.82,37.82,0,0,0,7.35-11.81q4.69-12.45,3.45-20.8T110.76,53.89Z"/></g><g id="Layer0_10_MEMBER_1_FILL" data-name="Layer0 10 MEMBER 1 FILL"><path class="cls-4" d="M100.11,48.34a26.4,26.4,0,0,0-10.26-5.6Q75,39.29,62.9,45.14q-13,6.26-18.76,21.21Q38,82.21,45.29,94.6q7.45,12.91,25.51,15.51,16.9,2.55,28.81-6.5,9.94-7.56,14-21,3.41-11.31-4.85-24.41A43.31,43.31,0,0,0,100.11,48.34Z"/></g><path class="cls-5" d="M99.61,103.61q-10,7.62-23.61,7c.79-.45,2-1.06,3.62-1.85a72.71,72.71,0,0,0,12-7.3,82.26,82.26,0,0,0,13.28-12.94q4.26-5.1,9.69-13a23.56,23.56,0,0,1-1,7.14Q109.56,96.06,99.61,103.61Zm-36-44.92A120.85,120.85,0,0,0,86.45,42.07,38.55,38.55,0,0,0,62.9,45.14q-13,6.26-18.76,21.21c-.18.46-.34.93-.5,1.39A120.15,120.15,0,0,0,63.62,58.69Zm2.31,48.68Q85.13,98.94,104,81.65a70.81,70.81,0,0,0,8-8.39c.73-.93,1.39-1.87,2-2.8a38.25,38.25,0,0,0-5.24-12.22c-.62-1-1.27-1.91-1.94-2.81A115,115,0,0,1,95.45,68.75,98.84,98.84,0,0,1,71.64,85.66,160.54,160.54,0,0,1,46.12,96q5.84,9,17.26,12.5Q64.62,108,65.93,107.37Zm4-45.52a166,166,0,0,1-28.18,13,29.82,29.82,0,0,0,.82,13.72,33.35,33.35,0,0,0,3.48-1A158.38,158.38,0,0,0,84.28,69.9,68.94,68.94,0,0,0,97,59.64a36.45,36.45,0,0,0,6.08-8.5,39.34,39.34,0,0,0-3-2.8A28.1,28.1,0,0,0,92,43.41,85.1,85.1,0,0,1,70,61.85Z"/><g class="cls-6"><g id="Layer0_5_MEMBER_3_FILL" data-name="Layer0 5 MEMBER 3 FILL"><path class="cls-7" d="M92.67,54.21a29.52,29.52,0,0,0-20.82,3.16A43,43,0,0,0,65.53,62,46.8,46.8,0,0,0,55.47,73.26a24.44,24.44,0,0,0-3.73,14.51,28.12,28.12,0,0,0,1.9,7.71,63.33,63.33,0,0,0,6.11,11.68,45.25,45.25,0,0,0,11,3q16.92,2.55,28.81-6.52,9.95-7.55,14-21v0l.17-4.68a25.36,25.36,0,0,0-.24-5.44,17.31,17.31,0,0,0-3.16-6.69,30,30,0,0,0-7.78-7.37A29,29,0,0,0,92.67,54.21Z"/></g></g><path class="cls-8" d="M125.75,42.08c-1.18-1.43-3-1.86-5.6-1.29A95.27,95.27,0,0,0,110,44c-3.25,1.19-6.62,2.59-10.09,4.17l.24.19a43.13,43.13,0,0,1,3.67,3.5A54.6,54.6,0,0,1,109,49.52a34.63,34.63,0,0,1,8.39-2.28c2-.13,2.16,1.21.65,4-.91,1.7-3.65,4.66-8.18,8.87-2.94,2.72-6.62,6-11.08,9.75q-7.66,5.35-17.94,11.61-19.74,12-32.87,17c-1.74.66-3.4,1.23-5,1.69s-3.21.94-4.86,1.36Q29.29,101.66,36,95c2.52-2.45,4.75-4.49,6.69-6.15a27.27,27.27,0,0,1-1.15-5.23c-1.43,1-2.78,2-4,3A53.11,53.11,0,0,0,31,92.56a25.39,25.39,0,0,0-4.83,7.3c-1.2,3-1.16,5.26.1,6.93l.17.2q6.64,4.29,26.72-3.61c1.82-.72,3.71-1.5,5.69-2.36Q83.67,90.19,96.07,81.21t15.69-12.94l1.17-1.42q3-3.64,7.12-8.84,5-6.25,6-10.29C126.74,45,126.64,43.15,125.75,42.08Z"/><g id="Layer0_10_MEMBER_2_MEMBER_0_FILL" data-name="Layer0 10 MEMBER 2 MEMBER 0 FILL"><path class="cls-9" d="M61.55,92.52a.6.6,0,0,0-.51-.27.52.52,0,0,0-.47.1,3.31,3.31,0,0,1-.27.24l-.14.14,0,.34.06.27a.67.67,0,0,0,.51.51.67.67,0,0,0,.72-.14.9.9,0,0,0,.34-.57,1,1,0,0,0-.21-.62m65.56-48.3H127l-.13.07c-.09.09-.13.17-.11.24a.22.22,0,0,0,.14.2l.2,0,0,0,.07,0,.06-.06c.07-.07.08-.13,0-.17l0-.1-.06-.07-.07,0,0,0M108.46,52a.8.8,0,0,0-.27-.24l-.2-.06-.31,0a.56.56,0,0,0-.44.48.66.66,0,0,0,.1.61.79.79,0,0,0,.48.24.5.5,0,0,0,.47-.11.55.55,0,0,0,.28-.44.59.59,0,0,0-.11-.51m1.43-8.32a.21.21,0,0,0,0-.24l-.17-.34-.41-.2V43a.72.72,0,0,0-.57.23.46.46,0,0,0-.11.55.66.66,0,0,0,.17.27.69.69,0,0,0,.51.2.52.52,0,0,0,.48-.23l.1-.31m4.52,7.2a.58.58,0,0,0,.1.37,1,1,0,0,0,.48.41.82.82,0,0,0,1.05-.47.92.92,0,0,0,0-.65l-.17-.27-.17-.17-.27-.1a1.43,1.43,0,0,0-.54.07l-.34.23a.59.59,0,0,0-.17.58m3.8-10.33a.8.8,0,0,0,.31-.47,1.13,1.13,0,0,0-.14-1.19,1,1,0,0,0-1-.48l-.17,0a1,1,0,0,0-.92.64,1.31,1.31,0,0,0-.06.75,1.48,1.48,0,0,0,.2.48,1.17,1.17,0,0,0,.92.47,1.15,1.15,0,0,0,.91-.24m8.46,14.24a.74.74,0,0,0,.24-.41,1.07,1.07,0,0,0-.1-.54,1,1,0,0,0-.89-.68c0,.07-.1.08-.23,0a.76.76,0,0,0-.41.17,1.21,1.21,0,0,0-.41.68.88.88,0,0,0,.21.75,1,1,0,0,0,.57.41,1,1,0,0,0,.68-.11,1.17,1.17,0,0,0,.34-.3m-7.81,11.11a1.88,1.88,0,0,0-.61-1.09,1.62,1.62,0,0,0-1.26-.37,1.44,1.44,0,0,0-.64.16,1.72,1.72,0,0,0-.79,2.28,1.74,1.74,0,0,0,.85.88,1.59,1.59,0,0,0,1.23.07,1.68,1.68,0,0,0,1-.75,1.63,1.63,0,0,0,.24-1.18m-10.12,3.26a1.2,1.2,0,0,0-.95-1.06l-.21.11a.89.89,0,0,0-.78.71,1.57,1.57,0,0,0-.07.58l.1.34a1,1,0,0,0,.48.47.85.85,0,0,0,.64.1.8.8,0,0,0,.51-.27,1,1,0,0,0,.28-1M95.15,71.77c0,.07-.05.1-.14.1a.83.83,0,0,0-.68.24,1.31,1.31,0,0,0-.37.64v.41a1,1,0,0,0,.58.85,1.37,1.37,0,0,0,1,.14.94.94,0,0,0,.57-.31,1.61,1.61,0,0,0,.28-.54A1.22,1.22,0,0,0,96,72a1.89,1.89,0,0,0-.85-.27M98,82.67a1.13,1.13,0,0,0,0-.61,1.23,1.23,0,0,0-1.15-1,.89.89,0,0,1-.41.07,1.14,1.14,0,0,0-.44.24,1.33,1.33,0,0,0-.37.68,1.2,1.2,0,0,0,1.29,1.52,1.3,1.3,0,0,0,.71-.3,1.36,1.36,0,0,0,.41-.65M75.72,95.58A1.87,1.87,0,0,0,74.33,94a2.28,2.28,0,0,0-.72-.1,1.89,1.89,0,0,0-1.49.64,2,2,0,0,0-.44,1.33,2.06,2.06,0,0,0,.44,1.32,2.54,2.54,0,0,0,.81.61,2,2,0,0,0,2.07-.3,2,2,0,0,0,.72-1.94m-32.1,5.47a1.23,1.23,0,0,0-.07-1.19,1.48,1.48,0,0,0-1-.61s0,.07-.11.07a1.21,1.21,0,0,0-1,.54l-.17.44a.91.91,0,0,0,0,.55,1.32,1.32,0,0,0,.95.88l.44.07a1.14,1.14,0,0,0,1-.75m.44,10.29a1.37,1.37,0,0,0,.81-.61,1.34,1.34,0,0,0,.07-1.53,1.44,1.44,0,0,0-1.29-.81.54.54,0,0,1-.27.07,1.39,1.39,0,0,0-1.22,1.15,1.59,1.59,0,0,0,.13,1,1.54,1.54,0,0,0,.75.68,1.43,1.43,0,0,0,1,0m-15.39-1.63a1.72,1.72,0,0,0,.14-1.15,1.82,1.82,0,0,0-.62-1,1.87,1.87,0,0,0-1.08-.45c.09,0,.07.07-.07.07a1.58,1.58,0,0,0-1.26.58,1.82,1.82,0,0,0-.4,1.36,1.67,1.67,0,0,0,.37.85,1.52,1.52,0,0,0,.95.61,1.6,1.6,0,0,0,1.16-.1,1.58,1.58,0,0,0,.81-.82M29.21,93a1,1,0,0,0-.47.3,1.5,1.5,0,0,0-.41,1.46,1.32,1.32,0,0,0,.78.92,1.72,1.72,0,0,0,1.22.1,1.22,1.22,0,0,0,.85-.68,1.26,1.26,0,0,0-.1-1.49,1.71,1.71,0,0,0-1.36-.72Z"/></g><polygon class="cls-10" points="62.63 9.98 82.09 12.45 66.52 25.49 62.63 9.98"/><polygon class="cls-11" points="69.47 43.04 60.85 9.76 62.99 8.85 71.13 42.65 69.47 43.04"/><path class="cls-12" d="M88.82,43.43c-6.22-1.82-13.3-1.73-13.55-1.29-.51.9,3.2,2.9,12,5.76C98.21,51.45,100,51,100.73,50.38S97.81,46.06,88.82,43.43Z"/><path class="cls-13" d="M103.62,40.84c-.6-.51-2.12.88-3.48,2.69a8.65,8.65,0,0,1-1.3-2.45,24.42,24.42,0,0,0,2.88-6.44c1-3.4.66-8.07-.32-11.87h0l-.12-.41-.06-.23c0-.12-.07-.25-.11-.37s0-.17-.08-.25l-.11-.35-.09-.25c0-.11-.08-.22-.11-.32s-.07-.18-.1-.26l-.12-.3-.11-.26-.12-.27a2.72,2.72,0,0,0-.11-.25L100,19l-.12-.24-.13-.23a1.71,1.71,0,0,0-.13-.23l-.12-.21-.14-.21-.12-.19-.14-.19L99,17.33l-.15-.18L98.73,17l-.16-.15-.12-.12-.17-.14-.11-.09-.2-.12-.1-.06a1.48,1.48,0,0,0-.29-.12l-.3-.07H96.8l-.23,0-.15,0a1.14,1.14,0,0,0-.25.06l-.16,0-.28.1-.15.05-.44.18-.11.06-.36.17-.2.11-.29.16-.23.13-.28.18-.23.15a2.9,2.9,0,0,0-.29.19l-.24.16-.3.21-.24.18-.51.38-.25.2-.3.24-.27.22-.19.16h0c-3.63,3.08-7.38,7.62-8.39,10.87a21.64,21.64,0,0,0-1,5.06,8.49,8.49,0,0,1-2.41,1.14c0-2.26-.41-4.28-1.2-4.23-2.35.13-5.36,9.45-.62,10.34,1,.18,1.57-2,1.76-4.33l2.55.09c0,.11,0,.23,0,.33A1.66,1.66,0,0,0,82.49,40c.41.22,1,.53,1.73.87L84,43.52a1.2,1.2,0,0,0,.75,1.23,32.06,32.06,0,0,0,6.21,1.84A1.18,1.18,0,0,0,92.1,46l1.29-2.1c.64.12,1.3.24,2,.33a1.71,1.71,0,0,0,1.52-.56l.13-.16L99.13,45c-1.26,2-2,4.09-1.15,4.52C102.32,51.62,105.43,42.34,103.62,40.84Z"/><path class="cls-11" d="M84.36,39.47,84,43.52a1.2,1.2,0,0,0,.75,1.23,32.06,32.06,0,0,0,6.21,1.84A1.18,1.18,0,0,0,92.1,46l2.17-3.53Z"/><path class="cls-14" d="M78.46,38.36l4.73.17L83,34.35s-2.58,2.3-4.72,2.38Z"/><path class="cls-14" d="M99.6,45.32l-3.9-2.67,2.65-3.25s.7,3.38,2.38,4.72Z"/><path class="cls-10" d="M103.62,40.84c1.81,1.5-1.3,10.78-5.64,8.68C96,48.56,102.23,39.67,103.62,40.84Z"/><path class="cls-15" d="M82.49,40a40.14,40.14,0,0,0,12.88,4.26,1.71,1.71,0,0,0,1.52-.56,23.6,23.6,0,0,0,4.83-9.07c1.83-6.41-.89-17.36-4.14-18.43S84.21,24.73,82.46,30.4a18.68,18.68,0,0,0-.83,8.4A1.66,1.66,0,0,0,82.49,40Z"/><path class="cls-11" d="M97.58,16.21c-1.39-.46-4,1-6.73,3.32A15.4,15.4,0,0,0,95.56,22a14.64,14.64,0,0,0,5.84.77C100.52,19.4,99.11,16.71,97.58,16.21Z"/><path class="cls-10" d="M77.89,32.37c-2.35.13-5.36,9.45-.62,10.34C79.44,43.11,79.7,32.26,77.89,32.37Z"/><path class="cls-16" d="M92.52,24.29a3,3,0,0,1,2.2.1,4,4,0,0,1,1.7,1.41,3.46,3.46,0,0,1,.22,3q-1,2.88-3.42,2.06a3.79,3.79,0,0,1-1.76-1.09,3.18,3.18,0,0,1-.73-3.32A2.84,2.84,0,0,1,92.52,24.29Z"/><path class="cls-17" d="M93.21,30a2.89,2.89,0,0,1-1.32-.84,2.16,2.16,0,0,1-.42-2.36,2.29,2.29,0,0,1,3-1.59,2.72,2.72,0,0,1,1.36.9,2.33,2.33,0,0,1,.29,2.27Q95.32,30.69,93.21,30Z"/><path class="cls-18" d="M93.48,28.32A2.13,2.13,0,0,0,94,25.87c-.14-.24-.26-.45-.38-.63a2.14,2.14,0,0,0-.74.16h0A1.71,1.71,0,0,1,93,26.66,5,5,0,0,1,92.15,28a4.29,4.29,0,0,0-.5.63A2.12,2.12,0,0,0,92,29a2.48,2.48,0,0,0,.9.65A2.56,2.56,0,0,1,93.48,28.32Z"/><g class="cls-6"><path class="cls-19" d="M82.7,31.84l0,0c4.86-11.58,13.67-14.48,14-14.51s.29.74.48,1S88.68,20.58,82.7,31.84Z"/><path class="cls-19" d="M96.81,19.39a1.3,1.3,0,0,1-.84,0,.78.78,0,0,1-.34-1.2,1.35,1.35,0,0,1,1.8-.72.82.82,0,0,1,.42,1.24A1.44,1.44,0,0,1,96.81,19.39Z"/></g><line class="cls-20" x1="86.02" y1="17.31" x2="81.87" y2="14.73"/><line class="cls-20" x1="94.45" y1="12.31" x2="93.91" y2="7.45"/><line class="cls-20" x1="103.4" y1="14.73" x2="106.58" y2="11.02"/><line class="cls-20" x1="106.58" y1="24.14" x2="111.38" y2="23.19"/></svg>