<svg id="Calque_1" data-name="Calque 1" xmlns="http://www.w3.org/2000/svg" viewBox="0 0 140 140"><defs><style>.cls-1{fill:#947ab0;}.cls-2{fill:#d2def0;fill-opacity:0.5;}.cls-3{fill:#f0f4fb;fill-opacity:0.5;}.cls-4{fill:#a4bded;}.cls-5{fill:#e6edff;}.cls-11,.cls-16,.cls-6{opacity:0.5;}.cls-7{fill:#738cba;}.cls-8{fill:#ff4e5e;}.cls-9{fill:#5c676d;}.cls-10{fill:#344e59;opacity:0.25;}.cls-11,.cls-18{fill:none;stroke-linecap:round;stroke-linejoin:round;}.cls-11{stroke:#fff;stroke-width:3.01px;}.cls-11,.cls-14,.cls-15,.cls-16,.cls-17{fill-rule:evenodd;}.cls-12,.cls-14{fill:#bcada2;}.cls-13{fill:#e5d2c6;}.cls-15{fill:#cbd0ec;}.cls-16,.cls-17{fill:#fff;}.cls-18{stroke:#f8b334;stroke-width:1.5px;}</style></defs><title>Plan de travail 3</title><path class="cls-1" d="M115.39,120.4a8.68,8.68,0,1,0,.08-17.35h-1.39a8.68,8.68,0,1,1,.08-17.36l7.87,0a8.68,8.68,0,1,0,.08-17.35l-14.8-.07A8.68,8.68,0,1,1,107.39,51L113,51a8.68,8.68,0,1,0,.09-17.35l-77.85-.37a8.68,8.68,0,1,0-.08,17.35l5.24,0A8.68,8.68,0,1,1,40.32,68l-28.84-.13a8.68,8.68,0,1,0-.08,17.35l6.57,0A8.71,8.71,0,0,1,26.62,94c0,4.77-2.95,8.66-6.51,8.64s-6.48,3.88-6.5,8.65A8.71,8.71,0,0,0,22.25,120l93.14.43Z"/><path class="cls-2" d="M104.71,35.85A86.32,86.32,0,0,0,66.9,32c-14.72,1.82-40.22,17.08-43.74,40.3S39.84,125.14,77,124s48.38-25.75,51.18-42.46S118.55,40.2,104.71,35.85Z"/><g id="Layer0_11_MEMBER_0_FILL" data-name="Layer0 11 MEMBER 0 FILL"><path class="cls-3" d="M110.76,53.89c-1-1.33-1.78-2.31-2.35-3Q101.26,43,89.25,39.74a36.84,36.84,0,0,0-23,.5A51.57,51.57,0,0,0,48.09,50.79,34.32,34.32,0,0,0,38,67.85,36.47,36.47,0,0,0,39,89.3q3.9,10.9,9,17.31Q53.95,114,69.1,117a46.37,46.37,0,0,0,16,.3,40.45,40.45,0,0,0,13.76-4.8,43.75,43.75,0,0,0,9.65-7.5,37.82,37.82,0,0,0,7.35-11.81q4.69-12.45,3.45-20.8T110.76,53.89Z"/></g><g id="Layer0_11_MEMBER_1_FILL" data-name="Layer0 11 MEMBER 1 FILL"><path class="cls-4" d="M100.11,48.34a26.4,26.4,0,0,0-10.26-5.6Q75,39.29,62.9,45.14q-13,6.26-18.76,21.21Q38,82.21,45.29,94.6q7.45,12.91,25.51,15.51,16.9,2.55,28.81-6.5,9.94-7.56,14-21,3.41-11.31-4.85-24.41A43.31,43.31,0,0,0,100.11,48.34Z"/></g><path class="cls-5" d="M97.87,101.7a2,2,0,0,1,.37,1.25,4.51,4.51,0,0,1-.58,2q-11.32,7.45-26.86,5.13A44.77,44.77,0,0,1,59.35,107a16.18,16.18,0,0,1-.24-2.32,5.56,5.56,0,0,1,.34-2.48,2.44,2.44,0,0,1,1.8-1.53,3.47,3.47,0,0,1,2.55.89,19.14,19.14,0,0,1,2.68,2.1.93.93,0,0,0,.78.38,1.26,1.26,0,0,0,.48-.38,25.9,25.9,0,0,1,8.83-6.79A29.87,29.87,0,0,1,87.4,94a5.42,5.42,0,0,1,3.95.75,4.46,4.46,0,0,1,1.49,2.58,11.11,11.11,0,0,1-.2,5.3l0,0a11.15,11.15,0,0,1,1.87-1.12,3.88,3.88,0,0,1,1.73-.48A1.82,1.82,0,0,1,97.87,101.7Zm-8-59Q75,39.29,62.9,45.14a35,35,0,0,0-8.52,5.73c-.1.2-.19.39-.27.58a2.43,2.43,0,0,0-.23,1.74c.29.77,1.11,1.13,2.44,1.08a17.16,17.16,0,0,0,6-1.8,33.59,33.59,0,0,1,6-2.24,30.54,30.54,0,0,0,2.55,5.13,13.42,13.42,0,0,0,3.87,4A11.92,11.92,0,0,0,78.27,61a7.51,7.51,0,0,0,3.77.45A5.26,5.26,0,0,0,85.4,59.1a9.49,9.49,0,0,0,1.46-3.91,10.36,10.36,0,0,0-.07-3.67,12.68,12.68,0,0,0,3.6,1.36,7.4,7.4,0,0,0,4.32-.3,6.73,6.73,0,0,0,2.75-2.11,8.54,8.54,0,0,0,1.55-3A25.31,25.31,0,0,0,89.85,42.74Z"/><g class="cls-6"><g id="Layer0_5_MEMBER_3_FILL" data-name="Layer0 5 MEMBER 3 FILL"><path class="cls-7" d="M92.67,54.21a29.52,29.52,0,0,0-20.82,3.16A43,43,0,0,0,65.53,62,46.8,46.8,0,0,0,55.47,73.26a24.44,24.44,0,0,0-3.73,14.51,28.12,28.12,0,0,0,1.9,7.71,63.33,63.33,0,0,0,6.11,11.68,45.25,45.25,0,0,0,11,3q16.92,2.55,28.81-6.52,9.95-7.55,14-21v0l.17-4.68a25.36,25.36,0,0,0-.24-5.44,17.31,17.31,0,0,0-3.16-6.69,30,30,0,0,0-7.78-7.37A29,29,0,0,0,92.67,54.21Z"/></g></g><polygon class="cls-8" points="62.63 9.98 82.09 12.45 66.52 25.49 62.63 9.98"/><polygon class="cls-9" points="69.47 43.04 60.85 9.76 62.99 8.85 71.13 42.65 69.47 43.04"/><path class="cls-10" d="M88.82,43.43c-6.22-1.82-13.3-1.73-13.55-1.29-.51.9,3.2,2.9,12,5.76C98.21,51.45,100,51,100.73,50.38S97.81,46.06,88.82,43.43Z"/><path class="cls-11" d="M103.62,40.84c-.6-.51-2.12.88-3.48,2.69a8.65,8.65,0,0,1-1.3-2.45,24.42,24.42,0,0,0,2.88-6.44c1-3.4.66-8.07-.32-11.87h0l-.12-.41-.06-.23c0-.12-.07-.25-.11-.37s0-.17-.08-.25l-.11-.35-.09-.25c0-.11-.08-.22-.11-.32s-.07-.18-.1-.26l-.12-.3-.11-.26-.12-.27a2.72,2.72,0,0,0-.11-.25L100,19l-.12-.24-.13-.23a1.71,1.71,0,0,0-.13-.23l-.12-.21-.14-.21-.12-.19-.14-.19L99,17.33l-.15-.18L98.73,17l-.16-.15-.12-.12-.17-.14-.11-.09-.2-.12-.1-.06a1.48,1.48,0,0,0-.29-.12l-.3-.07H96.8l-.23,0-.15,0a1.14,1.14,0,0,0-.25.06l-.16,0-.28.1-.15.05-.44.18-.11.06-.36.17-.2.11-.29.16-.23.13-.28.18-.23.15a2.9,2.9,0,0,0-.29.19l-.24.16-.3.21-.24.18-.51.38-.25.2-.3.24-.27.22-.19.16h0c-3.63,3.08-7.38,7.62-8.39,10.87a21.64,21.64,0,0,0-1,5.06,8.49,8.49,0,0,1-2.41,1.14c0-2.26-.41-4.28-1.2-4.23-2.35.13-5.36,9.45-.62,10.34,1,.18,1.57-2,1.76-4.33l2.55.09c0,.11,0,.23,0,.33A1.66,1.66,0,0,0,82.49,40c.41.22,1,.53,1.73.87L84,43.52a1.2,1.2,0,0,0,.75,1.23,32.06,32.06,0,0,0,6.21,1.84A1.18,1.18,0,0,0,92.1,46l1.29-2.1c.64.12,1.3.24,2,.33a1.71,1.71,0,0,0,1.52-.56l.13-.16L99.13,45c-1.26,2-2,4.09-1.15,4.52C102.32,51.62,105.43,42.34,103.62,40.84Z"/><path class="cls-9" d="M84.36,39.47,84,43.52a1.2,1.2,0,0,0,.75,1.23,32.06,32.06,0,0,0,6.21,1.84A1.18,1.18,0,0,0,92.1,46l2.17-3.53Z"/><path class="cls-12" d="M78.46,38.36l4.73.17L83,34.35s-2.58,2.3-4.72,2.38Z"/><path class="cls-12" d="M99.6,45.32l-3.9-2.67,2.65-3.25s.7,3.38,2.38,4.72Z"/><path class="cls-8" d="M103.62,40.84c1.81,1.5-1.3,10.78-5.64,8.68C96,48.56,102.23,39.67,103.62,40.84Z"/><path class="cls-13" d="M82.49,40a40.14,40.14,0,0,0,12.88,4.26,1.71,1.71,0,0,0,1.52-.56,23.6,23.6,0,0,0,4.83-9.07c1.83-6.41-.89-17.36-4.14-18.43S84.21,24.73,82.46,30.4a18.68,18.68,0,0,0-.83,8.4A1.66,1.66,0,0,0,82.49,40Z"/><path class="cls-9" d="M97.58,16.21c-1.39-.46-4,1-6.73,3.32A15.4,15.4,0,0,0,95.56,22a14.64,14.64,0,0,0,5.84.77C100.52,19.4,99.11,16.71,97.58,16.21Z"/><path class="cls-8" d="M77.89,32.37c-2.35.13-5.36,9.45-.62,10.34C79.44,43.11,79.7,32.26,77.89,32.37Z"/><path class="cls-14" d="M92.52,24.29a3,3,0,0,1,2.2.1,4,4,0,0,1,1.7,1.41,3.46,3.46,0,0,1,.22,3q-1,2.88-3.42,2.06a3.79,3.79,0,0,1-1.76-1.09,3.18,3.18,0,0,1-.73-3.32A2.84,2.84,0,0,1,92.52,24.29Z"/><path class="cls-15" d="M93.21,30a2.89,2.89,0,0,1-1.32-.84,2.16,2.16,0,0,1-.42-2.36,2.29,2.29,0,0,1,3-1.59,2.72,2.72,0,0,1,1.36.9,2.33,2.33,0,0,1,.29,2.27Q95.32,30.69,93.21,30Z"/><path class="cls-16" d="M93.48,28.32A2.13,2.13,0,0,0,94,25.87c-.14-.24-.26-.45-.38-.63a2.14,2.14,0,0,0-.74.16h0A1.71,1.71,0,0,1,93,26.66,5,5,0,0,1,92.15,28a4.29,4.29,0,0,0-.5.63A2.12,2.12,0,0,0,92,29a2.48,2.48,0,0,0,.9.65A2.56,2.56,0,0,1,93.48,28.32Z"/><g class="cls-6"><path class="cls-17" d="M82.7,31.84l0,0c4.86-11.58,13.67-14.48,14-14.51s.29.74.48,1S88.68,20.58,82.7,31.84Z"/><path class="cls-17" d="M96.81,19.39a1.3,1.3,0,0,1-.84,0,.78.78,0,0,1-.34-1.2,1.35,1.35,0,0,1,1.8-.72.82.82,0,0,1,.42,1.24A1.44,1.44,0,0,1,96.81,19.39Z"/></g><line class="cls-18" x1="86.02" y1="17.31" x2="81.87" y2="14.73"/><line class="cls-18" x1="94.45" y1="12.31" x2="93.91" y2="7.45"/><line class="cls-18" x1="103.4" y1="14.73" x2="106.58" y2="11.02"/><line class="cls-18" x1="106.58" y1="24.14" x2="111.38" y2="23.19"/></svg>