<svg id="Calque_1" data-name="Calque 1" xmlns="http://www.w3.org/2000/svg" viewBox="0 0 140 140"><defs><style>.cls-1{fill:#947ab0;}.cls-2{fill:#d2def0;fill-opacity:0.5;}.cls-3{fill:#f0f4fb;fill-opacity:0.5;}.cls-4{fill:#ede0c4;}.cls-5{fill:#bdb199;}.cls-17,.cls-6{opacity:0.5;}.cls-7{fill:#bdb29c;}.cls-8{fill:none;stroke:#fff;stroke-linecap:round;stroke-linejoin:round;stroke-width:4px;}.cls-15,.cls-16,.cls-17,.cls-18,.cls-8{fill-rule:evenodd;}.cls-9{fill:#f8b334;}.cls-10{fill:#f9edc7;}.cls-11{fill:#5c676d;}.cls-12,.cls-15{fill:#bcada2;}.cls-13{fill:#ff4e5e;}.cls-14{fill:#e5d2c6;}.cls-16{fill:#cbd0ec;}.cls-17,.cls-18{fill:#fff;}</style></defs><title>Plan de travail 17</title><path class="cls-1" d="M115.39,120.4a8.68,8.68,0,1,0,.08-17.35h-1.39a8.68,8.68,0,1,1,.08-17.36l7.87,0a8.68,8.68,0,1,0,.08-17.35l-14.8-.07A8.68,8.68,0,1,1,107.39,51L113,51a8.68,8.68,0,1,0,.09-17.35l-77.85-.37a8.68,8.68,0,1,0-.08,17.35l5.24,0A8.68,8.68,0,1,1,40.32,68l-28.84-.13a8.68,8.68,0,1,0-.08,17.35l6.57,0A8.71,8.71,0,0,1,26.62,94c0,4.77-2.95,8.66-6.51,8.64s-6.48,3.88-6.5,8.65A8.71,8.71,0,0,0,22.25,120l93.14.43Z"/><path class="cls-2" d="M104.71,35.85A86.32,86.32,0,0,0,66.9,32c-14.72,1.82-40.22,17.08-43.74,40.3S39.84,125.14,77,124s48.38-25.75,51.18-42.46S118.55,40.2,104.71,35.85Z"/><g id="Layer0_6_MEMBER_0_FILL" data-name="Layer0 6 MEMBER 0 FILL"><path class="cls-3" d="M110.76,53.89c-1-1.33-1.78-2.31-2.35-3Q101.26,43,89.25,39.74a36.84,36.84,0,0,0-23,.5A51.57,51.57,0,0,0,48.09,50.79,34.32,34.32,0,0,0,38,67.85,36.47,36.47,0,0,0,39,89.3q3.9,10.9,9,17.31Q53.95,114,69.1,117a46.37,46.37,0,0,0,16,.3,40.45,40.45,0,0,0,13.76-4.8,43.75,43.75,0,0,0,9.65-7.5,37.82,37.82,0,0,0,7.35-11.81q4.69-12.45,3.45-20.8T110.76,53.89Z"/></g><g id="Layer0_6_MEMBER_1_FILL" data-name="Layer0 6 MEMBER 1 FILL"><path class="cls-4" d="M100.11,48.34a26.4,26.4,0,0,0-10.26-5.6Q75,39.29,62.9,45.14q-13,6.26-18.76,21.21Q38,82.21,45.29,94.6q7.45,12.91,25.51,15.51,16.9,2.55,28.81-6.5,9.94-7.56,14-21,3.41-11.31-4.85-24.41A43.31,43.31,0,0,0,100.11,48.34Z"/></g><g id="Layer0_6_MEMBER_2_FILL" data-name="Layer0 6 MEMBER 2 FILL"><path class="cls-5" d="M57.72,97.45l.27.27a.87.87,0,0,0,1.29-.54.86.86,0,0,0-.17-.78,1.13,1.13,0,0,0-.58-.31.74.74,0,0,0-.68.24.49.49,0,0,0-.24.41l0,.27a.63.63,0,0,0,.14.44M94.1,98.88a1.53,1.53,0,0,0-.68,0,2.14,2.14,0,0,0-1,.4.93.93,0,0,0-.31.92.82.82,0,0,0,.61.61,1.55,1.55,0,0,0,.85,0,1.27,1.27,0,0,0,.95-.71,1.16,1.16,0,0,0,0-.72.92.92,0,0,0-.51-.47m6.79-30.81a1.8,1.8,0,0,0,.24-.38,1.4,1.4,0,0,0-.07-.75,1.86,1.86,0,0,0-.51-.57,2.17,2.17,0,0,0-.61-.24.57.57,0,0,0-.61.24.86.86,0,0,0-.1.41l0,.47a1.56,1.56,0,0,0,.44.61,1.37,1.37,0,0,0,.55.34.64.64,0,0,0,.64-.13m-47.11-8.6a1.55,1.55,0,0,0-.17.55.84.84,0,0,0,.06.61.5.5,0,0,0,.72.23,1.17,1.17,0,0,0,.68-.47,2.62,2.62,0,0,0,.57-.88.66.66,0,0,0,.11-.51.43.43,0,0,0-.28-.34.49.49,0,0,0-.44-.07,1.6,1.6,0,0,0-.81.44,1.76,1.76,0,0,0-.44.44M80,47.17a1,1,0,0,0-.65.17.45.45,0,0,0-.07.68.72.72,0,0,0,.68.34l.31,0h.23a.49.49,0,0,0,.45-.54.54.54,0,0,0-.45-.55,1.52,1.52,0,0,0-.5-.07m-1.84,6.32a.33.33,0,0,0,.07-.4.43.43,0,0,0-.27-.31.81.81,0,0,0-.38-.07,1.23,1.23,0,0,0-.68.31l-.1.17-.07.2a.7.7,0,0,0,.21.54.44.44,0,0,0,.61.07l.24-.17c.22-.16.35-.27.37-.34M61.35,84.2a1.33,1.33,0,0,0-.51-1,2.65,2.65,0,0,0-.75-.38,1.49,1.49,0,0,0-.74-.24,1.2,1.2,0,0,0-1,.58,2.68,2.68,0,0,0-.3,1.12,1.62,1.62,0,0,0,.57,1.4,1.44,1.44,0,0,0,.58.23,1.72,1.72,0,0,0,1.9-.68,1.48,1.48,0,0,0,.24-1m-2.14.41a4.13,4.13,0,0,0,.61.54.88.88,0,0,1-.88-.13l-.21-.34-.06-.21a1.55,1.55,0,0,1,.17-.78l.2-.34,0,.48a1,1,0,0,0,.2.78m7.68-2.28a1.12,1.12,0,0,0-.61-1,1,1,0,0,0-1.16.07,2,2,0,0,0-.41.41l-.27.44a1.36,1.36,0,0,0,.1,1.22,1.07,1.07,0,0,0,1.12.55,1.5,1.5,0,0,0,1.06-1,1.52,1.52,0,0,0,.17-.68m-1.63-.13v.13l-.07.1-.07.14,0,.1v.1l0,.14-.1-.14c.07,0,.1,0,.1-.1v-.1l.1-.24.11-.13m37.53-26.94a2.67,2.67,0,0,0-1.42.47,2.2,2.2,0,0,0-.89,1.16,3.35,3.35,0,0,0-.13,1,3.49,3.49,0,0,0,.51,1.83l.47.64a12.51,12.51,0,0,0,.78,1.06,5.56,5.56,0,0,0,.85.71c.75.52,1.49,1,2.21,1.39a2.84,2.84,0,0,0,1.53.51,1.85,1.85,0,0,0,1.7-1.22,3.18,3.18,0,0,0,.13-2.17,5.63,5.63,0,0,0-.85-2A10.77,10.77,0,0,0,106.29,57a7.59,7.59,0,0,0-.71-.68,3.76,3.76,0,0,0-2.79-1.09m2.82,3.67-.3-.38a13,13,0,0,0-1.63-1.49,4.77,4.77,0,0,0-.62-.48l-.57-.23a1.31,1.31,0,0,1,1-.07,3.08,3.08,0,0,1,1.42.71l1.19,1.19a5.17,5.17,0,0,1,.65.71,5.45,5.45,0,0,1,.81,1.7,2.77,2.77,0,0,1,.1,1.43,1.22,1.22,0,0,1-1,1,1.11,1.11,0,0,0,.51-1,3.72,3.72,0,0,0-.37-1.12,13,13,0,0,0-1.26-2M86.69,55.5l.17.47a4.39,4.39,0,0,0,1.9,1.6,10.27,10.27,0,0,0,2.35.88,2.68,2.68,0,0,0,.71,0,1.24,1.24,0,0,0,.88-.92,1.1,1.1,0,0,0,.11-.71,2.34,2.34,0,0,0-.51-1.43,6.8,6.8,0,0,0-1.06-1.12l-.61-.44a3.07,3.07,0,0,0-2-.55,2.74,2.74,0,0,0-1.86,1l0,.72a.82.82,0,0,0,0,.44m2.11-1.26a3.32,3.32,0,0,1,2.27,1,4.34,4.34,0,0,1,.82,1,1.4,1.4,0,0,1,0,1.26,1.26,1.26,0,0,0-.31-1.19,6.43,6.43,0,0,0-2.78-2.07m-32.31-1a1.68,1.68,0,0,0,1.5.5,4.86,4.86,0,0,0,1.53-.54A13.78,13.78,0,0,0,65,49.14a3.36,3.36,0,0,0,.48-.78,1.3,1.3,0,0,0-.07-1.29,1.37,1.37,0,0,0-1.29-.4,7.74,7.74,0,0,0-3.81,1,10.8,10.8,0,0,0-3.12,2.45,5.53,5.53,0,0,0-1,1.46,1.57,1.57,0,0,0,.3,1.67M57,52.07a2.59,2.59,0,0,1,.34-.75,9,9,0,0,1,2.78-2.51,8.86,8.86,0,0,1,3.5-1.26,2.73,2.73,0,0,1,1,0,4.19,4.19,0,0,0-1.87.41,9.21,9.21,0,0,0-1.12.54,12.27,12.27,0,0,0-1.5.95l-.75.55a7.92,7.92,0,0,0-1.56,1.32,1.62,1.62,0,0,0-.44,1.43.59.59,0,0,1-.37-.71M69.1,59.3a1.44,1.44,0,0,0-.34-.17,1.61,1.61,0,0,0-1.5.07l-.24.24a2.46,2.46,0,0,0-.51.64l-.06.34a3.6,3.6,0,0,0,0,1.29A1.85,1.85,0,0,0,67.91,63a.89.89,0,0,0,.51,0l.4-.17.41-.31a2.59,2.59,0,0,0,.58-1l.1-.27a1.19,1.19,0,0,0,0-.75l-.38-.68a3.32,3.32,0,0,0-.4-.51m-1.53.85a1.34,1.34,0,0,1,.4-.34l.51,0-.78.61a1.47,1.47,0,0,0-.27.71,1.35,1.35,0,0,0,0,.51.53.53,0,0,1-.17-.41l.06-.44a1,1,0,0,1,.07-.41.82.82,0,0,1,.21-.27m7.57,46.3a4,4,0,0,0,.88-.3,3.17,3.17,0,0,0,.82-.51,2.15,2.15,0,0,0,1-1.33,1.41,1.41,0,0,0-.71-1.36,4.64,4.64,0,0,0-1.57-.44,12.64,12.64,0,0,0-6.45,1.09,2.21,2.21,0,0,0-1,.71,1,1,0,0,0-.1.82,1.3,1.3,0,0,0,.44.74,2.37,2.37,0,0,0,.72.38,4.06,4.06,0,0,0,1,.3l1.19.14a15.53,15.53,0,0,0,3.8-.24m-2-.51a17.73,17.73,0,0,0,1.9-.37,4.47,4.47,0,0,0,1.7-.95,1.36,1.36,0,0,0,.24-.24,1.53,1.53,0,0,1-.54.78,4.27,4.27,0,0,1-.78.54,3.29,3.29,0,0,1-1,.24,7.81,7.81,0,0,1-1.76.24l-1.77,0a17.49,17.49,0,0,0,2-.21M44.74,80.4a1.28,1.28,0,0,0-.37.78,9.33,9.33,0,0,0,.44,5.57l.51,1A9.54,9.54,0,0,0,48,90.93a1.83,1.83,0,0,0,1.87.3,1.93,1.93,0,0,0,.88-1.56,9.71,9.71,0,0,0-1.15-5.06,11.61,11.61,0,0,0-1.5-2.51,5.87,5.87,0,0,0-2.34-1.74,1.2,1.2,0,0,0-1,0m0,3.56c0-.21,0-.6,0-1.15a14.07,14.07,0,0,0,.85,2.65,21.35,21.35,0,0,0,2.28,4.11,11,11,0,0,1-1.5-1.73,13.2,13.2,0,0,1-1.15-1.94A7.15,7.15,0,0,1,44.77,84m14.54-7.4a4.44,4.44,0,0,0,.07-1.73,3.2,3.2,0,0,0-1.66-2.21,3.26,3.26,0,0,0-2.11-.31,3.47,3.47,0,0,0-1.26.55l-.57.44-.51.57a3.31,3.31,0,0,0-.55,1,5.12,5.12,0,0,0-.27,1.6A3.11,3.11,0,0,0,52.93,78a3.19,3.19,0,0,0,1.49,1.15l.82.31a3.19,3.19,0,0,0,2.85-.82,4.05,4.05,0,0,0,.61-.74l.27-.38a3,3,0,0,0,.34-1m-5.53-.92a2,2,0,0,1,.33-.81,3.42,3.42,0,0,0,.41,2.2,3,3,0,0,0,1.7,1.4,2.11,2.11,0,0,1-1.43-.34,1.85,1.85,0,0,1-1-1.06,2.64,2.64,0,0,1,0-1.39M85,84.27h-.48a1.25,1.25,0,0,0-.78.41,2.7,2.7,0,0,0-.51.74l-.13.34a1.68,1.68,0,0,0,0,1.09l.13.27a1.34,1.34,0,0,0,.51.41,1.62,1.62,0,0,0,.89.24,1.26,1.26,0,0,0,.57-.14.88.88,0,0,0,.38-.2l.34-.41.3-.54.07-.34a2.11,2.11,0,0,0,.14-.75l0-.2-.13-.28a1.32,1.32,0,0,0-.34-.34,2,2,0,0,0-.51-.23L85,84.27m.17,2,.17-.34,0,.24-.07.1-.1.31-.3.3a.77.77,0,0,1-.48,0,.74.74,0,0,0,.48-.27l.27-.34M72.56,89.87a7.48,7.48,0,0,0-.07,1.36A2.22,2.22,0,0,0,73,92.49l.54.41a3.47,3.47,0,0,0,3.09.54,3.33,3.33,0,0,0,.88-.51A12.28,12.28,0,0,0,79,91.74a5.39,5.39,0,0,0,1.46-3.16l0-1.12a5.3,5.3,0,0,0-.16-1,4,4,0,0,0-.65-.92,4.45,4.45,0,0,0-.75-.71,2.35,2.35,0,0,0-1.32-.38A4.15,4.15,0,0,0,74.36,86a5.64,5.64,0,0,0-1.8,3.87m6-1.08.1-.31.37-.54a3.57,3.57,0,0,0,.24-1A5,5,0,0,1,79,89.64l-.3.68-.54.71-.51.47a7.4,7.4,0,0,1-1,.68,2,2,0,0,1-1.12.31A2.48,2.48,0,0,1,74,91.88a.86.86,0,0,1-.34-.31,3.23,3.23,0,0,0-.2-.71,2.06,2.06,0,0,0,.85.64,2,2,0,0,0,.88.14A3,3,0,0,0,76.53,91a8,8,0,0,0,1.6-1.49L78.4,89l.21-.23m23.61-12a4.75,4.75,0,0,0-.31,2.54,3.55,3.55,0,0,0,2.72,3,2.49,2.49,0,0,0,1.08,0,1.66,1.66,0,0,0,.79-.27,5.06,5.06,0,0,0,1.93-1.7,6.11,6.11,0,0,0,1-2.44,4.52,4.52,0,0,0-.14-2.08,5.72,5.72,0,0,0-1.12-1.56l-.51-.47a2.81,2.81,0,0,0-2.45-.24,4.21,4.21,0,0,0-.84.3,4.85,4.85,0,0,0-.89.75,6.41,6.41,0,0,0-1.25,2.18m5.06,3.39-.24.24a7.39,7.39,0,0,1-1.12.75,1.55,1.55,0,0,1-.65.1l.51-.37a6.78,6.78,0,0,0,1.56-1.67,6.22,6.22,0,0,0,.62-1.76L108,77a10.74,10.74,0,0,0,0-1.39,3.19,3.19,0,0,1,.45,1.09l0,.41-.1.47,0,.37a.86.86,0,0,1-.1.41,7.81,7.81,0,0,1-.61,1.19c0,.11-.09.25-.27.41l-.1.2M86.22,71.77a2.81,2.81,0,0,0-2.11-.07,3.36,3.36,0,0,0-1.73,1.22,4.78,4.78,0,0,0-.89,2.92,2,2,0,0,0,.17.89,2.89,2.89,0,0,0,.62.85,4.36,4.36,0,0,0,2.17,1.25l.85,0a3,3,0,0,0,.81-.07,1.08,1.08,0,0,0,.62-.27,4,4,0,0,0,1.8-2.11,3.58,3.58,0,0,0,.23-1,2.73,2.73,0,0,0-.17-1.12l-.34-.68-.54-.75-.58-.54-.91-.61m-.28,6-.37,0a4.29,4.29,0,0,1-1.49-.2,3,3,0,0,0,1.8-.27l.78-.58a2.72,2.72,0,0,0,.47-.65,4.34,4.34,0,0,0,.44-1,2.77,2.77,0,0,0,.14-1V74a3,3,0,0,1,.37.68l.07.2-.07.27,0,.34-.2.41a4.39,4.39,0,0,1-1.6,1.73Z"/></g><g class="cls-6"><g id="Layer0_6_MEMBER_3_FILL" data-name="Layer0 6 MEMBER 3 FILL"><path class="cls-7" d="M98.44,51.56s-.09.12-.13.3a3.75,3.75,0,0,0,.51,2.55s.09,0,.13-.1a3.05,3.05,0,0,0,.31-.85,2.21,2.21,0,0,0,.14-.75,1.48,1.48,0,0,0-.65-1.29,1.32,1.32,0,0,0-.31.14M87.57,45.31h-.06a2.62,2.62,0,0,0-.38.23.83.83,0,0,0,0,.45l.07.3a1.8,1.8,0,0,0,.31.68c.22.27.45.35.68.24a.36.36,0,0,0,.23-.21l.14-.23a1.71,1.71,0,0,0-.1-.38l-.14-.3-.27-.48a.86.86,0,0,0-.48-.3m2.25.91a.57.57,0,0,0-.11.51,1.51,1.51,0,0,0,.14.51l.1.27a.83.83,0,0,0,.38.31.44.44,0,0,0,.44,0,.56.56,0,0,0,.27-.31,1.69,1.69,0,0,0,.1-.37,1,1,0,0,0-.13-.44l-.24-.48a.65.65,0,0,0-.48-.2.53.53,0,0,0-.47.23m3,.61a.56.56,0,0,0-.65-.23.81.81,0,0,0-.54.47l-.1.82-.17.58a.61.61,0,0,0,.14.57.44.44,0,0,0,.54.14.94.94,0,0,0,.37-.41l.14-.24.17,1.06a2.06,2.06,0,0,0,.51,1.25,1,1,0,0,0,.54.17c.32,0,.62-.25.92-.74a4.08,4.08,0,0,1,.27,1c0,.23.1.57.17,1a1.67,1.67,0,0,0,.37.78.62.62,0,0,0,.82.21,2.82,2.82,0,0,0,.54.61c.3.13.58,0,.85-.34a1.91,1.91,0,0,0,.1-1.57,12.81,12.81,0,0,1-.54-1.49,5.5,5.5,0,0,0-.27-.75.66.66,0,0,0-.61-.41.42.42,0,0,0-.34.17.48.48,0,0,0-.17.34l-.1,0a8,8,0,0,0-.65-2.24q-.34-.55-.75-.51a.75.75,0,0,0-.51.61,2.64,2.64,0,0,0-.1.71c0,.25,0,.42-.1.51a.81.81,0,0,1-.24-.44,2.16,2.16,0,0,0-.1-.54l-.51-1.13M49,65.69l.4-.41a.54.54,0,0,0,.1-.51.41.41,0,0,0-.44-.34,1.18,1.18,0,0,0-.64.2,5.68,5.68,0,0,1-.41.48,1.53,1.53,0,0,0-.27.31.3.3,0,0,0-.1.34l.17.23.23.14a.68.68,0,0,0,.41-.1l.55-.34m0,17.39h-.1a.66.66,0,0,0-.34.2.9.9,0,0,0-.17.38,1,1,0,0,0,.2.81.38.38,0,0,0,.24.14H49l.27-.14a.82.82,0,0,0,.27-.81.89.89,0,0,0-.17-.41.47.47,0,0,0-.41-.17m-.64-1.9a4.47,4.47,0,0,0,.34-.78.82.82,0,0,0-.28-.44.47.47,0,0,0-.51,0l-.3.27a1.94,1.94,0,0,0-.51,1.53,1.24,1.24,0,0,0,.44.71l.58-.68.24-.61m0-12.71a1.77,1.77,0,0,0,.3-.37.36.36,0,0,0,0-.44.51.51,0,0,0-.44-.17l-.45.2a14.58,14.58,0,0,0-3.36,2.86,1.47,1.47,0,0,0-.37.67.68.68,0,0,0,.37.65.89.89,0,0,0,.75,0l-1,1.73a1.55,1.55,0,0,0-.24.58.61.61,0,0,0,.1.58l.21.2a.3.3,0,0,1,.13.24.52.52,0,0,1-.1.31,4,4,0,0,0-.41.84,1.13,1.13,0,0,0,0,1,.81.81,0,0,0,.92.31,6,6,0,0,0,.91-.41,4.06,4.06,0,0,0-.37,2.68,1.19,1.19,0,0,0,.17.51.53.53,0,0,0,.47.27.51.51,0,0,0,.45-.3,1.69,1.69,0,0,0,.17-.55,17.28,17.28,0,0,1,1.18-3.39A2.63,2.63,0,0,0,48,75.37a.86.86,0,0,0-.13-.58.89.89,0,0,0-.48-.3,1.58,1.58,0,0,0-.54.13,1.92,1.92,0,0,1-.54.14L47.76,73a.76.76,0,0,0,.27-.65c0-.16-.13-.27-.34-.34a.76.76,0,0,0-.54.07,1.5,1.5,0,0,0-.41.34l-.37.41a2.43,2.43,0,0,1-.78.54,10.86,10.86,0,0,1,2-2.24,2.82,2.82,0,0,0,.47-.54.48.48,0,0,0,0-.68c-.23-.23-.55-.23-1,0a1.78,1.78,0,0,1-.92.37,19.23,19.23,0,0,0,2.11-1.77m6.62,21.71a.47.47,0,0,0-.41-.37h-.13l-.17.1-.55.54a.79.79,0,0,0-.23.38v.3l.1.27a.47.47,0,0,0,.57.1,1.61,1.61,0,0,0,.45-.44,2.57,2.57,0,0,0,.3-.51l.07-.37m.17,1.15-.27.14-.65.58a1.64,1.64,0,0,0-.27.34l-.13.3a.62.62,0,0,0,0,.31l.17.07a1.39,1.39,0,0,0,.47,0,.84.84,0,0,0,.45-.27l.34-.37a1.85,1.85,0,0,0,.44-.58.47.47,0,0,0-.58-.55M67.36,71.7a.45.45,0,0,0,.1.58.48.48,0,0,0,.58.07.46.46,0,0,0,.24-.21l.1-.2a.39.39,0,0,0-.17-.48.32.32,0,0,0-.27-.13.5.5,0,0,1-.24,0l-.13.07a.82.82,0,0,0-.21.27m0,3.7-.11-.2-.44-.2-.06.06a.58.58,0,0,0-.41.11.59.59,0,0,0-.27.3.32.32,0,0,0,0,.37.45.45,0,0,0,.48.31,1.08,1.08,0,0,0,.57-.17.65.65,0,0,0,.28-.31.31.31,0,0,0,0-.27m-2.35,3.33a.85.85,0,0,0,.55.38,1.15,1.15,0,0,0,.57-.21,4.54,4.54,0,0,0,1-.64,1,1,0,0,0,.47-.58.47.47,0,0,0-.2-.68,1.36,1.36,0,0,1-.31-.14,4.18,4.18,0,0,0-1.66.79,1.41,1.41,0,0,0-.41.44.66.66,0,0,0,0,.64m.65,2.45a1.24,1.24,0,0,0,.2-.1l-.1.1a2.16,2.16,0,0,0-.51.71c-.09.39,0,.64.34.75a2.47,2.47,0,0,1-.61.68,1,1,0,0,0-.44.68c0,.3.22.53.61.71l-.75.51a3.82,3.82,0,0,0-.51.44.63.63,0,0,0-.07.61.57.57,0,0,0,.55.28,1.11,1.11,0,0,0,.57-.21,8.45,8.45,0,0,0,1.16-.71,12.7,12.7,0,0,0,1.73-1.43,1,1,0,0,0,.41-.61.36.36,0,0,0-.07-.37.33.33,0,0,0-.3-.21.76.76,0,0,0-.41.17l-.92.61c.34-.32.72-.71,1.12-1.15a1.07,1.07,0,0,0,.34-.71.4.4,0,0,0-.17-.34.45.45,0,0,0-.41-.14A4,4,0,0,1,68,80.7c.27-.31.32-.59.14-.81a.5.5,0,0,0-.55-.17,1.44,1.44,0,0,0-.51.3l-.47.38a6.06,6.06,0,0,0,1-1.19c.23-.34.25-.6.07-.78a.38.38,0,0,0-.51-.11,1.46,1.46,0,0,0-.47.34l-1.26,1.16a7.42,7.42,0,0,0-.48.64.53.53,0,0,0,.17.72.5.5,0,0,0,.55,0M85.09,99.59a.51.51,0,0,0,.11-.48.63.63,0,0,0-.31-.4l-.2.1a.31.31,0,0,0-.21.34.91.91,0,0,0,.07.41l.1.1a.37.37,0,0,1,.11.27v.17l.1.1c.06,0,.1,0,.1-.13l0-.21.17-.27m-2.68-.75-.1-.34a.77.77,0,0,0-.58-.41l-.17.07a.57.57,0,0,0-.27.17.72.72,0,0,0-.1.38.66.66,0,0,0,0,.44.69.69,0,0,0,.1.41.43.43,0,0,0,.31.23l.27,0a.5.5,0,0,0,.44-.27l.1-.24,0-.21,0-.27M79.73,98l0,.07c-.09-.07-.19,0-.3.14l-.07.13v.17l.07.21a2.26,2.26,0,0,1,.27.2.7.7,0,0,0,.34,0l.14-.11,0-.2a.57.57,0,0,0-.44-.58m-1.6,1q.24-.06.27-.24l-.1-.27-.13-.2a.37.37,0,0,0-.28-.1h-.06l-.14.06-.07.17a.77.77,0,0,1,.14.41.49.49,0,0,0,.37.17M74.8,97.65l-.17.38a1,1,0,0,0-.07.51,1.09,1.09,0,0,0,.28.71,1.13,1.13,0,0,0,.81.37.69.69,0,0,0,.41-.2.63.63,0,0,0,.1-.44c-.16-.27-.27-.48-.34-.61L75.75,98a.62.62,0,0,0-.57-.48v.07c-.12-.07-.24,0-.38.1M73.21,97l-.31.27a1.63,1.63,0,0,0-.31.78l0,.55a1.28,1.28,0,0,0,.14.68.6.6,0,0,0,.37.3c.29.16.52.16.68,0s.18-.35.13-.71a8.17,8.17,0,0,1,0-1,.85.85,0,0,0,0-.5.4.4,0,0,0-.27-.41c-.09-.07-.22-.06-.4,0m-2.08-.47-.2.3a3.41,3.41,0,0,0-.34,1.26,1.61,1.61,0,0,0,.1.68c.14.27.32.37.55.3s.23-.09.37-.27L72.08,97a.74.74,0,0,0,0-.51.33.33,0,0,0-.34-.3.73.73,0,0,0-.58.41M70,94.66a1.29,1.29,0,0,0-.37.45,5.11,5.11,0,0,0-.58,2.14,1,1,0,0,0,.37,1,.5.5,0,0,0,.48.07c.23-.07.36-.28.41-.61a5.18,5.18,0,0,0,0-.79,5.39,5.39,0,0,1,.24-.91,2.83,2.83,0,0,0,.2-.92.55.55,0,0,0-.23-.51c-.14-.11-.32-.1-.55,0m0-1.29a.51.51,0,0,0-.47-.47,1,1,0,0,0-.55.27,3.64,3.64,0,0,0-1.08,2.51,1.31,1.31,0,0,0,.23.85.59.59,0,0,0,.79.27,3.4,3.4,0,0,0,.3-.85,6.51,6.51,0,0,1,.27-1.29,3.45,3.45,0,0,1,.34-.61,1.15,1.15,0,0,0,.17-.68m-2.65-7a1.2,1.2,0,0,0,.38-.34.48.48,0,0,0,.06-.24.29.29,0,0,0-.13-.2.53.53,0,0,0-.31-.07,5.43,5.43,0,0,0-2.54,1.36l-1,.88a11,11,0,0,0-1.57,1.53,1.65,1.65,0,0,0-.4.92.67.67,0,0,0,.17.47.61.61,0,0,0,.4.28,1.09,1.09,0,0,0,.58-.17L64,90.28a4.06,4.06,0,0,0-.44,1,.93.93,0,0,0,.41,1,1.24,1.24,0,0,0,1.26-.1,1.7,1.7,0,0,0-.31.68.75.75,0,0,0,.1.74.8.8,0,0,0,.72.31,1.72,1.72,0,0,0,.78-.27,3.4,3.4,0,0,0-.38,1.15,1.1,1.1,0,0,0,.24.55.65.65,0,0,0,.55.2.68.68,0,0,0,.5-.41,2.79,2.79,0,0,0,.28-.61,4.78,4.78,0,0,1,.78-1.42l.54-.75a3.05,3.05,0,0,0,.34-.89.84.84,0,0,0-.41-.61.91.91,0,0,0-.68.11,2.28,2.28,0,0,1-.64.33l1-1.25a1.32,1.32,0,0,0,.34-.65A.45.45,0,0,0,69,89a.67.67,0,0,0-.37-.27,1.32,1.32,0,0,0-1,.34L66,90.15l1.5-1.43a2.2,2.2,0,0,0,.41-.51.6.6,0,0,0,0-.61.74.74,0,0,0-.72-.21l-.64.34-1.7.79a17.66,17.66,0,0,1,2.51-2.11m17.53-22-.13,0c-.12,0-.22.09-.31.27a1.15,1.15,0,0,0-.2.61.4.4,0,0,0,.27.51.38.38,0,0,0,.44-.07.93.93,0,0,0,.3-.34.72.72,0,0,0,.07-.61c-.09-.27-.24-.41-.44-.41m.88,2,.07.27a.67.67,0,0,0,.34.31.4.4,0,0,0,.27-.07.81.81,0,0,0,.45-.51,3,3,0,0,0,.06-.68l-.1-.31a.54.54,0,0,0-.27-.17.66.66,0,0,0-.51.41l-.17.41a3.6,3.6,0,0,1-.14.34m3.1-.65a.44.44,0,0,0-.38-.13c-.13,0-.28.16-.44.41l-.58.81a2.13,2.13,0,0,0-.2.44l.1.68s.18,0,.41,0a.7.7,0,0,0,.58-.24,2.43,2.43,0,0,0,.34-.54l.1-.27A1.42,1.42,0,0,0,89,66.2a.93.93,0,0,0-.17-.38m.47,2.76a7.2,7.2,0,0,0,.41-.75,1.12,1.12,0,0,0,.17-.58.48.48,0,0,0-.38-.44.44.44,0,0,0-.33.13,1.06,1.06,0,0,0-.24.31l-.61.75a1,1,0,0,0-.34.58.39.39,0,0,0,.1.34.41.41,0,0,0,.27.2.55.55,0,0,0,.54-.1l.41-.44M91,68.44a1.31,1.31,0,0,0-.07-.58c-.09-.22-.22-.34-.4-.34a1.22,1.22,0,0,0-.41.21,2,2,0,0,0-.38.88,5.77,5.77,0,0,1-.4,1.09,2.17,2.17,0,0,0-.24.61.67.67,0,0,0,.17.64A.59.59,0,0,0,90,71a2.2,2.2,0,0,0,.51-.68A6.86,6.86,0,0,0,91,68.44m1.16-.71a.45.45,0,0,0-.51-.14c-.14,0-.23.19-.27.44l-1,3.16a4.42,4.42,0,0,0-.24,1.09c0,.43.07.7.34.81s.49.07.72-.2a3.29,3.29,0,0,0,.34-.75l.5-2a6,6,0,0,0,.28-1.93,2,2,0,0,0-.17-.51m9.34,12.5a.7.7,0,0,0-.92.17,2.51,2.51,0,0,0-.54.81,11.41,11.41,0,0,1-2.45,3.26,12.48,12.48,0,0,0,2.11-5.84,1.3,1.3,0,0,0-.34-1.12.85.85,0,0,0-1.06.07,1.79,1.79,0,0,0-.64.88,6,6,0,0,0-.41,1.12c-.1-.08-.25,0-.44.17a22.19,22.19,0,0,1,1.39-3,1.86,1.86,0,0,0,.24-.65.7.7,0,0,0-1-.64,1.24,1.24,0,0,0-.38.44,2,2,0,0,1-.4.51c.27-.84.57-1.65.91-2.45a3.17,3.17,0,0,0,.28-1.08,1,1,0,0,0-.21-.51.59.59,0,0,0-.47-.24c-.3,0-.59.2-.89.68l-1.46,2.27a14.31,14.31,0,0,1,.75-2.44,15.17,15.17,0,0,0,.71-2.45,1,1,0,0,0-.17-1,.6.6,0,0,0-.74,0,1.39,1.39,0,0,0-.58.54c-.07.09-.32.5-.75,1.22l-1,1.87.37-1.09a4.87,4.87,0,0,0,.27-3.32c0-.23-.14-.36-.3-.38s-.27.06-.41.24c0,0,0,.18-.1.48a9.87,9.87,0,0,1-.51,2.14c-.36,1.15-.58,1.86-.65,2.14q-.24.81.24,1a.46.46,0,0,0,.44,0l-.07.14A18.22,18.22,0,0,0,90.94,77a.84.84,0,0,0,0,.58c.14.22.36.26.68.1l.61-.51a14.65,14.65,0,0,0-1,2.48,1.56,1.56,0,0,0,0,.85A.69.69,0,0,0,92,81a.94.94,0,0,0,.79-.34,5.6,5.6,0,0,0-1,1.3,1.07,1.07,0,0,0-.1.81.75.75,0,0,0,.47.58,1,1,0,0,0,1.09-.38c.45-.49.74-.79.85-.88a8.55,8.55,0,0,1-.85,1.63c-.29.57-.37,1-.24,1.19a.64.64,0,0,0,.85.24,1.73,1.73,0,0,0,.75-.58,11.26,11.26,0,0,0,2.48-4.08,4.34,4.34,0,0,0,0,.51,6.52,6.52,0,0,1,1.29-1.63,11.22,11.22,0,0,1-1.63,4.42c-1.18,1.74-2,3.07-2.58,4-.34.59-.39,1-.14,1.36s.53.32,1,.14a2.59,2.59,0,0,0,.78-.71,5.11,5.11,0,0,1-.54,1.08A1.4,1.4,0,0,0,95,90.66a.78.78,0,0,0,.71.57.74.74,0,0,0,.68-.23,2.51,2.51,0,0,0-.34.61.7.7,0,0,0,.17.85,1.45,1.45,0,0,0,1.09.1,2.32,2.32,0,0,0-.68,1,1.26,1.26,0,0,0,0,.61.71.71,0,0,0,.41.37,1,1,0,0,0,.89-.2,9.69,9.69,0,0,1,.84-.54,2.08,2.08,0,0,1-.27.61c-.18.25-.31.43-.4.54a1.2,1.2,0,0,0-.14.68.61.61,0,0,0,.24.54.79.79,0,0,0,.91,0,2.58,2.58,0,0,0-.57.92.9.9,0,0,0,.17,1,.67.67,0,0,0,.54.14.46.46,0,0,0,.41-.27c0,.52.22.83.54.92s.6-.12,1-.55c1.4-1.81,2.31-3,2.71-3.63a5,5,0,0,0,1-2.28.6.6,0,0,0-.1-.41c-.2-.13-.4-.05-.58.24s-.3.47-.44.51a2.72,2.72,0,0,0,.55-.78c.09-.41,0-.68-.28-.81a.72.72,0,0,0-.88.16l-.61.82a6.4,6.4,0,0,0,.61-1.49,1.13,1.13,0,0,0,0-.72.48.48,0,0,0-.34-.34.55.55,0,0,0-.47,0,3.12,3.12,0,0,0,.41-.85c0-.4-.11-.64-.44-.71a.68.68,0,0,0-.58.27,4.14,4.14,0,0,1-.48.61l1.12-1.9a1.16,1.16,0,0,0,.21-.75.52.52,0,0,0-.34-.34.94.94,0,0,0-.55,0,1.93,1.93,0,0,0-.74.75,2.65,2.65,0,0,1-.72.78L101.47,86a1.93,1.93,0,0,0,.41-.72.64.64,0,0,0-.21-.74c-.32-.23-.72-.14-1.22.27a18.42,18.42,0,0,0,1.19-3.19C101.89,80.91,101.83,80.45,101.47,80.23Z"/></g></g><g class="cls-6"><g id="Layer0_5_MEMBER_3_FILL" data-name="Layer0 5 MEMBER 3 FILL"><path class="cls-7" d="M92.67,54.21a29.52,29.52,0,0,0-20.82,3.16A43,43,0,0,0,65.53,62,46.8,46.8,0,0,0,55.47,73.26a24.44,24.44,0,0,0-3.73,14.51,28.12,28.12,0,0,0,1.9,7.71,63.33,63.33,0,0,0,6.11,11.68,45.25,45.25,0,0,0,11,3q16.92,2.55,28.81-6.52,9.95-7.55,14-21v0l.17-4.68a25.36,25.36,0,0,0-.24-5.44,17.31,17.31,0,0,0-3.16-6.69,30,30,0,0,0-7.78-7.37A29,29,0,0,0,92.67,54.21Z"/></g></g><g class="cls-6"><path class="cls-8" d="M2.41,118.64a1,1,0,1,0,1.42.1A1,1,0,0,0,2.41,118.64Z"/><path class="cls-8" d="M9.63,130.93a.93.93,0,0,0-.09,1.3.91.91,0,0,0,1.3.09h0a.92.92,0,1,0-1.21-1.39Z"/><path class="cls-8" d="M55,91.66c0-.11.06-.23.08-.34s.07-.31.11-.46.05-.25.07-.36l.09-.44c0-.12,0-.25.07-.37l.06-.41.06-.37c0-.13,0-.26,0-.39s0-.25,0-.37l0-.37c0-.12,0-.23,0-.35s0-.23,0-.35,0-.23,0-.35v-.32c0-.11,0-.22,0-.33s0-.21,0-.3a3.16,3.16,0,0,0,0-.32l0-.28c0-.1,0-.2,0-.3a2.21,2.21,0,0,0-.05-.25c0-.1,0-.19-.07-.29l-.06-.21c0-.1-.07-.18-.1-.27l-.07-.19c0-.09-.09-.17-.14-.26L55,83.27a2.85,2.85,0,0,0-.25-.33h0a2.68,2.68,0,0,0-.3-.28l-.12-.08a2.26,2.26,0,0,0-.26-.16l-.16-.09-.28-.12-.2-.07L53.08,82l-.21,0-.39-.09-.2,0c-.2,0-.41-.07-.63-.09h-.17l-.53,0h-1.9l-.45,0-.39,0-.49,0-.38,0q-.42,0-.84.09l-.43.06-.49.06-.47.08-.32,0h0c-6.24,1-13.61,3.65-17,6.66a29.36,29.36,0,0,0-4.53,5.12,11.48,11.48,0,0,1-3.53-.34c1.52-2.59,2.44-5.16,1.51-5.65-2.76-1.44-12.54,7.13-7.74,11.37,1,.87,3.12-1.15,4.94-3.73l2.85,1.84c-.05.13-.12.28-.17.4a2.24,2.24,0,0,0,.16,2c.32.53.78,1.28,1.38,2.16l-2.1,2.83a1.51,1.51,0,0,0-.26.63A10,10,0,0,0,11,107.46l-7.46,6.47a2.08,2.08,0,0,0,2.73,3.15l.81-.71a1.14,1.14,0,0,1,1.6.11h0a1.13,1.13,0,0,1-.12,1.59L5.29,120.9a3.28,3.28,0,0,0,4.3,5l3.35-2.9a1,1,0,0,1,1.33,1.54l-1.8,1.56a2.53,2.53,0,0,0,3.31,3.82l8.36-7.25a10,10,0,0,0,3.31-9.28,1.6,1.6,0,0,0,.71-.16l2.9-1.52c.65.59,1.32,1.17,2,1.73a2.28,2.28,0,0,0,2.12.4l.26-.08,1.42,3.08c-2.81,1.44-5.12,3.26-4.39,4.37,3.51,5.35,13.38-3.11,12.34-6.06-.34-1-3-.44-5.8.7a11.2,11.2,0,0,1,.19-3.67,32.74,32.74,0,0,0,7.67-5.39c3.54-3.32,6.45-9.14,7.86-14.29,0-.1.06-.2.08-.3S54.92,91.83,55,91.66Z"/></g><path class="cls-9" d="M3.53,113.93a2.08,2.08,0,0,0-.21,2.94h0a2.09,2.09,0,0,0,2.94.21l.81-.71a1.14,1.14,0,0,1,1.6.11h0a1.13,1.13,0,0,1-.12,1.59L5.29,120.9A3.28,3.28,0,0,0,5,125.53H5a3.28,3.28,0,0,0,4.63.33l3.35-2.9a1,1,0,0,1,1.43.11h0a1,1,0,0,1-.1,1.43l-1.8,1.56a2.53,2.53,0,0,0-.25,3.57h0a2.53,2.53,0,0,0,3.56.25l8.36-7.25a10,10,0,0,0,1-14.16h0a10,10,0,0,0-14.16-1Z"/><rect class="cls-9" x="2.07" y="118.39" width="2.01" height="2.01" rx="1.01" transform="translate(-77.46 31.19) rotate(-40.92)"/><rect class="cls-9" x="9.31" y="130.71" width="1.84" height="1.84" rx="0.92" transform="matrix(0.76, -0.66, 0.66, 0.76, -83.72, 38.87)"/><circle class="cls-10" cx="19.24" cy="113.59" r="7.51"/><path class="cls-11" d="M23.81,100.44l-3.22,4.33a1.58,1.58,0,0,0,0,1.91A42.68,42.68,0,0,0,26.42,113a1.58,1.58,0,0,0,1.74.18L33,110.65Z"/><path class="cls-12" d="M17.84,95.16l5.28,3.41,2.62-4.91s-4.5.87-7-.5Z"/><path class="cls-12" d="M37.2,117.49l-2.63-5.71,5.23-1.9s-1.5,4.33-.5,7Z"/><path class="cls-13" d="M44.83,115.11c1,3-8.83,11.41-12.34,6.06C30.88,118.72,44,112.84,44.83,115.11Z"/><path class="cls-14" d="M21.31,99.78A53.32,53.32,0,0,0,33.08,113.4a2.28,2.28,0,0,0,2.12.4,31.27,31.27,0,0,0,11.69-7c6.45-6,10.8-20.39,7.83-23.82s-21,.61-26.9,5.87a25,25,0,0,0-6.67,9A2.24,2.24,0,0,0,21.31,99.78Z"/><path class="cls-11" d="M54.72,82.93c-1.27-1.46-5.29-1.57-9.93-.79a20.32,20.32,0,0,0,3.68,6A19.74,19.74,0,0,0,54.6,93C55.9,88.57,56.12,84.55,54.72,82.93Z"/><path class="cls-13" d="M21.27,87.93c-2.76-1.44-12.54,7.13-7.74,11.37C15.72,101.23,23.41,89.05,21.27,87.93Z"/><path class="cls-15" d="M43.45,88.7a3.89,3.89,0,0,1,2.43,1.6,5.22,5.22,0,0,1,1,2.77,4.59,4.59,0,0,1-1.78,3.55q-3,2.64-5.31,0a5.06,5.06,0,0,1-1.25-2.44,4.21,4.21,0,0,1,1.42-4.28A3.75,3.75,0,0,1,43.45,88.7Z"/><path class="cls-16" d="M40.35,95.67a3.94,3.94,0,0,1-.94-1.85,2.9,2.9,0,0,1,1.13-3,3,3,0,0,1,4.47.22A3.63,3.63,0,0,1,46,93a3.06,3.06,0,0,1-1.22,2.77C43.1,97.19,41.64,97.16,40.35,95.67Z"/><path class="cls-17" d="M41.8,93.94q2.14-.8,2.22-2.46c0-.37,0-.69,0-1a3.06,3.06,0,0,0-1-.33h0a2.25,2.25,0,0,1-.72,1.52,6.77,6.77,0,0,1-1.83,1,5.67,5.67,0,0,0-1,.38,2.41,2.41,0,0,0,.07.7,3.51,3.51,0,0,0,.59,1.35A3.4,3.4,0,0,1,41.8,93.94Z"/><g class="cls-6"><path class="cls-18" d="M27.12,90.61l0,0c13.42-9.88,25.44-7.2,25.79-7s-.18,1-.12,1.44S41.6,81.85,27.12,90.61Z"/><path class="cls-18" d="M51.68,86a1.75,1.75,0,0,1-.94-.62,1,1,0,0,1,.44-1.6,1.8,1.8,0,0,1,2.54.41,1.08,1.08,0,0,1-.37,1.69A1.88,1.88,0,0,1,51.68,86Z"/></g></svg>