<svg id="Calque_1" data-name="Calque 1" xmlns="http://www.w3.org/2000/svg" viewBox="0 0 140 140"><defs><style>.cls-1{fill:#947ab0;}.cls-2{fill:#d2def0;fill-opacity:0.5;}.cls-3{fill:#f0f4fb;fill-opacity:0.5;}.cls-4{fill:#9fe0ad;}.cls-5{fill:#c7eddf;}.cls-18,.cls-19,.cls-6{fill:#fff;}.cls-18,.cls-7{opacity:0.5;}.cls-8{fill:#7bad86;}.cls-9{fill:none;stroke:#fff;stroke-linecap:round;stroke-linejoin:round;stroke-width:4px;}.cls-16,.cls-17,.cls-18,.cls-19,.cls-9{fill-rule:evenodd;}.cls-10{fill:#f8b334;}.cls-11{fill:#f9edc7;}.cls-12{fill:#5c676d;}.cls-13,.cls-16{fill:#bcada2;}.cls-14{fill:#ff4e5e;}.cls-15{fill:#e5d2c6;}.cls-17{fill:#cbd0ec;}</style></defs><title>Plan de travail 14</title><path class="cls-1" d="M115.39,120.4a8.68,8.68,0,1,0,.08-17.35h-1.39a8.68,8.68,0,1,1,.08-17.36l7.87,0a8.68,8.68,0,1,0,.08-17.35l-14.8-.07A8.68,8.68,0,1,1,107.39,51L113,51a8.68,8.68,0,1,0,.09-17.35l-77.85-.37a8.68,8.68,0,1,0-.08,17.35l5.24,0A8.68,8.68,0,1,1,40.32,68l-28.84-.13a8.68,8.68,0,1,0-.08,17.35l6.57,0A8.71,8.71,0,0,1,26.62,94c0,4.77-2.95,8.66-6.51,8.64s-6.48,3.88-6.5,8.65A8.71,8.71,0,0,0,22.25,120l93.14.43Z"/><path class="cls-2" d="M104.71,35.85A86.32,86.32,0,0,0,66.9,32c-14.72,1.82-40.22,17.08-43.74,40.3S39.84,125.14,77,124s48.38-25.75,51.18-42.46S118.55,40.2,104.71,35.85Z"/><g id="Layer0_9_MEMBER_0_FILL" data-name="Layer0 9 MEMBER 0 FILL"><path class="cls-3" d="M110.76,53.89c-1-1.33-1.78-2.31-2.35-3Q101.26,43,89.25,39.74a36.84,36.84,0,0,0-23,.5A51.57,51.57,0,0,0,48.09,50.79,34.32,34.32,0,0,0,38,67.85,36.47,36.47,0,0,0,39,89.3q3.9,10.9,9,17.31Q53.95,114,69.1,117a46.37,46.37,0,0,0,16,.3,40.45,40.45,0,0,0,13.76-4.8,43.75,43.75,0,0,0,9.65-7.5,37.82,37.82,0,0,0,7.35-11.81q4.69-12.45,3.45-20.8T110.76,53.89Z"/></g><g id="Layer0_9_MEMBER_1_FILL" data-name="Layer0 9 MEMBER 1 FILL"><path class="cls-4" d="M100.11,48.34a26.4,26.4,0,0,0-10.26-5.6Q75,39.29,62.9,45.14q-13,6.26-18.76,21.21Q38,82.21,45.29,94.6q7.45,12.91,25.51,15.51,16.9,2.55,28.81-6.5,9.94-7.56,14-21,3.41-11.31-4.85-24.41A43.31,43.31,0,0,0,100.11,48.34Z"/></g><path class="cls-5" d="M61.35,107.77a47,47,0,0,0,9.45,2.34q16.9,2.55,28.81-6.5,9.94-7.56,14-21a23.61,23.61,0,0,0,1-7.19c-.53.92-1.15,2-1.91,3.14a28.22,28.22,0,0,1-10.53,10A24.8,24.8,0,0,1,90.67,91a54.64,54.64,0,0,1-15.22-2.48Q66.92,86,61.62,86.68a21.86,21.86,0,0,0-9.41,3.43A28.83,28.83,0,0,0,46.14,96a28.67,28.67,0,0,0,9.47,9.08,38.51,38.51,0,0,1,3.26-2.61q5.84-4.16,15.46-2.41c-.82.36-1.41.65-1.77.85Q65,105.35,61.35,107.77Zm15.56-6.52v0a1.26,1.26,0,0,1-.44.51C76.31,101.89,76.45,101.71,76.91,101.25ZM98,59.34a23.77,23.77,0,0,0,9.64-2.73c.38.53.74,1.08,1.1,1.63.64,1,1.22,2,1.76,3q-2.13,4.75-8.66,8.39a12.17,12.17,0,0,0,10.71-3.93,29.61,29.61,0,0,1,1.91,7.86q-1.82,3.76-8.21,8.54A19.38,19.38,0,0,1,90.9,85.8a120.65,120.65,0,0,1-16-3.6A33,33,0,0,0,60,81.14q-7.45,1.23-11,6.19-.66-.14.14-5a24.52,24.52,0,0,1,3.05-8.6,29.42,29.42,0,0,1,5.37-6.59A36.94,36.94,0,0,1,65.29,62a29.93,29.93,0,0,1,10.77-3.12,51.7,51.7,0,0,1,11.41,0A72.24,72.24,0,0,0,98,59.34ZM41.91,74.18c.22-1.25.52-2.52.88-3.81a64.08,64.08,0,0,1,10-9.61A30.25,30.25,0,0,0,45.11,64Q50.93,50.91,62.9,45.14t26.95-2.4a26.4,26.4,0,0,1,10.26,5.6A41.3,41.3,0,0,1,105.62,54c-.58.31-1.26.65-2.05,1.06a20.65,20.65,0,0,1-9,2.28,57.26,57.26,0,0,1-13.32-1.5Q73,54.14,60,59.3a61.83,61.83,0,0,0-11.86,8.53A69.76,69.76,0,0,0,41.91,74.18Z"/><path class="cls-6" d="M62.9,45.14q12.1-5.85,26.95-2.4a24.5,24.5,0,0,1,7.73,3.66,9.33,9.33,0,0,1-2.23,2.2Q89.35,53,80,52.13a9.34,9.34,0,0,1-.65,3,3.54,3.54,0,0,1-1,1.19,2.32,2.32,0,0,1-1.43.44,3.88,3.88,0,0,1-2.1-1.12,16.5,16.5,0,0,1-2.89-3.43c-.74,1.1-1.55,2.21-2.41,3.33a15.39,15.39,0,0,1-2.75,2.88,4.46,4.46,0,0,1-1.84.89,2.09,2.09,0,0,1-1.9-.45,3.47,3.47,0,0,1-.92-2.24A28,28,0,0,1,61.93,52a52.76,52.76,0,0,1-7.07,3.47,6.54,6.54,0,0,1-1.8.44,1.85,1.85,0,0,1-1.7-.68,1.77,1.77,0,0,1-.34-.8A35,35,0,0,1,62.9,45.14ZM99.5,100.4l-5.74,2.69a1.32,1.32,0,0,0-.75-1.22,2,2,0,0,0-1.56-.24,5.25,5.25,0,0,0-2.41,2l-2.25,2.92a11.62,11.62,0,0,0-3-4.66,6.86,6.86,0,0,0-3.23-1.86,5,5,0,0,0-2.41,0,5.85,5.85,0,0,0-2.24,1,7.37,7.37,0,0,0-2.62,4.11,29.08,29.08,0,0,0-6.52-1.9,4.51,4.51,0,0,0-2.58.13,2.82,2.82,0,0,0-1.33,1.46,9.74,9.74,0,0,0-.64,2c-.09.4-.16.76-.21,1.1a48,48,0,0,0,8.74,2.08q16.9,2.55,28.81-6.5a37.52,37.52,0,0,0,3.9-3.43,2.33,2.33,0,0,0-1.8-.52A7.83,7.83,0,0,0,99.5,100.4Zm-38.63,5.88a1.74,1.74,0,0,0-1.12-1.66,3.28,3.28,0,0,0-1.42-.14,4.19,4.19,0,0,0-1.23.31,2.31,2.31,0,0,0-.78.66,34.33,34.33,0,0,0,4.27,2A2.07,2.07,0,0,0,60.87,106.28Zm20-50.85a1.77,1.77,0,0,0-.41,1.19,1.87,1.87,0,0,0,.41,1.19,2.15,2.15,0,0,0,1.9.74A2.32,2.32,0,0,0,84.14,58a1.71,1.71,0,0,0,.68-1.26,1.81,1.81,0,0,0-.57-1.49,2.28,2.28,0,0,0-1.5-.65A2.09,2.09,0,0,0,80.88,55.43Z"/><g class="cls-7"><g id="Layer0_5_MEMBER_3_FILL" data-name="Layer0 5 MEMBER 3 FILL"><path class="cls-8" d="M92.67,54.21a29.52,29.52,0,0,0-20.82,3.16A43,43,0,0,0,65.53,62,46.8,46.8,0,0,0,55.47,73.26a24.44,24.44,0,0,0-3.73,14.51,28.12,28.12,0,0,0,1.9,7.71,63.33,63.33,0,0,0,6.11,11.68,45.25,45.25,0,0,0,11,3q16.92,2.55,28.81-6.52,9.95-7.55,14-21v0l.17-4.68a25.36,25.36,0,0,0-.24-5.44,17.31,17.31,0,0,0-3.16-6.69,30,30,0,0,0-7.78-7.37A29,29,0,0,0,92.67,54.21Z"/></g></g><g class="cls-7"><path class="cls-9" d="M2.41,118.64a1,1,0,1,0,1.42.1A1,1,0,0,0,2.41,118.64Z"/><path class="cls-9" d="M9.63,130.93a.93.93,0,0,0-.09,1.3.91.91,0,0,0,1.3.09h0a.92.92,0,1,0-1.21-1.39Z"/><path class="cls-9" d="M55,91.66c0-.11.06-.23.08-.34s.07-.31.11-.46.05-.25.07-.36l.09-.44c0-.12,0-.25.07-.37l.06-.41.06-.37c0-.13,0-.26,0-.39s0-.25,0-.37l0-.37c0-.12,0-.23,0-.35s0-.23,0-.35,0-.23,0-.35v-.32c0-.11,0-.22,0-.33s0-.21,0-.3a3.16,3.16,0,0,0,0-.32l0-.28c0-.1,0-.2,0-.3a2.21,2.21,0,0,0-.05-.25c0-.1,0-.19-.07-.29l-.06-.21c0-.1-.07-.18-.1-.27l-.07-.19c0-.09-.09-.17-.14-.26L55,83.27a2.85,2.85,0,0,0-.25-.33h0a2.68,2.68,0,0,0-.3-.28l-.12-.08a2.26,2.26,0,0,0-.26-.16l-.16-.09-.28-.12-.2-.07L53.08,82l-.21,0-.39-.09-.2,0c-.2,0-.41-.07-.63-.09h-.17l-.53,0h-1.9l-.45,0-.39,0-.49,0-.38,0q-.42,0-.84.09l-.43.06-.49.06-.47.08-.32,0h0c-6.24,1-13.61,3.65-17,6.66a29.36,29.36,0,0,0-4.53,5.12,11.48,11.48,0,0,1-3.53-.34c1.52-2.59,2.44-5.16,1.51-5.65-2.76-1.44-12.54,7.13-7.74,11.37,1,.87,3.12-1.15,4.94-3.73l2.85,1.84c-.05.13-.12.28-.17.4a2.24,2.24,0,0,0,.16,2c.32.53.78,1.28,1.38,2.16l-2.1,2.83a1.51,1.51,0,0,0-.26.63A10,10,0,0,0,11,107.46l-7.46,6.47a2.08,2.08,0,0,0,2.73,3.15l.81-.71a1.14,1.14,0,0,1,1.6.11h0a1.13,1.13,0,0,1-.12,1.59L5.29,120.9a3.28,3.28,0,0,0,4.3,5l3.35-2.9a1,1,0,0,1,1.33,1.54l-1.8,1.56a2.53,2.53,0,0,0,3.31,3.82l8.36-7.25a10,10,0,0,0,3.31-9.28,1.6,1.6,0,0,0,.71-.16l2.9-1.52c.65.59,1.32,1.17,2,1.73a2.28,2.28,0,0,0,2.12.4l.26-.08,1.42,3.08c-2.81,1.44-5.12,3.26-4.39,4.37,3.51,5.35,13.38-3.11,12.34-6.06-.34-1-3-.44-5.8.7a11.2,11.2,0,0,1,.19-3.67,32.74,32.74,0,0,0,7.67-5.39c3.54-3.32,6.45-9.14,7.86-14.29,0-.1.06-.2.08-.3S54.92,91.83,55,91.66Z"/></g><path class="cls-10" d="M3.53,113.93a2.08,2.08,0,0,0-.21,2.94h0a2.09,2.09,0,0,0,2.94.21l.81-.71a1.14,1.14,0,0,1,1.6.11h0a1.13,1.13,0,0,1-.12,1.59L5.29,120.9A3.28,3.28,0,0,0,5,125.53H5a3.28,3.28,0,0,0,4.63.33l3.35-2.9a1,1,0,0,1,1.43.11h0a1,1,0,0,1-.1,1.43l-1.8,1.56a2.53,2.53,0,0,0-.25,3.57h0a2.53,2.53,0,0,0,3.56.25l8.36-7.25a10,10,0,0,0,1-14.16h0a10,10,0,0,0-14.16-1Z"/><rect class="cls-10" x="2.07" y="118.39" width="2.01" height="2.01" rx="1.01" transform="translate(-77.46 31.19) rotate(-40.92)"/><rect class="cls-10" x="9.31" y="130.71" width="1.84" height="1.84" rx="0.92" transform="translate(-83.72 38.87) rotate(-40.92)"/><circle class="cls-11" cx="19.24" cy="113.59" r="7.51"/><path class="cls-12" d="M23.81,100.44l-3.22,4.33a1.58,1.58,0,0,0,0,1.91A42.68,42.68,0,0,0,26.42,113a1.58,1.58,0,0,0,1.74.18L33,110.65Z"/><path class="cls-13" d="M17.84,95.16l5.28,3.41,2.62-4.91s-4.5.87-7-.5Z"/><path class="cls-13" d="M37.2,117.49l-2.63-5.71,5.23-1.9s-1.5,4.33-.5,7Z"/><path class="cls-14" d="M44.83,115.11c1,3-8.83,11.41-12.34,6.06C30.88,118.72,44,112.84,44.83,115.11Z"/><path class="cls-15" d="M21.31,99.78A53.32,53.32,0,0,0,33.08,113.4a2.28,2.28,0,0,0,2.12.4,31.27,31.27,0,0,0,11.69-7c6.45-6,10.8-20.39,7.83-23.82s-21,.61-26.9,5.87a25,25,0,0,0-6.67,9A2.24,2.24,0,0,0,21.31,99.78Z"/><path class="cls-12" d="M54.72,82.93c-1.27-1.46-5.29-1.57-9.93-.79a20.32,20.32,0,0,0,3.68,6A19.74,19.74,0,0,0,54.6,93C55.9,88.57,56.12,84.55,54.72,82.93Z"/><path class="cls-14" d="M21.27,87.93c-2.76-1.44-12.54,7.13-7.74,11.37C15.72,101.23,23.41,89.05,21.27,87.93Z"/><path class="cls-16" d="M43.45,88.7a3.89,3.89,0,0,1,2.43,1.6,5.22,5.22,0,0,1,1,2.77,4.59,4.59,0,0,1-1.78,3.55q-3,2.64-5.31,0a5.06,5.06,0,0,1-1.25-2.44,4.21,4.21,0,0,1,1.42-4.28A3.75,3.75,0,0,1,43.45,88.7Z"/><path class="cls-17" d="M40.35,95.67a3.94,3.94,0,0,1-.94-1.85,2.9,2.9,0,0,1,1.13-3,3,3,0,0,1,4.47.22A3.63,3.63,0,0,1,46,93a3.06,3.06,0,0,1-1.22,2.77C43.1,97.19,41.64,97.16,40.35,95.67Z"/><path class="cls-18" d="M41.8,93.94q2.14-.8,2.22-2.46c0-.37,0-.69,0-1a3.06,3.06,0,0,0-1-.33h0a2.25,2.25,0,0,1-.72,1.52,6.77,6.77,0,0,1-1.83,1,5.67,5.67,0,0,0-1,.38,2.41,2.41,0,0,0,.07.7,3.51,3.51,0,0,0,.59,1.35A3.4,3.4,0,0,1,41.8,93.94Z"/><g class="cls-7"><path class="cls-19" d="M27.12,90.61l0,0c13.42-9.88,25.44-7.2,25.79-7s-.18,1-.12,1.44S41.6,81.85,27.12,90.61Z"/><path class="cls-19" d="M51.68,86a1.75,1.75,0,0,1-.94-.62,1,1,0,0,1,.44-1.6,1.8,1.8,0,0,1,2.54.41,1.08,1.08,0,0,1-.37,1.69A1.88,1.88,0,0,1,51.68,86Z"/></g></svg>