<svg id="Calque_1" data-name="Calque 1" xmlns="http://www.w3.org/2000/svg" viewBox="0 0 400 400"><defs><style>.cls-1,.cls-2,.cls-3,.cls-6{fill:none;stroke-linecap:round;stroke-linejoin:round;}.cls-1,.cls-2{stroke:#bcada2;stroke-width:8px;}.cls-2{stroke-dasharray:0 15.67;}.cls-3{stroke:#f8b334;stroke-width:14px;}.cls-4{fill:#f7b238;}.cls-15,.cls-5{opacity:0.5;}.cls-6{stroke:#fff;stroke-width:4px;}.cls-13,.cls-14,.cls-15,.cls-16,.cls-6{fill-rule:evenodd;}.cls-7{fill:#f8b334;}.cls-8{fill:#f9edc7;}.cls-9{fill:#5c676d;}.cls-10,.cls-13{fill:#bcada2;}.cls-11{fill:#ff4e5e;}.cls-12{fill:#e5d2c6;}.cls-14{fill:#cbd0ec;}.cls-15,.cls-16{fill:#fff;}</style></defs><title>Plan de travail 7</title><line class="cls-1" x1="33.83" y1="242.93" x2="33.83" y2="242.93"/><path class="cls-2" d="M43.82,230.86c11.48-12.68,31.09-30.81,49.43-30.81,34.31,0,69.66,83.86,129.19,83.86,29.35,0,48-32,59.69-57.88"/><line class="cls-1" x1="285.29" y1="218.85" x2="285.29" y2="218.85"/><path class="cls-3" d="M33.83,242.93s31.22-42.88,59.42-42.88,56.89,56.23,99.08,76.6"/><g id="Layer0_12_MEMBER_6_FILL" data-name="Layer0 12 MEMBER 6 FILL"><path class="cls-4" d="M49.14,238.28a14.69,14.69,0,0,0-1.85-2.92c-3.12-4.14-6.47-6.46-10-7a15.27,15.27,0,0,0-5.59.49A17.29,17.29,0,0,0,26,231.24a19.38,19.38,0,0,0-4.34,4.35,18.67,18.67,0,0,0-3.06,5.67,13.28,13.28,0,0,0-.21,6.58,12.85,12.85,0,0,0,2.78,5.78c1.95,2.23,5,3.93,9.34,5.12a19.84,19.84,0,0,0,4.25.81,10.53,10.53,0,0,0,4.53-.82,12.63,12.63,0,0,0,4-2.62,20.07,20.07,0,0,0,2.8-3.56,23.67,23.67,0,0,0,3.3-6.71A11.14,11.14,0,0,0,49.14,238.28Z"/></g><g class="cls-5"><path class="cls-6" d="M182.57,267.65a1,1,0,0,0-1.24.71,1,1,0,0,0,.71,1.23,1,1,0,0,0,1.23-.7A1,1,0,0,0,182.57,267.65Z"/><path class="cls-6" d="M176.36,280.49a.92.92,0,0,0-.49,1.77h0a.92.92,0,0,0,.49-1.77Z"/><path class="cls-6" d="M234.19,296.36l.33-.12.45-.17.34-.14.41-.17.34-.15.38-.17.34-.16.35-.18.33-.17.32-.18a3.07,3.07,0,0,0,.31-.17l.3-.18.29-.19L239,294l.28-.19.24-.18.24-.2.22-.18.22-.21.18-.18.2-.22a2.09,2.09,0,0,0,.14-.17,2.68,2.68,0,0,0,.17-.23l.12-.17c0-.08.09-.17.14-.26l.07-.13a2,2,0,0,0,.14-.39h0a2.7,2.7,0,0,0,.06-.41.65.65,0,0,0,0-.14,1.5,1.5,0,0,0,0-.3,1.23,1.23,0,0,1,0-.19c0-.1,0-.2-.06-.3s0-.13,0-.2-.06-.22-.1-.33,0-.13-.07-.21-.09-.24-.14-.37,0-.12-.08-.19-.17-.37-.28-.57a.64.64,0,0,0-.08-.14l-.25-.47-.16-.26-.23-.37-.19-.29-.25-.36-.22-.31a4.22,4.22,0,0,0-.27-.36l-.23-.31-.31-.39-.24-.3c-.17-.21-.35-.43-.54-.64l-.29-.33c-.11-.12-.21-.25-.33-.37s-.21-.24-.32-.35l-.22-.24h0c-4.33-4.61-10.59-9.28-15-10.4a28.79,28.79,0,0,0-6.77-.93,11.28,11.28,0,0,1-1.68-3.12c3-.18,5.65-.84,5.54-1.88-.34-3.1-12.89-6.47-13.75-.13-.18,1.32,2.69,2,5.84,2l.06,3.39-.43.08a2.26,2.26,0,0,0-1.55,1.24c-.27.55-.63,1.35-1,2.34l-3.52-.17a1.39,1.39,0,0,0-.67.13,10,10,0,0,0-6.9-6.62L187.11,266a2.09,2.09,0,1,0-1.11,4l1.05.28a1.14,1.14,0,0,1,.79,1.39h0a1.14,1.14,0,0,1-1.39.79l-4.16-1.14a3.28,3.28,0,1,0-1.74,6.33l4.27,1.17a1,1,0,1,1-.54,2l-2.3-.63a2.52,2.52,0,0,0-1.33,4.87l10.67,2.93a10,10,0,0,0,9.55-2.4,1.56,1.56,0,0,0,.53.49l2.87,1.58c-.12.86-.23,1.74-.31,2.64a2.31,2.31,0,0,0,.84,2l.22.17-1.77,2.89c-2.77-1.53-5.56-2.44-6.07-1.22-2.5,5.89,10,9.4,11.89,6.9.63-.84-1.31-2.76-3.81-4.44a11.54,11.54,0,0,1,3.16-1.88,32.6,32.6,0,0,0,8.74,3.38c4.74,1.1,11.19.28,16.25-1.4l.3-.1Z"/></g><path class="cls-7" d="M187.11,266a2.09,2.09,0,0,0-2.57,1.45h0A2.1,2.1,0,0,0,186,270l1.05.28a1.14,1.14,0,0,1,.79,1.39h0a1.14,1.14,0,0,1-1.39.79l-4.16-1.14a3.29,3.29,0,0,0-4,2.29h0a3.29,3.29,0,0,0,2.3,4l4.27,1.17a1,1,0,0,1,.71,1.25h0a1,1,0,0,1-1.25.71l-2.3-.63a2.52,2.52,0,0,0-3.1,1.77h0a2.52,2.52,0,0,0,1.77,3.1l10.67,2.93a10,10,0,0,0,12.34-7h0a10,10,0,0,0-7-12.33Z"/><rect class="cls-7" x="181.3" y="267.62" width="2.01" height="2.01" rx="1.01" transform="translate(77.51 -38.64) rotate(15.33)"/><rect class="cls-7" x="175.19" y="280.45" width="1.84" height="1.84" rx="0.92" transform="translate(80.66 -36.55) rotate(15.33)"/><circle class="cls-8" cx="196.12" cy="278.84" r="7.51"/><path class="cls-9" d="M209.59,275.33l-5.39-.26a1.58,1.58,0,0,0-1.58,1.07,43.06,43.06,0,0,0-2,8.35,1.57,1.57,0,0,0,.81,1.54l4.82,2.64Z"/><path class="cls-10" d="M210.66,267.43l.1,6.29,5.53-.55s-3.22-3.26-3.47-6.09Z"/><path class="cls-10" d="M202.85,295.94l3.29-5.36,4.48,3.29s-4.44,1.16-6.1,3.48Z"/><path class="cls-11" d="M209.07,301c-1.87,2.5-14.39-1-11.89-6.9C198.32,291.37,210.52,299,209.07,301Z"/><path class="cls-12" d="M208.75,272.9A53.14,53.14,0,0,0,204,290.25a2.31,2.31,0,0,0,.84,2,31.29,31.29,0,0,0,12.36,5.8c8.62,2,23-2.34,24.16-6.72s-12.2-17.15-19.83-19.1a25.18,25.18,0,0,0-11.19-.55A2.26,2.26,0,0,0,208.75,272.9Z"/><path class="cls-9" d="M241.32,291.31c.51-1.87-1.64-5.27-4.86-8.7a20.32,20.32,0,0,0-3,6.41,19.64,19.64,0,0,0-.63,7.79C237.28,295.42,240.75,293.37,241.32,291.31Z"/><path class="cls-11" d="M218.58,266.28c-.34-3.1-12.89-6.47-13.75-.13C204.44,269.05,218.84,268.68,218.58,266.28Z"/><path class="cls-13" d="M230.26,285.14a3.88,3.88,0,0,1,0,2.92,5.24,5.24,0,0,1-1.76,2.35,4.61,4.61,0,0,1-3.94.49q-3.89-1.06-3-4.4a5.08,5.08,0,0,1,1.33-2.4,4.23,4.23,0,0,1,4.35-1.19A3.74,3.74,0,0,1,230.26,285.14Z"/><path class="cls-14" d="M222.74,286.44a4,4,0,0,1,1-1.81,2.91,2.91,0,0,1,3.11-.72,3.06,3.06,0,0,1,2.3,3.84,3.56,3.56,0,0,1-1.11,1.86,3,3,0,0,1-3,.53Q222,289.28,222.74,286.44Z"/><path class="cls-15" d="M225,286.69c1.23.89,2.33,1.05,3.27.48.32-.2.58-.38.81-.54a2.89,2.89,0,0,0-.25-1h0a2.28,2.28,0,0,1-1.66.25,6.44,6.44,0,0,1-1.81-1,5.76,5.76,0,0,0-.88-.62,2.74,2.74,0,0,0-.54.44,3.58,3.58,0,0,0-.8,1.25A3.33,3.33,0,0,1,225,286.69Z"/><g class="cls-5"><path class="cls-16" d="M219.6,272.62l0-.05c15.67,5.67,20.11,17.15,20.16,17.55s-1,.43-1.26.7S234.93,279.8,219.6,272.62Z"/><path class="cls-16" d="M237.05,290.51a1.76,1.76,0,0,1,0-1.13,1,1,0,0,1,1.57-.52,1.79,1.79,0,0,1,1.07,2.34c-.38.76-.92,1-1.61.62A1.87,1.87,0,0,1,237.05,290.51Z"/></g></svg>