<svg id="Calque_1" data-name="Calque 1" xmlns="http://www.w3.org/2000/svg" viewBox="0 0 400 400"><defs><style>.cls-1,.cls-2,.cls-3,.cls-6{fill:none;stroke-linecap:round;stroke-linejoin:round;}.cls-1,.cls-2{stroke:#bcada2;stroke-width:8px;}.cls-2{stroke-dasharray:0 15.67;}.cls-3{stroke:#f8b334;stroke-width:14px;}.cls-4{fill:#f7b238;}.cls-15,.cls-5{opacity:0.5;}.cls-6{stroke:#fff;stroke-width:4px;}.cls-13,.cls-14,.cls-15,.cls-16,.cls-6{fill-rule:evenodd;}.cls-7{fill:#f8b334;}.cls-8{fill:#f9edc7;}.cls-9{fill:#5c676d;}.cls-10,.cls-13{fill:#bcada2;}.cls-11{fill:#ff4e5e;}.cls-12{fill:#e5d2c6;}.cls-14{fill:#cbd0ec;}.cls-15,.cls-16{fill:#fff;}</style></defs><title>Plan de travail 5</title><line class="cls-1" x1="33.83" y1="242.93" x2="33.83" y2="242.93"/><path class="cls-2" d="M43.82,230.86c11.48-12.68,31.09-30.81,49.43-30.81,34.31,0,69.66,83.86,129.19,83.86,29.35,0,48-32,59.69-57.88"/><line class="cls-1" x1="285.29" y1="218.85" x2="285.29" y2="218.85"/><path class="cls-3" d="M33.83,242.93s31.22-42.88,59.42-42.88c12.66,0,25.47,11.43,39.58,25.84"/><g id="Layer0_12_MEMBER_6_FILL" data-name="Layer0 12 MEMBER 6 FILL"><path class="cls-4" d="M49.14,238.28a14.69,14.69,0,0,0-1.85-2.92c-3.12-4.14-6.47-6.46-10-7a15.27,15.27,0,0,0-5.59.49A17.29,17.29,0,0,0,26,231.24a19.38,19.38,0,0,0-4.34,4.35,18.67,18.67,0,0,0-3.06,5.67,13.28,13.28,0,0,0-.21,6.58,12.85,12.85,0,0,0,2.78,5.78c1.95,2.23,5,3.93,9.34,5.12a19.84,19.84,0,0,0,4.25.81,10.53,10.53,0,0,0,4.53-.82,12.63,12.63,0,0,0,4-2.62,20.07,20.07,0,0,0,2.8-3.56,23.67,23.67,0,0,0,3.3-6.71A11.14,11.14,0,0,0,49.14,238.28Z"/></g><g class="cls-5"><path class="cls-6" d="M128,211.23a1,1,0,1,0,0,1.42A1,1,0,0,0,128,211.23Z"/><path class="cls-6" d="M116.53,219.72a.92.92,0,0,0-1.3,0,.93.93,0,0,0,0,1.31h0a.94.94,0,0,0,1.31,0A.93.93,0,0,0,116.53,219.72Z"/><path class="cls-6" d="M160.41,260.6l.35,0,.47.05.37,0,.44,0,.37,0,.42,0h1.86l.35,0,.34,0,.33,0,.33,0,.29-.05.32-.06.27-.06.29-.08.24-.08.28-.1.21-.08.26-.13.17-.09.25-.17.13-.09a2.7,2.7,0,0,0,.31-.28h0a2.85,2.85,0,0,0,.25-.33l.07-.13a1.69,1.69,0,0,0,.13-.27.87.87,0,0,0,.07-.17l.09-.29a1.6,1.6,0,0,0,.05-.21,2.72,2.72,0,0,0,.07-.33c0-.07,0-.14,0-.21s0-.26,0-.4,0-.13,0-.2,0-.42,0-.64v-.16c0-.18,0-.35,0-.54s0-.2,0-.3l0-.44,0-.34-.06-.44c0-.12,0-.24-.05-.37s0-.29-.07-.44l-.06-.39-.09-.48c0-.13,0-.25-.07-.38s-.12-.55-.19-.82-.06-.28-.1-.42l-.12-.49-.12-.46a2.81,2.81,0,0,1-.08-.31h0c-1.69-6.09-5.08-13.14-8.43-16.16a28.7,28.7,0,0,0-5.58-4,11.4,11.4,0,0,1,0-3.55c2.74,1.24,5.39,1.88,5.77.91,1.14-2.91-8.42-11.72-12.12-6.49-.77,1.08,1.47,3,4.23,4.52l-1.52,3-.42-.13a2.23,2.23,0,0,0-1.95.37c-.49.37-1.18.91-2,1.6l-3-1.78a1.41,1.41,0,0,0-.65-.2,10,10,0,0,0-3.05-9.07l-7.22-6.73a2.09,2.09,0,0,0-2.85,3.06l.8.73a1.14,1.14,0,0,1,0,1.6h0a1.12,1.12,0,0,1-1.59.05L126,214.33a3.28,3.28,0,0,0-4.47,4.81l3.23,3a1,1,0,1,1-1.38,1.49L121.67,222a2.53,2.53,0,1,0-3.44,3.7l8.1,7.54a10,10,0,0,0,9.58,2.3,1.59,1.59,0,0,0,.24.69L138,239c-.51.71-1,1.44-1.5,2.2a2.29,2.29,0,0,0-.18,2.14l.12.25-2.92,1.74c-1.73-2.64-3.78-4.74-4.8-3.9-5,4.07,4.51,13,7.33,11.63,1-.45.12-3.05-1.31-5.69a11.39,11.39,0,0,1,3.66-.21,32.85,32.85,0,0,0,6.18,7.05c3.69,3.17,9.79,5.44,15.05,6.3l.31,0Z"/></g><path class="cls-7" d="M132.79,211.83a2.1,2.1,0,0,0-2.95.11h0a2.1,2.1,0,0,0,.1,2.95l.8.73a1.14,1.14,0,0,1,0,1.6h0a1.12,1.12,0,0,1-1.59.05L126,214.33a3.29,3.29,0,0,0-4.64.17h0a3.28,3.28,0,0,0,.17,4.64l3.23,3a1,1,0,0,1,.06,1.44h0a1,1,0,0,1-1.44,0L121.67,222a2.53,2.53,0,0,0-3.57.13h0a2.53,2.53,0,0,0,.13,3.57l8.1,7.54a10,10,0,0,0,14.19-.51h0a10,10,0,0,0-.51-14.19Z"/><rect class="cls-7" x="126.29" y="210.96" width="2.01" height="2.01" rx="1.01" transform="translate(178.58 -29.91) rotate(42.96)"/><rect class="cls-7" x="114.98" y="219.47" width="1.84" height="1.84" rx="0.92" transform="translate(181.27 -19.88) rotate(42.96)"/><circle class="cls-8" cx="134.8" cy="227.43" r="7.51"/><path class="cls-9" d="M148.36,230.56l-4.65-2.73a1.59,1.59,0,0,0-1.9.21,43.33,43.33,0,0,0-5.67,6.46,1.57,1.57,0,0,0,0,1.75l3,4.57Z"/><path class="cls-10" d="M153,224.06l-2.83,5.61,5.15,2.09s-1.34-4.39-.25-7Z"/><path class="cls-10" d="M132.83,245.69l5.4-3.22,2.44,5s-4.46-1-7,.25Z"/><path class="cls-11" d="M136,253c-2.82,1.35-12.28-7.56-7.33-11.63C130.94,239.54,138.19,252,136,253Z"/><path class="cls-12" d="M148.74,228a53.18,53.18,0,0,0-12.28,13.16,2.29,2.29,0,0,0-.18,2.14,31.51,31.51,0,0,0,8.26,10.87c6.71,5.77,21.43,8.57,24.52,5.25s-2.85-20.85-8.7-26.12a25.13,25.13,0,0,0-9.67-5.67A2.23,2.23,0,0,0,148.74,228Z"/><path class="cls-9" d="M169.06,259.43c1.32-1.42,1-5.43-.26-10a20.25,20.25,0,0,0-5.6,4.3,19.72,19.72,0,0,0-4.17,6.61C163.58,261.2,167.61,261,169.06,259.43Z"/><path class="cls-11" d="M160.52,226.71c1.14-2.91-8.42-11.72-12.12-6.49C146.71,222.61,159.64,229,160.52,226.71Z"/><path class="cls-13" d="M162.13,248.84a3.89,3.89,0,0,1-1.34,2.59,5.3,5.3,0,0,1-2.65,1.27,4.55,4.55,0,0,1-3.71-1.4q-3-2.75-.6-5.27a5.09,5.09,0,0,1,2.29-1.51,4.23,4.23,0,0,1,4.41,1A3.77,3.77,0,0,1,162.13,248.84Z"/><path class="cls-14" d="M154.87,246.5a3.89,3.89,0,0,1,1.74-1.13,2.87,2.87,0,0,1,3.08.81,3,3,0,0,1,1.11,2.5,3.09,3.09,0,0,1-.85,2,3.7,3.7,0,0,1-1.84,1.13,3.06,3.06,0,0,1-2.89-.91Q152.85,248.67,154.87,246.5Z"/><path class="cls-15" d="M156.74,247.76c.68,1.37,1.57,2,2.68,2l1-.11a2.86,2.86,0,0,0,.22-1h0a2.28,2.28,0,0,1-1.58-.55,6.58,6.58,0,0,1-1.16-1.72,5.24,5.24,0,0,0-.48-1,2.43,2.43,0,0,0-.68.14,3.49,3.49,0,0,0-1.29.73A3.29,3.29,0,0,1,156.74,247.76Z"/><g class="cls-5"><path class="cls-16" d="M158.49,232.8l0,0c11.26,12.29,9.87,24.52,9.73,24.9s-1-.07-1.44,0S168.74,246.27,158.49,232.8Z"/><path class="cls-16" d="M165.65,256.74a1.83,1.83,0,0,1,.52-1,1,1,0,0,1,1.64.26,1.82,1.82,0,0,1-.13,2.58,1.09,1.09,0,0,1-1.73-.2A1.89,1.89,0,0,1,165.65,256.74Z"/></g></svg>