<svg id="Calque_1" data-name="Calque 1" xmlns="http://www.w3.org/2000/svg" viewBox="0 0 400 400"><defs><style>.cls-1{fill:#947ab0;}.cls-2{opacity:0.5;}.cls-3{fill:#b399cf;}.cls-4{opacity:0.75;}.cls-5{fill:#faf7dc;}.cls-5,.cls-7{fill-opacity:0.5;}.cls-5,.cls-6{fill-rule:evenodd;}.cls-6{fill:#ffe09c;}.cls-7{fill:#d2def0;}</style></defs><title>Plan de travail 25</title><path class="cls-1" d="M332.85,305.84c0-17.13-11.23-21.36-20.7-21.36H309.6a17.28,17.28,0,0,1-17.23-17.23v-1.72a17.27,17.27,0,0,1,17.23-17.22h12.59a17.27,17.27,0,0,0,17.22-17.23V228a17.27,17.27,0,0,0-17.22-17.22H302a17.12,17.12,0,1,1,0-34.23h33a17.27,17.27,0,0,0,17.22-17.23v-4.95c0-9.47-6.54-17.22-14.53-17.22s-14.53-6.78-14.53-15.07S330.93,107,340.4,107h11.16a17.12,17.12,0,1,0,0-34.23H145.1a17.12,17.12,0,1,0,0,34.23h10.38c9.47,0,17.22,6.78,17.22,15.06s-7.75,15.07-17.22,15.07H98.28a17.27,17.27,0,0,0-17.22,17.22v4.95a17.27,17.27,0,0,1-17.22,17.23H41.55a17.22,17.22,0,0,0-17.22,17.11c0,9.41,6.74,17.12,15,17.12s15,7.75,15,17.22v3.08A17.27,17.27,0,0,0,71.5,248.31H83.26a17.27,17.27,0,0,1,17.22,17.22v1.72a17.27,17.27,0,0,1-17.22,17.23H57A17.27,17.27,0,0,0,39.73,301.7v10c0,9.48,7.75,15.49,17.22,15.49h255.2C321.63,327.21,332.85,323,332.85,305.84Z"/><g class="cls-2"><path class="cls-3" d="M66.16,327.21h198a140.47,140.47,0,0,0,39-42.26c.29-.48.56-1,.83-1.45a17.33,17.33,0,0,1-9.27-7.69,119.62,119.62,0,0,1-45.51,20.38q-22.46,4.55-51.75-.86-29.32-5.25-65.23-20.67a289.78,289.78,0,0,0-31.93-11.79,17.9,17.9,0,0,1,.22,2.66v1.72a17.27,17.27,0,0,1-17.22,17.23H57A17.27,17.27,0,0,0,39.73,301.7v10a15.3,15.3,0,0,0,.09,1.67q4.83-2,10.91-4.12,28.23-9.6,69.34,4.06c-3.82.59-6.58,1.1-8.29,1.5Q83.17,322.3,66.16,327.21Z"/><path class="cls-3" d="M339.41,228a17.27,17.27,0,0,0-17.22-17.22H302a17.12,17.12,0,1,1,0-34.23h33a17.27,17.27,0,0,0,17.22-17.23v-4.11q-21.14,3.87-37.34,1.28A359.73,359.73,0,0,1,271.76,147a264.57,264.57,0,0,0-47.21-8.72q-25.34-2.31-46.52,2.63t-35.14,11.93a108.2,108.2,0,0,0-26.34,18.6,77.21,77.21,0,0,0-18,27.23q-6.34,16.2-3.71,17.17,17.64-14.37,49.27-13a165.88,165.88,0,0,1,61.06,14.86,599.32,599.32,0,0,0,64,24.42q34.67,11.22,65.7-1.06l1.91-.77a17.08,17.08,0,0,0,2.69-9.18Z"/><path class="cls-3" d="M351.56,72.79H145.1a17.27,17.27,0,0,0-14.81,8.43,183.49,183.49,0,0,1,25.45-2.77,287.64,287.64,0,0,0-27.82,12.42,17,17,0,0,0,2.8,8.42l.47-.23a286.54,286.54,0,0,1,57.36-19.82q60.13-7.42,95.51,5Q319.58,96.76,341.57,100a127,127,0,0,0,22.65,1.47,17,17,0,0,0,4.57-11.55A17.22,17.22,0,0,0,351.56,72.79Z"/></g><g class="cls-4"><path class="cls-5" d="M257.29,99.87a4.85,4.85,0,0,1,.11,3.43,5.59,5.59,0,0,1-2.28,3,6.48,6.48,0,0,1-4.5.83,3.94,3.94,0,0,1-3.57-2.47,6,6,0,0,1-.09-4.08,5.17,5.17,0,0,1,2.6-2.94,6.27,6.27,0,0,1,3.57-.81,5.54,5.54,0,0,1,2.58.8A4.94,4.94,0,0,1,257.29,99.87Z"/><path class="cls-5" d="M162.47,86.67a4.88,4.88,0,0,1,.1,3.44,5.57,5.57,0,0,1-2.28,3,6.41,6.41,0,0,1-4.49.83,3.92,3.92,0,0,1-3.57-2.47,5.83,5.83,0,0,1-.09-4.07,5,5,0,0,1,2.6-2.94,6.37,6.37,0,0,1,3.57-.82,5.73,5.73,0,0,1,2.57.8A5,5,0,0,1,162.47,86.67Z"/><path class="cls-5" d="M179.93,159.13a3.65,3.65,0,0,1,.08,2.59,4.17,4.17,0,0,1-1.72,2.28,4.81,4.81,0,0,1-3.39.63,3,3,0,0,1-2.69-1.86,4.48,4.48,0,0,1-.07-3.08,3.88,3.88,0,0,1,2-2.22,4.8,4.8,0,0,1,2.69-.61,4.36,4.36,0,0,1,2,.6A3.82,3.82,0,0,1,179.93,159.13Z"/><path class="cls-5" d="M62.9,288.51A3.65,3.65,0,0,1,63,291.1a4.11,4.11,0,0,1-1.71,2.28,4.88,4.88,0,0,1-3.4.63,3,3,0,0,1-2.69-1.86,4.48,4.48,0,0,1-.07-3.08,3.92,3.92,0,0,1,2-2.22,4.73,4.73,0,0,1,2.7-.61,4.31,4.31,0,0,1,1.94.6A3.76,3.76,0,0,1,62.9,288.51Z"/><path class="cls-5" d="M322.21,279.8a4.2,4.2,0,0,1,.09,3,4.87,4.87,0,0,1-2,2.66,5.64,5.64,0,0,1-3.95.73,3.45,3.45,0,0,1-3.14-2.17,5.2,5.2,0,0,1-.08-3.58,4.56,4.56,0,0,1,2.29-2.58,5.54,5.54,0,0,1,3.13-.72,4.91,4.91,0,0,1,2.27.71A4.36,4.36,0,0,1,322.21,279.8Z"/><path class="cls-5" d="M128.64,308.16a4.44,4.44,0,0,1,.1,3.16,5.16,5.16,0,0,1-2.1,2.79,5.94,5.94,0,0,1-4.15.76,3.63,3.63,0,0,1-3.29-2.27,5.48,5.48,0,0,1-.08-3.76,4.7,4.7,0,0,1,2.4-2.71,5.76,5.76,0,0,1,3.29-.75,5,5,0,0,1,2.37.74A4.48,4.48,0,0,1,128.64,308.16Z"/><path class="cls-5" d="M250.36,312.92a5.51,5.51,0,0,1,.12,3.89,6.32,6.32,0,0,1-2.59,3.44,7.3,7.3,0,0,1-5.1.93q-3.15-.39-4-2.79a6.72,6.72,0,0,1-.1-4.63,5.83,5.83,0,0,1,3-3.34,7.15,7.15,0,0,1,4-.92,6.25,6.25,0,0,1,2.92.91A5.59,5.59,0,0,1,250.36,312.92Z"/><path class="cls-6" d="M157,85.79a6,6,0,0,1,1,1.36,9.6,9.6,0,0,1,1.9-.48c.25,0-.07.61-1,1.83.33.55.7,1.19,1.11,1.9.14.32-.1.39-.72.2l-1.63-.48a5.51,5.51,0,0,1-1,1.25c-.49.5-.68.11-.58-1.16v-.67c-1.41-.58-2.09-1-2-1.13a7.58,7.58,0,0,1,2.06-.75C156.33,86,156.59,85.41,157,85.79ZM59.57,289.12a5.63,5.63,0,0,1,1.29-.33c.18,0,0,.41-.65,1.24.2.37.45.8.74,1.29.1.2-.07.24-.5.12l-1.09-.32a5,5,0,0,1-.65.85c-.33.34-.47.07-.41-.79v-.44c-.94-.4-1.39-.65-1.35-.77a4.12,4.12,0,0,1,1.38-.5c.1-1.1.27-1.53.53-1.3A3.47,3.47,0,0,1,59.57,289.12ZM253.48,101.28a15,15,0,0,1,1.7.65c.16.16-.41.44-1.7.85q-.09.85-.18,2c-.08.33-.3.27-.68-.18l-.94-1.27a4.91,4.91,0,0,1-1.35.42c-.65.11-.6-.29.14-1.21l.36-.47c-.73-1.2-1-1.86-.89-2a9.23,9.23,0,0,1,1.95.59c.94-1.15,1.47-1.49,1.59-1A6,6,0,0,1,253.48,101.28ZM177.41,161c.12.45.26,1,.41,1.53,0,.26-.13.26-.53,0l-1-.65a4.08,4.08,0,0,1-.88.68c-.43.25-.5-.05-.21-.91l.12-.44c-.84-.67-1.23-1.06-1.18-1.18a6,6,0,0,1,1.56-.12c.38-1.1.67-1.48.89-1.15A4.37,4.37,0,0,1,177,160a7.59,7.59,0,0,1,1.41,0C178.57,160,178.24,160.38,177.41,161ZM127.23,308.6q.36.15-1.53,1.62c.18.7.38,1.49.62,2.35.06.41-.21.43-.8.06l-1.59-1a5.9,5.9,0,0,1-1.38,1.06c-.65.39-.75-.08-.29-1.41l.17-.68c-1.29-1-1.9-1.65-1.82-1.83a9.38,9.38,0,0,1,2.41-.17c.57-1.69,1-2.28,1.36-1.77a5.34,5.34,0,0,1,.67,1.77A12,12,0,0,1,127.23,308.6Zm192-28.05,1.53.59c.65.23.81.44.5.62-.81.31-1.49.6-2.06.85,0,1.49-.12,2.16-.3,2a7.67,7.67,0,0,1-1.26-1.5,6,6,0,0,1-1.65.44c-.55.06-.38-.61.5-2-.82-1.12-1.21-1.73-1.15-1.82s.8-.06,2.27.35l.38-.53c.71-1.08,1.12-1.28,1.24-.59A6.89,6.89,0,0,1,319.24,280.55Zm-73,30.76a8.47,8.47,0,0,1,.35,2.47,14.09,14.09,0,0,1,2.74.82c.33.18-.51.72-2.53,1.62q0,1.35,0,3.24c0,.51-.4.42-1.06-.27L244,317.37a8.78,8.78,0,0,1-2.15.88c-1,.28-1-.36.09-1.91l.47-.82c-1.35-1.79-1.92-2.78-1.71-3s1.16.07,3.12.56C245.2,311.16,246,310.56,246.22,311.31Z"/></g><path class="cls-7" d="M347.67,110.1s-30.38-11.68-68.73-6.93c-26.76,3.31-73.11,31-79.52,73.25s30.33,96,97.9,93.88,87.94-46.8,93.05-77.18S372.83,118,347.67,110.1Z"/></svg>