<svg id="Calque_1" data-name="Calque 1" xmlns="http://www.w3.org/2000/svg" viewBox="0 0 400 400"><defs><style>.cls-1,.cls-2,.cls-4{fill:none;stroke-linecap:round;stroke-linejoin:round;}.cls-1,.cls-2{stroke:#bcada2;stroke-width:8px;}.cls-2{stroke-dasharray:0 15.67;}.cls-13,.cls-3{opacity:0.5;}.cls-4{stroke:#fff;stroke-width:4px;}.cls-11,.cls-12,.cls-13,.cls-14,.cls-4{fill-rule:evenodd;}.cls-5{fill:#f8b334;}.cls-6{fill:#f9edc7;}.cls-7{fill:#5c676d;}.cls-11,.cls-8{fill:#bcada2;}.cls-9{fill:#ff4e5e;}.cls-10{fill:#e5d2c6;}.cls-12{fill:#cbd0ec;}.cls-13,.cls-14{fill:#fff;}</style></defs><title>Plan de travail 1</title><line class="cls-1" x1="33.83" y1="242.93" x2="33.83" y2="242.93"/><path class="cls-2" d="M43.82,230.86c11.48-12.68,31.09-30.81,49.43-30.81,34.31,0,69.66,83.86,129.19,83.86,29.35,0,48-32,59.69-57.88"/><line class="cls-1" x1="285.29" y1="218.85" x2="285.29" y2="218.85"/><g class="cls-3"><path class="cls-4" d="M9.18,257.43a1,1,0,1,0,1.42-.05A1,1,0,0,0,9.18,257.43Z"/><path class="cls-4" d="M17.68,268.87A.93.93,0,1,0,19,270.13h0a.93.93,0,0,0-1.36-1.26Z"/><path class="cls-4" d="M58.5,224.93c0-.12,0-.23,0-.35s0-.31.05-.47,0-.25,0-.37,0-.3,0-.44l0-.37c0-.14,0-.28,0-.42s0-.25,0-.38,0-.26,0-.39v-.37c0-.12,0-.24,0-.37s0-.24,0-.35,0-.24,0-.35l0-.35c0-.11,0-.21,0-.32s0-.22,0-.33,0-.2-.05-.3l-.06-.31a2.68,2.68,0,0,0-.07-.27,2.45,2.45,0,0,0-.08-.29c0-.09,0-.17-.07-.25s-.07-.18-.11-.27a1.31,1.31,0,0,0-.08-.21l-.13-.26-.09-.17a2.2,2.2,0,0,0-.17-.25l-.08-.13a4.12,4.12,0,0,0-.28-.31h0L57,216l-.13-.07a1.69,1.69,0,0,0-.27-.13l-.17-.07-.29-.09-.2,0-.33-.07-.22,0-.4-.05h-.2c-.21,0-.42,0-.64,0h-.69l-.3,0-.45,0-.34,0-.43.05-.37,0-.45.07-.38.07-.49.09-.37.08c-.28.05-.55.11-.83.18l-.42.1-.49.12-.45.13-.32.08h0c-6.09,1.71-13.14,5.1-16.15,8.46a29.31,29.31,0,0,0-4,5.58,11.34,11.34,0,0,1-3.54.05c1.23-2.75,1.87-5.4.9-5.78-2.91-1.14-11.71,8.44-6.48,12.13,1.09.77,3-1.48,4.52-4.24l3,1.52c0,.14-.09.3-.13.42a2.24,2.24,0,0,0,.38,2c.37.49.91,1.18,1.6,2l-1.78,3a1.57,1.57,0,0,0-.19.65,10.06,10.06,0,0,0-9.07,3.06l-6.71,7.24a2.08,2.08,0,1,0,3.05,2.84l.74-.8a1.13,1.13,0,0,1,1.59-.06h0a1.14,1.14,0,0,1,.06,1.6l-2.94,3.16a3.29,3.29,0,0,0,4.82,4.47l3-3.24A1,1,0,1,1,21.6,262L20,263.73a2.52,2.52,0,1,0,3.7,3.43l7.53-8.11a10,10,0,0,0,2.29-9.58,1.55,1.55,0,0,0,.68-.24l2.72-1.82c.71.51,1.44,1,2.2,1.5a2.28,2.28,0,0,0,2.15.17l.25-.11,1.74,2.91c-2.64,1.74-4.73,3.79-3.89,4.81,4.07,4.94,13-4.54,11.62-7.35-.45-1-3-.11-5.7,1.32a11.68,11.68,0,0,1-.21-3.66,33,33,0,0,0,7-6.2c3.17-3.69,5.43-9.79,6.27-15.05l.06-.31C58.45,225.27,58.47,225.1,58.5,224.93Z"/></g><path class="cls-5" d="M9.78,252.63a2.08,2.08,0,0,0,.11,3h0a2.08,2.08,0,0,0,2.94-.11l.74-.8a1.13,1.13,0,0,1,1.59-.06h0a1.14,1.14,0,0,1,.06,1.6l-2.94,3.16a3.29,3.29,0,0,0,.18,4.64h0a3.29,3.29,0,0,0,4.64-.17l3-3.24a1,1,0,0,1,1.44-.06h0A1,1,0,0,1,21.6,262L20,263.73a2.53,2.53,0,0,0,.13,3.57h0a2.52,2.52,0,0,0,3.57-.14l7.53-8.11a10,10,0,0,0-.53-14.19h0a10,10,0,0,0-14.19.53Z"/><rect class="cls-5" x="8.91" y="257.11" width="2.01" height="2.01" rx="1.01" transform="translate(-186.01 89.79) rotate(-47.13)"/><rect class="cls-5" x="17.44" y="268.58" width="1.84" height="1.84" rx="0.92" transform="translate(-191.66 99.62) rotate(-47.13)"/><circle class="cls-6" cx="25.36" cy="250.59" r="7.51"/><path class="cls-7" d="M28.48,237l-2.73,4.66a1.59,1.59,0,0,0,.22,1.9,43.54,43.54,0,0,0,6.47,5.66,1.57,1.57,0,0,0,1.74,0l4.57-3Z"/><path class="cls-8" d="M22,232.42l5.62,2.82,2.07-5.16s-4.38,1.35-7,.26Z"/><path class="cls-8" d="M43.63,252.53l-3.23-5.39,5-2.46s-1,4.47.26,7Z"/><path class="cls-9" d="M51,249.34c1.35,2.81-7.55,12.29-11.62,7.35C37.49,254.44,49.92,247.16,51,249.34Z"/><path class="cls-10" d="M25.93,236.65A53.31,53.31,0,0,0,39.1,248.91a2.28,2.28,0,0,0,2.15.17A31.36,31.36,0,0,0,52.1,240.8c5.77-6.71,8.54-21.43,5.21-24.52s-20.85,2.88-26.1,8.74a25.15,25.15,0,0,0-5.66,9.68A2.24,2.24,0,0,0,25.93,236.65Z"/><path class="cls-7" d="M57.31,216.28c-1.42-1.32-5.42-1-10,.28a20.31,20.31,0,0,0,4.32,5.59,19.68,19.68,0,0,0,6.61,4.16C59.09,221.76,58.88,217.73,57.31,216.28Z"/><path class="cls-9" d="M24.61,224.87c-2.91-1.14-11.71,8.44-6.48,12.13C20.52,238.69,26.85,225.75,24.61,224.87Z"/><path class="cls-11" d="M46.73,223.23a3.9,3.9,0,0,1,2.6,1.33,5.3,5.3,0,0,1,1.27,2.65,4.6,4.6,0,0,1-1.39,3.72q-2.74,3-5.27.6a5,5,0,0,1-1.51-2.28,4.22,4.22,0,0,1,1-4.42A3.75,3.75,0,0,1,46.73,223.23Z"/><path class="cls-12" d="M44.41,230.49a3.85,3.85,0,0,1-1.14-1.73,2.9,2.9,0,0,1,.8-3.09,3.06,3.06,0,0,1,4.47-.27,3.69,3.69,0,0,1,1.14,1.84,3.05,3.05,0,0,1-.91,2.89Q46.57,232.5,44.41,230.49Z"/><path class="cls-13" d="M45.66,228.62c1.37-.68,2-1.58,1.94-2.68,0-.37-.06-.69-.1-1a2.93,2.93,0,0,0-1-.23h0a2.25,2.25,0,0,1-.54,1.59,6.58,6.58,0,0,1-1.72,1.16,5.24,5.24,0,0,0-1,.48,2.49,2.49,0,0,0,.14.69,3.59,3.59,0,0,0,.73,1.28A3.45,3.45,0,0,1,45.66,228.62Z"/><g class="cls-3"><path class="cls-14" d="M30.7,226.89l0,0c12.27-11.27,24.51-9.91,24.89-9.77s-.07,1,0,1.44S44.16,216.62,30.7,226.89Z"/><path class="cls-14" d="M54.63,219.69a1.74,1.74,0,0,1-1-.52,1,1,0,0,1,.26-1.63,1.79,1.79,0,0,1,2.57.13,1.08,1.08,0,0,1-.19,1.72A1.89,1.89,0,0,1,54.63,219.69Z"/></g></svg>