<svg id="Calque_1" data-name="Calque 1" xmlns="http://www.w3.org/2000/svg" viewBox="0 0 400 400"><defs><style>.cls-1,.cls-4{fill:none;stroke-linecap:round;stroke-linejoin:round;}.cls-1{stroke:#f8b334;stroke-width:14px;}.cls-2{fill:#f7b238;}.cls-13,.cls-3{opacity:0.5;}.cls-4{stroke:#fff;stroke-width:4px;}.cls-11,.cls-12,.cls-13,.cls-14,.cls-4{fill-rule:evenodd;}.cls-5{fill:#f8b334;}.cls-6{fill:#f9edc7;}.cls-7{fill:#5c676d;}.cls-11,.cls-8{fill:#bcada2;}.cls-9{fill:#ff4e5e;}.cls-10{fill:#e5d2c6;}.cls-12{fill:#cbd0ec;}.cls-13,.cls-14{fill:#fff;}</style></defs><title>Plan de travail 10</title><path class="cls-1" d="M33.83,242.93s31.22-42.88,59.42-42.88c34.31,0,69.66,83.86,129.19,83.86,26.87,0,44.74-26.82,56.58-51.22"/><g id="Layer0_12_MEMBER_6_FILL" data-name="Layer0 12 MEMBER 6 FILL"><path class="cls-2" d="M49.14,238.28a14.69,14.69,0,0,0-1.85-2.92c-3.12-4.14-6.47-6.46-10-7a15.27,15.27,0,0,0-5.59.49A17.29,17.29,0,0,0,26,231.24a19.38,19.38,0,0,0-4.34,4.35,18.67,18.67,0,0,0-3.06,5.67,13.28,13.28,0,0,0-.21,6.58,12.85,12.85,0,0,0,2.78,5.78c1.95,2.23,5,3.93,9.34,5.12a19.84,19.84,0,0,0,4.25.81,10.53,10.53,0,0,0,4.53-.82,12.63,12.63,0,0,0,4-2.62,20.07,20.07,0,0,0,2.8-3.56,23.67,23.67,0,0,0,3.3-6.71A11.14,11.14,0,0,0,49.14,238.28Z"/></g><g class="cls-3"><path class="cls-4" d="M267.12,241.44a1,1,0,1,0,1.32-.5A1,1,0,0,0,267.12,241.44Z"/><path class="cls-4" d="M278.84,249.56a.92.92,0,1,0,1.68.75h0a.92.92,0,0,0-1.68-.75Z"/><path class="cls-4" d="M303.44,194.87l-.06-.35c0-.15-.07-.31-.11-.46s0-.24-.08-.36-.07-.29-.11-.43-.06-.25-.09-.36-.07-.28-.11-.41-.07-.24-.11-.36l-.12-.37c0-.12-.07-.23-.11-.35s-.09-.23-.13-.35-.08-.22-.13-.33a3.05,3.05,0,0,0-.13-.32,3.09,3.09,0,0,0-.14-.32l-.13-.3-.15-.29-.14-.27-.16-.28-.15-.23c0-.09-.11-.17-.17-.26l-.15-.2-.18-.23-.15-.17c-.07-.08-.14-.14-.21-.21l-.14-.13a1.81,1.81,0,0,0-.23-.18l-.13-.1-.36-.2h0a1.63,1.63,0,0,0-.39-.13l-.14,0a1.54,1.54,0,0,0-.3,0H298l-.34,0-.21,0-.39.09-.2,0-.61.19-.15,0-.5.19-.28.11-.41.18-.31.14-.4.19-.33.16-.4.21-.35.19-.42.24-.34.19-.72.44-.37.23-.42.27-.39.26-.27.18h0c-5.22,3.57-10.81,9-12.59,13.19a28.91,28.91,0,0,0-2,6.55,11.38,11.38,0,0,1-3.35,1.17c.29-3,.05-5.71-1-5.76-3.11-.14-8.38,11.74-2.25,13.57,1.28.38,2.35-2.35,2.92-5.46l3.36.47c0,.14,0,.31,0,.43a2.24,2.24,0,0,0,1,1.73c.51.35,1.25.83,2.16,1.38l-.71,3.44a1.6,1.6,0,0,0,0,.69,10,10,0,0,0-7.6,5.79l-4.05,9a2.08,2.08,0,1,0,3.8,1.71l.44-1a1.13,1.13,0,0,1,1.49-.56h0a1.13,1.13,0,0,1,.57,1.49l-1.77,3.93a3.29,3.29,0,0,0,6,2.7l1.81-4a1,1,0,1,1,1.86.84l-1,2.17A2.53,2.53,0,1,0,284,246l4.54-10.09a10,10,0,0,0-.9-9.81,1.56,1.56,0,0,0,.57-.45l2-2.59c.83.25,1.68.5,2.56.71a2.28,2.28,0,0,0,2.09-.52l.2-.19,2.58,2.2c-1.94,2.49-3.27,5.11-2.14,5.81,5.44,3.37,10.83-8.45,8.65-10.69-.73-.75-2.92.87-5,3.08a11.59,11.59,0,0,1-1.38-3.41,33,33,0,0,0,4.7-8.12c1.81-4.51,2-11,1.12-16.27,0-.1,0-.21,0-.31S303.47,195,303.44,194.87Z"/></g><path class="cls-5" d="M266.15,236.7a2.08,2.08,0,0,0,1,2.76h0a2.09,2.09,0,0,0,2.76-1.05l.44-1a1.13,1.13,0,0,1,1.49-.56h0a1.13,1.13,0,0,1,.57,1.49l-1.77,3.93a3.28,3.28,0,0,0,1.65,4.34h0a3.28,3.28,0,0,0,4.34-1.64l1.81-4a1,1,0,0,1,1.35-.51h0a1,1,0,0,1,.51,1.35l-1,2.17a2.53,2.53,0,0,0,1.27,3.34h0A2.53,2.53,0,0,0,284,246l4.54-10.09a10.06,10.06,0,0,0-5-13.28h0a10,10,0,0,0-13.27,5Z"/><rect class="cls-5" x="267.03" y="240.85" width="2.01" height="2.01" rx="1.01" transform="translate(-62.46 387.15) rotate(-65.79)"/><rect class="cls-5" x="278.75" y="249.01" width="1.84" height="1.84" rx="0.92" transform="translate(-62.96 402.53) rotate(-65.79)"/><circle class="cls-6" cx="280.26" cy="229.78" r="7.51"/><path class="cls-7" d="M278.87,215.93l-1.09,5.28a1.57,1.57,0,0,0,.81,1.73,42.88,42.88,0,0,0,7.94,3.3,1.58,1.58,0,0,0,1.65-.57l3.35-4.35Z"/><path class="cls-8" d="M271.23,213.65l6.23.87.31-5.55s-3.71,2.69-6.56,2.5Z"/><path class="cls-8" d="M298.19,225.77l-4.78-4.08,3.94-3.91s.46,4.56,2.49,6.56Z"/><path class="cls-9" d="M304.12,220.4c2.18,2.24-3.21,14.06-8.65,10.69C293,229.54,302.43,218.67,304.12,220.4Z"/><path class="cls-10" d="M276.33,216.39a53.35,53.35,0,0,0,16.41,7.4,2.28,2.28,0,0,0,2.09-.52A31.45,31.45,0,0,0,302.47,212c3.3-8.21,1.22-23-2.92-24.9s-18.83,9.4-21.93,16.64a24.88,24.88,0,0,0-2.26,11A2.24,2.24,0,0,0,276.33,216.39Z"/><path class="cls-7" d="M299.55,187.05c-1.77-.8-5.45.8-9.34,3.45a20.46,20.46,0,0,0,5.87,3.92,19.83,19.83,0,0,0,7.6,1.83C303,191.67,301.5,187.92,299.55,187.05Z"/><path class="cls-9" d="M271.31,205.65c-3.11-.14-8.38,11.74-2.25,13.57C271.87,220.05,273.72,205.77,271.31,205.65Z"/><path class="cls-11" d="M291.75,197a3.92,3.92,0,0,1,2.89.43,5.21,5.21,0,0,1,2.05,2.11,4.57,4.57,0,0,1-.13,4q-1.65,3.67-4.8,2.26a5.07,5.07,0,0,1-2.16-1.68,4.22,4.22,0,0,1-.51-4.49A3.75,3.75,0,0,1,291.75,197Z"/><path class="cls-12" d="M291.87,204.65a3.93,3.93,0,0,1-1.63-1.29,2.9,2.9,0,0,1-.22-3.18,3,3,0,0,1,2-1.85,3.08,3.08,0,0,1,2.13.17,3.61,3.61,0,0,1,1.67,1.38,3.07,3.07,0,0,1,.06,3C295,204.87,293.67,205.46,291.87,204.65Z"/><path class="cls-13" d="M292.46,202.47c1.08-1.09,1.41-2.14,1-3.16l-.4-.89a3.18,3.18,0,0,0-1,.1h0a2.22,2.22,0,0,1,0,1.68,6.67,6.67,0,0,1-1.25,1.64,5.89,5.89,0,0,0-.75.76,2.52,2.52,0,0,0,.35.61,3.41,3.41,0,0,0,1.11,1A3.4,3.4,0,0,1,292.46,202.47Z"/><g class="cls-3"><path class="cls-14" d="M277.74,205.62l-.05,0c8-14.61,20.05-17.23,20.46-17.22s.27,1,.49,1.36S287.2,191.58,277.74,205.62Z"/><path class="cls-14" d="M298.1,191.14A1.76,1.76,0,0,1,297,191a1,1,0,0,1-.28-1.63,1.79,1.79,0,0,1,2.48-.7,1.08,1.08,0,0,1,.37,1.69A1.87,1.87,0,0,1,298.1,191.14Z"/></g></svg>