<svg id="Calque_1" data-name="Calque 1" xmlns="http://www.w3.org/2000/svg" viewBox="0 0 400 400"><defs><style>.cls-1,.cls-2,.cls-3,.cls-6{fill:none;stroke-linecap:round;stroke-linejoin:round;}.cls-1,.cls-2{stroke:#bcada2;stroke-width:8px;}.cls-2{stroke-dasharray:0 15.67;}.cls-3{stroke:#f8b334;stroke-width:14px;}.cls-4{fill:#f7b238;}.cls-15,.cls-5{opacity:0.5;}.cls-6{stroke:#fff;stroke-width:4px;}.cls-13,.cls-14,.cls-15,.cls-16,.cls-6{fill-rule:evenodd;}.cls-7{fill:#f8b334;}.cls-8{fill:#f9edc7;}.cls-9{fill:#5c676d;}.cls-10,.cls-13{fill:#bcada2;}.cls-11{fill:#ff4e5e;}.cls-12{fill:#e5d2c6;}.cls-14{fill:#cbd0ec;}.cls-15,.cls-16{fill:#fff;}</style></defs><title>Plan de travail 3</title><line class="cls-1" x1="33.83" y1="242.93" x2="33.83" y2="242.93"/><path class="cls-2" d="M43.82,230.86c11.48-12.68,31.09-30.81,49.43-30.81,34.31,0,69.66,83.86,129.19,83.86,29.35,0,48-32,59.69-57.88"/><line class="cls-1" x1="285.29" y1="218.85" x2="285.29" y2="218.85"/><path class="cls-3" d="M33.83,242.93S54.44,214.62,77.29,204"/><g id="Layer0_12_MEMBER_6_FILL" data-name="Layer0 12 MEMBER 6 FILL"><path class="cls-4" d="M49.14,238.28a14.69,14.69,0,0,0-1.85-2.92c-3.12-4.14-6.47-6.46-10-7a15.27,15.27,0,0,0-5.59.49A17.29,17.29,0,0,0,26,231.24a19.38,19.38,0,0,0-4.34,4.35,18.67,18.67,0,0,0-3.06,5.67,13.28,13.28,0,0,0-.21,6.58,12.85,12.85,0,0,0,2.78,5.78c1.95,2.23,5,3.93,9.34,5.12a19.84,19.84,0,0,0,4.25.81,10.53,10.53,0,0,0,4.53-.82,12.63,12.63,0,0,0,4-2.62,20.07,20.07,0,0,0,2.8-3.56,23.67,23.67,0,0,0,3.3-6.71A11.14,11.14,0,0,0,49.14,238.28Z"/></g><g class="cls-5"><path class="cls-6" d="M60.65,198.27a1,1,0,1,0,1.17.81A1,1,0,0,0,60.65,198.27Z"/><path class="cls-6" d="M60.56,212.53a.92.92,0,1,0,.32,1.81h0a.92.92,0,1,0-.32-1.81Z"/><path class="cls-6" d="M119.6,202l.25-.24.32-.35.26-.27.29-.33c.08-.1.17-.19.25-.28l.27-.33.23-.28.24-.31.23-.3.21-.3.21-.29.19-.29.18-.29.17-.28.16-.29c0-.09.1-.18.14-.27s.1-.19.14-.29a2.72,2.72,0,0,0,.11-.25c0-.1.08-.19.11-.29s.07-.16.09-.23l.09-.29a1.42,1.42,0,0,0,.05-.22,2.8,2.8,0,0,0,.06-.28l0-.19c0-.11,0-.2,0-.3v-.15a1.87,1.87,0,0,0,0-.42h0a1.9,1.9,0,0,0-.11-.39l-.06-.13c0-.09-.09-.18-.14-.27a.86.86,0,0,0-.1-.16l-.17-.25a1.83,1.83,0,0,1-.13-.16,2.73,2.73,0,0,0-.23-.25l-.15-.16-.29-.28-.15-.13c-.16-.14-.32-.27-.5-.4l-.13-.1c-.14-.1-.28-.21-.44-.31l-.25-.16-.37-.24-.29-.18-.38-.22-.33-.18-.4-.22-.34-.18-.45-.21-.34-.17-.77-.35-.4-.17-.46-.2-.44-.17-.3-.12h0c-5.89-2.31-13.56-3.84-18-3a28.34,28.34,0,0,0-6.52,2.07,11.51,11.51,0,0,1-2.86-2.1c2.64-1.45,4.74-3.18,4.2-4.08-1.64-2.65-14.43-.3-12.48,5.8.41,1.26,3.27.61,6.16-.67l1.51,3-.36.25a2.26,2.26,0,0,0-.87,1.78c0,.62,0,1.5.08,2.56l-3.25,1.36a1.59,1.59,0,0,0-.55.4,10,10,0,0,0-9.08-3L64,194.8a2.08,2.08,0,0,0,.73,4.1l1.07-.19a1.13,1.13,0,0,1,1.31.91h0a1.13,1.13,0,0,1-.92,1.31l-4.24.76a3.28,3.28,0,1,0,1.15,6.46l4.36-.77a1,1,0,1,1,.35,2l-2.34.42a2.52,2.52,0,1,0,.89,5l10.89-1.94a10,10,0,0,0,7.59-6.28,1.56,1.56,0,0,0,.7.22l3.26.19c.26.83.54,1.68.86,2.52a2.31,2.31,0,0,0,1.61,1.43l.27.06-.36,3.37c-3.16-.2-6.07.18-6,1.5.28,6.4,13.09,4.18,13.71,1.12.2-1-2.37-1.92-5.35-2.37a11.62,11.62,0,0,1,2-3.05,33.17,33.17,0,0,0,9.35-.71c4.75-1,10.22-4.55,14.07-8.24l.23-.22Z"/></g><path class="cls-7" d="M64,194.8a2.07,2.07,0,0,0-1.68,2.41h0a2.08,2.08,0,0,0,2.41,1.69l1.07-.19a1.13,1.13,0,0,1,1.31.91h0a1.13,1.13,0,0,1-.92,1.31l-4.24.76a3.28,3.28,0,0,0-2.66,3.81h0a3.29,3.29,0,0,0,3.81,2.65l4.36-.77a1,1,0,0,1,1.18.82h0a1,1,0,0,1-.83,1.18l-2.34.42a2.52,2.52,0,0,0-2,2.93h0a2.52,2.52,0,0,0,2.93,2l10.89-1.94a10,10,0,0,0,8.12-11.65h0a10,10,0,0,0-11.65-8.12Z"/><rect class="cls-7" x="59.82" y="198.26" width="2.01" height="2.01" rx="1.01" transform="translate(-34.07 13.79) rotate(-10.12)"/><rect class="cls-7" x="59.8" y="212.51" width="1.84" height="1.84" rx="0.92" transform="translate(-36.56 13.99) rotate(-10.12)"/><circle class="cls-8" cx="77.69" cy="202.55" r="7.51"/><path class="cls-9" d="M88.35,193.59l-5,2.08a1.57,1.57,0,0,0-1,1.64,42.91,42.91,0,0,0,1.76,8.42,1.56,1.56,0,0,0,1.4,1l5.48.31Z"/><path class="cls-10" d="M85.92,186l2.79,5.63,4.76-2.87s-4.31-1.56-5.75-4Z"/><path class="cls-10" d="M91.12,215.1l.67-6.25,5.46,1s-3.51,3-4,5.76Z"/><path class="cls-11" d="M98.9,217c-.62,3.06-13.43,5.28-13.71-1.12C85.06,212.92,99.37,214.6,98.9,217Z"/><path class="cls-12" d="M86.54,191.75a53.09,53.09,0,0,0,3.14,17.73,2.31,2.31,0,0,0,1.61,1.43,31.4,31.4,0,0,0,13.65-.08c8.65-1.89,19.72-12,18.92-16.45s-18.38-10.24-26.1-8.72A25.07,25.07,0,0,0,87.41,190,2.26,2.26,0,0,0,86.54,191.75Z"/><path class="cls-9" d="M123.86,194.38c-.34-1.91-3.74-4-8.12-5.76a20.44,20.44,0,0,0,.08,7A19.82,19.82,0,0,0,118.6,203C122,199.83,124.24,196.49,123.86,194.38Z"/><path class="cls-11" d="M92.58,181.55c-1.64-2.65-14.43-.3-12.48,5.8C81,190.14,93.84,183.61,92.58,181.55Z"/><path class="cls-13" d="M111.23,193.57a3.84,3.84,0,0,1,1.27,2.62,5.17,5.17,0,0,1-.58,2.88,4.52,4.52,0,0,1-3.35,2.13c-2.64.48-4.17-.42-4.57-2.69a5,5,0,0,1,.17-2.73,4.2,4.2,0,0,1,3.42-2.95A3.73,3.73,0,0,1,111.23,193.57Z"/><path class="cls-14" d="M105,198a3.9,3.9,0,0,1,.14-2.08,2.88,2.88,0,0,1,2.5-2,3,3,0,0,1,2.67.62,3.08,3.08,0,0,1,1.06,1.85,3.78,3.78,0,0,1-.2,2.16,3.06,3.06,0,0,1-2.46,1.75C106.58,200.68,105.35,199.9,105,198Z"/><path class="cls-15" d="M107.13,197.23c1.5.27,2.56,0,3.17-1l.5-.83a3.22,3.22,0,0,0-.65-.78h0a2.29,2.29,0,0,1-1.4.94,6.89,6.89,0,0,1-2.06-.11,5.22,5.22,0,0,0-1.05-.19,2.29,2.29,0,0,0-.3.63,3.39,3.39,0,0,0-.19,1.47A3.33,3.33,0,0,1,107.13,197.23Z"/><g class="cls-5"><path class="cls-16" d="M96.23,186.84v-.05c16.58-1.62,25.53,6.84,25.75,7.18s-.69.8-.85,1.17S113.15,186.74,96.23,186.84Z"/><path class="cls-16" d="M119.66,195.49a1.77,1.77,0,0,1-.48-1,1,1,0,0,1,1.19-1.15,1.81,1.81,0,0,1,2,1.65c0,.85-.41,1.27-1.19,1.26A1.92,1.92,0,0,1,119.66,195.49Z"/></g></svg>