<svg id="Calque_1" data-name="Calque 1" xmlns="http://www.w3.org/2000/svg" viewBox="0 0 400 400"><defs><style>.cls-1,.cls-2,.cls-3,.cls-6{fill:none;stroke-linecap:round;stroke-linejoin:round;}.cls-1,.cls-2{stroke:#bcada2;stroke-width:8px;}.cls-2{stroke-dasharray:0 15.67;}.cls-3{stroke:#f8b334;stroke-width:14px;}.cls-4{fill:#f7b238;}.cls-15,.cls-5{opacity:0.5;}.cls-6{stroke:#fff;stroke-width:4px;}.cls-13,.cls-14,.cls-15,.cls-16,.cls-6{fill-rule:evenodd;}.cls-7{fill:#f8b334;}.cls-8{fill:#f9edc7;}.cls-9{fill:#5c676d;}.cls-10,.cls-13{fill:#bcada2;}.cls-11{fill:#ff4e5e;}.cls-12{fill:#e5d2c6;}.cls-14{fill:#cbd0ec;}.cls-15,.cls-16{fill:#fff;}</style></defs><title>Plan de travail 8</title><line class="cls-1" x1="33.83" y1="242.93" x2="33.83" y2="242.93"/><path class="cls-2" d="M43.82,230.86c11.48-12.68,31.09-30.81,49.43-30.81,34.31,0,69.66,83.86,129.19,83.86,29.35,0,48-32,59.69-57.88"/><line class="cls-1" x1="285.29" y1="218.85" x2="285.29" y2="218.85"/><path class="cls-3" d="M33.83,242.93s31.22-42.88,59.42-42.88c34.31,0,69.66,83.86,129.19,83.86a39.13,39.13,0,0,0,12.61-2.07"/><g id="Layer0_12_MEMBER_6_FILL" data-name="Layer0 12 MEMBER 6 FILL"><path class="cls-4" d="M49.14,238.28a14.69,14.69,0,0,0-1.85-2.92c-3.12-4.14-6.47-6.46-10-7a15.27,15.27,0,0,0-5.59.49A17.29,17.29,0,0,0,26,231.24a19.38,19.38,0,0,0-4.34,4.35,18.67,18.67,0,0,0-3.06,5.67,13.28,13.28,0,0,0-.21,6.58,12.85,12.85,0,0,0,2.78,5.78c1.95,2.23,5,3.93,9.34,5.12a19.84,19.84,0,0,0,4.25.81,10.53,10.53,0,0,0,4.53-.82,12.63,12.63,0,0,0,4-2.62,20.07,20.07,0,0,0,2.8-3.56,23.67,23.67,0,0,0,3.3-6.71A11.14,11.14,0,0,0,49.14,238.28Z"/></g><g class="cls-5"><path class="cls-6" d="M219.33,279.26a1,1,0,1,0,1.34.47A1,1,0,0,0,219.33,279.26Z"/><path class="cls-6" d="M223,293a.93.93,0,0,0-.44,1.23.92.92,0,0,0,1.23.43h0A.92.92,0,1,0,223,293Z"/><path class="cls-6" d="M277.15,267.22a3.07,3.07,0,0,0,.17-.31l.23-.42c.06-.11.11-.22.17-.32l.2-.4c.05-.12.11-.23.16-.34s.12-.25.17-.38.11-.23.15-.34a2.75,2.75,0,0,0,.15-.36c.05-.12.1-.23.14-.35s.09-.23.13-.34l.12-.34c0-.11.07-.22.11-.33s.07-.22.1-.33.06-.21.08-.32a3,3,0,0,0,.08-.32c0-.1.05-.2.07-.29s0-.21.05-.32,0-.18.05-.27l0-.31c0-.08,0-.17,0-.25v-.29a1.76,1.76,0,0,0,0-.23,2.83,2.83,0,0,0,0-.29c0-.06,0-.13,0-.19a2.46,2.46,0,0,0-.07-.29l0-.15a2.26,2.26,0,0,0-.15-.39h0a2.5,2.5,0,0,0-.21-.35l-.1-.11c-.06-.08-.13-.15-.2-.23l-.14-.12a2.11,2.11,0,0,0-.23-.19l-.17-.13-.29-.18-.18-.11-.36-.19-.18-.09-.59-.26-.15,0-.5-.19-.28-.09-.43-.13-.33-.09-.42-.11-.37-.09-.44-.1-.38-.08-.48-.1-.38-.07-.84-.13-.42-.06-.5-.07-.47,0-.32,0h0c-6.29-.66-14.09-.1-18.13,1.91A28.71,28.71,0,0,0,246,261a11.16,11.16,0,0,1-3.31-1.27c2.15-2.09,3.73-4.32,3-5-2.28-2.13-14,3.53-10.49,8.9.73,1.11,3.32-.28,5.76-2.28l2.26,2.53c-.09.11-.2.24-.27.34a2.22,2.22,0,0,0-.37,1.95c.16.59.41,1.43.75,2.44l-2.77,2.17a1.55,1.55,0,0,0-.42.54,10,10,0,0,0-9.55-.5L221.65,275a2.09,2.09,0,0,0,1.8,3.77l1-.47a1.13,1.13,0,0,1,1.51.53h0a1.13,1.13,0,0,1-.53,1.51l-3.9,1.86a3.28,3.28,0,1,0,2.83,5.92l4-1.9a1,1,0,1,1,.88,1.83l-2.15,1a2.53,2.53,0,0,0,2.17,4.56l10-4.77a10,10,0,0,0,5.66-8.06,1.59,1.59,0,0,0,.72,0l3.2-.69c.47.74,1,1.48,1.5,2.21a2.27,2.27,0,0,0,1.93.94h.27l.55,3.35c-3.09.64-5.8,1.78-5.39,3,2,6.1,13.73.56,13.51-2.55-.07-1.05-2.8-1.23-5.78-.87a11.47,11.47,0,0,1,1.15-3.49,32.9,32.9,0,0,0,8.83-3.16c4.3-2.26,8.65-7.1,11.38-11.68l.16-.27C277,267.52,277.07,267.37,277.15,267.22Z"/></g><path class="cls-7" d="M221.65,275a2.08,2.08,0,0,0-1,2.78h0a2.09,2.09,0,0,0,2.78,1l1-.47a1.13,1.13,0,0,1,1.51.53h0a1.13,1.13,0,0,1-.54,1.51l-3.89,1.86a3.27,3.27,0,0,0-1.55,4.37h0a3.28,3.28,0,0,0,4.38,1.55l4-1.9a1,1,0,0,1,1.36.48h0a1,1,0,0,1-.48,1.35l-2.15,1a2.53,2.53,0,0,0-1.19,3.37h0a2.52,2.52,0,0,0,3.36,1.19l10-4.77A10,10,0,0,0,244,275.5h0a10,10,0,0,0-13.38-4.74Z"/><rect class="cls-7" x="218.75" y="279.16" width="2.01" height="2.01" rx="1.01" transform="translate(-99.23 121.94) rotate(-25.51)"/><rect class="cls-7" x="222.49" y="292.94" width="1.84" height="1.84" rx="0.92" transform="translate(-104.77 124.85) rotate(-25.51)"/><circle class="cls-8" cx="236.89" cy="278.87" r="7.51"/><path class="cls-9" d="M244.79,267.4l-4.25,3.32a1.6,1.6,0,0,0-.5,1.85,43.7,43.7,0,0,0,3.93,7.65,1.58,1.58,0,0,0,1.62.63l5.37-1.16Z"/><path class="cls-10" d="M240.44,260.72l4.18,4.69,3.83-4s-4.57-.36-6.62-2.34Z"/><path class="cls-10" d="M253.16,287.4l-1-6.21,5.54-.44s-2.59,3.78-2.34,6.62Z"/><path class="cls-11" d="M261.16,287.14c.22,3.11-11.55,8.65-13.51,2.55C246.75,286.91,261,284.73,261.16,287.14Z"/><path class="cls-12" d="M242.56,266.11a53.21,53.21,0,0,0,7.73,16.26,2.27,2.27,0,0,0,1.93.94,31.24,31.24,0,0,0,13.14-3.69c7.83-4.12,15.84-16.78,13.88-20.88s-20.44-5-27.49-1.49a25,25,0,0,0-8.82,6.91A2.22,2.22,0,0,0,242.56,266.11Z"/><path class="cls-9" d="M279.24,258.74c-.83-1.75-4.68-2.92-9.36-3.41a20.31,20.31,0,0,0,1.95,6.79,19.92,19.92,0,0,0,4.61,6.31C278.88,264.49,280.16,260.67,279.24,258.74Z"/><path class="cls-11" d="M245.67,254.67c-2.28-2.13-14,3.53-10.49,8.9C236.78,266,247.44,256.32,245.67,254.67Z"/><path class="cls-13" d="M266.84,261.3a3.88,3.88,0,0,1,1.93,2.2,5.3,5.3,0,0,1,.2,2.93,4.57,4.57,0,0,1-2.66,2.94c-2.43,1.16-4.13.7-5.13-1.38a5.13,5.13,0,0,1-.56-2.68,4.22,4.22,0,0,1,2.52-3.75A3.76,3.76,0,0,1,266.84,261.3Z"/><path class="cls-14" d="M262,267.2a4,4,0,0,1-.41-2,2.9,2.9,0,0,1,1.88-2.58,3.06,3.06,0,0,1,2.74-.11,3.1,3.1,0,0,1,1.52,1.51,3.76,3.76,0,0,1,.38,2.13,3.07,3.07,0,0,1-1.91,2.35Q263.27,269.86,262,267.2Z"/><path class="cls-15" d="M263.86,265.92c1.53-.13,2.46-.72,2.8-1.78.1-.35.19-.66.26-.93a2.93,2.93,0,0,0-.84-.58h0A2.21,2.21,0,0,1,265,263.9a6.39,6.39,0,0,1-2,.44,6.5,6.5,0,0,0-1.07.1,2.62,2.62,0,0,0-.11.69,3.61,3.61,0,0,0,.2,1.47A3.39,3.39,0,0,1,263.86,265.92Z"/><g class="cls-5"><path class="cls-16" d="M250.59,258.8v-.05c15.56-6,26.43-.18,26.73.09s-.45,1-.5,1.35S266.89,254.21,250.59,258.8Z"/><path class="cls-16" d="M275.49,260.92a1.74,1.74,0,0,1-.74-.84,1,1,0,0,1,.84-1.43,1.8,1.8,0,0,1,2.35,1.07c.21.82-.06,1.34-.81,1.53A1.88,1.88,0,0,1,275.49,260.92Z"/></g></svg>