<svg id="Calque_1" data-name="Calque 1" xmlns="http://www.w3.org/2000/svg" viewBox="0 0 400 400"><defs><style>.cls-1,.cls-2,.cls-3,.cls-6{fill:none;stroke-linecap:round;stroke-linejoin:round;}.cls-1,.cls-2{stroke:#bcada2;stroke-width:8px;}.cls-2{stroke-dasharray:0 15.67;}.cls-3{stroke:#f8b334;stroke-width:14px;}.cls-4{fill:#f7b238;}.cls-15,.cls-5{opacity:0.5;}.cls-6{stroke:#fff;stroke-width:4px;}.cls-13,.cls-14,.cls-15,.cls-16,.cls-6{fill-rule:evenodd;}.cls-7{fill:#f8b334;}.cls-8{fill:#f9edc7;}.cls-9{fill:#5c676d;}.cls-10,.cls-13{fill:#bcada2;}.cls-11{fill:#ff4e5e;}.cls-12{fill:#e5d2c6;}.cls-14{fill:#cbd0ec;}.cls-15,.cls-16{fill:#fff;}</style></defs><title>Plan de travail 6</title><line class="cls-1" x1="33.83" y1="242.93" x2="33.83" y2="242.93"/><path class="cls-2" d="M43.82,230.86c11.48-12.68,31.09-30.81,49.43-30.81,34.31,0,69.66,83.86,129.19,83.86,29.35,0,48-32,59.69-57.88"/><line class="cls-1" x1="285.29" y1="218.85" x2="285.29" y2="218.85"/><path class="cls-3" d="M33.83,242.93s31.22-42.88,59.42-42.88c21,0,42.34,31.35,69.38,55.71"/><g id="Layer0_12_MEMBER_6_FILL" data-name="Layer0 12 MEMBER 6 FILL"><path class="cls-4" d="M49.14,238.28a14.69,14.69,0,0,0-1.85-2.92c-3.12-4.14-6.47-6.46-10-7a15.27,15.27,0,0,0-5.59.49A17.29,17.29,0,0,0,26,231.24a19.38,19.38,0,0,0-4.34,4.35,18.67,18.67,0,0,0-3.06,5.67,13.28,13.28,0,0,0-.21,6.58,12.85,12.85,0,0,0,2.78,5.78c1.95,2.23,5,3.93,9.34,5.12a19.84,19.84,0,0,0,4.25.81,10.53,10.53,0,0,0,4.53-.82,12.63,12.63,0,0,0,4-2.62,20.07,20.07,0,0,0,2.8-3.56,23.67,23.67,0,0,0,3.3-6.71A11.14,11.14,0,0,0,49.14,238.28Z"/></g><g class="cls-5"><path class="cls-6" d="M153.46,243.4a1,1,0,0,0-1.38.34,1,1,0,1,0,1.38-.34Z"/><path class="cls-6" d="M144,254.05a.92.92,0,1,0-1,1.57h0a.92.92,0,1,0,1-1.57Z"/><path class="cls-6" d="M195.26,285.14l.35,0,.48,0,.36,0,.44,0,.37-.05.42-.07.37-.06.38-.07.36-.07.36-.09.35-.08.34-.09.33-.1.31-.1.31-.11.28-.11.3-.13.25-.11.27-.14.22-.12.25-.16.19-.12.23-.18.15-.13.21-.21.11-.11a2.62,2.62,0,0,0,.24-.34h0a3,3,0,0,0,.17-.36.83.83,0,0,0,0-.15,2,2,0,0,0,.08-.29l0-.18,0-.3c0-.07,0-.14,0-.21v-.34a1.55,1.55,0,0,1,0-.22c0-.13,0-.26,0-.39s0-.14,0-.21-.07-.41-.11-.63c0-.05,0-.1,0-.16s-.07-.34-.12-.52-.05-.19-.08-.28l-.12-.43c0-.11-.07-.22-.11-.33s-.09-.27-.14-.41l-.12-.36c0-.14-.1-.28-.16-.42l-.14-.36c-.06-.15-.12-.31-.19-.46l-.15-.35-.34-.78-.19-.38c-.07-.15-.14-.3-.22-.45l-.21-.43-.14-.29h0c-2.9-5.62-7.65-11.83-11.55-14.1a29.21,29.21,0,0,0-6.26-2.75,11.32,11.32,0,0,1-.76-3.46c2.94.65,5.67.74,5.84-.29.53-3.08-10.63-9.75-13.19-3.88-.53,1.21,2.05,2.61,5.07,3.56l-.88,3.28-.43,0a2.22,2.22,0,0,0-1.84.76c-.4.46-1,1.13-1.63,2l-3.33-1.13a1.59,1.59,0,0,0-.68-.06,10,10,0,0,0-4.83-8.25L158.29,243a2.09,2.09,0,1,0-2.16,3.57l.92.55a1.14,1.14,0,0,1,.38,1.55h0a1.12,1.12,0,0,1-1.55.38l-3.69-2.23a3.28,3.28,0,1,0-3.4,5.61l3.78,2.3a1,1,0,1,1-1,1.74l-2-1.24a2.53,2.53,0,0,0-2.62,4.32l9.47,5.74a10,10,0,0,0,9.84.3,1.53,1.53,0,0,0,.38.62l2.33,2.3c-.36.8-.71,1.62-1,2.46a2.28,2.28,0,0,0,.27,2.13l.17.23-2.5,2.29c-2.24-2.23-4.67-3.87-5.51-2.84-4,5,7.07,11.79,9.55,9.9.84-.64-.51-3-2.44-5.31a11.42,11.42,0,0,1,3.55-.95,32.39,32.39,0,0,0,7.48,5.64c4.25,2.36,10.69,3.34,16,3.1h.32Z"/></g><path class="cls-7" d="M158.29,243a2.09,2.09,0,0,0-2.87.7h0a2.1,2.1,0,0,0,.71,2.87l.92.55a1.14,1.14,0,0,1,.38,1.55h0a1.12,1.12,0,0,1-1.55.38l-3.69-2.23a3.28,3.28,0,0,0-4.51,1.11h0a3.27,3.27,0,0,0,1.11,4.5l3.78,2.3a1,1,0,0,1,.35,1.4h0a1,1,0,0,1-1.4.34l-2-1.24a2.53,2.53,0,0,0-3.47.86h0a2.52,2.52,0,0,0,.85,3.46l9.47,5.74a10,10,0,0,0,13.79-3.39h0a10,10,0,0,0-3.39-13.78Z"/><rect class="cls-7" x="151.93" y="243.26" width="2.01" height="2.01" rx="1.01" transform="translate(148.69 -43.9) rotate(31.21)"/><rect class="cls-7" x="142.58" y="253.91" width="1.84" height="1.84" rx="0.92" transform="translate(152.81 -37.48) rotate(31.21)"/><circle class="cls-8" cx="163.43" cy="257.87" r="7.51"/><path class="cls-9" d="M177.35,258.18l-5.11-1.73a1.58,1.58,0,0,0-1.81.6,42.85,42.85,0,0,0-4.25,7.48,1.58,1.58,0,0,0,.37,1.7l3.91,3.86Z"/><path class="cls-10" d="M180.54,250.88,178.92,257l5.47,1s-2.21-4-1.68-6.82Z"/><path class="cls-10" d="M165.23,276.16l4.63-4.25,3.41,4.39s-4.59-.1-6.82,1.67Z"/><path class="cls-11" d="M169.83,282.7c-2.48,1.89-13.56-4.91-9.55-9.9C162.12,270.52,171.76,281.23,169.83,282.7Z"/><path class="cls-12" d="M177.2,255.61A53.41,53.41,0,0,0,167.85,271a2.28,2.28,0,0,0,.27,2.13,31.16,31.16,0,0,0,10.3,9c7.75,4.29,22.72,4,25.08.15s-7-19.84-13.85-23.8A24.92,24.92,0,0,0,179,254.85,2.22,2.22,0,0,0,177.2,255.61Z"/><path class="cls-9" d="M203.5,282.23c1-1.66-.14-5.52-2.29-9.7a20.35,20.35,0,0,0-4.61,5.36,19.8,19.8,0,0,0-2.74,7.32C198.49,285.08,202.39,284.05,203.5,282.23Z"/><path class="cls-11" d="M188.47,251.93c.53-3.08-10.63-9.75-13.19-3.88C174.11,250.73,188.07,254.31,188.47,251.93Z"/><path class="cls-13" d="M194.55,273.27a3.88,3.88,0,0,1-.78,2.81,5.18,5.18,0,0,1-2.34,1.78,4.55,4.55,0,0,1-3.92-.61q-3.45-2.08-1.66-5a5.07,5.07,0,0,1,1.94-1.94,4.22,4.22,0,0,1,4.51,0A3.76,3.76,0,0,1,194.55,273.27Z"/><path class="cls-14" d="M187,272.46a4,4,0,0,1,1.48-1.46,2.89,2.89,0,0,1,3.18.16,3.08,3.08,0,0,1,1.17,4.33,3.72,3.72,0,0,1-1.58,1.48,3,3,0,0,1-3-.31C186.36,275.54,185.94,274.14,187,272.46Z"/><path class="cls-15" d="M189.05,273.31c.95,1.2,2,1.66,3,1.36l.93-.29a2.9,2.9,0,0,0,0-1h0a2.27,2.27,0,0,1-1.67-.21,6.51,6.51,0,0,1-1.47-1.45,5.6,5.6,0,0,0-.67-.83,2.4,2.4,0,0,0-.64.28,3.3,3.3,0,0,0-1.11,1A3.44,3.44,0,0,1,189.05,273.31Z"/><g class="cls-5"><path class="cls-16" d="M187.72,258.31l0,0c13.52,9.74,14.65,22,14.59,22.4s-1,.15-1.4.32S200.5,269.41,187.72,258.31Z"/><path class="cls-16" d="M199.61,280.29a1.83,1.83,0,0,1,.3-1.08,1,1,0,0,1,1.66-.08,1.8,1.8,0,0,1,.39,2.55,1.08,1.08,0,0,1-1.72.16A1.92,1.92,0,0,1,199.61,280.29Z"/></g></svg>