<svg id="Calque_1" data-name="Calque 1" xmlns="http://www.w3.org/2000/svg" viewBox="0 0 400 400"><defs><style>.cls-1,.cls-4{fill:none;stroke-linecap:round;stroke-linejoin:round;}.cls-1{stroke:#f8b334;stroke-width:14px;}.cls-2{fill:#f7b238;}.cls-13,.cls-3{opacity:0.5;}.cls-4{stroke:#fff;stroke-width:4px;}.cls-11,.cls-12,.cls-13,.cls-14,.cls-4{fill-rule:evenodd;}.cls-5{fill:#f8b334;}.cls-6{fill:#f9edc7;}.cls-7{fill:#5c676d;}.cls-11,.cls-8{fill:#bcada2;}.cls-9{fill:#ff4e5e;}.cls-10{fill:#e5d2c6;}.cls-12{fill:#cbd0ec;}.cls-13,.cls-14{fill:#fff;}</style></defs><title>Plan de travail 9</title><path class="cls-1" d="M33.83,242.93s31.22-42.88,59.42-42.88c34.31,0,69.66,83.86,129.19,83.86,20.08,0,35.14-15,46.4-32.73"/><g id="Layer0_12_MEMBER_6_FILL" data-name="Layer0 12 MEMBER 6 FILL"><path class="cls-2" d="M49.14,238.28a14.69,14.69,0,0,0-1.85-2.92c-3.12-4.14-6.47-6.46-10-7a15.27,15.27,0,0,0-5.59.49A17.29,17.29,0,0,0,26,231.24a19.38,19.38,0,0,0-4.34,4.35,18.67,18.67,0,0,0-3.06,5.67,13.28,13.28,0,0,0-.21,6.58,12.85,12.85,0,0,0,2.78,5.78c1.95,2.23,5,3.93,9.34,5.12a19.84,19.84,0,0,0,4.25.81,10.53,10.53,0,0,0,4.53-.82,12.63,12.63,0,0,0,4-2.62,20.07,20.07,0,0,0,2.8-3.56,23.67,23.67,0,0,0,3.3-6.71A11.14,11.14,0,0,0,49.14,238.28Z"/></g><g class="cls-3"><path class="cls-4" d="M256.77,260.78a1,1,0,1,0,1.37-.4A1,1,0,0,0,256.77,260.78Z"/><path class="cls-4" d="M267.85,269.76a.91.91,0,0,0,.37,1.25.92.92,0,0,0,1.25-.36h0a.93.93,0,0,0-.37-1.25A.92.92,0,0,0,267.85,269.76Z"/><path class="cls-4" d="M296.52,217.09c0-.11,0-.23,0-.35s0-.31-.07-.47,0-.24-.05-.36-.05-.3-.07-.44-.05-.25-.07-.37-.05-.27-.08-.41-.05-.24-.08-.36l-.09-.39-.09-.35c0-.12-.07-.24-.1-.36s-.07-.23-.1-.34-.07-.22-.11-.33-.07-.22-.11-.33l-.12-.31-.12-.3-.12-.28c-.05-.1-.1-.19-.14-.29s-.09-.16-.13-.25l-.15-.26a2.53,2.53,0,0,1-.13-.22l-.17-.24-.13-.18-.19-.22-.14-.14a1.37,1.37,0,0,0-.22-.2l-.11-.1a2.33,2.33,0,0,0-.35-.23h0l-.38-.16-.14,0a2.47,2.47,0,0,0-.29-.06l-.19,0-.3,0h-.21l-.34,0-.22,0-.39.05-.2,0c-.21,0-.41.08-.63.13l-.15.05-.52.14-.28.09-.42.15a2.08,2.08,0,0,0-.32.12l-.41.15-.35.15-.41.17-.36.16-.45.21-.34.16-.76.39-.38.2-.44.24-.41.23-.28.16h0c-5.48,3.16-11.47,8.19-13.55,12.19a29,29,0,0,0-2.46,6.39,11.44,11.44,0,0,1-3.42.91c.51-3,.48-5.69-.56-5.81-3.1-.39-9.25,11.07-3.27,13.35,1.24.48,2.52-2.17,3.32-5.22l3.32.72c0,.15,0,.31,0,.44a2.24,2.24,0,0,0,.84,1.79c.48.39,1.18.92,2.05,1.54l-1,3.38a1.57,1.57,0,0,0,0,.68,10.07,10.07,0,0,0-8,5.21L256.17,256a2.09,2.09,0,1,0,3.66,2l.51-1a1.14,1.14,0,0,1,1.53-.46h0a1.14,1.14,0,0,1,.46,1.53l-2.07,3.79A3.28,3.28,0,1,0,266,265l2.12-3.88a1,1,0,1,1,1.78,1l-1.13,2.09a2.52,2.52,0,1,0,4.43,2.41l5.29-9.72a10,10,0,0,0-.15-9.85,1.48,1.48,0,0,0,.6-.4l2.19-2.43c.81.32,1.64.63,2.5.91a2.3,2.3,0,0,0,2.12-.37c.07,0,.14-.12.22-.17l2.41,2.39c-2.13,2.33-3.65,4.84-2.58,5.62,5.17,3.78,11.44-7.6,9.43-10-.67-.8-3,.65-5.19,2.7a11.78,11.78,0,0,1-1.11-3.5,32.86,32.86,0,0,0,5.29-7.74c2.16-4.36,2.84-10.83,2.36-16.14l0-.32Z"/></g><path class="cls-5" d="M256.17,256a2.09,2.09,0,0,0,.83,2.83h0a2.09,2.09,0,0,0,2.83-.83l.51-1a1.14,1.14,0,0,1,1.53-.46h0a1.14,1.14,0,0,1,.46,1.53l-2.07,3.79a3.3,3.3,0,0,0,1.32,4.46h0A3.29,3.29,0,0,0,266,265l2.12-3.88a1,1,0,0,1,1.38-.41h0a1,1,0,0,1,.4,1.38l-1.13,2.09a2.52,2.52,0,0,0,1,3.43h0a2.52,2.52,0,0,0,3.42-1l5.29-9.72a10,10,0,0,0-4-13.61h0a10,10,0,0,0-13.62,4Z"/><rect class="cls-5" x="256.65" y="260.26" width="2.01" height="2.01" rx="1.01" transform="translate(-94.97 362.74) rotate(-61.45)"/><rect class="cls-5" x="267.73" y="269.28" width="1.84" height="1.84" rx="0.92" transform="translate(-97.08 377.07) rotate(-61.45)"/><circle class="cls-6" cx="270.77" cy="250.16" r="7.51"/><path class="cls-7" d="M270.43,236.24l-1.5,5.18a1.59,1.59,0,0,0,.69,1.78,42.88,42.88,0,0,0,7.67,3.9,1.59,1.59,0,0,0,1.68-.45l3.67-4.08Z"/><path class="cls-8" d="M263,233.39l6.14,1.34.74-5.51s-3.91,2.39-6.73,2Z"/><path class="cls-8" d="M289,247.51l-4.47-4.43,4.23-3.61s.12,4.59,2,6.73Z"/><path class="cls-9" d="M295.26,242.6c2,2.4-4.26,13.78-9.43,10C283.46,250.88,293.71,240.75,295.26,242.6Z"/><path class="cls-10" d="M267.86,236.5a53.26,53.26,0,0,0,15.8,8.63,2.3,2.3,0,0,0,2.12-.37,31.3,31.3,0,0,0,8.47-10.7c3.92-7.94,3-22.89-1-25.06s-19.48,7.95-23.12,14.93A24.9,24.9,0,0,0,267,234.71,2.24,2.24,0,0,0,267.86,236.5Z"/><path class="cls-7" d="M293.23,209c-1.7-.92-5.5.39-9.57,2.74a20.41,20.41,0,0,0,5.56,4.35,19.64,19.64,0,0,0,7.43,2.39C296.31,213.87,295.11,210,293.23,209Z"/><path class="cls-9" d="M263.67,225.42c-3.1-.39-9.25,11.07-3.27,13.35C263.13,239.82,266.06,225.71,263.67,225.42Z"/><path class="cls-11" d="M284.7,218.36a3.88,3.88,0,0,1,2.85.64,5.32,5.32,0,0,1,1.88,2.26,4.58,4.58,0,0,1-.42,3.94q-1.93,3.54-5,1.89a5,5,0,0,1-2-1.84,4.21,4.21,0,0,1-.17-4.51A3.73,3.73,0,0,1,284.7,218.36Z"/><path class="cls-12" d="M284.25,226a3.87,3.87,0,0,1-1.53-1.4,2.88,2.88,0,0,1,0-3.19,3,3,0,0,1,2.15-1.7A3.14,3.14,0,0,1,287,220a3.65,3.65,0,0,1,1.55,1.51,3,3,0,0,1-.17,3Q286.84,227.38,284.25,226Z"/><path class="cls-13" d="M285,223.84c1.15-1,1.56-2,1.22-3.08l-.34-.91a2.87,2.87,0,0,0-1,0h0a2.23,2.23,0,0,1-.13,1.67,6.69,6.69,0,0,1-1.38,1.55,5.26,5.26,0,0,0-.8.7,2.31,2.31,0,0,0,.31.63,3.54,3.54,0,0,0,1,1.06A3.42,3.42,0,0,1,285,223.84Z"/><g class="cls-3"><path class="cls-14" d="M270.08,225.87l-.05,0c9.11-14,21.3-15.66,21.7-15.61s.2,1,.39,1.38S280.57,212.59,270.08,225.87Z"/><path class="cls-14" d="M291.48,213a1.76,1.76,0,0,1-1.1-.25,1,1,0,0,1-.15-1.65,1.79,1.79,0,0,1,2.52-.51,1.08,1.08,0,0,1,.24,1.72A1.89,1.89,0,0,1,291.48,213Z"/></g></svg>