<svg id="Calque_1" data-name="Calque 1" xmlns="http://www.w3.org/2000/svg" viewBox="0 0 400 400"><defs><style>.cls-1{fill:#ff4e5e;}.cls-2{fill:#5c676d;}.cls-3{fill:#344e59;opacity:0.25;}.cls-12,.cls-4{fill:none;stroke-linecap:round;stroke-linejoin:round;}.cls-4{stroke:#fff;stroke-width:4.15px;}.cls-11,.cls-4,.cls-7,.cls-8,.cls-9{fill-rule:evenodd;}.cls-10,.cls-4,.cls-9{opacity:0.5;}.cls-5,.cls-7{fill:#bcada2;}.cls-6{fill:#e5d2c6;}.cls-8{fill:#cbd0ec;}.cls-11,.cls-9{fill:#fff;}.cls-12{stroke:#f8b334;stroke-width:2.06px;}</style></defs><title>Plan de travail 11</title><polygon class="cls-1" points="280.68 94.71 307.47 98.1 286.04 116.05 280.68 94.71"/><polygon class="cls-2" points="290.1 140.2 278.24 94.4 281.18 93.14 292.38 139.67 290.1 140.2"/><path class="cls-3" d="M316.73,140.75c-8.56-2.51-18.31-2.39-18.65-1.79-.7,1.24,4.41,4,16.51,7.93,15.07,4.89,17.56,4.3,18.53,3.41S329.1,144.36,316.73,140.75Z"/><path class="cls-4" d="M337.1,137.17c-.83-.69-2.92,1.22-4.79,3.71a11.84,11.84,0,0,1-1.79-3.38,33.47,33.47,0,0,0,4-8.86c1.34-4.67.92-11.1-.44-16.33h0c-.05-.19-.11-.38-.16-.57l-.09-.31-.15-.51c0-.12-.07-.23-.11-.35l-.15-.47-.12-.36c-.05-.15-.11-.29-.16-.44l-.14-.36c0-.13-.1-.27-.16-.4s-.09-.24-.14-.35-.11-.26-.17-.38l-.15-.34-.17-.35-.17-.33c-.06-.11-.11-.22-.17-.32l-.18-.31a2.75,2.75,0,0,0-.17-.29,2.9,2.9,0,0,0-.19-.29,2.33,2.33,0,0,0-.17-.26l-.2-.27c-.05-.08-.11-.15-.17-.23l-.21-.24c-.05-.07-.11-.13-.17-.2l-.22-.21A1.29,1.29,0,0,0,330,104a2.11,2.11,0,0,0-.23-.19l-.16-.12a2,2,0,0,0-.27-.17l-.13-.08a2.09,2.09,0,0,0-.41-.17,2.71,2.71,0,0,0-.41-.09h-.47l-.18,0c-.11,0-.21,0-.32,0l-.21,0-.35.08-.21.06-.4.14-.2.06-.61.26-.15.08c-.16.07-.33.15-.49.24l-.28.15-.4.22-.31.18-.38.24c-.11.07-.22.13-.33.21l-.39.26-.33.22-.42.3-.32.23-.71.53-.34.27-.41.34-.37.3-.26.22h0c-5,4.24-10.17,10.49-11.55,15a29.6,29.6,0,0,0-1.32,7,11.53,11.53,0,0,1-3.32,1.57c0-3.11-.57-5.89-1.66-5.83-3.23.19-7.37,13-.85,14.23,1.36.26,2.17-2.68,2.42-5.94l3.52.12c0,.15,0,.32.06.45A2.29,2.29,0,0,0,308,136c.57.3,1.38.72,2.37,1.19l-.36,3.63a1.65,1.65,0,0,0,1,1.69,44.44,44.44,0,0,0,8.54,2.54,1.63,1.63,0,0,0,1.64-.76l1.78-2.89c.89.17,1.79.33,2.72.46a2.35,2.35,0,0,0,2.09-.77l.19-.22,2.9,2c-1.73,2.78-2.82,5.62-1.58,6.22C335.31,152,339.59,139.24,337.1,137.17Z"/><path class="cls-2" d="M310.59,135.29l-.56,5.57a1.65,1.65,0,0,0,1,1.69,44.44,44.44,0,0,0,8.54,2.54,1.63,1.63,0,0,0,1.64-.76l3-4.85Z"/><path class="cls-5" d="M302.47,133.77,309,134l-.28-5.76s-3.54,3.17-6.49,3.28Z"/><path class="cls-5" d="M331.57,143.35l-5.37-3.69,3.64-4.46s1,4.65,3.28,6.49Z"/><path class="cls-1" d="M337.1,137.17c2.49,2.07-1.79,14.85-7.76,12C326.61,147.8,335.18,135.57,337.1,137.17Z"/><path class="cls-6" d="M308,136a55.14,55.14,0,0,0,17.72,5.86,2.35,2.35,0,0,0,2.09-.77,32.4,32.4,0,0,0,6.65-12.49c2.53-8.82-1.22-23.89-5.7-25.36S310.39,115,308,122.81a25.84,25.84,0,0,0-1.15,11.56A2.29,2.29,0,0,0,308,136Z"/><path class="cls-2" d="M328.78,103.28c-1.9-.63-5.53,1.42-9.25,4.57a20.67,20.67,0,0,0,6.48,3.4,20.46,20.46,0,0,0,8,1.06C332.83,107.67,330.89,104,328.78,103.28Z"/><path class="cls-1" d="M301.68,125.51c-3.23.19-7.37,13-.85,14.23C303.82,140.3,304.18,125.37,301.68,125.51Z"/><path class="cls-7" d="M321.82,114.4a4.05,4.05,0,0,1,3,.13,5.48,5.48,0,0,1,2.34,2,4.7,4.7,0,0,1,.3,4.11q-1.31,4-4.7,2.84a5.19,5.19,0,0,1-2.41-1.5,4.36,4.36,0,0,1-1-4.57A3.88,3.88,0,0,1,321.82,114.4Z"/><path class="cls-8" d="M322.77,122.25a4.08,4.08,0,0,1-1.82-1.14,3,3,0,0,1-.58-3.26,3.16,3.16,0,0,1,4.1-2.18,3.86,3.86,0,0,1,1.87,1.24,3.18,3.18,0,0,1,.39,3.11Q325.68,123.22,322.77,122.25Z"/><path class="cls-9" d="M323.15,120c1-1.24,1.21-2.36.66-3.37-.19-.34-.36-.62-.51-.87a3.1,3.1,0,0,0-1,.21h0a2.33,2.33,0,0,1,.17,1.73,6.69,6.69,0,0,1-1.11,1.83,5.93,5.93,0,0,0-.69.87,2.36,2.36,0,0,0,.43.58,3.62,3.62,0,0,0,1.25.9A3.39,3.39,0,0,1,323.15,120Z"/><g class="cls-10"><path class="cls-11" d="M308.31,124.79l-.05,0c6.68-15.93,18.8-19.93,19.22-20s.39,1,.65,1.34S316.54,109.29,308.31,124.79Z"/><path class="cls-11" d="M327.73,107.66a1.88,1.88,0,0,1-1.16-.06,1.07,1.07,0,0,1-.47-1.65,1.88,1.88,0,0,1,2.48-1c.78.44,1,1,.57,1.71A2,2,0,0,1,327.73,107.66Z"/></g><line class="cls-12" x1="312.88" y1="104.8" x2="307.16" y2="101.24"/><line class="cls-12" x1="324.48" y1="97.92" x2="323.73" y2="91.23"/><line class="cls-12" x1="336.79" y1="101.24" x2="341.18" y2="96.14"/><line class="cls-12" x1="341.18" y1="114.2" x2="347.78" y2="112.88"/></svg>