<svg id="Calque_1" data-name="Calque 1" xmlns="http://www.w3.org/2000/svg" viewBox="0 0 400 400"><defs><style>.cls-1,.cls-2,.cls-3,.cls-6{fill:none;stroke-linecap:round;stroke-linejoin:round;}.cls-1,.cls-2{stroke:#bcada2;stroke-width:8px;}.cls-2{stroke-dasharray:0 15.67;}.cls-3{stroke:#f8b334;stroke-width:14px;}.cls-4{fill:#f7b238;}.cls-15,.cls-5{opacity:0.5;}.cls-6{stroke:#fff;stroke-width:4px;}.cls-13,.cls-14,.cls-15,.cls-16,.cls-6{fill-rule:evenodd;}.cls-7{fill:#f8b334;}.cls-8{fill:#f9edc7;}.cls-9{fill:#5c676d;}.cls-10,.cls-13{fill:#bcada2;}.cls-11{fill:#ff4e5e;}.cls-12{fill:#e5d2c6;}.cls-14{fill:#cbd0ec;}.cls-15,.cls-16{fill:#fff;}</style></defs><title>Plan de travail 4</title><line class="cls-1" x1="33.83" y1="242.93" x2="33.83" y2="242.93"/><path class="cls-2" d="M43.82,230.86c11.48-12.68,31.09-30.81,49.43-30.81,34.31,0,69.66,83.86,129.19,83.86,29.35,0,48-32,59.69-57.88"/><line class="cls-1" x1="285.29" y1="218.85" x2="285.29" y2="218.85"/><path class="cls-3" d="M33.83,242.93s31.22-42.88,59.42-42.88a27.87,27.87,0,0,1,13,3.61"/><g id="Layer0_12_MEMBER_6_FILL" data-name="Layer0 12 MEMBER 6 FILL"><path class="cls-4" d="M49.14,238.28a14.69,14.69,0,0,0-1.85-2.92c-3.12-4.14-6.47-6.46-10-7a15.27,15.27,0,0,0-5.59.49A17.29,17.29,0,0,0,26,231.24a19.38,19.38,0,0,0-4.34,4.35,18.67,18.67,0,0,0-3.06,5.67,13.28,13.28,0,0,0-.21,6.58,12.85,12.85,0,0,0,2.78,5.78c1.95,2.23,5,3.93,9.34,5.12a19.84,19.84,0,0,0,4.25.81,10.53,10.53,0,0,0,4.53-.82,12.63,12.63,0,0,0,4-2.62,20.07,20.07,0,0,0,2.8-3.56,23.67,23.67,0,0,0,3.3-6.71A11.14,11.14,0,0,0,49.14,238.28Z"/></g><g class="cls-5"><path class="cls-6" d="M98.16,187.64a1,1,0,1,0,.23,1.41A1,1,0,0,0,98.16,187.64Z"/><path class="cls-6" d="M87.88,197.52A.92.92,0,0,0,86.8,199h0a.92.92,0,0,0,1.08-1.5Z"/><path class="cls-6" d="M136.6,232.49h1.2l.44,0,.37,0,.42,0,.37,0,.39,0,.37,0,.37-.06.35-.06.34-.06.34-.07.31-.08.33-.09.28-.08.31-.1.26-.1.28-.12.23-.1.26-.14.2-.11.24-.16.16-.11.23-.2a1,1,0,0,0,.11-.1,2.69,2.69,0,0,0,.27-.32h0a3.07,3.07,0,0,0,.2-.36s0-.09,0-.14a2.31,2.31,0,0,0,.1-.28c0-.06,0-.12,0-.18l.06-.3a1.49,1.49,0,0,0,0-.21c0-.11,0-.22,0-.34s0-.14,0-.21,0-.27,0-.4a1.48,1.48,0,0,0,0-.21q0-.3-.06-.63c0-.06,0-.11,0-.16s0-.35-.08-.53l-.06-.3-.09-.43c0-.11-.05-.22-.08-.33s-.07-.29-.1-.43-.07-.24-.1-.36-.08-.29-.13-.44-.07-.24-.11-.37l-.15-.47-.12-.36c-.09-.26-.19-.53-.29-.8l-.15-.4-.18-.47-.18-.44c0-.1-.08-.19-.13-.29h0c-2.46-5.83-6.71-12.39-10.42-15a28.67,28.67,0,0,0-6-3.22,11.33,11.33,0,0,1-.49-3.51c2.88.87,5.59,1.18,5.84.16.77-3-9.84-10.55-12.85-4.9-.62,1.18,1.85,2.77,4.78,3.95l-1.13,3.2-.43-.08a2.22,2.22,0,0,0-1.88.62c-.45.43-1.06,1.06-1.78,1.84l-3.24-1.38a1.44,1.44,0,0,0-.67-.11,10,10,0,0,0-4.18-8.61l-8-5.75a2.08,2.08,0,1,0-2.43,3.38l.88.63a1.14,1.14,0,0,1,.26,1.58h0a1.14,1.14,0,0,1-1.58.26L96.63,191a3.29,3.29,0,0,0-3.83,5.34l3.6,2.57a1,1,0,0,1,.23,1.43,1,1,0,0,1-1.42.23l-1.94-1.39a2.53,2.53,0,0,0-2.94,4.11l9,6.45a10,10,0,0,0,9.79,1.06,1.55,1.55,0,0,0,.33.65l2.14,2.47c-.41.77-.82,1.56-1.21,2.37a2.3,2.3,0,0,0,.1,2.15l.15.24L108,220.74c-2.06-2.4-4.36-4.22-5.27-3.25-4.39,4.66,6.14,12.29,8.76,10.6.88-.57-.28-3-2-5.48a11.51,11.51,0,0,1,3.61-.68,32.63,32.63,0,0,0,7,6.21c4.06,2.68,10.39,4.15,15.72,4.33h.83Z"/></g><path class="cls-7" d="M103,187.64a2.08,2.08,0,0,0-2.91.47h0a2.08,2.08,0,0,0,.48,2.91l.88.63a1.14,1.14,0,0,1,.26,1.58h0a1.14,1.14,0,0,1-1.58.26L96.63,191a3.28,3.28,0,0,0-4.58.75h0a3.29,3.29,0,0,0,.75,4.59l3.6,2.57a1,1,0,0,1,.23,1.43h0a1,1,0,0,1-1.42.23l-1.94-1.39a2.53,2.53,0,0,0-3.52.58h0a2.52,2.52,0,0,0,.58,3.53l9,6.45a10,10,0,0,0,14-2.31h0a10,10,0,0,0-2.31-14Z"/><rect class="cls-7" x="96.57" y="187.46" width="2.01" height="2.01" rx="1.01" transform="translate(128.13 -21.55) rotate(35.65)"/><rect class="cls-7" x="86.42" y="197.35" width="1.84" height="1.84" rx="0.92" transform="translate(131.93 -13.75) rotate(35.65)"/><circle class="cls-8" cx="106.98" cy="202.84" r="7.51"/><path class="cls-9" d="M120.83,204.23l-5-2.12a1.57,1.57,0,0,0-1.85.45,42.79,42.79,0,0,0-4.81,7.13,1.55,1.55,0,0,0,.23,1.73l3.6,4.15Z"/><path class="cls-10" d="M124.58,197.19l-2.09,5.93,5.38,1.41s-1.89-4.17-1.14-6.92Z"/><path class="cls-10" d="M107.35,221.21l5-3.88,3.06,4.64s-4.56-.45-6.93,1.14Z"/><path class="cls-11" d="M111.44,228.09c-2.62,1.69-13.15-5.94-8.76-10.6C104.69,215.35,113.47,226.78,111.44,228.09Z"/><path class="cls-12" d="M120.89,201.65a53.11,53.11,0,0,0-10.52,14.61,2.3,2.3,0,0,0,.1,2.15,31.35,31.35,0,0,0,9.58,9.73c7.39,4.87,22.34,5.78,25,2.09s-5.48-20.32-12-24.8a25.11,25.11,0,0,0-10.31-4.4A2.22,2.22,0,0,0,120.89,201.65Z"/><path class="cls-9" d="M145,230.23c1.13-1.58.29-5.51-1.54-9.84a20.32,20.32,0,0,0-5,5,19.74,19.74,0,0,0-3.3,7.08C139.82,232.68,143.79,232,145,230.23Z"/><path class="cls-11" d="M132.4,198.86c.77-3-9.84-10.55-12.85-4.9C118.18,196.55,131.81,201.2,132.4,198.86Z"/><path class="cls-13" d="M136.81,220.61a3.9,3.9,0,0,1-1,2.74,5.29,5.29,0,0,1-2.47,1.59,4.58,4.58,0,0,1-3.87-.91q-3.27-2.35-1.26-5.16a5.15,5.15,0,0,1,2.08-1.78,4.23,4.23,0,0,1,4.5.39A3.77,3.77,0,0,1,136.81,220.61Z"/><path class="cls-14" d="M129.31,219.21a3.93,3.93,0,0,1,1.58-1.34,2.88,2.88,0,0,1,3.16.41,3,3,0,0,1,1.42,2.34,3.08,3.08,0,0,1-.59,2.06A3.73,3.73,0,0,1,133.2,224a3.09,3.09,0,0,1-3-.54C128.47,222.24,128.16,220.81,129.31,219.21Z"/><path class="cls-15" d="M131.33,220.22c.85,1.27,1.82,1.8,2.9,1.59l1-.22a2.83,2.83,0,0,0,.1-1h0a2.27,2.27,0,0,1-1.65-.34,6.88,6.88,0,0,1-1.36-1.56,5.71,5.71,0,0,0-.6-.89,2.88,2.88,0,0,0-.66.23,3.57,3.57,0,0,0-1.18.89A3.37,3.37,0,0,1,131.33,220.22Z"/><g class="cls-5"><path class="cls-16" d="M131.16,205.16l0,0c12.73,10.75,12.91,23.07,12.81,23.46s-1,.06-1.42.21S143,217.22,131.16,205.16Z"/><path class="cls-16" d="M141.31,228a1.8,1.8,0,0,1,.39-1.05,1,1,0,0,1,1.65.05,1.8,1.8,0,0,1,.2,2.57,1.09,1.09,0,0,1-1.73,0A1.92,1.92,0,0,1,141.31,228Z"/></g></svg>