<svg id="Calque_1" data-name="Calque 1" xmlns="http://www.w3.org/2000/svg" viewBox="0 0 400 400"><defs><style>.cls-1,.cls-2,.cls-3,.cls-6{fill:none;stroke-linecap:round;stroke-linejoin:round;}.cls-1,.cls-2{stroke:#bcada2;stroke-width:8px;}.cls-2{stroke-dasharray:0 15.67;}.cls-3{stroke:#f8b334;stroke-width:14px;}.cls-4{fill:#f7b238;}.cls-15,.cls-5{opacity:0.5;}.cls-6{stroke:#fff;stroke-width:4px;}.cls-13,.cls-14,.cls-15,.cls-16,.cls-6{fill-rule:evenodd;}.cls-7{fill:#f8b334;}.cls-8{fill:#f9edc7;}.cls-9{fill:#5c676d;}.cls-10,.cls-13{fill:#bcada2;}.cls-11{fill:#ff4e5e;}.cls-12{fill:#e5d2c6;}.cls-14{fill:#cbd0ec;}.cls-15,.cls-16{fill:#fff;}</style></defs><title>Plan de travail 2</title><line class="cls-1" x1="33.83" y1="242.93" x2="33.83" y2="242.93"/><path class="cls-2" d="M43.82,230.86c11.48-12.68,31.09-30.81,49.43-30.81,34.31,0,69.66,83.86,129.19,83.86,29.35,0,48-32,59.69-57.88"/><line class="cls-1" x1="285.29" y1="218.85" x2="285.29" y2="218.85"/><path class="cls-3" d="M33.83,242.93a163.74,163.74,0,0,1,10.65-12.8"/><g id="Layer0_12_MEMBER_6_FILL" data-name="Layer0 12 MEMBER 6 FILL"><path class="cls-4" d="M49.14,238.28a14.69,14.69,0,0,0-1.85-2.92c-3.12-4.14-6.47-6.46-10-7a15.27,15.27,0,0,0-5.59.49A17.29,17.29,0,0,0,26,231.24a19.38,19.38,0,0,0-4.34,4.35,18.67,18.67,0,0,0-3.06,5.67,13.28,13.28,0,0,0-.21,6.58,12.85,12.85,0,0,0,2.78,5.78c1.95,2.23,5,3.93,9.34,5.12a19.84,19.84,0,0,0,4.25.81,10.53,10.53,0,0,0,4.53-.82,12.63,12.63,0,0,0,4-2.62,20.07,20.07,0,0,0,2.8-3.56,23.67,23.67,0,0,0,3.3-6.71A11.14,11.14,0,0,0,49.14,238.28Z"/></g><g class="cls-5"><path class="cls-6" d="M27,233a1,1,0,1,0,1.41.14A1,1,0,0,0,27,233Z"/><path class="cls-6" d="M33.89,245.51a.92.92,0,1,0,1.17,1.42h0a.93.93,0,0,0,.13-1.3A.92.92,0,0,0,33.89,245.51Z"/><path class="cls-6" d="M80.3,207.52l.09-.34.12-.46.09-.36.09-.43c0-.12.06-.25.08-.36s.06-.28.08-.42.05-.24.07-.37l.06-.38c0-.13,0-.25,0-.37s0-.24,0-.37l0-.35,0-.35c0-.12,0-.23,0-.34s0-.22,0-.33V202c0-.1,0-.2,0-.3s0-.22,0-.32l0-.28c0-.1,0-.2,0-.3a1.87,1.87,0,0,0,0-.25l-.06-.29L80.9,200c0-.09-.06-.18-.09-.27a1.46,1.46,0,0,0-.07-.19,2.1,2.1,0,0,0-.13-.26.61.61,0,0,0-.07-.14,3,3,0,0,0-.23-.35h0a1.59,1.59,0,0,0-.29-.29l-.12-.09-.25-.16a.83.83,0,0,0-.16-.09L79.2,198,79,198l-.32-.11-.21-.07-.38-.1-.2,0-.63-.11-.17,0-.52-.06-.3,0-.45,0-.34,0H73.84l-.49,0-.39,0-.84.06-.43.05-.5.05-.47.06-.32,0h0c-6.26.86-13.7,3.26-17.14,6.18a28.87,28.87,0,0,0-4.68,5,10.91,10.91,0,0,1-3.52-.44c1.59-2.55,2.59-5.09,1.67-5.6C44,201.33,34,209.62,38.67,214c1,.91,3.15-1.06,5-3.59l2.8,1.92c-.06.14-.14.28-.19.4a2.26,2.26,0,0,0,.11,2c.3.54.75,1.3,1.31,2.2l-2.17,2.76a1.51,1.51,0,0,0-.28.62,10,10,0,0,0-9.39,1.8l-7.64,6.26a2.08,2.08,0,1,0,2.64,3.22l.83-.68a1.13,1.13,0,0,1,1.59.16h0a1.13,1.13,0,0,1-.16,1.58l-3.34,2.74A3.28,3.28,0,1,0,34,240.44l3.43-2.81a1,1,0,0,1,1.29,1.58l-1.85,1.51a2.53,2.53,0,0,0,3.2,3.91l8.57-7a10,10,0,0,0,3.56-9.19,1.5,1.5,0,0,0,.72-.14l2.94-1.43c.63.6,1.29,1.2,2,1.78a2.25,2.25,0,0,0,2.1.46l.26-.08,1.33,3.12c-2.85,1.37-5.2,3.12-4.51,4.25,3.37,5.45,13.47-2.74,12.51-5.71-.32-1-3-.52-5.82.54a11.73,11.73,0,0,1,.29-3.67,32.88,32.88,0,0,0,7.82-5.17c3.63-3.23,6.7-9,8.26-14.06l.09-.31C80.21,207.85,80.25,207.68,80.3,207.52Z"/></g><path class="cls-7" d="M28.27,228.34a2.07,2.07,0,0,0-.3,2.93h0a2.09,2.09,0,0,0,2.94.29l.83-.68a1.13,1.13,0,0,1,1.59.16h0a1.13,1.13,0,0,1-.16,1.58l-3.34,2.74a3.28,3.28,0,0,0-.46,4.62h0a3.28,3.28,0,0,0,4.62.46l3.43-2.81a1,1,0,0,1,1.43.15h0a1,1,0,0,1-.14,1.43l-1.85,1.51a2.52,2.52,0,0,0-.35,3.55h0a2.52,2.52,0,0,0,3.55.36l8.57-7A10,10,0,0,0,50,223.49h0a10,10,0,0,0-14.12-1.41Z"/><rect class="cls-7" x="26.65" y="232.79" width="2.01" height="2.01" rx="1.01" transform="translate(-141.87 70.44) rotate(-39.32)"/><rect class="cls-7" x="33.55" y="245.3" width="1.84" height="1.84" rx="0.92" transform="translate(-148.2 77.57) rotate(-39.32)"/><circle class="cls-8" cx="43.98" cy="228.44" r="7.51"/><path class="cls-9" d="M48.91,215.42l-3.33,4.24a1.58,1.58,0,0,0,0,1.91,43.47,43.47,0,0,0,5.64,6.5,1.58,1.58,0,0,0,1.73.22l4.94-2.4Z"/><path class="cls-10" d="M43.09,210l5.19,3.55L51,208.7s-4.52.75-7-.69Z"/><path class="cls-10" d="M61.82,232.84l-2.46-5.78,5.27-1.75s-1.62,4.29-.69,7Z"/><path class="cls-11" d="M69.52,230.68c1,3-9.14,11.16-12.51,5.71C55.47,233.9,68.79,228.38,69.52,230.68Z"/><path class="cls-12" d="M46.44,214.7a52.85,52.85,0,0,0,11.39,13.94,2.25,2.25,0,0,0,2.1.46,31.29,31.29,0,0,0,11.88-6.72c6.62-5.87,11.37-20.08,8.49-23.59s-21,0-27,5.11a25.05,25.05,0,0,0-6.93,8.82A2.26,2.26,0,0,0,46.44,214.7Z"/><path class="cls-9" d="M80.3,198.79c-1.22-1.5-5.24-1.72-9.9-1.08a20.49,20.49,0,0,0,3.51,6.13,19.55,19.55,0,0,0,6,5C81.32,204.46,81.66,200.44,80.3,198.79Z"/><path class="cls-11" d="M46.73,202.85C44,201.33,34,209.62,38.67,214,40.81,216,48.84,204,46.73,202.85Z"/><path class="cls-13" d="M68.88,204.24a3.86,3.86,0,0,1,2.39,1.67,5.22,5.22,0,0,1,.89,2.8,4.52,4.52,0,0,1-1.88,3.49q-3.11,2.55-5.3-.12a5.09,5.09,0,0,1-1.19-2.47,4.22,4.22,0,0,1,1.55-4.24A3.75,3.75,0,0,1,68.88,204.24Z"/><path class="cls-14" d="M65.58,211.12a3.91,3.91,0,0,1-.88-1.88,2.88,2.88,0,0,1,1.21-2.94,3,3,0,0,1,2.63-.77,3.09,3.09,0,0,1,1.84,1.11,3.73,3.73,0,0,1,.87,2A3.05,3.05,0,0,1,70,211.35Q67.46,213.41,65.58,211.12Z"/><path class="cls-15" d="M67.08,209.43c1.45-.49,2.21-1.29,2.29-2.39,0-.37,0-.69,0-1a2.55,2.55,0,0,0-.94-.36h0a2.22,2.22,0,0,1-.75,1.49,6.73,6.73,0,0,1-1.86.92,5.15,5.15,0,0,0-1,.35,2.74,2.74,0,0,0,.05.69,3.4,3.4,0,0,0,.55,1.38A3.43,3.43,0,0,1,67.08,209.43Z"/><g class="cls-5"><path class="cls-16" d="M52.5,205.69l0-.05c13.69-9.5,25.63-6.48,26-6.29s-.21,1-.16,1.43S67.22,197.34,52.5,205.69Z"/><path class="cls-16" d="M77.18,201.8a1.76,1.76,0,0,1-.92-.64,1,1,0,0,1,.48-1.59,1.81,1.81,0,0,1,2.53.48,1.08,1.08,0,0,1-.42,1.68A1.88,1.88,0,0,1,77.18,201.8Z"/></g></svg>