<svg id="Calque_1" data-name="Calque 1" xmlns="http://www.w3.org/2000/svg" viewBox="0 0 400 400"><defs><style>.cls-1{fill:#f0f4fb;fill-opacity:0.5;}.cls-2{fill:#99ebea;}.cls-3{fill:#fabd88;}.cls-4{opacity:0.5;}.cls-5{fill:#d46c5f;}.cls-6{fill:#fff;fill-opacity:0.75;}</style></defs><title>Plan de travail 17</title><g id="Layer0_8_MEMBER_0_FILL" data-name="Layer0 8 MEMBER 0 FILL"><path class="cls-1" d="M343.76,150q-2.25-3-3.52-4.43-10.74-11.92-28.75-16.81-18.18-5.1-34.46.75-16.59,5.85-27.32,15.84-10.89,9.75-15.17,25.6a54.75,54.75,0,0,0,1.5,32.2q5.86,16.37,13.52,26,8.93,11.19,31.67,15.54a69.42,69.42,0,0,0,24,.45,60.57,60.57,0,0,0,20.65-7.21,65.34,65.34,0,0,0,14.49-11.26,56.59,56.59,0,0,0,11-17.71q7.05-18.69,5.18-31.23T343.76,150Z"/></g><g id="Layer0_8_MEMBER_1_FILL" data-name="Layer0 8 MEMBER 1 FILL"><path class="cls-2" d="M327.77,141.7a39.53,39.53,0,0,0-15.38-8.41q-22.31-5.17-40.46,3.61-19.53,9.38-28.15,31.82-9.17,23.81,1.72,42.42,11.19,19.37,38.29,23.27,25.36,3.83,43.23-9.76Q342,213.31,348,193.2q5.1-17-7.28-36.64A64.31,64.31,0,0,0,327.77,141.7Z"/></g><path class="cls-3" d="M327,224.65a55.75,55.75,0,0,0,14.3-16.09l-1.61.93q-16.59,9.56-30.39,8.67c0-1.37-.05-2.85-.1-4.43q-.3-17.16,9-18.31t13.57-5.86q4.23-4.77,7.44-18.2-23.29,5.12-35,19-11.94,14.28-14.37,17t-12.19.36q-9.77-2.31-19.63,6.73,8.94-12.39,16.32-17.64,3.11-2.19,8.51-5.3,6.67-3.83,8.62-5.05t5.81-3.83q3.72-2.49,5.76-3.77,4-2.44,12.29-7.19a36.82,36.82,0,0,0,10.45-9.18,33.21,33.21,0,0,0,3-5.2c.58-1.19,1.37-3,2.39-5.5.73-1.82,1.38-3.48,1.95-5a61.48,61.48,0,0,0-4.9-4.67,51.49,51.49,0,0,1-12.85,8.19q-9.28,3.78-16.83,3.42-5.31.71-9.28,1t-16.06,4.39a55.83,55.83,0,0,0-10.55,4.69,22,22,0,0,1,6.83-11.27,29.73,29.73,0,0,1,13.56-6.88,156.23,156.23,0,0,0,18.46-5.56c4.59-1.63,7.36-4.09,8.33-7.35q-20.79-4.12-37.92,4.15-19.53,9.38-28.15,31.82-9.17,23.81,1.72,42.42,11.19,19.37,38.29,23.27Q309.15,238.24,327,224.65Z"/><g class="cls-4"><g id="Layer0_5_MEMBER_3_FILL" data-name="Layer0 5 MEMBER 3 FILL"><path class="cls-5" d="M316.61,150.5a44.33,44.33,0,0,0-31.25,4.74,64.5,64.5,0,0,0-9.49,6.89q-10,8.46-15.09,17-6.46,11-5.61,21.77A42.77,42.77,0,0,0,258,212.45,95.11,95.11,0,0,0,267.21,230a67.49,67.49,0,0,0,16.57,4.43q25.38,3.83,43.23-9.78,14.94-11.32,21-31.46v-.05l.25-7a38.15,38.15,0,0,0-.35-8.16,26.06,26.06,0,0,0-4.75-10,45,45,0,0,0-11.67-11.06A43.7,43.7,0,0,0,316.61,150.5Z"/></g></g><path class="cls-6" d="M294.45,192.17a2.79,2.79,0,0,0,.16-2.33c-.54-1.4-2.05-2.18-4.54-2.32a23.58,23.58,0,0,0-7.62,1,57.56,57.56,0,0,0-7.36,2.59,53.06,53.06,0,0,0-7.73,3.62,17.79,17.79,0,0,0-6,5.63,53.27,53.27,0,0,0-2.38,5.14,18.15,18.15,0,0,1-2.71,4.81,16.81,16.81,0,0,1-5.46,3.73l-.75.32a12.36,12.36,0,0,1-1.52.27,20.11,20.11,0,0,1-4.32,0c-.44-.69-.88-1.38-1.3-2.1a47.93,47.93,0,0,1-2.2-4.27,10.15,10.15,0,0,0,5.88.12,9,9,0,0,0,3.67-1.95,8.37,8.37,0,0,0,2.44-3.3,17.43,17.43,0,0,0,.92-4.76,20.76,20.76,0,0,1,.86-4.76,11.77,11.77,0,0,1,5.25-5.84,36.74,36.74,0,0,1,7.4-2.86q13.41-3.79,23-3.57a11.66,11.66,0,0,1,5,1,6.29,6.29,0,0,1,3.08,4.06,7.26,7.26,0,0,1,.11,3.73,7,7,0,0,1-1.35,2.87v0a5.14,5.14,0,0,1-2.05,2.06,2.69,2.69,0,0,1-1,.27l-.32.16a7.45,7.45,0,0,1-3.73.43,5.49,5.49,0,0,1-2.65-1.08,4.08,4.08,0,0,1-1.68-2.22l.81.27c.36.15.9.38,1.62.71a5.82,5.82,0,0,0,4.76.11A3.41,3.41,0,0,0,294.45,192.17ZM332.74,223a26.62,26.62,0,0,1-7.36-.76,41.58,41.58,0,0,0-12.27-.75,24.92,24.92,0,0,0-9.57,3.19,18.62,18.62,0,0,0-3.84,2.86,36.23,36.23,0,0,0-3.95,5,26.17,26.17,0,0,1,5.62-3.19,29.26,29.26,0,0,1,8.49-1.95,71.85,71.85,0,0,1,8.87,0,62.33,62.33,0,0,0,8.65.06l.65-.1c.23-.17.47-.33.7-.51a59.3,59.3,0,0,0,4.68-4C333.19,222.9,333,223,332.74,223Zm-84.09-52A30,30,0,0,0,259,175.46a46.32,46.32,0,0,0,4.82.86,24.51,24.51,0,0,0,2.54.49,25.74,25.74,0,0,0,7.19-.43,43.68,43.68,0,0,0,8.87-1.89,28.11,28.11,0,0,0,6.76-3.19,22.31,22.31,0,0,0,2.65-1.63,24.21,24.21,0,0,0,6.43-6.54,18.24,18.24,0,0,0,3.08-8.54,7.73,7.73,0,0,0-5.78-8.82,14.93,14.93,0,0,0-6.6-.86c-.42,0-.91.08-1.46.16q-14.46,3.57-14,14.49v.05a2.85,2.85,0,0,0,.81,2.11c.79.8,2,1,3.67.65a5,5,0,0,0,.54-.16A4.19,4.19,0,0,1,278,162a1.76,1.76,0,0,1-.92-.75,1.55,1.55,0,0,1-.11-.65l-.05-1a3.22,3.22,0,0,1,.16-1,2.49,2.49,0,0,1,.49-.59l1.13-1,.43-.32.82-.44a7.55,7.55,0,0,1,2-.75.15.15,0,0,0,.11-.06,19.65,19.65,0,0,1,2.75-.43,10.89,10.89,0,0,1,2.44.27q3,.6,3.24,2.81a7.92,7.92,0,0,1-.27,3.68,11.16,11.16,0,0,1-4.33,5.08,21.18,21.18,0,0,1-2.21,1,35.42,35.42,0,0,1-6.33,1.78,31.35,31.35,0,0,1-10.06,1,23.72,23.72,0,0,1-9.57-3.46,12,12,0,0,1-3.84-3.19,10.33,10.33,0,0,1-1.62-8.06c0-.13,0-.25.05-.38a4.21,4.21,0,0,0,2.38-2,3.33,3.33,0,0,0,.11-2.38,6.08,6.08,0,0,0-1.24-2.11,7.51,7.51,0,0,0-.85-.74,63.83,63.83,0,0,0-10,15.9A18.87,18.87,0,0,0,248.65,171Zm102.87,19.79c-2.1-4.95-5.95-9-11.59-12.27A31.21,31.21,0,0,0,326,174.38a33,33,0,0,0-4.11.05,44.11,44.11,0,0,0-8,2.06q-8.58,3.78-7.25,11.46l3-3.24a8.51,8.51,0,0,1,.81-.76,11.91,11.91,0,0,1,4.49-1.95,22.23,22.23,0,0,1,10.87.11,20.22,20.22,0,0,1,5.79,2.54,26.24,26.24,0,0,1,4.05,3.52,25,25,0,0,1,4.55,5.62,22.71,22.71,0,0,1,2.21,6q.5,2.33,1,6.38c.18,1.36.32,2.59.41,3.7a71.52,71.52,0,0,0,7-16.15C351.07,192.74,351.31,191.75,351.52,190.76Zm-46.79-39.09a45,45,0,0,0-1.08,8.32,39.46,39.46,0,0,0,.21,6.55,2.31,2.31,0,0,1-1.73,2.92c-1.41.43-2.58.76-3.51,1s-1.84.43-2.38.54a9.7,9.7,0,0,0-4.33,2.11,6.25,6.25,0,0,0-.86,1.08q2.56-2.52,8.65-1.4t8.54-1.36q2.4-2.52.33-7.35t5.13-7.79q7.19-2.94,22.17-1.46c3.17.33,5.69.63,7.58.91l-.33-.55a68.66,68.66,0,0,0-12-14.23c-3-.16-6-.21-9-.13a22.07,22.07,0,0,0-11.3,3.51Q305.72,147.67,304.73,151.67Zm-15.41,53.1q4.68,4,13.57,2.43a15,15,0,0,0,7.41-3.13,7.42,7.42,0,0,0,2.21-3.47,6,6,0,0,0,.17-2.65,5.18,5.18,0,0,0-1.09-1.35,13.58,13.58,0,0,0-1.94-1.29,7.49,7.49,0,0,1-1.79-1.41,5.1,5.1,0,0,1-1-2.7,5.11,5.11,0,0,0,.1,3.46,11.28,11.28,0,0,1,.65,1.4Q311.61,204.91,289.32,204.77Z"/></svg>