<svg id="Calque_1" data-name="Calque 1" xmlns="http://www.w3.org/2000/svg" viewBox="0 0 400 400"><defs><style>.cls-1{fill:#faf7dc;}.cls-1,.cls-2,.cls-6{fill-opacity:0.5;}.cls-1,.cls-11,.cls-2,.cls-3,.cls-4,.cls-5,.cls-6,.cls-7{fill-rule:evenodd;}.cls-2{fill:#fffdee;}.cls-3{fill:#f7f4d3;}.cls-4{fill:#ece8ba;}.cls-5{fill:#dbd595;}.cls-6{fill:#f1f5fc;}.cls-7{fill:#69a3e2;}.cls-8{fill:#adce5b;}.cls-9{opacity:0.5;}.cls-10{fill:#3d72ab;}.cls-11{fill:#fff;fill-opacity:0.75;}</style></defs><title>Plan de travail 20</title><path class="cls-1" d="M386.32,210.45a16.28,16.28,0,0,1,.35,11.54A18.71,18.71,0,0,1,379,232.16q-5.75,3.92-15.12,2.78t-12-8.28a19.83,19.83,0,0,1-.31-13.71,17.26,17.26,0,0,1,8.74-9.89q6.41-3.33,12-2.74A18.8,18.8,0,0,1,381,203Q384,205.13,386.32,210.45Z"/><path class="cls-2" d="M367.71,205.49a17.07,17.07,0,0,1,9.37,2.9,14.83,14.83,0,0,1,4.88,5.32,13.37,13.37,0,0,1,.74,7.26,12.89,12.89,0,0,1-4.36,8.09,15,15,0,0,1-9.35,4q-5.53.39-11.54-4.12c-4-3-5.67-6.5-5-10.5a15.7,15.7,0,0,1,5.25-9.58A13.81,13.81,0,0,1,367.71,205.49Z"/><path class="cls-3" d="M378.73,212.23q2.94,4.47,1.73,8.42a14.11,14.11,0,0,1-5,7.37,13.68,13.68,0,0,1-10.31,2.47q-6.44-.78-9.11-5.18t-.41-9.8a13.45,13.45,0,0,1,6.7-7.49,14.73,14.73,0,0,1,9.63-1,9.49,9.49,0,0,1,3.65,1.87A13.89,13.89,0,0,1,378.73,212.23Z"/><path class="cls-4" d="M380.46,220.65q1.21-3.94-1.73-8.42c-.17-.26-.38-.48-.56-.73a10.21,10.21,0,0,0-7.25-1.58c-14,2.33-15.54,14-12.81,17.76a13,13,0,0,0,7.08,2.81A13.68,13.68,0,0,0,375.5,228,14.11,14.11,0,0,0,380.46,220.65Z"/><path class="cls-4" d="M371.31,213.6a.41.41,0,0,1-.41-.26c0-.18-.07-.27-.07-.28a1.19,1.19,0,0,1,.31-.63,1.08,1.08,0,0,1,.93-.52c.38,0,.57.16.59.49,0,.16-.19.4-.55.72A1.43,1.43,0,0,1,371.31,213.6Zm-14.73,6.07c0-2.49.91-4,2.71-4.45a2.68,2.68,0,0,1,2.06.3c.67.38.93,1.37.79,3a8.34,8.34,0,0,1-.61,1.87c-.62,1.4-1.46,2.1-2.5,2.1a2.16,2.16,0,0,1-2.21-1.26A3.9,3.9,0,0,1,356.58,219.67Zm7.31-2.71a5.79,5.79,0,0,1-.37,3.17,6.12,6.12,0,0,1-2.49,3.38c0,.07,0,.05,0-.07.39-.54.77-1.12,1.15-1.71a6.34,6.34,0,0,0,1.15-3.45,4.93,4.93,0,0,0-.63-2.25,10.22,10.22,0,0,1-.63-1.08,2.4,2.4,0,0,1,.7.24,1.56,1.56,0,0,1,.52.44A3.92,3.92,0,0,1,363.89,217Z"/><path class="cls-5" d="M371.83,211.45l.13.07c-.92.68-1.39,1.23-1.39,1.67a1.1,1.1,0,0,0,.22.49s-.07.16-.22.35-.28.28-.37.28h0v-.17a2.85,2.85,0,0,0,0-.37,1.5,1.5,0,0,0,0-.22,2,2,0,0,0,0-.35,6.83,6.83,0,0,1,.39-.75C371,211.68,371.43,211.35,371.83,211.45Zm.89,1.08a1.24,1.24,0,0,1-.35.66,1.19,1.19,0,0,1-.89.47.69.69,0,0,1-.52-.15.24.24,0,0,1-.06-.17c0-.06.21-.2.63-.44s.63-.44.63-.63a.26.26,0,0,0-.07-.15l-.09-.06c.26-.25.46-.26.59,0A.9.9,0,0,1,372.72,212.53Zm-1.1,6.67a1.08,1.08,0,0,1,.56-.14c.49,0,.71.17.67.5a.69.69,0,0,1-.26.48,1.51,1.51,0,0,1-.91.26c-.3,0-.46-.14-.46-.43,0,0,0-.07,0-.1h-.07a.41.41,0,0,1-.39-.2c0-.11,0-.18,0-.19,0-.28.16-.42.46-.43S371.59,219,371.62,219.2Zm-.5,1c.11,0,.19.07.23.22l-.06.17-.17.07c-.14-.1-.2-.18-.2-.24S371,220.19,371.12,220.19Zm5-4.92a.83.83,0,0,1-.2-.41c0-.42.22-.58.67-.46s.67.37.67.72a.61.61,0,0,1-.08.32.43.43,0,0,1-.37.18A.84.84,0,0,1,376.13,215.27Zm-12.26-4.51v0a.78.78,0,0,1-.58.22.43.43,0,0,1-.39-.2l-.06-.21c0-.35.2-.54.61-.59s.5,0,.56.26a1.14,1.14,0,0,1,.35-.17c.34-.1.52,0,.52.28a.65.65,0,0,1-.18.37.59.59,0,0,1-.49.26A.35.35,0,0,1,363.87,210.76ZM357.3,221a2.06,2.06,0,0,0,1.43,1.06,3.1,3.1,0,0,0,2-.63.75.75,0,0,1,0,.2c0,.23-.26.53-.78.89a3.45,3.45,0,0,1-1.91.61,2,2,0,0,1-1.95-1.26,5,5,0,0,1,.15-3.91,5.23,5.23,0,0,1,1.3-1.93,3,3,0,0,1,3.12-.76c-1.85.11-3,.93-3.38,2.48S356.91,220.31,357.3,221Zm5.57-4.55a2.74,2.74,0,0,0-1.21-1.39c.69-.34,1.24,0,1.65,1.13a2.84,2.84,0,0,1,.26,1V218a8.18,8.18,0,0,1-.81,3.26q-1.22,2.78-3.55,2.77a1.12,1.12,0,0,1-.59-.13c0,.05,0,0,0-.08l.91-.29a5.67,5.67,0,0,0,1.69-.91,4.13,4.13,0,0,0,1.13-1.56,8.79,8.79,0,0,0,.61-1.58,6.48,6.48,0,0,0,.17-1.54A4.26,4.26,0,0,0,362.87,216.4Zm-1.78-1.52s-.09,0-.1-.07a.21.21,0,0,1-.05-.15.31.31,0,0,1,.11-.17.54.54,0,0,1,.35-.18.65.65,0,0,0,0,.18.31.31,0,0,1-.13.21A.63.63,0,0,1,361.09,214.88Zm5.73,9,0-.18c0-.2.14-.32.43-.36s.41.06.41.32a.3.3,0,0,1-.13.24.38.38,0,0,1-.3.13Q366.91,224,366.82,223.86Zm-3.25.87a1.22,1.22,0,0,1-.94.52A.8.8,0,0,1,362,225a2.56,2.56,0,0,1-.09-.29,1.16,1.16,0,0,1,1-1.28c.67-.13,1,.1,1,.7A1.22,1.22,0,0,1,363.57,224.73ZM362,227.09c0-.19.13-.28.39-.28s.33.06.33.19-.16.33-.48.33c-.11,0-.19,0-.21-.11A.23.23,0,0,1,362,227.09Zm-4-2.71-.23-.07,0-.21c0-.29.1-.45.31-.48s.3.11.3.37S358.26,224.38,358,224.38Zm-.45-.72a1,1,0,0,1-.24.39c-.14-.1-.22-.18-.22-.24s0-.08.13-.15l.15-.13a.34.34,0,0,0,.14.05S357.56,223.6,357.56,223.66Z"/><path class="cls-5" d="M375.21,222.73a7.16,7.16,0,0,1,.52,2.75c0,.19,0,.36,0,.5.08-.13.16-.26.23-.39a14.56,14.56,0,0,0,1.38-6l.1.22a5.63,5.63,0,0,1,.37,1.93,7.9,7.9,0,0,1-.74,3.15l.34-.5a9.54,9.54,0,0,0,1.37-2.95h.13l.05,0a.2.2,0,0,1,0,.11,8.09,8.09,0,0,1-.37,2.23,8.9,8.9,0,0,1-1.31,2.59,6.43,6.43,0,0,1-2.77,2.16,17.73,17.73,0,0,1-5.31,1.13h-1.1a17.58,17.58,0,0,0,2.42-.86,7.61,7.61,0,0,0,1.41-.7h-.39a3,3,0,0,1-2.45-.78h2.45c.82,0,1.52,0,2.1-.08a4.65,4.65,0,0,1-1.82-2.87,9.25,9.25,0,0,0,2.95,2.23c.06-.55.09-.92.09-1.1,0-1.47,0-2.57,0-3.3C374.93,222.17,375.05,222.34,375.21,222.73Zm4-2.82a.41.41,0,0,1-.24.15l-.13-.06a.31.31,0,0,1,.31-.13Zm.11.69s0,.06,0,.13-.08.13-.26.29l-.26-.07v-.15c0-.22.15-.3.46-.24C379.23,220.57,379.24,220.59,379.27,220.6ZM368.06,227a.11.11,0,0,1,.08-.11c.08,0,.13,0,.18.11l-.18.09Zm.52.39a.22.22,0,0,1-.2-.08l0-.09c0-.12.08-.18.24-.2s.22,0,.22.16S368.74,227.39,368.58,227.39Zm-1.09,2.35,0-.09c0-.12.1-.18.28-.18s.13.05.13.14-.08.19-.26.19A.16.16,0,0,1,367.49,229.74Z"/><path class="cls-6" d="M343.73,150q10.93,15.09,12.87,27.74t-5.21,31.17a55.7,55.7,0,0,1-11,17.75,63.81,63.81,0,0,1-14.53,11.22c-12.2,7-27.8,10-44.59,6.79s-26.62-9.18-31.72-15.53-9.56-15.06-13.47-26A52.89,52.89,0,0,1,234.54,171q4.34-15.77,15.2-25.64T277,129.53q16.41-5.86,34.49-.79t28.73,16.84A53.11,53.11,0,0,1,343.73,150Z"/><path class="cls-7" d="M327.76,141.65a63.21,63.21,0,0,1,12.92,14.9q12.38,19.68,7.32,36.64-6,20-21,31.4-17.81,13.54-43.25,9.79-27.06-4-38.27-23.27-10.86-18.74-1.72-42.46,8.65-22.47,28.18-31.81,18.3-8.79,40.42-3.57A40.68,40.68,0,0,1,327.76,141.65Z"/><path class="cls-8" d="M283.79,234.38a75.45,75.45,0,0,1-8.65-1.8,138.61,138.61,0,0,1-10.37-10.77q-12.42-15.28-12.43-18.94a40.83,40.83,0,0,1,.34-6.05q-1.4-1.11-4.16-9.22-2.88-8.52-2.89-9.49a50.57,50.57,0,0,1,2-13.14c.69-2.52,1.78-5.85,3.25-10A52.64,52.64,0,0,1,272,136.84a57.46,57.46,0,0,1,6.17-2.52c-.11.45-.22.93-.35,1.45-1,4-1.54,6.72-1.72,8.24l.05.46v.05l2-.12q7,.15,9,1.33c.74.48,1.11,1.43,1.11,2.88,0,.23,0,1.77-.05,4.62-.19,2.55-.65,3.93-1.39,4.14a49.38,49.38,0,0,1-3.49,7,60,60,0,0,1-4.27,7l-.72-.19c-.08,0-.11-.13-.11-.51a.35.35,0,0,1,.05-.17.63.63,0,0,1-.55-.42c0-.23-.06-.36-.06-.4a11.81,11.81,0,0,1,.67-2.78,13.41,13.41,0,0,0,.66-2.44,23.07,23.07,0,0,0-1.77-3.69c-3.26-.07-7.41,1.24-12.48,4a41.7,41.7,0,0,0-8.15,5.3q-1.22,1.06-2.27,6.12a33.16,33.16,0,0,0-.84,5.46c0,.5.58,1.54,1.72,3.12.59.82,1.32,1.8,2.17,3q.93-.43,8.59-4.84a38.56,38.56,0,0,1,17.19-4,10.66,10.66,0,0,1,4.05.66c.48-.22,1,.15,1.55,1.12l.67,2.92q.33,1.6.77,5.84c.08.54.45,2.39,1.11,5.57a33.56,33.56,0,0,1,.89,5.84,5.92,5.92,0,0,1-2.16,4.4,42.65,42.65,0,0,0-4.88,4.47l-4.49,5a30.67,30.67,0,0,0-3.16,3.76v.22a.21.21,0,0,1,0,.12q3.94,8.31,4.71,9.75.58,1,4,6.11C285.41,234.6,284.6,234.5,283.79,234.38Zm65.58-48.79c-3.47,1-6.62,1.85-9.41,2.46l0-.12q.27-1.94.27-2.28c0-1.14-.37-1.72-1.1-1.73l-1.95.18-2.66-.28a29,29,0,0,0-4.66.24,12.28,12.28,0,0,0-1.55.31q-2.72.1-5.21,8.67c-1.37,4.66-2.05,7.74-2.05,9.27q0,1,2.16,2.16,1.21.65,3.6,1.62a19.31,19.31,0,0,0,4.05,1.28l6,.76c.14,1.35.37,3.38.68,6.06a64.23,64.23,0,0,0,10.52-21A35.27,35.27,0,0,0,349.37,185.59ZM299.2,151.42c.71,0,2.09-1.4,4.16-4.25s3-4.35,3-4.84a25.91,25.91,0,0,0-1.89-7.92c-.36-1-.73-1.92-1.09-2.7a62,62,0,0,0-13.55,0,33.4,33.4,0,0,1-.89,4c-.55,2.2-.83,3.32-.83,3.36q0,.55,4.38,6.2Q297.26,151.37,299.2,151.42Zm26.23,10.39c0,.76.34,1.15,1,1.16s1.79-.51,3.83-1.57,3.16-1.87,3.16-2.33a23.82,23.82,0,0,0-.83-2.36c-.63-1.57-1-2.61-1.17-3.1-.48-1.23-.87-2.15-1.16-2.77a3.73,3.73,0,0,0-1.72-2.15c.07.61.2,1.37.39,2.29a17.06,17.06,0,0,1-1.72,7.22C326.62,159.44,326,160.64,325.43,161.81Zm19,8A8,8,0,0,1,347,171.3l.75.52a60.68,60.68,0,0,0-7.08-15.27,66.09,66.09,0,0,0-4.85-6.66,10.27,10.27,0,0,0-1,1.39,7.83,7.83,0,0,0-1.34,2.66l1.17,1.51A4.09,4.09,0,0,0,337.3,157a1.42,1.42,0,0,0,1.55-1.11,7.19,7.19,0,0,1,.28-1.42c.26.5.8,1.37,1.61,2.6a2.85,2.85,0,0,0-1.61.82,1.93,1.93,0,0,0-.39.57,2,2,0,0,0-.33,1q-.39,2.67-3.55,2.61a3,3,0,0,0-.61,0,.56.56,0,0,0-.33-.12c-.19,0-.59.42-1.22,1.28a14.49,14.49,0,0,1-1.33,1.69,23.9,23.9,0,0,1-2.55,1c-1.22.47-1.83.87-1.83,1.21a.79.79,0,0,0-.06.35q0,.51.39.57a15.76,15.76,0,0,1,1.77.44c.11,0,.43.13,1,.25a.75.75,0,0,1,.16.29q1.17,2.82.39,4.4l-.44.11a11.26,11.26,0,0,0-2.11.64l-2,0c-.29.22-.48,1.83-.55,4.84a3.36,3.36,0,0,0,1.05,3c.85.78,3.5.72,7.93-.17a1.63,1.63,0,0,0,.61-1.42c0-1.21-.07-2.76-.22-4.62q.61-1.14,3-1.77a22.66,22.66,0,0,1,3.27-.78q.89-.15,2.55,1.65c1.07,1.17,1.59,1.9,1.55,2.21a4.12,4.12,0,0,1-.33,1.13c-.19.38-.33.71-.45,1s-.2.49-.16.57a.53.53,0,0,0,.55.35c.15,0,.69-.69,1.61-2.08a2.78,2.78,0,0,1,.56-.67l.77-.33c.67.7,1,1,1.06.77a3.21,3.21,0,0,0,.05-.4,27.23,27.23,0,0,0-2.05-3,38.19,38.19,0,0,0-3.22-3.9l.06-.17Z"/><g class="cls-9"><g id="Layer0_5_MEMBER_3_FILL" data-name="Layer0 5 MEMBER 3 FILL"><path class="cls-10" d="M316.61,150.5a44.33,44.33,0,0,0-31.25,4.74,64.5,64.5,0,0,0-9.49,6.89q-10,8.46-15.09,17-6.46,11-5.61,21.77A42.77,42.77,0,0,0,258,212.45,95.11,95.11,0,0,0,267.21,230a67.49,67.49,0,0,0,16.57,4.43q25.38,3.83,43.23-9.78,14.94-11.32,21-31.46v-.05l.25-7a38.15,38.15,0,0,0-.35-8.16,26.06,26.06,0,0,0-4.75-10,45,45,0,0,0-11.67-11.06A43.7,43.7,0,0,0,316.61,150.5Z"/></g></g><path class="cls-11" d="M350.78,162.65a5.51,5.51,0,0,1,4.27-1.79,2.83,2.83,0,0,1,2.82,2.06,5.88,5.88,0,0,1,.34,2.17c0,2.06-.78,4.76-2.33,8.12q-.84,1.8-2.44,4.68l-.28-.29-.05.06a100.18,100.18,0,0,0-26.9-19q5.27-2.62,9.09.37a14.1,14.1,0,0,1,1.11-4.37q1.89-4.47,5.71-4.39,5.33.12,7.55,5.36a14.93,14.93,0,0,1,1.22,5.85A10.25,10.25,0,0,1,350.78,162.65Zm-88-8.94c1.66.76,2.5,1.67,2.5,2.74a14.78,14.78,0,0,1-2.39,7.77q10.59-2.4,15.31,1.3-21.75,5.8-31.34,10.17-10.42,4.78-10.42,9.53c0,.91.55,1.44,1.66,1.58q-3.83,1.74-6.37-.6-2.39-2.1-1.22-6.36a5,5,0,0,1,1.33-2.37,6.64,6.64,0,0,1,2-1.15,10.76,10.76,0,0,1-2.88-5.32c-.19-1.72-.28-2.59-.28-2.63,0-2.78.69-4.69,2.05-5.72a5.41,5.41,0,0,1,4.66-.76,8.73,8.73,0,0,1,6.16,4.59,17.92,17.92,0,0,1,1.05-1.86,32.93,32.93,0,0,1,3.72-5.29,38.51,38.51,0,0,1,2.82-2.79,16.46,16.46,0,0,1,4.77-2.7A8.89,8.89,0,0,1,262.77,153.71Zm80.46,57.41q.56,2.76-2.16,5.78-7.71-.79-20.85-10a7.66,7.66,0,0,1,5,.51,4.77,4.77,0,0,1,1.78-3.27,5.22,5.22,0,0,1,4-1.11,5.89,5.89,0,0,1,4,1.85,6.51,6.51,0,0,1,1.83,4.1,5.44,5.44,0,0,1,3-.74A3.24,3.24,0,0,1,343.23,211.12Z"/></svg>