<svg id="Calque_1" data-name="Calque 1" xmlns="http://www.w3.org/2000/svg" viewBox="0 0 400 400"><defs><style>.cls-1{fill:#f0f4fb;fill-opacity:0.5;}.cls-2{fill:#a4bded;}.cls-3{fill:#e6edff;}.cls-4{opacity:0.5;}.cls-5{fill:#738cba;}</style></defs><title>Plan de travail 14</title><g id="Layer0_11_MEMBER_0_FILL" data-name="Layer0 11 MEMBER 0 FILL"><path class="cls-1" d="M343.76,150q-2.25-3-3.52-4.43-10.74-11.92-28.75-16.81-18.18-5.1-34.46.75-16.59,5.85-27.32,15.84-10.89,9.75-15.17,25.6a54.75,54.75,0,0,0,1.5,32.2q5.86,16.37,13.52,26,8.93,11.19,31.67,15.54a69.42,69.42,0,0,0,24,.45,60.57,60.57,0,0,0,20.65-7.21,65.34,65.34,0,0,0,14.49-11.26,56.59,56.59,0,0,0,11-17.71q7.05-18.69,5.18-31.23T343.76,150Z"/></g><g id="Layer0_11_MEMBER_1_FILL" data-name="Layer0 11 MEMBER 1 FILL"><path class="cls-2" d="M327.77,141.7a39.53,39.53,0,0,0-15.38-8.41q-22.31-5.17-40.46,3.61-19.53,9.38-28.15,31.82-9.17,23.81,1.72,42.42,11.19,19.37,38.29,23.27,25.36,3.83,43.23-9.76Q342,213.31,348,193.2q5.1-17-7.28-36.64A64.31,64.31,0,0,0,327.77,141.7Z"/></g><path class="cls-3" d="M324.41,221.78a3.07,3.07,0,0,1,.56,1.89,6.85,6.85,0,0,1-.87,3q-17,11.21-40.31,7.7a66.37,66.37,0,0,1-17.18-4.72,24.27,24.27,0,0,1-.37-3.47,8.38,8.38,0,0,1,.51-3.73,3.62,3.62,0,0,1,2.7-2.29c1.05-.2,2.33.24,3.82,1.33a28.75,28.75,0,0,1,4,3.16c.44.44.84.63,1.18.56a1.75,1.75,0,0,0,.71-.56,38.79,38.79,0,0,1,13.26-10.2,44.47,44.47,0,0,1,16.26-4.28q4-.41,5.91,1.12a6.65,6.65,0,0,1,2.25,3.87,16.66,16.66,0,0,1-.31,8l.05,0a16.47,16.47,0,0,1,2.81-1.69,6,6,0,0,1,2.6-.71A2.75,2.75,0,0,1,324.41,221.78Zm-12-88.49q-22.31-5.17-40.46,3.61a52.9,52.9,0,0,0-12.79,8.59c-.15.3-.28.6-.4.88a3.61,3.61,0,0,0-.35,2.6c.44,1.16,1.66,1.7,3.67,1.64a26.47,26.47,0,0,0,9.07-2.71,49.35,49.35,0,0,1,9-3.36,46.69,46.69,0,0,0,3.82,7.7,20.38,20.38,0,0,0,5.81,6.06,18.32,18.32,0,0,0,5.2,2.45,11.15,11.15,0,0,0,5.66.66,7.8,7.8,0,0,0,5.05-3.56,14,14,0,0,0,2.19-5.87,15.4,15.4,0,0,0-.1-5.5,19.49,19.49,0,0,0,5.41,2,11.07,11.07,0,0,0,6.47-.45,9.94,9.94,0,0,0,4.13-3.17,12.72,12.72,0,0,0,2.33-4.52A38.25,38.25,0,0,0,312.39,133.29Z"/><g class="cls-4"><g id="Layer0_5_MEMBER_3_FILL" data-name="Layer0 5 MEMBER 3 FILL"><path class="cls-5" d="M316.61,150.5a44.33,44.33,0,0,0-31.25,4.74,64.5,64.5,0,0,0-9.49,6.89q-10,8.46-15.09,17-6.46,11-5.61,21.77A42.77,42.77,0,0,0,258,212.45,95.11,95.11,0,0,0,267.21,230a67.49,67.49,0,0,0,16.57,4.43q25.38,3.83,43.23-9.78,14.94-11.32,21-31.46v-.05l.25-7a38.15,38.15,0,0,0-.35-8.16,26.06,26.06,0,0,0-4.75-10,45,45,0,0,0-11.67-11.06A43.7,43.7,0,0,0,316.61,150.5Z"/></g></g></svg>