<svg id="Calque_1" data-name="Calque 1" xmlns="http://www.w3.org/2000/svg" viewBox="0 0 400 400"><defs><style>.cls-1{fill:#f0f4fb;fill-opacity:0.5;}.cls-2{fill:#9fe0ad;}.cls-3{fill:#c7eddf;}.cls-4{fill:#fff;}.cls-5{opacity:0.5;}.cls-6{fill:#7bad86;}</style></defs><title>Plan de travail 16</title><g id="Layer0_9_MEMBER_0_FILL" data-name="Layer0 9 MEMBER 0 FILL"><path class="cls-1" d="M343.76,150q-2.25-3-3.52-4.43-10.74-11.92-28.75-16.81-18.18-5.1-34.46.75-16.59,5.85-27.32,15.84-10.89,9.75-15.17,25.6a54.75,54.75,0,0,0,1.5,32.2q5.86,16.37,13.52,26,8.93,11.19,31.67,15.54a69.42,69.42,0,0,0,24,.45,60.57,60.57,0,0,0,20.65-7.21,65.34,65.34,0,0,0,14.49-11.26,56.59,56.59,0,0,0,11-17.71q7.05-18.69,5.18-31.23T343.76,150Z"/></g><g id="Layer0_9_MEMBER_1_FILL" data-name="Layer0 9 MEMBER 1 FILL"><path class="cls-2" d="M327.77,141.7a39.53,39.53,0,0,0-15.38-8.41q-22.31-5.17-40.46,3.61-19.53,9.38-28.15,31.82-9.17,23.81,1.72,42.42,11.19,19.37,38.29,23.27,25.36,3.83,43.23-9.76Q342,213.31,348,193.2q5.1-17-7.28-36.64A64.31,64.31,0,0,0,327.77,141.7Z"/></g><path class="cls-3" d="M269.6,230.89a69.64,69.64,0,0,0,14.19,3.52q25.36,3.83,43.23-9.76Q342,213.31,348,193.2a35.14,35.14,0,0,0,1.48-10.8c-.79,1.38-1.73,2.93-2.86,4.71a42.4,42.4,0,0,1-15.8,15,37.26,37.26,0,0,1-17.19,3.62A81.61,81.61,0,0,1,290.76,202Q278,198.24,270,199.25a32.67,32.67,0,0,0-14.12,5.14,43.36,43.36,0,0,0-9.12,8.8A43.19,43.19,0,0,0,261,226.82a55.74,55.74,0,0,1,4.9-3.92q8.78-6.22,23.2-3.62c-1.23.55-2.11,1-2.65,1.28Q275.14,227.27,269.6,230.89ZM293,221.12v0a1.8,1.8,0,0,1-.67.76C292.05,222.07,292.27,221.8,293,221.12Zm31.61-62.92c4.28-.1,9.11-1.48,14.47-4.09.56.8,1.11,1.62,1.65,2.45,1,1.53,1.83,3,2.64,4.55q-3.21,7.13-13,12.59a18.3,18.3,0,0,0,16.08-5.9,44.25,44.25,0,0,1,2.87,11.79q-2.73,5.67-12.32,12.82a29.07,29.07,0,0,1-23,5.51,182.37,182.37,0,0,1-24-5.4,49.52,49.52,0,0,0-22.39-1.59q-11.19,1.84-16.46,9.28c-.66-.13-.59-2.65.2-7.54a37,37,0,0,1,4.59-12.9,43.71,43.71,0,0,1,8.05-9.89,55.23,55.23,0,0,1,11.58-7.75,44.79,44.79,0,0,1,16.16-4.69,78.29,78.29,0,0,1,17.13.05A107,107,0,0,0,324.57,158.2Zm-84.15,22.28c.34-1.87.78-3.78,1.33-5.71a96.6,96.6,0,0,1,14.95-14.43,45.42,45.42,0,0,0-11.47,4.91q8.73-19.71,26.7-28.35,18.17-8.79,40.46-3.61a39.53,39.53,0,0,1,15.38,8.41,61.32,61.32,0,0,1,8.29,8.44c-.89.45-1.9,1-3.08,1.59a31.08,31.08,0,0,1-13.46,3.41q-7.47.33-20-2.24t-31.91,5.25a93.21,93.21,0,0,0-17.8,12.8A107.55,107.55,0,0,0,240.42,180.48Z"/><path class="cls-4" d="M271.93,136.9q18.17-8.79,40.46-3.61a36.79,36.79,0,0,1,11.6,5.5,14.81,14.81,0,0,1-3.35,3.3q-9,6.58-23.1,5.3a13.6,13.6,0,0,1-1,4.54,5.39,5.39,0,0,1-1.53,1.79,3.47,3.47,0,0,1-2.15.66,5.83,5.83,0,0,1-3.16-1.68,24.94,24.94,0,0,1-4.33-5.15q-1.67,2.47-3.62,5a23.28,23.28,0,0,1-4.13,4.34,6.76,6.76,0,0,1-2.75,1.32,3.12,3.12,0,0,1-2.86-.66,5.22,5.22,0,0,1-1.38-3.37,41.4,41.4,0,0,1-.2-7,80.89,80.89,0,0,1-10.6,5.2,9.59,9.59,0,0,1-2.71.66,2.66,2.66,0,0,1-3.06-2.23A52.4,52.4,0,0,1,271.93,136.9Zm54.93,82.94-8.62,4a2,2,0,0,0-1.12-1.83,3,3,0,0,0-2.34-.36,8,8,0,0,0-3.62,3.06l-3.37,4.38a17.43,17.43,0,0,0-4.43-7,10.49,10.49,0,0,0-4.85-2.81,7.78,7.78,0,0,0-3.62,0,9.15,9.15,0,0,0-3.36,1.53,11.18,11.18,0,0,0-3.93,6.17,44.24,44.24,0,0,0-9.79-2.85,6.87,6.87,0,0,0-3.87.2,4.26,4.26,0,0,0-2,2.19,14.57,14.57,0,0,0-1,3c-.13.61-.23,1.16-.31,1.65a70.61,70.61,0,0,0,13.12,3.13q25.36,3.83,43.23-9.76a54.29,54.29,0,0,0,5.86-5.14,3.54,3.54,0,0,0-2.71-.79A11.73,11.73,0,0,0,326.86,219.84Zm-58,8.82a2.64,2.64,0,0,0-1.68-2.49,4.83,4.83,0,0,0-2.14-.21,6.06,6.06,0,0,0-1.84.46,3.53,3.53,0,0,0-1.18,1,51.23,51.23,0,0,0,6.41,3.06A3.2,3.2,0,0,0,268.89,228.66Zm30-76.32a2.62,2.62,0,0,0-.61,1.78,2.77,2.77,0,0,0,.61,1.79,3.23,3.23,0,0,0,2.86,1.12,3.63,3.63,0,0,0,2-.82,2.62,2.62,0,0,0,1-1.88,2.81,2.81,0,0,0-.87-2.25,3.43,3.43,0,0,0-2.25-1A3.11,3.11,0,0,0,298.92,152.34Z"/><g class="cls-5"><g id="Layer0_5_MEMBER_3_FILL" data-name="Layer0 5 MEMBER 3 FILL"><path class="cls-6" d="M316.61,150.5a44.33,44.33,0,0,0-31.25,4.74,64.5,64.5,0,0,0-9.49,6.89q-10,8.46-15.09,17-6.46,11-5.61,21.77A42.77,42.77,0,0,0,258,212.45,95.11,95.11,0,0,0,267.21,230a67.49,67.49,0,0,0,16.57,4.43q25.38,3.83,43.23-9.78,14.94-11.32,21-31.46v-.05l.25-7a38.15,38.15,0,0,0-.35-8.16,26.06,26.06,0,0,0-4.75-10,45,45,0,0,0-11.67-11.06A43.7,43.7,0,0,0,316.61,150.5Z"/></g></g></svg>