<svg id="Calque_1" data-name="Calque 1" xmlns="http://www.w3.org/2000/svg" viewBox="0 0 400 400"><defs><style>.cls-1{fill:#f0f4fb;fill-opacity:0.5;}.cls-2{fill:#d8f5a2;}.cls-3{fill:#bdbc9b;}.cls-4{opacity:0.5;}.cls-5{fill:#b0af78;}</style></defs><title>Plan de travail 18</title><g id="Layer0_7_MEMBER_0_FILL" data-name="Layer0 7 MEMBER 0 FILL"><path class="cls-1" d="M343.76,150q-2.25-3-3.52-4.43-10.74-11.92-28.75-16.81-18.18-5.1-34.46.75-16.59,5.85-27.32,15.84-10.89,9.75-15.17,25.6a54.75,54.75,0,0,0,1.5,32.2q5.86,16.37,13.52,26,8.93,11.19,31.67,15.54a69.42,69.42,0,0,0,24,.45,60.57,60.57,0,0,0,20.65-7.21,65.34,65.34,0,0,0,14.49-11.26,56.59,56.59,0,0,0,11-17.71q7.05-18.69,5.18-31.23T343.76,150Z"/></g><g id="Layer0_7_MEMBER_1_FILL" data-name="Layer0 7 MEMBER 1 FILL"><path class="cls-2" d="M327.77,141.7a39.53,39.53,0,0,0-15.38-8.41q-22.31-5.17-40.46,3.61-19.53,9.38-28.15,31.82-9.17,23.81,1.72,42.42,11.19,19.37,38.29,23.27,25.36,3.83,43.23-9.76Q342,213.31,348,193.2q5.1-17-7.28-36.64A64.31,64.31,0,0,0,327.77,141.7Z"/></g><path class="cls-3" d="M348,193.2a63.11,63.11,0,0,1-12.38,23.38,27.68,27.68,0,0,1-8.88-.47,40.25,40.25,0,0,1-14.53-5.91q-5.61-4.12-8.47-6.17a27.72,27.72,0,0,0-9.07-4.59A18.64,18.64,0,0,0,273.89,209q-2.55,5.15-.56,9,2.55,4.74,11.26,5.05a20.43,20.43,0,0,0,8-1.12,10.67,10.67,0,0,0,3.41-2.15,8,8,0,0,0,2.09-3.41,5.92,5.92,0,0,0-.15-4l-.15-.41a2.43,2.43,0,0,0-1.68-.4A3.37,3.37,0,0,1,295,215a3.85,3.85,0,0,1-3.62,1.18,4.41,4.41,0,0,1-3-2.35,5.34,5.34,0,0,1-.56-3.87,6.4,6.4,0,0,1,2-3.32,8.38,8.38,0,0,1,3.56-1.78,9.23,9.23,0,0,1,6.48,1.12,10.06,10.06,0,0,1,4.54,4.89,12,12,0,0,1,.91,6.63,14.63,14.63,0,0,1-2.49,6.27A18.21,18.21,0,0,1,291.68,231a36.25,36.25,0,0,1-13.51.26,35.39,35.39,0,0,1-11.47-3.67,18.32,18.32,0,0,1-8.16-8.11,16.64,16.64,0,0,1-1.53-7.14,18.65,18.65,0,0,1,1.33-7.19,25.9,25.9,0,0,1,9.17-11.32,33.93,33.93,0,0,1,29.58-4.74c.61.21,2.37.87,5.3,2a33.53,33.53,0,0,0,5.4,1.63,28,28,0,0,0,11.88-.46q10.81-2.55,17.59-9.17A40.34,40.34,0,0,0,344,174q1.13-2,2.72-5.38Q351.48,181.53,348,193.2ZM259.15,157q1.38-.15,6.12-1.17a90.08,90.08,0,0,1,14.94-2.09q5.46-.31,7.75,1.53a8.91,8.91,0,0,1,2.75,5.2c.31,1.32.66,3.4,1.07,6.22a16.43,16.43,0,0,0,4.49,7.85,18.75,18.75,0,0,0,7.85,4.74,21.79,21.79,0,0,0,9.08.77,26.64,26.64,0,0,0,8.77-2.71,35.46,35.46,0,0,0,13.41-12.44,37.09,37.09,0,0,0,4.62-9.39,63.61,63.61,0,0,0-12.23-13.83,39.53,39.53,0,0,0-15.38-8.41q-22.31-5.17-40.46,3.61a52.76,52.76,0,0,0-21.33,18.54,10,10,0,0,0,2.48,1.17A14.41,14.41,0,0,0,259.15,157Z"/><g class="cls-4"><g id="Layer0_5_MEMBER_3_FILL" data-name="Layer0 5 MEMBER 3 FILL"><path class="cls-5" d="M316.61,150.5a44.33,44.33,0,0,0-31.25,4.74,64.5,64.5,0,0,0-9.49,6.89q-10,8.46-15.09,17-6.46,11-5.61,21.77A42.77,42.77,0,0,0,258,212.45,95.11,95.11,0,0,0,267.21,230a67.49,67.49,0,0,0,16.57,4.43q25.38,3.83,43.23-9.78,14.94-11.32,21-31.46v-.05l.25-7a38.15,38.15,0,0,0-.35-8.16,26.06,26.06,0,0,0-4.75-10,45,45,0,0,0-11.67-11.06A43.7,43.7,0,0,0,316.61,150.5Z"/></g></g></svg>