<svg id="Calque_1" data-name="Calque 1" xmlns="http://www.w3.org/2000/svg" viewBox="0 0 400 400"><defs><style>.cls-1{fill:#f0f4fb;fill-opacity:0.5;}.cls-2{fill:#b7c0e0;}.cls-3{fill:#b793e0;}.cls-4{opacity:0.5;}.cls-5{fill:#9c64e0;}</style></defs><title>Plan de travail 12</title><g id="Layer0_5_MEMBER_0_FILL" data-name="Layer0 5 MEMBER 0 FILL"><path class="cls-1" d="M340.24,145.6q-10.74-11.92-28.75-16.81-18.18-5.1-34.46.75-16.59,5.85-27.32,15.84-10.89,9.75-15.17,25.6a54.75,54.75,0,0,0,1.5,32.2q5.86,16.37,13.52,26,8.93,11.19,31.67,15.54a69.42,69.42,0,0,0,24,.45,60.57,60.57,0,0,0,20.65-7.21,65.34,65.34,0,0,0,14.49-11.26,56.59,56.59,0,0,0,11-17.71q7.05-18.69,5.18-31.23T343.76,150Q341.51,147,340.24,145.6Z"/></g><g id="Layer0_5_MEMBER_1_FILL" data-name="Layer0 5 MEMBER 1 FILL"><path class="cls-2" d="M340.69,156.56a64.31,64.31,0,0,0-12.92-14.86,39.53,39.53,0,0,0-15.38-8.41q-22.31-5.17-40.46,3.61-19.53,9.38-28.15,31.82-9.17,23.81,1.72,42.42,11.19,19.37,38.29,23.27,25.36,3.83,43.23-9.76Q342,213.31,348,193.2,353.07,176.24,340.69,156.56Z"/></g><path class="cls-3" d="M330.79,173.4q-32.32,7.68-91,20-1.06-11.58,4-24.73c.14-.37.3-.73.44-1.09q32.41-6,92-17.26a69.7,69.7,0,0,1,4.45,6.19A63.77,63.77,0,0,1,347,169.27Q340.41,171.1,330.79,173.4Zm-26.72,49.2-37.13,7.23a66.63,66.63,0,0,0,16.85,4.58q1.83.27,3.63.45,6-1.2,13-2.78,12.81-2.84,23.46-5.26c1.06-.68,2.1-1.4,3.11-2.17a54.45,54.45,0,0,0,8.49-8Q322,219.09,304.07,222.6Zm6.47-24.12-38.85,6.63q-15.72,2.64-26.84,4.83c.22.4.42.8.65,1.2a43.61,43.61,0,0,0,6.82,8.93q18.12-3.42,42.32-7.57,29.66-5.08,49.29-8.81a73,73,0,0,0,4-10.49c.07-.24.12-.47.18-.7Q332.87,194.62,310.54,198.48Zm14.18-11.32q14.05-2.83,24.71-5.21c0-1.23-.14-2.48-.3-3.73q-21.18,3-48.78,9-38.43,8.94-59.36,13.07c.33,1.26.7,2.51,1.15,3.73ZM261.8,156q15-2.85,67.41-13c-.47-.42-.95-.84-1.44-1.25-.79-.67-1.59-1.29-2.39-1.89l-13.92,2.64q-36.33,6.93-59.69,11.3-1.58,2.17-3,4.56Zm58-19.71a34,34,0,0,0-7.44-3q-22.31-5.17-40.46,3.61a52.9,52.9,0,0,0-13.07,8.83Q282.44,142,319.83,136.25Z"/><g class="cls-4"><g id="Layer0_5_MEMBER_3_FILL" data-name="Layer0 5 MEMBER 3 FILL"><path class="cls-5" d="M316.61,150.5a44.33,44.33,0,0,0-31.25,4.74,64.5,64.5,0,0,0-9.49,6.89q-10,8.46-15.09,17-6.46,11-5.61,21.77A42.77,42.77,0,0,0,258,212.45,95.11,95.11,0,0,0,267.21,230a67.49,67.49,0,0,0,16.57,4.43q25.38,3.83,43.23-9.78,14.94-11.32,21-31.46v-.05l.25-7a38.15,38.15,0,0,0-.35-8.16,26.06,26.06,0,0,0-4.75-10,45,45,0,0,0-11.67-11.06A43.7,43.7,0,0,0,316.61,150.5Z"/></g></g></svg>