<svg id="Calque_1" data-name="Calque 1" xmlns="http://www.w3.org/2000/svg" viewBox="0 0 400 400"><defs><style>.cls-1{fill:#f0f4fb;fill-opacity:0.5;}.cls-2{fill:#ede0c4;}.cls-3{fill:#bdb199;}.cls-4{opacity:0.5;}.cls-5{fill:#bdb29c;}</style></defs><title>Plan de travail 19</title><g id="Layer0_6_MEMBER_0_FILL" data-name="Layer0 6 MEMBER 0 FILL"><path class="cls-1" d="M343.76,150q-2.25-3-3.52-4.43-10.74-11.92-28.75-16.81-18.18-5.1-34.46.75-16.59,5.85-27.32,15.84-10.89,9.75-15.17,25.6a54.75,54.75,0,0,0,1.5,32.2q5.86,16.37,13.52,26,8.93,11.19,31.67,15.54a69.42,69.42,0,0,0,24,.45,60.57,60.57,0,0,0,20.65-7.21,65.34,65.34,0,0,0,14.49-11.26,56.59,56.59,0,0,0,11-17.71q7.05-18.69,5.18-31.23T343.76,150Z"/></g><g id="Layer0_6_MEMBER_1_FILL" data-name="Layer0 6 MEMBER 1 FILL"><path class="cls-2" d="M327.77,141.7a39.53,39.53,0,0,0-15.38-8.41q-22.31-5.17-40.46,3.61-19.53,9.38-28.15,31.82-9.17,23.81,1.72,42.42,11.19,19.37,38.29,23.27,25.36,3.83,43.23-9.76Q342,213.31,348,193.2q5.1-17-7.28-36.64A64.31,64.31,0,0,0,327.77,141.7Z"/></g><g id="Layer0_6_MEMBER_2_FILL" data-name="Layer0 6 MEMBER 2 FILL"><path class="cls-3" d="M264.15,215.41l.41.41a1.32,1.32,0,0,0,1.12.1,1.24,1.24,0,0,0,.81-.92,1.29,1.29,0,0,0-.25-1.17,1.68,1.68,0,0,0-.87-.46,1.1,1.1,0,0,0-1,.36.72.72,0,0,0-.35.61l-.06.4a1,1,0,0,0,.21.67m54.6,2.14a2.44,2.44,0,0,0-1,0,3.25,3.25,0,0,0-1.42.61,1.38,1.38,0,0,0-.46,1.38,1.26,1.26,0,0,0,.92.92,2.33,2.33,0,0,0,1.27-.06,1.92,1.92,0,0,0,1.43-1.07,1.66,1.66,0,0,0,0-1.07,1.42,1.42,0,0,0-.77-.71M329,171.31a3.2,3.2,0,0,0,.36-.57,2,2,0,0,0-.1-1.12,2.77,2.77,0,0,0-.77-.86,3.33,3.33,0,0,0-.92-.36.86.86,0,0,0-.91.36,1.24,1.24,0,0,0-.16.61l.05.71a2.34,2.34,0,0,0,.67.92,2,2,0,0,0,.81.51,1,1,0,0,0,1-.2m-70.72-12.9a2.68,2.68,0,0,0-.25.81,1.3,1.3,0,0,0,.1.92.75.75,0,0,0,1.07.36,1.78,1.78,0,0,0,1-.72,3.84,3.84,0,0,0,.87-1.32,1,1,0,0,0,.15-.77.61.61,0,0,0-.41-.51.77.77,0,0,0-.66-.1,2.43,2.43,0,0,0-1.22.66,3.42,3.42,0,0,0-.67.67M297.54,140a1.47,1.47,0,0,0-1,.25.68.68,0,0,0-.11,1,1.11,1.11,0,0,0,1,.51l.46,0h.36a.72.72,0,0,0,.66-.81.82.82,0,0,0-.66-.82,2.17,2.17,0,0,0-.77-.1m-2.75,9.48a.51.51,0,0,0,.1-.61.63.63,0,0,0-.4-.46,1.29,1.29,0,0,0-.57-.1,1.79,1.79,0,0,0-1,.46l-.15.25-.1.31a1.1,1.1,0,0,0,.31.82.68.68,0,0,0,.91.1l.36-.26c.34-.24.53-.41.56-.51M269.6,195.52a2,2,0,0,0-.76-1.48,4.35,4.35,0,0,0-1.12-.56,2.33,2.33,0,0,0-1.12-.35,1.79,1.79,0,0,0-1.48.86,4.16,4.16,0,0,0-.46,1.69,2.39,2.39,0,0,0,.87,2.09,2,2,0,0,0,.86.35,2.61,2.61,0,0,0,2.86-1,2.34,2.34,0,0,0,.35-1.58m-3.21.62a6.62,6.62,0,0,0,.92.81,1.36,1.36,0,0,1-1.33-.2q-.19-.31-.3-.51l-.1-.31a2.39,2.39,0,0,1,.25-1.17l.31-.51-.05.71a1.53,1.53,0,0,0,.3,1.18m11.52-3.42a1.64,1.64,0,0,0-.91-1.53,1.49,1.49,0,0,0-1.74.1,2.94,2.94,0,0,0-.61.61l-.41.67a2,2,0,0,0,.16,1.83,1.59,1.59,0,0,0,1.68.82,2.84,2.84,0,0,0,1.83-2.5m-2.44-.2v.2l-.1.15-.11.21-.05.15v.15l0,.21-.15-.21a.13.13,0,0,0,.15-.15v-.15l.15-.36.16-.2m56.34-40.44a4.12,4.12,0,0,0-2.15.72,3.24,3.24,0,0,0-1.32,1.73,4.91,4.91,0,0,0-.2,1.48,5.32,5.32,0,0,0,.76,2.75l.71,1a17.66,17.66,0,0,0,1.18,1.58,7,7,0,0,0,1.27,1.07c1.12.78,2.23,1.48,3.32,2.09a4.47,4.47,0,0,0,2.29.77,2.78,2.78,0,0,0,2.55-1.84,4.78,4.78,0,0,0,.2-3.26,8.6,8.6,0,0,0-1.27-3,16.92,16.92,0,0,0-2.09-2.4c-.58-.57-.94-.91-1.07-1a5.7,5.7,0,0,0-4.18-1.64m4.23,5.51-.46-.56a17.26,17.26,0,0,0-2.45-2.24,6.44,6.44,0,0,0-.92-.72l-.86-.35a2,2,0,0,1,1.53-.11,4.71,4.71,0,0,1,2.14,1.07l1.78,1.79a7.54,7.54,0,0,1,1,1.07,8.15,8.15,0,0,1,1.23,2.55,4.48,4.48,0,0,1,.15,2.14,1.87,1.87,0,0,1-1.43,1.53,1.65,1.65,0,0,0,.77-1.53,6.27,6.27,0,0,0-.57-1.68,20.25,20.25,0,0,0-1.88-3m-28.4-5.15.25.71a6.56,6.56,0,0,0,2.86,2.4,15.94,15.94,0,0,0,3.52,1.33,4.72,4.72,0,0,0,1.07.05,1.88,1.88,0,0,0,1.32-1.38,1.73,1.73,0,0,0,.16-1.07,3.51,3.51,0,0,0-.77-2.14,9.65,9.65,0,0,0-1.58-1.68l-.92-.67a4.59,4.59,0,0,0-3.06-.81,4.06,4.06,0,0,0-2.8,1.53l-.05,1.07a1.06,1.06,0,0,0,0,.66m3.16-1.89a5.1,5.1,0,0,1,3.42,1.48,6.39,6.39,0,0,1,1.22,1.53,2,2,0,0,1,0,1.89,1.89,1.89,0,0,0-.46-1.79,9.6,9.6,0,0,0-4.18-3.11m-48.49-1.47a2.54,2.54,0,0,0,2.25.76,7.52,7.52,0,0,0,2.29-.82q5.76-2.75,8.16-6.11a6.18,6.18,0,0,0,.71-1.18,1.93,1.93,0,0,0-.1-1.93,2.07,2.07,0,0,0-1.94-.62,11.62,11.62,0,0,0-5.71,1.53,16.3,16.3,0,0,0-4.69,3.67,8.62,8.62,0,0,0-1.43,2.2,2.39,2.39,0,0,0,.46,2.5m.82-1.79a4.16,4.16,0,0,1,.51-1.12,13.74,13.74,0,0,1,4.18-3.77,13.31,13.31,0,0,1,5.25-1.89,4.31,4.31,0,0,1,1.48.05,6.26,6.26,0,0,0-2.8.61,16,16,0,0,0-1.69.82,18.38,18.38,0,0,0-2.24,1.43l-1.12.81a12.34,12.34,0,0,0-2.35,2,2.42,2.42,0,0,0-.66,2.14.89.89,0,0,1-.56-1.07m18.1,10.86a1.66,1.66,0,0,0-.51-.25,2.36,2.36,0,0,0-2.24.1l-.36.35a4,4,0,0,0-.77,1l-.1.51a5.62,5.62,0,0,0-.05,1.94,2.77,2.77,0,0,0,2.24,1.89,1.44,1.44,0,0,0,.77,0l.61-.26.61-.46a4.08,4.08,0,0,0,.87-1.47l.15-.41a1.77,1.77,0,0,0-.05-1.12l-.56-1a4,4,0,0,0-.61-.77m-2.3,1.28a2,2,0,0,1,.62-.51l.76.05-1.17.91a2.07,2.07,0,0,0-.41,1.08,2.13,2.13,0,0,0-.05.76.83.83,0,0,1-.26-.61l.11-.66a1.42,1.42,0,0,1,.1-.62,1.15,1.15,0,0,1,.3-.4m11.37,69.49a5.64,5.64,0,0,0,1.33-.46,4.36,4.36,0,0,0,1.22-.76,3.09,3.09,0,0,0,1.53-2,2.1,2.1,0,0,0-1.07-2A6.63,6.63,0,0,0,291,223a19,19,0,0,0-9.69,1.64,3.34,3.34,0,0,0-1.48,1.07,1.35,1.35,0,0,0-.15,1.22,1.85,1.85,0,0,0,.66,1.12,3.4,3.4,0,0,0,1.07.56,6,6,0,0,0,1.43.46l1.78.21a24.13,24.13,0,0,0,5.71-.36m-2.95-.77a26.84,26.84,0,0,0,2.85-.56,6.51,6.51,0,0,0,2.55-1.42,3.05,3.05,0,0,0,.36-.36,2.22,2.22,0,0,1-.82,1.17,5.89,5.89,0,0,1-1.17.82,5.17,5.17,0,0,1-1.43.35,11.79,11.79,0,0,1-2.65.36l-2.65,0a23.87,23.87,0,0,0,3-.31m-42.68-38.34a2,2,0,0,0-.56,1.18,14.06,14.06,0,0,0,.66,8.36l.77,1.48a14.48,14.48,0,0,0,4,4.79c1.12.71,2.05.87,2.8.46a3,3,0,0,0,1.33-2.35c.23-2.07-.34-4.6-1.74-7.59a17,17,0,0,0-2.24-3.78,8.87,8.87,0,0,0-3.52-2.6,1.81,1.81,0,0,0-1.53.05m.05,5.36c0-.33,0-.9,0-1.74a21.57,21.57,0,0,0,1.28,4,31.72,31.72,0,0,0,3.41,6.17,15.81,15.81,0,0,1-2.24-2.6,17.39,17.39,0,0,1-1.73-2.91,11.08,11.08,0,0,1-.72-2.9m21.82-11.12a6.78,6.78,0,0,0,.11-2.6,4.84,4.84,0,0,0-5.66-3.77,5.1,5.1,0,0,0-1.89.81l-.87.67-.76.86a4.83,4.83,0,0,0-.82,1.53,7.64,7.64,0,0,0-.4,2.4,4.56,4.56,0,0,0,.71,2.29A4.91,4.91,0,0,0,259.2,188l1.23.46a4.81,4.81,0,0,0,4.28-1.23,7,7,0,0,0,.92-1.12l.41-.56a4.6,4.6,0,0,0,.5-1.48m-8.31-1.38a3.15,3.15,0,0,1,.51-1.22,5.09,5.09,0,0,0,.62,3.32,4.42,4.42,0,0,0,2.55,2.09,3.16,3.16,0,0,1-2.15-.51,2.78,2.78,0,0,1-1.58-1.58,4,4,0,0,1,.05-2.1m46.81,13h-.71a1.86,1.86,0,0,0-1.18.61,3.81,3.81,0,0,0-.76,1.12l-.21.51a2.65,2.65,0,0,0,0,1.63l.21.41a2,2,0,0,0,.76.61,2.43,2.43,0,0,0,1.33.36,1.85,1.85,0,0,0,.86-.21,1.32,1.32,0,0,0,.57-.3l.51-.61.45-.82.11-.51a3,3,0,0,0,.2-1.12l-.05-.31-.2-.41a2,2,0,0,0-.51-.51,2.73,2.73,0,0,0-.77-.35l-.61-.1m.25,3,.26-.51.05.36-.1.15-.16.46-.45.46a1.24,1.24,0,0,1-.72,0,1.15,1.15,0,0,0,.72-.41l.4-.51M286.43,204a10.66,10.66,0,0,0-.1,2,3.28,3.28,0,0,0,.81,1.88l.82.62a4.65,4.65,0,0,0,6,0,18.43,18.43,0,0,0,2.15-1.79,8.26,8.26,0,0,0,2.19-4.74l.05-1.68a7.07,7.07,0,0,0-.26-1.48,5.24,5.24,0,0,0-1-1.38,6.54,6.54,0,0,0-1.13-1.07,3.58,3.58,0,0,0-2-.56,6.2,6.2,0,0,0-4.85,2.3A9,9,0,0,0,288,199.5a10.73,10.73,0,0,0-1.58,4.54m9.07-1.63.16-.46.56-.82a5.53,5.53,0,0,0,.36-1.43,7.55,7.55,0,0,1-.46,4l-.46,1-.82,1.07-.76.72a11.81,11.81,0,0,1-1.48,1,2.9,2.9,0,0,1-1.68.46,3.75,3.75,0,0,1-2.3-.91,1.37,1.37,0,0,1-.51-.46,4.74,4.74,0,0,0-.3-1.07,3,3,0,0,0,2.6,1.17,4.75,4.75,0,0,0,2-1,12,12,0,0,0,2.4-2.24l.41-.67.3-.35m35.44-18a7.24,7.24,0,0,0-.46,3.82,5.33,5.33,0,0,0,4.08,4.44,4,4,0,0,0,1.63.05,2.46,2.46,0,0,0,1.17-.41,7.72,7.72,0,0,0,2.91-2.55,9.2,9.2,0,0,0,1.48-3.67,6.55,6.55,0,0,0-.21-3.11,8.69,8.69,0,0,0-1.68-2.34l-.76-.72a4.24,4.24,0,0,0-3.67-.36,6.3,6.3,0,0,0-1.28.46,6.65,6.65,0,0,0-1.32,1.13,9.48,9.48,0,0,0-1.89,3.26m7.6,5.1-.36.35A11.82,11.82,0,0,1,336.5,191a2.4,2.4,0,0,1-1,.15l.76-.56a10.25,10.25,0,0,0,2.35-2.5,10,10,0,0,0,.92-2.65l.1-.66q0-1,0-2.1a5.17,5.17,0,0,1,.66,1.64l.05.61-.15.71-.05.56a1.34,1.34,0,0,1-.15.61,13,13,0,0,1-.92,1.79c0,.17-.14.37-.41.61l-.15.31m-31.61-12.65a4.3,4.3,0,0,0-3.17-.1,5.16,5.16,0,0,0-2.6,1.84,7.16,7.16,0,0,0-1.32,4.38,3,3,0,0,0,.25,1.33,4.2,4.2,0,0,0,.92,1.27,6.57,6.57,0,0,0,3.26,1.89l1.28.05a5.48,5.48,0,0,0,1.22-.1,1.64,1.64,0,0,0,.92-.41,6,6,0,0,0,2.7-3.16,5.64,5.64,0,0,0,.36-1.43,4.37,4.37,0,0,0-.26-1.68l-.51-1-.81-1.12-.87-.82-1.37-.92m-.41,9-.56,0a6.2,6.2,0,0,1-2.25-.31,4.41,4.41,0,0,0,2.71-.41l1.17-.86a3.89,3.89,0,0,0,.71-1,6.9,6.9,0,0,0,.66-1.43,4.44,4.44,0,0,0,.21-1.53v-.2a5,5,0,0,1,.56,1l.1.3-.1.41-.05.51-.31.61a6.38,6.38,0,0,1-2.39,2.6Z"/></g><g class="cls-4"><g id="Layer0_6_MEMBER_3_FILL" data-name="Layer0 6 MEMBER 3 FILL"><path class="cls-5" d="M325.28,146.53c-.07,0-.14.18-.2.46a5.61,5.61,0,0,0,.76,3.82c.07,0,.14,0,.2-.15a4.51,4.51,0,0,0,.46-1.28,3.17,3.17,0,0,0,.21-1.12,2.22,2.22,0,0,0-1-1.94,2,2,0,0,0-.46.21M309,137.14h-.1a3.39,3.39,0,0,0-.56.36,1,1,0,0,0,0,.66l.1.46a2.88,2.88,0,0,0,.46,1q.51.62,1,.36a.59.59,0,0,0,.36-.31l.2-.35a2.72,2.72,0,0,0-.15-.56l-.2-.46-.41-.72a1.44,1.44,0,0,0-.72-.46m3.37,1.38a.85.85,0,0,0-.15.77,2.17,2.17,0,0,0,.2.76l.15.41a1.18,1.18,0,0,0,.56.46.7.7,0,0,0,.67,0,.82.82,0,0,0,.41-.46,2.89,2.89,0,0,0,.15-.56,1.61,1.61,0,0,0-.21-.67l-.35-.71a1,1,0,0,0-.72-.31.83.83,0,0,0-.71.36m4.54.92a.84.84,0,0,0-1-.36,1.22,1.22,0,0,0-.82.72l-.15,1.22-.25.87a1,1,0,0,0,.2.86.66.66,0,0,0,.81.21,1.47,1.47,0,0,0,.57-.61l.2-.36.25,1.58a3.21,3.21,0,0,0,.77,1.89,1.51,1.51,0,0,0,.82.25c.47,0,.93-.37,1.37-1.12a5.94,5.94,0,0,1,.41,1.48c.07.34.15.85.25,1.53a2.55,2.55,0,0,0,.57,1.17.92.92,0,0,0,1.22.31,4,4,0,0,0,.81.91c.45.21.87,0,1.28-.51a2.85,2.85,0,0,0,.15-2.34,18.36,18.36,0,0,1-.81-2.25,9.51,9.51,0,0,0-.41-1.12,1,1,0,0,0-.92-.61.64.64,0,0,0-.51.26.73.73,0,0,0-.25.51l-.16,0a11.36,11.36,0,0,0-1-3.37c-.34-.54-.71-.8-1.12-.76a1.14,1.14,0,0,0-.76.91,4.25,4.25,0,0,0-.15,1.08c.06.37,0,.62-.16.76a1.1,1.1,0,0,1-.35-.66,3.25,3.25,0,0,0-.16-.82l-.76-1.68m-65.82,28.3.61-.62a.82.82,0,0,0,.15-.76.64.64,0,0,0-.66-.51,1.67,1.67,0,0,0-1,.31c-.27.34-.48.57-.61.71a2.6,2.6,0,0,0-.41.46.45.45,0,0,0-.15.51l.25.36.36.2a1.06,1.06,0,0,0,.61-.15l.82-.51m-.06,26.1h-.15a.91.91,0,0,0-.51.31,1.17,1.17,0,0,0-.25.56,1.45,1.45,0,0,0,.3,1.22.57.57,0,0,0,.36.21h.31l.4-.21a1.19,1.19,0,0,0,.41-1.22,1.31,1.31,0,0,0-.25-.61.72.72,0,0,0-.62-.26M250,191a5.72,5.72,0,0,0,.51-1.18,1.26,1.26,0,0,0-.41-.66.76.76,0,0,0-.77,0l-.46.41a2.91,2.91,0,0,0-.76,2.29,1.85,1.85,0,0,0,.66,1.07l.87-1L250,191m0-19.07a2.61,2.61,0,0,0,.45-.56.54.54,0,0,0,0-.67.78.78,0,0,0-.66-.25l-.66.3a21.63,21.63,0,0,0-5.05,4.29,2.14,2.14,0,0,0-.56,1,1,1,0,0,0,.56,1,1.29,1.29,0,0,0,1.12,0l-1.53,2.6a2.38,2.38,0,0,0-.35.86.87.87,0,0,0,.15.87l.3.31a.43.43,0,0,1,.21.35.75.75,0,0,1-.15.46,6,6,0,0,0-.62,1.28,1.69,1.69,0,0,0,.05,1.47,1.2,1.2,0,0,0,1.38.46,7,7,0,0,0,1.38-.61,6.08,6.08,0,0,0-.56,4,1.83,1.83,0,0,0,.25.76.79.79,0,0,0,.72.41.75.75,0,0,0,.66-.46,1.91,1.91,0,0,0,.25-.81,26,26,0,0,1,1.79-5.1,3.94,3.94,0,0,0,.51-1.63,1.17,1.17,0,0,0-.92-1.33,2.33,2.33,0,0,0-.82.21,2.86,2.86,0,0,1-.81.2l2.14-2.7a1.19,1.19,0,0,0,.41-1,.66.66,0,0,0-.51-.51,1.09,1.09,0,0,0-.82.1,2,2,0,0,0-.61.51c-.24.27-.42.48-.56.61a3.5,3.5,0,0,1-1.17.82,16.51,16.51,0,0,1,3.06-3.37,5.05,5.05,0,0,0,.71-.81.71.71,0,0,0-.05-1c-.34-.34-.82-.34-1.43,0a2.6,2.6,0,0,1-1.38.56,27.48,27.48,0,0,0,3.17-2.65M260,204.5a.69.69,0,0,0-.61-.56h-.21l-.25.15-.82.81a1.33,1.33,0,0,0-.36.57v.45l.16.41a.74.74,0,0,0,.86.16,3.16,3.16,0,0,0,.67-.67,5.19,5.19,0,0,0,.46-.76l.1-.56m.25,1.73-.41.2-1,.87a2,2,0,0,0-.41.51l-.21.46a.92.92,0,0,0,.06.46l.25.1a1.7,1.7,0,0,0,.71,0,1.27,1.27,0,0,0,.67-.41l.51-.56a2.47,2.47,0,0,0,.66-.86.69.69,0,0,0-.87-.82m18.41-29.47a.67.67,0,0,0,.15.87.71.71,0,0,0,.87.1.66.66,0,0,0,.36-.31l.15-.3a.59.59,0,0,0-.26-.72.48.48,0,0,0-.4-.2.78.78,0,0,1-.36.05l-.21.1a1.16,1.16,0,0,0-.3.41m.05,5.56-.15-.31-.67-.3-.1.1a.9.9,0,0,0-.61.15,1,1,0,0,0-.41.46.51.51,0,0,0-.05.56.66.66,0,0,0,.71.46,1.61,1.61,0,0,0,.87-.26c.24-.17.38-.32.41-.45a.42.42,0,0,0,0-.41m-3.52,5a1.28,1.28,0,0,0,.82.57,1.8,1.8,0,0,0,.86-.31,6.87,6.87,0,0,0,1.48-1,1.61,1.61,0,0,0,.72-.87.71.71,0,0,0-.31-1,2.67,2.67,0,0,1-.46-.2,6.31,6.31,0,0,0-2.5,1.17,2.37,2.37,0,0,0-.61.67,1,1,0,0,0,0,1m1,3.68a1.82,1.82,0,0,0,.31-.16l-.16.16a3.23,3.23,0,0,0-.76,1.07c-.14.57,0,.95.51,1.12a3.53,3.53,0,0,1-.92,1,1.48,1.48,0,0,0-.66,1c0,.44.33.8.92,1.07l-1.13.76a4.28,4.28,0,0,0-.76.67.91.91,0,0,0-.1.91.79.79,0,0,0,.81.41,1.8,1.8,0,0,0,.87-.3,12.92,12.92,0,0,0,1.73-1.08,18.14,18.14,0,0,0,2.6-2.14,1.47,1.47,0,0,0,.62-.91.59.59,0,0,0-.11-.57.48.48,0,0,0-.46-.3,1.11,1.11,0,0,0-.61.25l-1.37.92c.51-.49,1.07-1.07,1.68-1.73a1.62,1.62,0,0,0,.51-1.07.62.62,0,0,0-.26-.51.69.69,0,0,0-.61-.21,5.39,5.39,0,0,1,.87-1.12c.41-.47.47-.88.2-1.22a.76.76,0,0,0-.81-.26,2.11,2.11,0,0,0-.77.46l-.71.56A9.72,9.72,0,0,0,279,188c.34-.51.37-.9.1-1.17a.59.59,0,0,0-.77-.16,2.07,2.07,0,0,0-.71.51L275.77,189a10.88,10.88,0,0,0-.71,1,.78.78,0,0,0,.25,1.08.72.72,0,0,0,.82,0m29.11,27.63a.78.78,0,0,0,.16-.71,1,1,0,0,0-.46-.62l-.31.16a.47.47,0,0,0-.3.51,1.21,1.21,0,0,0,.1.61l.15.15a.56.56,0,0,1,.15.41v.25l.16.16q.15,0,.15-.21L305,219l.25-.41m-4-1.12-.16-.51a1.09,1.09,0,0,0-.86-.61l-.26.1a.82.82,0,0,0-.41.25,2.39,2.39,0,0,0-.15,1.23,1,1,0,0,0,.15.61.65.65,0,0,0,.46.36l.41,0a.76.76,0,0,0,.66-.41l.16-.36,0-.3,0-.41m-4-1.28-.05.11c-.14-.11-.29,0-.46.2l-.1.2V217l.1.3c.1.07.24.17.41.31a1,1,0,0,0,.51,0l.2-.15.05-.31a.85.85,0,0,0-.66-.87m-2.4,1.53a.49.49,0,0,0,.41-.35l-.15-.41-.21-.31a.56.56,0,0,0-.41-.15h-.1l-.2.1-.1.26a1,1,0,0,1,.2.61.78.78,0,0,0,.56.25m-5-2-.25.56a1.52,1.52,0,0,0-.1.77,1.66,1.66,0,0,0,.41,1.07,1.71,1.71,0,0,0,1.22.56,1,1,0,0,0,.61-.31.86.86,0,0,0,.15-.66c-.23-.41-.4-.71-.51-.92l-.1-.61a.92.92,0,0,0-.86-.71v.1q-.25-.15-.57.15m-2.39-.91-.46.4a2.32,2.32,0,0,0-.46,1.18l-.05.81a2,2,0,0,0,.2,1,1,1,0,0,0,.56.46q.68.36,1,0c.21-.17.28-.53.21-1.07a9.14,9.14,0,0,1,0-1.48,1.4,1.4,0,0,0,0-.76.61.61,0,0,0-.41-.62c-.14-.1-.34-.08-.61.06m-3.11-.72-.31.46a5,5,0,0,0-.51,1.89,2.34,2.34,0,0,0,.16,1c.2.4.47.56.81.46.17,0,.36-.14.56-.41l.72-2.81a1.16,1.16,0,0,0-.06-.76.49.49,0,0,0-.51-.46,1.1,1.1,0,0,0-.86.61m-1.68-2.85a2,2,0,0,0-.57.66,7.64,7.64,0,0,0-.86,3.21,1.54,1.54,0,0,0,.56,1.58.67.67,0,0,0,.71.1c.34-.1.55-.4.61-.91a5.9,5.9,0,0,0,.06-1.18,8.72,8.72,0,0,1,.35-1.37,4.31,4.31,0,0,0,.31-1.38.79.79,0,0,0-.36-.76c-.2-.17-.47-.16-.81,0m0-1.94a.79.79,0,0,0-.72-.71,1.48,1.48,0,0,0-.81.4,5.52,5.52,0,0,0-1.64,3.78,1.89,1.89,0,0,0,.36,1.27.88.88,0,0,0,1.17.41,4.4,4.4,0,0,0,.46-1.28,10.12,10.12,0,0,1,.41-1.93,4.57,4.57,0,0,1,.51-.92,2,2,0,0,0,.26-1m-4-10.45c.34-.24.53-.41.56-.51a.61.61,0,0,0,.1-.36.49.49,0,0,0-.2-.31.92.92,0,0,0-.46-.1,8.35,8.35,0,0,0-3.83,2l-1.53,1.33a17.09,17.09,0,0,0-2.34,2.29,2.47,2.47,0,0,0-.61,1.38,1.06,1.06,0,0,0,.25.71.9.9,0,0,0,.61.41,1.6,1.6,0,0,0,.87-.25l1.58-.82a5.91,5.91,0,0,0-.66,1.58,1.4,1.4,0,0,0,.61,1.48,1.87,1.87,0,0,0,1.89-.15,2.45,2.45,0,0,0-.46,1,1.12,1.12,0,0,0,.15,1.12,1.21,1.21,0,0,0,1.07.46,2.52,2.52,0,0,0,1.17-.41,5.08,5.08,0,0,0-.56,1.73,1.56,1.56,0,0,0,.36.82.94.94,0,0,0,.82.3,1,1,0,0,0,.76-.61,4,4,0,0,0,.41-.92,7.7,7.7,0,0,1,1.17-2.14l.82-1.12a4.87,4.87,0,0,0,.51-1.32c-.14-.51-.34-.82-.61-.92a1.34,1.34,0,0,0-1,.15,4,4,0,0,1-1,.51l1.58-1.89a2.15,2.15,0,0,0,.51-1,.7.7,0,0,0-.16-.67,1,1,0,0,0-.56-.41,2,2,0,0,0-1.53.51l-2.34,1.64,2.24-2.15a3.07,3.07,0,0,0,.61-.76.89.89,0,0,0,0-.92,1.06,1.06,0,0,0-1.07-.3l-1,.51L274.86,202a27.22,27.22,0,0,1,3.77-3.16m26.31-33-.21.05c-.17,0-.32.14-.46.41a1.84,1.84,0,0,0-.3.92.61.61,0,0,0,.41.76.58.58,0,0,0,.66-.1,1.37,1.37,0,0,0,.46-.51,1.14,1.14,0,0,0,.1-.92c-.14-.41-.36-.61-.66-.61m1.32,3.06.1.41a1,1,0,0,0,.51.46.57.57,0,0,0,.41-.11,1.25,1.25,0,0,0,.67-.76,4.35,4.35,0,0,0,.1-1l-.16-.46a.69.69,0,0,0-.4-.25.94.94,0,0,0-.77.61l-.25.61-.21.51m4.64-1a.6.6,0,0,0-.56-.2c-.2,0-.42.23-.66.61l-.87,1.22a3,3,0,0,0-.3.66l.15,1c.07-.06.27-.06.61,0a1,1,0,0,0,.87-.35,4,4,0,0,0,.51-.82l.15-.41a2.09,2.09,0,0,0,.36-1.17,1.25,1.25,0,0,0-.26-.56m.72,4.13c.37-.65.57-1,.61-1.12a1.6,1.6,0,0,0,.25-.87.62.62,0,0,0-1.07-.46,1.69,1.69,0,0,0-.35.46l-.92,1.12a1.55,1.55,0,0,0-.51.87.58.58,0,0,0,.15.51.63.63,0,0,0,.41.31.8.8,0,0,0,.81-.16l.62-.66m2.44-.2a2.06,2.06,0,0,0-.1-.87.66.66,0,0,0-.61-.51,1.67,1.67,0,0,0-.61.31,3,3,0,0,0-.56,1.32,9.59,9.59,0,0,1-.61,1.63,3.45,3.45,0,0,0-.36.92,1.06,1.06,0,0,0,.25,1,.87.87,0,0,0,1.12,0,3.24,3.24,0,0,0,.77-1,10.43,10.43,0,0,0,.71-2.75m1.74-1.07a.69.69,0,0,0-.77-.21c-.2.07-.34.29-.41.66L313.15,176a6.64,6.64,0,0,0-.36,1.63c-.07.64.1,1.05.51,1.22s.73.1,1.07-.3a4.57,4.57,0,0,0,.51-1.13l.76-2.95a8.9,8.9,0,0,0,.41-2.91,2.58,2.58,0,0,0-.25-.76m14,18.76a1.06,1.06,0,0,0-1.38.25,4,4,0,0,0-.81,1.23,17.29,17.29,0,0,1-3.68,4.89c2-3.36,3.1-6.29,3.17-8.77a2,2,0,0,0-.51-1.68,1.26,1.26,0,0,0-1.58.1,2.62,2.62,0,0,0-1,1.33,9,9,0,0,0-.62,1.68c-.15-.12-.37,0-.66.25a31.76,31.76,0,0,1,2.09-4.53,2.85,2.85,0,0,0,.36-1,1,1,0,0,0-1.58-1,1.85,1.85,0,0,0-.56.66,3.33,3.33,0,0,1-.61.77c.4-1.26.86-2.48,1.37-3.67a4.78,4.78,0,0,0,.41-1.64,1.37,1.37,0,0,0-.31-.76.9.9,0,0,0-.71-.36q-.66,0-1.32,1l-2.2,3.42a22.34,22.34,0,0,1,1.12-3.67,22.6,22.6,0,0,0,1.08-3.67,1.49,1.49,0,0,0-.26-1.43.91.91,0,0,0-1.12,0,2.12,2.12,0,0,0-.87.81c-.1.14-.47.75-1.12,1.84l-1.58,2.8.56-1.63c.75-2.17.88-3.84.41-5-.07-.34-.22-.53-.46-.57s-.41.09-.61.36c0,0-.05.27-.16.71a13.44,13.44,0,0,1-.76,3.22c-.54,1.73-.87,2.8-1,3.21-.24.81-.12,1.34.36,1.58a.74.74,0,0,0,.66-.05l-.1.2a26.76,26.76,0,0,0-1.89,4.23,1.29,1.29,0,0,0,.05.87q.31.51,1,.15L316,185a21.73,21.73,0,0,0-1.43,3.72,2.47,2.47,0,0,0-.05,1.28,1.07,1.07,0,0,0,1.12.71,1.46,1.46,0,0,0,1.18-.51,8.17,8.17,0,0,0-1.48,1.94,1.6,1.6,0,0,0-.15,1.22,1.13,1.13,0,0,0,.71.87c.51.2,1.05,0,1.63-.56a18.34,18.34,0,0,1,1.28-1.33,13.82,13.82,0,0,1-1.28,2.45c-.44.85-.56,1.44-.36,1.78a1,1,0,0,0,1.28.36,2.6,2.6,0,0,0,1.12-.87,16.67,16.67,0,0,0,3.72-6.12c0,.27,0,.52,0,.77a9.43,9.43,0,0,1,1.94-2.45,16.8,16.8,0,0,1-2.45,6.63q-2.65,3.93-3.87,6-.77,1.32-.21,2c.31.4.8.47,1.48.2a3.72,3.72,0,0,0,1.17-1.07,6.77,6.77,0,0,1-.81,1.63,2.16,2.16,0,0,0-.46,1.58,1.21,1.21,0,0,0,1.07.87,1.15,1.15,0,0,0,1-.36,4.08,4.08,0,0,0-.51.92,1,1,0,0,0,.26,1.27c.27.24.81.29,1.63.16a3.39,3.39,0,0,0-1,1.42,1.69,1.69,0,0,0,.05.92,1.08,1.08,0,0,0,.61.56,1.48,1.48,0,0,0,1.33-.3c.71-.48,1.13-.75,1.27-.82a3.39,3.39,0,0,1-.41.92c-.27.37-.47.64-.61.81a1.78,1.78,0,0,0-.2,1,1,1,0,0,0,.35.82,1.27,1.27,0,0,0,1.38,0,3.85,3.85,0,0,0-.87,1.38,1.4,1.4,0,0,0,.26,1.58,1.06,1.06,0,0,0,.81.2.7.7,0,0,0,.62-.41c.06.78.34,1.24.81,1.38s.9-.17,1.48-.82c2.11-2.72,3.47-4.53,4.08-5.45a7.48,7.48,0,0,0,1.53-3.42.9.9,0,0,0-.15-.61q-.47-.3-.87.36c-.24.44-.46.69-.66.76a4,4,0,0,0,.81-1.17c.14-.61,0-1-.41-1.22a1.07,1.07,0,0,0-1.32.25l-.92,1.22a9.28,9.28,0,0,0,.92-2.24,1.74,1.74,0,0,0,.05-1.07.77.77,0,0,0-.51-.51.88.88,0,0,0-.71,0,4.67,4.67,0,0,0,.61-1.27c.07-.62-.16-1-.67-1.08a1,1,0,0,0-.86.41,7.81,7.81,0,0,1-.72.92l1.69-2.85a1.65,1.65,0,0,0,.3-1.13.81.81,0,0,0-.51-.51,1.4,1.4,0,0,0-.81,0,2.82,2.82,0,0,0-1.12,1.13,3.67,3.67,0,0,1-1.08,1.17l1.74-2.3a2.65,2.65,0,0,0,.61-1.07,1,1,0,0,0-.31-1.12c-.47-.34-1.08-.2-1.83.41a26.42,26.42,0,0,0,1.78-4.79C330.45,190.58,330.36,189.9,329.82,189.56Z"/></g></g><g class="cls-4"><g id="Layer0_5_MEMBER_3_FILL" data-name="Layer0 5 MEMBER 3 FILL"><path class="cls-5" d="M316.61,150.5a44.33,44.33,0,0,0-31.25,4.74,64.5,64.5,0,0,0-9.49,6.89q-10,8.46-15.09,17-6.46,11-5.61,21.77A42.77,42.77,0,0,0,258,212.45,95.11,95.11,0,0,0,267.21,230a67.49,67.49,0,0,0,16.57,4.43q25.38,3.83,43.23-9.78,14.94-11.32,21-31.46v-.05l.25-7a38.15,38.15,0,0,0-.35-8.16,26.06,26.06,0,0,0-4.75-10,45,45,0,0,0-11.67-11.06A43.7,43.7,0,0,0,316.61,150.5Z"/></g></g></svg>