<svg id="Calque_1" data-name="Calque 1" xmlns="http://www.w3.org/2000/svg" viewBox="0 0 400 400"><defs><style>.cls-1,.cls-9{opacity:0.5;}.cls-2,.cls-5{fill:#f0f4fb;}.cls-3{fill:#c4edff;}.cls-4{fill:#81b5cc;}.cls-5{fill-opacity:0.5;}.cls-6{fill:#cc5c8d;}.cls-7{fill:#e8a0bf;}.cls-8{fill:#a84c74;}.cls-9{fill:#e86da2;}.cls-10{fill:#b952cc;}.cls-11{fill:#ffe4c9;}.cls-12{fill:#d6b089;}</style></defs><title>Plan de travail 13</title><g class="cls-1"><g id="Layer0_12_MEMBER_6_FILL" data-name="Layer0 12 MEMBER 6 FILL"><path class="cls-2" d="M252.4,161.29a14.94,14.94,0,0,0-2.06-2.63q-5.09-5.55-10.47-6.2a18,18,0,0,0-5.79.45,19.62,19.62,0,0,0-6.12,2.22,20.43,20.43,0,0,0-4.81,4.27,18.55,18.55,0,0,0-3.53,5.79,12.33,12.33,0,0,0-.25,6.9,12.47,12.47,0,0,0,3.41,6q3.58,3.41,11.18,4.72a22.86,22.86,0,0,0,4.88.45,12.54,12.54,0,0,0,5-1.31,14,14,0,0,0,4.07-3.08,20.41,20.41,0,0,0,2.63-3.82,21.91,21.91,0,0,0,2.75-6.74A10.09,10.09,0,0,0,252.4,161.29Z"/></g></g><g id="Layer0_12_MEMBER_1_FILL" data-name="Layer0 12 MEMBER 1 FILL"><path class="cls-3" d="M243.29,159.41a8.67,8.67,0,0,0-3.39-1.86,13.1,13.1,0,0,0-8.91.8,12.29,12.29,0,0,0-6.21,7q-2,5.25.38,9.35c1.64,2.85,4.46,4.55,8.44,5.13a12.15,12.15,0,0,0,9.53-2.15,13.16,13.16,0,0,0,4.61-6.93q1.13-3.75-1.6-8.08A14.15,14.15,0,0,0,243.29,159.41Z"/></g><g class="cls-1"><g id="Layer0_5_MEMBER_3_FILL" data-name="Layer0 5 MEMBER 3 FILL"><path class="cls-4" d="M240.83,161.35a9.67,9.67,0,0,0-6.88,1,13.92,13.92,0,0,0-2.09,1.52,15.38,15.38,0,0,0-3.33,3.74,8.16,8.16,0,0,0-1.24,4.8,9.36,9.36,0,0,0,.63,2.55,20.45,20.45,0,0,0,2,3.86,14.43,14.43,0,0,0,3.65,1,12.11,12.11,0,0,0,9.53-2.16,13.08,13.08,0,0,0,4.61-6.93h0l.06-1.55a8.59,8.59,0,0,0-.08-1.8,5.7,5.7,0,0,0-1-2.21,10.16,10.16,0,0,0-2.58-2.44A9.62,9.62,0,0,0,240.83,161.35Z"/></g></g><g id="Layer0_12_MEMBER_0_FILL" data-name="Layer0 12 MEMBER 0 FILL"><path class="cls-5" d="M343.76,150q-2.25-3-3.52-4.43-10.74-11.92-28.75-16.81-18.18-5.1-34.46.75-16.59,5.85-27.32,15.84-10.89,9.75-15.17,25.6a54.75,54.75,0,0,0,1.5,32.2q5.86,16.37,13.52,26,8.93,11.19,31.67,15.54a69.42,69.42,0,0,0,24,.45,60.57,60.57,0,0,0,20.65-7.21,65.34,65.34,0,0,0,14.49-11.26,56.59,56.59,0,0,0,11-17.71q7.05-18.69,5.18-31.23T343.76,150Z"/></g><g id="Layer0_12_MEMBER_1_FILL-2" data-name="Layer0 12 MEMBER 1 FILL"><path class="cls-6" d="M327.77,141.7a39.53,39.53,0,0,0-15.38-8.41q-22.31-5.17-40.46,3.61-19.53,9.38-28.15,31.82-9.17,23.81,1.72,42.42,11.19,19.37,38.29,23.27,25.36,3.83,43.23-9.76Q342,213.31,348,193.2q5.1-17-7.28-36.64A64.31,64.31,0,0,0,327.77,141.7Z"/></g><path class="cls-7" d="M320.86,228.67a50.33,50.33,0,0,1-11.63,4.72,356.81,356.81,0,0,1-57.42-31.09c-4.73-3.14-8.71-6-12-8.51a45.33,45.33,0,0,1-.09-7.74q19.17,11.88,35,20.54a442.58,442.58,0,0,0,45.58,21.87ZM242,203.43c2.19,1.86,4.63,3.87,7.36,6.06A298.57,298.57,0,0,0,279.8,231c2.21,1.33,4.4,2.58,6.59,3.79a70.15,70.15,0,0,0,8.81.48A343.77,343.77,0,0,1,240.26,197,41.19,41.19,0,0,0,242,203.43ZM348,193.2c.29-1,.53-2,.73-3a355.58,355.58,0,0,1-44.12-23q-16.53-10-39.81-26.25-14,9.6-21,27.69a67.85,67.85,0,0,0-2.76,8.85c.72.37,1.45.75,2.22,1.13a398.4,398.4,0,0,0,51.91,21.46q11.67,3.93,36.15,10.86c2.61.74,5,1.39,7.13,2A65.54,65.54,0,0,0,348,193.2Zm-63.17-52a104.11,104.11,0,0,0,8.87,6.12q26.86,16.92,54.11,24.57a57.37,57.37,0,0,0-5-11.78c-1.1-.37-2.2-.76-3.31-1.16Q328.69,155,311.87,147q-10.5-5-18-9.18a70.72,70.72,0,0,1-8.32-5.42,54.57,54.57,0,0,0-7.79,2.1A49.3,49.3,0,0,0,284.8,141.17Z"/><g class="cls-1"><g id="Layer0_5_MEMBER_3_FILL-2" data-name="Layer0 5 MEMBER 3 FILL"><path class="cls-8" d="M316.61,150.5a44.33,44.33,0,0,0-31.25,4.74,64.5,64.5,0,0,0-9.49,6.89q-10,8.46-15.09,17-6.46,11-5.61,21.77A42.77,42.77,0,0,0,258,212.45,95.11,95.11,0,0,0,267.21,230a67.49,67.49,0,0,0,16.57,4.43q25.38,3.83,43.23-9.78,14.94-11.32,21-31.46v-.05l.25-7a38.15,38.15,0,0,0-.35-8.16,26.06,26.06,0,0,0-4.75-10,45,45,0,0,0-11.67-11.06A43.7,43.7,0,0,0,316.61,150.5Z"/></g></g><path class="cls-9" d="M353.37,213.88a63.27,63.27,0,0,0-9.54-10,62,62,0,0,1-3.23,5.84,58.66,58.66,0,0,1,6.45,7.15c1.06,1.67,1.36,2.89.92,3.67s-1.57,1.29-3.47,1.48c-1.36.12-5-.94-11-3.19-2.37-.89-5.09-2-8.19-3.24Q309,209,270.73,180.23q-15.08-11.32-23.65-18.83Q233.85,149.82,236,147.29q3.48-4.17,16.52,2.91l1.46.78c.88-1.08,1.8-2.12,2.76-3.11-3.21-1.94-6.12-3.53-8.7-4.76a36.89,36.89,0,0,0-12.39-3.31q-4.08-.31-5.51,1.58-1.83,2.44-.31,7.49t8.82,13.31c1.46,1.63,3.31,3.51,5.56,5.6q8,7.42,22.59,18.67,20.83,16.06,36.3,25a181.38,181.38,0,0,0,25.09,12.33c1.06.42,2.12.81,3.16,1.18q12.81,4.55,18.05,4.44t6.57-1.84a8.53,8.53,0,0,0,1.43-4.89Q357.53,219.49,353.37,213.88Z"/><g id="Layer0_12_MEMBER_3_MEMBER_0_FILL" data-name="Layer0 12 MEMBER 3 MEMBER 0 FILL"><path class="cls-10" d="M359.29,225.45a1.42,1.42,0,0,0-.67-1.43,1.59,1.59,0,0,0-.86-.25,1.65,1.65,0,0,0-1.53.71,1.8,1.8,0,0,0-.15,1.33,2,2,0,0,0,.71.81,1.83,1.83,0,0,0,1.58.11,1.68,1.68,0,0,0,.92-1.28M246.41,171.71l-.11.36a1.23,1.23,0,0,0,.77,1.38,1.34,1.34,0,0,0,1.58-.26,1.71,1.71,0,0,0,.41-1.07,1.18,1.18,0,0,0-.51-1,1.21,1.21,0,0,0-1.74.05,1.16,1.16,0,0,0-.4.56m22.28,4.69a1.07,1.07,0,0,0-1.18.67l-.15.51c.1.44.15.68.15.71a1.1,1.1,0,0,0,.62.56,1.14,1.14,0,0,0,.81.1,1.77,1.77,0,0,0,.66-.35,1.2,1.2,0,0,0,.26-1.43,1.24,1.24,0,0,0-1.22-.82l.05.05m2.29,5.71-.05-.4a1.37,1.37,0,0,0-.77-.46s0,.05-.05.05a1.34,1.34,0,0,0-.56.25l-.2.56c.07,0,.1.14.1.31l.1.2a.88.88,0,0,0,1,.16l.26-.16a2,2,0,0,0,.15-.51m-2.29,9.9a1.13,1.13,0,0,0-.11.66.79.79,0,0,0,.87.61h.26l.25-.15.26-.36a.78.78,0,0,0,0-.61l-.21-.51a2.75,2.75,0,0,1-.56-.26l-.2.05c-.27,0-.48.19-.61.57m24.37-.26a1,1,0,0,0,.71.31.87.87,0,0,0,.92-.46.85.85,0,0,0,.05-1.07.88.88,0,0,0-.87-.56l-.15.05a.57.57,0,0,0-.66.25.9.9,0,0,0-.26.66,1.12,1.12,0,0,0,.26.82m34.57,34.36a.94.94,0,0,0-.82.36,1.53,1.53,0,0,0,.66,2.55,1.15,1.15,0,0,0,1.38-.46,1.8,1.8,0,0,0,.41-1,3.21,3.21,0,0,0-.46-1.12,1.86,1.86,0,0,0-1-.41s0,0,0,.1h-.1m12.79-7a.78.78,0,0,0,.56.25.91.91,0,0,0,1-.4,1,1,0,0,0,.05-1.13.88.88,0,0,0-.86-.56l-.1,0a.65.65,0,0,0-.72.26,1.2,1.2,0,0,0-.25.71,1.13,1.13,0,0,0,.3.82M346,233a.79.79,0,0,0-.2-1.07,1.35,1.35,0,0,0-.67-.31v.1a.61.61,0,0,0-.76.36.75.75,0,0,0-.15.71,1,1,0,0,0,.81.72.83.83,0,0,0,1-.51m6.68-22.59a1.23,1.23,0,0,0,.61.51l.41.1.36-.05a1.12,1.12,0,0,0,.71-1.27,1,1,0,0,0-1.07-.92.12.12,0,0,1-.2,0,.9.9,0,0,0-.62.3l-.25.31-.05.46a1.25,1.25,0,0,0,.1.56M239.57,136.64a.86.86,0,0,0,.16.61l.25.2.31.15h.25a1,1,0,0,0,.56-.3,1.17,1.17,0,0,0,.21-.66.9.9,0,0,0-.31-.57.78.78,0,0,0-.56-.25q0,.15-.15,0a1,1,0,0,0-.46.2l-.15.21a.57.57,0,0,0-.11.41M238.2,150.1a1.13,1.13,0,0,0,.35,1,1,1,0,0,0,1.33.11,1.15,1.15,0,0,0,.46-1.23,1,1,0,0,0-1.07-.86v.1c-.38-.1-.7.08-1,.56l-.1.36m-10.3,4.38a.8.8,0,0,0,1.12.31,1.16,1.16,0,0,0,.71-1.18.9.9,0,0,0-.2-.66,1.5,1.5,0,0,0-.77-.36c0,.07-.06.11-.2.11a.92.92,0,0,0-.66.45,1.37,1.37,0,0,0-.21.82A1,1,0,0,0,227.9,154.48Z"/></g><g class="cls-1"><g id="Layer0_12_MEMBER_5_FILL" data-name="Layer0 12 MEMBER 5 FILL"><path class="cls-2" d="M368.11,152.44a17.94,17.94,0,0,0-5.41-3.77,29.77,29.77,0,0,0-12.95-2.3,23.7,23.7,0,0,0-10.35,2.14,24.77,24.77,0,0,0-5.1,3.78c-3.7,3.46-6.1,7-7.18,10.5a25.27,25.27,0,0,0-.92,4.44q-.76,6.17.92,9.94a19.05,19.05,0,0,0,5.25,6.37,29.15,29.15,0,0,0,7.24,4.79,21.92,21.92,0,0,0,14,1.23A25.77,25.77,0,0,0,366,182.73q6.12-6,6.68-12.85a45.18,45.18,0,0,0-.16-6.12,35.09,35.09,0,0,0-1-5.76A14.47,14.47,0,0,0,368.11,152.44Z"/></g></g><g id="Layer0_12_MEMBER_1_FILL-3" data-name="Layer0 12 MEMBER 1 FILL"><path class="cls-11" d="M360.46,154.33a13.24,13.24,0,0,0-5.16-2.82,19.89,19.89,0,0,0-13.56,1.21,18.67,18.67,0,0,0-9.43,10.66q-3.07,8,.58,14.22,3.74,6.48,12.83,7.79,8.49,1.29,14.49-3.27a19.93,19.93,0,0,0,7-10.54q1.71-5.69-2.44-12.27A21.36,21.36,0,0,0,360.46,154.33Z"/></g><g class="cls-1"><g id="Layer0_5_MEMBER_3_FILL-3" data-name="Layer0 5 MEMBER 3 FILL"><path class="cls-12" d="M356.72,157.28a14.87,14.87,0,0,0-10.48,1.59,21.87,21.87,0,0,0-3.18,2.3,23.51,23.51,0,0,0-5.05,5.69,12.22,12.22,0,0,0-1.88,7.3,14.44,14.44,0,0,0,.95,3.88,31.94,31.94,0,0,0,3.08,5.87,22.52,22.52,0,0,0,5.55,1.49q8.52,1.28,14.49-3.28a19.89,19.89,0,0,0,7-10.54v0l.09-2.36a12.15,12.15,0,0,0-.12-2.73,8.74,8.74,0,0,0-1.59-3.37,15.19,15.19,0,0,0-3.91-3.71A14.6,14.6,0,0,0,356.72,157.28Z"/></g></g></svg>