<svg id="Calque_1" data-name="Calque 1" xmlns="http://www.w3.org/2000/svg" viewBox="0 0 400 400"><defs><style>.cls-1{fill:#f0f4fb;fill-opacity:0.5;}.cls-2{fill:#e07569;}.cls-3{fill:#eb9c7d;}.cls-4,.cls-6{opacity:0.5;}.cls-5{fill:#ba6157;}.cls-6{fill:#f2b5ae;}.cls-7{fill:#f0bc64;}</style></defs><title>Plan de travail 15</title><g id="Layer0_10_MEMBER_0_FILL" data-name="Layer0 10 MEMBER 0 FILL"><path class="cls-1" d="M343.76,150q-2.25-3-3.53-4.43-10.73-11.92-28.75-16.81-18.17-5.1-34.45.75-16.59,5.85-27.33,15.84-10.87,9.75-15.16,25.6a54.75,54.75,0,0,0,1.5,32.2q5.86,16.37,13.51,26,8.94,11.19,31.68,15.54a69.42,69.42,0,0,0,24,.45,60.57,60.57,0,0,0,20.65-7.21,65,65,0,0,0,14.48-11.26,56.44,56.44,0,0,0,11-17.71q7.05-18.69,5.18-31.23T343.76,150Z"/></g><g id="Layer0_10_MEMBER_1_FILL" data-name="Layer0 10 MEMBER 1 FILL"><path class="cls-2" d="M327.77,141.7a39.49,39.49,0,0,0-15.39-8.41q-22.29-5.17-40.46,3.61-19.51,9.38-28.15,31.82-9.15,23.81,1.73,42.42,11.19,19.37,38.28,23.27,25.38,3.83,43.24-9.76Q342,213.31,348,193.2q5.1-17-7.29-36.64A64,64,0,0,0,327.77,141.7Z"/></g><path class="cls-3" d="M327,224.65q-15,11.44-35.42,10.51c1.18-.67,3-1.59,5.43-2.77a109.3,109.3,0,0,0,18-11A123.29,123.29,0,0,0,334.91,202q6.39-7.65,14.54-19.52A35.6,35.6,0,0,1,348,193.2Q342,213.32,327,224.65Zm-54-67.42a182.51,182.51,0,0,0,34.26-24.94q-19.29-3.15-35.36,4.61-19.51,9.38-28.15,31.82c-.27.71-.51,1.4-.75,2.1A182.61,182.61,0,0,0,273,157.23Zm3.47,73.07q28.8-12.65,57.1-38.6a108.37,108.37,0,0,0,12-12.59c1.09-1.41,2.08-2.81,3-4.22a57.33,57.33,0,0,0-7.87-18.33q-1.4-2.19-2.91-4.22a172.1,172.1,0,0,1-17,20,149,149,0,0,1-35.74,25.4,242,242,0,0,1-38.3,15.43q8.75,13.47,25.89,18.77C273.89,231.43,275.17,230.88,276.49,230.3ZM282.55,162q-16.8,10.14-42.29,19.5a44.61,44.61,0,0,0,1.24,20.6,52.46,52.46,0,0,0,5.21-1.45q32.11-10.25,57.31-26.56a103,103,0,0,0,19.12-15.4,54.38,54.38,0,0,0,9.13-12.77,59.2,59.2,0,0,0-4.5-4.19,41.89,41.89,0,0,0-12.24-7.39Q302.67,149.83,282.55,162Z"/><g class="cls-4"><g id="Layer0_5_MEMBER_3_FILL" data-name="Layer0 5 MEMBER 3 FILL"><path class="cls-5" d="M316.61,150.5a44.33,44.33,0,0,0-31.25,4.74,64.5,64.5,0,0,0-9.49,6.89q-10,8.46-15.09,17-6.46,11-5.61,21.77A42.77,42.77,0,0,0,258,212.45,95.11,95.11,0,0,0,267.21,230a67.49,67.49,0,0,0,16.57,4.43q25.38,3.83,43.23-9.78,14.94-11.32,21-31.46v-.05l.25-7a38.15,38.15,0,0,0-.35-8.16,26.06,26.06,0,0,0-4.75-10,45,45,0,0,0-11.67-11.06A43.7,43.7,0,0,0,316.61,150.5Z"/></g></g><path class="cls-6" d="M366.27,132.3q-2.65-3.21-8.41-1.94a146.42,146.42,0,0,0-15.3,4.8c-4.88,1.78-9.93,3.88-15.14,6.26.12.1.24.18.35.28a60.53,60.53,0,0,1,5.51,5.25c3.08-1.53,5.69-2.69,7.8-3.48,5.48-2.05,9.68-3.18,12.6-3.42s3.23,1.81,1,6q-2.07,3.83-12.28,13.31-6.62,6.13-16.63,14.63-11.52,8-26.92,17.43-29.64,18.08-49.34,25.46c-2.61,1-5.11,1.84-7.46,2.54s-4.82,1.41-7.29,2q-13.26.25-3.11-9.68c3.78-3.67,7.12-6.73,10-9.22a41.31,41.31,0,0,1-1.73-7.86c-2.15,1.53-4.17,3-6,4.48a82.6,82.6,0,0,0-9.94,8.88,38.1,38.1,0,0,0-7.24,11q-2.7,6.63.15,10.4c.09.11.17.21.26.3q10,6.44,40.1-5.42,4.08-1.6,8.54-3.55Q303.1,204.53,321.71,191t23.55-19.43l1.76-2.13q4.47-5.47,10.69-13.27,7.55-9.39,9-15.45C367.75,136.72,367.59,133.9,366.27,132.3Z"/><g id="Layer0_10_MEMBER_2_MEMBER_0_FILL" data-name="Layer0 10 MEMBER 2 MEMBER 0 FILL"><path class="cls-7" d="M269.91,208a.93.93,0,0,0-.77-.4.75.75,0,0,0-.71.15l-.41.36-.2.2-.05.51.1.41a1,1,0,0,0,.76.76,1,1,0,0,0,1.07-.2,1.26,1.26,0,0,0,.51-.87,1.53,1.53,0,0,0-.3-.92m98.4-72.5h-.15l-.21.11c-.13.13-.18.25-.15.35a.34.34,0,0,0,.2.31l.31.05.05-.05.1-.05.11-.1c.1-.11.11-.19.05-.26l-.05-.15-.11-.1-.1-.06-.05-.05m-28,11.73a1.45,1.45,0,0,0-.41-.36l-.3-.1-.46.05a.86.86,0,0,0-.67.72,1,1,0,0,0,.16.91,1,1,0,0,0,.71.36.75.75,0,0,0,.71-.15.82.82,0,0,0,.41-.67.87.87,0,0,0-.15-.76m2.14-12.49a.33.33,0,0,0,0-.36l-.25-.51-.62-.3v.1a1.09,1.09,0,0,0-.86.35.69.69,0,0,0-.16.82.83.83,0,0,0,.26.41,1,1,0,0,0,.76.3.76.76,0,0,0,.72-.35l.15-.46m6.78,10.81a.93.93,0,0,0,.15.56,1.6,1.6,0,0,0,.72.61,1.24,1.24,0,0,0,1.58-.71,1.42,1.42,0,0,0,.05-1l-.26-.41-.25-.26-.41-.15a2.58,2.58,0,0,0-.81.1l-.51.36a.9.9,0,0,0-.26.87m5.71-15.5a1.24,1.24,0,0,0,.46-.72,1.72,1.72,0,0,0-.2-1.78,1.52,1.52,0,0,0-1.58-.71l-.26.05a1.46,1.46,0,0,0-1.38,1,2,2,0,0,0-.1,1.12,2.19,2.19,0,0,0,.31.71,1.74,1.74,0,0,0,1.38.71,1.81,1.81,0,0,0,1.37-.35m12.7,21.36a1.14,1.14,0,0,0,.35-.61,1.76,1.76,0,0,0-1.47-1.84c0,.11-.16.12-.36.05a1.11,1.11,0,0,0-.61.26,1.71,1.71,0,0,0-.61,1,1.3,1.3,0,0,0,.3,1.12,1.42,1.42,0,0,0,.87.61,1.48,1.48,0,0,0,1-.15,2.12,2.12,0,0,0,.51-.46m-11.73,16.67a2.8,2.8,0,0,0-.92-1.63,2.49,2.49,0,0,0-1.88-.56,2.17,2.17,0,0,0-1,.26,2.65,2.65,0,0,0-1.33,1.58,2.62,2.62,0,0,0,.16,1.83,2.54,2.54,0,0,0,1.27,1.33,2.48,2.48,0,0,0,1.84.1,2.6,2.6,0,0,0,1.47-1.12,2.55,2.55,0,0,0,.36-1.79M340.73,173a1.79,1.79,0,0,0-1.43-1.58l-.31.15a1.37,1.37,0,0,0-1.17,1.07,2.55,2.55,0,0,0-.1.87l.15.51a1.5,1.5,0,0,0,.72.71,1.34,1.34,0,0,0,1,.15,1.31,1.31,0,0,0,.77-.4,1.46,1.46,0,0,0,.41-1.48m-20.4,3.87c0,.1-.07.16-.2.16a1.21,1.21,0,0,0-1,.35,2,2,0,0,0-.56,1V179a1.6,1.6,0,0,0,.86,1.28,2,2,0,0,0,1.53.2,1.42,1.42,0,0,0,.87-.46,2.19,2.19,0,0,0,.41-.81,1.82,1.82,0,0,0-.61-1.89,3.06,3.06,0,0,0-1.28-.41m4.23,16.37a1.57,1.57,0,0,0-.05-.92,1.85,1.85,0,0,0-1.73-1.43,1.38,1.38,0,0,1-.61.11,1.77,1.77,0,0,0-.66.35,2.14,2.14,0,0,0-.57,1,1.84,1.84,0,0,0,1.94,2.3,2,2,0,0,0,1.07-.46,1.94,1.94,0,0,0,.61-1M291.17,212.6a2.83,2.83,0,0,0-2.09-2.34,3.46,3.46,0,0,0-1.07-.15,2.9,2.9,0,0,0-2.25,1,3.08,3.08,0,0,0-.66,2,3.2,3.2,0,0,0,.66,2A4,4,0,0,0,287,216a3.06,3.06,0,0,0,4.18-3.37M243,220.81a1.85,1.85,0,0,0-.1-1.78,2.2,2.2,0,0,0-1.58-.92c0,.07,0,.1-.16.1a1.8,1.8,0,0,0-1.58.82l-.25.66a1.32,1.32,0,0,0,.05.82,2,2,0,0,0,1.43,1.32l.66.1a1.68,1.68,0,0,0,1.53-1.12m.66,15.45a2.13,2.13,0,0,0,1.22-.92,2,2,0,0,0,.11-2.29,2.17,2.17,0,0,0-1.94-1.22.8.8,0,0,1-.41.1,2.11,2.11,0,0,0-1.83,1.73,2.35,2.35,0,0,0,.2,1.53,2.3,2.3,0,0,0,1.12,1,2.17,2.17,0,0,0,1.53,0m-23.1-2.45a2.56,2.56,0,0,0,.21-1.73,2.86,2.86,0,0,0-2.55-2.09c.13.07.1.1-.1.1a2.32,2.32,0,0,0-1.89.87,2.7,2.7,0,0,0-.61,2,2.52,2.52,0,0,0,.56,1.27,2.31,2.31,0,0,0,1.43.92,2.34,2.34,0,0,0,1.73-.15,2.4,2.4,0,0,0,1.22-1.23m.82-25.13a1.38,1.38,0,0,0-.71.46,2.27,2.27,0,0,0-.62,2.19,2,2,0,0,0,1.18,1.38,2.55,2.55,0,0,0,1.83.15,2.09,2.09,0,0,0,1.12-3.26,2.54,2.54,0,0,0-2-1.08Z"/></g></svg>