<?xml version="1.0" encoding="utf-8"?>
<!-- Generator: Adobe Illustrator 16.0.0, SVG Export Plug-In . SVG Version: 6.00 Build 0)  -->
<!DOCTYPE svg PUBLIC "-//W3C//DTD SVG 1.1//EN" "http://www.w3.org/Graphics/SVG/1.1/DTD/svg11.dtd">
<svg version="1.1" id="Calque_1" xmlns="http://www.w3.org/2000/svg" xmlns:xlink="http://www.w3.org/1999/xlink" x="0px" y="0px"
	 width="180px" height="140px" viewBox="0 0 180 140" enable-background="new 0 0 180 140" xml:space="preserve">
<g>
	<path fill-rule="evenodd" clip-rule="evenodd" fill="#FF4E5E" d="M152.466,129.928c6.601,0,11.999-5.393,11.999-11.983
		c0-6.593-5.398-11.988-11.999-11.988h-1.93c-6.598,0-11.998-5.394-11.998-11.984c0-6.59,5.4-11.985,11.998-11.985h10.871
		c6.601,0,11.999-5.394,11.999-11.986c0-6.591-5.398-11.984-11.999-11.984h-20.45c-6.601,0-11.998-5.396-11.998-11.988
		c0-6.591,5.397-11.983,11.998-11.983h7.775c6.599,0,11.999-5.394,11.999-11.986s-5.4-11.986-11.999-11.986H41.196
		c-6.598,0-11.998,5.394-11.998,11.986s5.4,11.986,11.998,11.986h7.235c6.601,0,11.999,5.393,11.999,11.983
		c0,6.593-5.398,11.988-11.999,11.988H18.592C11.992,58.016,6.593,63.41,6.593,70c0,6.593,5.398,11.986,11.999,11.986h9.082
		c6.601,0,11.999,5.396,11.999,11.985c0,6.591-4.016,11.984-8.927,11.984c-4.912,0-8.933,5.396-8.933,11.988
		c0,6.591,5.4,11.983,11.999,11.983H152.466z"/>
	<g>
		<path fill="#FFFFFF" d="M90.304,86.73c-4.06,0-7-3.08-7.56-6.86l-1.4-9.52c-0.7-4.62,1.96-7.84,6.44-8.4
			c12.18-1.54,17.78-5.32,17.78-12.18v-0.28c0-6.3-4.76-9.94-12.88-9.94c-6.02,0-11.2,1.82-16.24,5.6c-1.68,1.26-3.92,2.24-6.3,2.24
			c-5.32,0-9.8-4.48-9.8-9.8c0-2.66,1.12-5.46,3.64-7.56c7.42-6.16,16.8-10.08,29.12-10.08c20.16,0,33.88,10.36,33.88,28.98v0.28
			c0,17.78-12.32,25.06-27.58,28.14l-0.42,2.52c-0.56,3.64-3.5,6.86-7.56,6.86H90.304z M90.304,95.97c7,0,12.18,5.18,12.18,11.9
			v0.28c0,6.72-5.18,11.9-12.18,11.9s-12.18-5.18-12.18-11.9v-0.28C78.124,101.15,83.304,95.97,90.304,95.97z"/>
	</g>
</g>
</svg>
