<?xml version="1.0" encoding="utf-8"?>
<!-- Generator: Adobe Illustrator 16.0.0, SVG Export Plug-In . SVG Version: 6.00 Build 0)  -->
<!DOCTYPE svg PUBLIC "-//W3C//DTD SVG 1.1//EN" "http://www.w3.org/Graphics/SVG/1.1/DTD/svg11.dtd">
<svg version="1.1" id="Calque_1" xmlns="http://www.w3.org/2000/svg" xmlns:xlink="http://www.w3.org/1999/xlink" x="0px" y="0px"
	 width="150px" height="150px" viewBox="0 0 150 150" enable-background="new 0 0 150 150" xml:space="preserve">
<g>
	<g>
		<path fill-rule="evenodd" clip-rule="evenodd" fill="#999999" d="M41.924,47.43c-1.999,1.533-3.981,3.167-5.947,4.9
			c-1.833-2.934-4.05-6.617-6.65-11.05c1.334-0.966,2.75-2.017,4.25-3.15c0.034,0,0.067,0,0.101,0l-0.05-0.05
			c0.733-0.533,1.5-1.117,2.3-1.75c0.966,1.267,2.115,2.75,3.448,4.45c0.399,0.6,1.816,2.383,4.249,5.35
			C43.09,46.563,42.523,46.996,41.924,47.43z"/>
		<g>
			<path fill-rule="evenodd" clip-rule="evenodd" fill="#3798D4" d="M41.823,34.08c-6.396,4.533-11.73,8.333-15.997,11.4
				c-1.533-3.4-2.883-6.433-4.05-9.1c4.101-2.233,9.316-5.083,15.649-8.55C39.025,30.129,40.491,32.213,41.823,34.08z"/>
		</g>
	</g>
	<g>
		<path fill-rule="evenodd" clip-rule="evenodd" fill="#999999" d="M105.924,46.479c-0.5-0.533-1-1.033-1.5-1.5
			c2.899-2.6,4.583-4.15,5.05-4.65c1.566-1.467,2.95-2.75,4.15-3.85c0.666,0.7,1.333,1.4,2,2.1l-0.051,0.05c0.034,0,0.067,0,0.101,0
			c1.3,1.333,2.517,2.583,3.649,3.75c-3.267,3.967-6.017,7.267-8.25,9.9C109.374,50.246,107.657,48.313,105.924,46.479z"/>
		<g>
			<path fill-rule="evenodd" clip-rule="evenodd" fill="#3798D4" d="M108.724,33.43c1.634-1.633,3.434-3.483,5.4-5.55
				c5.666,4.434,10.366,8.083,14.1,10.95c-1.6,2.433-3.434,5.233-5.5,8.4C119.023,43.496,114.357,38.896,108.724,33.43z"/>
		</g>
	</g>
	<g>
		<path fill-rule="evenodd" clip-rule="evenodd" fill="#999999" d="M78.224,21.979c1.767-0.2,3.283-0.367,4.55-0.5
			c-0.1,2.367-0.366,8.35-0.8,17.95l-14.25,0.8c-0.033-1.1,0.217-6.583,0.75-16.45C71.507,23.246,74.757,22.646,78.224,21.979z"/>
		<g>
			<path fill-rule="evenodd" clip-rule="evenodd" fill="#333333" d="M69.674,11.58c-2.867,2.667-4.65,4.7-5.351,6.1
				c-0.733,1.333-0.183,2,1.65,2c1.866-0.034,5.316-0.2,10.35-0.5c4.967-0.267,8-0.567,9.101-0.9c1.066-0.4,1.149-1.017,0.25-1.85
				l-3.75-3.35c-3.467-2.9-5.634-4.55-6.5-4.95C74.457,7.729,72.54,8.879,69.674,11.58z M64.823,11.68
				c2.267-2.767,4.567-5.034,6.9-6.8c2.233-1.733,5.384-0.85,9.45,2.65c4.1,3.5,7.217,6.517,9.35,9.05
				c2.066,2.533,1.517,4.133-1.649,4.8c-3.767,0.4-8.767,0.8-15,1.2c-4.601,0.3-8.717,0.533-12.351,0.7
				c-3.633,0.133-4.2-1.65-1.7-5.35C60.79,16.529,62.457,14.446,64.823,11.68z"/>
		</g>
		<g>
			<path fill-rule="evenodd" clip-rule="evenodd" fill="#3798D4" d="M83.023,15.83c-0.033,0.033-0.033,0.066,0,0.1
				c0.033,0,0.066,0,0.101,0c0.466,2.2,1.149,5.466,2.05,9.8c-4.167,0.333-7.533,0.583-10.101,0.75c-2.199,0.1-5.416,0.3-9.649,0.6
				c0.333-4.133,0.566-7.333,0.7-9.6C70.523,17.046,76.157,16.496,83.023,15.83z"/>
		</g>
	</g>
	<g>
		<path display="none" fill-rule="evenodd" clip-rule="evenodd" fill="#FFFFFF" d="M75.474,32.279c16.1,0.133,29.783,5.8,41.05,17
			c11.267,11.2,16.834,24.65,16.7,40.351c-0.133,15.699-5.934,29.05-17.4,40.05c-11.466,11-25.25,16.433-41.35,16.3
			c-16.066-0.133-29.733-5.8-40.997-17c-11.267-11.2-16.833-24.65-16.7-40.35c0.134-15.7,5.934-29.05,17.4-40.05
			C45.641,37.58,59.407,32.146,75.474,32.279z"/>
		<path fill-rule="evenodd" clip-rule="evenodd" fill="#3798D4" d="M75.474,32.279c16.1,0.133,29.783,5.8,41.05,17
			c11.267,11.2,16.834,24.65,16.7,40.351c-0.133,15.699-5.934,29.05-17.4,40.05c-11.466,11-25.25,16.433-41.35,16.3
			c-16.066-0.133-29.733-5.8-40.997-17c-11.267-11.2-16.833-24.65-16.7-40.35c0.134-15.7,5.934-29.05,17.4-40.05
			C45.641,37.58,59.407,32.146,75.474,32.279z"/>
		<g>
			<path fill-rule="evenodd" clip-rule="evenodd" fill="#E8F6FC" d="M26.927,89.954c0.072-13.263,4.839-24.721,14.297-34.375
				c9.533-9.763,21.008-14.813,34.424-15.15c13.508-0.398,24.975,4.085,34.4,13.45c9.408,9.336,13.967,20.752,13.675,34.25
				c-0.295,13.402-5.312,24.887-15.05,34.449c-9.664,9.487-21.173,14.313-34.525,14.476c-13.229,0.126-24.428-4.383-33.599-13.525
				C31.331,114.337,26.789,103.146,26.927,89.954z"/>
		</g>
	</g>
	<g>
		<path fill-rule="evenodd" clip-rule="evenodd" fill="#333333" d="M73.374,57.33c1-0.167,2.35-0.383,4.05-0.65
			c0,4.7-0.066,10-0.2,15.9c-0.167,9.7-0.366,17.383-0.6,23.05c-1.7,0.199-3.5,0.449-5.4,0.75c-0.033-0.101-0.05-0.167-0.05-0.2
			c1.066-21.733,1.783-34.684,2.149-38.85C73.323,57.296,73.34,57.296,73.374,57.33z"/>
	</g>
	<g>
		<path fill-rule="evenodd" clip-rule="evenodd" fill="#333333" d="M89.974,80.479c0.033,0,0.066,0.017,0.1,0.05
			c0.567,0.934,1.317,2.267,2.25,4c-2.333,1.534-4.966,3.233-7.899,5.101c-4.834,3.033-8.7,5.399-11.601,7.1
			c-0.933-1.7-1.916-3.483-2.949-5.35v-0.101C81.073,85.112,87.773,81.513,89.974,80.479z"/>
	</g>
	<g>
		<path fill-rule="evenodd" clip-rule="evenodd" fill="#333333" d="M41.273,71.43c0.2-0.3,0.4-0.633,0.601-1
			c3.133,2.133,6.483,4.383,10.05,6.75c10.733,7.3,19.233,13.066,25.5,17.3c-0.267,0.367-0.5,0.75-0.7,1.15c-0.066,0-0.116,0-0.15,0
			C60.374,84.529,48.607,76.463,41.273,71.43z"/>
	</g>
	<g opacity="0.5">
		<path fill-rule="evenodd" clip-rule="evenodd" fill="#FFFFFF" d="M92.424,80.755c-5.639-3.137-13.439-4.736-23.4-4.801
			c-9.954-0.066-18.371,3.875-25.25,11.825c-6.878,7.945-10.444,16.687-10.697,26.226c-4.192-7.104-6.242-15.121-6.149-24.051
			c0.049-8.966,2.24-17.107,6.575-24.425c9.712-6.697,19.687-9.88,29.922-9.55c10.229,0.336,19.079,2.961,26.55,7.875
			c7.471,4.911,13.028,7.036,16.675,6.375c3.65-0.663,6.576-3.063,8.775-7.2c0.294-0.549,0.553-1.132,0.774-1.75
			c1.288,1.92,2.413,3.912,3.375,5.975c-0.195,0.6-0.412,1.283-0.649,2.05c-2.044,6.61-5.561,10.96-10.55,13.05
			C103.381,84.437,98.064,83.903,92.424,80.755z"/>
	</g>
</g>
</svg>
