<?xml version="1.0" encoding="utf-8"?>
<!-- Generator: Adobe Illustrator 16.0.0, SVG Export Plug-In . SVG Version: 6.00 Build 0)  -->
<!DOCTYPE svg PUBLIC "-//W3C//DTD SVG 1.1//EN" "http://www.w3.org/Graphics/SVG/1.1/DTD/svg11.dtd">
<svg version="1.1" id="Calque_1" xmlns="http://www.w3.org/2000/svg" xmlns:xlink="http://www.w3.org/1999/xlink" x="0px" y="0px"
	 width="64px" height="64px" viewBox="0 0 64 64" enable-background="new 0 0 64 64" xml:space="preserve">
<g>
	<g opacity="0.5">
		<g opacity="0.5">
			<g>
				<g>
					<path fill-rule="evenodd" clip-rule="evenodd" fill="#999999" d="M19.169,9.028c0.229,0.252,0.521,0.534,0.877,0.846
						c0.102,0.106,0.447,0.424,1.038,0.955c-0.106,0.101-0.205,0.212-0.298,0.332c-0.352,0.384-0.706,0.783-1.064,1.2
						c-0.464-0.558-1.05-1.252-1.756-2.083c0.251-0.228,0.517-0.48,0.796-0.756l0.03-0.02C18.911,9.334,19.036,9.176,19.169,9.028z"
						/>
					<g>
						<path fill-rule="evenodd" clip-rule="evenodd" fill="#3798D4" d="M17.411,11.264c-0.433-0.638-0.816-1.207-1.153-1.706
							c0.776-0.612,1.767-1.383,2.971-2.313c0.382,0.439,0.75,0.83,1.099,1.176C19.139,9.543,18.166,10.491,17.411,11.264z"/>
					</g>
				</g>
				<g>
					<path fill-rule="evenodd" clip-rule="evenodd" fill="#999999" d="M33.642,8.573c0.504-0.631,0.802-1.007,0.894-1.128
						c0.28-0.363,0.521-0.671,0.727-0.926c0.169,0.119,0.325,0.245,0.474,0.377c0.335,0.239,0.631,0.46,0.887,0.666
						c-0.521,0.904-0.975,1.676-1.358,2.313c-0.43-0.378-0.85-0.72-1.258-1.024C33.883,8.758,33.764,8.666,33.642,8.573z"/>
					<g>
						<path fill-rule="evenodd" clip-rule="evenodd" fill="#3798D4" d="M37.489,8.458c-0.893-0.675-2.004-1.48-3.332-2.412
							c0.284-0.396,0.596-0.839,0.932-1.329c1.314,0.74,2.409,1.35,3.289,1.831C38.134,7.091,37.838,7.728,37.489,8.458z"/>
					</g>
				</g>
				<g>
					<path fill-rule="evenodd" clip-rule="evenodd" fill="#999999" d="M27.446,4.697c0.353-0.123,0.655-0.212,0.908-0.267
						c0.078,0.5,0.227,1.752,0.446,3.754l-2.932,0.63c-0.04-0.233-0.165-1.385-0.373-3.454C26.109,5.149,26.76,4.928,27.446,4.697z"
						/>
					<g>
						<g>
							<path fill-rule="evenodd" clip-rule="evenodd" fill="#333333" d="M24.86,4.613c0.393-0.063,1.091-0.214,2.092-0.455
								c1.026-0.2,1.645-0.358,1.861-0.473c0.23-0.128,0.231-0.259-0.005-0.391L27.934,2.71c-0.824-0.489-1.327-0.76-1.509-0.812
								c-0.198-0.039-0.562,0.264-1.086,0.908c-0.502,0.632-0.805,1.111-0.901,1.438C24.326,4.553,24.467,4.676,24.86,4.613z
								 M23.536,4.462c0.134-0.322,0.4-0.809,0.803-1.459c0.391-0.671,0.79-1.217,1.202-1.64c0.397-0.443,1.086-0.372,2.065,0.216
								c0.959,0.602,1.691,1.124,2.193,1.569c0.518,0.464,0.467,0.818-0.152,1.063c-0.769,0.198-1.795,0.442-3.081,0.731
								c-0.939,0.2-1.785,0.393-2.531,0.578C23.294,5.672,23.129,5.319,23.536,4.462z"/>
						</g>
					</g>
					<g>
						<path fill-rule="evenodd" clip-rule="evenodd" fill="#3798D4" d="M24.797,4.133c0.908-0.207,2.064-0.495,3.472-0.865
							c0.176,0.434,0.432,1.09,0.765,1.969c-0.854,0.201-1.544,0.362-2.071,0.485c-0.469,0.083-1.121,0.235-1.961,0.453
							C24.93,5.293,24.86,4.613,24.797,4.133z"/>
					</g>
				</g>
				<g>
					<path fill-rule="evenodd" clip-rule="evenodd" fill="#3798D4" d="M16.93,20.483c-0.489-3.216,0.28-6.163,2.308-8.841
						c1.986-2.651,4.649-4.235,7.992-4.75c3.323-0.503,6.34,0.219,9.051,2.165c2.712,1.945,4.313,4.554,4.81,7.823
						c0.503,3.235-0.266,6.182-2.308,8.84c-1.985,2.651-4.65,4.235-7.992,4.75c-3.323,0.502-6.34-0.219-9.051-2.165
						C19.029,26.36,17.426,23.752,16.93,20.483z"/>
					<g>
						<path fill-rule="evenodd" clip-rule="evenodd" fill="#E8F6FC" d="M30.418,28.63c-2.724,0.446-5.191-0.109-7.405-1.664
							c-2.221-1.609-3.526-3.778-3.921-6.506c-0.438-2.756,0.175-5.291,1.836-7.606c1.647-2.335,3.855-3.756,6.624-4.261
							c2.754-0.525,5.276,0.022,7.564,1.645c2.256,1.614,3.577,3.83,3.971,6.645c0.365,2.777-0.3,5.318-1.995,7.627
							C35.403,26.785,33.179,28.158,30.418,28.63z"/>
					</g>
				</g>
				<g>
					<path fill-rule="evenodd" clip-rule="evenodd" fill="#333333" d="M29.57,19.96c-0.354,0.122-0.724,0.242-1.111,0.358
						l-0.02-0.031c-0.478-4.531-0.752-7.238-0.825-8.119c0.207-0.082,0.478-0.177,0.811-0.286c0.159,0.968,0.327,2.075,0.502,3.323
						C29.214,17.221,29.429,18.806,29.57,19.96z"/>
				</g>
				<g>
					<path fill-rule="evenodd" clip-rule="evenodd" fill="#333333" d="M28.022,19.349l-0.02-0.029c2.14-1.65,3.418-2.617,3.837-2.9
						l0.03-0.02c0.12,0.179,0.313,0.442,0.576,0.787c-0.438,0.384-0.93,0.818-1.474,1.302c-0.897,0.781-1.614,1.396-2.152,1.848
						C28.571,20.01,28.305,19.681,28.022,19.349z"/>
				</g>
				<g>
					<path fill-rule="evenodd" clip-rule="evenodd" fill="#333333" d="M21.528,15.935c0.737,0.315,1.511,0.665,2.321,1.047
						c2.466,1.152,4.404,2.065,5.819,2.737c-0.033,0.081-0.066,0.161-0.099,0.242c-3.74-1.746-6.449-3.024-8.131-3.834
						C21.486,16.066,21.516,16.001,21.528,15.935z"/>
				</g>
				<g opacity="0.5">
					<path fill-rule="evenodd" clip-rule="evenodd" fill="#FFFFFF" d="M25.522,12.232c2.12-0.3,4.033-0.053,5.733,0.744
						c1.708,0.764,2.943,1.019,3.703,0.767c0.712-0.278,1.235-0.88,1.571-1.803c0.02-0.101,0.051-0.225,0.097-0.371
						c0.331,0.358,0.623,0.727,0.88,1.106c-0.013,0.154-0.035,0.314-0.067,0.481c-0.205,1.417-0.783,2.432-1.733,3.046
						c-0.984,0.607-2.105,0.668-3.364,0.182c-1.259-0.485-2.927-0.565-5.002-0.236c-2.073,0.326-3.685,1.429-4.827,3.306
						c-1.156,1.857-1.614,3.781-1.375,5.77c-1.076-1.336-1.758-2.924-2.046-4.765c-0.297-1.862-0.122-3.622,0.527-5.283
						C21.426,13.461,23.393,12.48,25.522,12.232z"/>
				</g>
			</g>
			<path opacity="0.75" fill-rule="evenodd" clip-rule="evenodd" fill="#3798D4" d="M35.898,8.808
				c0.192-0.329,0.403-0.693,0.622-1.07c0.344,0.252,0.672,0.496,0.969,0.72c0.349-0.73,0.645-1.367,0.889-1.91
				c-0.88-0.481-1.975-1.091-3.289-1.831c-0.336,0.49-0.647,0.932-0.932,1.329c0.33,0.231,0.646,0.455,0.948,0.67
				c-0.171,0.214-0.354,0.451-0.57,0.729c-0.047,0.063-0.153,0.198-0.313,0.399c-1.746-0.82-3.607-1.178-5.58-1.086
				c-0.063-0.554-0.117-1.018-0.163-1.392c0.177-0.042,0.359-0.085,0.554-0.13c-0.11-0.294-0.21-0.553-0.304-0.796
				c0.333-0.082,0.647-0.159,0.918-0.229c0.619-0.245,0.67-0.599,0.152-1.063c-0.502-0.445-1.234-0.967-2.193-1.569
				c-0.979-0.588-1.668-0.66-2.065-0.216c-0.412,0.423-0.812,0.969-1.202,1.64c-0.402,0.65-0.669,1.137-0.803,1.459
				c-0.407,0.856-0.242,1.21,0.499,1.058c0.278-0.069,0.584-0.14,0.891-0.211c0.023,0.265,0.049,0.548,0.075,0.866
				c0.199-0.052,0.385-0.099,0.563-0.143c0.046,0.455,0.087,0.854,0.123,1.198c-2.032,0.557-3.775,1.568-5.235,3.027
				c-0.209-0.191-0.35-0.324-0.406-0.383c-0.241-0.212-0.443-0.405-0.627-0.589c0.288-0.276,0.59-0.563,0.908-0.865
				c-0.349-0.346-0.717-0.737-1.099-1.176c-1.204,0.931-2.194,1.701-2.971,2.313c0.337,0.5,0.721,1.068,1.153,1.706
				c0.229-0.233,0.483-0.488,0.75-0.754c0.379,0.445,0.719,0.847,1.022,1.209c-1.983,2.658-2.738,5.579-2.254,8.765
				c0.496,3.269,2.1,5.876,4.81,7.823c2.711,1.946,5.728,2.667,9.051,2.165c3.342-0.516,6.007-2.1,7.992-4.75
				c2.042-2.658,2.811-5.605,2.308-8.84c-0.496-3.27-2.098-5.878-4.81-7.823C36.154,8.966,36.024,8.893,35.898,8.808z M24.438,4.245
				c0.097-0.327,0.399-0.807,0.901-1.438c0.524-0.645,0.888-0.947,1.086-0.908c0.182,0.052,0.685,0.322,1.509,0.812l0.875,0.585
				c0.236,0.132,0.235,0.263,0.005,0.391c-0.067,0.036-0.186,0.077-0.331,0.121c-0.079-0.204-0.152-0.389-0.214-0.539
				c-1.407,0.371-2.563,0.659-3.472,0.865c0.019,0.141,0.038,0.305,0.058,0.481C24.467,4.674,24.327,4.551,24.438,4.245z"/>
		</g>
		<g>
			<g>
				<g>
					<path fill-rule="evenodd" clip-rule="evenodd" fill="#999999" d="M11.01,25.762c0.223,0.371,0.521,0.793,0.889,1.27
						c0.101,0.157,0.455,0.639,1.063,1.445c-0.157,0.1-0.308,0.214-0.453,0.342c-0.532,0.393-1.072,0.806-1.62,1.238
						c-0.444-0.81-1.007-1.819-1.687-3.028c0.37-0.224,0.763-0.474,1.179-0.75l0.042-0.018
						C10.612,26.081,10.808,25.914,11.01,25.762z"/>
					<g>
						<path fill-rule="evenodd" clip-rule="evenodd" fill="#3798D4" d="M8.27,28.125c-0.384-0.902-0.726-1.706-1.024-2.411
							c1.119-0.576,2.543-1.297,4.272-2.166c0.371,0.641,0.734,1.219,1.086,1.735C10.847,26.397,9.401,27.344,8.27,28.125z"/>
					</g>
				</g>
				<g>
					<path fill-rule="evenodd" clip-rule="evenodd" fill="#999999" d="M29.191,28.717c0.782-0.665,1.246-1.062,1.391-1.19
						c0.437-0.385,0.813-0.711,1.132-0.98c0.181,0.19,0.347,0.385,0.5,0.586c0.359,0.38,0.674,0.728,0.943,1.047
						c-0.872,1.003-1.624,1.855-2.259,2.558c-0.444-0.577-0.885-1.105-1.321-1.585C29.447,29.007,29.319,28.862,29.191,28.717z"/>
					<g>
						<path fill-rule="evenodd" clip-rule="evenodd" fill="#3798D4" d="M34.021,29.509c-0.949-1.061-2.141-2.335-3.572-3.823
							c0.452-0.425,0.947-0.902,1.488-1.432c1.46,1.243,2.68,2.272,3.66,3.087C35.16,27.96,34.636,28.683,34.021,29.509z"/>
					</g>
				</g>
				<g>
					<path fill-rule="evenodd" clip-rule="evenodd" fill="#999999" d="M22.398,22.368c0.47-0.067,0.871-0.104,1.2-0.111
						c-0.025,0.644-0.145,2.243-0.357,4.796l-3.813,0.073c0.005-0.301,0.13-1.77,0.375-4.403
						C20.62,22.608,21.485,22.49,22.398,22.368z"/>
					<g>
						<g>
							<path fill-rule="evenodd" clip-rule="evenodd" fill="#333333" d="M19.19,21.635c0.507,0.017,1.414-0.002,2.722-0.059
								c1.331,0,2.143-0.046,2.438-0.138c0.321-0.103,0.353-0.267,0.091-0.488l-0.95-0.944c-0.911-0.812-1.473-1.271-1.686-1.381
								c-0.24-0.097-0.767,0.193-1.576,0.87c-0.783,0.666-1.276,1.191-1.478,1.576C18.538,21.43,18.685,21.617,19.19,21.635z
								 M17.574,21.124c0.243-0.37,0.696-0.912,1.356-1.625c0.65-0.742,1.284-1.328,1.901-1.756
								c0.604-0.457,1.445-0.199,2.525,0.773c1.05,0.985,1.837,1.815,2.357,2.493c0.533,0.705,0.383,1.135-0.45,1.29
								c-1.006,0.061-2.349,0.116-4.024,0.163c-1.223,0.021-2.324,0.056-3.302,0.105C16.977,22.576,16.856,22.094,17.574,21.124z"/>
						</g>
					</g>
					<g>
						<path fill-rule="evenodd" clip-rule="evenodd" fill="#3798D4" d="M19.229,21.02c1.184-0.037,2.697-0.115,4.545-0.235
							c0.114,0.584,0.272,1.465,0.475,2.645c-1.115,0.042-2.016,0.075-2.703,0.101c-0.604-0.01-1.457,0.02-2.56,0.089
							C19.11,22.501,19.19,21.635,19.229,21.02z"/>
					</g>
				</g>
				<g>
					<path fill-rule="evenodd" clip-rule="evenodd" fill="#3798D4" d="M5.424,39.52c0.173-4.135,1.852-7.627,5.033-10.477
						c3.126-2.827,6.838-4.156,11.137-3.986c4.271,0.182,7.862,1.817,10.773,4.907c2.912,3.089,4.278,6.736,4.101,10.939
						c-0.161,4.162-1.838,7.654-5.032,10.477c-3.125,2.826-6.838,4.155-11.137,3.986c-4.271-0.182-7.862-1.817-10.774-4.907
						C6.614,47.369,5.247,43.723,5.424,39.52z"/>
					<g>
						<path fill-rule="evenodd" clip-rule="evenodd" fill="#E8F6FC" d="M20.282,52.975c-3.509-0.105-6.455-1.4-8.841-3.881
							c-2.381-2.549-3.484-5.575-3.311-9.078c0.124-3.547,1.505-6.563,4.143-9.049c2.626-2.515,5.729-3.75,9.308-3.708
							c3.567,0.015,6.583,1.313,9.045,3.895c2.423,2.564,3.535,5.653,3.34,9.265c-0.22,3.555-1.668,6.566-4.347,9.037
							C26.957,51.885,23.846,53.059,20.282,52.975z"/>
					</g>
				</g>
				<g>
					<path fill-rule="evenodd" clip-rule="evenodd" fill="#333333" d="M21.334,41.943c-0.472,0.066-0.962,0.126-1.474,0.177
						l-0.018-0.042c0.507-5.775,0.823-9.221,0.947-10.338c0.277-0.052,0.639-0.105,1.081-0.16c-0.037,1.247-0.097,2.67-0.182,4.271
						C21.557,38.438,21.438,40.467,21.334,41.943z"/>
				</g>
				<g>
					<path fill-rule="evenodd" clip-rule="evenodd" fill="#333333" d="M19.551,40.804l-0.018-0.042
						c3.074-1.54,4.905-2.436,5.498-2.688l0.042-0.018c0.107,0.254,0.283,0.629,0.527,1.124c-0.641,0.372-1.359,0.794-2.157,1.267
						c-1.31,0.756-2.355,1.35-3.137,1.783C20.075,41.763,19.823,41.287,19.551,40.804z"/>
				</g>
				<g>
					<path fill-rule="evenodd" clip-rule="evenodd" fill="#333333" d="M12.273,34.961c0.844,0.572,1.724,1.197,2.644,1.871
						c2.798,2.039,4.997,3.651,6.599,4.834c-0.061,0.093-0.122,0.186-0.182,0.277c-4.243-3.09-7.314-5.346-9.219-6.766
						C12.188,35.113,12.241,35.041,12.273,34.961z"/>
				</g>
				<g opacity="0.5">
					<path fill-rule="evenodd" clip-rule="evenodd" fill="#FFFFFF" d="M18.161,31.309c2.722,0.141,5.049,0.916,6.979,2.326
						c1.946,1.369,3.425,1.988,4.436,1.859c0.957-0.174,1.758-0.799,2.4-1.869c0.049-0.121,0.119-0.268,0.212-0.44
						c0.325,0.528,0.602,1.06,0.829,1.595c-0.054,0.189-0.121,0.384-0.201,0.586c-0.601,1.719-1.569,2.846-2.906,3.381
						c-1.377,0.52-2.793,0.322-4.245-0.592c-1.454-0.912-3.516-1.418-6.188-1.514c-2.669-0.097-4.947,0.889-6.832,2.955
						c-1.896,2.037-2.937,4.327-3.121,6.869c-1.02-1.931-1.483-4.08-1.394-6.449c0.081-2.396,0.729-4.553,1.944-6.467
						C12.747,31.846,15.442,31.1,18.161,31.309z"/>
				</g>
			</g>
			<path opacity="0.4" fill-rule="evenodd" clip-rule="evenodd" fill="#3798D4" d="M32.367,29.963
				c-0.135-0.144-0.279-0.268-0.417-0.405c0.32-0.363,0.673-0.767,1.037-1.184c0.368,0.398,0.72,0.783,1.034,1.135
				c0.614-0.827,1.139-1.549,1.576-2.167c-0.98-0.815-2.2-1.844-3.66-3.087c-0.541,0.529-1.036,1.006-1.488,1.432
				c0.355,0.37,0.695,0.726,1.021,1.068c-0.266,0.227-0.554,0.477-0.889,0.772c-0.075,0.067-0.241,0.21-0.489,0.422
				c-1.979-1.448-4.217-2.349-6.703-2.714c0.057-0.706,0.102-1.298,0.136-1.778c0.23-0.009,0.47-0.018,0.723-0.027
				c-0.067-0.394-0.128-0.742-0.186-1.069c0.438-0.02,0.848-0.04,1.202-0.062c0.833-0.155,0.983-0.585,0.45-1.29
				c-0.521-0.678-1.308-1.508-2.357-2.493c-1.08-0.972-1.922-1.23-2.525-0.773c-0.617,0.428-1.251,1.014-1.901,1.756
				c-0.66,0.714-1.113,1.256-1.356,1.625c-0.718,0.971-0.598,1.452,0.364,1.443c0.364-0.019,0.764-0.033,1.163-0.047
				c-0.034,0.338-0.071,0.697-0.116,1.1c0.261-0.016,0.506-0.03,0.738-0.042c-0.054,0.58-0.099,1.087-0.138,1.527
				c-2.673,0.201-5.096,1.038-7.273,2.504c-0.214-0.29-0.357-0.49-0.414-0.577c-0.25-0.324-0.455-0.614-0.639-0.888
				c0.427-0.275,0.872-0.56,1.344-0.859c-0.352-0.517-0.715-1.094-1.086-1.735c-1.729,0.868-3.153,1.59-4.272,2.166
				c0.299,0.705,0.641,1.509,1.024,2.411c0.342-0.236,0.723-0.493,1.122-0.759c0.363,0.647,0.69,1.233,0.981,1.758
				C7.249,31.96,5.595,35.424,5.424,39.52c-0.177,4.203,1.19,7.85,4.101,10.938c2.912,3.09,6.503,4.726,10.774,4.907
				c4.299,0.169,8.012-1.16,11.137-3.986c3.194-2.822,4.871-6.314,5.032-10.477C36.646,36.699,35.279,33.053,32.367,29.963z
				 M18.752,21.072c0.201-0.385,0.694-0.91,1.478-1.576c0.81-0.677,1.336-0.967,1.576-0.87c0.213,0.109,0.774,0.569,1.686,1.381
				l0.95,0.944c0.262,0.222,0.23,0.385-0.091,0.488c-0.092,0.028-0.25,0.051-0.441,0.071c-0.05-0.272-0.097-0.523-0.136-0.725
				c-1.848,0.12-3.361,0.198-4.545,0.235c-0.011,0.181-0.027,0.39-0.046,0.614C18.685,21.614,18.539,21.427,18.752,21.072z"/>
		</g>
	</g>
	<g>
		<g>
			<g>
				<path fill-rule="evenodd" clip-rule="evenodd" fill="#999999" d="M34.641,27.609c0.066,0.466,0.184,1.017,0.35,1.65
					c0.034,0.2,0.184,0.833,0.45,1.9c-0.2,0.033-0.399,0.083-0.6,0.15c-0.7,0.167-1.417,0.35-2.15,0.55
					c-0.1-1-0.233-2.25-0.399-3.75c0.466-0.067,0.966-0.15,1.5-0.25h0.05C34.107,27.759,34.374,27.675,34.641,27.609z"/>
				<g>
					<path fill-rule="evenodd" clip-rule="evenodd" fill="#3798D4" d="M30.891,28.809c0-1.066,0-2.017,0-2.85
						c1.366-0.1,3.1-0.216,5.2-0.35c0.1,0.8,0.217,1.533,0.35,2.2C34.207,28.175,32.357,28.509,30.891,28.809z"/>
				</g>
			</g>
			<g>
				<path fill-rule="evenodd" clip-rule="evenodd" fill="#999999" d="M51.591,38.309c1.066-0.333,1.7-0.533,1.899-0.6
					c0.601-0.2,1.117-0.367,1.551-0.5c0.1,0.267,0.183,0.533,0.25,0.8c0.199,0.533,0.366,1.017,0.5,1.45
					c-1.301,0.633-2.417,1.166-3.351,1.6c-0.2-0.767-0.416-1.483-0.649-2.15C51.724,38.709,51.657,38.509,51.591,38.309z"/>
				<g>
					<path fill-rule="evenodd" clip-rule="evenodd" fill="#3798D4" d="M56.091,41.158c-0.5-1.467-1.15-3.25-1.95-5.35
						c0.634-0.233,1.333-0.5,2.1-0.8c0.934,1.866,1.717,3.417,2.351,4.649C57.891,40.092,57.058,40.592,56.091,41.158z"/>
				</g>
			</g>
			<g>
				<path fill-rule="evenodd" clip-rule="evenodd" fill="#999999" d="M47.49,29.059c0.5,0.133,0.917,0.267,1.25,0.4
					c-0.3,0.633-1.1,2.184-2.399,4.651l-3.851-1.551c0.134-0.3,0.884-1.717,2.25-4.25C45.607,28.542,46.524,28.792,47.49,29.059z"/>
				<g>
					<g>
						<path fill-rule="evenodd" clip-rule="evenodd" fill="#333333" d="M44.591,26.958c0.5,0.233,1.416,0.6,2.75,1.1
							c1.333,0.567,2.166,0.867,2.5,0.9c0.366,0.034,0.467-0.117,0.3-0.45l-0.55-1.35c-0.566-1.2-0.934-1.9-1.101-2.1
							c-0.199-0.2-0.85-0.133-1.949,0.2c-1.067,0.333-1.784,0.65-2.15,0.95C44.024,26.476,44.091,26.726,44.591,26.958z
							 M43.19,25.759c0.4-0.267,1.084-0.617,2.05-1.05c0.967-0.466,1.851-0.783,2.65-0.95c0.8-0.2,1.533,0.417,2.2,1.85
							c0.633,1.433,1.066,2.6,1.3,3.5c0.233,0.933-0.1,1.3-1,1.1c-1.033-0.367-2.4-0.883-4.1-1.55c-1.233-0.5-2.351-0.933-3.351-1.3
							C41.974,26.958,42.058,26.425,43.19,25.759z"/>
					</g>
				</g>
				<g>
					<path fill-rule="evenodd" clip-rule="evenodd" fill="#3798D4" d="M44.891,26.359c1.2,0.466,2.75,1.033,4.65,1.7
						c-0.134,0.633-0.351,1.583-0.65,2.85c-1.134-0.433-2.05-0.783-2.75-1.05c-0.6-0.267-1.467-0.6-2.6-1
						C44.141,27.792,44.591,26.958,44.891,26.359z"/>
				</g>
			</g>
			<g>
				<path fill-rule="evenodd" clip-rule="evenodd" fill="#3798D4" d="M23.19,39.009c1.934-4.067,5.101-6.85,9.5-8.35
					c4.334-1.5,8.617-1.25,12.851,0.75c4.199,2,7.1,5.167,8.699,9.5c1.601,4.334,1.417,8.567-0.55,12.701
					c-1.934,4.1-5.1,6.883-9.5,8.35c-4.333,1.5-8.616,1.25-12.85-0.75c-4.2-2-7.101-5.167-8.7-9.5
					C21.041,47.375,21.224,43.143,23.19,39.009z"/>
				<g>
					<path fill-rule="evenodd" clip-rule="evenodd" fill="#E8F6FC" d="M32.341,58.809c-3.467-1.6-5.867-4.15-7.2-7.65
						c-1.3-3.566-1.116-7.066,0.55-10.5c1.634-3.5,4.3-5.933,8-7.299c3.7-1.401,7.334-1.317,10.9,0.25
						c3.566,1.533,6.033,4.116,7.399,7.75c1.334,3.6,1.134,7.166-0.6,10.699c-1.733,3.467-4.467,5.867-8.2,7.2
						C39.49,60.559,35.874,60.408,32.341,58.809z"/>
				</g>
			</g>
			<g>
				<path fill-rule="evenodd" clip-rule="evenodd" fill="#333333" d="M38.091,48.209c-0.5-0.134-1.017-0.283-1.55-0.45v-0.05
					c2.966-5.566,4.75-8.884,5.35-9.95c0.3,0.066,0.684,0.167,1.15,0.3c-0.567,1.233-1.233,2.633-2,4.2
					C39.808,44.792,38.824,46.775,38.091,48.209z"/>
			</g>
			<g>
				<path fill-rule="evenodd" clip-rule="evenodd" fill="#333333" d="M36.791,46.309v-0.05c3.733-0.233,5.949-0.351,6.649-0.351
					h0.05c0,0.301,0.017,0.75,0.051,1.351c-0.801,0.101-1.7,0.217-2.7,0.351c-1.634,0.199-2.934,0.35-3.9,0.449
					C36.907,47.492,36.857,46.908,36.791,46.309z"/>
			</g>
			<g>
				<path fill-rule="evenodd" clip-rule="evenodd" fill="#333333" d="M31.99,37.359c0.601,0.933,1.217,1.933,1.851,3
					c1.934,3.232,3.45,5.783,4.55,7.649c-0.1,0.066-0.2,0.134-0.3,0.2c-2.934-4.9-5.05-8.467-6.351-10.7
					C31.841,37.476,31.924,37.426,31.99,37.359z"/>
			</g>
			<g opacity="0.5">
				<path fill-rule="evenodd" clip-rule="evenodd" fill="#FFFFFF" d="M39.44,36.209c2.667,1.3,4.667,3.066,6,5.3
					c1.367,2.2,2.584,3.45,3.65,3.75c1.033,0.233,2.1-0.05,3.2-0.851c0.1-0.1,0.233-0.217,0.399-0.35
					c0.101,0.667,0.15,1.316,0.15,1.95c-0.134,0.167-0.283,0.333-0.45,0.5c-1.333,1.467-2.783,2.183-4.35,2.149
					c-1.601-0.066-2.934-0.866-4-2.399c-1.067-1.533-2.917-2.917-5.551-4.149c-2.633-1.234-5.333-1.217-8.1,0.049
					c-2.767,1.234-4.783,3.084-6.05,5.551c-0.2-2.367,0.25-4.717,1.35-7.051c1.101-2.366,2.667-4.25,4.7-5.649
					C33.791,34.441,36.808,34.842,39.44,36.209z"/>
			</g>
		</g>
	</g>
</g>
</svg>
