<?xml version="1.0" encoding="utf-8"?>
<!-- Generator: Adobe Illustrator 24.0.0, SVG Export Plug-In . SVG Version: 6.00 Build 0)  -->
<svg version="1.1" id="Calque_1" xmlns="http://www.w3.org/2000/svg" xmlns:xlink="http://www.w3.org/1999/xlink" x="0px" y="0px"
	 viewBox="0 0 35 35" style="enable-background:new 0 0 35 35;" xml:space="preserve">
<style type="text/css">
	.st0{fill:none;stroke:#FFFFFF;stroke-width:1.5;stroke-linecap:round;stroke-linejoin:round;stroke-miterlimit:10;}
	.st1{fill:none;stroke:#FFFFFF;stroke-width:1.5;stroke-linecap:round;stroke-miterlimit:10;}
</style>
<g>
	<path class="st0" d="M-136.4,13.8h-9.1c-0.8,0-1.5-0.7-1.5-1.5V7.9V6.7c0-0.8,0.7-1.5,1.5-1.5h9.1c0.8,0,1.5,0.7,1.5,1.5v5.6
		C-134.9,13.2-135.5,13.8-136.4,13.8z"/>
	<g>
		<g>
			<polyline class="st1" points="-146.2,7.9 -145.2,7.9 -140.6,7.9 -139.7,7.9 			"/>
			<line class="st1" x1="-137.4" y1="7.9" x2="-137.5" y2="7.9"/>
		</g>
	</g>
	<path class="st0" d="M-134.1,29.8h-9.1c-0.8,0-1.5-0.7-1.5-1.5v-4.4v-1.2c0-0.8,0.7-1.5,1.5-1.5h9.1c0.8,0,1.5,0.7,1.5,1.5v5.6
		C-132.6,29.1-133.3,29.8-134.1,29.8z"/>
	<g>
		<g>
			<polyline class="st1" points="-144,23.8 -143,23.8 -138.3,23.8 -137.5,23.8 			"/>
			<line class="st1" x1="-135.1" y1="23.8" x2="-135.2" y2="23.8"/>
		</g>
	</g>
	<path class="st0" d="M-119.6,22.4h-9.1c-0.8,0-1.5-0.7-1.5-1.5v-4.4v-1.2c0-0.8,0.7-1.5,1.5-1.5h9.1c0.8,0,1.5,0.7,1.5,1.5v5.6
		C-118.1,21.8-118.7,22.4-119.6,22.4z"/>
	<g>
		<g>
			<polyline class="st1" points="-129.4,16.5 -128.4,16.5 -123.7,16.5 -122.9,16.5 			"/>
			<line class="st1" x1="-120.5" y1="16.5" x2="-120.7" y2="16.5"/>
		</g>
	</g>
	<path class="st0" d="M-132.6,9.2h6c0.6,0,1,0.4,1,1v1.5"/>
	<line class="st0" x1="-139.7" y1="15.8" x2="-139.7" y2="19.2"/>
</g>
<g>
	<path class="st0" d="M-72.3,27.2h-20.5c-1.9,0-3.4-1.5-3.4-3.4v-10v-2.6c0-1.9,1.5-3.4,3.4-3.4h20.5c1.9,0,3.4,1.5,3.4,3.4v12.6
		C-68.9,25.7-70.4,27.2-72.3,27.2z"/>
	<g>
		<g>
			<polyline class="st1" points="-95.4,13.8 -94.4,13.8 -76.8,13.8 -75.9,13.8 			"/>
			<line class="st1" x1="-73.6" y1="13.8" x2="-73.7" y2="13.8"/>
		</g>
	</g>
</g>
<g>
	<polyline class="st0" points="-35.2,7.6 -34.6,12.2 -30.5,11.6 -35.2,7.6 -45.1,9.2 -41.9,30.4 -27.5,28.2 -28.8,20 	"/>
	<g>
		<g>
			<path class="st1" d="M-40,20.5l0.8,0.6l1.3,1l0.7,0.5c0.3,0.1,0.4-0.3,0.6-0.5l1.9-2.6l0.5-0.7"/>
			<line class="st1" x1="-32.9" y1="16.8" x2="-33" y2="16.9"/>
		</g>
	</g>
	<g>
		<polygon class="st0" points="-19.9,6.5 -27.5,16.9 -30.1,17.7 -30.2,15 -22.6,4.6 		"/>
	</g>
</g>
<g>
	<path class="st0" d="M22.5,15h10.9c0.6,0,1-0.4,1-1V2.3c0-0.6-0.4-1-1-1H21.8c-0.6,0-1,0.4-1,1v10.9l-1.6,3.3L22.5,15z"/>
	<g>
		<polyline class="st0" points="26.4,7.6 27.3,7.6 27.3,11.9 		"/>
		<line class="st0" x1="27.3" y1="4.9" x2="27.3" y2="4.9"/>
	</g>
	<polygon class="st0" points="18.5,30 9.5,33.7 0.6,30 0.6,19.1 9.5,15.4 18.5,19.1 	"/>
	<polyline class="st0" points="18.5,19.1 9.5,22.7 0.6,19.1 	"/>
	<g>
		<g>
			<polyline class="st1" points="9.5,23.5 9.5,24.5 9.5,26.7 9.5,27.6 			"/>
			<line class="st1" x1="9.5" y1="29.9" x2="9.5" y2="29.8"/>
		</g>
	</g>
	<line class="st0" x1="4.4" y1="26.4" x2="4.4" y2="26.4"/>
	<line class="st0" x1="9.5" y1="18.9" x2="9.5" y2="18.9"/>
	<line class="st0" x1="6.7" y1="18.9" x2="6.7" y2="18.9"/>
	<line class="st0" x1="12.4" y1="18.9" x2="12.4" y2="18.9"/>
	<line class="st0" x1="15.6" y1="27.7" x2="15.6" y2="27.7"/>
	<line class="st0" x1="12.6" y1="24.8" x2="12.6" y2="24.8"/>
</g>
</svg>
