<?xml version="1.0" encoding="utf-8"?>
<!-- Generator: Adobe Illustrator 24.0.0, SVG Export Plug-In . SVG Version: 6.00 Build 0)  -->
<svg version="1.1" id="Calque_1" xmlns="http://www.w3.org/2000/svg" xmlns:xlink="http://www.w3.org/1999/xlink" x="0px" y="0px"
	 viewBox="0 0 35 35" style="enable-background:new 0 0 35 35;" xml:space="preserve">
<style type="text/css">
	.st0{fill:none;stroke:#FFFFFF;stroke-width:1.5;stroke-linecap:round;stroke-linejoin:round;stroke-miterlimit:10;}
	.st1{fill:none;stroke:#FFFFFF;stroke-width:1.5;stroke-linecap:round;stroke-miterlimit:10;}
</style>
<g>
	<path class="st0" d="M13.6,13.8H4.6c-0.8,0-1.5-0.7-1.5-1.5V7.9V6.7c0-0.8,0.7-1.5,1.5-1.5h9.1c0.8,0,1.5,0.7,1.5,1.5v5.6
		C15.1,13.2,14.5,13.8,13.6,13.8z"/>
	<g>
		<g>
			<polyline class="st1" points="3.8,7.9 4.8,7.9 9.4,7.9 10.3,7.9 			"/>
			<line class="st1" x1="12.6" y1="7.9" x2="12.5" y2="7.9"/>
		</g>
	</g>
	<path class="st0" d="M15.9,29.8H6.8c-0.8,0-1.5-0.7-1.5-1.5v-4.4v-1.2c0-0.8,0.7-1.5,1.5-1.5h9.1c0.8,0,1.5,0.7,1.5,1.5v5.6
		C17.4,29.1,16.7,29.8,15.9,29.8z"/>
	<g>
		<g>
			<polyline class="st1" points="6,23.8 7,23.8 11.7,23.8 12.5,23.8 			"/>
			<line class="st1" x1="14.9" y1="23.8" x2="14.8" y2="23.8"/>
		</g>
	</g>
	<path class="st0" d="M30.4,22.4h-9.1c-0.8,0-1.5-0.7-1.5-1.5v-4.4v-1.2c0-0.8,0.7-1.5,1.5-1.5h9.1c0.8,0,1.5,0.7,1.5,1.5v5.6
		C31.9,21.8,31.3,22.4,30.4,22.4z"/>
	<g>
		<g>
			<polyline class="st1" points="20.6,16.5 21.6,16.5 26.3,16.5 27.1,16.5 			"/>
			<line class="st1" x1="29.5" y1="16.5" x2="29.3" y2="16.5"/>
		</g>
	</g>
	<path class="st0" d="M17.4,9.2h6c0.6,0,1,0.4,1,1v1.5"/>
	<line class="st0" x1="10.3" y1="15.8" x2="10.3" y2="19.2"/>
</g>
<g>
	<path class="st0" d="M77.7,27.2H57.3c-1.9,0-3.4-1.5-3.4-3.4v-10v-2.6c0-1.9,1.5-3.4,3.4-3.4h20.5c1.9,0,3.4,1.5,3.4,3.4v12.6
		C81.1,25.7,79.6,27.2,77.7,27.2z"/>
	<g>
		<g>
			<polyline class="st1" points="54.6,13.8 55.6,13.8 73.2,13.8 74.1,13.8 			"/>
			<line class="st1" x1="76.4" y1="13.8" x2="76.3" y2="13.8"/>
		</g>
	</g>
</g>
<g>
	<polyline class="st0" points="114.8,7.6 115.4,12.2 119.5,11.6 114.8,7.6 104.9,9.2 108.1,30.4 122.5,28.2 121.2,20 	"/>
	<g>
		<g>
			<path class="st1" d="M110,20.5l0.8,0.6l1.3,1l0.7,0.5c0.3,0.1,0.4-0.3,0.6-0.5l1.9-2.6l0.5-0.7"/>
			<line class="st1" x1="117.1" y1="16.8" x2="117" y2="16.9"/>
		</g>
	</g>
	<g>
		<polygon class="st0" points="130.1,6.5 122.5,16.9 119.9,17.7 119.8,15 127.4,4.6 		"/>
	</g>
</g>
<g>
	<path class="st0" d="M172.5,15h10.9c0.6,0,1-0.4,1-1V2.3c0-0.6-0.4-1-1-1h-11.6c-0.6,0-1,0.4-1,1v10.9l-1.6,3.3L172.5,15z"/>
	<g>
		<polyline class="st0" points="176.4,7.6 177.3,7.6 177.3,11.9 		"/>
		<line class="st0" x1="177.3" y1="4.9" x2="177.3" y2="4.9"/>
	</g>
	<polygon class="st0" points="168.5,30 159.5,33.7 150.6,30 150.6,19.1 159.5,15.4 168.5,19.1 	"/>
	<polyline class="st0" points="168.5,19.1 159.5,22.7 150.6,19.1 	"/>
	<g>
		<g>
			<polyline class="st1" points="159.5,23.5 159.5,24.5 159.5,26.7 159.5,27.6 			"/>
			<line class="st1" x1="159.5" y1="29.9" x2="159.5" y2="29.8"/>
		</g>
	</g>
	<line class="st0" x1="154.4" y1="26.4" x2="154.4" y2="26.4"/>
	<line class="st0" x1="159.5" y1="18.9" x2="159.5" y2="18.9"/>
	<line class="st0" x1="156.7" y1="18.9" x2="156.7" y2="18.9"/>
	<line class="st0" x1="162.4" y1="18.9" x2="162.4" y2="18.9"/>
	<line class="st0" x1="165.6" y1="27.7" x2="165.6" y2="27.7"/>
	<line class="st0" x1="162.6" y1="24.8" x2="162.6" y2="24.8"/>
</g>
</svg>
