<?xml version="1.0" encoding="utf-8"?>
<!-- Generator: Adobe Illustrator 24.0.0, SVG Export Plug-In . SVG Version: 6.00 Build 0)  -->
<svg version="1.1" id="Calque_1" xmlns="http://www.w3.org/2000/svg" xmlns:xlink="http://www.w3.org/1999/xlink" x="0px" y="0px"
	 viewBox="0 0 35 35" style="enable-background:new 0 0 35 35;" xml:space="preserve">
<style type="text/css">
	.st0{fill:none;stroke:#FFFFFF;stroke-width:1.5;stroke-linecap:round;stroke-linejoin:round;stroke-miterlimit:10;}
	.st1{fill:none;stroke:#FFFFFF;stroke-width:1.5;stroke-linecap:round;stroke-miterlimit:10;}
</style>
<g>
	<path class="st0" d="M-36.4,13.8h-9.1c-0.8,0-1.5-0.7-1.5-1.5V7.9V6.7c0-0.8,0.7-1.5,1.5-1.5h9.1c0.8,0,1.5,0.7,1.5,1.5v5.6
		C-34.9,13.2-35.5,13.8-36.4,13.8z"/>
	<g>
		<g>
			<polyline class="st1" points="-46.2,7.9 -45.2,7.9 -40.6,7.9 -39.7,7.9 			"/>
			<line class="st1" x1="-37.4" y1="7.9" x2="-37.5" y2="7.9"/>
		</g>
	</g>
	<path class="st0" d="M-34.1,29.8h-9.1c-0.8,0-1.5-0.7-1.5-1.5v-4.4v-1.2c0-0.8,0.7-1.5,1.5-1.5h9.1c0.8,0,1.5,0.7,1.5,1.5v5.6
		C-32.6,29.1-33.3,29.8-34.1,29.8z"/>
	<g>
		<g>
			<polyline class="st1" points="-44,23.8 -43,23.8 -38.3,23.8 -37.5,23.8 			"/>
			<line class="st1" x1="-35.1" y1="23.8" x2="-35.2" y2="23.8"/>
		</g>
	</g>
	<path class="st0" d="M-19.6,22.4h-9.1c-0.8,0-1.5-0.7-1.5-1.5v-4.4v-1.2c0-0.8,0.7-1.5,1.5-1.5h9.1c0.8,0,1.5,0.7,1.5,1.5v5.6
		C-18.1,21.8-18.7,22.4-19.6,22.4z"/>
	<g>
		<g>
			<polyline class="st1" points="-29.4,16.5 -28.4,16.5 -23.7,16.5 -22.9,16.5 			"/>
			<line class="st1" x1="-20.5" y1="16.5" x2="-20.7" y2="16.5"/>
		</g>
	</g>
	<path class="st0" d="M-32.6,9.2h6c0.6,0,1,0.4,1,1v1.5"/>
	<line class="st0" x1="-39.7" y1="15.8" x2="-39.7" y2="19.2"/>
</g>
<g>
	<path class="st0" d="M27.7,27.2H7.3c-1.9,0-3.4-1.5-3.4-3.4v-10v-2.6c0-1.9,1.5-3.4,3.4-3.4h20.5c1.9,0,3.4,1.5,3.4,3.4v12.6
		C31.1,25.7,29.6,27.2,27.7,27.2z"/>
	<g>
		<g>
			<polyline class="st1" points="4.6,13.8 5.6,13.8 23.2,13.8 24.1,13.8 			"/>
			<line class="st1" x1="26.4" y1="13.8" x2="26.3" y2="13.8"/>
		</g>
	</g>
</g>
<g>
	<polyline class="st0" points="64.8,7.6 65.4,12.2 69.5,11.6 64.8,7.6 54.9,9.2 58.1,30.4 72.5,28.2 71.2,20 	"/>
	<g>
		<g>
			<path class="st1" d="M60,20.5l0.8,0.6l1.3,1l0.7,0.5c0.3,0.1,0.4-0.3,0.6-0.5l1.9-2.6l0.5-0.7"/>
			<line class="st1" x1="67.1" y1="16.8" x2="67" y2="16.9"/>
		</g>
	</g>
	<g>
		<polygon class="st0" points="80.1,6.5 72.5,16.9 69.9,17.7 69.8,15 77.4,4.6 		"/>
	</g>
</g>
<g>
	<path class="st0" d="M122.5,15h10.9c0.6,0,1-0.4,1-1V2.3c0-0.6-0.4-1-1-1h-11.6c-0.6,0-1,0.4-1,1v10.9l-1.6,3.3L122.5,15z"/>
	<g>
		<polyline class="st0" points="126.4,7.6 127.3,7.6 127.3,11.9 		"/>
		<line class="st0" x1="127.3" y1="4.9" x2="127.3" y2="4.9"/>
	</g>
	<polygon class="st0" points="118.5,30 109.5,33.7 100.6,30 100.6,19.1 109.5,15.4 118.5,19.1 	"/>
	<polyline class="st0" points="118.5,19.1 109.5,22.7 100.6,19.1 	"/>
	<g>
		<g>
			<polyline class="st1" points="109.5,23.5 109.5,24.5 109.5,26.7 109.5,27.6 			"/>
			<line class="st1" x1="109.5" y1="29.9" x2="109.5" y2="29.8"/>
		</g>
	</g>
	<line class="st0" x1="104.4" y1="26.4" x2="104.4" y2="26.4"/>
	<line class="st0" x1="109.5" y1="18.9" x2="109.5" y2="18.9"/>
	<line class="st0" x1="106.7" y1="18.9" x2="106.7" y2="18.9"/>
	<line class="st0" x1="112.4" y1="18.9" x2="112.4" y2="18.9"/>
	<line class="st0" x1="115.6" y1="27.7" x2="115.6" y2="27.7"/>
	<line class="st0" x1="112.6" y1="24.8" x2="112.6" y2="24.8"/>
</g>
</svg>
