<?xml version="1.0" encoding="utf-8"?>
<!-- Generator: Adobe Illustrator 24.0.0, SVG Export Plug-In . SVG Version: 6.00 Build 0)  -->
<svg version="1.1" id="Calque_1" xmlns="http://www.w3.org/2000/svg" xmlns:xlink="http://www.w3.org/1999/xlink" x="0px" y="0px"
	 viewBox="0 0 35 35" style="enable-background:new 0 0 35 35;" xml:space="preserve">
<style type="text/css">
	.st0{fill:none;stroke:#FFFFFF;stroke-width:1.5;stroke-linecap:round;stroke-linejoin:round;stroke-miterlimit:10;}
	.st1{fill:none;stroke:#FFFFFF;stroke-width:1.5;stroke-linecap:round;stroke-miterlimit:10;}
</style>
<g>
	<path class="st0" d="M-86.4,13.8h-9.1c-0.8,0-1.5-0.7-1.5-1.5V7.9V6.7c0-0.8,0.7-1.5,1.5-1.5h9.1c0.8,0,1.5,0.7,1.5,1.5v5.6
		C-84.9,13.2-85.5,13.8-86.4,13.8z"/>
	<g>
		<g>
			<polyline class="st1" points="-96.2,7.9 -95.2,7.9 -90.6,7.9 -89.7,7.9 			"/>
			<line class="st1" x1="-87.4" y1="7.9" x2="-87.5" y2="7.9"/>
		</g>
	</g>
	<path class="st0" d="M-84.1,29.8h-9.1c-0.8,0-1.5-0.7-1.5-1.5v-4.4v-1.2c0-0.8,0.7-1.5,1.5-1.5h9.1c0.8,0,1.5,0.7,1.5,1.5v5.6
		C-82.6,29.1-83.3,29.8-84.1,29.8z"/>
	<g>
		<g>
			<polyline class="st1" points="-94,23.8 -93,23.8 -88.3,23.8 -87.5,23.8 			"/>
			<line class="st1" x1="-85.1" y1="23.8" x2="-85.2" y2="23.8"/>
		</g>
	</g>
	<path class="st0" d="M-69.6,22.4h-9.1c-0.8,0-1.5-0.7-1.5-1.5v-4.4v-1.2c0-0.8,0.7-1.5,1.5-1.5h9.1c0.8,0,1.5,0.7,1.5,1.5v5.6
		C-68.1,21.8-68.7,22.4-69.6,22.4z"/>
	<g>
		<g>
			<polyline class="st1" points="-79.4,16.5 -78.4,16.5 -73.7,16.5 -72.9,16.5 			"/>
			<line class="st1" x1="-70.5" y1="16.5" x2="-70.7" y2="16.5"/>
		</g>
	</g>
	<path class="st0" d="M-82.6,9.2h6c0.6,0,1,0.4,1,1v1.5"/>
	<line class="st0" x1="-89.7" y1="15.8" x2="-89.7" y2="19.2"/>
</g>
<g>
	<path class="st0" d="M-22.3,27.2h-20.5c-1.9,0-3.4-1.5-3.4-3.4v-10v-2.6c0-1.9,1.5-3.4,3.4-3.4h20.5c1.9,0,3.4,1.5,3.4,3.4v12.6
		C-18.9,25.7-20.4,27.2-22.3,27.2z"/>
	<g>
		<g>
			<polyline class="st1" points="-45.4,13.8 -44.4,13.8 -26.8,13.8 -25.9,13.8 			"/>
			<line class="st1" x1="-23.6" y1="13.8" x2="-23.7" y2="13.8"/>
		</g>
	</g>
</g>
<g>
	<polyline class="st0" points="14.8,7.6 15.4,12.2 19.5,11.6 14.8,7.6 4.9,9.2 8.1,30.4 22.5,28.2 21.2,20 	"/>
	<g>
		<g>
			<path class="st1" d="M10,20.5l0.8,0.6l1.3,1l0.7,0.5c0.3,0.1,0.4-0.3,0.6-0.5l1.9-2.6l0.5-0.7"/>
			<line class="st1" x1="17.1" y1="16.8" x2="17" y2="16.9"/>
		</g>
	</g>
	<g>
		<polygon class="st0" points="30.1,6.5 22.5,16.9 19.9,17.7 19.8,15 27.4,4.6 		"/>
	</g>
</g>
<g>
	<path class="st0" d="M72.5,15h10.9c0.6,0,1-0.4,1-1V2.3c0-0.6-0.4-1-1-1H71.8c-0.6,0-1,0.4-1,1v10.9l-1.6,3.3L72.5,15z"/>
	<g>
		<polyline class="st0" points="76.4,7.6 77.3,7.6 77.3,11.9 		"/>
		<line class="st0" x1="77.3" y1="4.9" x2="77.3" y2="4.9"/>
	</g>
	<polygon class="st0" points="68.5,30 59.5,33.7 50.6,30 50.6,19.1 59.5,15.4 68.5,19.1 	"/>
	<polyline class="st0" points="68.5,19.1 59.5,22.7 50.6,19.1 	"/>
	<g>
		<g>
			<polyline class="st1" points="59.5,23.5 59.5,24.5 59.5,26.7 59.5,27.6 			"/>
			<line class="st1" x1="59.5" y1="29.9" x2="59.5" y2="29.8"/>
		</g>
	</g>
	<line class="st0" x1="54.4" y1="26.4" x2="54.4" y2="26.4"/>
	<line class="st0" x1="59.5" y1="18.9" x2="59.5" y2="18.9"/>
	<line class="st0" x1="56.7" y1="18.9" x2="56.7" y2="18.9"/>
	<line class="st0" x1="62.4" y1="18.9" x2="62.4" y2="18.9"/>
	<line class="st0" x1="65.6" y1="27.7" x2="65.6" y2="27.7"/>
	<line class="st0" x1="62.6" y1="24.8" x2="62.6" y2="24.8"/>
</g>
</svg>
