<svg xmlns="http://www.w3.org/2000/svg" xmlns:xlink="http://www.w3.org/1999/xlink" viewBox="0 0 300 300"><defs><style>.cls-1{fill:none;clip-rule:evenodd;}.cls-2{isolation:isolate;}.cls-3{fill:#bec7e4;}.cls-11,.cls-12,.cls-13,.cls-15,.cls-16,.cls-17,.cls-18,.cls-3,.cls-4,.cls-5,.cls-8,.cls-9{fill-rule:evenodd;}.cls-3,.cls-7,.cls-9{opacity:0.5;mix-blend-mode:multiply;}.cls-4{fill:#ff4e5e;}.cls-5{fill:#333;}.cls-6{clip-path:url(#clip-path);}.cls-8,.cls-9{fill:#8e7554;}.cls-10{clip-path:url(#clip-path-2);}.cls-11{fill:#9fad6c;}.cls-12{fill:#cad8a4;}.cls-13{fill:#acd1f9;}.cls-14{clip-path:url(#clip-path-3);}.cls-15{fill:#5a94bf;}.cls-16{fill:#a3481f;}.cls-17{fill:#fff;}.cls-18{fill:#95c1e8;}.cls-19{clip-path:url(#clip-path-4);}</style><clipPath id="clip-path"><path class="cls-1" d="M117.92,201,127.61,215l-20.45,15.83s-1.3,1.54-7.09.95C100.07,231.82,75.61,207.59,117.92,201Z"/></clipPath><clipPath id="clip-path-2"><path class="cls-1" d="M160.7,239.15s-1.3,2-5.91,1.41S152,236,152,236l-18.43-24.35,11.69-8.27S180.43,219.06,160.7,239.15Z"/></clipPath><clipPath id="clip-path-3"><path class="cls-1" d="M98.73,137.23a133.2,133.2,0,0,1,10.17,9.57q9.7,9.76,15.1,14.27v7.23c0,.59-.09,1.13-.12,1.6q-5.66-6.18-7.3-8c-1.15-1.25-3.08-3.14-5.78-5.7a56.34,56.34,0,0,0-7.87-6.35l-6.78-2.7-6.1-2.45.58-2.18q2.07-.78,7.17-.32l-5.7-8.8c0-.52.06-1.05.08-1.58Q93.28,132.59,98.73,137.23Z"/></clipPath><clipPath id="clip-path-4"><path class="cls-1" d="M166.8,158.25a3,3,0,0,1-.25,2A38.12,38.12,0,0,0,156,157.3a7.15,7.15,0,0,0-.65,1.25q-.6.38-1.35-.9a32.24,32.24,0,0,0-6.25,4,39.63,39.63,0,0,0-7.1,8,1.88,1.88,0,0,1-1.6,1c-1,0-1.35-.71-2.1-2a6.52,6.52,0,0,1,.33-5.41,32,32,0,0,1,4.6-4.06,77.65,77.65,0,0,1,7.72-4.83,19.33,19.33,0,0,1,7.83-2.5l10.17-.69a1.28,1.28,0,0,1-.65,1.22,23.24,23.24,0,0,0-5.05,1.93,23.31,23.31,0,0,1,3,2.17A9.76,9.76,0,0,1,166.8,158.25Z"/></clipPath></defs><title>Plan de travail 71</title><g class="cls-2"><g id="perso"><path class="cls-3" d="M119,240.25c-12.16-.19-31,2.09-30,4.75,1.75,4.89,17.67,1.33,30.21,2.28s33.19,9.3,47.89,6.65C176.53,252.22,158.67,240.87,119,240.25Z"/><path class="cls-4" d="M146.83,205.4q-.79,6.27-5.15,8.65a20.1,20.1,0,0,1-10.53,2.17A14.3,14.3,0,0,1,120.6,211a16.54,16.54,0,0,1-4.2-10.82q4.16,1,10.1,2.12Q136.07,204.06,146.83,205.4Z"/><path class="cls-5" d="M145.5,249.22c.13-1.37,1.24-2.88,3.35-4.52a55.92,55.92,0,0,1,1.65-5.77,27.11,27.11,0,0,1,6.55.07,22.83,22.83,0,0,1,6.8,2.32q-1.71,1.35-5.85,4.78a52.42,52.42,0,0,1,10.6,6,39.32,39.32,0,0,1-9.92-.57,91,91,0,0,0-9.35-1.35C146.87,250,145.6,249.67,145.5,249.22Z"/><path class="cls-5" d="M106.8,229.15h2.75c-.1,1.57-.16,2.48-.2,2.75v4.4c.43.69,1,1.7,1.7,3s.57,2.29-.4,2.88a13.53,13.53,0,0,1-1.42.25c-.7.1-1.79.2-3.25.3a27.6,27.6,0,0,0-5.9,1.28,26.92,26.92,0,0,1-9.68.6,57,57,0,0,1,10.7-7.28q-2.84-3.34-4.4-5a17,17,0,0,1,3.43-1.75A20.09,20.09,0,0,1,106.8,229.15Z"/><g class="cls-6"><path class="cls-4" d="M101.3,229q-3.64-8.81-3.6-9.6a4.15,4.15,0,0,1,1.5-2.2q1.35-1.45,11.8-8.1l5.4-3.5c0-.07,0-.17-.1-.3a1.18,1.18,0,0,1-.25-.5c-.07-.2.37-.15,1.3.15a.16.16,0,0,1,.1.05l.75-.45a1.74,1.74,0,0,0,.3.4,4.55,4.55,0,0,0,.4.45q.94,1.31,2.55,3.9c-.07,0-1,.37-2.85,1s-4.83,2.48-8.9,5.55-6.18,5.17-6.45,6.3c.7.5,1,.85.85,1a1.75,1.75,0,0,1-.9.3l2.25,6.05q.9,2.4,1.5,3.9l-1-.15c-.87-.13-1.68-.27-2.45-.4a2,2,0,0,1-.65-.15Q102.31,231.45,101.3,229Z"/><g class="cls-7"><path class="cls-8" d="M99.5,221.3a76,76,0,0,1,6,11.75c-.7-.17-1.38-.3-2-.4a2,2,0,0,1-.65-.15q-.5-1.31-1.5-3.75-1.6-3.85-2.2-5.4T98.3,221a.16.16,0,0,0,0-.1,3.1,3.1,0,0,0,.75.35A1.57,1.57,0,0,0,99.5,221.3Z"/></g><path class="cls-9" d="M116.1,204.55c.77.87,1.37,1.53,1.8,2q-.65-.35-1.5-.75a1.05,1.05,0,0,0-.3-.15l.15-.2c0-.07,0-.17-.1-.3a1.18,1.18,0,0,1-.25-.5C115.87,204.58,115.93,204.55,116.1,204.55Zm-14.9,18.2c1,.13,1.5.1,1.6-.1s-.18-.68-.85-1.35a.16.16,0,0,1,0-.1,34.78,34.78,0,0,1,8.2-7.4,32.41,32.41,0,0,1,5.7-3c-1-.3-2.05-.62-3.25-1,1.07,0,2.13,0,3.2.05.9,0,2.08.07,3.55.2a6.52,6.52,0,0,0-.7.25,12.2,12.2,0,0,0-1.7.75,54.37,54.37,0,0,0-7.2,4.8q-6,4.6-6.45,6.3c.7.5,1,.85.85,1.05a1.75,1.75,0,0,1-.9.3,1,1,0,0,1,.15.35c.23.6.47,1.18.7,1.75a8,8,0,0,1-2-2.15c-.23-.1-.7-.33-1.4-.7a1.63,1.63,0,0,0-.4-.15A1.91,1.91,0,0,1,101.2,222.75Z"/></g><g class="cls-10"><path class="cls-4" d="M145.4,208.2h.1c1,0,1.42.08,1.35.23a1.67,1.67,0,0,1-.32.42c-.16.13-.22.23-.2.3l5.1,5.3q9.8,10.2,11.07,12.1a6,6,0,0,1,1.25,2.75q0,.82-4.5,8.73c-.83,1.47-1.47,2.63-1.92,3.47l-.65-.1-2.5-.35-1-.15c.49-1,1.1-2.14,1.83-3.58l2.87-5.57a1.59,1.59,0,0,1-.85-.6c-.13-.23.19-.48.95-.75q-.25-1.91-5.87-8.55t-8.33-8.53c-1.81-1.26-2.74-1.91-2.8-2a37.32,37.32,0,0,1,3-3.15l.45-.4.35-.33Z"/><path class="cls-9" d="M162.25,231a2,2,0,0,0,.73-.15l0,.08a20.41,20.41,0,0,1-1,2.27c-.48.91-1.37,2.51-2.68,4.83-.83,1.47-1.47,2.63-1.92,3.47l-.65-.1-2.08-.27a66.29,66.29,0,0,1,7.08-10.23A1.35,1.35,0,0,0,162.25,231Z"/><g class="cls-7"><path class="cls-8" d="M146.53,209.38l-.33.07-1.57.27c.49-.31,1.16-.8,2-1.44.16,0,.23.08.2.15a1.67,1.67,0,0,1-.32.42c-.16.13-.22.23-.2.3Zm-2.78,3.94-.67-.47q2.23.51,3.57.9c1.06.31,2.1.63,3.13.95l-3.28-.07a45.49,45.49,0,0,1,5.4,4.92,50.94,50.94,0,0,1,7.5,10.23.47.47,0,0,1,0,.1c-.75.47-1.1.84-1,1.12s.58.48,1.55.6l.87.12-.4.08A13.37,13.37,0,0,1,159,232a6.13,6.13,0,0,1-2.15,1.67l.83-1.63c.06-.11.12-.21.17-.32a1.59,1.59,0,0,1-.85-.6c-.13-.23.19-.48.95-.75q-.25-1.91-5.87-8.55a79.68,79.68,0,0,0-6.75-7.25A18.23,18.23,0,0,0,143.75,213.32Z"/></g></g><path class="cls-11" d="M63.55,104.1a53,53,0,0,1-.3,5.75q-.41,3.6-12.3,3.6c-1.1,0-1.83-.92-2.2-2.75a11.62,11.62,0,0,1-.15-4.15,2.28,2.28,0,0,1-3.2-1.5,7.61,7.61,0,0,1-.4-2.7c0-.53.53-1.35,1.6-2.45a7.44,7.44,0,0,1,.58-.55,1.57,1.57,0,0,1-.88-.8,7.79,7.79,0,0,1,0-3c.18-1.66,1.81-2.85,4.87-3.57a23.82,23.82,0,0,1,5.63-1c.68.1,1.53.28,2.55.53S61,92,61.28,92l.12.23a17.17,17.17,0,0,1,1.5,5.15A49.52,49.52,0,0,1,63.55,104.1Z"/><path class="cls-12" d="M67,90a4.84,4.84,0,0,1,2.5,1.75,3.58,3.58,0,0,1,.65,2,1.43,1.43,0,0,1-.1.5c0,.37-.4,2.33-1.2,5.9a45,45,0,0,0-1.2,9.65c0,.5.18,2,.55,4.4v.15q5.05,4,10.75,8.3,9.52,7.26,12,9.3a14.1,14.1,0,0,0,.65,2.85q5.42,4.52,8.58,7.13c-.51,1.06-.78,1.65-.83,1.77-.12.3-.27.65-.45,1q-3.9-3-9.62-7.1-2.94-.79-11.63-9.94-6.6-6.95-12.82-13.46l-.58-.07a.65.65,0,0,1-.7-.45l0-.45v0q-5.54-2.37-4-9.6a3.13,3.13,0,0,1-1.08.2c-.8,0-1.2-.33-1.2-1a8.14,8.14,0,0,0,.25-1.45L57.5,99a37,37,0,0,0-.4-5.4,27.11,27.11,0,0,1-.45-3.75,3.77,3.77,0,0,1,.15-1.3,1.79,1.79,0,0,1,1.9-1,13.31,13.31,0,0,1,5,1.15C64.7,89,65.78,89.43,67,90Z"/><path class="cls-11" d="M63.6,93.17a13.57,13.57,0,0,1-.15,2.5s0,.1,0,.15c1,0,1.84,0,2.57-.07a3.62,3.62,0,0,1-2.62,1.13c0,.19-.06.45-.1.77a10.45,10.45,0,0,1-1.18,3.65,4.78,4.78,0,0,1-2.6,2.25,9.06,9.06,0,0,0,2.3-5.85,21.27,21.27,0,0,0-.75-4,6.9,6.9,0,0,0-.57-1.5,4.45,4.45,0,0,1-.18-.7q0-.94,1.35,1.35a11.06,11.06,0,0,1,.85,1.92c0-.21.06-.43.1-.67.27-2,.4-3.08.4-3.25l0-.05a1.35,1.35,0,0,1,.35.7A6.63,6.63,0,0,1,63.6,93.17Z"/><path class="cls-13" d="M98.73,137.23a133.2,133.2,0,0,1,10.17,9.57q9.7,9.76,15.1,14.27v7.23c0,.59-.09,1.13-.12,1.6q-5.66-6.18-7.3-8c-1.15-1.25-3.08-3.14-5.78-5.7a56.34,56.34,0,0,0-7.87-6.35l-6.78-2.7-6.1-2.45.58-2.18q2.07-.78,7.17-.32l-5.7-8.8c0-.52.06-1.05.08-1.58Q93.28,132.59,98.73,137.23Z"/><g class="cls-14"><path class="cls-15" d="M117.08,150.76s-.62,4.83,4.69,14.46c0,0-3.27-4.41-4.77-6.57,0,0,.08,5.38,6.25,11.63l2.38-9.88Z"/><path class="cls-15" d="M123.67,168.32c-.09-.25-15.92-16.09-19.25-19.09,0,0,1.16-1.66,1.83-1.83,0,0-2.08,0-2.5,1.58a12.07,12.07,0,0,1-.5-2.5s-.67,1.42-.25,2.25c0,0-10.5-4.75-15.17-4.5l-.16,1.5,37,25.25Z"/></g><path class="cls-13" d="M137.5,162.45A95.16,95.16,0,0,1,142,172.6a116.29,116.29,0,0,1,4.85,15.85q1.25,9.35,1.5,12.9v5.1q-19.57,1.47-35.1-6.6c.7-1.37,1.77-3.38,3.2-6a58.11,58.11,0,0,0,4.65-12A87.56,87.56,0,0,0,123,166.65q0-6.15,2.6-8a5.72,5.72,0,0,1,4.15-1.55.62.62,0,0,1,.25,0,1.76,1.76,0,0,1,.7.15,8.79,8.79,0,0,1,4,1.8A10.92,10.92,0,0,1,137.5,162.45Z"/><path class="cls-15" d="M120.28,155.9q2.84-2.9,10.67-4.35t7.85.6a2.65,2.65,0,0,1-.85,1.55,4.77,4.77,0,0,1-.45.45q-.93,4.64-9.7,11.35c-.5,0-1.27-.65-2.3-1.95s-1.6-2.27-1.8-2.5q-1.24-1.2-2.1-2.1c-1.07-1.1-1.6-1.92-1.6-2.45A.78.78,0,0,1,120.28,155.9Z"/><path class="cls-12" d="M130.05,149.15a10.82,10.82,0,0,0,1.48-.27c.05.24.09.49.12.77a26.55,26.55,0,0,0,.3,2.9c.07,1.17.18,3.1.35,5.8a20.45,20.45,0,0,1-2.7,6.75q-1.44,1.92-2.17-.75a11.09,11.09,0,0,1-.5-4.43,5.69,5.69,0,0,0,.12-1,53.17,53.17,0,0,0-.65-6.1,26.59,26.59,0,0,0-.82-3.73,5.38,5.38,0,0,0,1.17.08Z"/><path class="cls-11" d="M130.05,149.15a10.82,10.82,0,0,0,1.48-.27c.05.24.09.49.12.77a26.55,26.55,0,0,0,.3,2.9c0,.22,0,.46.05.73a9,9,0,0,1-.9,1.42,4.28,4.28,0,0,1-3.1,1.85h-.2a1,1,0,0,1-.5-.13,1.47,1.47,0,0,1-.45-.39c-.12-1.09-.27-2.17-.45-3.23a26.59,26.59,0,0,0-.82-3.73,5.38,5.38,0,0,0,1.17.08Z"/><path class="cls-11" d="M94.28,113.92Q83.71,93.35,85.35,92.7t7.93,5a58.41,58.41,0,0,1,7.3,7.27Q98.32,108.19,94.28,113.92Z"/><path class="cls-12" d="M161.05,79.48q3.64,3.42,4.45,5.5a16.37,16.37,0,0,1,1.85,5.12,71.18,71.18,0,0,1,.7,10.65,152.88,152.88,0,0,1-1.12,20.52q-1.14,8-1.78,10.38A17.19,17.19,0,0,1,163,136.3a13.33,13.33,0,0,1-2.93,3.2q-1.78,1.55-14.3,5.95T130.2,150a19.37,19.37,0,0,1-4.65-.21q-1.56-.35-9.75-4.6a93,93,0,0,1-14.32-9A85.31,85.31,0,0,1,93.05,129c-2.57-2.73-4-4.48-4.15-5.23a10.2,10.2,0,0,1-.22-3c0-1.25,1-3.69,2.9-7.3s5.06-9.67,9.52-18.2q2-3.75,5.6-12.1,2.61-5.94,10.18-7.18a146.25,146.25,0,0,1,28.52-1Q157.42,76.06,161.05,79.48Z"/><path class="cls-12" d="M161.3,75.15c-.37-1.6-.55-2.45-.55-2.55q0-2.2,2.2.6t2.15,4.35a5.76,5.76,0,0,1-.75,2.25c-.1.21-.2.4-.3.58.81-.18,2.75-.71,5.8-1.58a2.66,2.66,0,0,1-1.15,2.27,6.84,6.84,0,0,1-3.87,1.13,8.78,8.78,0,0,1-2,0,3,3,0,0,0-1.15-.88l.12-1.37A21,21,0,0,0,161.3,75.15Z"/><path class="cls-12" d="M166.93,126.32a9,9,0,0,1-5-.75,11.16,11.16,0,0,1-2-1.07c.14-.74.27-1.54.4-2.4.43-2.71.75-4.83,1-6.37q2.26-1.56,10.35-3.33,10.86-2.39,15.15-1.77,2.05.91-7.55,8.14T166.93,126.32Z"/><path class="cls-11" d="M183.9,112.5a73.51,73.51,0,0,0-14.67,5.6c1,.54,1.31,1.25.9,2.15a4.42,4.42,0,0,1-2.78,2,3.58,3.58,0,0,0,.5-1.88A2.88,2.88,0,0,0,166,118.1c.94-1,3.69-2.2,8.27-3.5a58.4,58.4,0,0,1,9.55-2.2Z"/><path class="cls-16" d="M136.83,119.92q9.19-1.23,10.72-1.25a4.74,4.74,0,0,1,2.83,1q1.29.93,2.3,4.32t-1.48,8.55a20.63,20.63,0,0,1-3.3,3.7,32,32,0,0,1-6.85,4.85,26.22,26.22,0,0,1-11.75,2.85,48.88,48.88,0,0,1-8.55-.8c-2-.63-3.65-1.12-4.85-1.45-1.47-.43-3.1-1-4.9-1.75-.85-.35-2.16-.92-3.92-1.7a14.64,14.64,0,0,0,.52-1.95c.4-2.43.65-4.12.75-5.05s.1-2.25.1-4.35a36,36,0,0,0-1-8.55.08.08,0,0,0,0,0l3.07.75a83.89,83.89,0,0,0,11.5,1.8h4Q127.62,121.16,136.83,119.92Z"/><path class="cls-17" d="M139,120.1a1.87,1.87,0,0,1-.12-.25l-1.15.15a73.06,73.06,0,0,1-9.23.55,98.09,98.09,0,0,1-12.6-.9c-2.79-.35-5.46-.79-8-1.3l-1-.2,0,0q-2,3.15-2,4a1.35,1.35,0,0,0,.35,1q.56.75,7.38,2.2A56.12,56.12,0,0,0,124,126.9h4.25a1.48,1.48,0,0,1,1.4-.75,1.57,1.57,0,0,1,1.35.48,25.74,25.74,0,0,0,6.85-1.53,3.08,3.08,0,0,0,1.9-3A5.15,5.15,0,0,0,139,120.1Z"/><path class="cls-17" d="M131.05,137.55c-.26-1.7-.65-2.43-1.17-2.2a2.32,2.32,0,0,0-1.2,1.32l-.53,1.21a8.13,8.13,0,0,1-1.9.17,38.5,38.5,0,0,1-8.25-1L114,136a19,19,0,0,1-3.15-.8,25.41,25.41,0,0,1-3.1-1.25,5.82,5.82,0,0,0-.92-2.47c-.51-.79-1.07-.34-1.7,1.34a9.86,9.86,0,0,0-.7,3.93c.4.28.82.54,1.25.8a80.14,80.14,0,0,0,12.7,4.22,62.3,62.3,0,0,0,11.8,1.9,3,3,0,0,0,.42,0c.35-.32.57-1.52.65-3.6A17.26,17.26,0,0,0,131.05,137.55Z"/><path class="cls-11" d="M142.15,118.45c2-.26,3.84-.43,5.65-.53s3.24.83,4.28,2.75a12.54,12.54,0,0,1,1.62,5.43,9,9,0,0,1-1.22,4.82,37.38,37.38,0,0,1-4.93,6.18,38.54,38.54,0,0,1-8,5.67q-4.08,2.13-11.33,2.13-6.3,0-16-3.75c-6.1-2.34-9.39-4.45-9.9-6.35.54.27,1.24.6,2.08,1a97.71,97.71,0,0,0,9.32,3.58,53.7,53.7,0,0,0,6.7,2.1,40.72,40.72,0,0,0,10.1,1.65q7.35,0,14.8-6.35,6.49-5.59,6.5-8.85,0-7.05-3.8-7.9a15.15,15.15,0,0,0-5.8.2q-5.49.66-11.35,1.12a72,72,0,0,1-11.37,0h-.13a84.18,84.18,0,0,1-11-1.95c-3-.82-5-1.87-6.17-3.17.65.24,1.88.6,3.7,1.07a99.83,99.83,0,0,0,12.45,2.33,56.26,56.26,0,0,0,12.72.22c1.54-.23,3.28-.46,5.23-.68S140.19,118.71,142.15,118.45Z"/><path class="cls-11" d="M149.35,113.8a5.14,5.14,0,0,1,1.8.43,5.08,5.08,0,0,1,2.35,2.5c-.12-.08-.25-.15-.4-.23a13.64,13.64,0,0,0-4.35-1.6H147a23.33,23.33,0,0,0-3.7.48,9.78,9.78,0,0,1,1.6-1.21c1.06-.72,2.94-1.12,5.65-1.17Z"/><path class="cls-5" d="M135.75,112.07a6.9,6.9,0,0,1-.3,2.75,24.38,24.38,0,0,1,3.63-.27c-1.83.55-2.92.87-3.28,1a41.47,41.47,0,0,0-4.3,1.35l-.3.1-.35.1a.48.48,0,0,1-.55-.55c0-.51.92-.93,2.75-1.25a14.58,14.58,0,0,1,0-1.93,2.58,2.58,0,0,1,1.35-2.3C135.24,110.51,135.7,110.86,135.75,112.07Z"/><path class="cls-17" d="M134.78,111.94a2.26,2.26,0,0,1-.22.9c-.23.48-.53.73-.9.73a.6.6,0,0,1-.68-.68c0-1,.41-1.51,1.24-1.51A.49.49,0,0,1,134.78,111.94Z"/><path class="cls-5" d="M116.35,109.55q1.25-.8,1.35,1a7.86,7.86,0,0,1-.3,2.75c0,.14,0,.28-.05.42a5.61,5.61,0,0,1,1.4.4,1.2,1.2,0,0,1,.5.5c.1.21,0,.54-.45,1-.4-.2-1.31-.59-2.72-1.17s-3-1.16-4.75-1.75a1.12,1.12,0,0,1,.52-.08,14.82,14.82,0,0,1,3.13.45c0-.38,0-.79,0-1.25A2.47,2.47,0,0,1,116.35,109.55Z"/><path class="cls-17" d="M116.5,111.35a1,1,0,0,1-.9.7.58.58,0,0,1-.65-.65q0-1.5,1.2-1.5c.4,0,.6.18.6.55A2,2,0,0,1,116.5,111.35Z"/><path class="cls-11" d="M134,88.05l-.4,0,0-.23c.62-.66,1.29-1.45,2-2.37.48-.31.72-.13.72.55a2.2,2.2,0,0,1-.8,1.3A2.41,2.41,0,0,1,134,88.05ZM132,87.3,133,86a25.88,25.88,0,0,1-1.57,3.52,8.71,8.71,0,0,1-2.08,3.33q-2.55,3-5.2,3c-2,0-2.95-1-2.95-2.85a6.54,6.54,0,0,1,1.15-3.43,2.53,2.53,0,0,1-1.2.28,3.41,3.41,0,0,1-2.8-1.1,2.21,2.21,0,0,1-.55-1.35,4.17,4.17,0,0,1,.5-2.2,6,6,0,0,1,1.1-1.35l.1-.1a3.55,3.55,0,0,1,2.4-1.35c-.83.77-1.42,1.33-1.75,1.7-.12.13-.23.25-.32.37l-.13.28a4.84,4.84,0,0,0-.4,1.18,1.13,1.13,0,0,0,.35.87,3.14,3.14,0,0,0,2.05.5,12.46,12.46,0,0,0,5.1-1.3l.13.1.5-.4a2.49,2.49,0,0,0,.35.37L126,88.3q-2.6,3.2-2.6,4.35a.9.9,0,0,0,.2.65,2,2,0,0,0,1.2.25c1.43,0,3-1,4.75-3.1q.45-.53,2.55-3.3S132,87.25,132,87.3Z"/><path class="cls-18" d="M120.08,156.2c.08-.17.28-.26.6-.28s1.11.87,2.37,2.65,2,2.77,2.1,3q2.66,3.3,3.1,4a5.15,5.15,0,0,0,1.68-3.2c.3-1.53.49-2.67.57-3.43a8.19,8.19,0,0,1,.35-1.75,2.21,2.21,0,0,1,.85-1c1.14-.55,2.12-1,2.93-1.43a7.43,7.43,0,0,0,2.25-1.82,8.83,8.83,0,0,0,1.05-1.35c0-.1.2-.17.52-.2s.39.36.23,1.2-.39,2.25-.68,4.25a23.75,23.75,0,0,0-.32,4.87q.12,1.89-3.33,4.08a8.88,8.88,0,0,1-4.35,1.8c-.36,0-.94-.67-1.75-2a2.47,2.47,0,0,1,.25.6,1.19,1.19,0,0,1-.15.5.74.74,0,0,1-.65.4l-.55-.6-4.15-5.2c-.54-.52-1.26-1.19-2.15-2s-1.26-1.47-1.12-2A5.09,5.09,0,0,1,120.08,156.2Z"/><path class="cls-15" d="M127.08,179c0-.16,0-.31,0-.47q.47-4.16.57-5.88l.75-5.9a5.52,5.52,0,0,1,.25,1.35c.1.7.15,1.13.15,1.3a33.81,33.81,0,0,1-.4,5.1,14,14,0,0,1-1.3,4.45S127.1,179,127.08,179Z"/><path class="cls-5" d="M130.2,173.5a2.84,2.84,0,0,1-1,.2,6.42,6.42,0,0,1-1.85-.25c-.63-.2-1-.42-1-.65,0-.73.73-1,2.2-.65s2.15.6,2.15.9S130.53,173.37,130.2,173.5Zm-1-3.25a8.87,8.87,0,0,1-2.6.5.75.75,0,0,1-.75-.4l-.1-.4c0-.87.83-1.3,2.5-1.3s2.45.23,2.45.8C130.7,169.65,130.2,169.92,129.2,170.25Z"/><path class="cls-11" d="M173.5,180.47c.26.81.28,1.35.05,1.63s-.68.38-1.35.33-1.46-.08-2.4-.08a8.08,8.08,0,0,0-3.8,1,10.14,10.14,0,0,1-2.22.88,2.69,2.69,0,0,1-1.38-.46,3.2,3.2,0,0,1-.65-1.72v-.45c.13-2.17.2-3.84.2-5l.3-.05c.3,0,.57.48.8,1.45a1.9,1.9,0,0,0,.65-.5,3.51,3.51,0,0,1,1.85-.4,11.67,11.67,0,0,1,5.4,1.6A8.81,8.81,0,0,1,173.5,180.47Z"/><path class="cls-12" d="M174.6,155.3a6.91,6.91,0,0,1,1,2.15,35.56,35.56,0,0,1,.65,4.2q.28,2.49.33,4.32a15.36,15.36,0,0,0,.77,4.28,28.14,28.14,0,0,1,1,5.5c.2,2,.22,3.14.05,3.3-.47,1-1.68,1.55-3.65,1.55a8,8,0,0,1-2.45-.32,2.62,2.62,0,0,0-2,.19,3.24,3.24,0,0,1-2.22.25,2.51,2.51,0,0,1-1.78-1.67c-.39-.94-.65-1.37-.8-1.27a7,7,0,0,0-1,1.92c-.49,1.18-1.23,1.73-2.23,1.65a2.64,2.64,0,0,1-2.05-.92c-.38-.54-.54-2.28-.5-5.23a35.7,35.7,0,0,1,.43-6,1.62,1.62,0,0,1,1.8-1.53l3.9.28c1.61.11,3,.22,4.1.32a2.33,2.33,0,0,0,2.42-1.15,11.43,11.43,0,0,0,.43-4.72,6.81,6.81,0,0,0-2.15-5c-1.32-1.14-5.18-1.75-9.83-1.77l.1-3a27.09,27.09,0,0,1,10.55.61A7.78,7.78,0,0,1,174.6,155.3Z"/><path class="cls-15" d="M135.12,167l-.1-.55a5,5,0,0,1,.28-1.63,15.92,15.92,0,0,0-1.68,2.68.19.19,0,0,1-.15-.2,5.39,5.39,0,0,1,1.45-2.65,9.06,9.06,0,0,1,1.28-1.43,2.15,2.15,0,0,1,2.45-.5q-2,.47-3,4c-.08.29-.15.57-.22.85A1.52,1.52,0,0,1,135.12,167Z"/><path class="cls-13" d="M166.8,158.25a3,3,0,0,1-.25,2A38.12,38.12,0,0,0,156,157.3a7.15,7.15,0,0,0-.65,1.25q-.6.38-1.35-.9a32.24,32.24,0,0,0-6.25,4,39.63,39.63,0,0,0-7.1,8,1.88,1.88,0,0,1-1.6,1c-1,0-1.35-.71-2.1-2a6.52,6.52,0,0,1,.33-5.41,32,32,0,0,1,4.6-4.06,77.65,77.65,0,0,1,7.72-4.83,19.33,19.33,0,0,1,7.83-2.5l10.17-.69a1.28,1.28,0,0,1-.65,1.22,23.24,23.24,0,0,0-5.05,1.93,23.31,23.31,0,0,1,3,2.17A9.76,9.76,0,0,1,166.8,158.25Z"/><path class="cls-13" d="M166.8,158.25a3,3,0,0,1-.25,2A38.12,38.12,0,0,0,156,157.3a7.15,7.15,0,0,0-.65,1.25q-.6.38-1.35-.9a32.24,32.24,0,0,0-6.25,4,39.63,39.63,0,0,0-7.1,8,1.88,1.88,0,0,1-1.6,1c-1,0-1.35-.71-2.1-2a6.52,6.52,0,0,1,.33-5.41,32,32,0,0,1,4.6-4.06,77.65,77.65,0,0,1,7.72-4.83,19.33,19.33,0,0,1,7.83-2.5l10.17-.69a1.28,1.28,0,0,1-.65,1.22,23.24,23.24,0,0,0-5.05,1.93,23.31,23.31,0,0,1,3,2.17A9.76,9.76,0,0,1,166.8,158.25Z"/><g class="cls-19"><path class="cls-15" d="M167.67,160.73s-6.75-4.66-11.92-4.33a7.19,7.19,0,0,0,.17-1.17s-1.09,2.67-1.42,2.34c0,0-1.75-1.59-2-1.92s.42,2.08.42,2.08S144,161.57,139.5,169.9C139.5,169.9,153.67,174.57,167.67,160.73Z"/></g></g></g></svg>