<svg xmlns="http://www.w3.org/2000/svg" xmlns:xlink="http://www.w3.org/1999/xlink" viewBox="0 0 80 80"><defs><style>.cls-1{fill:none;}.cls-2{fill:#e29a44;}.cls-10,.cls-3,.cls-6{opacity:0.5;}.cls-4,.cls-6{fill:#8e5c25;}.cls-5{fill:#bec7e4;fill-rule:evenodd;}.cls-7{fill:#5e3e1d;}.cls-8{fill:#7f5e3b;}.cls-9{clip-path:url(#clip-path);}.cls-10{fill:#754e25;}.cls-11{fill:#bc823c;}.cls-12{clip-path:url(#clip-path-2);}.cls-13{fill:#c7d0d3;}.cls-14{fill:#9b9b9b;}</style><clipPath id="clip-path"><path class="cls-1" d="M21.44,26.24q-.9,1.76-2.12,4.62c-1.06,2.53-1.93,4.46-2.58,5.78S13.91,41.73,10.22,48c-.49.83-.92,1.56-1.3,2.19.56,2.07.82,3.11.81,3.13l-1,1a10.2,10.2,0,0,1-1.06,1A14.89,14.89,0,0,1,6,56.35L3.34,58a5.37,5.37,0,0,0-1.09.84L2,59a2,2,0,0,0-.54,1.4,4.37,4.37,0,0,0,.34,1.44,37.92,37.92,0,0,0,2.05,4.74L5,68.91a4.86,4.86,0,0,0,.74,1.14,2.36,2.36,0,0,0,.9.61,4,4,0,0,0,.8.53,22.19,22.19,0,0,0,7.22,2.17,60.14,60.14,0,0,0,7.66.38q3.3,0,6.63,0,16.31-.17,24.49-.39c.78,0,1.36,0,1.75-.1A6.37,6.37,0,0,0,56.3,73l.21.06A2,2,0,0,0,57.57,73a5.72,5.72,0,0,0,1-.52A29.82,29.82,0,0,0,66,66.25a38.09,38.09,0,0,0,3.26-5c.15-.25.28-.49.4-.72l.15-.18a13.09,13.09,0,0,0,1.31-2,5.88,5.88,0,0,0,.68-2.23,6.09,6.09,0,0,0-.24-2.09,19.69,19.69,0,0,0-.74-2q-3.66-8.65-8-17.19Q61.35,25,61.26,23.31c0-.54,0-1.55.15-3a4.28,4.28,0,0,0-1.91-3.82,5.26,5.26,0,0,0-3.9-1.4Q23.41,19.2,21.44,26.24Z"/></clipPath><clipPath id="clip-path-2"><path class="cls-1" d="M60.27,68.17a4.93,4.93,0,0,0,.69,0,28.72,28.72,0,0,0,5.15-.79,19.29,19.29,0,0,0,2.68-.75A12.14,12.14,0,0,0,71,65.43a24.36,24.36,0,0,0,4.11-3.32,2.86,2.86,0,0,0,.69-1,1.06,1.06,0,0,0,0-.61.11.11,0,0,0,0-.08,1.56,1.56,0,0,0,.11-.26c0-.71,0-1.38,0-2L75.8,58a28,28,0,0,1-2.31-2.25l-.82-.88a41.75,41.75,0,0,1-4.54-6l-.86.47Q62.23,52,57.78,54a46.56,46.56,0,0,0,.27,10.28Q59,66.19,60.27,68.17Z"/></clipPath></defs><title>Plan de travail 74 copie 2</title><g id="Calque_7" data-name="Calque 7"><g id="Layer0_7_MEMBER_7_FILL" data-name="Layer0 7 MEMBER 7 FILL"><path class="cls-2" d="M59.63,21.31A38.29,38.29,0,0,0,60,25.22l1.39,10.34q.31,1.95,1.09,5.62c.17.79.32,1.38.44,1.78l0,.1h0a1.4,1.4,0,0,0,.8,1.08,3.58,3.58,0,0,0,1.33.35,18.24,18.24,0,0,0,5.52-.34A14.33,14.33,0,0,0,74,43.09,8.56,8.56,0,0,0,77.1,40.6a4.29,4.29,0,0,0,.78-1.49,4.68,4.68,0,0,0-1-3.68c-.22-.34-.78-1.13-1.67-2.36a19.76,19.76,0,0,1-1.57-2.4,11.56,11.56,0,0,1-1.36-4.93c0-.48,0-1.07,0-1.75s.09-1.35.1-1.75c0-.69,0-1.71,0-3.07,0-.85-.06-1.49-.12-1.91a6.8,6.8,0,0,0-1.73-3.74,6.07,6.07,0,0,0-1.67-1.23,5.39,5.39,0,0,0-2-.55h-.38a8.85,8.85,0,0,0-1.56.24,5.44,5.44,0,0,0-1.3.68,8.78,8.78,0,0,0-2.16,2.1,9,9,0,0,0-1.37,2.68A12.09,12.09,0,0,0,59.63,21.31Z"/></g><g class="cls-3"><g id="Layer0_7_MEMBER_7_MEMBER_0_FILL" data-name="Layer0 7 MEMBER 7 MEMBER 0 FILL"><path class="cls-4" d="M59.63,21.31A38.29,38.29,0,0,0,60,25.22l1.39,10.34q.31,1.95,1.09,5.62c.17.79.32,1.38.44,1.78l0,.1h0a1.16,1.16,0,0,0,.7,1,6.77,6.77,0,0,0,2.09.44,12.28,12.28,0,0,0,4.33-.7c1.92-.57,2.83-1.51,2.72-2.81a5.12,5.12,0,0,0-1.08-3c-.33-.39-.64-.79-.93-1.19a10.29,10.29,0,0,1-.87-1.41c-.06-.12-.13-.25-.19-.39a9.61,9.61,0,0,1-.5-1.14,8.66,8.66,0,0,1-.46-4.76.62.62,0,0,0,0-.13A11.41,11.41,0,0,1,70,25.13l.61-1c.26-.43.45-.77.58-1a12.86,12.86,0,0,0,1.18-4.87c0-.38,0-.69-.08-.93a6.8,6.8,0,0,0-1.73-3.74,6.07,6.07,0,0,0-1.67-1.23,5.39,5.39,0,0,0-2-.55h-.38a8.85,8.85,0,0,0-1.56.24,5.44,5.44,0,0,0-1.3.68,8.78,8.78,0,0,0-2.16,2.1,9,9,0,0,0-1.37,2.68A12.09,12.09,0,0,0,59.63,21.31Z"/></g></g><path class="cls-5" d="M6.26,68.6c-3.58,1.06-3.54,3.6,1.38,5.14s43.42,2.7,53.91,1.92S85.87,57.18,72.89,56,6.26,68.6,6.26,68.6Z"/><g id="Layer0_7_MEMBER_0_MEMBER_0_FILL" data-name="Layer0 7 MEMBER 0 MEMBER 0 FILL"><path class="cls-4" d="M58.44,15.37c-.07,1.76-.16,3.51-.27,5.26Q71.23,43,74.58,58.88a16.31,16.31,0,0,0,2.49-.3c1.06-.22,1.56-1.1,1.5-2.65q-2.1-6.57-4.48-12.57A135.81,135.81,0,0,0,61.34,18.52c-1.16-1.72-2.12-3-2.87-3.95Z"/></g><g id="Layer0_7_MEMBER_0_MEMBER_1_FILL" data-name="Layer0 7 MEMBER 0 MEMBER 1 FILL"><path class="cls-4" d="M3.39,57.1l1.33-.39a12.08,12.08,0,0,0-.61,9.75C7,66,9.48,65.63,11.44,65.37l2.27-18.22-.32,0a66.9,66.9,0,0,0-8,3,27.54,27.54,0,0,1-2,4.62c-.16.28-.34.58-.55.9A10.16,10.16,0,0,1,3.39,57.1Z"/></g><g id="Layer0_7_MEMBER_6_FILL" data-name="Layer0 7 MEMBER 6 FILL"><path class="cls-2" d="M45.84,14.9c-.41,0-.88-.06-1.41-.08-.94,0-1.66,0-2.14-.06A46.71,46.71,0,0,1,36.87,14c-2.44-.43-4.26-.68-5.44-.76a8.21,8.21,0,0,0-1,0,3.4,3.4,0,0,0-.95.2,4.15,4.15,0,0,0-1.86,1.87,6.15,6.15,0,0,0-.88,2.52,3.54,3.54,0,0,0,.13,1.34,2.77,2.77,0,0,0,.64,1.15,1.2,1.2,0,0,0,.75.42A6.06,6.06,0,0,1,28,18.93a7.55,7.55,0,0,0,1.73.32c1.19.11,2.45.18,3.8.21a68.45,68.45,0,0,0,7.85-.11c1-.06,2.18-.18,3.56-.35,1.65-.2,4.12-.5,7.42-.92,2.86-.32,5.34-.51,7.46-.58a2.23,2.23,0,0,0,.39,0,4.62,4.62,0,0,0,.16,1.44c.09.3.23.43.4.39s.15-.1.21-.23a5.78,5.78,0,0,1,0-.58,8,8,0,0,1,.21-1.36s0-.07,0-.11l0-.1s0-.05,0-.08a1.46,1.46,0,0,0,.07-.19A6.41,6.41,0,0,1,62,15a5.14,5.14,0,0,1,2.34-2,7,7,0,0,1,3.09-.58,4.3,4.3,0,0,1,1.95.42,0,0,0,0,0,0,0,.5.5,0,0,0-.25-.32,6.83,6.83,0,0,0-3.34-.82,28.06,28.06,0,0,0-5.67.45c-1.09.18-2.95.56-5.6,1.14C51.26,13.9,48.36,14.47,45.84,14.9Z"/></g><path class="cls-6" d="M61,19.06s-.47-4,.18-5.21A35.51,35.51,0,0,0,51,15.05a80.56,80.56,0,0,1-9.53,1.82,14.91,14.91,0,0,0,2.62-1.21,48.91,48.91,0,0,1-7.43.52c-3-.14-7.46-1.36-9.51,1.07l-.89,2.66Z"/><path class="cls-2" d="M71.54,54.08a19.69,19.69,0,0,0-.74-2q-3.64-8.65-8-17.18Q61.35,25,61.26,23.31q0-.81.15-3a4.16,4.16,0,0,0-1.57-3.55,1.61,1.61,0,0,0-.26-.38,5.69,5.69,0,0,0-1.16-1,3.92,3.92,0,0,0-1.7-.49,13.14,13.14,0,0,0-4.27.47q-2.79.83-4.2,1.17a38.42,38.42,0,0,1-9.39.95q-6.36-.25-9.54-.35c-.6,0-1.05,0-1.36,0a6.24,6.24,0,0,0-.8.1c-1.07-.05-3.08,1.47-6,4.57Q19,24.08,17.8,25.56l0,0,0,.16c0,.13-.06.26-.08.39-.09.62-.19,1.24-.29,1.84.24.85.59,1.89,1,3.11.11.38.23.78.35,1.21q-1.2,2.79-2,4.4-1,2-6.52,11.34c-.49.84-.92,1.57-1.3,2.2q.84,3.1.81,3.12l-1,1a10.2,10.2,0,0,1-1.06,1A14.89,14.89,0,0,1,6,56.35L3.34,58a5.3,5.3,0,0,0-1.09.85A1.86,1.86,0,0,0,2,59a2,2,0,0,0-.54,1.4,4.37,4.37,0,0,0,.34,1.44,37.92,37.92,0,0,0,2.05,4.74L5,68.91a4.86,4.86,0,0,0,.74,1.14,2.4,2.4,0,0,0,.91.61,4.33,4.33,0,0,0,.79.53,22.19,22.19,0,0,0,7.22,2.17,60.14,60.14,0,0,0,7.66.38q3.3,0,6.63,0,16.31-.17,24.49-.39c.78,0,1.36,0,1.75-.1A6.85,6.85,0,0,0,56.32,73l.19,0A2,2,0,0,0,57.57,73a5.72,5.72,0,0,0,1-.52A29.82,29.82,0,0,0,66,66.25a38.09,38.09,0,0,0,3.26-5l.42-.72.13-.18a13.09,13.09,0,0,0,1.31-2,5.88,5.88,0,0,0,.68-2.23A6.09,6.09,0,0,0,71.54,54.08Z"/><g id="Layer0_7_MEMBER_4_MEMBER_0_FILL" data-name="Layer0 7 MEMBER 4 MEMBER 0 FILL"><path class="cls-7" d="M29.85,21.66a52.62,52.62,0,0,0-4.41,3,30.36,30.36,0,0,0-3.77,3.51L20.8,26l-.06.12a3.78,3.78,0,0,0,0,3.41,14,14,0,0,0,1.86,3.63A5.8,5.8,0,0,0,24.24,35a5.32,5.32,0,0,0,1.94.37,13.83,13.83,0,0,0,2.2,0c.59,0,2-.3,4.12-.75s4.63-1.1,7.42-2,4.59-1.48,5.39-1.79a49.38,49.38,0,0,0,12.18-6.66,3.79,3.79,0,0,0,1.3-1.41,3.35,3.35,0,0,0,0-1.92c-.25-1.42-1.26-2.28-3-2.59a8.54,8.54,0,0,0-3.18.32c-1.52.52-2.66.88-3.4,1.11a26.25,26.25,0,0,1-4.61.88c-1.08.12-2.65.23-4.7.32Q32.06,20.26,29.85,21.66Z"/></g><g id="Layer0_7_MEMBER_0_MEMBER_2_MEMBER_0_FILL" data-name="Layer0 7 MEMBER 0 MEMBER 2 MEMBER 0 FILL"><path class="cls-8" d="M50.62,67.23a69.46,69.46,0,0,1-9.11.72A198.66,198.66,0,0,1,2.84,64.6c.31.67.63,1.34,1,2L5,68.91a4.86,4.86,0,0,0,.74,1.14,2.36,2.36,0,0,0,.9.61,4,4,0,0,0,.8.53,22.19,22.19,0,0,0,7.22,2.17,60.14,60.14,0,0,0,7.66.38q3.3,0,6.63,0,16.31-.17,24.49-.39c.78,0,1.36,0,1.75-.1A6.37,6.37,0,0,0,56.3,73l.21.06A2,2,0,0,0,57.57,73a5.72,5.72,0,0,0,1-.52A29.82,29.82,0,0,0,66,66.25a37.54,37.54,0,0,0,3.24-5c-3.15,1.33-5.64,2.33-7.46,3A61.48,61.48,0,0,1,50.62,67.23Z"/></g><g id="Layer0_7_MEMBER_0_MEMBER_2_MEMBER_1_FILL" data-name="Layer0 7 MEMBER 0 MEMBER 2 MEMBER 1 FILL"><path class="cls-6" d="M25.26,55.88a1.19,1.19,0,0,0-.59-.3,65.09,65.09,0,0,0-6.9-1.39,40.2,40.2,0,0,1-6.84-1.54,1,1,0,0,0-.4-.08c-.18,0-.27.11-.27.26a.43.43,0,0,0,.16.29,7.47,7.47,0,0,0,3,1.78,16.06,16.06,0,0,0,2.62.5c1,.13,2.57.3,4.64.53a22.33,22.33,0,0,0,2.27.16,11.93,11.93,0,0,0,2.28-.21m2.12,2.86a35.49,35.49,0,0,0,3.89.77s0,0,0,0a7.5,7.5,0,0,1-1.5-.5l-1.47-.66a25.91,25.91,0,0,0-4.44-1.39c-1-.23-2.56-.5-4.59-.82a1.5,1.5,0,0,0-.6,0c-.24.08-.35.23-.32.43s.23.36.65.44c1.85.3,3.35.57,4.51.83Z"/></g><g class="cls-9"><path class="cls-10" d="M75.32,59.44l-.16-.13a26.17,26.17,0,0,1-2.31-2.24L72,56.19l-1.15-1.32a16.43,16.43,0,0,0,1.47-3.18,70,70,0,0,0-5.45-4.93c-2.31.92-5.51,1.85-10.67,3.82-.18,1.17-.9,2.94-1.11,4.29a2.44,2.44,0,0,0,.22,1.46,2.33,2.33,0,0,0,1,.74l.66.26a46.38,46.38,0,0,0,.4,8.23q1,1.91,2.22,3.9a3.81,3.81,0,0,0,.69,0,27,27,0,0,0,5.15-.79A17.17,17.17,0,0,0,68.15,68a11.88,11.88,0,0,0,2.25-1.24,24.29,24.29,0,0,0,4.1-3.32,2.53,2.53,0,0,0,.69-1,1.05,1.05,0,0,0,0-.61l0-.08a1.45,1.45,0,0,0,.11-.25C75.3,60.76,75.31,60.08,75.32,59.44Z"/></g><g id="Layer0_7_MEMBER_0_MEMBER_3_MEMBER_0_FILL" data-name="Layer0 7 MEMBER 0 MEMBER 3 MEMBER 0 FILL"><path class="cls-11" d="M61,68.21a28.72,28.72,0,0,0,5.15-.79,19.29,19.29,0,0,0,2.68-.75A12.14,12.14,0,0,0,71,65.43a24.36,24.36,0,0,0,4.11-3.32,2.86,2.86,0,0,0,.69-1,1.06,1.06,0,0,0,0-.61.11.11,0,0,0,0-.08,1.56,1.56,0,0,0,.11-.26c0-.71,0-1.38,0-2L75.8,58a28,28,0,0,1-2.31-2.25l-.82-.88a41.75,41.75,0,0,1-4.54-6l-.86.47Q62.23,52,57.78,54a46.56,46.56,0,0,0,.27,10.28q1,1.92,2.22,3.9A4.93,4.93,0,0,0,61,68.21Z"/></g><g class="cls-12"><path class="cls-6" d="M72.52,55.08a19.68,19.68,0,0,0,1.72-3.63,66.87,66.87,0,0,0-5.46-4.93q-3.45,1.36-11.19,4.33c-.18,1.17-.37,2.43-.59,3.78a2.43,2.43,0,0,0,.23,1.46,2.34,2.34,0,0,0,1,.74A17,17,0,0,0,62.07,58a38,38,0,0,0,4,.45l.29,0,.33,1.2c.09.27.14.46.17.58a3.48,3.48,0,0,1,.06.35c0,.12.08.24.11.35a1,1,0,0,0,.11.23l.13.13,2.43-1,1.52-.64-.75-1.79A8.32,8.32,0,0,0,72.52,55.08Z"/></g><g id="Layer0_7_MEMBER_0_MEMBER_3_MEMBER_1_FILL" data-name="Layer0 7 MEMBER 0 MEMBER 3 MEMBER 1 FILL"><path class="cls-11" d="M60.83,56.91a38,38,0,0,0,4,.45,11.44,11.44,0,0,0,2,0,8,8,0,0,0,2-.45c.64-.21,1.43-1.17,2.38-2.89A19.38,19.38,0,0,0,73,50.41a66.87,66.87,0,0,0-5.46-4.93c-2.31.91-6,2.36-11.19,4.33-.18,1.17-.38,2.43-.59,3.78A2.52,2.52,0,0,0,56,55.05a2.32,2.32,0,0,0,1,.73A16.69,16.69,0,0,0,60.83,56.91Z"/></g><g id="Layer0_7_MEMBER_0_MEMBER_3_MEMBER_2_FILL" data-name="Layer0 7 MEMBER 0 MEMBER 3 MEMBER 2 FILL"><path class="cls-13" d="M65.39,54.23l-.42.13-.37.11a1.08,1.08,0,0,0,0,.43c0,.13,0,.27,0,.42.1.41.21.84.32,1.28l.54,2a4.17,4.17,0,0,1,.16.57,2.08,2.08,0,0,1,.07.36c0,.12.07.24.11.35a1,1,0,0,0,.11.23.74.74,0,0,0,.13.12l2.42-1L70,58.54c-.68-1.59-1.18-2.8-1.51-3.62-.21-.51-.4-1-.58-1.46l-.91.29Z"/></g><g id="Layer0_7_MEMBER_0_MEMBER_4_FILL" data-name="Layer0 7 MEMBER 0 MEMBER 4 FILL"><path class="cls-6" d="M43.35,51.18c-.12.06-.14.21-.08.45l.23.85a3.54,3.54,0,0,0,.93,1.75c.09.06.16.08.19.05a.17.17,0,0,0,.05-.13,7.25,7.25,0,0,0-.44-1.95,2.56,2.56,0,0,0-.46-.91c-.16-.16-.3-.2-.42-.11m3.53,2.5-.16-.35a8.4,8.4,0,0,0-1.67-2.23.76.76,0,0,0-.4-.26.19.19,0,0,0-.14.13.4.4,0,0,0,.08.34l1.35,2.31a2.8,2.8,0,0,0,.53.77l.43.4c.07,0,.12,0,.14,0a.65.65,0,0,0,0-.39c0-.17-.09-.3-.11-.4l0-.32m3.61.9A23.47,23.47,0,0,0,48.13,52a3,3,0,0,0-1.1-.67,1,1,0,0,0-.32,0,.33.33,0,0,0-.26.19.51.51,0,0,0,.1.43,10.23,10.23,0,0,0,1.1,1.4L49.18,55a8.29,8.29,0,0,0,.64.62,1.68,1.68,0,0,0,.77.4.33.33,0,0,0,.31,0,.45.45,0,0,0,.11-.26A1.93,1.93,0,0,0,50.49,54.58Z"/></g><g id="Layer0_7_MEMBER_2_FILL" data-name="Layer0 7 MEMBER 2 FILL"><path class="cls-6" d="M59.14,41.24a1.5,1.5,0,0,0-.36.48,1.18,1.18,0,0,0-.16.76A1.26,1.26,0,0,0,59,43v.08c0,.08.05.09.11,0l.11-.12a.49.49,0,0,1,.18-.09.86.86,0,0,0,.35-.45,2.2,2.2,0,0,0,.23-.77.56.56,0,0,0-.2-.52.52.52,0,0,0-.58.05m-.38-2.55a.69.69,0,0,0-.35,0,.91.91,0,0,0-.44.21.84.84,0,0,0-.24.5,1.26,1.26,0,0,0,.11,1,.67.67,0,0,0,.31.28.55.55,0,0,0,.55-.11,1.49,1.49,0,0,0,.35-.46,1.57,1.57,0,0,0,.17-.79.83.83,0,0,0-.14-.38.55.55,0,0,0-.32-.23M60.28,23q.09-.33-.06-.45a.27.27,0,0,0-.37,0,1,1,0,0,0-.26.29A9.08,9.08,0,0,0,58.82,25c-.25,1.14-.53,2.66-.83,4.54-.14.81-.27,1.67-.39,2.57a25.57,25.57,0,0,0-.3,3.06,9.23,9.23,0,0,0,.35,3c.06.19.14.26.24.23s.13-.09.15-.24c.41-3.39.74-5.94,1-7.64C59.4,27.61,59.82,25.08,60.28,23Z"/></g><path class="cls-6" d="M29.1,49.41a4.45,4.45,0,0,0,.1-.48,2.16,2.16,0,0,0,0-.71,1,1,0,0,0-.36-.61.78.78,0,0,0-.65-.09,1.28,1.28,0,0,0-.6.34,2.2,2.2,0,0,0-.69,1.47l-2.74-.14c-.28.71-.55,1.34-.79,1.91-.38.87-.67,1.54-.85,2l3.21,1.6c1.87.05,3.58,0,5.39-.08a51.22,51.22,0,0,0,.52-5.1C30.83,49.49,30,49.45,29.1,49.41Z"/><g id="Layer0_7_MEMBER_3_FILL" data-name="Layer0 7 MEMBER 3 FILL"><path class="cls-13" d="M30.51,53.65a51.22,51.22,0,0,0,.52-5.1l-2.57-.1a2.77,2.77,0,0,1-.21.54,1.27,1.27,0,0,1-.77.69,1.06,1.06,0,0,1-.53,0,.94.94,0,0,1-.45-.28,1.12,1.12,0,0,1-.23-.83c0-.08,0-.16,0-.24l-2.74-.15c-.29.71-.55,1.35-.79,1.91-.39.88-.67,1.55-.85,2l3.21,1.61C27,53.77,28.75,53.75,30.51,53.65Z"/><path class="cls-14" d="M28.23,46.65a.76.76,0,0,0-.66-.09,1.31,1.31,0,0,0-.59.33,2.22,2.22,0,0,0-.69,1.48c0,.08,0,.16,0,.24a1.12,1.12,0,0,0,.23.83.94.94,0,0,0,.45.28,1.06,1.06,0,0,0,.53,0,1.27,1.27,0,0,0,.77-.69,2.77,2.77,0,0,0,.21-.54,2.94,2.94,0,0,0,.09-.48,1.94,1.94,0,0,0,0-.71A1,1,0,0,0,28.23,46.65Z"/></g><path class="cls-6" d="M18.84,34a8.94,8.94,0,0,0,.24,1.93,37.24,37.24,0,0,1,.65,4.75,2,2,0,0,0,.35,1.19.35.35,0,0,0,.21.13.33.33,0,0,0,.24-.15,1.29,1.29,0,0,0,.21-.7,12.6,12.6,0,0,0-.18-3.29,30,30,0,0,0-.79-3.25,2.19,2.19,0,0,0-.36-.81c-.17-.19-.31-.23-.44-.13A.37.37,0,0,0,18.84,34Zm2,9.91a.44.44,0,0,0-.28,0,.87.87,0,0,0-.51.45,2.13,2.13,0,0,0-.19.37,1.07,1.07,0,0,0-.16.56.52.52,0,0,0,.11.29.3.3,0,0,0,.24.14.56.56,0,0,0,.5-.28A4.52,4.52,0,0,0,21,44.6a.64.64,0,0,0,.1-.4A.33.33,0,0,0,20.87,43.91Zm0,2.85.08-.12a1.15,1.15,0,0,0,.19-.28.55.55,0,0,0,.11-.37.31.31,0,0,0-.3-.27s0,0-.06,0a.4.4,0,0,0-.34.18,1.27,1.27,0,0,0-.18.9.23.23,0,0,0,.15.14.21.21,0,0,0,.21,0A1.4,1.4,0,0,0,20.85,46.76Z"/><path class="cls-6" d="M55.57,27a.53.53,0,0,0-.31.18,65,65,0,0,1-8.81,5.63Q43.11,34.6,37,37.42a17.15,17.15,0,0,0,4.67-1.27A46.32,46.32,0,0,0,46.08,34c2.51-1.41,4.44-2.55,5.78-3.44a21.75,21.75,0,0,0,3.85-3.1.31.31,0,0,0,.13-.25.18.18,0,0,0-.1-.15A.25.25,0,0,0,55.57,27ZM35.33,38.18a.22.22,0,0,0,.16,0,1.53,1.53,0,0,0,.8-.45,1.29,1.29,0,0,0,.27-.29.77.77,0,0,0,.1-.28.32.32,0,0,0-.07-.3q-.09-.13-.3-.06A1.1,1.1,0,0,0,36,37a2.21,2.21,0,0,0-.44.44,2.36,2.36,0,0,0-.2.61l0,0Z"/></g></svg>