<svg xmlns="http://www.w3.org/2000/svg" xmlns:xlink="http://www.w3.org/1999/xlink" viewBox="0 0 80 80">
    <defs>
        <style>
            .cls-1,.cls-17,.cls-18{fill:none;}.cls-2{fill:#bec7e4;fill-rule:evenodd;}.cls-3,.cls-5{fill:#8e5c25;}.cls-4{fill:#e29a44;}.cls-13,.cls-5,.cls-9{opacity:0.5;}.cls-6{fill:#5e3e1d;}.cls-7{fill:#7f5e3b;}.cls-8{clip-path:url(#clip-path);}.cls-9{fill:#754e25;}.cls-10{fill:#bc823c;}.cls-11{clip-path:url(#clip-path-2);}.cls-12{fill:#c7d0d3;}.cls-14{fill:#f9b341;}.cls-15{fill:#dd8f1d;}.cls-16{fill:#f8b334;}.cls-17,.cls-18{stroke:#fff;stroke-linecap:round;stroke-miterlimit:10;}.cls-17{stroke-width:1.6px;}.cls-18{stroke-width:1.6px;}
        </style>
        <clipPath id="clip-path">
            <path class="cls-1"
                  d="M21.44,26.24q-.9,1.76-2.12,4.62c-1.06,2.53-1.93,4.46-2.58,5.78S13.91,41.73,10.22,48c-.49.83-.92,1.56-1.3,2.19.56,2.07.82,3.11.81,3.13l-1,1a10.2,10.2,0,0,1-1.06,1A14.89,14.89,0,0,1,6,56.35L3.34,58a5.37,5.37,0,0,0-1.09.84L2,59a2,2,0,0,0-.54,1.4,4.37,4.37,0,0,0,.34,1.44,37.92,37.92,0,0,0,2.05,4.74L5,68.91a4.86,4.86,0,0,0,.74,1.14,2.36,2.36,0,0,0,.9.61,4,4,0,0,0,.8.53,22.19,22.19,0,0,0,7.22,2.17,60.14,60.14,0,0,0,7.66.38q3.3,0,6.63,0,16.31-.17,24.49-.39c.78,0,1.36,0,1.75-.1A6.37,6.37,0,0,0,56.3,73l.21.06A2,2,0,0,0,57.57,73a5.72,5.72,0,0,0,1-.52A29.82,29.82,0,0,0,66,66.25a38.09,38.09,0,0,0,3.26-5c.15-.25.28-.49.4-.72l.15-.18a13.09,13.09,0,0,0,1.31-2,5.88,5.88,0,0,0,.68-2.23,6.09,6.09,0,0,0-.24-2.09,19.69,19.69,0,0,0-.74-2q-3.66-8.65-8-17.19Q61.35,25,61.26,23.31c0-.54,0-1.55.15-3a4.28,4.28,0,0,0-1.91-3.82,5.26,5.26,0,0,0-3.9-1.4Q23.41,19.2,21.44,26.24Z"/>
        </clipPath>
        <clipPath id="clip-path-2">
            <path class="cls-1"
                  d="M60.27,68.17a4.93,4.93,0,0,0,.69,0,28.72,28.72,0,0,0,5.15-.79,19.29,19.29,0,0,0,2.68-.75A12.14,12.14,0,0,0,71,65.43a24.36,24.36,0,0,0,4.11-3.32,2.86,2.86,0,0,0,.69-1,1.06,1.06,0,0,0,0-.61.11.11,0,0,0,0-.08,1.56,1.56,0,0,0,.11-.26c0-.71,0-1.38,0-2L75.8,58a26.49,26.49,0,0,1-2.31-2.25l-.82-.88a41.75,41.75,0,0,1-4.54-6l-.86.47Q62.23,52,57.78,54a46.56,46.56,0,0,0,.27,10.28Q59,66.19,60.27,68.17Z"/>
        </clipPath>
    </defs>
    <title>Plan de travail 74 copie</title>
    <g id="Calque_7" data-name="Calque 7">
        <path class="cls-2" d="M6.26,68.6c-3.58,1.06-3.54,3.6,1.38,5.14s43.42,2.7,53.91,1.92S85.87,57.18,72.89,56,6.26,68.6,6.26,68.6Z"/>
        <g id="Layer0_6_MEMBER_0_MEMBER_0_FILL" data-name="Layer0 6 MEMBER 0 MEMBER 0 FILL">
            <path class="cls-3"
                  d="M49.8,6.54A3,3,0,0,0,49.43,5q-3.85-.76-11.1,1.46-5.19,2.49-5.52,4,3,6.2,3.75,7.56c.41-1.79,0-3.92-1.19-6.39a29.73,29.73,0,0,1,12.28-4.8q-1.36,8.39-1.92,11.51l.16.05a1,1,0,0,0,.83-.28q.53-1.74,1.66-5.13A21.86,21.86,0,0,0,49.8,6.54Z"/>
        </g>
        <g id="Layer0_6_MEMBER_0_MEMBER_1_FILL" data-name="Layer0 6 MEMBER 0 MEMBER 1 FILL">
            <path class="cls-3"
                  d="M58.44,15.37c-.07,1.76-.16,3.51-.27,5.26Q71.23,43,74.58,58.88a16.31,16.31,0,0,0,2.49-.3c1.06-.22,1.56-1.1,1.5-2.65q-2.1-6.57-4.48-12.57A135.81,135.81,0,0,0,61.34,18.52c-1.16-1.72-2.12-3-2.87-3.95Z"/>
        </g>
        <g id="Layer0_6_MEMBER_0_MEMBER_2_FILL" data-name="Layer0 6 MEMBER 0 MEMBER 2 FILL">
            <path class="cls-3"
                  d="M13.71,47.15l-.32,0a66.9,66.9,0,0,0-8,3,27.54,27.54,0,0,1-2,4.62c-.16.28-.34.58-.55.9a10.16,10.16,0,0,1,.52,1.43l1.33-.39a12.08,12.08,0,0,0-.61,9.75C7,66,9.48,65.63,11.44,65.37Z"/>
        </g>
        <g id="Layer0_6_MEMBER_0_MEMBER_3_FILL" data-name="Layer0 6 MEMBER 0 MEMBER 3 FILL">
            <path class="cls-4"
                  d="M21.44,26.24q-.9,1.76-2.12,4.62c-1.06,2.53-1.93,4.46-2.58,5.78S13.91,41.73,10.22,48c-.49.83-.92,1.56-1.3,2.19.56,2.07.82,3.11.81,3.13l-1,1a10.2,10.2,0,0,1-1.06,1A14.89,14.89,0,0,1,6,56.35L3.34,58a5.37,5.37,0,0,0-1.09.84L2,59a2,2,0,0,0-.54,1.4,4.37,4.37,0,0,0,.34,1.44,37.92,37.92,0,0,0,2.05,4.74L5,68.91a4.86,4.86,0,0,0,.74,1.14,2.36,2.36,0,0,0,.9.61,4,4,0,0,0,.8.53,22.19,22.19,0,0,0,7.22,2.17,60.14,60.14,0,0,0,7.66.38q3.3,0,6.63,0,16.31-.17,24.49-.39c.78,0,1.36,0,1.75-.1A6.37,6.37,0,0,0,56.3,73l.21.06A2,2,0,0,0,57.57,73a5.72,5.72,0,0,0,1-.52A29.82,29.82,0,0,0,66,66.25a38.09,38.09,0,0,0,3.26-5c.15-.25.28-.49.4-.72l.15-.18a13.09,13.09,0,0,0,1.31-2,5.88,5.88,0,0,0,.68-2.23,6.09,6.09,0,0,0-.24-2.09,19.69,19.69,0,0,0-.74-2q-3.66-8.65-8-17.19Q61.35,25,61.26,23.31c0-.54,0-1.55.15-3a4.28,4.28,0,0,0-1.91-3.82,5.26,5.26,0,0,0-3.9-1.4Q23.41,19.2,21.44,26.24Z"/>
        </g>
        <path class="cls-5" d="M56.77,21.14s0,15.26-2.35,20-17,10.21-22.69,9.72l-.42,3.45-6,.51-2.52-2,1-2.73s-7.82-2.82-11-6.36l2-3.44Z"/>
        <g id="Layer0_6_MEMBER_1_FILL" data-name="Layer0 6 MEMBER 1 FILL">
            <path class="cls-6"
                  d="M59.18,18.31A6.32,6.32,0,0,0,58.55,17a2.45,2.45,0,0,0-.43-.54A3.25,3.25,0,0,0,57,15.92a9.59,9.59,0,0,0-1.09-.33,2.06,2.06,0,0,0-1,.09l-6.82,5.69,9.18,1.9a3.92,3.92,0,0,0,1,.09,1.25,1.25,0,0,0,.45-.13C59.51,22.65,59.64,21,59.18,18.31Z"/>
        </g>
        <g id="Layer0_6_MEMBER_0_MEMBER_3_MEMBER_0_FILL" data-name="Layer0 6 MEMBER 0 MEMBER 3 MEMBER 0 FILL">
            <path class="cls-7"
                  d="M50.62,67.23a69.46,69.46,0,0,1-9.11.72A198.66,198.66,0,0,1,2.84,64.6c.31.67.63,1.34,1,2L5,68.91a4.86,4.86,0,0,0,.74,1.14,2.36,2.36,0,0,0,.9.61,4,4,0,0,0,.8.53,22.19,22.19,0,0,0,7.22,2.17,60.14,60.14,0,0,0,7.66.38q3.3,0,6.63,0,16.31-.17,24.49-.39c.78,0,1.36,0,1.75-.1A6.37,6.37,0,0,0,56.3,73l.21.06A2,2,0,0,0,57.57,73a5.72,5.72,0,0,0,1-.52A29.82,29.82,0,0,0,66,66.25a37.54,37.54,0,0,0,3.24-5c-3.15,1.33-5.64,2.33-7.46,3A61.48,61.48,0,0,1,50.62,67.23Z"/>
        </g>
        <g class="cls-8">
            <path class="cls-9"
                  d="M75.32,59.44l-.16-.13a26.17,26.17,0,0,1-2.31-2.24L72,56.19l-1.15-1.32a16.43,16.43,0,0,0,1.47-3.18,70,70,0,0,0-5.45-4.93c-2.31.92-5.51,1.85-10.67,3.83-.18,1.16-.9,2.93-1.11,4.28a2.44,2.44,0,0,0,.22,1.46,2.33,2.33,0,0,0,1,.74l.66.26a46.38,46.38,0,0,0,.4,8.23q1,1.91,2.22,3.9a3.81,3.81,0,0,0,.69,0,27,27,0,0,0,5.15-.79A17.17,17.17,0,0,0,68.15,68a11.88,11.88,0,0,0,2.25-1.24,24.29,24.29,0,0,0,4.1-3.32,2.53,2.53,0,0,0,.69-1,1.05,1.05,0,0,0,0-.61l0-.08a1.45,1.45,0,0,0,.11-.25C75.3,60.76,75.31,60.08,75.32,59.44Z"/>
        </g>
        <g id="Layer0_6_MEMBER_0_MEMBER_3_MEMBER_1_FILL" data-name="Layer0 6 MEMBER 0 MEMBER 3 MEMBER 1 FILL">
            <path class="cls-5"
                  d="M27.38,58.74a35.49,35.49,0,0,0,3.89.77s0,0,0,0a7.5,7.5,0,0,1-1.5-.5l-1.47-.66a25.91,25.91,0,0,0-4.44-1.39c-1-.23-2.56-.5-4.59-.82a1.5,1.5,0,0,0-.6,0c-.24.08-.35.23-.32.43s.23.36.65.44c1.85.3,3.35.57,4.51.83l3.83,1m-2.71-3.16a65.09,65.09,0,0,0-6.9-1.39,40.2,40.2,0,0,1-6.84-1.54,1,1,0,0,0-.4-.08c-.18,0-.27.11-.27.26a.43.43,0,0,0,.16.29,7.47,7.47,0,0,0,3,1.78,16.06,16.06,0,0,0,2.62.5c1,.13,2.57.3,4.64.53a22.33,22.33,0,0,0,2.27.16,11.93,11.93,0,0,0,2.28-.21A1.19,1.19,0,0,0,24.67,55.58Z"/>
        </g>
        <g id="Layer0_6_MEMBER_0_MEMBER_4_MEMBER_0_FILL" data-name="Layer0 6 MEMBER 0 MEMBER 4 MEMBER 0 FILL">
            <path class="cls-10"
                  d="M60.27,68.17a4.93,4.93,0,0,0,.69,0,28.72,28.72,0,0,0,5.15-.79,19.29,19.29,0,0,0,2.68-.75A12.14,12.14,0,0,0,71,65.43a24.36,24.36,0,0,0,4.11-3.32,2.86,2.86,0,0,0,.69-1,1.06,1.06,0,0,0,0-.61.11.11,0,0,0,0-.08,1.56,1.56,0,0,0,.11-.26c0-.71,0-1.38,0-2L75.8,58a26.49,26.49,0,0,1-2.31-2.25l-.82-.88a41.75,41.75,0,0,1-4.54-6l-.86.47Q62.23,52,57.78,54a46.56,46.56,0,0,0,.27,10.28Q59,66.19,60.27,68.17Z"/>
        </g>
        <g class="cls-11">
            <path class="cls-5"
                  d="M72.52,55.08a19.68,19.68,0,0,0,1.72-3.63,66.87,66.87,0,0,0-5.46-4.93q-3.45,1.36-11.19,4.33c-.18,1.17-.37,2.43-.59,3.78a2.43,2.43,0,0,0,.23,1.46,2.34,2.34,0,0,0,1,.74A17,17,0,0,0,62.07,58a38,38,0,0,0,4,.45l.29,0,.33,1.2c.09.27.14.46.17.58a3.48,3.48,0,0,1,.06.35c0,.12.08.24.11.35a1,1,0,0,0,.11.23l.13.13,2.43-1,1.52-.64-.75-1.79A8.32,8.32,0,0,0,72.52,55.08Z"/>
        </g>
        <g id="Layer0_6_MEMBER_0_MEMBER_4_MEMBER_1_FILL" data-name="Layer0 6 MEMBER 0 MEMBER 4 MEMBER 1 FILL">
            <path class="cls-10"
                  d="M56.35,49.81c-.18,1.17-.38,2.43-.59,3.78A2.52,2.52,0,0,0,56,55.05a2.32,2.32,0,0,0,1,.73,16.69,16.69,0,0,0,3.84,1.13,38,38,0,0,0,4,.45,11.44,11.44,0,0,0,2,0,8,8,0,0,0,2-.45c.64-.21,1.43-1.17,2.38-2.89A19.38,19.38,0,0,0,73,50.41a66.87,66.87,0,0,0-5.46-4.93C65.23,46.39,61.51,47.84,56.35,49.81Z"/>
        </g>
        <g id="Layer0_6_MEMBER_0_MEMBER_4_MEMBER_2_FILL" data-name="Layer0 6 MEMBER 0 MEMBER 4 MEMBER 2 FILL">
            <path class="cls-12"
                  d="M65.39,54.23l-.42.13-.37.11a1.08,1.08,0,0,0,0,.43c0,.13,0,.27,0,.42.1.41.21.84.32,1.28l.54,2a4.17,4.17,0,0,1,.16.57,2.08,2.08,0,0,1,.07.36c0,.12.07.24.11.35a1,1,0,0,0,.11.23.74.74,0,0,0,.13.12l2.42-1L70,58.54c-.68-1.59-1.18-2.8-1.51-3.62-.21-.51-.4-1-.58-1.46l-.91.29Z"/>
        </g>
        <g id="Layer0_6_MEMBER_0_MEMBER_5_FILL" data-name="Layer0 6 MEMBER 0 MEMBER 5 FILL">
            <path class="cls-4"
                  d="M57.83,11.81q-4.44.13-7.24.37-3.39,1.7-6.45,3H44a44.53,44.53,0,0,1-12.14.31,56.74,56.74,0,0,1-7.86-2c-1.63.45-3.14.94-4.54,1.46-.19.06-1.18.51-3,1.33-.33.69-.69,1.45-1.1,2.28a62.56,62.56,0,0,1-4.52,7.94C10,27.81,9.43,28.7,9.15,29.17a11.23,11.23,0,0,0-1.51,4c.31,1.42.59,2.73.84,4a3.9,3.9,0,0,0,.4.51,3.23,3.23,0,0,0,.37.37l.33.37a39.54,39.54,0,0,0,9.94,7.65l.09,0c.8.45,1.62.87,2.46,1.27a15.13,15.13,0,0,0,6.56.69q3.56-.34,7.05-1a53.54,53.54,0,0,0,6.66-1.58,20.9,20.9,0,0,0,6-3,11,11,0,0,0,2.77-2.83,11.17,11.17,0,0,0,1.19-2.5c.23-.67.48-1.58.74-2.71q.7-3.09,1.83-9.28c.34-1.9.55-3.34.64-4.3.12-1.43.19-2.21.21-2.33a5.6,5.6,0,0,1,.72-2.16A1.11,1.11,0,0,1,57,16c0,.09.64.1.73.22a6.15,6.15,0,0,1,1.42,2.57c.09.36.25,1.1.37,1.44a3.8,3.8,0,0,0,1.94.11c-.19-.56.1-2-.13-2.59A16.51,16.51,0,0,0,57.83,11.81Z"/>
        </g>
        <g class="cls-13">
            <g id="Layer0_6_MEMBER_0_MEMBER_6_FILL" data-name="Layer0 6 MEMBER 0 MEMBER 6 FILL">
                <path class="cls-3"
                      d="M26.53,38.11l.08.12a4.57,4.57,0,0,0,1.83-.45A4,4,0,0,0,29.9,36.6l-.06-.12a1.68,1.68,0,0,0-1.11.2,8.32,8.32,0,0,0-2.2,1.43M34.25,35c0-.17-.13-.28-.35-.32a1,1,0,0,0-.48.11,4.71,4.71,0,0,0-.79.48l-2.7,2.07c-.24.19-.62.46-1.14.8a3.86,3.86,0,0,0-1,1,.37.37,0,0,0-.06.27.31.31,0,0,0,.19.16,1.49,1.49,0,0,0,1,.05,3,3,0,0,0,.93-.4,5,5,0,0,0,.92-.63l2.26-2a7.17,7.17,0,0,0,1-1.25.73.73,0,0,0,.14-.38m2.52,2a13.85,13.85,0,0,0,3.13-2.5A32.64,32.64,0,0,0,46,25.91a10.83,10.83,0,0,0,.56-1.28c.14-.42.11-.69-.09-.83a.41.41,0,0,0-.49,0,1.31,1.31,0,0,0-.41.43l-2.12,3.07q-1.66,2.33-2.91,3.8a27.62,27.62,0,0,1-3.35,3.39,43.18,43.18,0,0,1-3.58,2.58l-2.55,1.72q1.33-.27,2.58-.63A14.68,14.68,0,0,0,36.77,37Z"/>
            </g>
        </g>
        <g id="Layer0_6_MEMBER_0_MEMBER_7_FILL" data-name="Layer0 6 MEMBER 0 MEMBER 7 FILL">
            <path class="cls-5"
                  d="M43.35,51.18c-.12.06-.14.21-.08.45l.23.85a3.54,3.54,0,0,0,.93,1.75c.09.06.16.08.19.05a.17.17,0,0,0,.05-.13,7.25,7.25,0,0,0-.44-1.95,2.56,2.56,0,0,0-.46-.91c-.16-.16-.3-.2-.42-.11M47,54.4c0-.17-.09-.3-.11-.4l0-.32-.16-.35a8.4,8.4,0,0,0-1.67-2.23.76.76,0,0,0-.4-.26.19.19,0,0,0-.14.13.4.4,0,0,0,.08.34l1.35,2.31a2.8,2.8,0,0,0,.53.77l.43.4c.07,0,.12,0,.14,0a.65.65,0,0,0,0-.39m3.45.18A23.47,23.47,0,0,0,48.13,52a3,3,0,0,0-1.1-.67,1,1,0,0,0-.32,0,.33.33,0,0,0-.26.19.51.51,0,0,0,.1.43,10.23,10.23,0,0,0,1.1,1.4L49.18,55a8.29,8.29,0,0,0,.64.62,1.68,1.68,0,0,0,.77.4.33.33,0,0,0,.31,0,.45.45,0,0,0,.11-.26A1.93,1.93,0,0,0,50.49,54.58Z"/>
        </g>
        <g id="Layer0_6_MEMBER_0_MEMBER_8_FILL" data-name="Layer0 6 MEMBER 0 MEMBER 8 FILL">
            <path class="cls-12"
                  d="M25.39,43.36c-.23.64-.52,1.42-.87,2.33q-1,2.7-1.76,4.44c-.39.88-.68,1.54-.87,2l3.23,1.59c1.83.06,3.63,0,5.39-.08A54.29,54.29,0,0,0,31.09,44c0-.35,0-.68-.06-1l-1.39.11C28,43.22,26.61,43.3,25.39,43.36Z"/>
        </g>
        <g id="Layer0_6_MEMBER_2_FILL" data-name="Layer0 6 MEMBER 2 FILL">
            <path class="cls-5"
                  d="M59.14,41.24a1.5,1.5,0,0,0-.36.48,1.18,1.18,0,0,0-.16.76A1.26,1.26,0,0,0,59,43v.08c0,.08.05.09.11,0l.11-.12a.49.49,0,0,1,.18-.09.86.86,0,0,0,.35-.45,2.2,2.2,0,0,0,.23-.77.56.56,0,0,0-.2-.52.52.52,0,0,0-.58.05m-.38-2.55a.69.69,0,0,0-.35,0,.91.91,0,0,0-.44.21.84.84,0,0,0-.24.5,1.26,1.26,0,0,0,.11,1,.67.67,0,0,0,.31.28.55.55,0,0,0,.55-.11,1.49,1.49,0,0,0,.35-.46,1.57,1.57,0,0,0,.17-.79.83.83,0,0,0-.14-.38.55.55,0,0,0-.32-.23M60.28,23q.09-.33-.06-.45a.27.27,0,0,0-.37,0,1,1,0,0,0-.26.29A9.08,9.08,0,0,0,58.82,25c-.25,1.14-.53,2.66-.83,4.54-.14.81-.27,1.67-.39,2.57a25.57,25.57,0,0,0-.3,3.06,9.23,9.23,0,0,0,.35,3c.06.19.14.26.24.23s.13-.09.15-.24c.41-3.39.74-5.94,1-7.64C59.4,27.61,59.82,25.08,60.28,23Z"/>
        </g>
        <g id="Layer0_6_MEMBER_3_FILL" data-name="Layer0 6 MEMBER 3 FILL">
            <path class="cls-14"
                  d="M24,13.48c-1.63.45-3.14.94-4.54,1.46-.19.06-1.18.51-3,1.33-.33.69-.69,1.45-1.1,2.28a62.56,62.56,0,0,1-4.52,7.94c-.67,1-1.17,1.74-1.49,2.25q6.82,1.38,13.49,3.39c2.83.88,4.82.21,6-2a51,51,0,0,0,3.8-14.51l-.77-.08A56.74,56.74,0,0,1,24,13.48Z"/>
        </g>
        <g id="Layer0_6_MEMBER_3_MEMBER_0_FILL" data-name="Layer0 6 MEMBER 3 MEMBER 0 FILL">
            <path class="cls-15"
                  d="M24.3,30.31a.81.81,0,0,0-.16.36,3.34,3.34,0,0,0,.06,1.23l.29,1.69a1.51,1.51,0,0,0,.36.88.35.35,0,0,0,.35.13.31.31,0,0,0,.24-.21,1.6,1.6,0,0,0,.08-1,22.08,22.08,0,0,0-.61-2.81c-.06-.21-.15-.34-.26-.38a.32.32,0,0,0-.35.09m1.36-.14a1.38,1.38,0,0,0,0,.53,6.85,6.85,0,0,0,.21.75,4.57,4.57,0,0,0,1.11,2,.55.55,0,0,0,.5.18.31.31,0,0,0,.25-.27,1.12,1.12,0,0,0-.11-.74L26.92,31a3.79,3.79,0,0,0-.31-.69c-.18-.3-.37-.44-.58-.42a.46.46,0,0,0-.37.31M33,26a4,4,0,0,0-1.44-.79c-.62-.26-1.09-.45-1.42-.56a6.52,6.52,0,0,0-1.44-.39.85.85,0,0,0-.51,0,.34.34,0,0,0-.26.24c0,.14,0,.29.22.45l.47.34a14.29,14.29,0,0,0,1.89,1.05,13.13,13.13,0,0,0,1.87.65,1,1,0,0,0,.46,0,.5.5,0,0,0,.43-.51A.92.92,0,0,0,33,26Z"/>
        </g>
        <circle class="cls-16" cx="63.86" cy="63.81" r="15"/>
        <polyline class="cls-17" points="53.41 63.88 54.45 63.88 70.9 63.88 71.8 63.88"/>
        <line class="cls-17" x1="74.31" y1="63.88" x2="74.2" y2="63.88"/>
        <line class="cls-18" x1="63.86" y1="54.42" x2="63.86" y2="73.35"/>
    </g>
</svg>