<svg xmlns="http://www.w3.org/2000/svg" xmlns:xlink="http://www.w3.org/1999/xlink" viewBox="0 0 66 66"><defs><style>.cls-1{fill:none;}.cls-2{fill:#ff4e5e;}.cls-10,.cls-11,.cls-2,.cls-4,.cls-5,.cls-6,.cls-7,.cls-8,.cls-9{fill-rule:evenodd;}.cls-3{clip-path:url(#clip-path);}.cls-4{fill:#acd1f9;}.cls-5{fill:#5a94bf;}.cls-6{fill:#cad8a4;}.cls-7{fill:#9fad6c;}.cls-8{fill:#a3481f;}.cls-9{fill:#fff;}.cls-10{fill:#333;}.cls-11{fill:#95c1e8;}</style><clipPath id="clip-path"><circle class="cls-1" cx="33" cy="32" r="26.76" transform="translate(-12.96 32.71) rotate(-45)"/></clipPath></defs><title>Plan de travail 72 copie</title><g id="Calque_7" data-name="Calque 7"><path class="cls-2" d="M55.7,53.16a4,4,0,1,0,0-8.06h-.65a4,4,0,1,1,0-8.07h3.66a4,4,0,1,0,0-8.06H51.83a4,4,0,1,1,0-8.07h2.61a4,4,0,1,0,0-8.06H18.26a4,4,0,0,0,0,8.06H20.7a4,4,0,0,1,0,8.07H7.29a4,4,0,1,0,0,8.06h3.06a4,4,0,0,1,4,4c0,2.21-1.35,4-3,4s-3,1.81-3,4a4,4,0,0,0,4,4Z"/><g class="cls-3"><path class="cls-2" d="M38.69,66.39a4.59,4.59,0,0,1-2.23,3.74,8.68,8.68,0,0,1-4.55.94,6.19,6.19,0,0,1-4.56-2.26,7.17,7.17,0,0,1-1.82-4.68c1.2.29,2.66.6,4.37.92C32.66,65.56,35.59,66,38.69,66.39Z"/><path class="cls-4" d="M34.66,47.82a42.38,42.38,0,0,1,1.94,4.39,51.1,51.1,0,0,1,2.1,6.85q.54,4,.65,5.58v2.2A27.77,27.77,0,0,1,24.17,64c.3-.59.77-1.46,1.39-2.62a25.69,25.69,0,0,0,2-5.18,39.61,39.61,0,0,0,.8-6.55c0-1.78.37-2.93,1.12-3.46a2.43,2.43,0,0,1,1.79-.67.2.2,0,0,1,.11,0,.92.92,0,0,1,.31.07,3.78,3.78,0,0,1,1.73.78A4.79,4.79,0,0,1,34.66,47.82Z"/><path class="cls-5" d="M27.21,45c.82-.84,2.36-1.46,4.62-1.88s3.39-.34,3.39.26a1.16,1.16,0,0,1-.37.67,1.7,1.7,0,0,1-.19.19c-.27,1.34-1.67,3-4.2,4.91q-.32,0-1-.84c-.43-.62-.69-1-.78-1.09-.36-.34-.66-.64-.91-.9-.46-.48-.69-.83-.69-1.06A.34.34,0,0,1,27.21,45Z"/><path class="cls-6" d="M31.44,42.07a3.86,3.86,0,0,0,.63-.12,3,3,0,0,1,.06.34c.06.73.1,1.15.13,1.25l.15,2.51A8.74,8.74,0,0,1,31.24,49c-.41.55-.73.44-.94-.33a5,5,0,0,1-.22-1.91,2.32,2.32,0,0,0,.06-.45,22.74,22.74,0,0,0-.28-2.63A12.12,12.12,0,0,0,29.5,42a3.89,3.89,0,0,0,.51,0Z"/><path class="cls-7" d="M31.44,42.07a3.86,3.86,0,0,0,.63-.12,3,3,0,0,1,.06.34c.06.73.1,1.15.13,1.25s0,.2,0,.31a3.6,3.6,0,0,1-.39.62,1.84,1.84,0,0,1-1.34.8h-.09a.39.39,0,0,1-.21-.06.52.52,0,0,1-.2-.17c-.05-.47-.12-.93-.19-1.39A12.12,12.12,0,0,0,29.5,42a3.89,3.89,0,0,0,.51,0Z"/><path class="cls-7" d="M16,26.84q-4.58-8.89-3.86-9.18c.47-.19,1.62.53,3.43,2.14A24.26,24.26,0,0,1,18.69,23C18,23.89,17.13,25.18,16,26.84Z"/><path class="cls-6" d="M44.84,11.94a7.68,7.68,0,0,1,1.92,2.38,7,7,0,0,1,.8,2.22,31,31,0,0,1,.31,4.6A65.24,65.24,0,0,1,47.38,30c-.33,2.31-.58,3.81-.77,4.48a7.23,7.23,0,0,1-.92,2,5.66,5.66,0,0,1-1.26,1.39c-.51.44-2.58,1.3-6.18,2.57a35.18,35.18,0,0,1-6.75,2,8.27,8.27,0,0,1-2-.09,30.62,30.62,0,0,1-4.22-2,41.21,41.21,0,0,1-6.19-3.9,36.49,36.49,0,0,1-3.64-3.09,9.67,9.67,0,0,1-1.8-2.26,4.79,4.79,0,0,1-.09-1.29,9.82,9.82,0,0,1,1.25-3.16c.82-1.55,2.19-4.18,4.12-7.86q.84-1.62,2.42-5.24a5.36,5.36,0,0,1,4.4-3.1A63,63,0,0,1,38.07,10C41.54,10.32,43.79,11,44.84,11.94Z"/><path class="cls-6" d="M45,10.07c-.16-.69-.24-1.06-.24-1.1,0-.63.32-.55.95.26a3.52,3.52,0,0,1,.93,1.88,2.53,2.53,0,0,1-.32,1l-.13.25c.35-.07,1.18-.3,2.5-.68a1.15,1.15,0,0,1-.49,1,3,3,0,0,1-1.68.48,3.58,3.58,0,0,1-.84,0,1.21,1.21,0,0,0-.5-.38l0-.59A9.16,9.16,0,0,0,45,10.07Z"/><path class="cls-6" d="M47.38,32.2a4,4,0,0,1-2.17-.32,6.24,6.24,0,0,1-.85-.47c.06-.32.12-.66.18-1L45,27.62a15.19,15.19,0,0,1,4.47-1.44A21.92,21.92,0,0,1,56,25.41c.6.27-.49,1.44-3.26,3.53S48.17,32.11,47.38,32.2Z"/><path class="cls-7" d="M54.72,26.22a31.86,31.86,0,0,0-6.35,2.42q.66.36.39.93a1.88,1.88,0,0,1-1.2.89,1.6,1.6,0,0,0,.22-.81,1.25,1.25,0,0,0-.79-1,9.35,9.35,0,0,1,3.58-1.51,25,25,0,0,1,4.13-.95Z"/><path class="cls-8" d="M34.37,29.43c2.65-.35,4.19-.53,4.63-.54a2,2,0,0,1,1.22.41,3.59,3.59,0,0,1,1,1.87,5.31,5.31,0,0,1-.64,3.7,8.52,8.52,0,0,1-1.43,1.6,13.76,13.76,0,0,1-3,2.1,11.3,11.3,0,0,1-5.08,1.23,20.52,20.52,0,0,1-3.7-.35c-.87-.27-1.57-.48-2.09-.62a22.44,22.44,0,0,1-2.12-.76c-.37-.15-.94-.4-1.7-.74a5.25,5.25,0,0,0,.23-.84c.17-1.05.28-1.78.32-2.18s.05-1,.05-1.88a15.18,15.18,0,0,0-.46-3.7s0,0,0,0L23,29a36.56,36.56,0,0,0,5,.78h1.73A22.33,22.33,0,0,0,34.37,29.43Z"/><path class="cls-9" d="M35.31,29.51l-.06-.11-.5.07a33.45,33.45,0,0,1-4,.23,42.28,42.28,0,0,1-5.45-.39c-1.21-.15-2.36-.34-3.46-.56l-.42-.08v0a5,5,0,0,0-.85,1.75.58.58,0,0,0,.15.43,9.81,9.81,0,0,0,3.19.95,24.34,24.34,0,0,0,4.9.63h1.84a.63.63,0,0,1,.6-.33.69.69,0,0,1,.59.21,10.74,10.74,0,0,0,3-.66,1.33,1.33,0,0,0,.82-1.3A2.3,2.3,0,0,0,35.31,29.51Z"/><path class="cls-9" d="M31.87,37.05c-.12-.73-.29-1-.51-.95a1.07,1.07,0,0,0-.52.58c-.13.29-.2.46-.23.51a3.29,3.29,0,0,1-.82.08,16.61,16.61,0,0,1-3.56-.43l-1.73-.46A8.07,8.07,0,0,1,23.13,36a11,11,0,0,1-1.34-.54,2.42,2.42,0,0,0-.4-1.07c-.21-.34-.46-.15-.73.58a4.37,4.37,0,0,0-.3,1.7c.17.12.35.23.54.34a34.66,34.66,0,0,0,5.49,1.83,27,27,0,0,0,5.1.82h.18c.15-.13.25-.65.28-1.55A7.08,7.08,0,0,0,31.87,37.05Z"/><path class="cls-7" d="M36.67,28.8c.84-.11,1.66-.19,2.44-.23A1.91,1.91,0,0,1,41,29.76a5.37,5.37,0,0,1,.7,2.34,3.9,3.9,0,0,1-.53,2.09A15.47,15.47,0,0,1,39,36.86a16.22,16.22,0,0,1-3.45,2.45,10.59,10.59,0,0,1-4.89.92,20.31,20.31,0,0,1-6.94-1.62c-2.64-1-4.06-1.93-4.28-2.75l.89.43c1.18.52,2.52,1,4,1.54a23.64,23.64,0,0,0,2.89.91,17.42,17.42,0,0,0,4.37.71A9.93,9.93,0,0,0,38,36.71c1.87-1.62,2.81-2.89,2.81-3.83,0-2-.55-3.17-1.64-3.41a6.6,6.6,0,0,0-2.51.08c-1.58.19-3.22.36-4.91.49a32.34,32.34,0,0,1-4.92,0h-.05a38,38,0,0,1-4.76-.84,5.51,5.51,0,0,1-2.67-1.38c.29.11.82.27,1.6.47a43.22,43.22,0,0,0,5.39,1,23.74,23.74,0,0,0,5.5.1c.66-.1,1.42-.2,2.26-.29Z"/><path class="cls-7" d="M39.78,26.79a2,2,0,0,1,1.8,1.26L41.4,28a6.13,6.13,0,0,0-1.88-.69h-.78a10,10,0,0,0-1.6.21,4.07,4.07,0,0,1,.69-.52,4.68,4.68,0,0,1,2.45-.51Z"/><path class="cls-10" d="M33.9,26a3,3,0,0,1-.13,1.19,11.2,11.2,0,0,1,1.57-.12c-.79.24-1.26.37-1.42.41-.43.1-1.05.3-1.86.58l-.13,0-.15,0a.21.21,0,0,1-.24-.24c0-.22.4-.4,1.19-.54a6.17,6.17,0,0,1,0-.83,1.14,1.14,0,0,1,.59-1C33.68,25.36,33.88,25.51,33.9,26Z"/><path class="cls-9" d="M33.48,26a.93.93,0,0,1-.1.39c-.09.21-.22.31-.38.31s-.3-.09-.3-.29c0-.44.18-.65.54-.65A.21.21,0,0,1,33.48,26Z"/><path class="cls-10" d="M25.51,25c.36-.23.56-.08.59.45A3.45,3.45,0,0,1,26,26.59l0,.18a2.15,2.15,0,0,1,.61.18.56.56,0,0,1,.22.21c0,.09,0,.23-.2.42-.17-.08-.56-.25-1.18-.5s-1.29-.5-2.05-.76a.63.63,0,0,1,.23,0,6.39,6.39,0,0,1,1.35.19c0-.16,0-.34,0-.54A1,1,0,0,1,25.51,25Z"/><path class="cls-9" d="M25.58,25.73a.45.45,0,0,1-.39.3.25.25,0,0,1-.28-.28c0-.44.17-.65.52-.65.17,0,.26.08.26.24A1,1,0,0,1,25.58,25.73Z"/><path class="cls-7" d="M33.12,15.65l-.17,0v-.1a12.34,12.34,0,0,0,.86-1c.21-.14.32-.06.32.23s-.12.33-.35.57A1,1,0,0,1,33.12,15.65Zm-.84-.32.41-.57A10.45,10.45,0,0,1,32,16.29a3.73,3.73,0,0,1-.9,1.44A3,3,0,0,1,28.86,19a1.1,1.1,0,0,1-1.27-1.23,2.82,2.82,0,0,1,.49-1.48,1.07,1.07,0,0,1-.51.12,1.46,1.46,0,0,1-1.21-.48.93.93,0,0,1-.24-.58,1.83,1.83,0,0,1,.21-.95,2.69,2.69,0,0,1,.48-.59l0,0a1.55,1.55,0,0,1,1-.58c-.36.33-.61.57-.76.73l-.14.16,0,.12a1.91,1.91,0,0,0-.17.51.46.46,0,0,0,.15.38,1.35,1.35,0,0,0,.88.22A5.36,5.36,0,0,0,30,14.74s0,0,0,0l.22-.18a1.29,1.29,0,0,0,.15.17l-.77,1a4.31,4.31,0,0,0-1.12,1.88.38.38,0,0,0,.09.28.85.85,0,0,0,.51.11,3,3,0,0,0,2.06-1.34c.13-.15.49-.63,1.1-1.43Z"/><path class="cls-11" d="M27.12,45.12a.27.27,0,0,1,.26-.12c.14,0,.48.37,1,1.14l.91,1.28c.76.95,1.21,1.53,1.34,1.74a2.17,2.17,0,0,0,.72-1.38c.13-.66.22-1.16.25-1.48a3.72,3.72,0,0,1,.15-.76.91.91,0,0,1,.37-.44l1.26-.62a3.25,3.25,0,0,0,1-.79,4.72,4.72,0,0,0,.45-.58s.09-.08.23-.09.17.16.1.52-.17,1-.3,1.84a11.37,11.37,0,0,0-.14,2.1c0,.55-.44,1.13-1.44,1.77a3.87,3.87,0,0,1-1.88.77c-.15,0-.4-.28-.75-.86a1.3,1.3,0,0,1,.11.26.61.61,0,0,1-.07.22.32.32,0,0,1-.28.17l-.24-.26L28.39,47.3l-.93-.86c-.39-.35-.55-.64-.49-.87A2.23,2.23,0,0,1,27.12,45.12Z"/><path class="cls-5" d="M30.15,55c0-.07,0-.14,0-.21.14-1.2.22-2,.25-2.54l.32-2.55a2.17,2.17,0,0,1,.11.58,4.79,4.79,0,0,1,.07.56A14.2,14.2,0,0,1,30.74,53,5.92,5.92,0,0,1,30.18,55Z"/><path class="cls-10" d="M31.5,52.6a1.33,1.33,0,0,1-.45.08,2.87,2.87,0,0,1-.8-.1c-.28-.09-.41-.18-.41-.29,0-.31.31-.41.95-.28s.93.26.93.39S31.64,52.54,31.5,52.6Zm-.43-1.41a3.65,3.65,0,0,1-1.13.22.34.34,0,0,1-.32-.17l0-.18c0-.37.36-.56,1.08-.56s1.06.1,1.06.35C31.72,50.93,31.5,51.05,31.07,51.19Z"/></g></g></svg>